<?xml version="1.0" encoding="utf-8"?>
<!-- Generator: Adobe Illustrator 21.1.0, SVG Export Plug-In . SVG Version: 6.00 Build 0)  -->
<svg version="1.1" id="Слой_1" xmlns="http://www.w3.org/2000/svg" xmlns:xlink="http://www.w3.org/1999/xlink" x="0px" y="0px"
	 viewBox="0 0 21 23" enable-background="new 0 0 21 23" xml:space="preserve">
<title>adults</title>
<desc>Created with Sketch.</desc>
<g id="Hotel-page" transform="translate(-698.000000, -645.000000)">
	<g id="First-screen" transform="translate(0.000000, 7.000000)">
		<g id="Form-with-dates" transform="translate(248.000000, 538.000000)">
			<g id="Adults" transform="translate(450.000000, 100.000000)">
				<g id="adults">
					<g id="boy-smiling">
						<ellipse id="Oval" fill="#5B6D7C" cx="5.9" cy="14.2" rx="1" ry="1"/>
						<ellipse id="Oval_1_" fill="#5B6D7C" cx="15.1" cy="14.2" rx="1" ry="1"/>
						<path id="Shape" fill="#5B6D7C" d="M5.9,11.6c-0.5,0-0.9,0.2-1.2,0.5c-0.2,0.2-0.2,0.4,0,0.6s0.5,0.2,0.6,0
							c0.2-0.1,0.4-0.2,0.6-0.2s0.4,0.1,0.6,0.2c0.1,0.1,0.2,0.1,0.3,0.1c0.1,0,0.2,0,0.3-0.1c0.2-0.2,0.2-0.4,0-0.6
							C6.8,11.7,6.4,11.6,5.9,11.6z"/>
						<path id="Shape_1_" fill="#5B6D7C" d="M13.9,12.1c-0.2,0.2-0.2,0.4,0,0.6c0.2,0.2,0.5,0.2,0.6,0c0.3-0.3,0.8-0.3,1.1,0
							c0.1,0.1,0.2,0.1,0.3,0.1s0.2,0,0.3-0.1c0.2-0.2,0.2-0.4,0-0.6C15.6,11.4,14.6,11.4,13.9,12.1z"/>
						<path id="Shape_2_" fill="#5B6D7C" d="M11.4,17.6c-0.2,0.2-0.5,0.3-0.9,0.3c-0.3,0-0.6-0.1-0.9-0.3c-0.2-0.2-0.5-0.2-0.6,0
							c-0.2,0.2-0.2,0.4,0,0.6c0.4,0.4,0.9,0.6,1.5,0.6c0.6,0,1.1-0.2,1.5-0.6c0.2-0.2,0.2-0.4,0-0.6C11.8,17.4,11.5,17.4,11.4,17.6
							z"/>
						<path id="Shape_3_" fill="#5B6D7C" d="M21,13.8c0-1.2-0.9-2.2-2-2.4V4.2c0-0.9-0.5-1.8-1.3-2.3c-0.8-0.5-1.7-0.6-2.5-0.3
							l-2.8-0.9C10.2-0.1,8-0.2,5.8,0.4C3,1.1,1.5,2.7,1.2,5C1,5.2,0.8,5.6,0.7,5.9L0.5,6.5c-0.1,0.3,0,0.7,0.3,0.9
							c0.3,0.2,0.7,0.2,0.9-0.1C1.8,7.2,1.9,7.1,2,7.1v4.3c-1.1,0.2-2,1.2-2,2.4C0,15,1,16,2.2,16.1c0.3,1.6,1.1,3.2,2.3,4.4
							c1.6,1.6,3.7,2.5,6,2.5c0,0,0,0,0,0c2.3,0,4.4-0.9,6-2.4c1.2-1.2,2.1-2.7,2.4-4.4C20.1,16,21,15,21,13.8z M17.2,2.5
							c0.6,0.4,0.9,1,0.9,1.6v5.7c-1.4-0.2-2.4-1.4-2.4-2.8l0-4.8C16.2,2.1,16.7,2.2,17.2,2.5z M1.5,6.4l0.1-0.2
							C1.8,5.5,2.3,5,2.9,4.7c0.6-0.3,1.4-0.3,2,0c1.3,0.6,3,0.3,4-0.8L9,3.8c0.2-0.2,0.1-0.5,0-0.6c-0.2-0.2-0.5-0.1-0.6,0L8.2,3.4
							C7.5,4.2,6.3,4.4,5.3,4c-0.9-0.4-1.9-0.4-2.8,0C2.5,4,2.4,4,2.3,4c0.5-1.3,1.8-2.3,3.7-2.8c2-0.5,4-0.5,6,0.2l2.6,0.9l0,2.2
							c-1.2,1.6-2.9,2.6-4.9,3c-2,0.4-4.1,0-5.8-1.1C3.3,5.9,2.3,5.9,1.5,6.4z M0.9,13.8c0-0.7,0.5-1.3,1.1-1.5v2.3
							c0,0.2,0,0.4,0,0.6C1.4,15.1,0.9,14.5,0.9,13.8z M15.9,19.9c-1.4,1.4-3.3,2.2-5.4,2.2c0,0,0,0,0,0c-2,0-3.9-0.8-5.4-2.2
							c-1.4-1.4-2.2-3.3-2.2-5.3V6.9c0.3,0,0.5,0.1,0.7,0.2c1.9,1.2,4.2,1.6,6.4,1.2c1.8-0.3,3.4-1.2,4.7-2.5V7
							c0,1.9,1.5,3.4,3.3,3.6v4C18.1,16.7,17.3,18.5,15.9,19.9z M19,15.2c0-0.2,0-0.3,0-0.5v-2.4c0.7,0.2,1.1,0.8,1.1,1.5
							C20.1,14.5,19.6,15.1,19,15.2z"/>
					</g>
				</g>
			</g>
		</g>
	</g>
</g>
</svg>
