<?xml version="1.0" encoding="UTF-8"?>
<svg width="16px" height="16px" viewBox="0 0 16 16" version="1.1" xmlns="http://www.w3.org/2000/svg" xmlns:xlink="http://www.w3.org/1999/xlink">
    <!-- Generator: Sketch 48.2 (47327) - http://www.bohemiancoding.com/sketch -->
    <title>aim</title>
    <desc>Created with Sketch.</desc>
    <defs></defs>
    <g id="Map_route-planner_1" stroke="none" stroke-width="1" fill="none" fill-rule="evenodd" transform="translate(-1037.000000, -270.000000)">
        <g id="Location_route-planner" transform="translate(-1.000000, 32.000000)" fill="#5EABDD">
            <g id="Location-block" transform="translate(1028.000000, 92.000000)">
                <g id="Route" transform="translate(10.000000, 145.000000)">
                    <g id="Group" transform="translate(0.000000, 1.000000)">
                        <g id="aim">
                            <g id="aim-(1)">
                                <path d="M15.6812749,7.66983267 L14.7681912,7.66983267 C14.6084143,4.18718725 11.8054821,1.3827251 8.32344223,1.22055777 L8.32344223,0.3187251 C8.32344223,0.142693227 8.180749,0 8.00471713,0 C7.82868526,0 7.68599203,0.142693227 7.68599203,0.3187251 L7.68599203,1.22055777 C4.20398406,1.3827251 1.40105179,4.18718725 1.2412749,7.66983267 L0.3187251,7.66983267 C0.142693227,7.66983267 0,7.8125259 0,7.98855777 C0,8.16458964 0.142693227,8.30728287 0.3187251,8.30728287 L1.2416255,8.30728287 C1.40605578,11.7855618 4.20710757,14.5850837 7.68599203,14.7470916 L7.68599203,15.6812749 C7.68599203,15.8573068 7.82868526,16 8.00471713,16 C8.180749,16 8.32344223,15.8573068 8.32344223,15.6812749 L8.32344223,14.7471235 C11.8023267,14.5850837 14.6033785,11.7855618 14.7678088,8.30731474 L15.6812749,8.30731474 C15.8573068,8.30731474 16,8.16462151 16,7.98858964 C16,7.81255777 15.8573068,7.66983267 15.6812749,7.66983267 Z M7.68599203,1.85851793 L7.68599203,2.84009562 C5.09590438,2.99891633 3.01717928,5.07913944 2.86068526,7.66983267 L1.87913944,7.66983267 C2.0378008,4.53870916 4.55550598,2.01953785 7.68599203,1.85851793 Z M7.68599203,14.1091315 C4.55866135,13.9482709 2.04296414,11.434008 1.87971315,8.30728287 L2.86129084,8.30728287 C3.02227888,10.8935777 5.09909163,12.9689243 7.68599203,13.1275538 L7.68599203,14.1091315 Z M8.00471713,10.5112351 C7.82868526,10.5112351 7.68599203,10.6539283 7.68599203,10.8299602 L7.68599203,12.4888924 C5.45070916,12.3322709 3.6589004,10.541992 3.49998406,8.30731474 L5.17003984,8.30731474 C5.34607171,8.30731474 5.48876494,8.16462151 5.48876494,7.98858964 C5.48876494,7.81255777 5.34607171,7.66986454 5.17003984,7.66986454 L3.49937849,7.66986454 C3.65389641,5.43078884 5.44755378,3.63566534 7.68599203,3.47882072 L7.68599203,5.17007171 C7.68599203,5.34610359 7.82868526,5.48879681 8.00471713,5.48879681 C8.180749,5.48879681 8.32344223,5.34610359 8.32344223,5.17007171 L8.32344223,3.47882072 C10.6656255,3.64293227 12.5211474,5.60066932 12.5211474,7.98387251 C12.5211474,10.3670757 10.6656574,12.3247809 8.32344223,12.4888606 L8.32344223,10.8299602 C8.32344223,10.6539283 8.180749,10.5112351 8.00471713,10.5112351 Z M8.32344223,14.1091633 L8.32344223,13.1275857 C10.9103426,12.9689562 12.9871873,10.8936096 13.1481434,8.30731474 L14.1297211,8.30731474 C13.966502,11.434008 11.4508048,13.9482709 8.32344223,14.1091633 Z M13.1487809,7.66983267 C12.9922869,5.07913944 10.9135299,2.99891633 8.3234741,2.84009562 L8.3234741,1.85851793 C11.4539602,2.01953785 13.9716653,4.53870916 14.1303267,7.66983267 L13.1487809,7.66983267 Z" id="Shape" fill-rule="nonzero"></path>
                                <path d="M11.1153146,8.30728287 L12.3361594,8.30728287 C12.6697926,8.30728287 12.940239,8.16458964 12.940239,7.98855777 C12.940239,7.8125259 12.6697926,7.66983267 12.3361594,7.66983267 L11.1153146,7.66983267 C10.7816815,7.66983267 10.5112351,7.8125259 10.5112351,7.98855777 C10.5112351,8.16458964 10.7816815,8.30728287 11.1153146,8.30728287 Z" id="Shape" fill-rule="nonzero"></path>
                            </g>
                        </g>
                    </g>
                </g>
            </g>
        </g>
    </g>
</svg>