<?xml version="1.0" encoding="UTF-8"?>
<svg width="22px" height="22px" viewBox="0 0 22 22" version="1.1" xmlns="http://www.w3.org/2000/svg" xmlns:xlink="http://www.w3.org/1999/xlink">
    <!-- Generator: Sketch 48.2 (47327) - http://www.bohemiancoding.com/sketch -->
    <title>airplane</title>
    <desc>Created with Sketch.</desc>
    <defs></defs>
    <g id="Hotel-page" stroke="none" stroke-width="1" fill="none" fill-rule="evenodd" transform="translate(-1114.000000, -3237.000000)">
        <g id="Location" transform="translate(0.000000, 3048.000000)" fill="#5EABDD">
            <g id="Location-right-block" transform="translate(1027.000000, 92.000000)">
                <g id="Airports" transform="translate(20.000000, 97.000000)">
                    <g id="Title" transform="translate(67.000000, 0.000000)">
                        <g id="airplane">
                            <g id="airplane-(1)">
                                <path d="M21.5088135,10.6968504 L13.7870072,8.00748031 L13.8843595,2.87559055 C13.9640113,1.6023622 12.8179094,0 10.9991917,0 C8.99461965,0 8.08304824,1.72362205 8.11844907,2.87559055 L8.21580136,8.00748031 L0.489569954,10.6968504 C0.197513097,10.7964567 0.00280852516,11.0692913 0.00280852516,11.3724409 L0.00280852516,13.5594488 C-0.0281672021,13.7759843 0.193087993,14.3476378 0.865703785,14.2653543 L8.30872854,12.9704724 L8.39723062,17.569685 L5.50321267,18.3795276 L5.50321267,22 L10.9991917,20.4625984 L16.4995959,22 L16.4995959,18.3838583 L13.6055779,17.5740157 L13.69408,12.9748031 L21.1371047,14.269685 C21.8274209,14.3519685 22,13.7759843 22,13.5637795 L22,11.3767717 C21.9955749,11.0692913 21.8008703,10.8007874 21.5088135,10.6968504 Z M0.737375772,13.5637795 L0.737375772,11.3767717 L8.22907667,8.76968504 L8.29545323,12.2515748 L0.737375772,13.5637795 Z M15.7650286,18.9251969 L15.7650286,21.0472441 L10.9991917,19.7177165 L6.23335481,21.0472441 L6.23335481,18.9251969 L9.13622297,18.1110236 L8.84859122,2.85826772 C8.84416611,2.12204724 9.30880202,0.714566929 10.9947666,0.714566929 C12.5789538,0.714566929 13.2205939,2.1480315 13.140942,2.85826772 L12.8533102,18.1066929 L15.7650286,18.9251969 Z M21.2654328,13.5637795 L13.7073553,12.2472441 L13.7737319,8.76535433 L21.2654328,11.3724409 L21.2654328,13.5637795 Z" id="Shape" fill-rule="nonzero"></path>
                            </g>
                        </g>
                    </g>
                </g>
            </g>
        </g>
    </g>
</svg>