<?xml version="1.0" encoding="utf-8"?>
<!-- Generator: Adobe Illustrator 21.1.0, SVG Export Plug-In . SVG Version: 6.00 Build 0)  -->
<svg version="1.1" id="Слой_1" xmlns="http://www.w3.org/2000/svg" xmlns:xlink="http://www.w3.org/1999/xlink" x="0px" y="0px"
	 viewBox="0 0 34 34" enable-background="new 0 0 34 34" xml:space="preserve">
<title>alarm-clock</title>
<desc>Created with Sketch.</desc>
<g id="Hotel-page_room-with-rates" transform="translate(-850.000000, -895.000000)">
	<g id="Hotel-overview-open" transform="translate(0.000000, 781.000000)">
		<g id="Check-in_x2F_Check-out" transform="translate(735.000000, 97.000000)">
			<g id="Group-33" transform="translate(31.000000, 17.000000)">
				<g id="alarm-clock" transform="translate(84.000000, 0.000000)">
					<g id="Shape">
						<path fill="#5EABDD" d="M23.1,16.8H19c-0.2-0.8-0.8-1.4-1.6-1.6V9.3c0-0.3-0.3-0.6-0.6-0.6S16.2,9,16.2,9.3v5.8
							c-1,0.3-1.7,1.2-1.7,2.2c0,1.3,1,2.3,2.3,2.3c1.1,0,2-0.7,2.2-1.7h4.1c0.3,0,0.6-0.3,0.6-0.6S23.4,16.8,23.1,16.8z M16.8,18.5
							c-0.6,0-1.2-0.5-1.2-1.2c0-0.6,0.5-1.2,1.2-1.2s1.2,0.5,1.2,1.2C17.9,18,17.4,18.5,16.8,18.5z"/>
						<path fill="#5EABDD" d="M28.9,5.6L31.3,8c0.1,0.1,0.3,0.2,0.4,0.2S32,8.1,32.1,8c1.8-1.8,1.8-4.8,0-6.6s-4.8-1.8-6.6,0
							c-0.1,0.1-0.2,0.3-0.2,0.4s0.1,0.3,0.2,0.4l2.6,2.6l-1,1c-2.8-2.5-6.4-4-10.4-4s-7.6,1.5-10.4,4l-1-1L8,2.2
							c0.1-0.1,0.2-0.3,0.2-0.4S8.1,1.5,8,1.4c-1.8-1.8-4.8-1.8-6.6,0s-1.8,4.8,0,6.6c0.1,0.1,0.3,0.2,0.4,0.2S2.1,8.1,2.2,8
							l2.4-2.4l1,1c-2.7,2.8-4.4,6.6-4.4,10.8c0,5.7,3.1,10.7,7.7,13.4l-1.7,1.7c-0.2,0.2-0.2,0.6,0,0.8c0.1,0.1,0.3,0.2,0.4,0.2
							c0.1,0,0.3-0.1,0.4-0.2l2-2c2.1,1,4.4,1.6,6.8,1.6s4.8-0.6,6.8-1.6l2,2c0.1,0.1,0.3,0.2,0.4,0.2s0.3-0.1,0.4-0.2
							c0.2-0.2,0.2-0.6,0-0.8l-1.7-1.7c4.6-2.7,7.7-7.7,7.7-13.4c0-4.2-1.7-8-4.4-10.8L28.9,5.6z M31.3,2.2c1.2,1.2,1.4,3.2,0.4,4.5
							l-4.9-4.9C28.1,0.8,30,0.9,31.3,2.2z M1.9,6.7C0.9,5.4,1,3.4,2.2,2.2s3.2-1.4,4.5-0.4L1.9,6.7z M16.8,31.8
							c-7.9,0-14.4-6.5-14.4-14.4S8.8,3,16.8,3s14.4,6.5,14.4,14.4S24.7,31.8,16.8,31.8z"/>
						<path fill="#5EABDD" d="M16.8,5.8c0.3,0,0.6-0.3,0.6-0.6V4.6c0-0.3-0.3-0.6-0.6-0.6s-0.6,0.3-0.6,0.6v0.6
							C16.2,5.5,16.4,5.8,16.8,5.8z"/>
						<path fill="#5EABDD" d="M16.8,28.8c-0.3,0-0.6,0.3-0.6,0.6V30c0,0.3,0.3,0.6,0.6,0.6s0.6-0.3,0.6-0.6v-0.6
							C17.3,29.1,17.1,28.8,16.8,28.8z"/>
						<path fill="#5EABDD" d="M28.9,17.9h0.6c0.3,0,0.6-0.3,0.6-0.6s-0.3-0.6-0.6-0.6h-0.6c-0.3,0-0.6,0.3-0.6,0.6
							S28.5,17.9,28.9,17.9z"/>
						<path fill="#5EABDD" d="M4.7,16.7H4.1c-0.3,0-0.6,0.3-0.6,0.6s0.3,0.6,0.6,0.6h0.6c0.3,0,0.6-0.3,0.6-0.6S5,16.7,4.7,16.7z"/>
						<path fill="#5EABDD" d="M25.3,7.9l-0.4,0.4c-0.2,0.2-0.2,0.6,0,0.8c0.1,0.1,0.3,0.2,0.4,0.2s0.3-0.1,0.4-0.2l0.4-0.4
							c0.2-0.2,0.2-0.6,0-0.8C25.9,7.7,25.5,7.7,25.3,7.9z"/>
						<path fill="#5EABDD" d="M7.8,25.5l-0.4,0.4c-0.2,0.2-0.2,0.6,0,0.8c0.1,0.1,0.3,0.2,0.4,0.2s0.3-0.1,0.4-0.2l0.4-0.4
							c0.2-0.2,0.2-0.6,0-0.8C8.4,25.2,8,25.2,7.8,25.5z"/>
						<path fill="#5EABDD" d="M25.7,25.5c-0.2-0.2-0.6-0.2-0.8,0c-0.2,0.2-0.2,0.6,0,0.8l0.4,0.4c0.1,0.1,0.3,0.2,0.4,0.2
							c0.1,0,0.3-0.1,0.4-0.2c0.2-0.2,0.2-0.6,0-0.8L25.7,25.5z"/>
						<path fill="#5EABDD" d="M8.2,7.9C8,7.7,7.6,7.7,7.4,7.9c-0.2,0.2-0.2,0.6,0,0.8l0.4,0.4c0.1,0.1,0.3,0.2,0.4,0.2
							c0.1,0,0.3-0.1,0.4-0.2c0.2-0.2,0.2-0.6,0-0.8L8.2,7.9z"/>
					</g>
				</g>
			</g>
		</g>
	</g>
</g>
</svg>
