<?xml version="1.0" encoding="UTF-8"?>
<svg width="25px" height="20px" viewBox="0 0 25 20" version="1.1" xmlns="http://www.w3.org/2000/svg" xmlns:xlink="http://www.w3.org/1999/xlink">
    <!-- Generator: Sketch 48.2 (47327) - http://www.bohemiancoding.com/sketch -->
    <title>armchair</title>
    <desc>Created with Sketch.</desc>
    <defs></defs>
    <g id="Tablet_Pop-up-room-gallery" stroke="none" stroke-width="1" fill="none" fill-rule="evenodd" transform="translate(-30.000000, -1188.000000)">
        <g id="Room-comfortability" transform="translate(30.000000, 1188.000000)" fill="#5EABDD">
            <g id="armchair">
                <g id="Shape">
                    <path d="M18.3272727,15.5206897 L6.67348485,15.5206897 C6.46439394,15.5206897 6.29469697,15.3662069 6.29469697,15.1758621 L6.29469697,9.57448276 C6.29469697,8.00896552 4.89545455,6.73655172 3.17651515,6.73655172 C1.84242424,6.73655172 0.757575758,7.72344828 0.757575758,8.93793103 C0.757575758,9.87172414 1.59166667,10.6303448 2.61666667,10.6303448 C3.39469697,10.6303448 4.0280303,10.0537931 4.0280303,9.34551724 C4.0280303,8.81655172 3.55530303,8.3862069 2.97424242,8.3862069 C2.76515152,8.3862069 2.59545455,8.23172414 2.59545455,8.04137931 C2.59545455,7.85103448 2.76515152,7.69655172 2.97424242,7.69655172 C3.97272727,7.69655172 4.78560606,8.43586207 4.78560606,9.34551724 C4.78560606,10.4344828 3.81287879,11.32 2.61666667,11.32 C1.17424242,11.32 0,10.2510345 0,8.93793103 C0,7.34344828 1.425,6.04689655 3.17575758,6.04689655 C5.31287879,6.04689655 7.05151515,7.62965517 7.05151515,9.57448276 L7.05151515,14.8310345 L17.9484848,14.8310345 L17.9484848,9.57448276 C17.9484848,7.62965517 19.6871212,6.04689655 21.8234848,6.04689655 C23.575,6.04689655 24.9992424,7.34413793 24.9992424,8.93793103 C24.9992424,10.2510345 23.825,11.32 22.3825758,11.32 C21.1871212,11.32 20.2143939,10.4344828 20.2143939,9.34551724 C20.2143939,8.43655172 21.0265152,7.69655172 22.025,7.69655172 C22.2340909,7.69655172 22.4037879,7.85103448 22.4037879,8.04137931 C22.4037879,8.23172414 22.2340909,8.3862069 22.025,8.3862069 C21.4439394,8.3862069 20.9719697,8.81655172 20.9719697,9.34551724 C20.9719697,10.0537931 21.6045455,10.6303448 22.3825758,10.6303448 C23.4083333,10.6303448 24.2416667,9.87103448 24.2416667,8.93793103 C24.2416667,7.72344828 23.1568182,6.73655172 21.8234848,6.73655172 C20.1037879,6.73655172 18.7060606,8.00965517 18.7060606,9.57448276 L18.7060606,15.1758621 C18.7060606,15.3662069 18.5371212,15.5206897 18.3272727,15.5206897 Z" fill-rule="nonzero"></path>
                    <path d="M21.2810606,18.8303448 L3.80151515,18.8303448 C2.93939394,18.8303448 2.23863636,18.1917241 2.23863636,17.4075862 L2.23863636,10.9758621 C2.23863636,10.7855172 2.40833333,10.6310345 2.61742424,10.6310345 C2.82651515,10.6310345 2.99621212,10.7855172 2.99621212,10.9758621 L2.99621212,17.4075862 C2.99621212,17.8117241 3.35833333,18.1406897 3.80151515,18.1406897 L21.2810606,18.1406897 C21.725,18.1406897 22.0863636,17.8110345 22.0863636,17.4075862 L22.0863636,10.9758621 C22.0863636,10.7855172 22.2560606,10.6310345 22.4651515,10.6310345 C22.6742424,10.6310345 22.8439394,10.7855172 22.8439394,10.9758621 L22.8439394,17.4075862 C22.8439394,18.1917241 22.1431818,18.8303448 21.2810606,18.8303448 Z" fill-rule="nonzero"></path>
                    <path d="M18.3272727,12.6006897 L6.67348485,12.6006897 C6.46439394,12.6006897 6.29469697,12.4462069 6.29469697,12.2558621 C6.29469697,12.0655172 6.46439394,11.9110345 6.67348485,11.9110345 L18.3280303,11.9110345 C18.5371212,11.9110345 18.7068182,12.0655172 18.7068182,12.2558621 C18.7068182,12.4462069 18.5371212,12.6006897 18.3272727,12.6006897 Z" fill-rule="nonzero"></path>
                    <path d="M6.67348485,19.9496552 C6.46439394,19.9496552 6.29469697,19.7951724 6.29469697,19.6048276 L6.29469697,18.7586207 C6.29469697,18.5682759 6.46439394,18.4137931 6.67348485,18.4137931 C6.88257576,18.4137931 7.05227273,18.5682759 7.05227273,18.7586207 L7.05227273,19.6048276 C7.05227273,19.7951724 6.88257576,19.9496552 6.67348485,19.9496552 Z" fill-rule="nonzero"></path>
                    <path d="M18.3272727,19.9496552 C18.1181818,19.9496552 17.9484848,19.7951724 17.9484848,19.6048276 L17.9484848,18.7586207 C17.9484848,18.5682759 18.1181818,18.4137931 18.3272727,18.4137931 C18.5363636,18.4137931 18.7060606,18.5682759 18.7060606,18.7586207 L18.7060606,19.6048276 C18.7060606,19.7951724 18.5371212,19.9496552 18.3272727,19.9496552 Z" fill-rule="nonzero"></path>
                    <path d="M20.8810606,6.73655172 C20.6719697,6.73655172 20.5022727,6.58206897 20.5022727,6.39172414 L20.5022727,4.14413793 C20.5022727,2.26689655 18.825,0.74 16.7628788,0.74 L8.31818182,0.74 C6.25606061,0.74 4.57878788,2.26689655 4.57878788,4.14413793 L4.57878788,6.39172414 C4.57878788,6.58206897 4.40909091,6.73655172 4.2,6.73655172 C3.99090909,6.73655172 3.82121212,6.58206897 3.82121212,6.39172414 L3.82121212,4.14413793 C3.82121212,1.88758621 5.83863636,0.0503448276 8.31818182,0.0503448276 L16.7628788,0.0503448276 C19.2416667,0.0503448276 21.2598485,1.88689655 21.2598485,4.14413793 L21.2598485,6.39172414 C21.2598485,6.58206897 21.0909091,6.73655172 20.8810606,6.73655172 Z" fill-rule="nonzero"></path>
                </g>
            </g>
        </g>
    </g>
</svg>