<?xml version="1.0" encoding="utf-8"?>
<!-- Generator: Adobe Illustrator 21.1.0, SVG Export Plug-In . SVG Version: 6.00 Build 0)  -->
<svg version="1.1" id="Слой_1" xmlns="http://www.w3.org/2000/svg" xmlns:xlink="http://www.w3.org/1999/xlink" x="0px" y="0px"
	 viewBox="0 0 48 48" enable-background="new 0 0 48 48" xml:space="preserve">
<title>availability</title>
<desc>Created with Sketch.</desc>
<g id="Page-1">
	<g id="FAQ-" transform="translate(-168.000000, -1004.000000)">
		<g id="Group-6" transform="translate(149.000000, 616.000000)">
			<g id="Availability" transform="translate(10.000000, 378.000000)">
				<g id="availability">
					<g id="Icon_x2F_faq_x2F_availability">
						<g id="confirm-schedule" transform="translate(9.000000, 10.000000)">
							<path id="Shape" fill="#5EABDD" d="M34.8,19.4h-3.3c-0.3,0-0.5,0.2-0.5,0.5c0,0.3,0.2,0.5,0.5,0.5h3.3c0.3,0,0.5-0.2,0.5-0.5
								C35.2,19.6,35,19.4,34.8,19.4z"/>
							<path id="Shape_1_" fill="#5EABDD" d="M34.8,23.1h-3.3c-0.3,0-0.5,0.2-0.5,0.5s0.2,0.5,0.5,0.5h3.3c0.3,0,0.5-0.2,0.5-0.5
								S35,23.1,34.8,23.1z"/>
							<path id="Shape_2_" fill="#5EABDD" d="M34.8,26.9h-3.3c-0.3,0-0.5,0.2-0.5,0.5s0.2,0.5,0.5,0.5h3.3c0.3,0,0.5-0.2,0.5-0.5
								S35,26.9,34.8,26.9z"/>
							<path id="Shape_3_" fill="#5EABDD" d="M34.8,30.7h-3.3c-0.3,0-0.5,0.2-0.5,0.5s0.2,0.5,0.5,0.5h3.3c0.3,0,0.5-0.2,0.5-0.5
								S35,30.7,34.8,30.7z"/>
							<path id="Shape_4_" fill="#5EABDD" d="M28.7,19.4h-3.3c-0.3,0-0.5,0.2-0.5,0.5c0,0.3,0.2,0.5,0.5,0.5h3.3
								c0.3,0,0.5-0.2,0.5-0.5C29.1,19.6,29,19.4,28.7,19.4z"/>
							<path id="Shape_5_" fill="#5EABDD" d="M28.7,23.1h-3.3c-0.3,0-0.5,0.2-0.5,0.5s0.2,0.5,0.5,0.5h3.3c0.3,0,0.5-0.2,0.5-0.5
								S29,23.1,28.7,23.1z"/>
							<path id="Shape_6_" fill="#5EABDD" d="M22.6,19.4h-3.3c-0.3,0-0.5,0.2-0.5,0.5c0,0.3,0.2,0.5,0.5,0.5h3.3
								c0.3,0,0.5-0.2,0.5-0.5C23.1,19.6,22.9,19.4,22.6,19.4z"/>
							<path id="Shape_7_" fill="#5EABDD" d="M22.6,23.1h-3.3c-0.3,0-0.5,0.2-0.5,0.5s0.2,0.5,0.5,0.5h3.3c0.3,0,0.5-0.2,0.5-0.5
								S22.9,23.1,22.6,23.1z"/>
							<path id="Shape_8_" fill="#5EABDD" d="M16.5,19.4h-3.3c-0.3,0-0.5,0.2-0.5,0.5c0,0.3,0.2,0.5,0.5,0.5h3.3
								c0.3,0,0.5-0.2,0.5-0.5C17,19.6,16.8,19.4,16.5,19.4z"/>
							<path id="Shape_9_" fill="#5EABDD" d="M16.5,23.1h-3.3c-0.3,0-0.5,0.2-0.5,0.5s0.2,0.5,0.5,0.5h3.3c0.3,0,0.5-0.2,0.5-0.5
								S16.8,23.1,16.5,23.1z"/>
							<path id="Shape_10_" fill="#5EABDD" d="M16.5,26.9h-3.3c-0.3,0-0.5,0.2-0.5,0.5s0.2,0.5,0.5,0.5h3.3c0.3,0,0.5-0.2,0.5-0.5
								S16.8,26.9,16.5,26.9z"/>
							<path id="Shape_11_" fill="#5EABDD" d="M16.5,30.7h-3.3c-0.3,0-0.5,0.2-0.5,0.5s0.2,0.5,0.5,0.5h3.3c0.3,0,0.5-0.2,0.5-0.5
								S16.8,30.7,16.5,30.7z"/>
							<path id="Shape_12_" fill="#5EABDD" d="M36.2,11.9h-1v-1.4c0-0.3-0.2-0.5-0.5-0.5s-0.5,0.2-0.5,0.5v1.4h-4.2v-1.4
								c0-0.3-0.2-0.5-0.5-0.5c-0.3,0-0.5,0.2-0.5,0.5v1.4h-4.2v-1.4c0-0.3-0.2-0.5-0.5-0.5S24,10.2,24,10.5v1.4h-4.2v-1.4
								c0-0.3-0.2-0.5-0.5-0.5s-0.5,0.2-0.5,0.5v1.4h-4.7v-1.4c0-0.3-0.2-0.5-0.5-0.5c-0.3,0-0.5,0.2-0.5,0.5v1.4h-1
								c-1.6,0-3.2,1.5-3.2,3.2v17.5c0,1.7,1.6,2.8,3.2,2.8h7c1.1,1.5,2.9,2.6,5,2.6s3.9-1,5-2.6h7c1.6,0,2.8-1.1,2.8-2.8V15.1
								C39,13.5,37.9,11.9,36.2,11.9z M24.2,37c-2.9,0-5.2-2.3-5.2-5.2s2.3-5.2,5.2-5.2s5.2,2.3,5.2,5.2S27,37,24.2,37z M36.2,34.4
								h-6.5c0.4-0.8,0.6-1.7,0.6-2.6c0-1.5-0.6-2.9-1.5-4c0.2,0,0.3-0.2,0.3-0.4c0-0.3-0.2-0.5-0.5-0.5h-0.8
								c-1-0.8-2.3-1.2-3.7-1.2c-1.4,0-2.7,0.5-3.7,1.3c0,0-0.1-0.1-0.2-0.1h-0.9c-0.3,0-0.5,0.2-0.5,0.5s0.2,0.5,0.5,0.5h0.2
								c-0.9,1.1-1.5,2.4-1.5,4c0,0.9,0.2,1.8,0.6,2.6h-6.5c-1.1,0-2.2-0.7-2.2-1.8v-16h22c0.3,0,0.5-0.2,0.5-0.5
								c0-0.3-0.2-0.5-0.5-0.5h-22v-0.6c0-1.1,1.1-2.3,2.2-2.3h1v1.4c0,0.3,0.2,0.5,0.5,0.5c0.3,0,0.5-0.2,0.5-0.5v-1.4h4.7v1.4
								c0,0.3,0.2,0.5,0.5,0.5s0.5-0.2,0.5-0.5v-1.4H24v1.4c0,0.3,0.2,0.5,0.5,0.5s0.5-0.2,0.5-0.5v-1.4h4.2v1.4
								c0,0.3,0.2,0.5,0.5,0.5c0.3,0,0.5-0.2,0.5-0.5v-1.4h4.2v1.4c0,0.3,0.2,0.5,0.5,0.5s0.5-0.2,0.5-0.5v-1.4h1
								c1.1,0,1.8,1.2,1.8,2.3v0.6h-2.3c-0.3,0-0.5,0.2-0.5,0.5c0,0.3,0.2,0.5,0.5,0.5H38v16C38,33.7,37.3,34.4,36.2,34.4z"/>
							<path id="Shape_13_" fill="#5EABDD" d="M27.9,29.6c-0.2-0.2-0.5-0.2-0.7,0L23.8,33l-2-2c-0.2-0.2-0.5-0.2-0.7,0
								c-0.2,0.2-0.2,0.5,0,0.7l2.3,2.3c0.1,0.1,0.2,0.1,0.3,0.1s0.2,0,0.3-0.1l3.7-3.8C28,30.1,28,29.8,27.9,29.6z"/>
						</g>
					</g>
				</g>
			</g>
		</g>
	</g>
</g>
</svg>
