<?xml version="1.0" encoding="utf-8"?>
<!-- Generator: Adobe Illustrator 21.1.0, SVG Export Plug-In . SVG Version: 6.00 Build 0)  -->
<svg version="1.1" id="Слой_1" xmlns="http://www.w3.org/2000/svg" xmlns:xlink="http://www.w3.org/1999/xlink" x="0px" y="0px"
	 viewBox="0 0 38 38" enable-background="new 0 0 38 38" xml:space="preserve">
<title>bar</title>
<desc>Created with Sketch.</desc>
<g id="Hotel-page" transform="translate(-151.000000, -1851.000000)">
	<g id="Amenities" transform="translate(0.000000, 1580.000000)">
		<g id="Food-and-drinks" transform="translate(151.000000, 270.000000)">
			<g id="Group-Copy">
				<g id="bar" transform="translate(0.000000, 1.000000)">
					<g id="Shape">
						<path fill="#5EABDD" d="M11.3,30.7c0.4,0,0.7-0.3,0.7-0.6v-1.2c0-1-0.9-1.8-2-1.8H6c-1.1,0-2,0.8-2,1.8v1.2
							c0,0.3,0.3,0.6,0.7,0.6H6v4l-1.7,1C4.1,35.8,4,36,4,36.2v1.2C4,37.7,4.3,38,4.7,38h6.7c0.4,0,0.7-0.3,0.7-0.6v-1.2
							c0-0.2-0.1-0.4-0.3-0.5l-1.7-1v-4H11.3z M10.7,36.5v0.3H5.3v-0.3l1.7-1c0.2-0.1,0.3-0.3,0.3-0.5v-4.3h1.3v4.3
							c0,0.2,0.1,0.4,0.3,0.5L10.7,36.5z M9.3,29.4H6.7H5.3v-0.6c0-0.3,0.3-0.6,0.7-0.6h4c0.4,0,0.7,0.3,0.7,0.6v0.6H9.3z"/>
						<path fill="#5EABDD" d="M22.3,30.7c0.4,0,0.7-0.3,0.7-0.6v-1.2c0-1-0.9-1.8-2-1.8h-4c-1.1,0-2,0.8-2,1.8v1.2
							c0,0.3,0.3,0.6,0.7,0.6H17v4l-1.7,1C15.1,35.8,15,36,15,36.2v1.2c0,0.3,0.3,0.6,0.7,0.6h6.7c0.4,0,0.7-0.3,0.7-0.6v-1.2
							c0-0.2-0.1-0.4-0.3-0.5l-1.7-1v-4H22.3z M21.7,36.5v0.3h-5.3v-0.3l1.7-1c0.2-0.1,0.3-0.3,0.3-0.5v-4.3h1.3v4.3
							c0,0.2,0.1,0.4,0.3,0.5L21.7,36.5z M20.3,29.4h-2.7h-1.3v-0.6c0-0.3,0.3-0.6,0.7-0.6h4c0.4,0,0.7,0.3,0.7,0.6v0.6H20.3z"/>
						<path fill="#5EABDD" d="M33.3,30.7c0.4,0,0.7-0.3,0.7-0.6v-1.2c0-1-0.9-1.8-2-1.8h-4c-1.1,0-2,0.8-2,1.8v1.2
							c0,0.3,0.3,0.6,0.7,0.6H28v4l-1.7,1C26.1,35.8,26,36,26,36.2v1.2c0,0.3,0.3,0.6,0.7,0.6h6.7c0.4,0,0.7-0.3,0.7-0.6v-1.2
							c0-0.2-0.1-0.4-0.3-0.5l-1.7-1v-4H33.3z M32.7,36.5v0.3h-5.3v-0.3l1.7-1c0.2-0.1,0.3-0.3,0.3-0.5v-4.3h1.3v4.3
							c0,0.2,0.1,0.4,0.3,0.5L32.7,36.5z M31.3,29.4h-2.7h-1.3v-0.6c0-0.3,0.3-0.6,0.7-0.6h4c0.4,0,0.7,0.3,0.7,0.6v0.6H31.3z"/>
						<polygon fill="#5EABDD" points="0,23 0,24.2 1.9,24.2 1.9,38 3.2,38 3.2,24.2 34.8,24.2 34.8,38 36.1,38 36.1,24.2 38,24.2 
							38,23 						"/>
						<path fill="#5EABDD" d="M37.4,10H0.6C0.3,10,0,10.3,0,10.6v9.8C0,20.7,0.3,21,0.6,21h13.3h2.5h5.1h5.1h3.2h5.1h2.5
							c0.3,0,0.6-0.3,0.6-0.6v-9.8C38,10.3,37.7,10,37.4,10z M4.4,17.3c-0.3,0-0.6-0.3-0.6-0.6v-0.6h1.3v0.6
							C5.1,17.1,4.8,17.3,4.4,17.3z M9.5,17.3c-0.3,0-0.6-0.3-0.6-0.6v-0.6h1.3v0.6C10.1,17.1,9.8,17.3,9.5,17.3z M15.8,19.8h-1.3
							v-2.4h1.3V19.8z M26,19.8h-3.8v-1.6l1.2-1.7c0.1-0.1,0.1-0.2,0.1-0.3h1.3c0,0.1,0,0.2,0.1,0.3l1.2,1.7V19.8z M23.4,14.9v-1.2
							h1.3v1.2H23.4z M34.2,19.8h-3.8v-1.6l1.2-1.7c0.1-0.1,0.1-0.2,0.1-0.3h1.3c0,0.1,0,0.2,0.1,0.3l1.2,1.7V19.8z M31.7,14.9v-1.2
							h1.3v1.2H31.7z M36.7,19.8h-1.3v-1.8c0-0.1,0-0.2-0.1-0.3l-1.2-1.7v-2.9c0-0.3-0.3-0.6-0.6-0.6H31c-0.3,0-0.6,0.3-0.6,0.6v2.9
							l-1.2,1.7c-0.1,0.1-0.1,0.2-0.1,0.3v1.8h-1.9v-1.8c0-0.1,0-0.2-0.1-0.3L26,15.9v-2.9c0-0.3-0.3-0.6-0.6-0.6h-2.5
							c-0.3,0-0.6,0.3-0.6,0.6v2.9L21,17.6c-0.1,0.1-0.1,0.2-0.1,0.3v1.8h-3.8v-3.1c0-0.3-0.3-0.6-0.6-0.6h-2.5
							c-0.3,0-0.6,0.3-0.6,0.6v3.1h-3.2v-1.3c0.7-0.3,1.3-0.9,1.3-1.7v-1.2c0-0.3-0.3-0.6-0.6-0.6H8.2c-0.3,0-0.6,0.3-0.6,0.6v1.2
							c0,0.8,0.5,1.5,1.3,1.7v1.3H5.1v-1.3c0.7-0.3,1.3-0.9,1.3-1.7v-1.2c0-0.3-0.3-0.6-0.6-0.6H3.2c-0.3,0-0.6,0.3-0.6,0.6v1.2
							c0,0.8,0.5,1.5,1.3,1.7v1.3H1.3v-8.6h18.4h17.1V19.8z"/>
						<path fill="#5EABDD" d="M9.8,5.3L6.1,1.7V0H4.9v1.7L1.2,5.3C1,5.5,0.9,5.8,1,6s0.3,0.4,0.6,0.4h1.9v0.6C3.6,8.1,4.4,9,5.5,9
							s1.9-0.9,1.9-1.9V6.4h1.9C9.6,6.4,9.9,6.3,10,6C10.1,5.8,10,5.5,9.8,5.3z M6.1,7.1c0,0.4-0.3,0.6-0.6,0.6S4.9,7.4,4.9,7.1V6.4
							h1.3V7.1z M6.8,5.1H4.2h-1l2.3-2.3l2.3,2.3H6.8z"/>
						<path fill="#5EABDD" d="M36.8,5.3l-3.7-3.7V0h-1.3v1.7l-3.7,3.7C28,5.5,27.9,5.8,28,6s0.3,0.4,0.6,0.4h1.9v0.6
							c0,1.1,0.9,1.9,1.9,1.9c1.1,0,1.9-0.9,1.9-1.9V6.4h1.9c0.3,0,0.5-0.2,0.6-0.4S37,5.5,36.8,5.3z M33.1,7.1
							c0,0.4-0.3,0.6-0.6,0.6s-0.6-0.3-0.6-0.6V6.4h1.3V7.1z M33.8,5.1h-2.6h-1l2.3-2.3l2.3,2.3H33.8z"/>
						<path fill="#5EABDD" d="M23.8,5.3l-3.7-3.7V0h-1.3v1.7l-3.7,3.7C15,5.5,14.9,5.8,15,6c0.1,0.2,0.3,0.4,0.6,0.4h1.9v0.6
							c0,1.1,0.9,1.9,1.9,1.9s1.9-0.9,1.9-1.9V6.4h1.9c0.3,0,0.5-0.2,0.6-0.4S24,5.5,23.8,5.3z M20.1,7.1c0,0.4-0.3,0.6-0.6,0.6
							s-0.6-0.3-0.6-0.6V6.4h1.3V7.1z M20.8,5.1h-2.6h-1l2.3-2.3l2.3,2.3H20.8z"/>
					</g>
				</g>
			</g>
		</g>
	</g>
</g>
</svg>
