<?xml version="1.0" encoding="utf-8"?>
<!-- Generator: Adobe Illustrator 21.1.0, SVG Export Plug-In . SVG Version: 6.00 Build 0)  -->
<svg version="1.1" id="Слой_1" xmlns="http://www.w3.org/2000/svg" xmlns:xlink="http://www.w3.org/1999/xlink" x="0px" y="0px"
	 viewBox="0 0 24 15" enable-background="new 0 0 24 15" xml:space="preserve">
<title>bed</title>
<desc>Created with Sketch.</desc>
<g id="No-photo" transform="translate(-214.000000, -358.000000)">
	<g id="Rooms-Copy" transform="translate(74.000000, 60.000000)">
		<g id="Room-Copy" transform="translate(76.000000, 62.000000)">
			<g id="Group-25">
				<g id="Group-17" transform="translate(41.000000, 232.000000)">
					<g id="bed" transform="translate(23.000000, 4.000000)">
						<g id="Shape">
							<path fill="#5EABDD" d="M22.3,6.7v-3c0-2.1-1.7-3.8-3.7-3.8H5.4C3.3,0,1.7,1.7,1.7,3.8v3C0.7,6.9,0,7.7,0,8.8v2.5
								c0,0.2,0.2,0.4,0.4,0.4h0.4v0.8V15h0.8v-2.1h20.7V15h0.8v-2.5v-0.8h0.4c0.2,0,0.4-0.2,0.4-0.4V8.8C24,7.7,23.3,6.9,22.3,6.7z
								 M2.5,3.8c0-1.6,1.3-2.9,2.9-2.9h13.2c1.6,0,2.9,1.3,2.9,2.9v2.9h-2.1V4.2c0-0.2-0.1-0.3-0.3-0.4c-0.1,0-2.2-0.9-3.3-0.9
								s-3.2,0.8-3.3,0.9c-0.2,0.1-0.3,0.2-0.3,0.4v2.5h-0.8V4.2c0-0.2-0.1-0.3-0.3-0.4c-0.1,0-2.2-0.9-3.3-0.9S4.9,3.7,4.8,3.8
								C4.7,3.8,4.6,4,4.6,4.2v2.5H2.5V3.8z M18.6,6.7h-5.4V4.5c0.7-0.3,2-0.7,2.7-0.7c0.7,0,2,0.4,2.7,0.7V6.7z M10.8,6.7H5.4V4.5
								c0.7-0.3,2-0.7,2.7-0.7c0.7,0,2,0.4,2.7,0.7V6.7z M22.3,12.1H1.7v-0.4h20.7V12.1z M23.2,10.8h-0.4H1.2H0.8V8.8
								c0-0.7,0.6-1.3,1.2-1.3H5h6.2h1.7H19h2.9c0.7,0,1.2,0.6,1.2,1.3V10.8z"/>
						</g>
					</g>
				</g>
			</g>
		</g>
	</g>
</g>
</svg>
