<?xml version="1.0" encoding="UTF-8"?>
<svg width="20px" height="28px" viewBox="0 0 20 28" version="1.1" xmlns="http://www.w3.org/2000/svg" xmlns:xlink="http://www.w3.org/1999/xlink">
    <!-- Generator: Sketch 48.2 (47327) - http://www.bohemiancoding.com/sketch -->
    <title>bedside-table</title>
    <desc>Created with Sketch.</desc>
    <defs></defs>
    <g id="Tablet_Pop-up-room-gallery" stroke="none" stroke-width="1" fill="none" fill-rule="evenodd" transform="translate(-31.000000, -1265.000000)">
        <g id="Furnishings" transform="translate(31.000000, 1265.000000)" fill="#5EABDD">
            <g id="bedside-table">
                <g>
                    <path d="M19.3552,18.9059394 L0.6448,18.9059394 C0.424,18.9059394 0.2448,18.7158788 0.2448,18.481697 L0.2448,12.7527273 C0.2448,11.786303 0.9856,11.0014545 1.8952,11.0014545 L18.1032,11.0014545 C19.0144,11.0014545 19.7544,11.7871515 19.7544,12.7527273 L19.7544,18.481697 C19.7552,18.7167273 19.576,18.9059394 19.3552,18.9059394 Z M1.0448,18.0574545 L18.9552,18.0574545 L18.9552,12.7527273 C18.9552,12.2546667 18.5728,11.8499394 18.104,11.8499394 L1.896,11.8499394 C1.4272,11.8499394 1.0456,12.2555152 1.0456,12.7527273 L1.0456,18.0574545 L1.0448,18.0574545 Z" id="Shape" fill-rule="nonzero"></path>
                    <path d="M18.1032,25.8686061 L1.896,25.8686061 C0.9856,25.8686061 0.2456,25.0829091 0.2456,24.1173333 L0.2456,18.3883636 C0.2456,18.1541818 0.4248,17.9641212 0.6456,17.9641212 L19.356,17.9641212 C19.5768,17.9641212 19.756,18.1541818 19.756,18.3883636 L19.756,24.1173333 C19.7552,25.0837576 19.0144,25.8686061 18.1032,25.8686061 Z M1.0448,18.8126061 L1.0448,24.1173333 C1.0448,24.6153939 1.4272,25.0201212 1.8952,25.0201212 L18.1032,25.0201212 C18.5728,25.0201212 18.9544,24.6145455 18.9544,24.1173333 L18.9544,18.8126061 L1.0448,18.8126061 Z" id="Shape" fill-rule="nonzero"></path>
                    <g id="Group" transform="translate(2.400000, 24.606061)" fill-rule="nonzero">
                        <path d="M0.824,3.39393939 C0.7736,3.39393939 0.7208,3.38375758 0.6712,3.36169697 C0.4672,3.27260606 0.3704,3.024 0.4544,2.80763636 L1.2864,0.676242424 C1.3712,0.459878788 1.6048,0.354666667 1.8088,0.44630303 C2.0128,0.535393939 2.1096,0.784 2.0256,1.00036364 L1.1936,3.13175758 C1.1296,3.29551515 0.9808,3.39393939 0.824,3.39393939 Z" id="Shape"></path>
                        <path d="M14.3752,3.39393939 C14.2184,3.39393939 14.0696,3.29551515 14.0056,3.13175758 L13.1744,1.00036364 C13.0904,0.783151515 13.1872,0.535393939 13.3912,0.44630303 C13.596,0.355515152 13.8296,0.460727273 13.9136,0.676242424 L14.7448,2.80763636 C14.8288,3.02484848 14.732,3.27260606 14.528,3.36169697 C14.4784,3.38375758 14.4264,3.39393939 14.3752,3.39393939 Z" id="Shape"></path>
                    </g>
                    <path d="M10.9352,14.4963636 L9.064,14.4963636 C8.8432,14.4963636 8.664,14.306303 8.664,14.0721212 C8.664,13.8379394 8.8432,13.6478788 9.064,13.6478788 L10.9352,13.6478788 C11.156,13.6478788 11.3352,13.8379394 11.3352,14.0721212 C11.3352,14.306303 11.1568,14.4963636 10.9352,14.4963636 Z" id="Shape" fill-rule="nonzero"></path>
                    <path d="M10.9352,21.4590303 L9.064,21.4590303 C8.8432,21.4590303 8.664,21.2689697 8.664,21.0347879 C8.664,20.8006061 8.8432,20.6105455 9.064,20.6105455 L10.9352,20.6105455 C11.156,20.6105455 11.3352,20.8006061 11.3352,21.0347879 C11.3352,21.2689697 11.1568,21.4590303 10.9352,21.4590303 Z" id="Shape" fill-rule="nonzero"></path>
                    <path d="M10.6,11.8499394 L5.28,11.8499394 C5.0592,11.8499394 4.88,11.6598788 4.88,11.425697 L4.88,9.70666667 C4.88,9.47248485 5.0592,9.28242424 5.28,9.28242424 L10.6,9.28242424 C10.8208,9.28242424 11,9.47248485 11,9.70666667 L11,11.4248485 C11,11.6598788 10.8208,11.8499394 10.6,11.8499394 Z M5.6792,11.0014545 L10.1992,11.0014545 L10.1992,10.1309091 L5.6792,10.1309091 L5.6792,11.0014545 Z" id="Shape" fill-rule="nonzero"></path>
                    <path d="M11.4536,5.39890909 L4.4248,5.39890909 C4.2976,5.39890909 4.1768,5.33442424 4.1016,5.2249697 C4.0264,5.11551515 4.0056,4.97466667 4.044,4.84569697 L5.4168,0.295272727 C5.4688,0.119636364 5.6232,0 5.7976,0 L10.0808,0 C10.2552,0 10.4088,0.119636364 10.4624,0.295272727 L11.8352,4.84569697 C11.8736,4.97466667 11.852,5.11551515 11.7776,5.2249697 C11.7008,5.33442424 11.5808,5.39890909 11.4536,5.39890909 Z M4.972,4.55042424 L10.9056,4.55042424 L9.7888,0.848484848 L6.0896,0.848484848 L4.972,4.55042424 Z" id="Shape" fill-rule="nonzero"></path>
                    <path d="M7.9392,10.1309091 C7.7184,10.1309091 7.5392,9.94084848 7.5392,9.70666667 L7.5392,4.97466667 C7.5392,4.74048485 7.7184,4.55042424 7.9392,4.55042424 C8.16,4.55042424 8.3392,4.74048485 8.3392,4.97466667 L8.3392,9.70666667 C8.3392,9.94169697 8.1608,10.1309091 7.9392,10.1309091 Z" id="Shape" fill-rule="nonzero"></path>
                    <path d="M10,6.85490909 C9.7792,6.85490909 9.6,6.66484848 9.6,6.43066667 L9.6,4.97466667 C9.6,4.74048485 9.7792,4.55042424 10,4.55042424 C10.2208,4.55042424 10.4,4.74048485 10.4,4.97466667 L10.4,6.43066667 C10.4,6.66484848 10.2208,6.85490909 10,6.85490909 Z" id="Shape" fill-rule="nonzero"></path>
                </g>
            </g>
        </g>
    </g>
</svg>