<?xml version="1.0" encoding="utf-8"?>
<!-- Generator: Adobe Illustrator 21.1.0, SVG Export Plug-In . SVG Version: 6.00 Build 0)  -->
<svg version="1.1" id="Слой_1" xmlns="http://www.w3.org/2000/svg" xmlns:xlink="http://www.w3.org/1999/xlink" x="0px" y="0px"
	 viewBox="0 0 20 26" enable-background="new 0 0 20 26" xml:space="preserve">
<title>bell-boy</title>
<desc>Created with Sketch.</desc>
<g id="Hotel-page" transform="translate(-1096.000000, -2020.000000)">
	<g id="Amenities" transform="translate(0.000000, 1580.000000)">
		<g id="Hotel-Policy" transform="translate(1027.000000, 89.000000)">
			<g id="Staff-speaks" transform="translate(20.000000, 351.000000)">
				<g id="Staff-speaks-" transform="translate(49.000000, 0.000000)">
					<g id="bell-boy">
						<g id="bell-boy-_x28_1_x29_">
							<path id="Shape" fill="#5EABDD" d="M8.1,12.5c-0.3,0-0.5,0.2-0.5,0.5c0,0.3,0.2,0.5,0.5,0.5c0.3,0,0.5-0.2,0.5-0.5
								S8.4,12.5,8.1,12.5z"/>
							<path id="Shape_1_" fill="#5EABDD" d="M11.9,12.5c-0.3,0-0.5,0.2-0.5,0.5c0,0.3,0.2,0.5,0.5,0.5c0.3,0,0.5-0.2,0.5-0.5
								S12.2,12.5,11.9,12.5z"/>
							<path id="Shape_2_" fill="#5EABDD" d="M20,25.4l-0.1-0.8c-0.2-1.2-0.4-1.8-0.9-2.3c-0.5-0.5-1.1-0.7-2.3-1.1l-3.4-1.2v-1.3
								c1.3-0.8,2.3-2.2,2.7-3.7c1.1-0.2,1.9-1.1,1.9-2.2c0-1-0.7-1.9-1.7-2.1v-0.1c0-1-0.3-2.1-0.8-3v-7c0-0.3-0.2-0.5-0.5-0.5H5.2
								C4.9,0,4.6,0.2,4.6,0.5v7c-0.5,0.9-0.8,1.9-0.8,3v0.1c-1,0.2-1.7,1.1-1.7,2.1c0,1.1,0.8,2,1.9,2.2c0.4,1.6,1.4,2.9,2.7,3.7
								v1.3l-3.4,1.2c-1.1,0.4-1.8,0.7-2.3,1.1c-0.5,0.5-0.6,1.1-0.9,2.3c0,0,0,0.3-0.1,0.9c0,0.1,0,0.3,0.1,0.4
								C0.2,25.9,0.4,26,0.5,26H10h7.5c0,0,0.7,0,2,0c0.1,0,0.3-0.1,0.4-0.2C20,25.7,20,25.6,20,25.4z M16.2,13v-1.9
								c0.4,0.2,0.7,0.6,0.7,1.1c0,0.5-0.3,0.9-0.7,1.1C16.1,13.2,16.2,13.1,16.2,13z M3.2,12.2c0-0.5,0.3-0.9,0.7-1.1V13
								c0,0.1,0,0.2,0,0.3C3.4,13.1,3.2,12.7,3.2,12.2z M15.1,9.9L15.1,9.9C11.4,9.5,10,8.2,9.5,7.4h5C14.9,8.2,15.1,9,15.1,9.9z
								 M5.7,3.1V2.8c0-0.1,0,0,0-0.2c0-0.1,0,0.2,0,0.2c0,0,0-0.2,0-0.6V1.5h8.7v2.2H5.7V3.1z M5.7,4.8h8.7v1.6H7.8
								c0,0-0.7,0-2.2,0V4.8z M5.5,7.4h1.7C6.6,9.1,5.5,9.6,4.9,9.8C4.9,9,5.1,8.2,5.5,7.4z M4.9,13.9C4.9,13.9,4.9,13.9,4.9,13.9
								c0-0.3-0.1-0.6-0.1-0.9v-2.1c0.3-0.1,0.8-0.2,1.2-0.5c0.7-0.4,1.7-1.3,2.1-3h0.2c0.3,1.2,1.9,3.1,6.7,3.5V13
								c0,0.3,0,0.6-0.1,0.9c0,0,0,0,0,0c-0.3,1.6-1.2,2.9-2.5,3.7c0,0-0.1,0-0.1,0.1c-0.7,0.4-1.6,0.7-2.5,0.7h0
								c-0.9,0-1.8-0.2-2.5-0.7c0,0-0.1,0-0.1-0.1C6.1,16.8,5.2,15.5,4.9,13.9z M1.1,24.9l0-0.3c0.4-2,0.4-2,2.5-2.7l3.5-1.3
								c0.3,0.2,0.8,0.5,1.6,0.7c0.2,0.1,0.5,0.1,0.8,0.1l0,3.4H1.1z M10,20.5C10,20.5,10,20.5,10,20.5C10,20.5,10,20.5,10,20.5
								c-1.1,0-1.9-0.4-2.3-0.7v-0.9c0.7,0.3,1.5,0.5,2.3,0.5c0.8,0,1.6-0.2,2.3-0.5v0.9C11.4,20.3,10.7,20.5,10,20.5
								C10,20.5,10,20.5,10,20.5z M17.3,24.9c0.3,0,0.4,0,0.4,0c-0.3,0,0.8,0,0.1,0c-0.2,0-0.1,0,0.1,0C17.1,24.9,17.7,25,17.3,24.9
								c-0.4,0-1.2,0-0.8,0s0,0,0.3,0c1.4,0,0.7,0,0.2,0c-0.3,0,0.5,0-0.2,0h-6.3l0-3.5c0.7-0.1,1.5-0.3,2.3-0.8l3.5,1.3
								c2.1,0.8,2.1,0.8,2.5,2.7l0,0.3c-0.2,0-0.3,0-0.4,0s-0.1,0,0,0h-0.1h-0.4C17.2,24.9,17,24.9,17.3,24.9z"/>
						</g>
					</g>
				</g>
			</g>
		</g>
	</g>
</g>
</svg>
