<?xml version="1.0" encoding="utf-8"?>
<!-- Generator: Adobe Illustrator 21.1.0, SVG Export Plug-In . SVG Version: 6.00 Build 0)  -->
<svg version="1.1" id="Слой_1" xmlns="http://www.w3.org/2000/svg" xmlns:xlink="http://www.w3.org/1999/xlink" x="0px" y="0px"
	 viewBox="0 0 34 34" enable-background="new 0 0 34 34" xml:space="preserve">
<title>breakfast</title>
<desc>Created with Sketch.</desc>
<g id="Hotel-page_room-with-rates" transform="translate(-850.000000, -1033.000000)">
	<g id="Hotel-overview-open" transform="translate(0.000000, 781.000000)">
		<g id="Breakfast" transform="translate(735.000000, 237.000000)">
			<g id="Group-38">
				<g id="Group-34" transform="translate(53.000000, 15.000000)">
					<g id="breakfast" transform="translate(62.000000, 0.000000)">
						<g id="Shape">
							<path fill="#5EABDD" d="M33.7,4.8c-0.2-0.1-0.4-0.1-0.6,0.1l-1,0.7c-0.6,0.5-1.2,1.1-1.7,1.7C27.4,2.7,22.4,0,17,0
								C12.8,0,8.7,1.7,5.7,4.7v0H4.5v1.5V10H3.4V4.7H2.3V10H1.1V4.7H0v5.9v1.2c0,0.8,0.5,1.4,1.1,1.6l-0.9,13
								c-0.1,0.9,0.3,2,0.9,2.7c0.5,0.5,1,0.8,1.6,0.8c0,0,0.1,0,0.1,0c0.6,0,1.2-0.3,1.7-0.8c0.1-0.2,0.3-0.3,0.4-0.5
								C8,32,12.4,34,17,34c4.7,0,9.2-2.1,12.3-5.8c0.1,0.3,0.2,0.6,0.4,0.8c0.5,0.5,1.1,0.8,1.8,0.8h0c1.3,0,2.4-1.1,2.4-2.5v-9.8
								V5.3C34,5.1,33.9,4.9,33.7,4.8z M4.3,26.9c0,0.1,0,0.2-0.1,0.2c-0.1,0.4-0.3,0.8-0.6,1.2c-0.2,0.2-0.5,0.4-0.8,0.5
								c0,0,0,0-0.1,0c-0.4,0-0.7-0.3-0.9-0.5c-0.4-0.5-0.7-1.2-0.6-1.8l0.9-12.9h1.2l0.9,13C4.4,26.6,4.3,26.7,4.3,26.9z M4.5,11.7
								c0,0.3-0.3,0.6-0.6,0.6H1.7c-0.3,0-0.6-0.3-0.6-0.6v-0.6h3.4V11.7z M29.7,21.5l-0.5,5c-2.9,4-7.4,6.3-12.2,6.3
								c-4.5,0-8.7-2-11.6-5.5c0,0,0,0,0,0c0-0.2,0.1-0.3,0.1-0.5c0,0,0-0.1,0-0.1c0-0.1,0-0.3,0-0.4l-0.9-13c0,0,0,0,0,0
								c0,0,0,0,0.1,0c0.1,0,0.1-0.1,0.2-0.1c0,0,0.1,0,0.1-0.1c0.1,0,0.1-0.1,0.2-0.2c0,0,0,0,0.1,0c0.1-0.1,0.1-0.2,0.2-0.2
								c0,0,0,0,0-0.1c0-0.1,0.1-0.1,0.1-0.2c0,0,0-0.1,0-0.1c0-0.1,0-0.1,0.1-0.2c0,0,0-0.1,0-0.1c0-0.1,0-0.2,0-0.3v-1.2V6.4
								c2.9-3.3,7-5.2,11.3-5.2c5.2,0,10,2.7,12.8,7.2L29.5,9c-0.7,1.3-1.1,2.8-1.1,4.4v1.5c0,0.8,0.3,1.5,0.8,2.1l0.8,0.9
								L29.7,21.5z M32.9,27.4c0,0.7-0.6,1.3-1.3,1.3h0c-0.4,0-0.7-0.2-1-0.5c-0.2-0.3-0.4-0.7-0.3-1.1l0-0.4v0l0.6-6.9l0.2-1.7h1.8
								V27.4z M32.9,17h-2L30,16.1c-0.3-0.3-0.5-0.8-0.5-1.2v-1.5c0-1.3,0.3-2.6,1-3.8l0.4-0.7L31,8.6c0,0,0,0,0,0
								c0.5-0.8,1.1-1.6,1.9-2.1l0,0V17z"/>
							<path fill="#5EABDD" d="M25.7,7.9c-0.3-0.3-0.6-0.7-0.7-1c-0.2-0.3-0.3-0.8-0.5-1.2c-0.3-0.9-0.6-1.9-1.5-2.4
								c-0.8-0.5-1.8-0.3-2.7-0.1c-0.5,0.1-0.9,0.2-1.3,0.2s-0.8-0.1-1.3-0.2C16.8,3,15.8,2.8,15,3.3c-0.9,0.5-1.2,1.5-1.5,2.4
								c-0.1,0.4-0.3,0.9-0.5,1.2c-0.2,0.3-0.5,0.6-0.7,1C11.7,8.6,11,9.4,11,10.5s0.7,1.9,1.3,2.6c0.3,0.3,0.6,0.7,0.7,1
								c0.2,0.3,0.3,0.8,0.5,1.2c0.3,0.9,0.6,1.9,1.5,2.4c0.8,0.5,1.8,0.3,2.7,0.1c0.5-0.1,0.9-0.2,1.3-0.2s0.8,0.1,1.3,0.2
								c0.5,0.1,1,0.2,1.5,0.2c0.4,0,0.8-0.1,1.2-0.3c0.9-0.5,1.2-1.5,1.5-2.4c0.1-0.4,0.3-0.9,0.5-1.2c0.2-0.3,0.5-0.6,0.7-1
								c0.6-0.7,1.3-1.5,1.3-2.6S26.3,8.6,25.7,7.9z M24.8,12.3c-0.3,0.4-0.7,0.8-0.9,1.2c-0.2,0.4-0.4,0.9-0.6,1.4
								c-0.2,0.8-0.5,1.5-1,1.8c-0.5,0.3-1.2,0.1-1.9,0c-0.5-0.1-1-0.2-1.5-0.2s-1,0.1-1.5,0.2c-0.7,0.2-1.5,0.3-1.9,0
								c-0.5-0.3-0.7-1-1-1.8c-0.2-0.5-0.3-1-0.6-1.4c-0.2-0.4-0.6-0.8-0.9-1.2c-0.5-0.6-1-1.2-1-1.8s0.5-1.2,1-1.8
								C13.5,8.3,13.8,8,14,7.5c0.2-0.4,0.4-0.9,0.6-1.4c0.2-0.8,0.5-1.5,1-1.8c0.2-0.1,0.4-0.2,0.7-0.2c0.4,0,0.8,0.1,1.2,0.2
								c0.5,0.1,1,0.2,1.5,0.2s1-0.1,1.5-0.2c0.7-0.2,1.5-0.3,1.9,0c0.5,0.3,0.7,1,1,1.8c0.2,0.5,0.3,1,0.6,1.4
								c0.2,0.4,0.6,0.8,0.9,1.2c0.5,0.6,1,1.2,1,1.8S25.4,11.7,24.8,12.3z"/>
							<path fill="#5EABDD" d="M19.5,7C17.6,7,16,8.6,16,10.5s1.6,3.5,3.5,3.5s3.5-1.6,3.5-3.5S21.4,7,19.5,7z M19.5,12.8
								c-1.3,0-2.3-1-2.3-2.3s1-2.3,2.3-2.3s2.3,1,2.3,2.3S20.8,12.8,19.5,12.8z"/>
							<path fill="#5EABDD" d="M21.4,19h-9.9c-0.2,0-0.4,0.1-0.5,0.4c-0.1,0.2,0,0.5,0.1,0.6l0.2,0.2H6.6c-0.2,0-0.4,0.1-0.5,0.4
								C6,20.7,6,21,6.2,21.1l9.9,9.7c0.1,0.1,0.2,0.2,0.4,0.2c0.1,0,0.1,0,0.2,0c0.2-0.1,0.3-0.3,0.3-0.5v-4.7l4,3.9
								c0.1,0.1,0.2,0.2,0.4,0.2c0.1,0,0.1,0,0.2,0c0.2-0.1,0.3-0.3,0.3-0.5v-9.7C22,19.3,21.8,19,21.4,19z M15.9,29.1l-8-7.8h4.5
								l3.5,3.4V29.1z M20.9,28l-8-7.8h8V28z"/>
						</g>
					</g>
				</g>
			</g>
		</g>
	</g>
</g>
</svg>
