<?xml version="1.0" encoding="UTF-8"?>
<svg width="34px" height="34px" viewBox="0 0 34 34" version="1.1" xmlns="http://www.w3.org/2000/svg" xmlns:xlink="http://www.w3.org/1999/xlink">
    <!-- Generator: Sketch 48.2 (47327) - http://www.bohemiancoding.com/sketch -->
    <title>building</title>
    <desc>Created with Sketch.</desc>
    <defs></defs>
    <g id="Main-page_open" stroke="none" stroke-width="1" fill="none" fill-rule="evenodd" transform="translate(-261.000000, -772.000000)">
        <g id="Benefits/Hotel-class" transform="translate(0.000000, 564.000000)" fill="#5EABDD">
            <g id="Why-book-with-us" transform="translate(150.000000, 40.000000)">
                <g id="properties" transform="translate(0.000000, 145.000000)">
                    <g id="Group-33" transform="translate(13.000000, 23.000000)">
                        <g id="building" transform="translate(98.000000, 0.000000)">
                            <g id="Shape">
                                <path d="M33.4072262,7.04489754 L31.7085754,7.04489754 L31.7085754,6.46013934 C31.7085754,6.10927049 31.4821111,5.87538115 31.142381,5.87538115 C30.8026508,5.87538115 30.5761865,6.10927049 30.5761865,6.46013934 L30.5761865,7.04489754 L28.3112738,7.04489754 L28.3112738,6.46013934 C28.3112738,6.10927049 28.0848095,5.87538115 27.7450794,5.87538115 C27.4053492,5.87538115 27.1788849,6.10927049 27.1788849,6.46013934 L27.1788849,7.04489754 L24.9139722,7.04489754 L24.9139722,1.78179508 C24.9139722,1.43092623 24.6875079,1.19703689 24.3477778,1.19703689 L19.2517579,1.19703689 L19.2517579,0.612278689 C19.2517579,0.261409836 19.0252937,0.0275204918 18.6855635,0.0275204918 C18.3458333,0.0275204918 18.119369,0.261409836 18.119369,0.612278689 L18.119369,1.19703689 L15.8544563,1.19703689 L15.8544563,0.612278689 C15.8544563,0.261409836 15.6279921,0.0275204918 15.2882619,0.0275204918 C14.9485317,0.0275204918 14.7220675,0.261409836 14.7220675,0.612278689 L14.7220675,1.19703689 L9.62604762,1.19703689 C9.28631746,1.19703689 9.05985317,1.43092623 9.05985317,1.78179508 L9.05985317,7.04489754 L6.79467063,7.04489754 L6.79467063,6.46013934 C6.79467063,6.10927049 6.56820635,5.87538115 6.22847619,5.87538115 C5.88874603,5.87538115 5.66228175,6.10927049 5.66228175,6.46013934 L5.66228175,7.04489754 L3.39736905,7.04489754 L3.39736905,6.46013934 C3.39736905,6.10927049 3.17090476,5.87538115 2.8311746,5.87538115 C2.49144444,5.87538115 2.26498016,6.10927049 2.26498016,6.46013934 L2.26498016,7.04489754 L0.566194444,7.04489754 C0.226464286,7.04489754 0,7.27878689 0,7.62965574 L0,28.6820656 L0,33.3604098 C0,33.7112787 0.226464286,33.945168 0.566194444,33.945168 L9.62577778,33.945168 L12.4568849,33.945168 L21.5164683,33.945168 L24.3475754,33.945168 L33.4071587,33.945168 C33.7468889,33.945168 33.9733532,33.7112787 33.9733532,33.3604098 L33.9733532,28.6820656 L33.9733532,7.62965574 C33.9734881,7.27878689 33.7469563,7.04489754 33.4072262,7.04489754 Z M32.8410317,8.21448361 L32.8410317,28.0973074 L24.9138373,28.0973074 L24.9138373,8.21448361 L32.8410317,8.21448361 Z M1.13245635,8.21448361 L9.05958333,8.21448361 L9.05958333,28.0973074 L1.13245635,28.0973074 L1.13245635,8.21448361 Z M1.13245635,29.2668934 L9.05958333,29.2668934 L9.05958333,32.7756516 L1.13245635,32.7756516 L1.13245635,29.2668934 Z M10.1920397,28.6820656 L10.1920397,7.62965574 L10.1920397,2.36655328 L23.7814484,2.36655328 L23.7814484,7.62965574 L23.7814484,28.6820656 L23.7814484,32.775582 L22.0827976,32.775582 L22.0827976,27.5124795 C22.0827976,27.1616107 21.8563333,26.9277213 21.5166032,26.9277213 L12.4569524,26.9277213 C12.1172222,26.9277213 11.8907579,27.1616107 11.8907579,27.5124795 L11.8907579,32.775582 L10.1920397,32.775582 L10.1921071,28.6820656 L10.1920397,28.6820656 Z M13.0231468,28.0973074 L16.4205159,28.0973074 L16.4205159,32.7756516 L13.0231468,32.7756516 L13.0231468,28.0973074 Z M17.5529722,32.775582 L17.5529722,28.0972377 L20.9503413,28.0972377 L20.9503413,32.775582 L17.5529722,32.775582 Z M32.8410317,32.775582 L24.9138373,32.775582 L24.9138373,29.2668238 L32.8410317,29.2668238 L32.8410317,32.775582 Z" fill-rule="nonzero"></path>
                                <path d="M13.5894087,8.7992418 L14.7218651,8.7992418 C15.3447262,8.7992418 15.8543214,8.27293852 15.8543214,7.62965574 L15.8543214,6.46006967 C15.8543214,5.81678689 15.3447262,5.29048361 14.7218651,5.29048361 L13.5894087,5.29048361 C12.9665476,5.29048361 12.4569524,5.81678689 12.4569524,6.46006967 L12.4569524,7.62965574 C12.4569524,8.27293852 12.9665476,8.7992418 13.5894087,8.7992418 Z M13.5894087,6.46006967 L14.7218651,6.46006967 L14.7218651,7.62965574 L13.5894087,7.62965574 L13.5894087,6.46006967 Z" fill-rule="nonzero"></path>
                                <path d="M19.251623,8.7992418 L20.3840794,8.7992418 C21.0069405,8.7992418 21.5165357,8.27293852 21.5165357,7.62965574 L21.5165357,6.46006967 C21.5165357,5.81678689 21.0069405,5.29048361 20.3840794,5.29048361 L19.251623,5.29048361 C18.6287619,5.29048361 18.1191667,5.81678689 18.1191667,6.46006967 L18.1191667,7.62965574 C18.1191667,8.27293852 18.6287619,8.7992418 19.251623,8.7992418 Z M19.251623,6.46006967 L20.3840794,6.46006967 L20.3840794,7.62965574 L19.251623,7.62965574 L19.251623,6.46006967 Z" fill-rule="nonzero"></path>
                                <path d="M13.5894087,13.4775861 L14.7218651,13.4775861 C15.3447262,13.4775861 15.8543214,12.9512828 15.8543214,12.308 L15.8543214,11.1384139 C15.8543214,10.4951311 15.3447262,9.96882787 14.7218651,9.96882787 L13.5894087,9.96882787 C12.9665476,9.96882787 12.4569524,10.4951311 12.4569524,11.1384139 L12.4569524,12.308 C12.4569524,12.9512828 12.9665476,13.4775861 13.5894087,13.4775861 Z M13.5894087,11.1384139 L14.7218651,11.1384139 L14.7218651,12.308 L13.5894087,12.308 L13.5894087,11.1384139 Z" fill-rule="nonzero"></path>
                                <path d="M19.251623,13.4775861 L20.3840794,13.4775861 C21.0069405,13.4775861 21.5165357,12.9512828 21.5165357,12.308 L21.5165357,11.1384139 C21.5165357,10.4951311 21.0069405,9.96882787 20.3840794,9.96882787 L19.251623,9.96882787 C18.6287619,9.96882787 18.1191667,10.4951311 18.1191667,11.1384139 L18.1191667,12.308 C18.1191667,12.9512828 18.6287619,13.4775861 19.251623,13.4775861 Z M19.251623,11.1384139 L20.3840794,11.1384139 L20.3840794,12.308 L19.251623,12.308 L19.251623,11.1384139 Z" fill-rule="nonzero"></path>
                                <path d="M13.5894087,18.1558607 L14.7218651,18.1558607 C15.3447262,18.1558607 15.8543214,17.6295574 15.8543214,16.9862746 L15.8543214,15.8166885 C15.8543214,15.1734057 15.3447262,14.6471025 14.7218651,14.6471025 L13.5894087,14.6471025 C12.9665476,14.6471025 12.4569524,15.1734057 12.4569524,15.8166885 L12.4569524,16.9862746 C12.4569524,17.6295574 12.9665476,18.1558607 13.5894087,18.1558607 Z M13.5894087,15.8166885 L14.7218651,15.8166885 L14.7218651,16.9862746 L13.5894087,16.9862746 L13.5894087,15.8166885 Z" fill-rule="nonzero"></path>
                                <path d="M19.251623,18.1558607 L20.3840794,18.1558607 C21.0069405,18.1558607 21.5165357,17.6295574 21.5165357,16.9862746 L21.5165357,15.8166885 C21.5165357,15.1734057 21.0069405,14.6471025 20.3840794,14.6471025 L19.251623,14.6471025 C18.6287619,14.6471025 18.1191667,15.1734057 18.1191667,15.8166885 L18.1191667,16.9862746 C18.1191667,17.6295574 18.6287619,18.1558607 19.251623,18.1558607 Z M19.251623,15.8166885 L20.3840794,15.8166885 L20.3840794,16.9862746 L19.251623,16.9862746 L19.251623,15.8166885 Z" fill-rule="nonzero"></path>
                                <path d="M13.5894087,22.8342049 L14.7218651,22.8342049 C15.3447262,22.8342049 15.8543214,22.3079016 15.8543214,21.6646189 L15.8543214,20.4950328 C15.8543214,19.85175 15.3447262,19.3254467 14.7218651,19.3254467 L13.5894087,19.3254467 C12.9665476,19.3254467 12.4569524,19.85175 12.4569524,20.4950328 L12.4569524,21.6646189 C12.4569524,22.3079016 12.9665476,22.8342049 13.5894087,22.8342049 Z M13.5894087,20.4950328 L14.7218651,20.4950328 L14.7218651,21.6646189 L13.5894087,21.6646189 L13.5894087,20.4950328 Z" fill-rule="nonzero"></path>
                                <path d="M19.251623,22.8342049 L20.3840794,22.8342049 C21.0069405,22.8342049 21.5165357,22.3079016 21.5165357,21.6646189 L21.5165357,20.4950328 C21.5165357,19.85175 21.0069405,19.3254467 20.3840794,19.3254467 L19.251623,19.3254467 C18.6287619,19.3254467 18.1191667,19.85175 18.1191667,20.4950328 L18.1191667,21.6646189 C18.1191667,22.3079016 18.6287619,22.8342049 19.251623,22.8342049 Z M19.251623,20.4950328 L20.3840794,20.4950328 L20.3840794,21.6646189 L19.251623,21.6646189 L19.251623,20.4950328 Z" fill-rule="nonzero"></path>
                                <path d="M28.3112063,12.8927582 L29.4436627,12.8927582 C30.0665238,12.8927582 30.576119,12.3664549 30.576119,11.7231721 L30.576119,10.5535861 C30.576119,9.91030328 30.0665238,9.384 29.4436627,9.384 L28.3112063,9.384 C27.6883452,9.384 27.17875,9.91030328 27.17875,10.5535861 L27.17875,11.7231721 C27.17875,12.3664549 27.6883452,12.8927582 28.3112063,12.8927582 Z M28.3112063,10.5535861 L29.4436627,10.5535861 L29.4436627,11.7231721 L28.3112063,11.7231721 L28.3112063,10.5535861 Z" fill-rule="nonzero"></path>
                                <path d="M28.3112063,17.5711025 L29.4436627,17.5711025 C30.0665238,17.5711025 30.576119,17.0447992 30.576119,16.4015164 L30.576119,15.2319303 C30.576119,14.5886475 30.0665238,14.0623443 29.4436627,14.0623443 L28.3112063,14.0623443 C27.6883452,14.0623443 27.17875,14.5886475 27.17875,15.2319303 L27.17875,16.4015164 C27.17875,17.0447992 27.6883452,17.5711025 28.3112063,17.5711025 Z M28.3112063,15.2319303 L29.4436627,15.2319303 L29.4436627,16.4015164 L28.3112063,16.4015164 L28.3112063,15.2319303 Z" fill-rule="nonzero"></path>
                                <path d="M28.3112063,22.249377 L29.4436627,22.249377 C30.0665238,22.249377 30.576119,21.7230738 30.576119,21.079791 L30.576119,19.9102049 C30.576119,19.2669221 30.0665238,18.7406189 29.4436627,18.7406189 L28.3112063,18.7406189 C27.6883452,18.7406189 27.17875,19.2669221 27.17875,19.9102049 L27.17875,21.079791 C27.17875,21.7230738 27.6883452,22.249377 28.3112063,22.249377 Z M28.3112063,19.9102049 L29.4436627,19.9102049 L29.4436627,21.079791 L28.3112063,21.079791 L28.3112063,19.9102049 Z" fill-rule="nonzero"></path>
                                <path d="M28.3112063,26.9277213 L29.4436627,26.9277213 C30.0665238,26.9277213 30.576119,26.401418 30.576119,25.7581352 L30.576119,24.5885492 C30.576119,23.9452664 30.0665238,23.4189631 29.4436627,23.4189631 L28.3112063,23.4189631 C27.6883452,23.4189631 27.17875,23.9452664 27.17875,24.5885492 L27.17875,25.7581352 C27.17875,26.401418 27.6883452,26.9277213 28.3112063,26.9277213 Z M28.3112063,24.5885492 L29.4436627,24.5885492 L29.4436627,25.7581352 L28.3112063,25.7581352 L28.3112063,24.5885492 Z" fill-rule="nonzero"></path>
                                <path d="M5.66221429,9.38406967 L4.5298254,9.38406967 C3.90696429,9.38406967 3.39736905,9.91037295 3.39736905,10.5536557 L3.39736905,11.7232418 C3.39736905,12.3665246 3.90696429,12.8928279 4.5298254,12.8928279 L5.66228175,12.8928279 C6.28514286,12.8928279 6.7947381,12.3665246 6.7947381,11.7232418 L6.7947381,10.5536557 C6.79467063,9.91037295 6.2850754,9.38406967 5.66221429,9.38406967 Z M5.66221429,11.7231721 L4.5298254,11.7231721 L4.5298254,10.5535861 L5.66228175,10.5535861 L5.66228175,11.7231721 L5.66221429,11.7231721 Z" fill-rule="nonzero"></path>
                                <path d="M5.66221429,14.0623443 L4.5298254,14.0623443 C3.90696429,14.0623443 3.39736905,14.5886475 3.39736905,15.2319303 L3.39736905,16.4015164 C3.39736905,17.0447992 3.90696429,17.5711025 4.5298254,17.5711025 L5.66228175,17.5711025 C6.28514286,17.5711025 6.7947381,17.0447992 6.7947381,16.4015164 L6.7947381,15.2319303 C6.79467063,14.5886475 6.2850754,14.0623443 5.66221429,14.0623443 Z M5.66221429,16.4015164 L4.5298254,16.4015164 L4.5298254,15.2319303 L5.66228175,15.2319303 L5.66228175,16.4015164 L5.66221429,16.4015164 Z" fill-rule="nonzero"></path>
                                <path d="M5.66221429,18.7406885 L4.5298254,18.7406885 C3.90696429,18.7406885 3.39736905,19.2669918 3.39736905,19.9102746 L3.39736905,21.0798607 C3.39736905,21.7231434 3.90696429,22.2494467 4.5298254,22.2494467 L5.66228175,22.2494467 C6.28514286,22.2494467 6.7947381,21.7231434 6.7947381,21.0798607 L6.7947381,19.9102049 C6.79467063,19.2669918 6.2850754,18.7406885 5.66221429,18.7406885 Z M5.66221429,21.079791 L4.5298254,21.079791 L4.5298254,19.9102049 L5.66228175,19.9102049 L5.66228175,21.079791 L5.66221429,21.079791 Z" fill-rule="nonzero"></path>
                                <path d="M5.66221429,23.4189631 L4.5298254,23.4189631 C3.90696429,23.4189631 3.39736905,23.9452664 3.39736905,24.5885492 L3.39736905,25.7581352 C3.39736905,26.401418 3.90696429,26.9277213 4.5298254,26.9277213 L5.66228175,26.9277213 C6.28514286,26.9277213 6.7947381,26.401418 6.7947381,25.7581352 L6.7947381,24.5885492 C6.79467063,23.9452664 6.2850754,23.4189631 5.66221429,23.4189631 Z M5.66221429,25.7581352 L4.5298254,25.7581352 L4.5298254,24.5885492 L5.66228175,24.5885492 L5.66228175,25.7581352 L5.66221429,25.7581352 Z" fill-rule="nonzero"></path>
                            </g>
                        </g>
                    </g>
                </g>
            </g>
        </g>
    </g>
</svg>