<?xml version="1.0" encoding="UTF-8"?>
<svg width="16px" height="18px" viewBox="0 0 16 18" version="1.1" xmlns="http://www.w3.org/2000/svg" xmlns:xlink="http://www.w3.org/1999/xlink">
    <!-- Generator: Sketch 48.2 (47327) - http://www.bohemiancoding.com/sketch -->
    <title>bus</title>
    <desc>Created with Sketch.</desc>
    <defs></defs>
    <g id="Map_route-planner_1" stroke="none" stroke-width="1" fill="none" fill-rule="evenodd" transform="translate(-1175.000000, -226.000000)">
        <g id="Location_route-planner" transform="translate(-1.000000, 32.000000)" fill="#FFFFFF">
            <g id="Location-block" transform="translate(1028.000000, 92.000000)">
                <g id="Directions" transform="translate(20.000000, 97.000000)">
                    <g id="public-transport" transform="translate(122.000000, 0.000000)">
                        <g id="bus" transform="translate(6.000000, 5.000000)">
                            <g id="bus-2">
                                <path d="M8.00004688,0 C3.57999836,0 0,0.473699403 0,3.789462 L0,13.2631392 C0,14.1015609 0.390001523,14.8452606 0.999988281,15.3662988 L0.999988281,17.0526456 C0.999988281,17.5736839 1.44999004,18 1.99997656,18 L3.00001172,18 C3.55501389,18 4,17.5736839 4,17.0526456 L4,16.1052912 L12.0000469,16.1052912 L12.0000469,17.0526456 C12.0000469,17.5736839 12.445033,18 13.0000352,18 L14.0000234,18 C14.55001,18 15.0000117,17.5736839 15.0000117,17.0526456 L15.0000117,15.3663432 C15.6099985,14.845305 16,14.1016053 16,13.2631836 L16,3.789462 C16.0000469,0.473699403 12.4200485,0 8.00004688,0 Z M3.5000293,14.210538 C2.67001043,14.210538 2.00002344,13.5758154 2.00002344,12.7894842 C2.00002344,12.003153 2.67001043,11.3684304 3.5000293,11.3684304 C4.33004816,11.3684304 5.00003516,12.003153 5.00003516,12.7894842 C5.00003516,13.5758154 4.33000129,14.210538 3.5000293,14.210538 Z M12.5000645,14.210538 C11.6700456,14.210538 11.0000586,13.5758154 11.0000586,12.7894842 C11.0000586,12.003153 11.6700456,11.3684304 12.5000645,11.3684304 C13.3300833,11.3684304 14.0000703,12.003153 14.0000703,12.7894842 C14.0000703,13.5758154 13.3300364,14.210538 12.5000645,14.210538 Z M14.0000703,8.5263228 L2.00002344,8.5263228 L2.00002344,3.789462 L14.0000703,3.789462 L14.0000703,8.5263228 Z" id="Shape" fill-rule="nonzero"></path>
                            </g>
                        </g>
                    </g>
                </g>
            </g>
        </g>
    </g>
</svg>