<?xml version="1.0" encoding="utf-8"?>
<!-- Generator: Adobe Illustrator 21.1.0, SVG Export Plug-In . SVG Version: 6.00 Build 0)  -->
<svg version="1.1" id="Слой_1" xmlns="http://www.w3.org/2000/svg" xmlns:xlink="http://www.w3.org/1999/xlink" x="0px" y="0px"
	 viewBox="0 0 20 20" enable-background="new 0 0 20 20" xml:space="preserve">
<title>calendar</title>
<desc>Created with Sketch.</desc>
<g id="Hotel-page" transform="translate(-292.000000, -646.000000)">
	<g id="First-screen" transform="translate(0.000000, 7.000000)">
		<g id="Form-with-dates" transform="translate(248.000000, 538.000000)">
			<g id="Check-in" transform="translate(44.000000, 101.000000)">
				<g id="calendar">
					<g id="calendar-3">
						<path id="Shape" fill="#5B6D7C" d="M19.8,3.6c-0.1-0.5-0.4-1-0.8-1.3c-0.6-0.6-1.5-0.9-2.4-0.9h-1.4V0.4
							c0-0.2-0.2-0.4-0.4-0.4c-0.2,0-0.4,0.2-0.4,0.4v0.9H5.8V0.4C5.8,0.2,5.6,0,5.4,0C5.1,0,4.9,0.2,4.9,0.4v0.9H3.5
							c-0.7,0-1.4,0.2-1.9,0.5C1.4,2,1.2,2.1,1,2.3C0.4,2.8,0,3.7,0,4.5v2.2v10.1c0,0.9,0.4,1.7,1,2.3C1.7,19.7,2.5,20,3.5,20h13.1
							c1,0,1.8-0.4,2.4-0.9c0.6-0.6,1-1.4,1-2.3v-10V4.6C20,4.2,19.9,3.9,19.8,3.6z M19.1,16.8c0,0.7-0.3,1.3-0.7,1.7
							s-1.1,0.7-1.8,0.7H3.5c-0.7,0-1.3-0.3-1.8-0.7s-0.7-1-0.7-1.7V7.1h18.2V16.8z M19.1,6.3H0.9V4.5c0-0.7,0.3-1.3,0.7-1.7
							s1.1-0.7,1.8-0.7h1.4V3c0,0.2,0.2,0.4,0.4,0.4c0.2,0,0.4-0.2,0.4-0.4V2.1h8.4V3c0,0.2,0.2,0.4,0.4,0.4c0.2,0,0.4-0.2,0.4-0.4
							V2.1h1.4c0.7,0,1.3,0.3,1.8,0.7c0.3,0.3,0.6,0.7,0.7,1.2c0,0.2,0,0.3,0,0.5V6.3z"/>
						<path id="Shape_1_" fill="#5B6D7C" d="M4.3,10.9c0.4,0,0.7-0.2,1-0.4c0.3-0.2,0.4-0.6,0.4-0.9S5.5,8.9,5.3,8.7
							C5,8.4,4.7,8.3,4.3,8.3c-0.4,0-0.7,0.2-1,0.4C3.1,8.9,3,9.2,3,9.6s0.2,0.7,0.4,0.9C3.6,10.7,4,10.9,4.3,10.9z M3.9,9.2
							C4,9.1,4.1,9.1,4.3,9.1c0.1,0,0.3,0,0.4,0.1s0.1,0.2,0.1,0.3c0,0.2,0,0.3-0.1,0.3s-0.2,0.1-0.4,0.1c-0.1,0-0.3,0-0.4-0.1
							S3.8,9.7,3.8,9.6C3.8,9.4,3.8,9.3,3.9,9.2z"/>
						<path id="Shape_2_" fill="#5B6D7C" d="M8.1,10.9c0.4,0,0.7-0.2,1-0.4c0.3-0.2,0.4-0.6,0.4-0.9S9.3,8.9,9.1,8.7
							c-0.2-0.2-0.6-0.4-1-0.4c-0.4,0-0.7,0.2-1,0.4C6.9,8.9,6.7,9.2,6.7,9.6s0.2,0.7,0.4,0.9C7.4,10.7,7.7,10.9,8.1,10.9z M7.7,9.2
							C7.8,9.1,8,9.1,8.1,9.1c0.1,0,0.3,0,0.4,0.1s0.1,0.2,0.1,0.3s0,0.3-0.1,0.3s-0.2,0.1-0.4,0.1c-0.1,0-0.3,0-0.4-0.1
							S7.6,9.7,7.6,9.6C7.6,9.4,7.7,9.3,7.7,9.2z"/>
						<path id="Shape_3_" fill="#5B6D7C" d="M11.9,10.9c0.4,0,0.7-0.2,1-0.4c0.3-0.2,0.4-0.6,0.4-0.9s-0.2-0.7-0.4-0.9
							c-0.2-0.2-0.6-0.4-1-0.4c-0.4,0-0.7,0.2-1,0.4s-0.4,0.6-0.4,0.9s0.2,0.7,0.4,0.9C11.2,10.7,11.6,10.9,11.9,10.9z M11.6,9.2
							c0.1-0.1,0.2-0.1,0.4-0.1c0.1,0,0.3,0,0.4,0.1c0.1,0.1,0.1,0.2,0.1,0.3c0,0.1-0.1,0.2-0.2,0.3s-0.2,0.1-0.4,0.1
							c-0.1,0-0.3,0-0.4-0.1c-0.1-0.1-0.1-0.2-0.1-0.3C11.4,9.5,11.5,9.3,11.6,9.2z"/>
						<path id="Shape_4_" fill="#5B6D7C" d="M15.7,10.9c0.4,0,0.7-0.2,1-0.4c0.3-0.2,0.4-0.6,0.4-0.9s-0.2-0.7-0.4-0.9
							c-0.2-0.2-0.6-0.4-1-0.4c-0.4,0-0.7,0.2-1,0.4c-0.3,0.2-0.4,0.6-0.4,0.9s0.2,0.7,0.4,0.9C15,10.7,15.3,10.9,15.7,10.9z
							 M15.3,9.2c0.1-0.1,0.2-0.1,0.4-0.1c0.1,0,0.3,0,0.4,0.1s0.1,0.2,0.1,0.3s0,0.3-0.1,0.3s-0.2,0.1-0.4,0.1
							c-0.1,0-0.3,0-0.4-0.1s-0.1-0.2-0.1-0.3C15.2,9.4,15.3,9.3,15.3,9.2z"/>
						<path id="Shape_5_" fill="#5B6D7C" d="M4.3,14.4c0.4,0,0.7-0.2,1-0.4c0.3-0.2,0.4-0.6,0.4-0.9s-0.2-0.7-0.4-0.9
							c-0.3-0.2-0.6-0.4-1-0.4c-0.4,0-0.7,0.2-1,0.4C3.1,12.5,3,12.8,3,13.2s0.2,0.7,0.4,0.9C3.6,14.3,4,14.4,4.3,14.4z M3.9,12.8
							c0.1-0.1,0.2-0.1,0.4-0.1c0.1,0,0.3,0,0.4,0.1c0.1,0.1,0.1,0.2,0.1,0.3c0,0.1,0,0.3-0.1,0.3s-0.2,0.1-0.4,0.1
							c-0.1,0-0.3,0-0.4-0.1s-0.1-0.2-0.1-0.3C3.8,13,3.8,12.9,3.9,12.8z"/>
						<path id="Shape_6_" fill="#5B6D7C" d="M8.1,14.4c0.4,0,0.7-0.2,1-0.4s0.4-0.6,0.4-0.9s-0.2-0.7-0.4-0.9
							c-0.2-0.2-0.6-0.4-1-0.4c-0.4,0-0.7,0.2-1,0.4c-0.3,0.2-0.4,0.6-0.4,0.9s0.2,0.7,0.4,0.9C7.4,14.3,7.7,14.4,8.1,14.4z
							 M7.7,12.8c0.1-0.1,0.2-0.1,0.4-0.1c0.1,0,0.3,0,0.4,0.1c0.1,0.1,0.1,0.2,0.1,0.3c0,0.1,0,0.3-0.1,0.3s-0.2,0.1-0.4,0.1
							c-0.1,0-0.3,0-0.4-0.1s-0.1-0.2-0.1-0.3C7.6,13,7.7,12.9,7.7,12.8z"/>
						<path id="Shape_7_" fill="#5B6D7C" d="M11.9,14.4c0.4,0,0.7-0.2,1-0.4s0.4-0.6,0.4-0.9s-0.2-0.7-0.4-0.9
							c-0.2-0.2-0.6-0.4-1-0.4c-0.4,0-0.7,0.2-1,0.4s-0.4,0.6-0.4,0.9s0.2,0.7,0.4,0.9S11.6,14.4,11.9,14.4z M11.5,12.8
							c0.1-0.1,0.2-0.1,0.4-0.1c0.1,0,0.3,0,0.4,0.1c0.1,0.1,0.1,0.2,0.1,0.3c0,0.1,0,0.3-0.1,0.3s-0.2,0.1-0.4,0.1
							c-0.1,0-0.3,0-0.4-0.1s-0.1-0.2-0.1-0.3C11.4,13,11.4,12.9,11.5,12.8z"/>
						<path id="Shape_8_" fill="#5B6D7C" d="M15.7,14.4c0.4,0,0.7-0.2,1-0.4c0.3-0.2,0.4-0.6,0.4-0.9s-0.2-0.7-0.4-0.9
							c-0.2-0.2-0.6-0.4-1-0.4c-0.4,0-0.7,0.2-1,0.4c-0.3,0.2-0.4,0.6-0.4,0.9s0.2,0.7,0.4,0.9C15,14.3,15.3,14.4,15.7,14.4z
							 M15.3,12.8c0.1-0.1,0.2-0.1,0.4-0.1c0.1,0,0.3,0,0.4,0.1c0.1,0.1,0.1,0.2,0.1,0.3c0,0.1,0,0.3-0.1,0.3s-0.2,0.1-0.4,0.1
							c-0.1,0-0.3,0-0.4-0.1s-0.1-0.2-0.1-0.3C15.2,13,15.3,12.9,15.3,12.8z"/>
						<path id="Shape_9_" fill="#5B6D7C" d="M4.3,18c0.4,0,0.7-0.2,1-0.4c0.3-0.2,0.4-0.6,0.4-0.9c0-0.3-0.2-0.7-0.4-0.9
							c-0.3-0.2-0.6-0.4-1-0.4c-0.4,0-0.7,0.2-1,0.4C3.1,16,3,16.3,3,16.7c0,0.3,0.2,0.7,0.4,0.9C3.6,17.9,4,18,4.3,18z M3.9,16.3
							c0.1-0.1,0.2-0.1,0.4-0.1c0.1,0,0.3,0,0.4,0.1c0.1,0.1,0.1,0.2,0.1,0.3c0,0.1,0,0.3-0.1,0.3c-0.1,0.1-0.2,0.1-0.4,0.1
							c-0.1,0-0.3,0-0.4-0.1c-0.1-0.1-0.1-0.2-0.1-0.3C3.8,16.6,3.8,16.4,3.9,16.3z"/>
						<path id="Shape_10_" fill="#5B6D7C" d="M8.1,18c0.4,0,0.7-0.2,1-0.4c0.3-0.2,0.4-0.6,0.4-0.9c0-0.3-0.2-0.7-0.4-0.9
							s-0.6-0.4-1-0.4c-0.4,0-0.7,0.2-1,0.4c-0.3,0.2-0.4,0.6-0.4,0.9c0,0.3,0.2,0.7,0.4,0.9C7.4,17.9,7.7,18,8.1,18z M7.7,16.3
							c0.1-0.1,0.2-0.1,0.4-0.1c0.1,0,0.3,0,0.4,0.1c0.1,0.1,0.1,0.2,0.1,0.3c0,0.1,0,0.3-0.1,0.3c-0.1,0.1-0.2,0.1-0.4,0.1
							c-0.1,0-0.3,0-0.4-0.1c-0.1-0.1-0.1-0.2-0.1-0.3C7.6,16.6,7.7,16.4,7.7,16.3z"/>
						<path id="Shape_11_" fill="#5B6D7C" d="M11.9,18c0.4,0,0.7-0.2,1-0.4c0.3-0.2,0.4-0.6,0.4-0.9c0-0.3-0.2-0.7-0.4-0.9
							c-0.3-0.2-0.6-0.4-1-0.4c-0.4,0-0.7,0.2-1,0.4c-0.3,0.2-0.4,0.6-0.4,0.9c0,0.3,0.2,0.7,0.4,0.9C11.2,17.9,11.6,18,11.9,18z
							 M11.5,16.3c0.1-0.1,0.2-0.1,0.4-0.1c0.1,0,0.3,0,0.4,0.1c0.1,0.1,0.1,0.2,0.1,0.3c0,0.1,0,0.3-0.1,0.3
							c-0.1,0.1-0.2,0.1-0.4,0.1c-0.1,0-0.3,0-0.4-0.1c-0.1-0.1-0.1-0.2-0.1-0.3C11.4,16.6,11.4,16.4,11.5,16.3z"/>
						<path id="Shape_12_" fill="#5B6D7C" d="M15.7,18c0.4,0,0.7-0.2,1-0.4c0.3-0.2,0.4-0.6,0.4-0.9c0-0.3-0.2-0.7-0.4-0.9
							c-0.2-0.2-0.6-0.4-1-0.4c-0.4,0-0.7,0.2-1,0.4c-0.3,0.2-0.4,0.6-0.4,0.9c0,0.3,0.2,0.7,0.4,0.9C15,17.9,15.3,18,15.7,18z
							 M15.3,16.3c0.1-0.1,0.2-0.1,0.4-0.1c0.1,0,0.3,0,0.4,0.1c0.1,0.1,0.1,0.2,0.1,0.3c0,0.1,0,0.3-0.1,0.3
							c-0.1,0.1-0.2,0.1-0.4,0.1c-0.1,0-0.3,0-0.4-0.1c-0.1-0.1-0.1-0.2-0.1-0.3C15.2,16.6,15.3,16.4,15.3,16.3z"/>
					</g>
				</g>
			</g>
		</g>
	</g>
</g>
</svg>
