<?xml version="1.0" encoding="UTF-8"?>
<svg width="20px" height="20px" viewBox="0 0 20 20" version="1.1" xmlns="http://www.w3.org/2000/svg" xmlns:xlink="http://www.w3.org/1999/xlink">
    <!-- Generator: Sketch 48.1 (47250) - http://www.bohemiancoding.com/sketch -->
    <title>calendar</title>
    <desc>Created with Sketch.</desc>
    <defs></defs>
    <g id="Hotel-page" stroke="none" stroke-width="1" fill="none" fill-rule="evenodd" transform="translate(-292.000000, -646.000000)">
        <g id="First-screen" transform="translate(0.000000, 7.000000)" fill="#5B6D7C">
            <g id="Form-with-dates" transform="translate(248.000000, 538.000000)">
                <g id="Check-in" transform="translate(44.000000, 101.000000)">
                    <g id="calendar">
                        <g id="calendar-3">
                            <path d="M19.7906977,3.60655738 C19.6744186,3.08196721 19.372093,2.62295082 18.9767442,2.27322404 C18.3488372,1.68306011 17.4883721,1.33333333 16.5581395,1.33333333 L15.1162791,1.33333333 L15.1162791,0.415300546 C15.1162791,0.196721311 14.9302326,0 14.6744186,0 C14.4418605,0 14.2325581,0.174863388 14.2325581,0.415300546 L14.2325581,1.31147541 L5.81395349,1.31147541 L5.81395349,0.415300546 C5.81395349,0.196721311 5.62790698,0 5.37209302,0 C5.13953488,0 4.93023256,0.174863388 4.93023256,0.415300546 L4.93023256,1.31147541 L3.48837209,1.31147541 C2.76744186,1.31147541 2.11627907,1.50819672 1.55813953,1.8579235 C1.37209302,1.96721311 1.20930233,2.09836066 1.04651163,2.25136612 C0.418604651,2.84153005 0.0465116279,3.65027322 0.0465116279,4.52459016 L0.0465116279,6.71038251 L0.0465116279,16.7868852 C0.0465116279,17.6830601 0.441860465,18.4918033 1.04651163,19.0601093 C1.6744186,19.6502732 2.53488372,20 3.46511628,20 L16.5348837,20 C17.4883721,20 18.3488372,19.6284153 18.9534884,19.0601093 C19.5813953,18.4699454 19.9534884,17.6612022 19.9534884,16.7868852 L19.9534884,6.75409836 L19.9534884,4.56830601 C19.9534884,4.24043716 19.9069767,3.91256831 19.7906977,3.60655738 Z M19.1162791,16.8087432 C19.1162791,17.4863388 18.8372093,18.0983607 18.372093,18.5355191 C17.9069767,18.9726776 17.255814,19.2349727 16.5581395,19.2349727 L3.48837209,19.2349727 C2.79069767,19.2349727 2.13953488,18.9726776 1.6744186,18.5355191 C1.20930233,18.0983607 0.930232558,17.4863388 0.930232558,16.8306011 L0.930232558,7.14754098 L19.1162791,7.14754098 L19.1162791,16.8087432 Z M19.1395349,6.33879781 L0.930232558,6.33879781 L0.930232558,4.54644809 C0.930232558,3.89071038 1.20930233,3.27868852 1.6744186,2.84153005 C2.13953488,2.40437158 2.79069767,2.1420765 3.48837209,2.1420765 L4.93023256,2.1420765 L4.93023256,3.03825137 C4.93023256,3.2568306 5.11627907,3.45355191 5.37209302,3.45355191 C5.60465116,3.45355191 5.81395349,3.27868852 5.81395349,3.03825137 L5.81395349,2.1420765 L14.255814,2.1420765 L14.255814,3.03825137 C14.255814,3.2568306 14.4418605,3.45355191 14.6976744,3.45355191 C14.9302326,3.45355191 15.1395349,3.27868852 15.1395349,3.03825137 L15.1395349,2.1420765 L16.5813953,2.1420765 C17.2790698,2.1420765 17.9302326,2.40437158 18.3953488,2.84153005 C18.744186,3.16939891 19,3.58469945 19.0930233,4.06557377 C19.1162791,4.21857923 19.1395349,4.39344262 19.1395349,4.54644809 L19.1395349,6.33879781 Z" id="Shape" fill-rule="nonzero"></path>
                            <path d="M4.3255814,10.863388 C4.69767442,10.863388 5.04651163,10.7103825 5.30232558,10.4918033 C5.55813953,10.2513661 5.69767442,9.92349727 5.69767442,9.57377049 C5.69767442,9.22404372 5.53488372,8.89617486 5.30232558,8.6557377 C5.04651163,8.43715847 4.69767442,8.28415301 4.3255814,8.28415301 C3.95348837,8.28415301 3.60465116,8.43715847 3.34883721,8.6557377 C3.09302326,8.89617486 2.95348837,9.22404372 2.95348837,9.57377049 C2.95348837,9.92349727 3.11627907,10.2513661 3.34883721,10.4918033 C3.60465116,10.7322404 3.95348837,10.863388 4.3255814,10.863388 Z M3.93023256,9.22404372 C4.02325581,9.13661202 4.13953488,9.09289617 4.30232558,9.09289617 C4.44186047,9.09289617 4.58139535,9.13661202 4.6744186,9.22404372 C4.76744186,9.31147541 4.81395349,9.42076503 4.81395349,9.57377049 C4.8372093,9.72677596 4.76744186,9.83606557 4.6744186,9.92349727 C4.58139535,10.010929 4.46511628,10.0546448 4.30232558,10.0546448 C4.1627907,10.0546448 4.02325581,10.010929 3.93023256,9.92349727 C3.8372093,9.83606557 3.79069767,9.72677596 3.79069767,9.57377049 C3.79069767,9.44262295 3.8372093,9.31147541 3.93023256,9.22404372 Z" id="Shape" fill-rule="nonzero"></path>
                            <path d="M8.11627907,10.863388 C8.48837209,10.863388 8.8372093,10.7103825 9.09302326,10.4918033 C9.34883721,10.2513661 9.48837209,9.92349727 9.48837209,9.57377049 C9.48837209,9.22404372 9.3255814,8.89617486 9.09302326,8.6557377 C8.86046512,8.41530055 8.51162791,8.28415301 8.11627907,8.28415301 C7.74418605,8.28415301 7.39534884,8.43715847 7.13953488,8.6557377 C6.88372093,8.89617486 6.74418605,9.22404372 6.74418605,9.57377049 C6.74418605,9.92349727 6.90697674,10.2513661 7.13953488,10.4918033 C7.39534884,10.7322404 7.74418605,10.863388 8.11627907,10.863388 Z M7.74418605,9.22404372 C7.8372093,9.13661202 7.95348837,9.09289617 8.11627907,9.09289617 C8.25581395,9.09289617 8.39534884,9.13661202 8.48837209,9.22404372 C8.58139535,9.31147541 8.62790698,9.42076503 8.62790698,9.57377049 C8.62790698,9.72677596 8.58139535,9.83606557 8.48837209,9.92349727 C8.39534884,10.010929 8.27906977,10.0546448 8.11627907,10.0546448 C7.97674419,10.0546448 7.8372093,10.010929 7.74418605,9.92349727 C7.65116279,9.83606557 7.60465116,9.72677596 7.60465116,9.57377049 C7.60465116,9.44262295 7.65116279,9.31147541 7.74418605,9.22404372 Z" id="Shape" fill-rule="nonzero"></path>
                            <path d="M11.9302326,10.863388 C12.3023256,10.863388 12.6511628,10.7103825 12.9069767,10.4918033 C13.1627907,10.2513661 13.3023256,9.92349727 13.3023256,9.57377049 C13.3023256,9.22404372 13.1395349,8.89617486 12.9069767,8.6557377 C12.6744186,8.41530055 12.3023256,8.28415301 11.9302326,8.28415301 C11.5581395,8.28415301 11.2093023,8.43715847 10.9534884,8.6557377 C10.6976744,8.87431694 10.5581395,9.22404372 10.5581395,9.57377049 C10.5581395,9.92349727 10.7209302,10.2513661 10.9534884,10.4918033 C11.2093023,10.7322404 11.5581395,10.863388 11.9302326,10.863388 Z M11.5581395,9.24590164 C11.6511628,9.15846995 11.7674419,9.1147541 11.9302326,9.1147541 C12.0697674,9.1147541 12.2093023,9.15846995 12.3023256,9.24590164 C12.3953488,9.33333333 12.4418605,9.44262295 12.4418605,9.59562842 C12.4418605,9.72677596 12.372093,9.83606557 12.2790698,9.92349727 C12.1860465,10.010929 12.0697674,10.0546448 11.9069767,10.0546448 C11.7674419,10.0546448 11.627907,10.010929 11.5348837,9.92349727 C11.4651163,9.83606557 11.4186047,9.72677596 11.4186047,9.59562842 C11.4186047,9.46448087 11.4651163,9.33333333 11.5581395,9.24590164 Z" id="Shape" fill-rule="nonzero"></path>
                            <path d="M15.7209302,10.863388 C16.0930233,10.863388 16.4418605,10.7103825 16.6976744,10.4918033 C16.9534884,10.2513661 17.0930233,9.92349727 17.0930233,9.57377049 C17.0930233,9.22404372 16.9302326,8.89617486 16.6976744,8.6557377 C16.4651163,8.43715847 16.1162791,8.28415301 15.7209302,8.28415301 C15.3488372,8.28415301 15,8.43715847 14.744186,8.6557377 C14.4883721,8.89617486 14.3488372,9.22404372 14.3488372,9.57377049 C14.3488372,9.92349727 14.5116279,10.2513661 14.744186,10.4918033 C15,10.7322404 15.3488372,10.863388 15.7209302,10.863388 Z M15.3488372,9.22404372 C15.4418605,9.13661202 15.5581395,9.09289617 15.7209302,9.09289617 C15.8604651,9.09289617 16,9.13661202 16.0930233,9.22404372 C16.1860465,9.31147541 16.2325581,9.42076503 16.2325581,9.57377049 C16.2325581,9.72677596 16.1860465,9.83606557 16.0930233,9.92349727 C16,10.010929 15.8837209,10.0546448 15.7209302,10.0546448 C15.5813953,10.0546448 15.4418605,10.010929 15.3488372,9.92349727 C15.255814,9.83606557 15.2093023,9.72677596 15.2093023,9.57377049 C15.2093023,9.44262295 15.255814,9.31147541 15.3488372,9.22404372 Z" id="Shape" fill-rule="nonzero"></path>
                            <path d="M4.3255814,14.4480874 C4.69767442,14.4480874 5.04651163,14.295082 5.30232558,14.0765027 C5.55813953,13.8360656 5.69767442,13.5081967 5.69767442,13.1584699 C5.69767442,12.8087432 5.53488372,12.4808743 5.30232558,12.2404372 C5.04651163,12 4.69767442,11.8688525 4.3255814,11.8688525 C3.95348837,11.8688525 3.60465116,12.0218579 3.34883721,12.2404372 C3.09302326,12.4808743 2.95348837,12.8087432 2.95348837,13.1584699 C2.95348837,13.5081967 3.11627907,13.8360656 3.34883721,14.0765027 C3.60465116,14.3169399 3.95348837,14.4480874 4.3255814,14.4480874 Z M3.93023256,12.8087432 C4.02325581,12.7213115 4.13953488,12.6775956 4.30232558,12.6775956 C4.44186047,12.6775956 4.58139535,12.7213115 4.6744186,12.8087432 C4.76744186,12.8961749 4.81395349,13.0054645 4.81395349,13.1584699 C4.8372093,13.2896175 4.76744186,13.420765 4.6744186,13.5081967 C4.58139535,13.5956284 4.46511628,13.6393443 4.30232558,13.6393443 C4.1627907,13.6393443 4.02325581,13.5956284 3.93023256,13.5081967 C3.8372093,13.420765 3.79069767,13.3114754 3.79069767,13.1584699 C3.79069767,13.0273224 3.8372093,12.8961749 3.93023256,12.8087432 Z" id="Shape" fill-rule="nonzero"></path>
                            <path d="M8.11627907,14.4480874 C8.48837209,14.4480874 8.8372093,14.295082 9.09302326,14.0765027 C9.34883721,13.8579235 9.48837209,13.5081967 9.48837209,13.1584699 C9.48837209,12.8087432 9.3255814,12.4808743 9.09302326,12.2404372 C8.86046512,12 8.51162791,11.8688525 8.11627907,11.8688525 C7.74418605,11.8688525 7.39534884,12.0218579 7.13953488,12.2404372 C6.88372093,12.4808743 6.74418605,12.8087432 6.74418605,13.1584699 C6.74418605,13.5081967 6.90697674,13.8360656 7.13953488,14.0765027 C7.39534884,14.3169399 7.74418605,14.4480874 8.11627907,14.4480874 Z M7.74418605,12.8087432 C7.8372093,12.7213115 7.95348837,12.6775956 8.11627907,12.6775956 C8.25581395,12.6775956 8.39534884,12.7213115 8.48837209,12.8087432 C8.58139535,12.8961749 8.62790698,13.0054645 8.62790698,13.1584699 C8.62790698,13.2896175 8.58139535,13.420765 8.48837209,13.5081967 C8.39534884,13.5956284 8.27906977,13.6393443 8.11627907,13.6393443 C7.97674419,13.6393443 7.8372093,13.5956284 7.74418605,13.5081967 C7.65116279,13.420765 7.60465116,13.3114754 7.60465116,13.1584699 C7.60465116,13.0273224 7.65116279,12.8961749 7.74418605,12.8087432 Z" id="Shape" fill-rule="nonzero"></path>
                            <path d="M11.9302326,14.4480874 C12.3023256,14.4480874 12.6511628,14.295082 12.9069767,14.0765027 C13.1627907,13.8579235 13.3023256,13.5081967 13.3023256,13.1584699 C13.3023256,12.8087432 13.1395349,12.4808743 12.9069767,12.2404372 C12.6744186,12 12.3023256,11.8688525 11.9302326,11.8688525 C11.5581395,11.8688525 11.2093023,12.0218579 10.9534884,12.2404372 C10.6976744,12.4590164 10.5581395,12.8087432 10.5581395,13.1584699 C10.5581395,13.5081967 10.7209302,13.8360656 10.9534884,14.0765027 C11.1860465,14.3169399 11.5581395,14.4480874 11.9302326,14.4480874 Z M11.5348837,12.8087432 C11.627907,12.7213115 11.744186,12.6775956 11.9069767,12.6775956 C12.0465116,12.6775956 12.1860465,12.7213115 12.2790698,12.8087432 C12.372093,12.8961749 12.4186047,13.0054645 12.4186047,13.1584699 C12.4418605,13.2896175 12.372093,13.420765 12.2790698,13.5081967 C12.1860465,13.5956284 12.0697674,13.6393443 11.9069767,13.6393443 C11.7674419,13.6393443 11.627907,13.5956284 11.5348837,13.5081967 C11.4418605,13.420765 11.3953488,13.3114754 11.3953488,13.1584699 C11.3953488,13.0273224 11.4418605,12.8961749 11.5348837,12.8087432 Z" id="Shape" fill-rule="nonzero"></path>
                            <path d="M15.7209302,14.4480874 C16.0930233,14.4480874 16.4418605,14.295082 16.6976744,14.0765027 C16.9534884,13.8360656 17.0930233,13.5081967 17.0930233,13.1584699 C17.0930233,12.8087432 16.9302326,12.4808743 16.6976744,12.2404372 C16.4651163,12 16.1162791,11.8688525 15.7209302,11.8688525 C15.3488372,11.8688525 15,12.0218579 14.744186,12.2404372 C14.4883721,12.4808743 14.3488372,12.8087432 14.3488372,13.1584699 C14.3488372,13.5081967 14.5116279,13.8360656 14.744186,14.0765027 C15,14.3169399 15.3488372,14.4480874 15.7209302,14.4480874 Z M15.3488372,12.8087432 C15.4418605,12.7213115 15.5581395,12.6775956 15.7209302,12.6775956 C15.8604651,12.6775956 16,12.7213115 16.0930233,12.8087432 C16.1860465,12.8961749 16.2325581,13.0054645 16.2325581,13.1584699 C16.2325581,13.2896175 16.1860465,13.420765 16.0930233,13.5081967 C16,13.5956284 15.8837209,13.6393443 15.7209302,13.6393443 C15.5813953,13.6393443 15.4418605,13.5956284 15.3488372,13.5081967 C15.255814,13.420765 15.2093023,13.3114754 15.2093023,13.1584699 C15.2093023,13.0273224 15.255814,12.8961749 15.3488372,12.8087432 Z" id="Shape" fill-rule="nonzero"></path>
                            <path d="M4.3255814,17.989071 C4.69767442,17.989071 5.04651163,17.8360656 5.30232558,17.6174863 C5.55813953,17.3770492 5.69767442,17.0491803 5.69767442,16.6994536 C5.69767442,16.3497268 5.53488372,16.0218579 5.30232558,15.7814208 C5.04651163,15.5409836 4.69767442,15.4098361 4.3255814,15.4098361 C3.95348837,15.4098361 3.60465116,15.5628415 3.34883721,15.7814208 C3.09302326,16.0218579 2.95348837,16.3497268 2.95348837,16.6994536 C2.95348837,17.0491803 3.11627907,17.3770492 3.34883721,17.6174863 C3.60465116,17.8579235 3.95348837,17.989071 4.3255814,17.989071 Z M3.93023256,16.3497268 C4.02325581,16.2622951 4.13953488,16.2185792 4.30232558,16.2185792 C4.44186047,16.2185792 4.58139535,16.2622951 4.6744186,16.3497268 C4.76744186,16.4371585 4.81395349,16.5464481 4.81395349,16.6994536 C4.8372093,16.8306011 4.76744186,16.9617486 4.6744186,17.0491803 C4.58139535,17.136612 4.46511628,17.1803279 4.30232558,17.1803279 C4.1627907,17.1803279 4.02325581,17.136612 3.93023256,17.0491803 C3.8372093,16.9617486 3.79069767,16.852459 3.79069767,16.6994536 C3.79069767,16.568306 3.8372093,16.4371585 3.93023256,16.3497268 Z" id="Shape" fill-rule="nonzero"></path>
                            <path d="M8.11627907,17.989071 C8.48837209,17.989071 8.8372093,17.8360656 9.09302326,17.6174863 C9.34883721,17.3989071 9.48837209,17.0491803 9.48837209,16.6994536 C9.48837209,16.3497268 9.3255814,16.0218579 9.09302326,15.7814208 C8.86046512,15.5409836 8.51162791,15.4098361 8.11627907,15.4098361 C7.74418605,15.4098361 7.39534884,15.5628415 7.13953488,15.7814208 C6.88372093,16.0218579 6.74418605,16.3497268 6.74418605,16.6994536 C6.74418605,17.0491803 6.90697674,17.3770492 7.13953488,17.6174863 C7.39534884,17.8579235 7.74418605,17.989071 8.11627907,17.989071 Z M7.74418605,16.3497268 C7.8372093,16.2622951 7.95348837,16.2185792 8.11627907,16.2185792 C8.25581395,16.2185792 8.39534884,16.2622951 8.48837209,16.3497268 C8.58139535,16.4371585 8.62790698,16.5464481 8.62790698,16.6994536 C8.62790698,16.8306011 8.58139535,16.9617486 8.48837209,17.0491803 C8.39534884,17.136612 8.27906977,17.1803279 8.11627907,17.1803279 C7.97674419,17.1803279 7.8372093,17.136612 7.74418605,17.0491803 C7.65116279,16.9617486 7.60465116,16.852459 7.60465116,16.6994536 C7.60465116,16.568306 7.65116279,16.4371585 7.74418605,16.3497268 Z" id="Shape" fill-rule="nonzero"></path>
                            <path d="M11.9302326,17.989071 C12.3023256,17.989071 12.6511628,17.8360656 12.9069767,17.6174863 C13.1627907,17.3989071 13.3023256,17.0491803 13.3023256,16.6994536 C13.3023256,16.3497268 13.1395349,16.0218579 12.9069767,15.7814208 C12.6511628,15.5409836 12.3023256,15.4098361 11.9302326,15.4098361 C11.5581395,15.4098361 11.2093023,15.5628415 10.9534884,15.7814208 C10.6976744,16.0218579 10.5581395,16.3497268 10.5581395,16.6994536 C10.5581395,17.0491803 10.7209302,17.3770492 10.9534884,17.6174863 C11.1860465,17.8579235 11.5581395,17.989071 11.9302326,17.989071 Z M11.5348837,16.3497268 C11.627907,16.2622951 11.744186,16.2185792 11.9069767,16.2185792 C12.0465116,16.2185792 12.1860465,16.2622951 12.2790698,16.3497268 C12.372093,16.4371585 12.4186047,16.5464481 12.4186047,16.6994536 C12.4418605,16.8306011 12.372093,16.9617486 12.2790698,17.0491803 C12.1860465,17.136612 12.0697674,17.1803279 11.9069767,17.1803279 C11.7674419,17.1803279 11.627907,17.136612 11.5348837,17.0491803 C11.4418605,16.9617486 11.3953488,16.852459 11.3953488,16.6994536 C11.3953488,16.568306 11.4418605,16.4371585 11.5348837,16.3497268 Z" id="Shape" fill-rule="nonzero"></path>
                            <path d="M15.7209302,17.989071 C16.0930233,17.989071 16.4418605,17.8360656 16.6976744,17.6174863 C16.9534884,17.3770492 17.0930233,17.0491803 17.0930233,16.6994536 C17.0930233,16.3497268 16.9302326,16.0218579 16.6976744,15.7814208 C16.4651163,15.5409836 16.1162791,15.4098361 15.7209302,15.4098361 C15.3488372,15.4098361 15,15.5628415 14.744186,15.7814208 C14.4883721,16.0218579 14.3488372,16.3497268 14.3488372,16.6994536 C14.3488372,17.0491803 14.5116279,17.3770492 14.744186,17.6174863 C15,17.8579235 15.3488372,17.989071 15.7209302,17.989071 Z M15.3488372,16.3497268 C15.4418605,16.2622951 15.5581395,16.2185792 15.7209302,16.2185792 C15.8604651,16.2185792 16,16.2622951 16.0930233,16.3497268 C16.1860465,16.4371585 16.2325581,16.5464481 16.2325581,16.6994536 C16.2325581,16.8306011 16.1860465,16.9617486 16.0930233,17.0491803 C16,17.136612 15.8837209,17.1803279 15.7209302,17.1803279 C15.5813953,17.1803279 15.4418605,17.136612 15.3488372,17.0491803 C15.255814,16.9617486 15.2093023,16.852459 15.2093023,16.6994536 C15.2093023,16.568306 15.255814,16.4371585 15.3488372,16.3497268 Z" id="Shape" fill-rule="nonzero"></path>
                        </g>
                    </g>
                </g>
            </g>
        </g>
    </g>
</svg>