<?xml version="1.0" encoding="utf-8"?>
<!-- Generator: Adobe Illustrator 21.1.0, SVG Export Plug-In . SVG Version: 6.00 Build 0)  -->
<svg version="1.1" id="Слой_1" xmlns="http://www.w3.org/2000/svg" xmlns:xlink="http://www.w3.org/1999/xlink" x="0px" y="0px"
	 viewBox="0 0 48 48" enable-background="new 0 0 48 48" xml:space="preserve">
<title>cancellation</title>
<desc>Created with Sketch.</desc>
<g id="Page-1">
	<g id="FAQ-" transform="translate(-168.000000, -817.000000)">
		<g id="Group-6" transform="translate(149.000000, 616.000000)">
			<g id="Cancellation" transform="translate(10.000000, 192.000000)">
				<g id="cancellation">
					<g id="Icon_x2F_faq_x2F_cancellation">
						<g id="error" transform="translate(9.000000, 9.000000)">
							<path id="Shape" fill="#5EABDD" d="M24,9C15.7,9,9,15.7,9,24s6.7,15,15,15s15-6.7,15-15S32.3,9,24,9z M24,37.8
								c-7.6,0-13.8-6.2-13.8-13.8S16.4,10.2,24,10.2S37.8,16.4,37.8,24S31.6,37.8,24,37.8z"/>
							<path id="Shape_1_" fill="#5EABDD" d="M29.6,18.4c-0.2-0.2-0.6-0.2-0.8,0L24,23.2l-4.8-4.8c-0.2-0.2-0.6-0.2-0.8,0
								c-0.2,0.2-0.2,0.6,0,0.8l4.8,4.8l-4.8,4.8c-0.2,0.2-0.2,0.6,0,0.8c0.1,0.1,0.3,0.2,0.4,0.2c0.1,0,0.3-0.1,0.4-0.2l4.8-4.8
								l4.8,4.8c0.1,0.1,0.3,0.2,0.4,0.2c0.1,0,0.3-0.1,0.4-0.2c0.2-0.2,0.2-0.6,0-0.8L24.8,24l4.8-4.8C29.8,19,29.8,18.6,29.6,18.4
								z"/>
						</g>
					</g>
				</g>
			</g>
		</g>
	</g>
</g>
</svg>
