<?xml version="1.0" encoding="utf-8"?>
<!-- Generator: Adobe Illustrator 21.1.0, SVG Export Plug-In . SVG Version: 6.00 Build 0)  -->
<svg version="1.1" id="Слой_1" xmlns="http://www.w3.org/2000/svg" xmlns:xlink="http://www.w3.org/1999/xlink" x="0px" y="0px"
	 viewBox="0 0 48 48" enable-background="new 0 0 48 48" xml:space="preserve">
<title>card</title>
<desc>Created with Sketch.</desc>
<g id="Page-1">
	<g id="FAQ-" transform="translate(-166.000000, -1252.000000)">
		<g id="Group-6" transform="translate(149.000000, 616.000000)">
			<g id="Credit-cards" transform="translate(10.000000, 626.000000)">
				<g id="Icon_x2F_faq_x2F_card">
					<g id="credit-card-_x28_2_x29_">
						<g transform="translate(7.000000, 10.000000)">
							<path id="Shape" fill="#5EABDD" d="M37.1,10.1H16.5c-2.4,0-4.3,2.1-4.3,4.6v0.9h-1.4c-2.4,0-4.3,2.1-4.3,4.6v13
								c0,2.6,1.9,4.6,4.3,4.6h20.6c2.4,0,4.3-2.1,4.3-4.6v-0.9h1.4c2.4,0,4.3-2.1,4.3-4.6v-13C41.4,12.2,39.5,10.1,37.1,10.1z
								 M7.6,21.9h27v2.7h-27V21.9z M31.4,36.8H10.8c-1.8,0-3.2-1.6-3.2-3.5v-7.6h27v7.6C34.6,35.3,33.1,36.8,31.4,36.8z M34.6,20.7
								H7.6v-0.3c0-1.9,1.4-3.5,3.2-3.5h20.6c1.8,0,3.2,1.6,3.2,3.5V20.7z M40.4,27.8L40.4,27.8c0,1.9-1.5,3.5-3.3,3.5h-1.4V20.4
								c0-2.6-1.9-4.6-4.3-4.6H13.3v-0.9c0-1.9,1.5-3.5,3.2-3.5h20.6c1.8,0,3.2,1.6,3.2,3.5V27.8z"/>
							<path id="Shape_1_" fill="#5EABDD" d="M15.1,28.6H9.9c-0.3,0-0.5,0.3-0.5,0.6s0.2,0.6,0.5,0.6h5.2c0.3,0,0.5-0.3,0.5-0.6
								S15.4,28.6,15.1,28.6z"/>
							<path id="Shape_2_" fill="#5EABDD" d="M20.3,28.6h-2.9c-0.3,0-0.5,0.3-0.5,0.6s0.2,0.6,0.5,0.6h2.9c0.3,0,0.5-0.3,0.5-0.6
								S20.6,28.6,20.3,28.6z"/>
							<path id="Shape_3_" fill="#5EABDD" d="M29.5,28.6c-1.4,0-2.4,1.2-2.4,2.6c0,1.5,1.1,2.6,2.4,2.6c1.4,0,2.4-1.2,2.4-2.6
								C31.9,29.7,30.8,28.6,29.5,28.6z M29.5,32.7c-0.7,0-1.4-0.7-1.4-1.5c0-0.8,0.6-1.5,1.4-1.5c0.7,0,1.4,0.7,1.4,1.5
								C30.8,32,30.2,32.7,29.5,32.7z"/>
						</g>
					</g>
				</g>
			</g>
		</g>
	</g>
</g>
</svg>
