<?xml version="1.0" encoding="utf-8"?>
<!-- Generator: Adobe Illustrator 21.1.0, SVG Export Plug-In . SVG Version: 6.00 Build 0)  -->
<svg version="1.1" id="Слой_1" xmlns="http://www.w3.org/2000/svg" xmlns:xlink="http://www.w3.org/1999/xlink" x="0px" y="0px"
	 viewBox="0 0 28 22" enable-background="new 0 0 28 22" xml:space="preserve">
<title>cards</title>
<desc>Created with Sketch.</desc>
<g id="Hotel-page" transform="translate(-1073.000000, -1821.000000)">
	<g id="Amenities" transform="translate(0.000000, 1580.000000)">
		<g id="Hotel-Policy" transform="translate(1027.000000, 89.000000)">
			<g id="Payment-method" transform="translate(20.000000, 152.000000)">
				<g id="cards" transform="translate(26.000000, 0.000000)">
					<g>
						<g id="credit-card">
							<path id="Shape" fill="#5EABDD" d="M15.5,15h8c0.3,0,0.5-0.2,0.5-0.5v-4.1c0-0.3-0.2-0.5-0.5-0.5h-8c-0.3,0-0.5,0.2-0.5,0.5
								v4.1C15,14.8,15.2,15,15.5,15z M16,10.9h7v3.2h-7V10.9z"/>
							<path id="Shape_1_" fill="#5EABDD" d="M27.6,4.8c-0.3-0.4-0.7-0.6-1.3-0.7L25.2,4V2.7V1.8c0-1-0.8-1.8-1.9-1.8H1.9
								C0.8,0,0,0.8,0,1.8v0.9v3.6v9.9c0,0.8,0.6,1.5,1.3,1.7c0,0.9,0.7,1.7,1.6,1.8L24.5,22c0,0,0.1,0,0.2,0c0.9,0,1.8-0.7,1.9-1.5
								L28,6.1C28,5.6,27.9,5.1,27.6,4.8z M0.9,3.1h23.3v1.2v1.5H0.9V3.1z M1.9,0.9h21.5c0.5,0,0.9,0.4,0.9,0.9v0.4H0.9V1.8
								C0.9,1.3,1.4,0.9,1.9,0.9z M0.9,16.2V6.7h23.3v9.4c0,0.5-0.4,0.9-0.9,0.9H1.9h0C1.4,17.1,0.9,16.7,0.9,16.2z M27.1,5.9
								l-1.4,14.4c0,0.5-0.5,0.9-1,0.8L3.1,18.8c-0.5,0-0.8-0.4-0.8-0.8h21c1,0,1.9-0.8,1.9-1.8V6.3V4.8l1.1,0.1
								c0.2,0,0.5,0.1,0.6,0.3C27,5.4,27.1,5.7,27.1,5.9z"/>
						</g>
					</g>
				</g>
			</g>
		</g>
	</g>
</g>
</svg>
