<?xml version="1.0" encoding="UTF-8"?>
<svg width="28px" height="28px" viewBox="0 0 28 28" version="1.1" xmlns="http://www.w3.org/2000/svg" xmlns:xlink="http://www.w3.org/1999/xlink">
    <!-- Generator: Sketch 48.2 (47327) - http://www.bohemiancoding.com/sketch -->
    <title>chandelier</title>
    <desc>Created with Sketch.</desc>
    <defs></defs>
    <g id="Main-page" stroke="none" stroke-width="1" fill="none" fill-rule="evenodd" transform="translate(-1055.000000, -4840.000000)">
        <g id="Hotel-themes" transform="translate(149.000000, 4058.000000)" fill="#5EABDD">
            <g id="Luxury" transform="translate(878.000000, 613.000000)">
                <g id="Group-5" transform="translate(25.000000, 166.000000)">
                    <g id="chandelier" transform="translate(3.000000, 3.000000)">
                        <g id="Shape">
                            <path d="M27.7547984,13.2057388 C27.8342469,13.1258324 27.8832181,13.0184717 27.8832181,12.9000858 C27.8832181,12.6534893 27.6722387,12.453614 27.4119424,12.453614 L27.3009218,12.453614 C26.9557037,11.8927407 27.0306008,11.0280156 27.3708066,10.7862768 C27.5330453,10.6709474 27.5993004,10.4702534 27.5351193,10.2878986 C27.4709383,10.1055439 27.2908971,9.98262768 27.0880412,9.98262768 L22.5722058,9.98262768 C22.3692922,9.98262768 22.1893086,10.1055439 22.1251276,10.2879532 C22.0609465,10.470308 22.1272016,10.6710019 22.2894979,10.7862768 C22.6297037,11.0280156 22.7046584,11.8926862 22.3594403,12.453614 L22.2484198,12.453614 C21.9881811,12.453614 21.777144,12.6534347 21.777144,12.9000858 C21.777144,13.0184717 21.8261728,13.1258324 21.9055062,13.2057388 C21.7546173,13.5582768 21.6761481,13.9364133 21.6761481,14.3261209 C21.6761481,15.4699727 22.3584033,16.4652008 23.3573004,16.9671267 C22.6805185,17.6895595 21.7118683,18.1081404 20.671893,18.1081404 C18.7627078,18.1081404 17.1978765,16.7067212 17.0852428,14.9086082 C17.1247078,14.7200858 17.1458519,14.5253957 17.1458519,14.3260663 C17.1458519,13.9364133 17.0673827,13.5582222 16.9165514,13.2056842 C16.996,13.1257232 17.0449136,13.0184172 17.0449136,12.9000312 C17.0449136,12.6534347 16.8339342,12.4535595 16.5736379,12.4535595 L16.4626173,12.4535595 C16.3006667,12.190425 16.23107,11.8606472 16.2380988,11.5594698 L16.9324527,11.5594698 C17.9108395,11.5594698 18.7068807,10.8053255 18.7068807,9.87837817 C18.7068807,9.00895906 18.0065926,8.29154776 17.1122634,8.20585575 C17.1425679,7.56453021 17.7011276,7.05125146 18.3855144,7.05125146 C19.0892016,7.05125146 19.6617037,7.59356725 19.6617037,8.2602729 L19.6617037,9.09159454 C19.6617037,9.79623392 20.2667572,10.3694971 21.0105432,10.3694971 C21.7542716,10.3694971 22.3593251,9.79623392 22.3593251,9.09159454 C22.3593251,8.84499805 22.1483457,8.64512281 21.8880494,8.64512281 C21.6277531,8.64512281 21.4167737,8.84494347 21.4167737,9.09159454 C21.4167737,9.30380507 21.2345432,9.47655361 21.0105432,9.47655361 C20.7865432,9.47655361 20.6042551,9.30385965 20.6042551,9.09159454 L20.6042551,8.2602729 C20.6042551,7.10124756 19.60893,6.15836257 18.385572,6.15836257 C17.1844527,6.15836257 16.2039342,7.06740741 16.1685597,8.19734113 L15.1032922,8.19734113 C15.1572757,8.04156725 15.187177,7.87089279 15.187177,7.69072125 C15.187177,7.31525926 15.0587572,6.98024172 14.8480082,6.73768421 C15.0587572,6.49507212 15.187177,6.16 15.187177,5.78459259 C15.187177,5.4091306 15.0587572,5.07416764 14.8480082,4.83150097 C15.0587572,4.58894347 15.187177,4.25392593 15.187177,3.87846394 C15.187177,3.63033918 15.1308313,3.4000078 15.0319671,3.20220663 C16.226749,2.79803509 17.084321,1.71553216 17.084321,0.446471735 C17.084321,0.199820663 16.8733416,0 16.6130453,0 L11.3797531,0 C11.1195144,0 10.9084774,0.199820663 10.9084774,0.446471735 C10.9084774,1.71553216 11.7660494,2.79798051 12.9608313,3.20220663 C12.8619671,3.4000078 12.8056214,3.63033918 12.8056214,3.87846394 C12.8056214,4.25392593 12.9340412,4.58894347 13.1447901,4.83150097 C12.9340412,5.07411306 12.8056214,5.40918519 12.8056214,5.78459259 C12.8056214,6.16005458 12.9340412,6.49507212 13.1447901,6.73768421 C12.9340412,6.98024172 12.8056214,7.31525926 12.8056214,7.69072125 C12.8056214,7.87083821 12.835465,8.04156725 12.8895062,8.19734113 L11.8242387,8.19734113 C11.7888642,7.06746199 10.8084033,6.15836257 9.60722634,6.15836257 C8.3838107,6.15836257 7.38860082,7.10130214 7.38860082,8.2602729 L7.38860082,9.09159454 C7.38860082,9.30380507 7.20631276,9.47655361 6.98231276,9.47655361 C6.75831276,9.47655361 6.5760823,9.30385965 6.5760823,9.09159454 C6.5760823,8.84499805 6.36510288,8.64512281 6.10480658,8.64512281 C5.8445679,8.64512281 5.63353086,8.84494347 5.63353086,9.09159454 C5.63353086,9.79623392 6.23858436,10.3694971 6.98231276,10.3694971 C7.72609877,10.3694971 8.33115226,9.79623392 8.33115226,9.09159454 L8.33115226,8.2602729 C8.33115226,7.59362183 8.90365432,7.05125146 9.60728395,7.05125146 C10.2916132,7.05125146 10.8502305,7.56453021 10.8805926,8.20585575 C9.98632099,8.29149318 9.28597531,9.00890448 9.28597531,9.87837817 C9.28597531,10.805271 10.0819588,11.5594698 11.0604033,11.5594698 L11.7458272,11.5594698 C11.752856,11.8607018 11.6832593,12.1904795 11.5213086,12.4535595 L11.4102305,12.4535595 C11.1499918,12.4535595 10.9389547,12.6533801 10.9389547,12.9000312 C10.9389547,13.0184172 10.9879835,13.1258324 11.0673745,13.2057934 C10.9166008,13.5582768 10.8380741,13.9363587 10.8380741,14.3261209 C10.8380741,14.5255049 10.8591605,14.7201404 10.8986831,14.9086628 C10.786107,16.7067758 9.22121811,18.1081949 7.31203292,18.1081949 C6.27211523,18.1081949 5.30346502,17.689614 4.62662551,16.9671813 C5.62558025,16.4652008 6.30783539,15.4699727 6.30783539,14.3261754 C6.30783539,13.9365224 6.22936626,13.5583314 6.07847737,13.2057934 C6.15786831,13.1258324 6.20683951,13.0185263 6.20683951,12.9001404 C6.20683951,12.6535439 5.99586008,12.4536686 5.73556379,12.4536686 L5.62454321,12.4536686 C5.2793251,11.8927953 5.35427984,11.0280702 5.6944856,10.7863314 C5.85678189,10.6710019 5.92303704,10.470308 5.85885597,10.2880078 C5.7946749,10.105653 5.61463374,9.98268226 5.41177778,9.98268226 L0.896115226,9.98268226 C0.693259259,9.98268226 0.513218107,10.1055984 0.449037037,10.2879532 C0.384855967,10.470308 0.451111111,10.6710565 0.613349794,10.7863314 C0.953613169,11.0280702 1.02845267,11.8927953 0.683234568,12.4536686 L0.572213992,12.4536686 C0.311975309,12.4536686 0.100938272,12.6534893 0.100938272,12.9001404 C0.100938272,13.0185263 0.149967078,13.1259415 0.229300412,13.2057934 C0.0784691358,13.5583314 0,13.9364133 0,14.3261754 C0,15.9737544 1.4148642,17.3140429 3.1539177,17.3140429 C3.33159671,17.3140429 3.50564609,17.2993606 3.67537449,17.2725068 C4.29333333,18.0585809 5.16237037,18.6109942 6.1424856,18.8570448 C5.99562963,19.0499883 5.85683951,19.2807018 5.72813169,19.5500585 C5.41696296,20.201154 5.20794239,20.9867914 5.20794239,21.5048733 C5.20794239,22.2252865 5.61353909,22.8576608 6.21968724,23.2077973 C6.04402469,23.4183158 5.87919342,23.6813411 5.72813169,23.9974191 C5.41696296,24.6485146 5.20794239,25.4340429 5.20794239,25.9521793 C5.20794239,27.0513294 6.15187654,27.9454737 7.31209053,27.9454737 C8.47230453,27.9454737 9.41623868,27.0512749 9.41623868,25.9521793 C9.41623868,25.4340429 9.20716049,24.6485146 8.89604938,23.9974191 C8.74498765,23.6813411 8.58015638,23.4182612 8.40449383,23.2077973 C9.01064198,22.8576062 9.41623868,22.225232 9.41623868,21.5048733 C9.41623868,20.9867368 9.20716049,20.201154 8.89604938,19.5500585 C8.76722634,19.2805926 8.62843621,19.0497154 8.48146502,18.8567719 C9.89915226,18.501232 11.0446749,17.5144094 11.5572593,16.2232982 C12.0414403,16.780078 12.7340082,17.1684756 13.5207737,17.2806394 L13.5207737,18.2916413 C13.1297531,18.492499 12.77307,18.9174113 12.470716,19.5500585 C12.1595473,20.201154 11.9505267,20.9867914 11.9505267,21.5048733 C11.9505267,22.2252865 12.3561235,22.8576608 12.9622716,23.2077973 C12.7866667,23.4183158 12.6217778,23.6813411 12.470716,23.9974191 C12.1595473,24.6485146 11.9505267,25.4340429 11.9505267,25.9521793 C11.9505267,27.0513294 12.8944609,27.9454737 14.0546749,27.9454737 C15.2148889,27.9454737 16.1587654,27.0513294 16.1587654,25.9521793 C16.1587654,25.4340429 15.9496872,24.6485146 15.6385761,23.9974191 C15.4875144,23.6813411 15.3226831,23.4182612 15.1470782,23.2077973 C15.7531687,22.8576062 16.1587654,22.225232 16.1587654,21.5048733 C16.1587654,20.9867368 15.9496872,20.2012086 15.6385761,19.5500585 C15.3043045,18.8504951 14.9034897,18.4054425 14.4632675,18.236078 L14.4632675,17.2805848 C15.2500329,17.1684211 15.9425432,16.780078 16.4267819,16.2232437 C16.9520412,17.5464483 18.1421564,18.5504639 19.6087572,18.8823704 C19.4688724,19.0701832 19.3364198,19.2922729 19.2132428,19.5500585 C18.9020741,20.201154 18.6930535,20.9867914 18.6930535,21.5048733 C18.6930535,22.2252865 19.0986502,22.8576062 19.7047984,23.2077973 C19.5291934,23.4183158 19.3643045,23.6813411 19.2132428,23.9974191 C18.9020741,24.6485146 18.6930535,25.4340429 18.6930535,25.9521793 C18.6930535,27.0513294 19.6369877,27.9454737 20.7972016,27.9454737 C21.9574156,27.9454737 22.9013498,27.0513294 22.9013498,25.9521793 C22.9013498,25.4340429 22.6922716,24.6485146 22.3811605,23.9974191 C22.2300988,23.6813411 22.0652675,23.4182612 21.8896049,23.2077973 C22.4957531,22.8576062 22.9013498,22.225232 22.9013498,21.5048733 C22.9013498,20.9867368 22.6922716,20.201154 22.3811605,19.5500585 C22.2465185,19.2683119 22.1010453,19.027883 21.9465844,18.829809 C22.8837778,18.5714776 23.7127737,18.0303626 24.3085514,17.2725068 C24.4783374,17.2993606 24.6523868,17.3140429 24.8300658,17.3140429 C26.569177,17.3140429 27.9839835,15.9736452 27.9839835,14.3261754 C27.9840988,13.9364133 27.905572,13.5582768 27.7547984,13.2057388 Z M1.73928395,10.8755712 L4.56883951,10.8755712 C4.41115226,11.3665809 4.43327572,11.9504327 4.6042716,12.453614 L1.70379424,12.453614 C1.87479012,11.9504327 1.89702881,11.3665809 1.73928395,10.8755712 Z M3.15403292,16.4210994 C1.93465021,16.4210994 0.942609053,15.481271 0.942609053,14.3261209 C0.942609053,13.9797505 1.03093004,13.646425 1.19921811,13.3465029 L5.10879012,13.3465029 C5.27707819,13.6464795 5.36545679,13.9797505 5.36545679,14.3261209 C5.3655144,15.481271 4.37341564,16.4210994 3.15403292,16.4210994 Z M8.47380247,25.9521793 C8.47380247,26.5589006 7.95269136,27.0525302 7.31214815,27.0525302 C6.67160494,27.0525302 6.15049383,26.558846 6.15049383,25.9521793 C6.15049383,25.6174893 6.30034568,24.9650292 6.58679835,24.3656764 C6.89099588,23.729154 7.18718519,23.4981131 7.31209053,23.4981131 C7.43699588,23.4981131 7.73318519,23.729154 8.03738272,24.3656764 C8.323893,24.9650292 8.47380247,25.6174893 8.47380247,25.9521793 Z M7.31220576,22.6051696 C6.67166255,22.6051696 6.15055144,22.11154 6.15055144,21.5048733 C6.15055144,21.1701287 6.30040329,20.5177232 6.58685597,19.9183158 C6.8910535,19.281848 7.1872428,19.050807 7.31214815,19.050807 C7.4370535,19.050807 7.7332428,19.281848 8.03744033,19.9183158 C8.323893,20.5177232 8.47374486,21.1701287 8.47374486,21.5048733 C8.47380247,22.11154 7.95269136,22.6051696 7.31220576,22.6051696 Z M11.903284,0.892998051 L16.0898025,0.892998051 C15.8743868,1.79958674 15.0176214,2.47911891 13.9965432,2.47911891 C12.975465,2.47911891 12.118642,1.79958674 11.903284,0.892998051 Z M13.9965432,6.24323587 C13.9090288,6.24323587 13.7483457,6.06912281 13.7483457,5.78464717 C13.7483457,5.50017154 13.9090864,5.32605848 13.9965432,5.32605848 C14.0840576,5.32605848 14.2447407,5.50017154 14.2447407,5.78464717 C14.2447407,6.06912281 14.0840576,6.24323587 13.9965432,6.24323587 Z M14.2447407,7.69072125 C14.2447407,7.97519688 14.084,8.14936452 13.9965432,8.14936452 C13.9090288,8.14936452 13.7483457,7.97519688 13.7483457,7.69072125 C13.7483457,7.40624561 13.9090864,7.23213255 13.9965432,7.23213255 C14.0840576,7.23213255 14.2447407,7.40624561 14.2447407,7.69072125 Z M13.9965432,4.33710721 C13.9090288,4.33710721 13.7483457,4.16299415 13.7483457,3.87851852 C13.7483457,3.59404288 13.9090864,3.41992982 13.9965432,3.41992982 C14.0840576,3.41992982 14.2447407,3.59404288 14.2447407,3.87851852 C14.2447407,4.16304873 14.0840576,4.33710721 13.9965432,4.33710721 Z M15.2163292,25.9521793 C15.2163292,26.5589006 14.6952181,27.0525302 14.0547325,27.0525302 C13.4141893,27.0525302 12.8930782,26.558846 12.8930782,25.9521793 C12.8930782,25.6174893 13.04293,24.9650838 13.3293827,24.3656764 C13.6335802,23.729154 13.9298272,23.4981131 14.0547325,23.4981131 C14.1796379,23.4981131 14.4758272,23.729154 14.7799671,24.3656764 C15.0664198,24.9650292 15.2163292,25.6174893 15.2163292,25.9521793 Z M14.7800247,19.9183158 C15.0664774,20.5177232 15.2163292,21.1701287 15.2163292,21.5048733 C15.2163292,22.1115945 14.6952181,22.6051696 14.0547325,22.6051696 C13.4141893,22.6051696 12.8930782,22.11154 12.8930782,21.5048733 C12.8930782,21.1701287 13.04293,20.5177232 13.3293827,19.9183158 C13.6335802,19.281848 13.9298272,19.050807 14.0547325,19.050807 C14.1796379,19.0507524 14.4758272,19.2817934 14.7800247,19.9183158 Z M13.992107,16.4210994 C12.7727243,16.4210994 11.7806831,15.481271 11.7806831,14.3261209 C11.7806831,13.9797505 11.8690041,13.646425 12.0372922,13.3465029 L15.9468066,13.3465029 C16.1150947,13.646425 16.2034156,13.9796959 16.2034156,14.3261209 C16.2035309,15.481271 15.2114897,16.4210994 13.992107,16.4210994 Z M12.577358,10.8755712 L15.4067984,10.8755712 C15.2491111,11.3665809 15.2712922,11.9504327 15.4422305,12.453614 L12.5417531,12.453614 C12.7128066,11.9504327 12.7350453,11.3665809 12.577358,10.8755712 Z M11.7342469,9.98268226 C11.5313909,9.98268226 11.3513498,10.1055984 11.2871687,10.2879532 C11.2415967,10.4174737 11.2629136,10.5557817 11.3366008,10.6666355 L11.0605185,10.6666355 C10.6018025,10.6666355 10.228642,10.313115 10.228642,9.87848733 C10.228642,9.44385965 10.6018025,9.09033918 11.0605185,9.09033918 L16.9326831,9.09033918 C17.3913992,9.09033918 17.7645597,9.44385965 17.7645597,9.87848733 C17.7645597,10.313115 17.3913992,10.6666355 16.9326831,10.6666355 L16.6477284,10.6666355 C16.7214156,10.5557817 16.7427325,10.4175283 16.6971605,10.2880624 C16.6329794,10.1057076 16.4529383,9.98273684 16.2500823,9.98273684 L11.7342469,9.98273684 L11.7342469,9.98268226 Z M21.9589136,25.9521793 C21.9589136,26.5589006 21.4378025,27.0525302 20.7972593,27.0525302 C20.156716,27.0525302 19.6356049,26.558846 19.6356049,25.9521793 C19.6356049,25.6174347 19.7854568,24.9650292 20.0719095,24.3656764 C20.376107,23.729154 20.6722963,23.4981131 20.7972016,23.4981131 C20.922107,23.4981131 21.2182963,23.729154 21.5224938,24.3656764 C21.8090041,24.9650292 21.9589136,25.6174893 21.9589136,25.9521793 Z M21.9589136,21.5048733 C21.9589136,22.1115945 21.4378025,22.6051696 20.7972593,22.6051696 C20.156716,22.6051696 19.6356049,22.11154 19.6356049,21.5048733 C19.6356049,21.1701287 19.7854568,20.5177232 20.0719095,19.9183158 C20.3760494,19.281848 20.6722963,19.050807 20.7972016,19.050807 C20.922107,19.050807 21.2182963,19.281848 21.5224938,19.9183158 C21.8090041,20.5176686 21.9589136,21.1701287 21.9589136,21.5048733 Z M23.4154321,10.8755712 L26.24493,10.8755712 C26.0872428,11.3665809 26.1094815,11.9504327 26.2804198,12.453614 L23.3799424,12.453614 C23.5509383,11.9503782 23.573177,11.3665263 23.4154321,10.8755712 Z M24.8301811,16.4210994 C23.6107984,16.4210994 22.6187572,15.481271 22.6187572,14.3261209 C22.6187572,13.9798051 22.7071934,13.6464795 22.8754239,13.3465029 L26.7849383,13.3465029 C26.9532263,13.646425 27.0415473,13.9796959 27.0415473,14.3261209 C27.0415473,15.481271 26.0495062,16.4210994 24.8301811,16.4210994 Z" fill-rule="nonzero"></path>
                        </g>
                    </g>
                </g>
            </g>
        </g>
    </g>
</svg>