<?xml version="1.0" encoding="utf-8"?>
<!-- Generator: Adobe Illustrator 21.1.0, SVG Export Plug-In . SVG Version: 6.00 Build 0)  -->
<svg version="1.1" id="Слой_1" xmlns="http://www.w3.org/2000/svg" xmlns:xlink="http://www.w3.org/1999/xlink" x="0px" y="0px"
	 viewBox="0 0 21 19" enable-background="new 0 0 21 19" xml:space="preserve">
<title>chat</title>
<desc>Created with Sketch.</desc>
<g id="Support" transform="translate(-994.000000, -157.000000)">
	<g id="chat" transform="translate(974.000000, 47.000000)">
		<g transform="translate(20.000000, 110.000000)">
			<g id="Shape">
				<path fill="#5EABDD" d="M18.9,0.2L7,0.2c-1.1,0-2.1,0.9-2.1,2v1.7l-2.8,0C0.9,3.9,0,4.8,0,5.9v7.2c0,1.1,0.9,2,2.1,2h2.1v3.4
					c0,0.1,0.1,0.3,0.2,0.3c0,0,0.1,0,0.1,0c0.1,0,0.2,0,0.3-0.1l3.4-3.6l5.8,0c1.1,0,2.1-0.9,2.1-2v0l1.8,2
					c0.1,0.1,0.2,0.1,0.3,0.1c0,0,0.1,0,0.1,0c0.1-0.1,0.2-0.2,0.2-0.3v-3.4h0.4c1.1,0,2.1-0.9,2.1-2V2.2C21,1.1,20.1,0.2,18.9,0.2z
					 M15.4,13.1c0,0.7-0.6,1.3-1.4,1.3l-6,0c-0.1,0-0.2,0-0.3,0.1l-2.9,3.1v-2.9c0-0.2-0.2-0.3-0.3-0.3H2.1c-0.8,0-1.4-0.6-1.4-1.3
					V5.9c0-0.7,0.6-1.3,1.4-1.3l3.2,0l0,0h0l8.7,0H14c0.8,0,1.4,0.6,1.4,1.3v6.3V13.1z M20.3,9.4c0,0.7-0.6,1.3-1.4,1.3h-0.7
					c-0.2,0-0.4,0.2-0.4,0.3v2.9L16.1,12V5.9v0c0-1.1-0.9-2-2.1-2h0l-8.4,0V2.2c0-0.7,0.6-1.3,1.4-1.3l11.9,0c0,0,0,0,0,0
					c0.8,0,1.4,0.6,1.4,1.3L20.3,9.4L20.3,9.4z"/>
				<path fill="#5EABDD" d="M4.2,8.3c-0.8,0-1.4,0.6-1.4,1.4c0,0.7,0.6,1.4,1.4,1.4s1.4-0.6,1.4-1.4C5.6,8.9,5,8.3,4.2,8.3z
					 M4.2,10.3c-0.4,0-0.7-0.3-0.7-0.7S3.8,9,4.2,9c0.4,0,0.7,0.3,0.7,0.7S4.6,10.3,4.2,10.3z"/>
				<path fill="#5EABDD" d="M8.1,8.3c-0.8,0-1.4,0.6-1.4,1.4c0,0.7,0.6,1.4,1.4,1.4s1.4-0.6,1.4-1.4C9.4,8.9,8.8,8.3,8.1,8.3z
					 M8.1,10.3c-0.4,0-0.7-0.3-0.7-0.7S7.7,9,8.1,9s0.7,0.3,0.7,0.7S8.4,10.3,8.1,10.3z"/>
				<path fill="#5EABDD" d="M11.9,8.3c-0.8,0-1.4,0.6-1.4,1.4c0,0.7,0.6,1.4,1.4,1.4c0.8,0,1.4-0.6,1.4-1.4
					C13.3,8.9,12.7,8.3,11.9,8.3z M11.9,10.3c-0.4,0-0.7-0.3-0.7-0.7S11.5,9,11.9,9c0.4,0,0.7,0.3,0.7,0.7S12.3,10.3,11.9,10.3z"/>
			</g>
		</g>
	</g>
</g>
</svg>
