<?xml version="1.0" encoding="UTF-8"?>
<svg width="50px" height="50px" viewBox="0 0 50 50" version="1.1" xmlns="http://www.w3.org/2000/svg" xmlns:xlink="http://www.w3.org/1999/xlink">
    <!-- Generator: Sketch 49 (51002) - http://www.bohemiancoding.com/sketch -->
    <title>checked</title>
    <desc>Created with Sketch.</desc>
    <defs></defs>
    <g id="About-us" stroke="none" stroke-width="1" fill="none" fill-rule="evenodd">
        <g transform="translate(-695.000000, -919.000000)" fill="#5EABDD" id="Benefits">
            <g transform="translate(249.000000, 857.000000)">
                <g id="10-years" transform="translate(385.000000, 62.000000)">
                    <g id="checked" transform="translate(61.000000, 0.000000)">
                        <g id="Shape">
                            <path d="M42.6776367,7.32226562 C37.9557617,2.60039063 31.677832,0 25,0 C18.322168,0 12.0442383,2.60039063 7.32246094,7.32226562 C2.60039063,12.0442383 0,18.3222656 0,25 C0,31.6777344 2.60039063,37.9557617 7.32246094,42.6777344 C12.0442383,47.3996094 18.322168,50 25,50 C31.677832,50 37.9557617,47.3996094 42.6776367,42.6777344 C47.3996094,37.9557617 50,31.6777344 50,25 C50,18.3222656 47.3996094,12.0442383 42.6776367,7.32226562 Z M25,48.0080078 C12.3133789,48.0080078 1.99199219,37.6867187 1.99199219,25 C1.99199219,12.3132812 12.3133789,1.99199219 25,1.99199219 C37.6866211,1.99199219 48.0080078,12.3133789 48.0080078,25 C48.0080078,37.6866211 37.6866211,48.0080078 25,48.0080078 Z" fill-rule="nonzero"></path>
                            <path d="M39.8044188,14.3554572 C38.4324343,12.9926254 36.1999774,12.9926254 34.8279928,14.3554572 L20.0233152,29.0612724 L15.1720811,24.2425975 C13.8000965,22.8797657 11.5676397,22.8797657 10.1956551,24.2425975 C8.82367052,25.6054294 8.82367052,27.8229931 10.1956551,29.1859229 L17.5351515,36.4763584 C18.1998513,37.136526 19.083489,37.5 20.0233152,37.5 C20.9631414,37.5 21.8467791,37.136428 22.5115775,36.4762605 L39.8044188,19.2987826 C41.1763048,17.9358528 41.1763048,15.7181911 39.8044188,14.3554572 Z M38.3825547,17.886306 L21.0898119,35.0637839 C20.8049265,35.3466709 20.4261965,35.5026553 20.0234138,35.5026553 C19.6206312,35.5026553 19.2419011,35.3467688 18.9571143,35.0637839 L11.6177164,27.7733484 C11.0296104,27.1891657 11.0296104,26.2388651 11.6176178,25.6547804 C11.9115723,25.3627869 12.2977941,25.2167902 12.684016,25.2167902 C13.0701392,25.2167902 13.4564596,25.3628848 13.7503155,25.6548783 L19.3123832,31.1798404 C19.7052096,31.5698504 20.341618,31.5698504 20.7343459,31.1798404 L36.2497584,15.767738 C36.8378645,15.1836532 37.7946458,15.1836532 38.3826532,15.767738 C38.9705621,16.3518227 38.9705621,17.3021233 38.3825547,17.886306 Z" fill-rule="nonzero"></path>
                            <path d="M45.0900485,29.1979043 C44.5615718,29.0614242 44.0250674,29.3848781 43.8907237,29.9201113 C41.7092099,38.6026752 34.0041283,44.6667238 25.1531113,44.6667238 C24.6083857,44.6667238 24.1666667,45.114402 24.1666667,45.6666952 C24.1666667,46.2189885 24.6083857,46.6666667 25.1531113,46.6666667 C34.9070071,46.6666667 43.3983234,39.9832613 45.8025828,30.413675 C45.9370232,29.8786378 45.6181382,29.3341883 45.0900485,29.1979043 Z" fill-rule="nonzero"></path>
                            <path d="M45.0080013,24.1666667 C44.5522438,24.1666667 44.1826692,24.5526084 44.1826692,25.0287385 C44.1826692,25.2752138 44.1775711,25.5236332 44.1674557,25.7674037 C44.1477106,26.2430267 44.5009388,26.6453663 44.9563725,26.6659059 C44.9685109,26.6664131 44.9805684,26.6666667 44.9926259,26.6666667 C45.432037,26.6666667 45.7974036,26.30473 45.8165823,25.8417858 C45.8277497,25.5734185 45.8333333,25.2998952 45.8333333,25.0287385 C45.8333333,24.5526084 45.4637587,24.1666667 45.0080013,24.1666667 Z" fill-rule="nonzero"></path>
                        </g>
                    </g>
                </g>
            </g>
        </g>
    </g>
</svg>