<?xml version="1.0" encoding="utf-8"?>
<!-- Generator: Adobe Illustrator 21.1.0, SVG Export Plug-In . SVG Version: 6.00 Build 0)  -->
<svg version="1.1" id="Слой_1" xmlns="http://www.w3.org/2000/svg" xmlns:xlink="http://www.w3.org/1999/xlink" x="0px" y="0px"
	 viewBox="0 0 22 20" enable-background="new 0 0 22 20" xml:space="preserve">
<title>children</title>
<desc>Created with Sketch.</desc>
<g id="Hotel-page" transform="translate(-835.000000, -646.000000)">
	<g id="First-screen" transform="translate(0.000000, 7.000000)">
		<g id="Form-with-dates" transform="translate(248.000000, 538.000000)">
			<g id="Children" transform="translate(587.000000, 101.000000)">
				<g id="children">
					<g id="smiling-baby">
						<ellipse id="Oval" fill="#5B6D7C" cx="6.4" cy="12.3" rx="1" ry="1"/>
						<ellipse id="Oval_1_" fill="#5B6D7C" cx="15.5" cy="12.3" rx="1" ry="1"/>
						<path id="Shape" fill="#5B6D7C" d="M21.9,11.9c0-1.3-0.9-2.3-2.1-2.6V9c0-4.9-4-9-8.9-9C6.1,0,2.1,4,2.1,9v0.4
							C0.9,9.6,0,10.6,0,11.9c0,1.3,0.9,2.4,2.1,2.6c0.2,2,1.1,3.4,2.7,4.3C6.2,19.6,8.2,20,11,20c2.7,0,4.7-0.4,6.2-1.2
							c1.6-0.9,2.5-2.4,2.7-4.3C21,14.3,21.9,13.2,21.9,11.9z M0.9,11.9c0-0.8,0.5-1.4,1.2-1.6v3.2C1.4,13.3,0.9,12.7,0.9,11.9z
							 M18.9,13.7c0,2-0.7,3.4-2.2,4.3c-1.3,0.7-3.2,1.1-5.7,1.1S6.5,18.7,5.3,18C3.8,17.1,3,15.8,3,13.7V9c0-3.6,2.4-6.7,5.7-7.7
							c2.5,0,3.8,1.9,3.8,3.2c0,1-0.8,1.8-1.8,1.8c-0.7,0-1.4-0.6-1.4-1.4c0-0.6,0.4-1,1-1c0.3,0,0.5-0.2,0.5-0.5S10.6,3,10.3,3
							c-1,0-1.9,0.9-1.9,1.9c0,1.3,1,2.3,2.3,2.3c1.5,0,2.7-1.2,2.7-2.7c0-1-0.5-2-1.3-2.7c-0.3-0.3-0.7-0.6-1.1-0.8
							c4.3,0.1,7.8,3.6,7.8,8V13.7z M19.8,13.5v-3.2c0.7,0.2,1.2,0.8,1.2,1.6S20.5,13.3,19.8,13.5z"/>
						<path id="Shape_1_" fill="#5B6D7C" d="M12.7,13.5c-1,1-2.5,1-3.5,0c-0.2-0.2-0.5-0.2-0.6,0c-0.2,0.2-0.2,0.5,0,0.6
							c0.7,0.7,1.5,1,2.4,1c0.9,0,1.7-0.3,2.4-1c0.2-0.2,0.2-0.5,0-0.6C13.2,13.4,12.9,13.4,12.7,13.5z"/>
					</g>
				</g>
			</g>
		</g>
	</g>
</g>
</svg>
