<?xml version="1.0" encoding="UTF-8"?>
<svg width="38px" height="38px" viewBox="0 0 38 38" version="1.1" xmlns="http://www.w3.org/2000/svg" xmlns:xlink="http://www.w3.org/1999/xlink">
    <!-- Generator: Sketch 48.2 (47327) - http://www.bohemiancoding.com/sketch -->
    <title>cinema</title>
    <desc>Created with Sketch.</desc>
    <defs></defs>
    <g id="Hotel-page" stroke="none" stroke-width="1" fill="none" fill-rule="evenodd" transform="translate(-945.000000, -3781.000000)">
        <g id="Location" transform="translate(0.000000, 3048.000000)" fill="#5EABDD">
            <g id="Local-attractions" transform="translate(74.000000, 632.000000)">
                <g id="Theaters" transform="translate(856.000000, 81.000000)">
                    <g id="Group-14" transform="translate(15.000000, 19.000000)">
                        <g id="cinema" transform="translate(0.000000, 1.000000)">
                            <g id="Shape">
                                <path d="M34.1035156,31.3203125 L31.4501953,31.3203125 C31.4501953,29.4787227 29.7022695,27.9804688 27.5537109,27.9804688 L23.5458984,27.9804688 C21.3973398,27.9804688 19.6494141,29.4787227 19.6494141,31.3203125 L18.3505859,31.3203125 C18.3505859,29.4787227 16.6026602,27.9804688 14.4541016,27.9804688 L10.4462891,27.9804688 C8.29773047,27.9804688 6.54980469,29.4787227 6.54980469,31.3203125 L3.89648438,31.3203125 C1.74792578,31.3203125 0,32.8185664 0,34.6601562 L0,37.4433594 C0,37.7507734 0.249226562,38 0.556640625,38 C0.864054687,38 1.11328125,37.7507734 1.11328125,37.4433594 L1.11328125,34.6601562 C1.11328125,33.4324297 2.36178906,32.4335938 3.89648438,32.4335938 L7.90429688,32.4335938 C9.43899219,32.4335938 10.6875,33.4324297 10.6875,34.6601562 L10.6875,37.4433594 C10.6875,37.7507734 10.9367266,38 11.2441406,38 C11.5515547,38 11.8007812,37.7507734 11.8007812,37.4433594 L11.8007812,34.6601562 C11.8007812,32.8185664 10.0528555,31.3203125 7.90429688,31.3203125 L7.66308594,31.3203125 C7.66308594,30.0925859 8.91159375,29.09375 10.4462891,29.09375 L14.4541016,29.09375 C15.9887969,29.09375 17.2373047,30.0925859 17.2373047,31.3203125 L16.9960938,31.3203125 C14.8475352,31.3203125 13.0996094,32.8185664 13.0996094,34.6601562 L13.0996094,37.4433594 C13.0996094,37.7507734 13.3488359,38 13.65625,38 C13.9636641,38 14.2128906,37.7507734 14.2128906,37.4433594 L14.2128906,34.6601562 C14.2128906,33.4324297 15.4613984,32.4335938 16.9960938,32.4335938 L21.0039062,32.4335938 C22.5386016,32.4335938 23.7871094,33.4324297 23.7871094,34.6601562 L23.7871094,37.4433594 C23.7871094,37.7507734 24.0363359,38 24.34375,38 C24.6511641,38 24.9003906,37.7507734 24.9003906,37.4433594 L24.9003906,34.6601562 C24.9003906,32.8185664 23.1524648,31.3203125 21.0039062,31.3203125 L20.7626953,31.3203125 C20.7626953,30.0925859 22.0112031,29.09375 23.5458984,29.09375 L27.5537109,29.09375 C29.0884062,29.09375 30.3369141,30.0925859 30.3369141,31.3203125 L30.0957031,31.3203125 C27.9471445,31.3203125 26.1992188,32.8185664 26.1992188,34.6601562 L26.1992188,37.4433594 C26.1992188,37.7507734 26.4484453,38 26.7558594,38 C27.0632734,38 27.3125,37.7507734 27.3125,37.4433594 L27.3125,34.6601562 C27.3125,33.4324297 28.5610078,32.4335938 30.0957031,32.4335938 L34.1035156,32.4335938 C35.6382109,32.4335938 36.8867188,33.4324297 36.8867188,34.6601562 L36.8867188,37.4433594 C36.8867188,37.7507734 37.1359453,38 37.4433594,38 C37.7507734,38 38,37.7507734 38,37.4433594 L38,34.6601562 C38,32.8185664 36.2520742,31.3203125 34.1035156,31.3203125 Z" fill-rule="nonzero"></path>
                                <path d="M37.4433594,0 L0.556640625,0 C0.249226562,0 0,0.249226563 0,0.556640625 L0,26.3105469 C0,26.6179609 0.249226562,26.8671875 0.556640625,26.8671875 C1.56015234,26.8671875 2.10083594,26.506707 2.5353125,26.2170313 C2.92347656,25.9583047 3.23007422,25.7539062 3.89648438,25.7539062 C4.56289453,25.7539062 4.86949219,25.9583047 5.25765625,26.2170313 C5.69213281,26.506707 6.23281641,26.8671875 7.23632812,26.8671875 C7.54374219,26.8671875 7.79296875,26.6179609 7.79296875,26.3105469 L7.79296875,24.640625 L30.2070312,24.640625 L30.2070312,26.3105469 C30.2070312,26.6179609 30.4562578,26.8671875 30.7636719,26.8671875 C31.7671836,26.8671875 32.3078672,26.506707 32.7423438,26.2170313 C33.1305078,25.9583047 33.4371055,25.7539062 34.1035156,25.7539062 C34.7699258,25.7539062 35.0765234,25.9583047 35.4646875,26.2170313 C35.8991641,26.506707 36.4398477,26.8671875 37.4433594,26.8671875 C37.7507734,26.8671875 38,26.6179609 38,26.3105469 L38,0.556640625 C38,0.249226563 37.7507734,0 37.4433594,0 Z M26.2151016,1.11328125 L36.8602227,1.11328125 C36.5778945,4.22950391 33.9521836,6.6796875 30.7635977,6.6796875 C28.6047969,6.6796875 26.6190742,5.54770312 25.5134375,3.70752344 C25.8995977,2.91264062 26.1445195,2.03700781 26.2151016,1.11328125 Z M25.0965508,1.11328125 C24.8142969,4.22950391 22.1885117,6.6796875 19,6.6796875 C15.8114883,6.6796875 13.1857031,4.22950391 12.903375,1.11328125 L25.0965508,1.11328125 Z M11.7848242,1.11328125 C11.8554805,2.03700781 12.1004023,2.91264062 12.4864883,3.70752344 C11.3808516,5.54770312 9.39512891,6.6796875 7.23632812,6.6796875 C4.04781641,6.6796875 1.42203125,4.22950391 1.13970312,1.11328125 L11.7848242,1.11328125 Z M36.8867188,25.6928984 C36.5663906,25.6135586 36.3426211,25.4643789 36.0821875,25.2907813 C35.6477109,25.0011055 35.1070273,24.640625 34.1035156,24.640625 C33.1000039,24.640625 32.5593203,25.0011055 32.1248437,25.2907813 C31.8644102,25.4643789 31.6407148,25.6135586 31.3203125,25.6928984 L31.3203125,9.46289063 C31.3203125,9.15547656 31.0710859,8.90625 30.7636719,8.90625 C30.4562578,8.90625 30.2070312,9.15547656 30.2070312,9.46289063 L30.2070312,23.5273438 L7.79296875,23.5273438 L7.79296875,9.46289063 C7.79296875,9.15547656 7.54374219,8.90625 7.23632812,8.90625 C6.92891406,8.90625 6.6796875,9.15547656 6.6796875,9.46289063 L6.6796875,25.6928984 C6.35935938,25.6135586 6.13558984,25.4643789 5.87515625,25.2907813 C5.44067969,25.0011055 4.89999609,24.640625 3.89648438,24.640625 C2.89297266,24.640625 2.35228906,25.0011055 1.9178125,25.2907813 C1.65737891,25.4643789 1.43368359,25.6135586 1.11328125,25.6928984 L1.11328125,4.40881641 C2.39607812,6.44048047 4.66108594,7.79296875 7.23632812,7.79296875 C9.59062109,7.79296875 11.7706484,6.65385938 13.1198711,4.76944531 C14.4344336,6.59901172 16.5803203,7.79296875 19,7.79296875 C21.4196797,7.79296875 23.5655664,6.59901172 24.8801289,4.76944531 C26.2293516,6.65385938 28.4093789,7.79296875 30.7636719,7.79296875 C33.3389141,7.79296875 35.6039219,6.44048047 36.8867188,4.40881641 L36.8867188,25.6928984 Z" fill-rule="nonzero"></path>
                            </g>
                        </g>
                    </g>
                </g>
            </g>
        </g>
    </g>
</svg>