<?xml version="1.0" encoding="UTF-8"?>
<svg width="28px" height="28px" viewBox="0 0 28 28" version="1.1" xmlns="http://www.w3.org/2000/svg" xmlns:xlink="http://www.w3.org/1999/xlink">
    <!-- Generator: Sketch 48.2 (47327) - http://www.bohemiancoding.com/sketch -->
    <title>cities</title>
    <desc>Created with Sketch.</desc>
    <defs></defs>
    <g id="Main-page" stroke="none" stroke-width="1" fill="none" fill-rule="evenodd" transform="translate(-1084.000000, -3257.000000)">
        <g id="Map-block" transform="translate(149.000000, 3185.000000)" fill="#5EABDD">
            <g id="Favored-cities" transform="translate(878.000000, 52.000000)">
                <g id="Group-10" transform="translate(57.000000, 20.000000)">
                    <g id="cities">
                        <g id="city-(1)">
                            <path d="M23.8994894,4.10051064 C21.255217,1.4562383 17.7395489,0 14,0 C10.2604511,0 6.74478298,1.4562383 4.10051064,4.10051064 C1.4562383,6.7447234 0,10.2604511 0,14 C0,17.7395489 1.4562383,21.2552766 4.10051064,23.8994894 C6.74478298,26.5437617 10.2604511,28 14,28 C17.7395489,28 21.255217,26.5437617 23.8994894,23.8994894 C26.5437617,21.2552766 28,17.7395489 28,14 C28,10.2604511 26.5437617,6.7447234 23.8994894,4.10051064 Z M14,27.106383 C6.77308085,27.106383 0.893617021,21.2269191 0.893617021,14 C0.893617021,6.77308085 6.77308085,0.893617021 14,0.893617021 C21.2269191,0.893617021 27.106383,6.77308085 27.106383,14 C27.106383,21.2269191 21.2269191,27.106383 14,27.106383 Z" id="Shape" fill-rule="nonzero"></path>
                            <circle id="Oval" fill-rule="nonzero" cx="14" cy="5.80851064" r="1"></circle>
                            <path d="M26.0674043,14.438766 C25.9829277,14.3488681 25.8650894,14.2978723 25.7417106,14.2978723 L24.190034,14.2978723 L24.190034,12.9574468 C24.190034,12.7106894 23.9900426,12.5106383 23.7432255,12.5106383 C23.4964085,12.5106383 23.296417,12.7106894 23.296417,12.9574468 L23.296417,14.2978723 L22.1914894,14.2978723 L22.1914894,11.1702128 C22.1914894,11.0161532 22.1121362,10.8729957 21.9814894,10.7913191 L17.4255319,7.9438383 L17.4255319,5.80851064 C17.4255319,5.56175319 17.2255404,5.36170213 16.9787234,5.36170213 L16.189183,5.36170213 C15.981566,4.3432766 15.078834,3.57446809 14,3.57446809 C12.921166,3.57446809 12.018434,4.3432766 11.810817,5.36170213 L11.0212766,5.36170213 C10.7744596,5.36170213 10.5744681,5.56175319 10.5744681,5.80851064 L10.5744681,7.74468085 L9.08510638,7.74468085 L9.08510638,6.40425532 C9.08510638,6.15749787 8.88511489,5.95744681 8.63829787,5.95744681 C8.39148085,5.95744681 8.19148936,6.15749787 8.19148936,6.40425532 L8.19148936,7.74468085 L6.25531915,7.74468085 C6.00850213,7.74468085 5.80851064,7.94473191 5.80851064,8.19148936 L5.80851064,14.2978128 L2.25828936,14.297217 C2.13491064,14.297217 2.01701277,14.3482128 1.93253617,14.4381106 C1.84811915,14.5280085 1.80457021,14.6488851 1.81225532,14.771966 C2.02213617,18.1183234 3.57959149,21.0859064 5.93403404,23.1599319 C5.95077447,23.1772681 5.96900426,23.1930553 5.98830638,23.2075319 C7.38169362,24.4205872 9.0498383,25.3221872 10.8810383,25.8072426 C10.8993277,25.8133191 10.9180936,25.8182043 10.9373957,25.8218979 C11.9179319,26.0765787 12.9442809,26.212766 14,26.212766 C15.0371319,26.212766 16.065983,26.0799745 17.0612936,25.8220766 C17.0817277,25.8182638 17.1016255,25.8130213 17.1209872,25.8064681 C18.1737277,25.5279574 19.1882213,25.1090894 20.1339064,24.5574298 C21.934366,23.5071915 23.4480936,22.0040681 24.5113787,20.2105787 C24.6372,19.9983149 24.5672,19.7242128 24.3549362,19.5983915 C24.1426723,19.4725106 23.8685106,19.5425702 23.7427489,19.754834 C23.3008255,20.5001702 22.7786553,21.183966 22.1914894,21.7981787 L22.1914894,15.1914894 L25.2558809,15.1914894 C25.1467404,16.2293362 24.8946213,17.2438894 24.5042894,18.213583 C24.4121277,18.4425277 24.5229362,18.7027489 24.7518809,18.7949106 C24.9809447,18.8871319 25.2411064,18.7761447 25.3332085,18.5472596 C25.8186213,17.3413532 26.1061277,16.0714043 26.1876255,14.7726809 C26.1953702,14.6495404 26.1518809,14.5287234 26.0674043,14.438766 Z M11.4680851,10.4255319 L16.5319149,10.4255319 L16.5319149,23.2340426 L11.4680851,23.2340426 L11.4680851,10.4255319 Z M11.4680851,6.25531915 L12.212766,6.25531915 C12.459583,6.25531915 12.6595745,6.05526809 12.6595745,5.80851064 C12.6595745,5.06937021 13.2609191,4.46808511 14,4.46808511 C14.7390809,4.46808511 15.3404255,5.06937021 15.3404255,5.80851064 C15.3404255,6.05526809 15.540417,6.25531915 15.787234,6.25531915 L16.5319149,6.25531915 L16.5319149,9.53191489 L11.4680851,9.53191489 L11.4680851,6.25531915 Z M2.74394043,15.1908936 L5.80851064,15.1914298 L5.80851064,18.3191489 C5.80851064,18.5659064 6.00850213,18.7659574 6.25531915,18.7659574 C6.50213617,18.7659574 6.70212766,18.5659064 6.70212766,18.3191489 L6.70212766,8.63829787 L10.5744681,8.63829787 L10.5744681,23.2340426 L10.4255319,23.2340426 C10.1787149,23.2340426 9.9787234,23.4340936 9.9787234,23.6808511 C9.9787234,23.9276085 10.1787149,24.1276596 10.4255319,24.1276596 L10.5744681,24.1276596 L10.5744681,24.7876255 C9.14134468,24.3308085 7.82862128,23.5950638 6.70212766,22.6431234 L6.70212766,20.106383 C6.70212766,19.8596255 6.50213617,19.6595745 6.25531915,19.6595745 C6.00850213,19.6595745 5.80851064,19.8596255 5.80851064,20.106383 L5.80851064,21.8017532 C4.13285957,20.044783 3.01226383,17.7487234 2.74394043,15.1908936 Z M11.4680851,25.0319404 L11.4680851,24.1276596 L16.5319149,24.1276596 L16.5319149,25.0275915 C15.7090723,25.2188851 14.8602553,25.3191489 14,25.3191489 C13.1309872,25.3191489 12.2834809,25.2194809 11.4680851,25.0319404 Z M17.4255319,24.7796426 L17.4255319,24.1276596 L17.5744681,24.1276596 C17.8212851,24.1276596 18.0212766,23.9276085 18.0212766,23.6808511 C18.0212766,23.4340936 17.8212851,23.2340426 17.5744681,23.2340426 L17.4255319,23.2340426 L17.4255319,8.99765106 L21.2978723,11.4178638 L21.2978723,22.6361532 C20.159583,23.5954809 18.8417957,24.3252085 17.4255319,24.7796426 Z" id="Shape" fill-rule="nonzero"></path>
                            <path d="M19.3617021,19.0638298 C19.1148851,19.0638298 18.9148936,19.2638809 18.9148936,19.5106383 L18.9148936,20.106383 C18.9148936,20.3531404 19.1148851,20.5531915 19.3617021,20.5531915 C19.6085191,20.5531915 19.8085106,20.3531404 19.8085106,20.106383 L19.8085106,19.5106383 C19.8085106,19.2638809 19.6085191,19.0638298 19.3617021,19.0638298 Z" id="Shape" fill-rule="nonzero"></path>
                            <path d="M19.3617021,16.6808511 C19.1148851,16.6808511 18.9148936,16.8809021 18.9148936,17.1276596 L18.9148936,17.7234043 C18.9148936,17.9701617 19.1148851,18.1702128 19.3617021,18.1702128 C19.6085191,18.1702128 19.8085106,17.9701617 19.8085106,17.7234043 L19.8085106,17.1276596 C19.8085106,16.8809021 19.6085191,16.6808511 19.3617021,16.6808511 Z" id="Shape" fill-rule="nonzero"></path>
                            <path d="M19.3617021,14.2978723 C19.1148851,14.2978723 18.9148936,14.4979234 18.9148936,14.7446809 L18.9148936,15.3404255 C18.9148936,15.587183 19.1148851,15.787234 19.3617021,15.787234 C19.6085191,15.787234 19.8085106,15.587183 19.8085106,15.3404255 L19.8085106,14.7446809 C19.8085106,14.4979234 19.6085191,14.2978723 19.3617021,14.2978723 Z" id="Shape" fill-rule="nonzero"></path>
                            <path d="M19.3617021,11.9148936 C19.1148851,11.9148936 18.9148936,12.1149447 18.9148936,12.3617021 L18.9148936,12.9574468 C18.9148936,13.2042043 19.1148851,13.4042553 19.3617021,13.4042553 C19.6085191,13.4042553 19.8085106,13.2042043 19.8085106,12.9574468 L19.8085106,12.3617021 C19.8085106,12.1149447 19.6085191,11.9148936 19.3617021,11.9148936 Z" id="Shape" fill-rule="nonzero"></path>
                            <path d="M8.63829787,20.5531915 C8.88511489,20.5531915 9.08510638,20.3531404 9.08510638,20.106383 L9.08510638,19.5106383 C9.08510638,19.2638809 8.88511489,19.0638298 8.63829787,19.0638298 C8.39148085,19.0638298 8.19148936,19.2638809 8.19148936,19.5106383 L8.19148936,20.106383 C8.19148936,20.3531404 8.39148085,20.5531915 8.63829787,20.5531915 Z" id="Shape" fill-rule="nonzero"></path>
                            <path d="M8.63829787,18.1702128 C8.88511489,18.1702128 9.08510638,17.9701617 9.08510638,17.7234043 L9.08510638,17.1276596 C9.08510638,16.8809021 8.88511489,16.6808511 8.63829787,16.6808511 C8.39148085,16.6808511 8.19148936,16.8809021 8.19148936,17.1276596 L8.19148936,17.7234043 C8.19148936,17.9701617 8.39148085,18.1702128 8.63829787,18.1702128 Z" id="Shape" fill-rule="nonzero"></path>
                            <path d="M8.63829787,15.787234 C8.88511489,15.787234 9.08510638,15.587183 9.08510638,15.3404255 L9.08510638,14.7446809 C9.08510638,14.4979234 8.88511489,14.2978723 8.63829787,14.2978723 C8.39148085,14.2978723 8.19148936,14.4979234 8.19148936,14.7446809 L8.19148936,15.3404255 C8.19148936,15.587183 8.39148085,15.787234 8.63829787,15.787234 Z" id="Shape" fill-rule="nonzero"></path>
                            <path d="M8.63829787,11.0212766 C8.88511489,11.0212766 9.08510638,10.8212255 9.08510638,10.5744681 L9.08510638,9.9787234 C9.08510638,9.73196596 8.88511489,9.53191489 8.63829787,9.53191489 C8.39148085,9.53191489 8.19148936,9.73196596 8.19148936,9.9787234 L8.19148936,10.5744681 C8.19148936,10.8212255 8.39148085,11.0212766 8.63829787,11.0212766 Z" id="Shape" fill-rule="nonzero"></path>
                            <path d="M8.63829787,13.4042553 C8.88511489,13.4042553 9.08510638,13.2042043 9.08510638,12.9574468 L9.08510638,12.3617021 C9.08510638,12.1149447 8.88511489,11.9148936 8.63829787,11.9148936 C8.39148085,11.9148936 8.19148936,12.1149447 8.19148936,12.3617021 L8.19148936,12.9574468 C8.19148936,13.2042043 8.39148085,13.4042553 8.63829787,13.4042553 Z" id="Shape" fill-rule="nonzero"></path>
                            <path d="M14,20.8510638 C13.753183,20.8510638 13.5531915,21.0511149 13.5531915,21.2978723 L13.5531915,21.893617 C13.5531915,22.1403745 13.753183,22.3404255 14,22.3404255 C14.246817,22.3404255 14.4468085,22.1403745 14.4468085,21.893617 L14.4468085,21.2978723 C14.4468085,21.0511149 14.246817,20.8510638 14,20.8510638 Z" id="Shape" fill-rule="nonzero"></path>
                            <path d="M14,18.4680851 C13.753183,18.4680851 13.5531915,18.6681362 13.5531915,18.9148936 L13.5531915,19.5106383 C13.5531915,19.7573957 13.753183,19.9574468 14,19.9574468 C14.246817,19.9574468 14.4468085,19.7573957 14.4468085,19.5106383 L14.4468085,18.9148936 C14.4468085,18.6681362 14.246817,18.4680851 14,18.4680851 Z" id="Shape" fill-rule="nonzero"></path>
                            <path d="M14,16.0851064 C13.753183,16.0851064 13.5531915,16.2851574 13.5531915,16.5319149 L13.5531915,17.1276596 C13.5531915,17.374417 13.753183,17.5744681 14,17.5744681 C14.246817,17.5744681 14.4468085,17.374417 14.4468085,17.1276596 L14.4468085,16.5319149 C14.4468085,16.2851574 14.246817,16.0851064 14,16.0851064 Z" id="Shape" fill-rule="nonzero"></path>
                            <path d="M14,13.7021277 C13.753183,13.7021277 13.5531915,13.9021787 13.5531915,14.1489362 L13.5531915,14.7446809 C13.5531915,14.9914383 13.753183,15.1914894 14,15.1914894 C14.246817,15.1914894 14.4468085,14.9914383 14.4468085,14.7446809 L14.4468085,14.1489362 C14.4468085,13.9021787 14.246817,13.7021277 14,13.7021277 Z" id="Shape" fill-rule="nonzero"></path>
                            <path d="M14,11.3191489 C13.753183,11.3191489 13.5531915,11.5192 13.5531915,11.7659574 L13.5531915,12.3617021 C13.5531915,12.6084596 13.753183,12.8085106 14,12.8085106 C14.246817,12.8085106 14.4468085,12.6084596 14.4468085,12.3617021 L14.4468085,11.7659574 C14.4468085,11.5192 14.246817,11.3191489 14,11.3191489 Z" id="Shape" fill-rule="nonzero"></path>
                            <path d="M12.8085106,8.63829787 L15.1914894,8.63829787 C15.4383064,8.63829787 15.6382979,8.43824681 15.6382979,8.19148936 C15.6382979,7.94473191 15.4383064,7.74468085 15.1914894,7.74468085 L12.8085106,7.74468085 C12.5616936,7.74468085 12.3617021,7.94473191 12.3617021,8.19148936 C12.3617021,8.43824681 12.5616936,8.63829787 12.8085106,8.63829787 Z" id="Shape" fill-rule="nonzero"></path>
                        </g>
                    </g>
                </g>
            </g>
        </g>
    </g>
</svg>