<?xml version="1.0" encoding="UTF-8"?>
<svg width="24px" height="23px" viewBox="0 0 24 23" version="1.1" xmlns="http://www.w3.org/2000/svg" xmlns:xlink="http://www.w3.org/1999/xlink">
    <!-- Generator: Sketch 48.2 (47327) - http://www.bohemiancoding.com/sketch -->
    <title>clover</title>
    <desc>Created with Sketch.</desc>
    <defs></defs>
    <g id="Main-page" stroke="none" stroke-width="1" fill="none" fill-rule="evenodd" transform="translate(-764.000000, -4563.000000)">
        <g id="Hotel-themes" transform="translate(149.000000, 4058.000000)" fill="#5EABDD" fill-rule="nonzero">
            <g id="Casino" transform="translate(585.000000, 333.000000)">
                <g id="Group-5" transform="translate(25.000000, 166.000000)">
                    <g id="clover" transform="translate(5.000000, 6.000000)">
                        <g id="Shape">
                            <path d="M18.562585,7.43434343 C17.984719,7.43434343 17.4151029,7.52578586 16.8721114,7.70309495 C17.2261058,6.9789899 17.4139779,6.1801697 17.4139779,5.36685253 C17.4139779,2.40761212 14.9851409,0 11.9998125,0 C9.01448415,0 6.58602209,2.40761212 6.58602209,5.36648081 C6.58602209,6.17979798 6.77426915,6.9789899 7.12826362,7.70272323 C6.58489711,7.52541414 6.01490602,7.43397172 5.43741504,7.43397172 C2.43933689,7.43397172 0,9.85199192 0,12.8238707 C0,15.7957495 2.43933689,18.2137697 5.43741504,18.2137697 C7.53813222,18.2137697 9.75097264,17.2807596 10.8740801,15.6738263 C10.8579553,17.497099 10.4255871,22.2565657 8.62524023,22.2565657 L8.62524023,23 L12.0001875,23 L15.3751348,23 L15.3751348,22.2565657 C13.5766629,22.2565657 13.1427946,17.4974707 13.1259199,15.674198 C14.2490274,17.2811313 16.4618678,18.2141414 18.562585,18.2141414 C21.5606631,18.2141414 24,15.7961212 24,12.8242424 C24,9.85236364 21.5606631,7.43434343 18.562585,7.43434343 Z M18.562585,17.4707071 C15.9473758,17.4707071 13.1251699,15.8897939 13.1251699,13.3353535 L12.3751816,13.3353535 L12.3751816,15.5656566 C12.3751816,16.1693253 12.4284308,20.494998 13.9062827,22.2565657 L12.0001875,22.2565657 L10.0940923,22.2565657 C11.5719442,20.494998 11.6251934,16.1693253 11.6251934,15.5656566 L11.6251934,13.3353535 L10.8752051,13.3353535 C10.8752051,15.8897939 8.05299917,17.4707071 5.43779003,17.4707071 C2.85295542,17.4707071 0.750363276,15.3864889 0.750363276,12.8242424 C0.750363276,10.261996 2.85295542,8.17777778 5.43779003,8.17777778 C6.33102608,8.17777778 7.20363744,8.43203232 7.96075061,8.91266263 L8.44861799,8.35880404 C7.7312542,7.52318384 7.33601037,6.46081616 7.33601037,5.36685253 C7.33601037,2.81761616 9.42847768,0.743434343 12.0001875,0.743434343 C14.5718973,0.743434343 16.6643646,2.81724444 16.6643646,5.36685253 C16.6643646,6.46081616 16.2694958,7.52355556 15.552132,8.35880404 L16.0399994,8.91266263 C16.7963626,8.43203232 17.6685989,8.17777778 18.562585,8.17777778 C21.1474196,8.17777778 23.2500117,10.261996 23.2500117,12.8242424 C23.2500117,15.3864889 21.1474196,17.4707071 18.562585,17.4707071 Z"></path>
                        </g>
                    </g>
                </g>
            </g>
        </g>
    </g>
</svg>