<?xml version="1.0" encoding="utf-8"?>
<!-- Generator: Adobe Illustrator 21.1.0, SVG Export Plug-In . SVG Version: 6.00 Build 0)  -->
<svg version="1.1" id="Слой_1" xmlns="http://www.w3.org/2000/svg" xmlns:xlink="http://www.w3.org/1999/xlink" x="0px" y="0px"
	 viewBox="0 0 34 34" enable-background="new 0 0 34 34" xml:space="preserve">
<title>cocktail</title>
<desc>Created with Sketch.</desc>
<g id="Hotel-page_room-with-rates" transform="translate(-1141.000000, -893.000000)">
	<g id="Hotel-overview-open" transform="translate(0.000000, 781.000000)">
		<g id="Food_x2F_drinks" transform="translate(1027.000000, 97.000000)">
			<g id="cocktail" transform="translate(114.000000, 15.000000)">
				<g id="cocktail-_x28_1_x29_">
					<path id="Shape" fill="#5EABDD" d="M33.7,2.8l-4.1-2.6C29.5,0,29.3,0,29.2,0c-0.2,0-0.3,0.2-0.4,0.3l-3.1,6.4H15.1
						C14.8,3,11.6,0,7.6,0C3.4,0,0,3.3,0,7.4s3.4,7.4,7.6,7.4c1.5,0,2.9-0.4,4.1-1.2l7.3,9.3v6.4l-5.6,3.6C13.1,33,13,33.3,13,33.6
						c0.1,0.3,0.3,0.4,0.6,0.4h11.8c0.3,0,0.5-0.2,0.6-0.4c0.1-0.3,0-0.5-0.3-0.7l-5.6-3.6V23l3.4-4.4c0.2-0.3,0.2-0.6-0.1-0.8
						c-0.3-0.2-0.7-0.1-0.9,0.1l-3.1,3.9l-9.1-11.7h5.9c0.3,0,0.6-0.3,0.6-0.6c0-0.3-0.3-0.6-0.6-0.6H15c0.1-0.3,0.1-0.6,0.1-0.9
						h9.9l-0.4,0.9h-6.2c-0.3,0-0.6,0.3-0.6,0.6c0,0.3,0.3,0.6,0.6,0.6H25c0,0,0,0,0,0c0,0,0,0,0,0h3.6l-4.7,6.1
						c-0.2,0.3-0.2,0.6,0.1,0.8c0.3,0.2,0.7,0.1,0.9-0.1L32,7.8c0.1-0.2,0.2-0.4,0.1-0.6c-0.1-0.2-0.3-0.3-0.6-0.3H27l2.6-5.3
						L33,3.8c0.3,0.2,0.7,0.1,0.9-0.2C34.1,3.3,34,2.9,33.7,2.8z M19.5,30.4l3.8,2.4h-7.7L19.5,30.4z M13.7,8.9H9.5L8.8,8h5.1
						C13.9,8.3,13.8,8.6,13.7,8.9z M7.6,6.8C7.3,6.8,7.1,6.9,7,7.1C6.9,7.3,6.9,7.6,7.1,7.8l3.8,4.9c-1,0.6-2.1,0.9-3.3,0.9
						c-3.5,0-6.3-2.8-6.3-6.2c0-3.4,2.8-6.2,6.3-6.2c3.3,0,6,2.5,6.3,5.6L7.6,6.8L7.6,6.8z M30.3,8l-0.7,0.9H26L26.4,8H30.3z"/>
				</g>
			</g>
		</g>
	</g>
</g>
</svg>
