<?xml version="1.0" encoding="utf-8"?>
<!-- Generator: Adobe Illustrator 21.1.0, SVG Export Plug-In . SVG Version: 6.00 Build 0)  -->
<svg version="1.1" id="Слой_1" xmlns="http://www.w3.org/2000/svg" xmlns:xlink="http://www.w3.org/1999/xlink" x="0px" y="0px"
	 viewBox="0 0 25 25" enable-background="new 0 0 25 25" xml:space="preserve">
<title>coffee-cup</title>
<desc>Created with Sketch.</desc>
<g id="No-photo" transform="translate(-190.000000, -420.000000)">
	<g id="Rooms-Copy" transform="translate(74.000000, 60.000000)">
		<g id="Room-Copy" transform="translate(76.000000, 62.000000)">
			<g id="Group-25">
				<g id="Group-19" transform="translate(40.000000, 298.000000)">
					<g id="coffee-cup">
						<g id="coffee-cup-_x28_1_x29_">
							<path id="Shape" fill="#5B6D7C" d="M22.5,21.6h-5.3c1.4-0.5,2.4-1.3,3.2-2.2c3.2-0.5,4.7-3.1,4.7-5.5c0-1.7-1-3.1-2.2-3.4
								c0,0,0,0,0,0c0-0.2-0.1-0.4-0.3-0.6s-0.4-0.3-0.6-0.3H1.8c-0.2,0-0.4,0.1-0.6,0.3s-0.3,0.4-0.3,0.6c0,4.6,0.9,9.2,5.6,11H1.1
								c-0.6,0-1.1,0.5-1.1,1.1c0,0.5,0.4,0.9,1,1l5.6,0.4c0.1,0,0.3,0.1,0.3,0.2C7,24.7,7.5,25,8,25h7.3c0.5,0,0.9-0.3,1.1-0.7
								c0-0.1,0.2-0.2,0.3-0.2l6-0.4h0c0.6-0.1,1-0.5,1-1C23.6,22.1,23.1,21.6,22.5,21.6z M22.8,11.5c0.7,0.3,1.3,1.3,1.3,2.5
								c0,1.7-0.8,3.6-3,4.4c0-0.1,0.1-0.1,0.1-0.2C22.4,16.1,22.7,13.6,22.8,11.5z M1.8,10.6h20.1c0,5.7-1.3,11-10.1,11
								S1.8,16.3,1.8,10.6z M22.5,22.9l-5.9,0.4c-0.4,0-0.8,0.3-1.1,0.7c-0.1,0.1-0.2,0.2-0.4,0.2H8c-0.1,0-0.3-0.1-0.4-0.2
								c-0.2-0.4-0.6-0.6-1.1-0.7l-5.5-0.4c-0.2,0-0.2-0.1-0.2-0.2c0-0.1,0.1-0.3,0.3-0.3h21.4c0.1,0,0.3,0.1,0.3,0.3
								C22.8,22.8,22.8,22.8,22.5,22.9z"/>
							<path id="Shape_1_" fill="#5B6D7C" d="M12.2,3.8c-0.7,0.7-1.1,1.4-1.1,2.1s0.4,1.5,1.1,2.2c0.1,0.1,0.2,0.1,0.3,0.1
								c0.1,0,0.2,0,0.3-0.1C13,8,13,7.7,12.8,7.5C12.3,7,12,6.5,12,6s0.3-1,0.8-1.5c0.7-0.6,1.1-1.4,1.1-2.1s-0.3-1.5-1.1-2.2
								c-0.2-0.2-0.5-0.2-0.6,0s-0.2,0.5,0,0.6C12.7,1.3,13,1.9,13,2.4S12.7,3.4,12.2,3.8z"/>
							<path id="Shape_2_" fill="#5B6D7C" d="M15.3,6c0,0.7,0.4,1.5,1.1,2.2c0.1,0.1,0.2,0.1,0.3,0.1c0.1,0,0.2,0,0.3-0.1
								c0.2-0.2,0.2-0.5,0-0.6C16.4,7,16.2,6.5,16.2,6s0.3-1,0.8-1.5c0.7-0.6,1.1-1.4,1.1-2.1c0-0.8-0.3-1.5-1.1-2.2
								c-0.2-0.2-0.5-0.2-0.6,0c-0.2,0.2-0.2,0.5,0,0.6c0.5,0.6,0.8,1.1,0.8,1.6s-0.3,1-0.8,1.5C15.6,4.5,15.3,5.2,15.3,6z"/>
							<path id="Shape_3_" fill="#5B6D7C" d="M5.6,6c0,0.7,0.4,1.5,1.1,2.2c0.1,0.1,0.2,0.1,0.3,0.1c0.1,0,0.2,0,0.3-0.1
								c0.2-0.2,0.2-0.5,0-0.6C6.7,7,6.4,6.5,6.4,6s0.3-1,0.8-1.5C8,3.8,8.3,3.1,8.3,2.4c0-0.8-0.3-1.5-1.1-2.2C7.1,0,6.8,0,6.6,0.1
								c-0.2,0.2-0.2,0.5,0,0.6c0.5,0.6,0.8,1.1,0.8,1.6s-0.3,1-0.8,1.5C5.9,4.5,5.6,5.2,5.6,6z"/>
						</g>
					</g>
				</g>
			</g>
		</g>
	</g>
</g>
</svg>
