<?xml version="1.0" encoding="UTF-8"?>
<svg width="28px" height="31px" viewBox="0 0 28 31" version="1.1" xmlns="http://www.w3.org/2000/svg" xmlns:xlink="http://www.w3.org/1999/xlink">
    <!-- Generator: Sketch 48.2 (47327) - http://www.bohemiancoding.com/sketch -->
    <title>compass</title>
    <desc>Created with Sketch.</desc>
    <defs></defs>
    <g id="Hotel-page" stroke="none" stroke-width="1" fill="none" fill-rule="evenodd" transform="translate(-1200.000000, -3165.000000)">
        <g id="Location" transform="translate(0.000000, 3048.000000)" fill="#5EABDD">
            <g id="Location-right-block" transform="translate(1027.000000, 92.000000)">
                <g id="Location_menu" transform="translate(20.000000, 20.000000)">
                    <g id="Route-planner" transform="translate(123.000000, 5.000000)">
                        <g id="compass" transform="translate(30.000000, 0.000000)">
                            <g id="Shape">
                                <path d="M19.0758458,11.5845868 L12.0390643,15.0689726 C11.9357018,15.1202146 11.8517738,15.2026689 11.7997326,15.3043037 L8.25604113,22.223532 C8.15123907,22.4281461 8.1917635,22.6757215 8.35652442,22.8376575 C8.46017481,22.9395753 8.59837532,22.993153 8.7384473,22.993153 C8.82086375,22.993153 8.904,22.9746096 8.98108997,22.9364612 L16.0178715,19.4520753 C16.1212339,19.4008333 16.205162,19.318379 16.2572031,19.2167443 L19.8008226,12.2975868 C19.9056247,12.0929726 19.8651003,11.8453973 19.7003393,11.6834612 C19.5356504,11.5214543 19.2840103,11.4816073 19.0758458,11.5845868 Z M12.4281131,16.4376438 L14.8651928,18.8339863 L9.9557635,21.2650091 L12.4281131,16.4376438 Z M15.6286787,18.0833333 L13.191599,15.6869909 L18.1010283,13.255968 L15.6286787,18.0833333 Z" fill-rule="nonzero"></path>
                                <path d="M24.4226941,12.8244452 C24.304144,12.5555662 23.9863548,12.4320616 23.712617,12.5487009 C23.4390951,12.6653402 23.313563,12.9779589 23.4321851,13.2469087 C23.9222931,14.3580959 24.2002057,15.5352466 24.2632596,16.7296667 L22.3203188,16.7296667 C22.0221799,16.7296667 21.780473,16.9673333 21.780473,17.2604886 C21.780473,17.5536438 22.0221799,17.7913105 22.3203188,17.7913105 L24.262108,17.7913105 C24.2389306,18.2175959 24.1899846,18.6442352 24.111527,19.0691758 C23.7386015,21.0896963 22.7578098,22.9282511 21.2752494,24.3861005 C19.414365,26.215879 17.009964,27.1930868 14.5683496,27.3185731 L14.5683496,25.4138425 C14.5683496,25.1206872 14.3266427,24.8830205 14.0285039,24.8830205 C13.730365,24.8830205 13.4886581,25.1206872 13.4886581,25.4138425 L13.4886581,27.3185731 C11.0469717,27.1930868 8.64257069,26.215879 6.78168638,24.3861005 C4.9738509,22.608484 3.9248946,20.2835548 3.79417995,17.7913105 L5.73654499,17.7913105 C6.0346838,17.7913105 6.27639075,17.5536438 6.27639075,17.2604886 C6.27639075,16.9673333 6.0346838,16.7296667 5.73654499,16.7296667 L3.79410797,16.7296667 C3.92475064,14.2374224 4.97370694,11.9124932 6.7816144,10.1347352 C8.58635476,8.3601621 10.9542622,7.32682877 13.4885861,7.19759132 L13.4885861,9.1071347 C13.4885861,9.40028995 13.7302931,9.63795662 14.0284319,9.63795662 C14.3265707,9.63795662 14.5682776,9.40028995 14.5682776,9.1071347 L14.5682776,7.197379 C17.0150746,7.32130822 19.3144576,8.29122603 21.0997635,9.96621689 C21.3154859,10.1685662 21.6572442,10.16071 21.8630334,9.94859361 C22.0688226,9.73647717 22.0608329,9.40043151 21.8451105,9.19808219 C19.6965244,7.18230365 16.8752185,6.08958904 13.9026118,6.12214612 C10.9245347,6.15449087 8.12446272,7.31288584 6.01812853,9.38394064 C1.6012545,13.726984 1.6012545,20.7936393 6.01812853,25.1366119 C8.22652956,27.3080982 11.1274447,28.3938767 14.0283599,28.3938767 C16.9292751,28.3938767 19.8301902,27.3080982 22.0385913,25.1366119 C23.677347,23.5252489 24.7614293,21.4926963 25.1737995,19.2585731 C25.5765964,17.0765411 25.3168226,14.8516187 24.4226941,12.8244452 Z" fill-rule="nonzero"></path>
                                <path d="M15.9101183,3.66104338 C16.1965964,3.27948858 16.3663239,2.80833105 16.3663239,2.29874201 C16.3663239,1.03121005 15.3175116,0 14.0284319,0 C12.7392802,0 11.6905398,1.03121005 11.6905398,2.29874201 C11.6905398,2.80833105 11.8602674,3.27948858 12.1467455,3.66104338 C5.33705913,4.56740411 0.0704678663,10.3201689 0.0704678663,17.2604886 C0.0704678663,24.8282397 6.33195887,30.985137 14.0284319,30.985137 C21.7249049,30.985137 27.9863239,24.8283105 27.9863239,17.2604886 C27.9863239,10.3201689 22.7198046,4.56740411 15.9101183,3.66104338 Z M12.7702314,2.29874201 C12.7702314,1.61660046 13.3346221,1.06164384 14.0284319,1.06164384 C14.7221697,1.06164384 15.2865604,1.61660046 15.2865604,2.29874201 C15.2865604,2.98088356 14.7221697,3.53584018 14.0284319,3.53584018 C13.3346221,3.53591096 12.7702314,2.98095434 12.7702314,2.29874201 Z M14.0284319,29.9234932 C6.92737275,29.9234932 1.15015938,24.2429201 1.15015938,17.2604886 C1.15015938,10.2780571 6.92737275,4.59755479 14.0284319,4.59755479 C21.129491,4.59755479 26.9066324,10.2781279 26.9066324,17.2604886 C26.9066324,24.2428493 21.129491,29.9234932 14.0284319,29.9234932 Z" fill-rule="nonzero"></path>
                            </g>
                        </g>
                    </g>
                </g>
            </g>
        </g>
    </g>
</svg>