<?xml version="1.0" encoding="utf-8"?>
<!-- Generator: Adobe Illustrator 21.1.0, SVG Export Plug-In . SVG Version: 6.00 Build 0)  -->
<svg version="1.1" id="Слой_1" xmlns="http://www.w3.org/2000/svg" xmlns:xlink="http://www.w3.org/1999/xlink" x="0px" y="0px"
	 viewBox="0 0 48 48" enable-background="new 0 0 48 48" xml:space="preserve">
<title>confirm</title>
<desc>Created with Sketch.</desc>
<g id="Page-1">
	<g id="FAQ-" transform="translate(-168.000000, -879.000000)">
		<g id="Group-6" transform="translate(149.000000, 616.000000)">
			<g id="Confirmation" transform="translate(10.000000, 254.000000)">
				<g id="confirm">
					<g id="Icon_x2F_faq_x2F_confirm">
						<g id="checked-mark" transform="translate(9.000000, 9.000000)">
							<path id="Shape" fill="#5EABDD" d="M21.2,29.8l-4.4-4.4c-0.3-0.3-0.3-0.7,0-1c0.3-0.3,0.7-0.3,1,0l3.4,3.4l9.1-9.1
								c0.3-0.3,0.7-0.3,1,0c0.3,0.3,0.3,0.7,0,1L21.2,29.8z"/>
							<path id="Shape_1_" fill="#5EABDD" d="M24,39v-0.7V39c-8.3,0-15-6.7-15-15c0-8.3,6.7-15,15-15c8.3,0,15,6.7,15,15
								C39,32.3,32.3,39,24,39z M24,10.4c-7.5,0-13.6,6.1-13.6,13.6c0,7.5,6.1,13.6,13.6,13.6h0c7.5,0,13.6-6.1,13.6-13.6
								C37.6,16.5,31.5,10.4,24,10.4z"/>
						</g>
					</g>
				</g>
			</g>
		</g>
	</g>
</g>
</svg>
