<?xml version="1.0" encoding="UTF-8"?>
<svg width="28px" height="28px" viewBox="0 0 28 28" version="1.1" xmlns="http://www.w3.org/2000/svg" xmlns:xlink="http://www.w3.org/1999/xlink">
    <!-- Generator: Sketch 48.2 (47327) - http://www.bohemiancoding.com/sketch -->
    <title>croissant</title>
    <desc>Created with Sketch.</desc>
    <defs></defs>
    <g id="Main-page" stroke="none" stroke-width="1" fill="none" fill-rule="evenodd" transform="translate(-177.000000, -4279.000000)">
        <g id="Hotel-themes" transform="translate(149.000000, 4058.000000)" fill="#5EABDD">
            <g id="Apartments" transform="translate(0.000000, 52.000000)">
                <g id="Group-5" transform="translate(25.000000, 166.000000)">
                    <g id="croissant" transform="translate(3.000000, 3.000000)">
                        <g id="Shape">
                            <path d="M27.525,11.9738 L25.7500667,9.03833333 C25.9207333,8.86766667 26.0914,8.66286667 26.1938,8.35566667 C26.5692667,7.43406667 26.501,6.41006667 26.0231333,5.5226 L25.989,5.48846667 C25.9207333,5.38606667 25.8524667,5.24953333 25.7842,5.14713333 C25.7500667,5.07886667 25.6818,5.04473333 25.6476667,4.97646667 C25.6135333,4.9082 25.5452667,4.87406667 25.5111333,4.8058 L23.1218,2.41646667 C23.0535333,2.3482 22.9852667,2.31406667 22.9511333,2.2458 C22.917,2.21166667 22.8487333,2.1434 22.8146,2.10926667 C22.7122,2.041 22.6098,1.97273333 22.4732667,1.90446667 L22.4391333,1.87033333 C21.5858,1.39246667 20.5276667,1.29006667 19.6060667,1.69966667 C19.333,1.8362 19.0940667,1.97273333 18.9234,2.1434 L15.9879333,0.436733333 C15.1346,-0.0752666667 14.1106,-0.143533333 13.2914,0.266066667 C12.7794,0.505 12.4722,0.8122 12.2674,1.2218 L11.8919333,2.07513333 L9.94633333,1.49486667 C9.605,1.39246667 9.26366667,1.35833333 8.95646667,1.39246667 C7.7618,1.529 6.7378,2.51886667 6.05513333,4.1914 C5.98686667,4.36206667 6.05513333,4.56686667 6.2258,4.63513333 L10.1852667,6.3418 C10.117,7.0586 10.4583333,7.84366667 11.141,8.25326667 L13.5303333,9.721 C13.3255333,10.2671333 13.4620667,10.8815333 13.8716667,11.2911333 L16.6364667,14.0559333 C16.9436667,14.3631333 17.3191333,14.4996667 17.6946,14.4996667 C17.8652667,14.4996667 18.0359333,14.4655333 18.2066,14.3972667 L19.6743333,16.7866 C20.0498,17.4351333 20.7666,17.7764667 21.4492667,17.7764667 C21.5175333,17.7764667 21.5516667,17.7764667 21.6199333,17.7764667 L23.3266,21.7359333 C23.3948667,21.8724667 23.4972667,21.9407333 23.6338,21.9407333 C23.6679333,21.9407333 23.7362,21.9407333 23.7703333,21.9066 C25.4428667,21.2239333 26.4327333,20.1999333 26.5692667,19.0052667 C26.6034,18.6980667 26.5692667,18.3567333 26.4668667,18.0154 L25.8866,16.0698 L26.7399333,15.6943333 C27.1495333,15.5236667 27.4567333,15.1823333 27.6956667,14.6703333 C28.0712,13.817 28.0029333,12.8271333 27.525,11.9738 Z M10.3218,5.625 L6.80606667,4.12313333 C7.18153333,3.2698 7.89833333,2.17753333 8.9906,2.041 C9.1954,2.00686667 9.43433333,2.041 9.7074,2.10926667 L11.5847333,2.68953333 L10.3218,5.625 Z M11.4823333,7.673 C10.9020667,7.29753333 10.6631333,6.5466 10.9362,5.9322 L12.8476667,1.49486667 C12.9500667,1.2218 13.1548667,1.05113333 13.4962,0.880466667 C14.1447333,0.573266667 14.9298,0.641533333 15.5783333,1.017 L18.4455333,2.68953333 L13.8716667,9.14073333 L11.4823333,7.673 Z M18.1384,13.5780667 C17.8312,13.817 17.3874667,13.7828667 17.0802667,13.4756667 L14.3496,10.8132667 C14.0765333,10.5402 14.0424,10.0964667 14.2472,9.75513333 L16.2610667,6.99033333 L19.2648,2.79193333 C19.2648,2.79193333 19.2648,2.7578 19.2989333,2.72366667 L19.3330667,2.6554 C19.4696,2.48473333 19.6744,2.3482 20.0157333,2.2458 C20.2888,2.17753333 20.5277333,2.10926667 20.8008,2.10926667 C21.4834667,2.10926667 22.132,2.38233333 22.6098667,2.8602 L24.9992,5.24953333 C25.0674667,5.3178 25.1016,5.38606667 25.1698667,5.45433333 C25.204,5.48846667 25.204,5.48846667 25.2381333,5.5226 C25.7501333,6.20526667 25.8866667,7.0586 25.6477333,7.84366667 C25.5453333,8.185 25.4088,8.3898 25.2381333,8.52633333 L25.1698667,8.56046667 C25.1357333,8.56046667 25.1357333,8.56046667 25.1016,8.5946 L20.9714667,11.5642 L18.1384,13.5780667 Z M25.8524667,18.937 C25.7500667,20.0292667 24.6236667,20.7460667 23.8044667,21.1556667 L22.3026,17.6399333 L25.2380667,16.377 L25.7842,18.2202 C25.8524667,18.4932667 25.8866,18.7322 25.8524667,18.937 Z M27.0471333,14.3972667 C26.8764667,14.7386 26.7058,14.9434 26.4327333,15.0458 L21.9954,16.9572667 C21.3468667,17.2303333 20.5959333,16.9914 20.2546,16.4111333 L18.7868667,14.0218 L25.2039333,9.44793333 L26.8764667,12.3151333 C27.2861333,12.9978 27.3202667,13.7487333 27.0471333,14.3972667 Z" fill-rule="nonzero"></path>
                            <path d="M21.7224,23.4084667 L17.7629333,21.7018 C17.8312,20.9508667 17.4557333,20.1658 16.7730667,19.7562 L14.3837333,18.2884667 C14.5885333,17.7423333 14.452,17.1279333 14.0424,16.7183333 L11.3117333,13.9876667 C10.9021333,13.5780667 10.2877333,13.4415333 9.7416,13.6463333 L8.27386667,11.257 C7.86426667,10.5743333 7.0792,10.1988667 6.32826667,10.2671333 L4.6216,6.30766667 C4.55333333,6.137 4.34853333,6.06873333 4.17786667,6.137 C2.50533333,6.81966667 1.51546667,7.84366667 1.37893333,9.03833333 C1.3448,9.34553333 1.37893333,9.68686667 1.48133333,10.0282 L2.0616,11.9738 L1.2424,12.281 C0.8328,12.4516667 0.5256,12.793 0.286666667,13.305 C-0.0888,14.1583333 -0.0205333333,15.1482 0.457333333,16.0015333 L2.164,18.937 C1.99333333,19.1076667 1.82266667,19.3124667 1.72026667,19.6196667 C1.3448,20.5412667 1.41306667,21.5652667 1.89093333,22.4527333 L1.92506667,22.4868667 C1.99333333,22.5892667 2.0616,22.7258 2.12986667,22.8282 C2.164,22.8623333 2.19813333,22.9306 2.2664,22.9647333 C2.33466667,23.033 2.3688,23.1012667 2.43706667,23.1695333 L3.63173333,24.3642 L4.8264,25.5588667 C5.50906667,26.1732667 6.32826667,26.5146 7.1816,26.5146 C7.5912,26.5146 8.0008,26.4463333 8.37626667,26.2756667 C8.64933333,26.1391333 8.88826667,26.0026 9.05893333,25.8319333 L11.9944,27.5386 C12.4722667,27.8116667 13.0184,27.9823333 13.5304,27.9823333 C13.94,27.9823333 14.3154667,27.9140667 14.6909333,27.7434 C15.2029333,27.5044667 15.5101333,27.1972667 15.7149333,26.7876667 L16.0904,25.9343333 L18.036,26.5146 C18.3090667,26.5828667 18.548,26.6511333 18.7869333,26.6511333 C18.8552,26.6511333 18.9234667,26.6511333 18.9917333,26.6511333 C20.1864,26.5146 21.2104,25.5247333 21.8930667,23.8522 C21.9612667,23.6815333 21.8930667,23.4767333 21.7224,23.4084667 Z M2.09566667,9.03833333 C2.19806667,7.94606667 3.32446667,7.22926667 4.14366667,6.81966667 L5.64553333,10.3354 L2.71006667,11.5983333 L2.16393333,9.75513333 C2.09566667,9.48206667 2.0616,9.24313333 2.09566667,9.03833333 Z M1.07166667,15.6602 C0.662066667,14.9775333 0.627933333,14.2266 0.901,13.5780667 C1.07166667,13.2367333 1.24233333,13.0319333 1.5154,12.9295333 L5.95273333,11.0180667 C6.1234,10.9498 6.3282,10.9156667 6.49886667,10.9156667 C6.97673333,10.9156667 7.4546,11.1546 7.69353333,11.5983333 L9.16126667,13.9876667 L2.7442,18.5274 L1.07166667,15.6602 Z M8.6834,25.1492667 C8.6834,25.1492667 8.6834,25.1834 8.64926667,25.2175333 L8.61513333,25.2858 C8.4786,25.4564667 8.2738,25.593 7.93246667,25.6954 C7.11326667,25.9684667 6.25993333,25.7978 5.6114,25.2858 C5.57726667,25.2858 5.57726667,25.2516667 5.57726667,25.2516667 C5.509,25.1834 5.4066,25.1151333 5.33833333,25.0468667 L4.14366667,23.8522 L2.949,22.6575333 C2.88073333,22.5892667 2.81246667,22.521 2.7442,22.4186 C2.7442,22.3844667 2.71006667,22.3844667 2.71006667,22.3503333 C2.19806667,21.6676667 2.06153333,20.8143333 2.30046667,20.0292667 C2.40286667,19.6879333 2.5394,19.4831333 2.71006667,19.3466 L2.7442,19.3124667 C2.77833333,19.3124667 2.77833333,19.2783333 2.81246667,19.2783333 L7.01086667,16.2746 L9.77566667,14.2948667 C9.9122,14.1924667 10.0828667,14.1583333 10.2535333,14.1583333 C10.4583333,14.1583333 10.6631333,14.2266 10.8338,14.3972667 L13.5644667,17.1620667 C13.8375333,17.4351333 13.8716667,17.8788667 13.6668667,18.2202 L11.6871333,20.985 L8.6834,25.1492667 Z M15.1004667,26.4804667 C14.9980667,26.7535333 14.7932667,26.9242 14.4519333,27.0948667 C13.8034,27.4020667 13.0183333,27.3338 12.3698,26.9583333 L9.5026,25.2858 L14.0764667,18.8687333 L16.4658,20.3364667 C17.0460667,20.6778 17.285,21.4287333 17.0119333,22.0431333 L15.1004667,26.4804667 Z M18.9234667,25.9343333 C18.7186667,25.9684667 18.4797333,25.9343333 18.2066667,25.8660667 L16.3293333,25.2858 L17.6264,22.3503333 L21.1421333,23.8522 C20.7666,24.7055333 20.0498,25.7978 18.9234667,25.9343333 Z" fill-rule="nonzero"></path>
                        </g>
                    </g>
                </g>
            </g>
        </g>
    </g>
</svg>