<?xml version="1.0" encoding="UTF-8"?>
<svg width="24px" height="21px" viewBox="0 0 24 21" version="1.1" xmlns="http://www.w3.org/2000/svg" xmlns:xlink="http://www.w3.org/1999/xlink">
    <!-- Generator: Sketch 48.2 (47327) - http://www.bohemiancoding.com/sketch -->
    <title>diamond</title>
    <desc>Created with Sketch.</desc>
    <defs></defs>
    <g id="Hotel-page" stroke="none" stroke-width="1" fill="none" fill-rule="evenodd" transform="translate(-1109.000000, -3442.000000)">
        <g id="Location" transform="translate(0.000000, 3048.000000)" fill="#5EABDD">
            <g id="Location-right-block" transform="translate(1027.000000, 92.000000)">
                <g id="City-center" transform="translate(20.000000, 302.000000)">
                    <g id="Title" transform="translate(62.000000, 0.000000)">
                        <g id="diamond">
                            <g id="Shape">
                                <path d="M12,20.637931 C11.8930909,20.637931 11.7905455,20.5908621 11.7221818,20.5090345 L0.0858181818,6.75041379 C-0.0232727273,6.62151724 -0.0290909091,6.43468966 0.0727272727,6.3 L4.43636364,0.506896552 C4.50472727,0.415655172 4.61309091,0.362068966 4.72727273,0.362068966 L19.2727273,0.362068966 C19.3869091,0.362068966 19.4952727,0.415655172 19.5636364,0.506896552 L23.9272727,6.3 C24.0290909,6.43468966 24.0232727,6.62151724 23.9141818,6.75041379 L12.2778182,20.5090345 C12.2094545,20.5908621 12.1069091,20.637931 12,20.637931 Z M0.828363636,6.5042069 L12,19.713931 L23.1716364,6.5042069 L19.0909091,1.0862069 L4.90909091,1.0862069 L0.828363636,6.5042069 Z" fill-rule="nonzero"></path>
                                <path d="M23.6363636,6.87931034 L0.363636364,6.87931034 C0.162909091,6.87931034 0,6.71782759 0,6.51724138 C0,6.31665517 0.162909091,6.15517241 0.363636364,6.15517241 L23.6363636,6.15517241 C23.8370909,6.15517241 24,6.31737931 24,6.51724138 C24,6.71710345 23.8370909,6.87931034 23.6363636,6.87931034 Z" fill-rule="nonzero"></path>
                                <path d="M12,20.637931 C11.9636364,20.637931 11.9265455,20.6328621 11.8909091,20.6212759 C11.6989091,20.5611724 11.5927273,20.3576897 11.6538182,20.1672414 L16.0174545,6.40862069 C16.0778182,6.21817241 16.2836364,6.111 16.4734545,6.17255172 C16.6654545,6.23265517 16.7716364,6.43613793 16.7105455,6.62658621 L12.3469091,20.3852069 C12.2981818,20.5394483 12.1541818,20.637931 12,20.637931 Z" fill-rule="nonzero"></path>
                                <path d="M12,20.637931 C11.8458182,20.637931 11.7018182,20.5394483 11.6530909,20.3844828 L7.28945455,6.62586207 C7.22909091,6.43541379 7.33527273,6.23193103 7.52654545,6.17182759 C7.71854545,6.11027586 7.92218182,6.21744828 7.98254545,6.40789655 L12.3461818,20.1665172 C12.4065455,20.3569655 12.3003636,20.5604483 12.1090909,20.6205517 C12.0734545,20.6328621 12.0363636,20.637931 12,20.637931 Z" fill-rule="nonzero"></path>
                                <path d="M7.63636364,6.87931034 C7.50254545,6.87931034 7.37454545,6.80617241 7.31054545,6.67944828 L4.40145455,0.886344828 C4.312,0.707482759 4.38472727,0.490241379 4.56436364,0.400448276 C4.74472727,0.31137931 4.96218182,0.383793103 5.05236364,0.562655172 L7.96145455,6.35575862 C8.05163636,6.53462069 7.97818182,6.75186207 7.79854545,6.84165517 C7.74690909,6.867 7.69163636,6.87931034 7.63636364,6.87931034 Z" fill-rule="nonzero"></path>
                                <path d="M7.63636364,6.87931034 C7.56072727,6.87931034 7.48436364,6.85541379 7.41890909,6.80689655 C7.25818182,6.68668966 7.22545455,6.46003448 7.34618182,6.3 L11.7098182,0.506896552 C11.8305455,0.346862069 12.0581818,0.315 12.2189091,0.434482759 C12.3796364,0.554689655 12.4123636,0.781344828 12.2916364,0.94137931 L7.928,6.73448276 C7.856,6.82934483 7.74690909,6.87931034 7.63636364,6.87931034 Z" fill-rule="nonzero"></path>
                                <path d="M16.3636364,6.87931034 C16.2530909,6.87931034 16.144,6.82934483 16.0727273,6.73448276 L11.7090909,0.94137931 C11.5883636,0.781344828 11.6210909,0.554689655 11.7818182,0.434482759 C11.9418182,0.313551724 12.1701818,0.346137931 12.2909091,0.506896552 L16.6545455,6.3 C16.7752727,6.46003448 16.7425455,6.68668966 16.5818182,6.80689655 C16.5163636,6.85613793 16.44,6.87931034 16.3636364,6.87931034 Z" fill-rule="nonzero"></path>
                                <path d="M16.3636364,6.87931034 C16.3090909,6.87931034 16.2538182,6.867 16.2014545,6.84093103 C16.0218182,6.75113793 15.9490909,6.53389655 16.0385455,6.35503448 L18.9476364,0.561931034 C19.0378182,0.383068966 19.2552727,0.310655172 19.4356364,0.399724138 C19.6152727,0.489517241 19.688,0.706758621 19.5985455,0.88562069 L16.6894545,6.67872414 C16.6247273,6.80617241 16.4967273,6.87931034 16.3636364,6.87931034 Z" fill-rule="nonzero"></path>
                            </g>
                        </g>
                    </g>
                </g>
            </g>
        </g>
    </g>
</svg>