<?xml version="1.0" encoding="utf-8"?>
<!-- Generator: Adobe Illustrator 21.1.0, SVG Export Plug-In . SVG Version: 6.00 Build 0)  -->
<svg version="1.1" id="Слой_1" xmlns="http://www.w3.org/2000/svg" xmlns:xlink="http://www.w3.org/1999/xlink" x="0px" y="0px"
	 viewBox="0 0 48 48" enable-background="new 0 0 48 48" xml:space="preserve">
<title>directions</title>
<desc>Created with Sketch.</desc>
<g id="Page-1">
	<g id="FAQ-" transform="translate(-169.000000, -1312.000000)">
		<g id="Group-6" transform="translate(149.000000, 616.000000)">
			<g id="Directions" transform="translate(10.000000, 688.000000)">
				<g id="directions">
					<g id="Icon_x2F_faq_x2F_directions">
						<g id="compass-_x28_2_x29_" transform="translate(10.000000, 8.000000)">
							<path id="Shape" fill="#5EABDD" d="M24.5,12.9v-0.6c0.9-0.2,1.6-1.1,1.6-2.1C26.2,9,25.2,8,24,8s-2.2,1-2.2,2.2
								c0,1,0.7,1.9,1.6,2.1v0.6c-7.3,0.3-13.2,6.3-13.2,13.5C10.3,33.9,16.4,40,24,40s13.7-6.1,13.7-13.6
								C37.7,19.1,31.9,13.2,24.5,12.9z M22.9,10.2c0-0.6,0.5-1.1,1.1-1.1s1.1,0.5,1.1,1.1s-0.5,1.1-1.1,1.1S22.9,10.8,22.9,10.2z
								 M24,38.9c-7,0-12.6-5.6-12.6-12.5S17,14,24,14s12.6,5.6,12.6,12.5S31,38.9,24,38.9z"/>
							<path id="Shape_1_" fill="#5EABDD" d="M30.7,19.1l-9.3,4.6c0,0,0,0,0,0c0,0-0.1,0.1-0.1,0.1c0,0-0.1,0.1-0.1,0.1c0,0,0,0,0,0
								l-4.7,9.2c-0.1,0.2-0.1,0.5,0.1,0.6c0.1,0.1,0.2,0.2,0.4,0.2c0.1,0,0.2,0,0.2-0.1l9.3-4.6c0,0,0,0,0,0c0,0,0.1-0.1,0.1-0.1
								c0,0,0.1-0.1,0.1-0.1c0,0,0,0,0,0l4.7-9.2c0.1-0.2,0.1-0.5-0.1-0.6C31.2,19,31,18.9,30.7,19.1z M18.2,32.1l3.6-7.1l3.6,3.5
								L18.2,32.1z M26.2,27.8l-3.6-3.5l7.2-3.5L26.2,27.8z"/>
						</g>
					</g>
				</g>
			</g>
		</g>
	</g>
</g>
</svg>
