<?xml version="1.0" encoding="UTF-8"?>
<svg width="26px" height="26px" viewBox="0 0 26 26" version="1.1" xmlns="http://www.w3.org/2000/svg" xmlns:xlink="http://www.w3.org/1999/xlink">
    <!-- Generator: Sketch 48.2 (47327) - http://www.bohemiancoding.com/sketch -->
    <title>donation</title>
    <desc>Created with Sketch.</desc>
    <defs></defs>
    <g id="Main-page" stroke="none" stroke-width="1" fill="none" fill-rule="evenodd" transform="translate(-763.000000, -4280.000000)">
        <g id="Hotel-themes" transform="translate(149.000000, 4058.000000)" fill="#5EABDD">
            <g id="Budget-hotels" transform="translate(585.000000, 52.000000)">
                <g id="Group-5" transform="translate(25.000000, 166.000000)">
                    <g id="donation" transform="translate(4.000000, 4.000000)">
                        <g transform="translate(-0.000000, 0.000000)" id="Shape">
                            <path d="M4.76668359,22.1 C4.87764062,22.1 4.98854687,22.0575469 5.07304687,21.9730469 C5.24250391,21.8035898 5.24250391,21.5297266 5.07304687,21.3603203 L1.58168359,17.8711406 C1.55263672,17.8455977 0.866683594,17.2336836 0.866683594,16.0333672 L0.866683594,9.53336719 C0.866683594,9.05541406 1.25536328,8.66668359 1.73336719,8.66668359 C2.21132031,8.66668359 2.60005078,9.05536328 2.60005078,9.53336719 L2.60005078,12.9640469 C2.60005078,13.2032266 2.79373047,13.3973633 3.03336719,13.3973633 C3.27300391,13.3973633 3.46668359,13.2032266 3.46668359,12.9640469 L3.46668359,9.53336719 C3.46668359,8.57741016 2.68927344,7.80005078 1.73336719,7.80005078 C0.777410156,7.8 0,8.57741016 0,9.53331641 L0,16.0333164 C0,17.6513594 0.978910156,18.4959531 0.993636719,18.5063633 L4.46032031,21.9730469 C4.54482031,22.0575469 4.65572656,22.1 4.76668359,22.1 Z" fill-rule="nonzero"></path>
                            <path d="M24.2666836,7.8 C23.3107266,7.8 22.5333672,8.57741016 22.5333672,9.53331641 L22.5333672,12.9639961 C22.5333672,13.2031758 22.7270469,13.3973125 22.9666836,13.3973125 C23.2063203,13.3973125 23.4,13.2031758 23.4,12.9639961 L23.4,9.53331641 C23.4,9.05536328 23.7886797,8.66663281 24.2666836,8.66663281 C24.7446875,8.66663281 25.1333672,9.0553125 25.1333672,9.53331641 L25.1333672,16.0333164 C25.1333672,17.2336328 24.4474141,17.8454961 24.3936875,17.8936367 L20.9269531,21.3603203 C20.7574961,21.5297773 20.7574961,21.8036406 20.9269531,21.9730469 C21.0114531,22.0575469 21.1224102,22.1 21.2333164,22.1 C21.3442734,22.1 21.4551797,22.0575469 21.5396797,21.9730469 L24.9795,18.5310937 C25.0210898,18.4960039 26,17.6514102 26,16.0333672 L26,9.53336719 C26,8.57741016 25.2225898,7.8 24.2666836,7.8 Z" fill-rule="nonzero"></path>
                            <path d="M2.62645703,15.5913164 C2.64463672,16.0272734 2.834,16.4471328 3.16032031,16.7729961 L5.32700391,18.9396797 C5.49646094,19.1091367 5.77032422,19.1091367 5.93973047,18.9396797 C6.10913672,18.7702227 6.10913672,18.4963594 5.93973047,18.3269531 L3.77304688,16.1598633 C3.601,15.9882734 3.50136719,15.7737734 3.49268359,15.5562266 C3.48359375,15.3421836 3.56286328,15.1454063 3.72064063,14.9872734 C3.87882422,14.8295469 4.07032031,14.7502266 4.28959375,14.7593672 C4.50714063,14.7680508 4.72164063,14.8676836 4.89363672,15.0397305 L7.94731641,18.0921406 C7.97636328,18.1185977 8.66663281,18.7486406 8.66663281,19.9333672 L8.66663281,22.1 C8.66663281,22.3391797 8.8603125,22.5333164 9.09994922,22.5333164 C9.33958594,22.5333164 9.53326563,22.3391797 9.53326563,22.1 L9.53326563,19.9333164 C9.53326563,18.3386328 8.55872266,17.4754531 8.53962891,17.4602695 L5.50636328,14.4269531 C5.1805,14.1006328 4.76058984,13.9112695 4.32508984,13.8930898 C3.86531641,13.8753164 3.43677344,14.0456367 3.10786328,14.3745469 C2.77854687,14.703457 2.60782031,15.1359102 2.62645703,15.5913164 Z" fill-rule="nonzero"></path>
                            <path d="M9.96668359,23.4 L3.03331641,23.4 C2.79367969,23.4 2.6,23.5941367 2.6,23.8333164 L2.6,25.5666328 C2.6,25.8058125 2.79367969,25.9999492 3.03331641,25.9999492 C3.27295313,25.9999492 3.46663281,25.8058125 3.46663281,25.5666328 L3.46663281,24.2666328 L9.53331641,24.2666328 L9.53331641,25.5666328 C9.53331641,25.8058125 9.72699609,25.9999492 9.96663281,25.9999492 C10.2062695,25.9999492 10.3999492,25.8058125 10.3999492,25.5666328 L10.3999492,23.8333164 C10.4,23.5941367 10.2063203,23.4 9.96668359,23.4 Z" fill-rule="nonzero"></path>
                            <path d="M16.4666836,19.9333164 L16.4666836,22.1 C16.4666836,22.3391797 16.6603633,22.5333164 16.9,22.5333164 C17.1396367,22.5333164 17.3333164,22.3391797 17.3333164,22.1 L17.3333164,19.9333164 C17.3333164,18.7485898 18.0236367,18.1184961 18.0729961,18.0729961 L21.1063125,15.0396797 C21.2783594,14.8676328 21.4928594,14.768 21.7103555,14.7593164 C21.9313555,14.7502266 22.1211758,14.8294961 22.2793086,14.9872227 C22.4370352,15.1454062 22.5163555,15.3421328 22.5072656,15.5561758 C22.498582,15.7737227 22.3989492,15.9882227 22.2269023,16.1602187 L20.0603203,18.3269531 C19.8908633,18.4964102 19.8908633,18.7702734 20.0603203,18.9396797 C20.2297266,19.1091367 20.5036406,19.1091367 20.6730469,18.9396797 L22.8397305,16.7734531 C23.1660508,16.4471328 23.3554141,16.0272734 23.3735937,15.5913164 C23.3922305,15.1358594 23.2215039,14.7034062 22.8921367,14.3744961 C22.5632266,14.0455859 22.1350898,13.8748594 21.6749102,13.8930391 C21.2394102,13.9112187 20.8195,14.100582 20.4936367,14.4269023 L17.4828164,17.4394492 C17.4412266,17.4754531 16.4666836,18.3386836 16.4666836,19.9333164 Z" fill-rule="nonzero"></path>
                            <path d="M13,4.76668359 C13.4779531,4.76668359 13.8666836,5.15536328 13.8666836,5.63336719 C13.8666836,5.87254687 14.0603633,6.06668359 14.3,6.06668359 C14.5396367,6.06668359 14.7333164,5.87254688 14.7333164,5.63336719 C14.7333164,4.82823047 14.1790898,4.15527734 13.4333164,3.96154688 L13.4333164,3.9 C13.4333164,3.66082031 13.2396367,3.46668359 13,3.46668359 C12.7603633,3.46668359 12.5666836,3.66082031 12.5666836,3.9 L12.5666836,3.96154688 C11.8209102,4.15522656 11.2666836,4.82823047 11.2666836,5.63336719 C11.2666836,6.58932422 12.0440938,7.36668359 13,7.36668359 C13.4779531,7.36668359 13.8666836,7.75536328 13.8666836,8.23336719 C13.8666836,8.71132031 13.4780039,9.10005078 13,9.10005078 C12.5220469,9.10005078 12.1333164,8.71137109 12.1333164,8.23336719 C12.1333164,7.9941875 11.9396367,7.80005078 11.7,7.80005078 C11.4603633,7.80005078 11.2666836,7.9941875 11.2666836,8.23336719 C11.2666836,9.03850391 11.8209102,9.71145703 12.5666836,9.9051875 L12.5666836,9.96673438 C12.5666836,10.2059141 12.7603633,10.4000508 13,10.4000508 C13.2396367,10.4000508 13.4333164,10.2059141 13.4333164,9.96673438 L13.4333164,9.9051875 C14.1790898,9.71150781 14.7333164,9.03850391 14.7333164,8.23336719 C14.7333164,7.27741016 13.955957,6.5 13,6.5 C12.5220469,6.5 12.1333164,6.11132031 12.1333164,5.63331641 C12.1333164,5.15536328 12.5220469,4.76668359 13,4.76668359 Z" fill-rule="nonzero"></path>
                            <path d="M22.9666836,23.4 L16.0333164,23.4 C15.7936797,23.4 15.6,23.5941367 15.6,23.8333164 L15.6,25.5666328 C15.6,25.8058125 15.7936797,25.9999492 16.0333164,25.9999492 C16.2729531,25.9999492 16.4666328,25.8058125 16.4666328,25.5666328 L16.4666328,24.2666328 L22.5333164,24.2666328 L22.5333164,25.5666328 C22.5333164,25.8058125 22.7269961,25.9999492 22.9666328,25.9999492 C23.2062695,25.9999492 23.3999492,25.8058125 23.3999492,25.5666328 L23.3999492,23.8333164 C23.4,23.5941367 23.2063203,23.4 22.9666836,23.4 Z" fill-rule="nonzero"></path>
                            <path d="M19.9333164,6.93331641 C19.9333164,3.11045312 16.8228633,0 13,0 C9.17713672,0 6.06668359,3.11045312 6.06668359,6.93331641 C6.06668359,10.7561797 9.17713672,13.8666836 13,13.8666836 C16.8228633,13.8666836 19.9333164,10.7561797 19.9333164,6.93331641 Z M13,13 C9.65468359,13 6.93331641,10.2786836 6.93331641,6.93331641 C6.93331641,3.58794922 9.65468359,0.866683594 13,0.866683594 C16.3453164,0.866683594 19.0666836,3.588 19.0666836,6.93336719 C19.0666836,10.2787344 16.3453164,13 13,13 Z" fill-rule="nonzero"></path>
                        </g>
                    </g>
                </g>
            </g>
        </g>
    </g>
</svg>