<?xml version="1.0" encoding="UTF-8"?>
<svg width="20px" height="23px" viewBox="0 0 20 23" version="1.1" xmlns="http://www.w3.org/2000/svg" xmlns:xlink="http://www.w3.org/1999/xlink">
    <!-- Generator: Sketch 48.2 (47327) - http://www.bohemiancoding.com/sketch -->
    <title>earth</title>
    <desc>Created with Sketch.</desc>
    <defs></defs>
    <g id="Hotel-list_city-name" stroke="none" stroke-width="1" fill="none" fill-rule="evenodd" transform="translate(-194.000000, -508.000000)">
        <g id="First-screen" transform="translate(0.000000, 7.000000)" fill="#50E3C2">
            <g id="Form-with-dates" transform="translate(149.000000, 401.000000)">
                <g id="Form">
                    <g id="Destination_active" transform="translate(30.000000, 62.000000)">
                        <g id="Destination" transform="translate(15.000000, 30.000000)">
                            <g id="earth" transform="translate(0.000000, 8.000000)">
                                <g id="earth-globe">
                                    <path d="M19.8986486,11.6313645 C19.8694595,11.4217193 19.6726126,11.2755595 19.4654505,11.3046569 C19.2551802,11.3337544 19.107973,11.5269454 19.1372072,11.736232 C19.1956306,12.1566881 19.2252252,12.5848109 19.2252252,13.0079571 C19.2252252,18.0343762 15.1468919,22.1299454 10.1107207,22.1896199 C8.74382883,21.3203723 7.4627027,20.2560507 8.03351351,18.9303899 C9.05828829,16.5499571 8.10463964,15.6623275 7.69716216,15.2832086 L7.62067568,15.2108908 C7.50418919,15.0953528 7.37315315,15.0165341 7.25702703,14.9473099 C6.97567568,14.7793606 6.89995495,14.7342125 7.05099099,14.2831345 C7.15094595,13.9835517 7.28391892,13.8439376 7.4372973,13.6820858 C7.79283784,13.3078986 8.06459459,12.9356842 8.06459459,11.8536979 C8.06459459,11.2239552 7.74364865,10.7216316 7.18396396,10.4756257 C6.54932432,10.1963528 5.70175676,10.2950331 5.2536036,10.6997973 C4.97378378,10.9530663 4.87959459,11.2977973 4.99567568,11.64477 C5.26972973,12.4616062 4.64355856,13.6422729 3.47351351,14.5156901 C3.16369369,14.7471696 3.07108108,14.6411813 3.01608108,14.5776511 C2.67283784,14.183961 2.69936937,13.0641345 2.98108108,12.7840994 C3.16981982,12.5962437 3.22594595,12.3563801 3.13099099,12.1425205 C2.81963964,11.4393392 0.833153153,11.4936335 0.43954955,11.5124191 C0.422657658,11.5131813 0.409189189,11.5212066 0.393018018,11.5243002 C0.369954955,11.5281111 0.348423423,11.532729 0.326891892,11.5407544 C0.3,11.5503041 0.276171171,11.5629474 0.252702703,11.5782359 C0.235,11.5893099 0.218513514,11.6007875 0.203108108,11.6145965 C0.182342342,11.6333372 0.165810811,11.6532437 0.149684685,11.6754366 C0.136216216,11.6934152 0.124684685,11.7117973 0.11472973,11.7324211 C0.103198198,11.7561384 0.0959009009,11.7806179 0.0893693694,11.8070253 C0.0859009009,11.821193 0.0774324324,11.8330292 0.0755405405,11.8479591 C0.0267117117,12.2435322 0.00594594595,12.5905497 0.00594594595,13.0079571 C0.00594594595,17.5951793 3.12675676,21.5660195 7.59486486,22.6648187 C7.62563063,22.6724854 7.65675676,22.6762963 7.68711712,22.6762963 C7.85968468,22.6762963 8.01693694,22.5595926 8.05995495,22.3851423 C8.11108108,22.1800702 7.985,21.9727115 7.77896396,21.9222281 C3.65495495,20.9079415 0.774774775,17.2420195 0.774774775,13.0079123 C0.774774775,12.7427622 0.784774775,12.5082339 0.805135135,12.2695361 C1.4536036,12.2672495 2.00747748,12.3429747 2.28887387,12.4286979 C1.84797297,13.1139006 1.8963964,14.4609922 2.43531532,15.0792573 C2.82202703,15.5219064 3.38207207,15.5406472 3.93481982,15.1278577 C5.41162162,14.0256062 6.11427928,12.5630214 5.72490991,11.4029786 C5.71261261,11.3650936 5.70031532,11.32954 5.77103604,11.2656511 C5.97324324,11.0827719 6.48752252,11.0054776 6.87306306,11.1753548 C7.15752252,11.3004425 7.2959009,11.5223723 7.2959009,11.8536979 C7.2959009,12.7172066 7.12099099,12.9016101 6.87882883,13.1564035 C6.69932432,13.3457836 6.47563063,13.5810741 6.32148649,14.0413431 C5.97594595,15.074729 6.53022523,15.4060097 6.86153153,15.6038187 C6.94725225,15.6547057 7.02797297,15.7029025 7.07716216,15.7518616 C7.10522523,15.7797934 7.13711712,15.809653 7.17211712,15.8421579 C7.51,16.1566257 8.13923423,16.742386 7.32702703,18.628924 C6.40603604,20.7679688 8.78076577,22.2592924 9.79477477,22.8962982 C9.85626126,22.9345419 9.92738739,22.9552105 10.000045,22.9552105 C15.5105856,22.9552105 19.9940541,18.4927173 19.9940541,13.0079571 C19.994009,12.5495712 19.9620721,12.0866569 19.8986486,11.6313645 Z" id="Shape" fill-rule="nonzero"></path>
                                    <path d="M14.6110811,13.2068869 C14.5,13.2386296 14.3481532,13.2818947 14.3077928,13.2849435 C13.7765766,13.2849435 13.4398649,13.6943255 13.1942342,13.9931014 C13.1004505,14.1074737 12.9328378,14.3217368 12.8229279,14.3148772 C12.6491892,14.2283918 12.4666216,14.1848129 12.2801802,14.1848129 C11.826982,14.1848129 11.4345495,14.4530117 11.3468919,14.8233431 C11.285,15.0835166 11.3760811,15.4396803 11.8162162,15.6589201 C12.4404505,15.969577 13.0858559,16.2905906 13.372973,16.5763645 C13.5705405,16.7730078 13.9122523,16.8859006 14.3108559,16.8859006 C14.9162613,16.8859006 15.7211712,16.5932222 15.9975225,15.7675984 C16.1066667,15.4424152 16.3677027,15.1937193 16.6202252,14.9530487 C16.9131081,14.6737758 17.1902703,14.4105536 17.1940991,14.0317934 C17.1968018,13.8083392 17.0972523,13.594883 16.8988739,13.3970741 C16.6286486,13.1281131 16.2608108,12.9919064 15.8049099,12.9919064 C15.3675676,12.9918616 14.9301351,13.1161871 14.6110811,13.2068869 Z M16.4253604,14.0213918 C16.4072973,14.0967583 16.2158559,14.2792339 16.0886486,14.4005556 C15.7984234,14.6767797 15.4374775,15.0207485 15.2683784,15.5257173 C15.0785135,16.0923333 14.4373423,16.1206238 14.3108559,16.1206238 C14.0867568,16.1206238 13.9460811,16.0617115 13.9168468,16.0357076 C13.5409009,15.6615205 12.8701802,15.3275497 12.1598198,14.9744347 C12.1582883,14.9736725 12.1571171,14.973269 12.1555856,14.9725068 C12.2278378,14.9434094 12.3616216,14.9407641 12.4792342,14.9992729 C12.6033784,15.0612339 12.7306306,15.0926179 12.8578378,15.0926179 C13.2833333,15.0926179 13.552027,14.7659103 13.7888288,14.4778051 C13.9622072,14.2673977 14.1405405,14.0500858 14.3077477,14.0500858 C14.4441892,14.0500858 14.602973,14.0049376 14.8220721,13.9425731 C15.1130631,13.8599435 15.4751351,13.7570039 15.804955,13.7570039 C16.0528829,13.7570039 16.2327928,13.8163197 16.355,13.9379552 C16.4084685,13.991577 16.4226577,14.0213918 16.4253604,14.0213918 Z" id="Shape" fill-rule="nonzero"></path>
                                    <path d="M9.62328829,3.83351267 C10.3951351,3.80212865 11.1792793,3.86754191 11.9334234,4.0278694 C11.9195946,4.57838986 12.1582883,4.95602924 12.312027,5.19858285 C12.3543243,5.26592398 12.4127477,5.35774464 12.4196396,5.37034308 C12.4196396,6.74267641 12.1378829,6.9657271 12.1409459,6.96648928 C11.5178378,6.96648928 10.4954054,7.52046199 10.110991,8.23476218 C9.875,8.67283821 9.89418919,9.13651462 10.1644144,9.54051657 C10.3496847,9.81714425 10.5091892,10.1247076 10.6637387,10.4223626 C10.9904505,11.0521053 11.3533333,11.7507135 11.9218468,11.7507135 C12.0425225,11.7507135 12.1724775,11.7193294 12.3131532,11.6493431 C12.7613514,11.4262924 13.0827027,10.7919766 13.3932883,10.1790468 C13.5301351,9.90892008 13.7311712,9.5125848 13.8503153,9.38669006 C14.2404505,9.43950487 14.4311261,9.79069201 14.6890541,10.3469961 C14.8789189,10.7563782 15.0753604,11.1791209 15.4612613,11.371191 C16.1108559,11.6944912 18.2468919,11.3559025 19.4273423,10.8569864 C19.4431081,10.8504854 19.4538739,10.8374834 19.4684685,10.8290546 C19.4911261,10.8156491 19.5126577,10.8030507 19.5318919,10.7858343 C19.5503604,10.7690214 19.5645495,10.7506394 19.5791892,10.7311365 C19.5941892,10.7116335 19.608018,10.6924893 19.6187838,10.6706998 C19.6299099,10.6485068 19.6360811,10.6255517 19.6422523,10.6018343 C19.6487838,10.578117 19.6545495,10.5555205 19.6564865,10.5310409 C19.658018,10.5053957 19.654955,10.4809162 19.6511261,10.4549123 C19.6491892,10.4380994 19.6526577,10.4220039 19.6480631,10.405191 C18.8412613,7.43630799 16.6498649,4.96674464 13.7854505,3.7994386 C13.5882432,3.71909552 13.3641441,3.81284405 13.2838288,4.00832164 C13.2035135,4.20379922 13.2976577,4.42725341 13.4940991,4.50719298 C16.0306306,5.54134113 17.9929279,7.68303119 18.8059009,10.2750819 C17.6100901,10.6944172 16.0779279,10.8210292 15.805,10.6867505 C15.6604505,10.6148363 15.5151802,10.3022515 15.3871622,10.026386 C15.1192342,9.44869591 14.7521622,8.65750487 13.815045,8.61616764 C13.3253604,8.59052242 13.0577928,9.14220858 12.7068468,9.8347193 C12.5008108,10.2410078 12.1898649,10.855462 11.9419369,10.9763801 C11.7993243,10.9431131 11.516036,10.3971657 11.3468919,10.0711754 C11.1904505,9.76970955 11.0132432,9.42802729 10.8041441,9.11624951 C10.6907658,8.9471345 10.6861261,8.78644834 10.7887838,8.59594737 C11.0528378,8.10546004 11.8450901,7.73167641 12.141036,7.73167641 C12.835991,7.73167641 13.1884685,6.93743665 13.1884685,5.37034308 C13.1884685,5.14769591 13.0735586,4.96634113 12.9628378,4.79072515 C12.7998649,4.5340039 12.6318919,4.26809162 12.7314414,3.81436842 C12.7756306,3.61274854 12.6510811,3.41224951 12.4500901,3.36176608 C11.522973,3.12916569 10.5504505,3.03084405 9.59220721,3.06868421 C9.38004505,3.07711306 9.21513514,3.25537427 9.2236036,3.46658869 C9.23198198,3.67739961 9.39765766,3.84041715 9.62328829,3.83351267 Z" id="Shape" fill-rule="nonzero"></path>
                                    <path d="M10.1118468,20.9511618 C10.4762613,20.9511618 10.8168018,20.8199318 11.0466667,20.5915458 C11.3018919,20.3375146 11.3641892,19.9640897 11.2219369,19.5405848 C11.1262162,19.2544074 10.9367117,18.9517758 10.714955,18.7310117 C10.605,18.6219747 10.4559009,18.5618967 10.2940541,18.5618967 C9.81432432,18.5618967 9.25162162,19.1112963 9.04635135,19.6044288 C8.88608108,19.9896901 8.93373874,20.3489474 9.17743243,20.591501 C9.40689189,20.8199318 9.74747748,20.9511618 10.1118468,20.9511618 Z M9.81972973,19.7751131 C9.95234234,19.557039 10.1395495,19.4032573 10.241036,19.3485146 C10.3501802,19.4774581 10.4447748,19.6389064 10.4927928,19.7823762 C10.5354505,19.9090331 10.5393243,20.0142144 10.5031532,20.0501715 C10.3324775,20.2200487 9.88891892,20.2154308 9.72283784,20.054386 C9.71747748,20.0379318 9.71788288,19.9423002 9.81972973,19.7751131 Z" id="Shape" fill-rule="nonzero"></path>
                                    <path d="M0.589099099,11.0724152 C0.617162162,11.0789162 0.645225225,11.0816062 0.672882883,11.0816062 C0.848918919,11.0816062 1.00765766,10.9603294 1.04765766,10.7824269 C1.32135135,9.56006433 2.27576577,7.75960819 3.04990991,7.00477778 C3.20135135,6.85709357 3.20405405,6.61494347 3.05567568,6.46380702 C2.90653153,6.31267057 2.6631982,6.31038402 2.51216216,6.45806823 C1.6372973,7.3108616 0.602522523,9.25362183 0.297342342,10.6160019 C0.251261261,10.8221949 0.381936937,11.0265049 0.589099099,11.0724152 Z" id="Shape" fill-rule="nonzero"></path>
                                    <path d="M5.08716216,7.89083821 C5.16018018,7.98149318 5.2704955,8.03430799 5.38738739,8.03430799 C5.50423423,8.03430799 5.61454955,7.98149318 5.68761261,7.89083821 L7.21400901,5.99089474 C7.63608108,5.51112281 8.46247748,4.11471345 8.46247748,3.06065887 C8.46247748,1.37309552 7.08292793,0 5.38738739,0 C3.69184685,0 2.3122973,1.37309552 2.3122973,3.0607037 C2.3122973,4.29301949 3.41585586,5.80003509 3.54963964,5.97793762 L5.08716216,7.89083821 Z M5.38738739,0.765187135 C6.65932432,0.765187135 7.69369369,1.79471735 7.69369369,3.0607037 C7.69369369,3.85189474 6.99486486,5.07847173 6.62472973,5.49969006 L5.38738739,7.03921053 L4.15774775,5.51000195 C3.78567568,5.01341715 3.08108108,3.8625653 3.08108108,3.0607037 C3.08108108,1.79471735 4.11545045,0.765187135 5.38738739,0.765187135 Z" id="Shape" fill-rule="nonzero"></path>
                                    <path d="M5.38738739,3.825846 C5.81135135,3.825846 6.15617117,3.48268421 6.15617117,3.06065887 C6.15617117,2.63867836 5.8113964,2.29547173 5.38738739,2.29547173 C4.96342342,2.29547173 4.6186036,2.63863353 4.6186036,3.06065887 C4.6186036,3.48268421 4.96342342,3.825846 5.38738739,3.825846 Z" id="Shape" fill-rule="nonzero"></path>
                                </g>
                            </g>
                        </g>
                    </g>
                </g>
            </g>
        </g>
    </g>
</svg>