<?xml version="1.0" encoding="utf-8"?>
<!-- Generator: Adobe Illustrator 21.1.0, SVG Export Plug-In . SVG Version: 6.00 Build 0)  -->
<svg version="1.1" id="Слой_1" xmlns="http://www.w3.org/2000/svg" xmlns:xlink="http://www.w3.org/1999/xlink" x="0px" y="0px"
	 viewBox="0 0 48 48" enable-background="new 0 0 48 48" xml:space="preserve">
<title>extra</title>
<desc>Created with Sketch.</desc>
<g id="Page-1">
	<g id="FAQ-" transform="translate(-168.000000, -692.000000)">
		<g id="Group-6" transform="translate(149.000000, 616.000000)">
			<g id="Extra-facilities" transform="translate(10.000000, 68.000000)">
				<g id="extra">
					<g id="Icon_x2F_faq_x2F_extra">
						<g id="travel-_x28_1_x29_" transform="translate(9.000000, 8.000000)">
							<path id="Shape" fill="#5EABDD" d="M38.6,9.2l-1.8-1.1c-0.1-0.1-0.3-0.1-0.5,0l-3.7,1.8l-4.2-1.8c-0.1,0-0.2-0.1-0.3,0
								l-2.1,0.5c-0.2,0-0.4,0.2-0.4,0.4c0,0.2,0.1,0.4,0.2,0.5l3.1,2.1l-2.3,1.1L25,11.9c-0.4-0.2-0.8-0.1-1.1,0.1
								c-0.3,0.3-0.4,0.7-0.3,1.1l0.6,2.2c0.1,0.5,0.5,0.8,1,0.8h1.6c0.1,0,0.1,0,0.2,0l3.3-1.3l-0.4,4c0,0.2,0.1,0.4,0.2,0.5
								c0.1,0.1,0.2,0.1,0.3,0.1c0.1,0,0.2,0,0.2-0.1l2.1-1.1c0.1-0.1,0.2-0.2,0.3-0.3l1.5-4.7l4.1-2.2c0.3-0.2,0.6-0.5,0.6-0.9
								C39.1,9.8,39,9.4,38.6,9.2z M27.5,9.3l0.7-0.2l3.2,1.4l-1.3,0.6L27.5,9.3z M33.8,12.4c-0.1,0.1-0.2,0.2-0.3,0.3L32,17.4
								l-1,0.5l0.4-3.9c0-0.2-0.1-0.4-0.2-0.5c-0.1-0.1-0.2-0.1-0.3-0.1c-0.1,0-0.1,0-0.2,0l-4,1.6h-1.5l-0.6-2.2l2,1.1
								c0.1,0.1,0.3,0.1,0.5,0l9.6-4.7l1.5,1L33.8,12.4z"/>
							<path id="Shape_1_" fill="#5EABDD" d="M38,29.7h-0.6l-3.3-5.8c0,0,0,0,0,0c-0.3-0.4-0.8-0.6-1.2-0.6H11.4
								c-0.7,0-1.3,0.5-1.5,1.3l-1,5.3c-0.2,0.1-0.4,0.3-0.4,0.5v4.9c0,1.5,1.2,2.7,2.6,2.7h1.2c0.4,1.3,1.6,2.2,2.9,2.2
								s2.5-0.9,2.9-2.2h4.3h6.7h1.6c0.4,1.3,1.6,2.2,2.9,2.2s2.5-0.9,2.9-2.2h0.3c1.4,0,2.6-1.2,2.6-2.7v-3.8
								C39.5,30.4,38.8,29.7,38,29.7z M29.7,24.2h3.1c0.2,0,0.3,0.1,0.4,0.2l2.9,5.2h-6.4V24.2z M23,24.2h5.7v5.4H23V24.2z
								 M16.2,24.2h5.7v5.4h-5.7V24.2z M10.9,24.6c0.1-0.2,0.3-0.4,0.5-0.4h3.8v5.4H9.9L10.9,24.6z M15.2,38.9c-1.1,0-2.1-1-2.1-2.2
								c0-1.2,0.9-2.2,2.1-2.2s2.1,1,2.1,2.2C17.3,37.9,16.4,38.9,15.2,38.9z M33.7,38.9c-1.1,0-2.1-1-2.1-2.2
								c0-1.2,0.9-2.2,2.1-2.2s2.1,1,2.1,2.2C35.8,37.9,34.8,38.9,33.7,38.9z M38.5,35.1c0,0.9-0.7,1.6-1.6,1.6h-0.1
								c0-1.8-1.4-3.2-3.1-3.2c-1.7,0-3.1,1.5-3.1,3.2h-0.9v-4.9h-1v4.9H23v-4.9h-1v4.9h-3.6c0-1.8-1.4-3.2-3.1-3.2
								c-1.7,0-3.1,1.5-3.1,3.2h-1c-0.9,0-1.6-0.7-1.6-1.6v-4.3H37H38c0.3,0,0.5,0.2,0.5,0.5V35.1z"/>
							<path id="Shape_2_" fill="#5EABDD" d="M18.6,14.8c-0.4,0.2-0.7,0.5-0.9,0.9l0.9,0.6c0.1-0.2,0.3-0.4,0.6-0.5L18.6,14.8z"/>
							<rect id="Rectangle-path" x="19.9" y="14.5" fill="#5EABDD" width="1" height="1.1"/>
							<path id="Shape_3_" fill="#5EABDD" d="M24.9,19l-0.4,1c0.2,0.1,0.5,0.3,0.6,0.5l0.8-0.7C25.7,19.4,25.3,19.2,24.9,19z"/>
							<path id="Shape_4_" fill="#5EABDD" d="M26.5,21l-1,0.2c0,0.1,0,0.2,0,0.3v0.6h1v-0.6C26.6,21.3,26.6,21.1,26.5,21z"/>
							<rect id="Rectangle-path_1_" x="22.7" y="18.8" fill="#5EABDD" width="1" height="1.1"/>
							<rect id="Rectangle-path_2_" x="21.9" y="14.5" fill="#5EABDD" width="1" height="1.1"/>
							<rect id="Rectangle-path_3_" x="20.6" y="18.8" fill="#5EABDD" width="1" height="1.1"/>
							<path id="Shape_5_" fill="#5EABDD" d="M18.3,17.2c0,0,0-0.1,0-0.1l-1-0.1c0,0.1,0,0.1,0,0.2c0,0.4,0.1,0.8,0.2,1.1l0.9-0.5
								C18.4,17.7,18.3,17.4,18.3,17.2z"/>
							<path id="Shape_6_" fill="#5EABDD" d="M18.9,18.5l-0.6,0.9c0.3,0.3,0.8,0.4,1.2,0.5l0.1-1.1C19.4,18.8,19.1,18.7,18.9,18.5z"
								/>
						</g>
					</g>
				</g>
			</g>
		</g>
	</g>
</g>
</svg>
