<?xml version="1.0" encoding="UTF-8"?>
<svg width="20px" height="18px" viewBox="0 0 20 18" version="1.1" xmlns="http://www.w3.org/2000/svg" xmlns:xlink="http://www.w3.org/1999/xlink">
    <!-- Generator: Sketch 48.2 (47327) - http://www.bohemiancoding.com/sketch -->
    <title>filter</title>
    <desc>Created with Sketch.</desc>
    <defs></defs>
    <g id="Hotel-list_Tablet-Map" stroke="none" stroke-width="1" fill="none" fill-rule="evenodd" transform="translate(-292.000000, -683.000000)">
        <g id="Map-view" transform="translate(0.000000, 572.000000)" fill="#5EABDD">
            <g id="Menu" transform="translate(15.000000, 82.000000)">
                <g id="filter" transform="translate(277.000000, 29.000000)">
                    <g id="filter-(1)">
                        <path d="M19.8987097,0.391755459 C19.798871,0.185344978 19.5857258,0.0536855895 19.3516129,0.0536855895 L0.60483871,0.0536855895 C0.370725806,0.0536855895 0.15766129,0.185344978 0.0577419355,0.391755459 C-0.0420967742,0.598165939 -0.0108064516,0.842148472 0.138145161,1.01821834 L7.34467742,9.53748472 L7.34467742,17.3930306 C7.34467742,17.5970044 7.45282258,17.7864367 7.63056452,17.8939651 C7.72798387,17.9528384 7.83854839,17.9825502 7.94951613,17.9825502 C8.04120968,17.9825502 8.13322581,17.9621921 8.21806452,17.9212402 L12.2670968,15.965214 C12.4728226,15.8658603 12.6029839,15.6615721 12.6033065,15.4377904 L12.6112097,9.53772052 L19.8181452,1.01813974 C19.9671774,0.842148472 19.9985484,0.598087336 19.8987097,0.391755459 Z M11.5400806,8.95071616 C11.4509677,9.05604367 11.4020968,9.18833188 11.4019355,9.32494323 L11.3941935,15.0710306 L8.55443548,16.4428821 L8.55443548,9.32572926 C8.55443548,9.1888821 8.50564516,9.05627948 8.41629032,8.95071616 L1.88741935,1.23264629 L18.0689516,1.23264629 L11.5400806,8.95071616 Z" id="Shape" fill-rule="nonzero"></path>
                    </g>
                </g>
            </g>
        </g>
    </g>
</svg>