<?xml version="1.0" encoding="UTF-8"?>
<svg width="32px" height="32px" viewBox="0 0 32 32" version="1.1" xmlns="http://www.w3.org/2000/svg" xmlns:xlink="http://www.w3.org/1999/xlink">
    <!-- Generator: Sketch 48.2 (47327) - http://www.bohemiancoding.com/sketch -->
    <title>flight</title>
    <desc>Created with Sketch.</desc>
    <defs></defs>
    <g id="Hotel-page" stroke="none" stroke-width="1" fill="none" fill-rule="evenodd" transform="translate(-1088.000000, -3164.000000)">
        <g id="Location" transform="translate(0.000000, 3048.000000)" fill="#5EABDD">
            <g id="Location-right-block" transform="translate(1027.000000, 92.000000)">
                <g id="Location_menu" transform="translate(20.000000, 20.000000)">
                    <g id="Active-tab">
                        <g id="flight" transform="translate(41.000000, 4.000000)">
                            <g id="Shape">
                                <path d="M29.6111875,6.6974191 L28.1070625,6.89989864 L26.1253125,5.55253021 L29.8395,1.18031969 L28.083375,0 L23.1236875,3.51157895 L21.4163125,2.35072125 C20.6228125,1.81751267 19.542625,2.02803899 19.0085,2.81992982 C18.7496875,3.20355556 18.6560625,3.66477973 18.744875,4.11864327 C18.8336875,4.57250682 19.09425,4.96474074 19.48125,5.2248577 L21.1991875,6.36226121 L19.8039375,12.2727173 L21.5601875,13.4528499 L24.2259375,8.36634698 L26.17075,9.65395712 L26.5485,11.1207173 L28.386375,12.3558051 L29.158625,9.7062924 L31.455625,7.93674854 L29.6111875,6.6974191 Z M28.097375,1.14794542 L28.4341875,1.37425341 L25.3390625,5.01782456 L23.9579375,4.07878363 L28.097375,1.14794542 Z M21.21175,12.0802807 L20.8749375,11.8539727 L22.0399375,6.91898635 L23.43325,7.84149708 L21.21175,12.0802807 Z M28.3363125,9.14688499 L27.8399375,10.8500585 L27.3754375,10.5379181 L26.9968125,9.06760234 L20.007,4.43976608 C19.83225,4.32237037 19.713875,4.14409357 19.6735,3.93774659 C19.6331875,3.73146199 19.6756875,3.52180897 19.793375,3.34746199 C20.0361875,2.98753996 20.527125,2.89185185 20.8856875,3.13269396 L27.8743125,7.88416374 L29.3813125,7.68130994 L29.839375,7.98908382 L28.3363125,9.14688499 Z" fill-rule="nonzero"></path>
                                <path d="M1.727625,20.6721871 L0.82825,20.9658012 C0.929125,21.2734503 1.040875,21.5819103 1.1604375,21.8825107 L2.039875,21.5340663 C1.9275625,21.2514932 1.8225,20.9614971 1.727625,20.6721871 Z" fill-rule="nonzero"></path>
                                <path d="M0.2736875,13.2797505 C0.2186875,13.597692 0.17275,13.9217466 0.13725,14.2428694 L1.07775,14.3464795 C1.1111875,14.0443197 1.154375,13.73954 1.206125,13.4404366 L0.2736875,13.2797505 Z" fill-rule="nonzero"></path>
                                <path d="M2.2958125,7.84049903 C2.1298125,8.11739571 1.9701875,8.40296296 1.8215,8.68927875 L2.6615625,9.12380507 C2.8015,8.8545809 2.951625,8.58591813 3.10775,8.32548928 L2.2958125,7.84049903 Z" fill-rule="nonzero"></path>
                                <path d="M1.40025,9.56525536 C1.2695625,9.85992982 1.1461875,10.1625887 1.0336875,10.4649981 L1.92075,10.7938558 C2.026625,10.5094113 2.1425625,10.2247797 2.2655,9.94763353 L1.40025,9.56525536 Z" fill-rule="nonzero"></path>
                                <path d="M0.722625,11.3871345 C0.628875,11.6961559 0.5435625,12.0122261 0.469,12.3266121 L1.3898125,12.5441248 C1.459875,12.2485146 1.540125,11.951345 1.62825,11.6607875 L0.722625,11.3871345 Z" fill-rule="nonzero"></path>
                                <path d="M3.39575,6.23681871 C3.197125,6.49175828 3.0038125,6.75592982 2.8213125,7.02197271 L3.602125,7.5554308 C3.77375,7.30510721 3.955625,7.05653021 4.142625,6.81662378 L3.39575,6.23681871 Z" fill-rule="nonzero"></path>
                                <path d="M1.0248125,17.0889981 L0.081,17.1560546 C0.1039375,17.4781754 0.137125,17.8037271 0.1796875,18.1236023 L1.1176875,17.9994698 C1.0776875,17.6984327 1.0464375,17.3921559 1.0248125,17.0889981 Z" fill-rule="nonzero"></path>
                                <path d="M1.0049375,15.2586979 L0.0599375,15.2122261 C0.046875,15.4760234 0.04025,15.7441248 0.04025,16.0089825 C0.04025,16.0676179 0.0405625,16.1261287 0.0411875,16.184577 L0.987375,16.174347 C0.9868125,16.1192671 0.9865,16.0641248 0.9865,16.0089825 C0.9865,15.7595945 0.99275,15.5070877 1.0049375,15.2586979 Z" fill-rule="nonzero"></path>
                                <path d="M1.2660625,18.902269 L0.3374375,19.0836023 C0.3995625,19.4008577 0.4724375,19.7199844 0.5538125,20.0321871 L1.4695625,19.7944016 C1.3930625,19.5008499 1.3245625,19.2006238 1.2660625,18.902269 Z" fill-rule="nonzero"></path>
                                <path d="M16.0983125,0.0807173489 L16.0925,1.02512281 C16.3969375,1.02693177 16.7053125,1.03822222 17.0091875,1.0585575 L17.0724375,0.116272904 C16.7495625,0.0946276803 16.421875,0.0826510721 16.0983125,0.0807173489 Z" fill-rule="nonzero"></path>
                                <path d="M11.2949375,0.784031189 C10.985,0.879345029 10.674125,0.985512671 10.370875,1.09966472 L10.7046875,1.98331384 C10.989875,1.87602339 11.2821875,1.77615595 11.5735625,1.6865809 L11.2949375,0.784031189 Z" fill-rule="nonzero"></path>
                                <path d="M15.124375,0.103922027 C14.80075,0.121450292 14.4740625,0.148959064 14.153375,0.18588694 L14.2618125,1.12405458 C14.5634375,1.08937232 14.8709375,1.063423 15.1755,1.04701754 L15.124375,0.103922027 Z" fill-rule="nonzero"></path>
                                <path d="M2.40475,22.3749864 L1.5484375,22.7767018 C1.68625,23.0692554 1.8349375,23.3614347 1.9904375,23.6450058 L2.8204375,23.1916413 C2.67425,22.9249123 2.534375,22.6501988 2.40475,22.3749864 Z" fill-rule="nonzero"></path>
                                <path d="M13.189125,0.326674464 C12.8708125,0.383064327 12.5498125,0.450245614 12.2350625,0.526159844 L12.4574375,1.44411696 C12.7535,1.37269396 13.0553125,1.30956725 13.354625,1.25648343 L13.189125,0.326674464 Z" fill-rule="nonzero"></path>
                                <path d="M31.7385,13.3527953 L30.8053125,13.5092398 C30.8556875,13.8085926 30.8975625,14.1137466 30.9295625,14.4162807 L31.8705625,14.3169747 C31.8365,13.9954152 31.7920625,13.6709864 31.7385,13.3527953 Z" fill-rule="nonzero"></path>
                                <path d="M6.1383125,3.48431969 C5.8840625,3.6839922 5.6325625,3.89414425 5.390875,4.10891228 L6.020125,4.81422222 C6.247625,4.61205458 6.4841875,4.41431579 6.7235,4.22643275 L6.1383125,3.48431969 Z" fill-rule="nonzero"></path>
                                <path d="M31.298125,11.4574347 L30.3911875,11.7269084 C30.4780625,12.018152 30.5569375,12.3158207 30.62575,12.6117427 L31.5475,12.398347 C31.474375,12.0837115 31.3905,11.7671423 31.298125,11.4574347 Z" fill-rule="nonzero"></path>
                                <path d="M7.741125,2.37635867 C7.4644375,2.54365692 7.189125,2.72187135 6.9226875,2.9060117 L7.4614375,3.68237037 C7.7120625,3.50902144 7.9710625,3.34147368 8.231375,3.18403119 L7.741125,2.37635867 Z" fill-rule="nonzero"></path>
                                <path d="M4.6829375,4.77766862 C4.4549375,5.00653411 4.230875,5.2454425 4.017125,5.4877193 L4.7273125,6.11181287 C4.9285625,5.88375828 5.1393125,5.65894737 5.3539375,5.44349318 L4.6829375,4.77766862 Z" fill-rule="nonzero"></path>
                                <path d="M9.46825,1.47125146 C9.17275,1.60368031 8.8775,1.74708772 8.590625,1.8974191 L9.0305625,2.73353606 C9.300375,2.59218713 9.5780625,2.45732554 9.8559375,2.33281871 L9.46825,1.47125146 Z" fill-rule="nonzero"></path>
                                <path d="M26.3580625,26.855922 C26.13775,27.065575 25.9080625,27.2711735 25.67525,27.4671657 L26.2854375,28.1890058 C26.5328125,27.9807251 26.7769375,27.762152 27.011,27.5393996 L26.3580625,26.855922 Z" fill-rule="nonzero"></path>
                                <path d="M28.6808125,24.0344327 C28.5176875,24.2906823 28.3444375,24.5452476 28.166,24.7910799 L28.93225,25.3451852 C29.1219375,25.083883 29.306,24.8132865 29.4794375,24.5410058 L28.6808125,24.0344327 Z" fill-rule="nonzero"></path>
                                <path d="M27.60575,25.5153528 C27.4126875,25.7498947 27.20975,25.981692 27.0024375,26.2043821 L27.6956875,26.8471267 C27.9159375,26.6104639 28.1316875,26.3640702 28.336875,26.114807 L27.60575,25.5153528 Z" fill-rule="nonzero"></path>
                                <path d="M21.7739375,29.8452086 C21.4925,29.9622924 21.2039375,30.0721404 20.9159375,30.1716959 L21.225625,31.064078 C21.5318125,30.9581598 21.838875,30.8413879 22.138125,30.7168811 L21.7739375,29.8452086 Z" fill-rule="nonzero"></path>
                                <path d="M23.4209375,29.037848 C23.1561875,29.1883665 22.883375,29.3327096 22.6099375,29.4666355 L23.027125,30.3142924 C23.3178125,30.1718207 23.6079375,30.0183704 23.889375,29.858308 L23.4209375,29.037848 Z" fill-rule="nonzero"></path>
                                <path d="M24.9564375,28.0360546 C24.71175,28.2178246 24.4586875,28.39423 24.2040625,28.5603431 L24.7218125,29.3507992 C24.9924375,29.1742066 25.2615,28.9867602 25.5214375,28.7936374 L24.9564375,28.0360546 Z" fill-rule="nonzero"></path>
                                <path d="M31.943625,15.2872671 L30.9983125,15.3293723 C31.008375,15.5546823 31.0135,15.7832982 31.0135,16.0089201 C31.0135,16.0878285 31.0129375,16.1665497 31.0116875,16.2451462 L31.9578125,16.2598051 C31.959125,16.1763431 31.95975,16.092694 31.95975,16.0088577 C31.9596875,15.7693879 31.95425,15.5265497 31.943625,15.2872671 Z" fill-rule="nonzero"></path>
                                <path d="M30.969875,17.159922 C30.946875,17.4630175 30.9141875,17.7691072 30.87275,18.0698324 L31.810125,18.1985185 C31.854125,17.8789552 31.8889375,17.5535906 31.913375,17.2314074 L30.969875,17.159922 Z" fill-rule="nonzero"></path>
                                <path d="M30.250125,20.7397427 C30.1541875,21.0276803 30.0479375,21.316616 29.93425,21.5985029 L30.812125,21.9510643 C30.933,21.6512749 31.0460625,21.3438752 31.1480625,21.0375984 L30.250125,20.7397427 Z" fill-rule="nonzero"></path>
                                <path d="M29.5666875,22.435306 C29.4363125,22.7089591 29.295625,22.9824873 29.1484375,23.2481559 L29.9765,23.7051384 C30.133,23.4226277 30.2826875,23.1317583 30.4213125,22.8407018 L29.5666875,22.435306 Z" fill-rule="nonzero"></path>
                                <path d="M30.720125,18.9720078 C30.66025,19.2698635 30.590375,19.569653 30.512375,19.8630175 L31.4269375,20.1052943 C31.509875,19.7932788 31.58425,19.4744639 31.647875,19.1577076 L30.720125,18.9720078 Z" fill-rule="nonzero"></path>
                                <path d="M3.2854375,23.9812865 L2.48475,24.4844288 C2.6570625,24.7575828 2.84025,25.0293645 3.02925,25.2919142 L3.7978125,24.7410526 C3.6199375,24.4939727 3.447625,24.238347 3.2854375,23.9812865 Z" fill-rule="nonzero"></path>
                                <path d="M8.5234375,29.0061598 L8.0515,29.8246862 C8.3316875,29.9856218 8.6205625,30.1399454 8.9099375,30.2834152 L9.3308125,29.4375673 C9.0586875,29.3025809 8.787,29.1574893 8.5234375,29.0061598 Z" fill-rule="nonzero"></path>
                                <path d="M6.9943125,27.9993762 L6.426125,28.7545887 C6.6846875,28.9483977 6.952625,29.1367173 7.2225,29.3144327 L7.7435625,28.5260975 C7.489625,28.3588616 7.2375625,28.1817076 6.9943125,27.9993762 Z" fill-rule="nonzero"></path>
                                <path d="M5.598125,26.8140663 L4.9424375,27.4950487 C5.1755,27.7185497 5.418625,27.9380585 5.6651875,28.1472749 L6.278375,27.4279922 C6.0463125,27.2310019 5.8175,27.0244055 5.598125,26.8140663 Z" fill-rule="nonzero"></path>
                                <path d="M4.3555625,25.4681949 L3.6220625,26.0647797 C3.82625,26.3149162 4.041125,26.5622456 4.2605625,26.7999688 L4.9564375,26.1600312 C4.749875,25.9364055 4.54775,25.7036101 4.3555625,25.4681949 Z" fill-rule="nonzero"></path>
                                <path d="M10.162875,29.8186979 L9.794625,30.6886238 C10.0921875,30.8141287 10.3975625,30.9318986 10.7023125,31.0389396 L11.0163125,30.1480546 C10.7298125,30.0473762 10.442625,29.9365926 10.162875,29.8186979 Z" fill-rule="nonzero"></path>
                                <path d="M13.6801875,30.8154386 L13.535125,31.7487407 C13.8545625,31.7981442 14.18,31.8383782 14.5023125,31.8683821 L14.5900625,30.9280312 C14.2868125,30.8998986 13.980625,30.8619727 13.6801875,30.8154386 Z" fill-rule="nonzero"></path>
                                <path d="M11.889875,30.4248889 L11.6314375,31.3333645 C11.9426875,31.4215673 12.26075,31.5012865 12.5769375,31.5702144 L12.779,30.6476413 C12.481625,30.5828304 12.1825,30.5079142 11.889875,30.4248889 Z" fill-rule="nonzero"></path>
                                <path d="M16.422875,30.9874776 C16.1200625,30.9957739 15.810125,30.9950877 15.5053125,30.9852943 L15.4746875,31.9292008 C15.649,31.9348148 15.8256875,31.9376842 16.0000625,31.9376842 C16.1495,31.9376842 16.3005625,31.9356257 16.4490625,31.9315088 L16.422875,30.9874776 Z" fill-rule="nonzero"></path>
                                <path d="M18.24875,30.8262924 C17.9483125,30.8714542 17.6419375,30.9078207 17.3384375,30.9345185 L17.4215625,31.8752437 C17.74425,31.8467992 18.069875,31.8081248 18.3893125,31.7602183 L18.24875,30.8262924 Z" fill-rule="nonzero"></path>
                                <path d="M20.040875,30.4443509 C19.748,30.5258168 19.4485625,30.5993606 19.15075,30.6627992 L19.348375,31.5863704 C19.6650625,31.5188772 19.9835625,31.4407173 20.295,31.3540741 L20.040875,30.4443509 Z" fill-rule="nonzero"></path>
                                <path d="M25.3265625,9.80790643 L24.541625,10.3352515 C25.5924375,11.8933333 26.1849375,13.693692 26.270375,15.5682807 L16.5046875,15.5682807 L16.5046875,10.7204366 L18.0501875,10.7204366 L18.0501875,9.77603119 L16.5046875,9.77603119 L16.5046875,5.82119298 C17.0773125,5.84732943 17.646625,5.92018713 18.2026875,6.03995322 L18.402375,5.11681871 C17.627875,4.94989474 16.8301875,4.86524756 16.0315625,4.86524756 C9.8575,4.86524756 4.8345,9.87839376 4.8345,16.0404834 C4.8345,18.3964444 5.569375,20.5840468 6.8215625,22.3882105 L6.8215625,22.4308148 L6.8511875,22.4308148 C8.74625,25.1344094 11.8079375,26.9657076 15.30125,27.1912671 C15.561875,27.2492164 15.82675,27.2786589 16.094625,27.2786589 C16.3799375,27.2786589 16.6616875,27.244538 16.93875,27.1788538 C22.6901875,26.7164444 27.228625,21.8976686 27.228625,16.0404834 C27.2285625,13.8081559 26.570875,11.6529279 25.3265625,9.80790643 Z M13.171,6.21548538 C12.6019375,6.75661598 12.0790625,7.46061598 11.6203125,8.31594542 C11.3755625,8.77224172 11.1548125,9.26078752 10.9591875,9.77603119 L7.9328125,9.77603119 C9.2435,8.09207018 11.06875,6.82616764 13.171,6.21548538 Z M7.27875,10.7204366 L10.638125,10.7204366 C10.1903125,12.197614 9.932375,13.8486394 9.888,15.5682807 L5.7920625,15.5682807 C5.873,13.7990487 6.4060625,12.1454659 7.27875,10.7204366 Z M5.792,16.5126862 L9.8855,16.5126862 C9.92025,18.277614 10.179375,19.9732398 10.638125,21.4864717 L7.3575625,21.4864717 C6.4383125,20.0333099 5.875375,18.3344405 5.792,16.5126862 Z M8.0326875,22.4308148 L10.95925,22.4308148 C11.1548125,22.9460585 11.3755625,23.4345419 11.620375,23.8909006 C12.0296875,24.6540975 12.4900625,25.2970292 12.98875,25.8112125 C11.0155,25.1977856 9.29675,24.0037427 8.0326875,22.4308148 Z M15.558375,26.2600234 C15.5209375,26.2583392 15.483625,26.2563431 15.4463125,26.2542846 C14.3363125,25.9803821 13.2921875,25.0071579 12.4544375,23.4452086 C12.2821875,23.1240234 12.122875,22.7849357 11.9764375,22.4308148 L15.5583125,22.4308148 L15.5583125,26.2600234 L15.558375,26.2600234 Z M15.558375,21.4864094 L11.629125,21.4864094 C11.143625,19.9956335 10.8685,18.2947057 10.8318125,16.5126238 L15.558375,16.5126238 L15.558375,21.4864094 Z M15.558375,15.5682807 L10.8345,15.5682807 C10.88125,13.8319844 11.1550625,12.1760936 11.6290625,10.7204366 L15.558375,10.7204366 L15.558375,15.5682807 Z M15.5584375,9.77609357 L11.9765,9.77609357 C12.1229375,9.42197271 12.2821875,9.08282261 12.4545,8.76169981 C13.320375,7.14729045 14.4066875,6.16202729 15.5584375,5.92761014 L15.5584375,9.77609357 Z M16.504625,16.5126862 L21.3573125,16.5126862 C21.32075,18.294768 21.0455,19.9956335 20.5600625,21.4864717 L16.5045625,21.4864717 L16.5045625,16.5126862 L16.504625,16.5126862 Z M16.7830625,26.2436803 C16.6905625,26.2504172 16.5978125,26.2557817 16.5046875,26.259961 L16.5046875,22.4307524 L20.2126875,22.4307524 C20.06625,22.7848733 19.907,23.1240234 19.7346875,23.4451462 C18.907125,24.9882573 17.8780625,25.9564912 16.7830625,26.2436803 Z M19.2571875,25.7518908 C19.7340625,25.2478129 20.1751875,24.6250292 20.5689375,23.8909006 C20.8136875,23.4346043 21.0344375,22.9460585 21.2300625,22.4308148 L24.0304375,22.4308148 C22.8055625,23.9549006 21.153625,25.122807 19.2571875,25.7518908 Z M21.5510625,21.4864094 C22.0098125,19.9731774 22.268875,18.2775517 22.3036875,16.5126238 L26.2710625,16.5126238 C26.18775,18.3343782 25.62475,20.0332476 24.7055,21.4864094 L21.5510625,21.4864094 Z" fill-rule="nonzero"></path>
                            </g>
                        </g>
                    </g>
                </g>
            </g>
        </g>
    </g>
</svg>