<?xml version="1.0" encoding="UTF-8"?>
<svg width="20px" height="28px" viewBox="0 0 20 28" version="1.1" xmlns="http://www.w3.org/2000/svg" xmlns:xlink="http://www.w3.org/1999/xlink">
    <!-- Generator: Sketch 48.2 (47327) - http://www.bohemiancoding.com/sketch -->
    <title>golf</title>
    <desc>Created with Sketch.</desc>
    <defs></defs>
    <g id="Main-page" stroke="none" stroke-width="1" fill="none" fill-rule="evenodd" transform="translate(-181.000000, -4559.000000)">
        <g id="Hotel-themes" transform="translate(149.000000, 4058.000000)" fill="#5EABDD">
            <g id="Golf" transform="translate(0.000000, 332.000000)">
                <g id="Group-5" transform="translate(25.000000, 166.000000)">
                    <g id="golf" transform="translate(7.000000, 3.000000)">
                        <g id="Shape">
                            <path d="M8.07457447,6.96685938 C8.16308511,7.05829687 8.27930851,7.10357813 8.39547872,7.10357813 C8.51170213,7.10357813 8.62787234,7.05829687 8.71638298,6.96685938 C9.24744681,6.42085938 9.24744681,5.53278906 8.71638298,4.98678906 C8.18579787,4.44171875 7.32244681,4.44128125 6.79095745,4.98728125 C6.61351064,5.16977344 6.61351064,5.46470313 6.79095745,5.64714063 C6.96797872,5.82963281 7.25531915,5.82963281 7.43276596,5.64714063 C7.60978723,5.46514063 7.89712766,5.46563281 8.07457447,5.64714063 C8.25117021,5.82914063 8.25117021,6.125 8.07457447,6.307 C7.89707447,6.48949219 7.89707447,6.78485937 8.07457447,6.96685938 Z" fill-rule="nonzero"></path>
                            <path d="M10,0 C4.4937234,0 0.0142021277,4.60550781 0.0142021277,10.2666484 C0.0142021277,15.1652266 3.40303191,19.4025781 8.07138298,20.342 C8.32010638,20.391 8.55569149,20.2262813 8.60425532,19.9733516 C8.65239362,19.7204219 8.49212766,19.4754219 8.24611702,19.4259297 C4.00212766,18.5719297 0.921968085,14.7200703 0.921968085,10.2666484 C0.921968085,5.12022656 4.9943617,0.933296875 10,0.933296875 C15.0056383,0.933296875 19.0780319,5.12022656 19.0780319,10.2666484 C19.0780319,15.4130703 15.0056383,19.6 10,19.6 C9.74898936,19.6 9.54611702,19.8090703 9.54611702,20.0666484 C9.54611702,20.3242266 9.74898936,20.5332969 10,20.5332969 C15.5062766,20.5332969 19.9857979,15.9277891 19.9857979,10.2666484 C19.9857979,4.60550781 15.5062766,0 10,0 Z" fill-rule="nonzero"></path>
                            <path d="M14.0851064,20.5333516 C13.8340957,20.5333516 13.6312234,20.7424219 13.6312234,21 C13.6312234,21.2571406 13.4278723,21.4666484 13.1773404,21.4666484 L6.82271277,21.4666484 C6.57218085,21.4666484 6.36882979,21.2571406 6.36882979,21 C6.36882979,20.7424219 6.16595745,20.5333516 5.91494681,20.5333516 C5.66393617,20.5333516 5.46106383,20.7424219 5.46106383,21 C5.46106383,21.7718594 6.07202128,22.4 6.82276596,22.4 L8.70781915,22.4 L9.5525,27.6103516 C9.58882979,27.8348438 9.77808511,28 10.0000532,28 C10.2220213,28 10.4112766,27.8347891 10.4476064,27.6103516 L11.2923404,22.4 L13.1773936,22.4 C13.9281383,22.4 14.5390957,21.7718594 14.5390957,21 C14.5389894,20.7424219 14.336117,20.5333516 14.0851064,20.5333516 Z M10,24.6945781 L9.62824468,22.4 L10.3717553,22.4 L10,24.6945781 Z" fill-rule="nonzero"></path>
                            <path d="M12.2468085,9.27685937 C12.3357979,9.36785937 12.4515426,9.41357812 12.5677128,9.41357812 C12.683883,9.41357812 12.8001064,9.36785937 12.888617,9.27685937 C13.4192021,8.73085937 13.4192021,7.84278906 12.888617,7.29728125 C12.3580319,6.75177344 11.4942553,6.75078906 10.9627128,7.29678906 C10.785266,7.47878906 10.785266,7.77464844 10.9627128,7.95664844 C11.1402128,8.13914062 11.4275,8.13864844 11.6045213,7.95714062 C11.7824468,7.77464844 12.0702128,7.77514062 12.2468085,7.95714062 C12.4238298,8.13864844 12.4238298,8.435 12.2468085,8.617 C12.0697872,8.799 12.0697872,9.09485937 12.2468085,9.27685937 Z" fill-rule="nonzero"></path>
                            <path d="M13.5304255,4.65685938 C13.3534043,4.83935156 13.3534043,5.13471875 13.5304255,5.31721094 C13.7079255,5.49921094 13.9952128,5.49921094 14.172234,5.31721094 C14.3501596,5.13521094 14.6379255,5.13521094 14.8145213,5.31721094 C14.9915426,5.49921094 14.9915426,5.79507031 14.8145213,5.97707031 C14.6375,6.1595625 14.6375,6.45492969 14.8145213,6.63692969 C14.9035106,6.72792969 15.0196809,6.77364844 15.1354255,6.77364844 C15.2516489,6.77364844 15.3678191,6.72792969 15.4563298,6.63692969 C15.9869149,6.09142188 15.9869149,5.20335156 15.4563298,4.65735156 C14.9257447,4.11085938 14.0614894,4.11135156 13.5304255,4.65685938 Z" fill-rule="nonzero"></path>
                            <path d="M10,3.00671875 C9.8225,3.18921094 9.8225,3.48457813 10,3.66707031 C10.1775,3.8495625 10.4643617,3.84907031 10.6418085,3.66707031 C10.8138298,3.49064844 11.1134043,3.49114063 11.283617,3.66707031 C11.4606383,3.84907031 11.461117,4.14542188 11.2840957,4.32692969 C11.1065957,4.50936719 11.1065957,4.80478906 11.2840957,4.98728125 C11.3726064,5.07828125 11.4888298,5.1235625 11.605,5.1235625 C11.7212234,5.1235625 11.8373936,5.07828125 11.9259043,4.98728125 C12.4564894,4.44128125 12.4564894,3.55277344 11.9254255,3.00721094 C11.4116489,2.47892969 10.514734,2.47849219 10,3.00671875 Z" fill-rule="nonzero"></path>
                            <path d="M13.5304255,12.5766484 C13.7079255,12.7591406 13.9952128,12.7591406 14.172234,12.5766484 C14.3492553,12.3946484 14.6370213,12.3946484 14.8145213,12.5766484 C14.9915426,12.7586484 14.9915426,13.055 14.8145213,13.237 C14.6375,13.419 14.6375,13.7144219 14.8145213,13.8968594 C14.9035106,13.9878594 15.0196809,14.0335781 15.1354255,14.0335781 C15.2516489,14.0335781 15.3678191,13.9878594 15.4563298,13.8968594 C15.9873936,13.3508594 15.9873936,12.4627891 15.4563298,11.9163516 C14.9257447,11.3703516 14.0614894,11.3712813 13.5304255,11.9168438 C13.3534043,12.0992813 13.3534043,12.3946484 13.5304255,12.5766484 Z" fill-rule="nonzero"></path>
                            <path d="M16.4195213,10.2666484 C16.5080319,10.3576484 16.6242553,10.4033672 16.7404255,10.4033672 C16.8561702,10.4033672 16.9723936,10.3576484 17.0613298,10.2666484 C17.3182447,10.0025078 17.4603191,9.65064844 17.4603191,9.27685938 C17.4603191,8.90307031 17.3182447,8.55121094 17.0613298,8.28707031 C16.5307447,7.74107031 15.6669681,7.74107031 15.1354255,8.28663281 C14.9584043,8.469125 14.9584043,8.76449219 15.1354255,8.94698437 C15.3129255,9.12898437 15.6002128,9.12898437 15.7777128,8.94698437 C15.954734,8.76498437 16.2429787,8.76498437 16.4195213,8.94698437 C16.5053191,9.03519531 16.5525,9.15233594 16.5525,9.27691406 C16.5525,9.40149219 16.5053191,9.51863281 16.4195213,9.60640625 C16.2420213,9.78878906 16.2420213,10.0842109 16.4195213,10.2666484 Z" fill-rule="nonzero"></path>
                        </g>
                    </g>
                </g>
            </g>
        </g>
    </g>
</svg>