<?xml version="1.0" encoding="UTF-8"?>
<svg width="18px" height="17px" viewBox="0 0 18 17" version="1.1" xmlns="http://www.w3.org/2000/svg" xmlns:xlink="http://www.w3.org/1999/xlink">
    <!-- Generator: Sketch 48.2 (47327) - http://www.bohemiancoding.com/sketch -->
    <title>google-plus</title>
    <desc>Created with Sketch.</desc>
    <defs></defs>
    <g id="Hotel-page" stroke="none" stroke-width="1" fill="none" fill-rule="evenodd" transform="translate(-1169.000000, -5709.000000)" opacity="0.800000012">
        <g id="Footer/desctop" transform="translate(0.000000, 5566.000000)" fill="#5B6D7C" fill-rule="nonzero">
            <g id="Social-networks" transform="translate(1028.000000, 136.000000)">
                <g id="google-plus-circular-button" transform="translate(135.000000, 0.000000)">
                    <g id="google-plus" transform="translate(6.000000, 7.000000)">
                        <path d="M11.115,12.7181863 C11.115,11.2468137 10.2626961,10.5213725 9.32455882,9.73181373 L8.55681373,9.1345098 C8.3222549,8.94357843 8.00318627,8.6872549 8.00318627,8.21818627 C8.00318627,7.74906863 8.32362745,7.45044118 8.60044118,7.17362745 C9.495,6.47 10.3909314,5.72406863 10.3909314,4.14637255 C10.3909314,2.525 9.36681373,1.6727451 8.87730392,1.2677451 L10.1986765,1.2677451 L11.5623039,0.5 L7.17,0.5 C6.01906863,0.5 4.56955882,0.670490196 3.35318627,1.6727451 C2.43686275,2.46093137 1.98955882,3.54911765 1.98955882,4.52955882 C1.98955882,6.19186275 3.26862745,7.87730392 5.52818627,7.87730392 C5.74230392,7.87730392 5.9754902,7.8554902 6.21137255,7.835 C6.105,8.09137255 5.99862745,8.30406863 5.99862745,8.66686275 C5.99862745,9.32686275 6.33955882,9.73318627 6.63818627,10.1163725 C5.67955882,10.1804902 3.8877451,10.2868627 2.56637255,11.0968137 C1.3077451,11.8427451 0.924558824,12.9309314 0.924558824,13.6986275 C0.924558824,15.2763725 2.4177451,16.7476961 5.50911765,16.7476961 C9.17455882,16.7477451 11.115,14.7213725 11.115,12.7181863 Z M6.53044118,7.28137255 C4.69637255,7.28137255 3.86455882,4.91411765 3.86455882,3.48637255 C3.86455882,2.93137255 3.97093137,2.3572549 4.33362745,1.90862745 C4.67455882,1.48181373 5.27181373,1.20362745 5.82681373,1.20362745 C7.59681373,1.20362745 8.51318627,3.5927451 8.51318627,5.12681373 C8.51318627,5.51137255 8.47093137,6.19318627 7.98,6.68406863 C7.63906863,7.025 7.06362745,7.28 6.53044118,7.28137255 Z M6.5522549,15.8518137 C4.27088235,15.8518137 2.7995098,14.765 2.7995098,13.2513725 C2.7995098,11.7377451 4.1645098,11.2263235 4.63362745,11.0559314 C5.5295098,10.7572549 6.68044118,10.7136765 6.87269608,10.7136765 C7.08544118,10.7136765 7.19181373,10.7136765 7.3622549,10.7354902 C8.98362745,11.8864216 9.68588235,12.4618627 9.68588235,13.55 C9.68588235,14.8713725 8.59906863,15.8518137 6.5522549,15.8518137 Z" id="Shape"></path>
                        <polygon id="Shape" points="11.3072549 8.57686275 13.6158824 8.57686275 13.6158824 10.8841176 14.7695588 10.8841176 14.7695588 8.57686275 17.0768627 8.57686275 17.0768627 7.42318627 14.7695588 7.42318627 14.7695588 5.11593137 13.6158824 5.11593137 13.6158824 7.42318627 11.3072549 7.42318627"></polygon>
                    </g>
                </g>
            </g>
        </g>
    </g>
</svg>