<?xml version="1.0" encoding="utf-8"?>
<!-- Generator: Adobe Illustrator 21.1.0, SVG Export Plug-In . SVG Version: 6.00 Build 0)  -->
<svg version="1.1" id="Слой_1" xmlns="http://www.w3.org/2000/svg" xmlns:xlink="http://www.w3.org/1999/xlink" x="0px" y="0px"
	 viewBox="0 0 38 30" enable-background="new 0 0 38 30" xml:space="preserve">
<title>gym</title>
<desc>Created with Sketch.</desc>
<g id="Hotel-page" transform="translate(-151.000000, -1927.000000)">
	<g id="Amenities" transform="translate(0.000000, 1580.000000)">
		<g id="Leisure-and-activities" transform="translate(151.000000, 347.000000)">
			<g id="Group-10-Copy">
				<g id="gym">
					<g id="Shape">
						<path fill="#5EABDD" d="M36.1,5h-1.3V1.9c0-1-0.9-1.9-1.9-1.9h-2.5c-1,0-1.9,0.8-1.9,1.9v5H27l-0.1-0.3
							c-0.7-1.7-2.3-2.8-4.1-2.8h-0.1c-0.3-0.7-1-1.2-1.8-1.2c-0.5,0-0.9,0.2-1.3,0.5c-0.3-0.3-0.8-0.5-1.3-0.5S17.4,2.7,17.1,3
							c-0.3-0.3-0.8-0.5-1.3-0.5S14.9,2.7,14.6,3c-0.3-0.3-0.8-0.5-1.3-0.5c-1,0-1.9,0.8-1.9,1.9v2.5H9.5v-5c0-1-0.9-1.9-1.9-1.9
							H5.1C4,0,3.2,0.8,3.2,1.9V5H1.9C0.9,5,0,5.8,0,6.9v6.2c0,1,0.9,1.9,1.9,1.9h1.3v3.1c0,1,0.9,1.9,1.9,1.9h2.5
							c1,0,1.9-0.8,1.9-1.9v-5h1.4l0.5,1.5c0,0.1,0.1,0.1,0.1,0.2l1.7,2.2l-1.1,11.2c0,0.4,0.1,0.9,0.4,1.2c0.3,0.3,0.7,0.5,1.2,0.5
							h8.6c0.5,0,0.9-0.2,1.2-0.5c0.3-0.3,0.5-0.8,0.4-1.2l-1.1-10.9c0-0.1,0-0.2,0.1-0.3l3.5-2.9c0.3-0.3,0.5-0.6,0.6-1h1.4v5
							c0,1,0.9,1.9,1.9,1.9h2.5c1,0,1.9-0.8,1.9-1.9V15h1.3c1,0,1.9-0.8,1.9-1.9V6.9C38,5.8,37.1,5,36.1,5z M3.2,13.8H1.9
							c-0.3,0-0.6-0.3-0.6-0.6V6.9c0-0.3,0.3-0.6,0.6-0.6h1.3V13.8z M8.2,7.5v5v5.6c0,0.3-0.3,0.6-0.6,0.6H5.1
							c-0.3,0-0.6-0.3-0.6-0.6v-3.8V5.6V1.9c0-0.3,0.3-0.6,0.6-0.6h2.5c0.3,0,0.6,0.3,0.6,0.6V7.5z M20.3,4.4c0-0.3,0.3-0.6,0.6-0.6
							s0.6,0.3,0.6,0.6v3.1v0.6c0,0.2-0.1,0.5-0.3,0.6c0,0,0,0-0.1,0c0,0-0.1,0-0.1,0c0,0-0.1,0-0.1,0c-0.1,0-0.1,0-0.2,0
							c0,0-0.1,0-0.1,0c-0.1,0-0.1,0-0.1-0.1c0,0-0.1,0-0.1-0.1c0,0-0.1-0.1-0.1-0.1c0,0,0,0,0-0.1c0-0.1-0.1-0.2-0.1-0.3V4.4z
							 M17.7,4.4c0-0.3,0.3-0.6,0.6-0.6S19,4,19,4.4v3.8c0,0.3-0.3,0.6-0.6,0.6s-0.6-0.3-0.6-0.6V4.4z M15.2,4.4
							c0-0.3,0.3-0.6,0.6-0.6c0.3,0,0.6,0.3,0.6,0.6v3.8c0,0.3-0.3,0.6-0.6,0.6c-0.3,0-0.6-0.3-0.6-0.6V4.4z M12.7,7.5V4.4
							c0-0.3,0.3-0.6,0.6-0.6s0.6,0.3,0.6,0.6v3.8c0,0.1,0,0.2-0.1,0.3c0,0,0,0,0,0.1c0,0.1-0.1,0.1-0.1,0.1c0,0-0.1,0-0.1,0.1
							c0,0-0.1,0.1-0.1,0.1c0,0-0.1,0-0.1,0c-0.1,0-0.1,0-0.2,0c0,0-0.1,0-0.1,0c0,0-0.1,0-0.1,0c0,0,0,0-0.1,0
							c-0.2-0.1-0.3-0.3-0.3-0.6V7.5z M9.5,11.9V8.1h1.9c0,0.7,0.4,1.3,0.9,1.6c0,0,0.1,0,0.1,0.1c0.1,0,0.1,0.1,0.2,0.1
							c0.1,0,0.1,0,0.2,0.1c0,0,0.1,0,0.1,0c0,0,0,0,0,0c0,0,0.1,0,0.1,0c0.1,0,0.1,0,0.2,0c0,0,0,0,0.1,0c0.1,0,0.1,0,0.2,0
							c0.1,0,0.2,0,0.2,0c0.1,0,0.1,0,0.2,0c0.1,0,0.1-0.1,0.2-0.1c0.1,0,0.1-0.1,0.2-0.1c0.1,0,0.1-0.1,0.2-0.1c0,0,0.1,0,0.1-0.1
							c0,0,0,0,0,0c0,0,0.1,0.1,0.1,0.1c0,0,0.1,0.1,0.1,0.1c0.1,0,0.1,0.1,0.2,0.1c0,0,0.1,0,0.1,0.1c0.1,0,0.2,0.1,0.2,0.1
							c0,0,0.1,0,0.1,0c0.1,0,0.2,0,0.4,0c0.1,0,0.2,0,0.4,0c0,0,0.1,0,0.1,0c0.1,0,0.2,0,0.2-0.1c0,0,0.1,0,0.1-0.1
							c0.1,0,0.1-0.1,0.2-0.1c0,0,0.1-0.1,0.1-0.1c0,0,0.1-0.1,0.1-0.1c0,0,0.1,0.1,0.1,0.1c0,0,0.1,0.1,0.1,0.1
							c0.1,0,0.1,0.1,0.2,0.1c0,0,0.1,0,0.1,0.1c0.1,0,0.1,0,0.2,0.1c0,0,0.1,0,0.1,0c0.1,0,0.2,0,0.4,0s0.2,0,0.4,0
							c0,0,0.1,0,0.1,0c0.1,0,0.2,0,0.2-0.1c0,0,0.1,0,0.1-0.1c0.1,0,0.1-0.1,0.2-0.1c0,0,0.1-0.1,0.1-0.1c0,0,0.1-0.1,0.1-0.1
							c0,0,0,0,0,0c0,0,0.1,0,0.1,0.1c0.1,0,0.1,0.1,0.2,0.1c0,0,0.1,0.1,0.1,0.1c0.1,0,0.1,0.1,0.2,0.1c0.1,0,0.1,0,0.2,0
							c0.1,0,0.2,0,0.2,0c0.1,0,0.1,0,0.2,0c0,0,0,0,0.1,0c0.1,0,0.1,0,0.2,0c0,0,0.1,0,0.1,0c0,0,0,0,0,0c0,0,0.1,0,0.1,0
							c0.1,0,0.2,0,0.2-0.1c0,0,0.1,0,0.1-0.1c0,0,0.1,0,0.1-0.1c0.5-0.3,0.8-0.7,0.9-1.2c0,0.1,0,0.1,0,0.2V11l-0.9,0.9H9.5z
							 M26,12.4c0,0.3-0.1,0.6-0.3,0.7l-3.5,2.9c-0.4,0.3-0.6,0.9-0.6,1.4l1.1,10.9c0,0.1-0.1,0.2-0.1,0.3c0,0-0.1,0.1-0.3,0.1h-8.6
							c-0.1,0-0.2-0.1-0.3-0.1s-0.1-0.1-0.1-0.3l1.1-11.5c0-0.2,0-0.3-0.1-0.4l-1.8-2.3l-0.3-1.1h9.6c0.3,0,0.7-0.1,0.9-0.4l0.9-0.9
							c0.2-0.2,0.4-0.6,0.4-0.9V8.8c0-0.8-0.5-1.5-1.3-1.8V5c1.3,0,2.4,0.8,2.9,2l0.2,0.6c0,0,0,0.1,0,0.2V12.4z M28.5,11.9h-1.3
							V8.1h1.3V11.9z M33.6,5.6v8.8v3.8c0,0.3-0.3,0.6-0.6,0.6h-2.5c-0.3,0-0.6-0.3-0.6-0.6v-5.6v-5V1.9c0-0.3,0.3-0.6,0.6-0.6h2.5
							c0.3,0,0.6,0.3,0.6,0.6V5.6z M36.7,13.1c0,0.3-0.3,0.6-0.6,0.6h-1.3V6.2h1.3c0.3,0,0.6,0.3,0.6,0.6V13.1z"/>
					</g>
				</g>
			</g>
		</g>
	</g>
</g>
</svg>
