<?xml version="1.0" encoding="UTF-8"?>
<svg width="24px" height="22px" viewBox="0 0 24 22" version="1.1" xmlns="http://www.w3.org/2000/svg" xmlns:xlink="http://www.w3.org/1999/xlink">
    <!-- Generator: Sketch 48.2 (47327) - http://www.bohemiancoding.com/sketch -->
    <title>home</title>
    <desc>Created with Sketch.</desc>
    <defs></defs>
    <g id="Main-page" stroke="none" stroke-width="1" fill="none" fill-rule="evenodd" transform="translate(-1057.000000, -4563.000000)">
        <g id="Hotel-themes" transform="translate(149.000000, 4058.000000)" fill="#5EABDD">
            <g id="Family" transform="translate(878.000000, 333.000000)">
                <g id="Group-5" transform="translate(25.000000, 166.000000)">
                    <g id="home" transform="translate(5.000000, 6.000000)">
                        <g id="Shape">
                            <path d="M17.104125,10.1619289 C16.9981406,10.0021297 16.7803125,9.9570251 16.6176563,10.0610879 C16.4549531,10.1651506 16.4090156,10.3789833 16.515,10.5386904 C16.8089063,10.981682 16.9642031,11.4970251 16.9642031,12.0290293 C16.9642031,13.0285565 16.3866094,14.230318 15.337875,15.4129331 C14.3977031,16.4730753 13.1890313,17.3978117 12.0000469,17.9699038 C11.7119531,17.8310921 11.4181875,17.6688996 11.1247969,17.4866402 C10.9606875,17.3846485 10.7435625,17.4326527 10.6397344,17.5937406 C10.5359063,17.7548285 10.58475,17.9680628 10.7488125,18.0700084 C11.1180938,18.2994435 11.4891563,18.4997908 11.8516406,18.6654812 C11.8986563,18.6869749 11.9493281,18.6976987 12,18.6976987 C12.0506719,18.6976987 12.1013438,18.6869749 12.1483594,18.6654812 C13.4707031,18.0611715 14.8265156,17.0409331 15.8681719,15.8663264 C17.028375,14.5580167 17.6673281,13.1952594 17.6673281,12.0290753 C17.6673281,11.3629079 17.4725625,10.7172678 17.104125,10.1619289 Z" fill-rule="nonzero"></path>
                            <path d="M15.8060156,9.00043933 C15.3139687,8.7466569 14.7585469,8.61249372 14.19975,8.61249372 C13.38825,8.61249372 12.6188906,8.88565272 12.0001406,9.38769456 C11.3813906,8.88565272 10.6120312,8.61249372 9.80053125,8.61249372 C7.88840625,8.61249372 6.3328125,10.1451757 6.3328125,12.0290753 C6.3328125,13.6174477 7.501875,15.5290084 9.46003125,17.1425105 C9.52589062,17.1967741 9.60609375,17.2232845 9.68582812,17.2232845 C9.78614062,17.2232845 9.88579687,17.1813096 9.9553125,17.0999833 C10.08,16.9538996 10.0605937,16.7361548 9.91190625,16.613636 C8.137875,15.1518787 7.03584375,13.3951925 7.03584375,12.0290753 C7.03584375,10.5258033 8.27601562,9.30287029 9.8004375,9.30287029 C10.5367031,9.30287029 11.2295625,9.58523431 11.7514219,10.0978619 C11.817375,10.1626192 11.9068125,10.1990251 12.0000937,10.1990251 C12.093375,10.1990251 12.1828125,10.1626192 12.2487656,10.0978619 C12.770625,9.58518828 13.4634844,9.30287029 14.19975,9.30287029 C14.6514375,9.30287029 15.0818437,9.40674895 15.4790625,9.61160669 C15.6509531,9.70029707 15.8634844,9.63530962 15.9537656,9.46653556 C16.0440469,9.29776151 15.9779063,9.08908368 15.8060156,9.00043933 Z" fill-rule="nonzero"></path>
                            <path d="M23.8527656,8.26827197 L12.2043281,0.0988158996 C12.0820781,0.0130711297 11.9179219,0.0130711297 11.795625,0.0988158996 L6.9433125,3.50191213 L6.9433125,1.95031381 L7.00776562,1.95031381 C7.20192187,1.95031381 7.35932812,1.79576151 7.35932812,1.60512552 C7.35932812,1.41448954 7.20192187,1.25993724 7.00776562,1.25993724 L3.26367188,1.25993724 C3.06951563,1.25993724 2.91210938,1.41448954 2.91210938,1.60512552 C2.91210938,1.79576151 3.06951563,1.95031381 3.26367188,1.95031381 L3.328125,1.95031381 L3.328125,6.03738912 L0.147234375,8.26827197 C0.05484375,8.33307531 0,8.43769038 0,8.54916318 L0,10.5915272 C0,10.7208577 0.07359375,10.8392803 0.1906875,10.8984686 C0.30778125,10.9576109 0.4486875,10.9475774 0.555890625,10.8724184 L1.24804688,10.3869916 L1.24804688,17.1903766 L1.18359375,17.1903766 C0.9894375,17.1903766 0.83203125,17.3449289 0.83203125,17.5355649 L0.83203125,21.6202929 C0.83203125,21.8109289 0.9894375,21.9654812 1.18359375,21.9654812 L22.8164062,21.9654812 C23.0105625,21.9654812 23.1679688,21.8109289 23.1679688,21.6202929 L23.1679688,17.5355649 C23.1679688,17.3449289 23.0105625,17.1903766 22.8164062,17.1903766 L22.7519531,17.1903766 L22.7519531,10.3869916 L23.4441094,10.8724184 C23.5048594,10.9150377 23.5764844,10.9367155 23.6484844,10.9367155 C23.7034688,10.9367155 23.7586406,10.9241046 23.8093125,10.8984686 C23.9264062,10.8392803 24,10.7208577 24,10.5915272 L24,8.54916318 C24,8.43769038 23.9451563,8.33307531 23.8527656,8.26827197 Z M4.03125,1.95031381 L6.24023438,1.95031381 L6.24023438,3.9950251 L4.03125,5.54427615 L4.03125,1.95031381 Z M23.296875,9.92075732 L21.3556875,8.55933473 C21.1977187,8.4485523 20.9781094,8.48449791 20.8652812,8.63960251 C20.7524062,8.79470711 20.7890156,9.01033473 20.9470313,9.12111715 L22.048875,9.89387866 L22.048875,17.1903766 L16.1601562,17.1903766 C15.966,17.1903766 15.8085937,17.3449289 15.8085937,17.5355649 C15.8085937,17.7262008 15.966,17.8807531 16.1601562,17.8807531 L22.4648438,17.8807531 L22.4648438,21.2751046 L1.53515625,21.2751046 L1.53515625,17.8807531 L7.83984375,17.8807531 C8.034,17.8807531 8.19140625,17.7262008 8.19140625,17.5355649 C8.19140625,17.3449289 8.034,17.1903766 7.83984375,17.1903766 L1.95117188,17.1903766 L1.95117188,9.89387866 L12,2.84628452 L19.6985156,8.24553556 C19.8565312,8.35636402 20.0760938,8.32041841 20.1889219,8.16531381 C20.3017969,8.01016318 20.2651875,7.79458159 20.1071719,7.68375314 L12.2043281,2.14117992 C12.0820781,2.05543515 11.9179219,2.05543515 11.795625,2.14117992 L0.703125,9.92075732 L0.703125,8.72682008 L12,0.803920502 L23.296875,8.72682008 L23.296875,9.92075732 Z" fill-rule="nonzero"></path>
                        </g>
                    </g>
                </g>
            </g>
        </g>
    </g>
</svg>