<?xml version="1.0" encoding="UTF-8"?>
<svg width="24px" height="22px" viewBox="0 0 24 22" version="1.1" xmlns="http://www.w3.org/2000/svg" xmlns:xlink="http://www.w3.org/1999/xlink">
    <!-- Generator: Sketch 48.2 (47327) - http://www.bohemiancoding.com/sketch -->
    <title>hotel</title>
    <desc>Created with Sketch.</desc>
    <defs></defs>
    <g id="Main-page" stroke="none" stroke-width="1" fill="none" fill-rule="evenodd" transform="translate(-472.000000, -4282.000000)">
        <g id="Hotel-themes" transform="translate(149.000000, 4058.000000)" fill="#5EABDD">
            <g id="Central" transform="translate(293.000000, 52.000000)">
                <g id="Group-5" transform="translate(25.000000, 166.000000)">
                    <g id="hotel" transform="translate(5.000000, 6.000000)">
                        <g id="hotel-(5)">
                            <path d="M4.87433729,10.791974 C4.31977197,10.791974 3.8527696,11.2613073 3.8527696,11.8186406 L3.8527696,12.7866406 C3.8527696,12.9333073 3.99870784,13.079974 4.14464608,13.079974 L5.6040285,13.079974 C5.77915439,13.079974 5.89590499,12.9626406 5.89590499,12.7866406 L5.89590499,11.8186406 C5.89590499,11.2613073 5.42890261,10.791974 4.87433729,10.791974 Z M5.31215202,12.4933073 L4.43652257,12.4933073 L4.43652257,11.8186406 C4.43652257,11.583974 4.6408361,11.3786406 4.87433729,11.3786406 C5.10783848,11.3786406 5.31215202,11.583974 5.31215202,11.8186406 L5.31215202,12.4933073 Z" id="Shape" fill-rule="nonzero"></path>
                            <path d="M7.90985273,10.791974 C7.35528741,10.791974 6.88828504,11.2613073 6.88828504,11.8186406 L6.88828504,12.7866406 C6.88828504,12.9333073 7.00503563,13.079974 7.18016152,13.079974 L8.63954394,13.079974 C8.81466983,13.079974 8.93142043,12.9626406 8.93142043,12.7866406 L8.93142043,11.8186406 C8.93142043,11.2613073 8.46441805,10.791974 7.90985273,10.791974 Z M8.34766746,12.4933073 L7.472038,12.4933073 L7.472038,11.8186406 C7.472038,11.583974 7.67635154,11.3786406 7.90985273,11.3786406 C8.14335392,11.3786406 8.34766746,11.583974 8.34766746,11.8186406 L8.34766746,12.4933073 Z" id="Shape" fill-rule="nonzero"></path>
                            <path d="M4.87433729,14.1946406 C4.31977197,14.1946406 3.8527696,14.663974 3.8527696,15.2213073 L3.8527696,16.1893073 C3.8527696,16.3653073 3.99870784,16.4826406 4.14464608,16.4826406 L5.6040285,16.4826406 C5.77915439,16.4826406 5.89590499,16.3653073 5.89590499,16.1893073 L5.89590499,15.2213073 C5.89590499,14.663974 5.42890261,14.1946406 4.87433729,14.1946406 Z M5.31215202,15.895974 L4.43652257,15.895974 L4.43652257,15.2213073 C4.43652257,14.9866406 4.6408361,14.7813073 4.87433729,14.7813073 C5.10783848,14.7813073 5.31215202,14.9866406 5.31215202,15.2213073 L5.31215202,15.895974 Z" id="Shape" fill-rule="nonzero"></path>
                            <path d="M7.90985273,14.1946406 C7.35528741,14.1946406 6.88828504,14.663974 6.88828504,15.2213073 L6.88828504,16.1893073 C6.88828504,16.3653073 7.00503563,16.4826406 7.18016152,16.4826406 L8.63954394,16.4826406 C8.81466983,16.4826406 8.93142043,16.3653073 8.93142043,16.1893073 L8.93142043,15.2213073 C8.93142043,14.663974 8.46441805,14.1946406 7.90985273,14.1946406 Z M8.34766746,15.895974 L7.472038,15.895974 L7.472038,15.2213073 C7.472038,14.9866406 7.67635154,14.7813073 7.90985273,14.7813073 C8.14335392,14.7813073 8.34766746,14.9866406 8.34766746,15.2213073 L8.34766746,15.895974 Z" id="Shape" fill-rule="nonzero"></path>
                            <path d="M10.8578052,10.791974 C10.3032399,10.791974 9.83623753,11.2613073 9.83623753,11.8186406 L9.83623753,12.7866406 C9.83623753,12.9626406 9.95298812,13.079974 10.128114,13.079974 L11.5874964,13.079974 C11.7626223,13.079974 11.8793729,12.9626406 11.8793729,12.7866406 L11.8793729,11.8186406 C11.8793729,11.231974 11.4415582,10.791974 10.8578052,10.791974 Z M11.29562,12.4933073 L10.4199905,12.4933073 L10.4199905,11.8186406 C10.4199905,11.583974 10.624304,11.3786406 10.8578052,11.3786406 C11.0913064,11.3786406 11.29562,11.583974 11.29562,11.8186406 L11.29562,12.4933073 Z" id="Shape" fill-rule="nonzero"></path>
                            <path d="M4.87433729,7.38930729 C4.31977197,7.38930729 3.8527696,7.85864062 3.8527696,8.41597396 L3.8527696,9.38397396 C3.8527696,9.53064062 3.99870784,9.67730729 4.14464608,9.67730729 L5.6040285,9.67730729 C5.77915439,9.67730729 5.89590499,9.55997396 5.89590499,9.38397396 L5.89590499,8.41597396 C5.89590499,7.85864062 5.42890261,7.38930729 4.87433729,7.38930729 Z M5.31215202,9.09064062 L4.43652257,9.09064062 L4.43652257,8.41597396 C4.43652257,8.18130729 4.6408361,7.97597396 4.87433729,7.97597396 C5.10783848,7.97597396 5.31215202,8.18130729 5.31215202,8.41597396 L5.31215202,9.09064062 Z" id="Shape" fill-rule="nonzero"></path>
                            <path d="M7.90985273,7.38930729 C7.35528741,7.38930729 6.88828504,7.85864062 6.88828504,8.41597396 L6.88828504,9.38397396 C6.88828504,9.53064062 7.00503563,9.67730729 7.18016152,9.67730729 L8.63954394,9.67730729 C8.81466983,9.67730729 8.93142043,9.55997396 8.93142043,9.38397396 L8.93142043,8.41597396 C8.93142043,7.85864062 8.46441805,7.38930729 7.90985273,7.38930729 Z M8.34766746,9.09064062 L7.472038,9.09064062 L7.472038,8.41597396 C7.472038,8.18130729 7.67635154,7.97597396 7.90985273,7.97597396 C8.14335392,7.97597396 8.34766746,8.18130729 8.34766746,8.41597396 L8.34766746,9.09064062 Z" id="Shape" fill-rule="nonzero"></path>
                            <path d="M4.87433729,4.04530729 C4.31977197,4.04530729 3.8527696,4.51464063 3.8527696,5.07197396 L3.8527696,6.03997396 C3.8527696,6.18664063 3.99870784,6.33330729 4.14464608,6.33330729 L5.6040285,6.33330729 C5.77915439,6.33330729 5.89590499,6.21597396 5.89590499,6.03997396 L5.89590499,5.07197396 C5.89590499,4.51464063 5.42890261,4.04530729 4.87433729,4.04530729 Z M5.31215202,5.74664063 L4.43652257,5.74664063 L4.43652257,5.07197396 C4.43652257,4.83730729 4.6408361,4.63197396 4.87433729,4.63197396 C5.10783848,4.63197396 5.31215202,4.83730729 5.31215202,5.07197396 L5.31215202,5.74664063 Z" id="Shape" fill-rule="nonzero"></path>
                            <path d="M7.90985273,4.04530729 C7.35528741,4.04530729 6.88828504,4.51464063 6.88828504,5.07197396 L6.88828504,6.03997396 C6.88828504,6.18664063 7.00503563,6.33330729 7.18016152,6.33330729 L8.63954394,6.33330729 C8.81466983,6.33330729 8.93142043,6.21597396 8.93142043,6.03997396 L8.93142043,5.07197396 C8.93142043,4.51464063 8.46441805,4.04530729 7.90985273,4.04530729 Z M8.34766746,5.74664063 L7.472038,5.74664063 L7.472038,5.07197396 C7.472038,4.83730729 7.67635154,4.63197396 7.90985273,4.63197396 C8.14335392,4.63197396 8.34766746,4.83730729 8.34766746,5.07197396 L8.34766746,5.74664063 Z" id="Shape" fill-rule="nonzero"></path>
                            <path d="M10.8578052,4.04530729 C10.3032399,4.04530729 9.83623753,4.51464063 9.83623753,5.07197396 L9.83623753,6.03997396 C9.83623753,6.18664063 9.98217577,6.33330729 10.128114,6.33330729 L11.5874964,6.33330729 C11.7626223,6.33330729 11.8793729,6.21597396 11.8793729,6.03997396 L11.8793729,5.07197396 C11.8793729,4.51464063 11.4123705,4.04530729 10.8578052,4.04530729 Z M11.29562,5.74664063 L10.4199905,5.74664063 L10.4199905,5.07197396 C10.4199905,4.83730729 10.624304,4.63197396 10.8578052,4.63197396 C11.0913064,4.63197396 11.29562,4.83730729 11.29562,5.07197396 L11.29562,5.74664063 Z" id="Shape" fill-rule="nonzero"></path>
                            <path d="M10.8578052,7.38930729 C10.3032399,7.38930729 9.83623753,7.85864062 9.83623753,8.41597396 L9.83623753,9.38397396 C9.83623753,9.55997396 9.95298812,9.67730729 10.128114,9.67730729 L11.5874964,9.67730729 C11.7626223,9.67730729 11.8793729,9.55997396 11.8793729,9.38397396 L11.8793729,8.41597396 C11.8793729,7.85864062 11.4415582,7.38930729 10.8578052,7.38930729 Z M11.29562,9.09064062 L10.4199905,9.09064062 L10.4199905,8.41597396 C10.4199905,8.18130729 10.624304,7.97597396 10.8578052,7.97597396 C11.0913064,7.97597396 11.29562,8.18130729 11.29562,8.41597396 L11.29562,9.09064062 Z" id="Shape" fill-rule="nonzero"></path>
                            <path d="M10.8578052,14.1946406 C10.3032399,14.1946406 9.83623753,14.663974 9.83623753,15.2213073 L9.83623753,16.1893073 C9.83623753,16.3653073 9.95298812,16.4826406 10.128114,16.4826406 L11.5874964,16.4826406 C11.7626223,16.4826406 11.8793729,16.3653073 11.8793729,16.1893073 L11.8793729,15.2213073 C11.8793729,14.663974 11.4415582,14.1946406 10.8578052,14.1946406 Z M11.29562,15.895974 L10.4199905,15.895974 L10.4199905,15.2213073 C10.4199905,14.9866406 10.624304,14.7813073 10.8578052,14.7813073 C11.0913064,14.7813073 11.29562,14.9866406 11.29562,15.2213073 L11.29562,15.895974 Z" id="Shape" fill-rule="nonzero"></path>
                            <path d="M23.7295582,21.439974 L21.2194204,21.439974 L21.2194204,16.3066406 C21.2194204,16.071974 21.423734,15.8666406 21.6572352,15.8666406 C21.8907363,15.8666406 22.0950499,16.071974 22.0950499,16.3066406 C22.0950499,16.4826406 22.2118005,16.599974 22.3869264,16.599974 C22.5620523,16.599974 22.6788029,16.4826406 22.6788029,16.3066406 C22.6788029,15.7493073 22.2118005,15.279974 21.6572352,15.279974 C21.5112969,15.279974 21.3945463,15.3093073 21.2777957,15.367974 C21.423734,14.9573073 21.8031734,14.663974 22.2701758,14.663974 C22.4453017,14.663974 22.5620523,14.5466406 22.5620523,14.3706406 C22.5620523,14.1946406 22.4453017,14.0773073 22.2701758,14.0773073 C21.8615487,14.0773073 21.5112969,14.223974 21.2194204,14.4586406 L21.2194204,13.9013073 C21.2194204,13.7253073 21.1026698,13.607974 20.9275439,13.607974 C20.7524181,13.607974 20.6356675,13.7253073 20.6356675,13.9013073 L20.6356675,14.4586406 C20.343791,14.223974 19.9935392,14.0773073 19.5849121,14.0773073 C19.4097862,14.0773073 19.2930356,14.1946406 19.2930356,14.3706406 C19.2930356,14.5466406 19.4097862,14.663974 19.5849121,14.663974 C20.0519145,14.663974 20.4313539,14.9573073 20.5772922,15.367974 C20.4605416,15.3093073 20.343791,15.279974 20.1978527,15.279974 C19.6432874,15.279974 19.176285,15.7493073 19.176285,16.3066406 C19.176285,16.4826406 19.2930356,16.599974 19.4681615,16.599974 C19.6432874,16.599974 19.760038,16.4826406 19.760038,16.3066406 C19.760038,16.071974 19.9643515,15.8666406 20.1978527,15.8666406 C20.4313539,15.8666406 20.6356675,16.071974 20.6356675,16.3066406 L20.6356675,21.4106406 L16.8120855,21.4106406 L16.8120855,14.663974 C16.8120855,14.2826406 17.103962,13.9893073 17.4834014,13.9893073 C17.8628409,13.9893073 18.1547173,14.2826406 18.1547173,14.663974 C18.1547173,14.839974 18.2714679,14.9573073 18.4465938,14.9573073 C18.6217197,14.9573073 18.7384703,14.839974 18.7384703,14.663974 C18.7384703,13.959974 18.183905,13.4026406 17.4834014,13.4026406 C17.2499002,13.4026406 17.0455867,13.4613073 16.8412732,13.5786406 C16.9580238,12.903974 17.5709644,12.375974 18.2714679,12.375974 C18.4465938,12.375974 18.5633444,12.2586406 18.5633444,12.0826406 C18.5633444,11.9066406 18.4465938,11.7893073 18.2714679,11.7893073 C17.687715,11.7893073 17.1915249,12.023974 16.8120855,12.4053073 L16.8120855,11.495974 C16.8120855,11.319974 16.6953349,11.2026406 16.520209,11.2026406 C16.3450831,11.2026406 16.2283325,11.319974 16.2283325,11.495974 L16.2283325,12.4346406 C15.8488931,12.0533073 15.3527031,11.8186406 14.7689501,11.8186406 C14.5938242,11.8186406 14.4770736,11.935974 14.4770736,12.111974 C14.4770736,12.287974 14.5938242,12.4053073 14.7689501,12.4053073 C15.4694537,12.4053073 16.0823943,12.903974 16.1991449,13.607974 C16.024019,13.4906406 15.7905178,13.431974 15.5570166,13.431974 C14.8565131,13.431974 14.3019477,13.9893073 14.3019477,14.6933073 C14.3019477,14.8693073 14.4186983,14.9866406 14.5938242,14.9866406 C14.7689501,14.9866406 14.8857007,14.8693073 14.8857007,14.6933073 C14.8857007,14.311974 15.1775772,14.0186406 15.5570166,14.0186406 C15.9364561,14.0186406 16.2283325,14.311974 16.2283325,14.6933073 L16.2283325,21.439974 L13.8057577,21.439974 L13.8057577,0.378640625 C13.8057577,0.202640625 13.6890071,0.0853072917 13.5138812,0.0853072917 L2.62688836,0.0853072917 C2.45176247,0.0853072917 2.33501188,0.202640625 2.33501188,0.378640625 L2.33501188,21.4106406 L0.291876485,21.4106406 C0.116750594,21.4106406 0,21.527974 0,21.703974 C0,21.879974 0.116750594,21.9973073 0.291876485,21.9973073 L23.7003705,21.9973073 C23.8754964,21.9973073 23.992247,21.879974 23.992247,21.703974 C24.0214347,21.5573073 23.8754964,21.439974 23.7295582,21.439974 Z M8.81466983,21.439974 L7.00503563,21.439974 L7.00503563,19.591974 C7.00503563,19.063974 7.41366271,18.623974 7.90985273,18.623974 C8.40604276,18.623974 8.81466983,19.063974 8.81466983,19.591974 L8.81466983,21.439974 Z M13.2220048,21.439974 L9.3984228,21.439974 L9.3984228,19.591974 C9.3984228,18.7413073 8.72710689,18.0373073 7.90985273,18.0373073 C7.09259857,18.0373073 6.42128266,18.7413073 6.42128266,19.591974 L6.42128266,21.439974 L2.91876485,21.439974 L2.91876485,2.37330729 L13.2220048,2.37330729 L13.2220048,21.439974 Z M13.2220048,1.75730729 L2.91876485,1.75730729 L2.91876485,0.671973958 L13.2220048,0.671973958 L13.2220048,1.75730729 Z" id="Shape" fill-rule="nonzero"></path>
                            <path d="M19.4681615,2.07997396 C18.4174062,2.07997396 17.5417767,2.95997396 17.5417767,4.01597396 C17.5417767,5.07197396 18.4174062,5.95197396 19.4681615,5.95197396 C20.5189169,5.95197396 21.3945463,5.07197396 21.3945463,4.01597396 C21.3945463,2.93064063 20.5189169,2.07997396 19.4681615,2.07997396 Z M19.4389739,5.36530729 C18.680095,5.36530729 18.096342,4.74930729 18.096342,4.01597396 C18.096342,3.28264063 18.7092827,2.66664063 19.4389739,2.66664063 C20.1978527,2.66664063 20.7816057,3.28264063 20.7816057,4.01597396 C20.7816057,4.74930729 20.1978527,5.36530729 19.4389739,5.36530729 Z" id="Shape" fill-rule="nonzero"></path>
                            <path d="M19.4389739,0.0559739583 C19.263848,0.0559739583 19.1470974,0.173307292 19.1470974,0.349307292 L19.1470974,1.28797396 C19.1470974,1.43464063 19.2930356,1.58130729 19.4389739,1.58130729 C19.6140998,1.58130729 19.7308504,1.46397396 19.7308504,1.28797396 L19.7308504,0.349307292 C19.7308504,0.173307292 19.6140998,0.0559739583 19.4389739,0.0559739583 Z" id="Shape" fill-rule="nonzero"></path>
                            <path d="M21.3945463,0.554640625 C21.2486081,0.466640625 21.0734822,0.525307292 20.9859192,0.671973958 L20.5189169,1.49330729 C20.4605416,1.63997396 20.4897292,1.81597396 20.6356675,1.90397396 C20.6940428,1.93330729 20.7232304,1.93330729 20.7816057,1.93330729 C20.8691686,1.93330729 20.9859192,1.87464063 21.0442945,1.78664062 L21.5112969,0.965307292 C21.5988599,0.818640625 21.5404846,0.642640625 21.3945463,0.554640625 Z" id="Shape" fill-rule="nonzero"></path>
                            <path d="M22.8539287,1.99197396 C22.7663658,1.84530729 22.5912399,1.81597396 22.4453017,1.87464062 L21.6280475,2.34397396 C21.4821093,2.46130729 21.4529216,2.63730729 21.5112969,2.75464062 C21.5696722,2.84264062 21.6572352,2.90130729 21.7739857,2.90130729 C21.832361,2.90130729 21.8615487,2.90130729 21.919924,2.87197396 L22.7371781,2.40264062 C22.8831164,2.31464062 22.912304,2.13864062 22.8539287,1.99197396 Z" id="Shape" fill-rule="nonzero"></path>
                            <path d="M23.0874299,3.63464062 L22.1534252,3.66397396 C21.9782993,3.66397396 21.8615487,3.81064063 21.8615487,3.95730729 C21.8615487,4.10397396 22.0074869,4.25064063 22.1534252,4.25064063 L23.0874299,4.22130729 C23.2625558,4.22130729 23.3793064,4.07464063 23.3793064,3.92797396 C23.3793064,3.75197396 23.2333682,3.63464062 23.0874299,3.63464062 Z" id="Shape" fill-rule="nonzero"></path>
                            <path d="M22.7955534,5.51197396 L21.9782993,5.04264062 C21.832361,4.95464062 21.6572352,5.01330729 21.5696722,5.15997396 C21.4821093,5.30664062 21.5404846,5.48264062 21.6864228,5.57064062 L22.503677,6.03997396 C22.5620523,6.06930729 22.5912399,6.06930729 22.6496152,6.06930729 C22.7663658,6.06930729 22.8539287,6.01064063 22.912304,5.92264063 C22.999867,5.77597396 22.9414917,5.59997396 22.7955534,5.51197396 Z" id="Shape" fill-rule="nonzero"></path>
                            <path d="M21.5988599,7.00797396 L21.1026698,6.18664063 C21.0151069,6.03997396 20.839981,6.01064063 20.6940428,6.09864063 C20.5481045,6.18664063 20.5189169,6.36264063 20.6064798,6.50930729 L21.1026698,7.30130729 C21.1610451,7.38930729 21.2486081,7.44797396 21.3653587,7.44797396 C21.423734,7.44797396 21.4821093,7.44797396 21.5112969,7.41864063 C21.6572352,7.33064063 21.6864228,7.15464063 21.5988599,7.00797396 Z" id="Shape" fill-rule="nonzero"></path>
                            <path d="M19.8184133,6.74397396 C19.8184133,6.56797396 19.6724751,6.42130729 19.5265368,6.45064062 C19.3514109,6.45064062 19.2346603,6.59730729 19.2346603,6.74397396 L19.263848,7.68264062 C19.263848,7.82930729 19.4097862,7.97597396 19.5557245,7.97597396 C19.7308504,7.97597396 19.847601,7.82930729 19.847601,7.68264062 L19.8184133,6.74397396 Z" id="Shape" fill-rule="nonzero"></path>
                            <path d="M18.3298432,6.15730729 C18.183905,6.06930729 18.0087791,6.12797396 17.9212162,6.27464063 L17.4834014,7.12530729 C17.3958385,7.27197396 17.4542138,7.44797396 17.600152,7.53597396 C17.6293397,7.56530729 17.687715,7.56530729 17.7460903,7.56530729 C17.8628409,7.56530729 17.9504038,7.50664063 18.0087791,7.41864063 L18.4465938,6.56797396 C18.5341568,6.42130729 18.4757815,6.24530729 18.3298432,6.15730729 Z" id="Shape" fill-rule="nonzero"></path>
                            <path d="M17.3666508,5.30664062 C17.3082755,5.18930729 17.1331496,5.13064062 16.9872114,5.21864062 L16.1991449,5.71730729 C16.0532067,5.80530729 16.024019,5.98130729 16.1115819,6.12797396 C16.1699572,6.21597396 16.2575202,6.27464062 16.3450831,6.27464062 C16.4034584,6.27464062 16.4618337,6.24530729 16.4910214,6.21597396 L17.2790879,5.71730729 C17.4250261,5.62930729 17.4542138,5.45330729 17.3666508,5.30664062 Z" id="Shape" fill-rule="nonzero"></path>
                            <path d="M17.016399,4.13330729 C17.016399,3.95730729 16.8704608,3.83997396 16.7245226,3.86930729 L15.7905178,3.92797396 C15.6153919,3.92797396 15.4986413,4.07464063 15.527829,4.22130729 C15.4986413,4.36797396 15.6445796,4.48530729 15.7905178,4.48530729 L16.7537102,4.42664063 C16.9288361,4.42664063 17.0455867,4.27997396 17.016399,4.13330729 Z" id="Shape" fill-rule="nonzero"></path>
                            <path d="M17.1915249,2.54930729 L16.3450831,2.10930729 C16.1991449,2.05064062 16.024019,2.07997396 15.9656437,2.22664062 C15.8488931,2.37330729 15.9072684,2.54930729 16.0532067,2.60797396 L16.8996485,3.04797396 C16.9288361,3.07730729 16.9872114,3.07730729 17.0455867,3.07730729 C17.1623373,3.07730729 17.2499002,3.01864062 17.3082755,2.93064062 C17.3666508,2.78397396 17.3374632,2.60797396 17.1915249,2.54930729 Z" id="Shape" fill-rule="nonzero"></path>
                            <path d="M18.183905,1.55197396 L17.6585273,0.759973958 C17.5709644,0.613307292 17.3958385,0.583973958 17.2499002,0.671973958 C17.103962,0.759973958 17.0747743,0.935973958 17.1623373,1.08264062 L17.687715,1.90397396 C17.7460903,1.99197396 17.8336532,2.02130729 17.9212162,2.02130729 C17.9795914,2.02130729 18.0379667,1.99197396 18.096342,1.96264062 C18.2422803,1.87464062 18.2714679,1.69864062 18.183905,1.55197396 Z" id="Shape" fill-rule="nonzero"></path>
                        </g>
                    </g>
                </g>
            </g>
        </g>
    </g>
</svg>