<?xml version="1.0" encoding="utf-8"?>
<!-- Generator: Adobe Illustrator 21.1.0, SVG Export Plug-In . SVG Version: 6.00 Build 0)  -->
<svg version="1.1" id="Слой_1" xmlns="http://www.w3.org/2000/svg" xmlns:xlink="http://www.w3.org/1999/xlink" x="0px" y="0px"
	 viewBox="0 0 38 38" enable-background="new 0 0 38 38" xml:space="preserve">
<title>hotel</title>
<desc>Created with Sketch.</desc>
<g id="Hotel-page" transform="translate(-151.000000, -2107.000000)">
	<g id="Amenities" transform="translate(0.000000, 1580.000000)">
		<g id="Room-amenities" transform="translate(151.000000, 526.000000)">
			<g id="hotel" transform="translate(0.000000, 1.000000)">
				<g id="hotel-_x28_3_x29_">
					<path id="Shape" fill="#5EABDD" d="M24.1,24.1v-5.8c0-1-0.9-1.9-1.9-1.9H4.4c-1,0-1.9,0.9-1.9,1.9v5.8C1.1,24.4,0,25.7,0,27.2
						V31v6.3C0,37.7,0.3,38,0.6,38h2.5c0.3,0,0.6-0.3,0.6-0.6v-1.9h19v1.9c0,0.3,0.3,0.6,0.6,0.6H26c0.3,0,0.6-0.3,0.6-0.6V31v-3.8
						C26.6,25.7,25.5,24.4,24.1,24.1z M3.8,18.4c0-0.3,0.3-0.6,0.6-0.6h17.7c0.3,0,0.6,0.3,0.6,0.6v5.7h-1.3v-2.5
						c0-1-0.9-1.9-1.9-1.9h-3.8c-1,0-1.9,0.9-1.9,1.9v2.5h-1.3v-2.5c0-1-0.9-1.9-1.9-1.9H7c-1,0-1.9,0.9-1.9,1.9v2.5H3.8V18.4z
						 M20.3,21.5v2.5h-5.1v-2.5c0-0.3,0.3-0.6,0.6-0.6h3.8C20,20.9,20.3,21.2,20.3,21.5z M11.4,21.5v2.5H6.3v-2.5
						c0-0.3,0.3-0.6,0.6-0.6h3.8C11.1,20.9,11.4,21.2,11.4,21.5z M25.3,36.7h-1.3v-1.9c0-0.3-0.3-0.6-0.6-0.6H3.2
						c-0.3,0-0.6,0.3-0.6,0.6v1.9H1.3v-5.1h24.1V36.7z M25.3,30.4H1.3v-3.2c0-1,0.9-1.9,1.9-1.9h2.5H12h2.5h6.3h2.5
						c1,0,1.9,0.9,1.9,1.9V30.4z"/>
					<path id="Shape_1_" fill="#5EABDD" d="M37.4,24.1h-8.9c-0.3,0-0.6,0.3-0.6,0.6v5.1v4.4h1.3v-3.8h7.6v3.8H38v-4.4v-5.1
						C38,24.4,37.7,24.1,37.4,24.1z M36.7,29.1h-7.6v-3.8h7.6V29.1z"/>
					<path id="Shape_2_" fill="#5EABDD" d="M36.1,18.8L34.8,15c-0.1-0.3-0.3-0.4-0.6-0.4h-2.5c-0.3,0-0.5,0.2-0.6,0.4l-1.3,3.8
						c-0.1,0.2,0,0.4,0.1,0.6c0.1,0.2,0.3,0.3,0.5,0.3h1.9v1.9H31v1.3h3.8v-1.3h-1.3v-1.9h1.9c0.2,0,0.4-0.1,0.5-0.3
						C36.1,19.2,36.1,19,36.1,18.8z M31.3,18.4l0.8-2.5h1.6l0.8,2.5H31.3z"/>
					<path id="Shape_3_" fill="#5EABDD" d="M37.6,8.3L19.3,0.1c-0.2-0.1-0.4-0.1-0.5,0L0.4,8.3C0.1,8.4,0,8.6,0,8.9v7.6h1.3V9.3
						L19,1.3l17.7,7.9v7.2H38V8.9C38,8.6,37.9,8.4,37.6,8.3z"/>
					<path id="Shape_4_" fill="#5EABDD" d="M23.4,8.8L22.1,9c0,0.2,0,0.4,0,0.5c0,1.7-1.4,3.2-3.2,3.2s-3.2-1.4-3.2-3.2
						s1.4-3.2,3.2-3.2c0.4,0,0.7,0.1,1.1,0.2l0.4-1.2c-0.5-0.2-1-0.3-1.5-0.3c-2.4,0-4.4,2-4.4,4.4s2,4.4,4.4,4.4s4.4-2,4.4-4.4
						C23.4,9.3,23.4,9,23.4,8.8z"/>
					<path id="Shape_5_" fill="#5EABDD" d="M23,5.3l-4,4l-0.8-0.8l-0.9,0.9l1.3,1.3c0.1,0.1,0.3,0.2,0.4,0.2s0.3-0.1,0.4-0.2
						l4.4-4.4L23,5.3z"/>
				</g>
			</g>
		</g>
	</g>
</g>
</svg>
