<?xml version="1.0" encoding="UTF-8"?>
<svg width="50px" height="50px" viewBox="0 0 50 50" version="1.1" xmlns="http://www.w3.org/2000/svg" xmlns:xlink="http://www.w3.org/1999/xlink">
    <!-- Generator: Sketch 49 (51002) - http://www.bohemiancoding.com/sketch -->
    <title>hotel</title>
    <desc>Created with Sketch.</desc>
    <defs></defs>
    <g id="About-us" stroke="none" stroke-width="1" fill="none" fill-rule="evenodd">
        <g transform="translate(-1085.000000, -919.000000)" fill="#5EABDD" id="Benefits">
            <g transform="translate(249.000000, 857.000000)">
                <g id="selected-places" transform="translate(768.000000, 62.000000)">
                    <g id="hotel" transform="translate(68.000000, 0.000000)">
                        <g id="hotel-(7)">
                            <path d="M4.6875,10.15625 L9.375,10.15625 C9.80625,10.15625 10.15625,9.80703125 10.15625,9.375 L10.15625,4.6875 C10.15625,4.25546875 9.80625,3.90625 9.375,3.90625 L4.6875,3.90625 C4.25625,3.90625 3.90625,4.25546875 3.90625,4.6875 L3.90625,9.375 C3.90625,9.80703125 4.25625,10.15625 4.6875,10.15625 Z M5.46875,5.46875 L8.59375,5.46875 L8.59375,8.59375 L5.46875,8.59375 L5.46875,5.46875 Z" id="Shape" fill-rule="nonzero"></path>
                            <path d="M13.28125,10.15625 L17.96875,10.15625 C18.4,10.15625 18.75,9.80703125 18.75,9.375 L18.75,4.6875 C18.75,4.25546875 18.4,3.90625 17.96875,3.90625 L13.28125,3.90625 C12.85,3.90625 12.5,4.25546875 12.5,4.6875 L12.5,9.375 C12.5,9.80703125 12.85,10.15625 13.28125,10.15625 Z M14.0625,5.46875 L17.1875,5.46875 L17.1875,8.59375 L14.0625,8.59375 L14.0625,5.46875 Z" id="Shape" fill-rule="nonzero"></path>
                            <path d="M21.875,10.15625 L26.5625,10.15625 C26.99375,10.15625 27.34375,9.80703125 27.34375,9.375 L27.34375,4.6875 C27.34375,4.25546875 26.99375,3.90625 26.5625,3.90625 L21.875,3.90625 C21.44375,3.90625 21.09375,4.25546875 21.09375,4.6875 L21.09375,9.375 C21.09375,9.80703125 21.44375,10.15625 21.875,10.15625 Z M22.65625,5.46875 L25.78125,5.46875 L25.78125,8.59375 L22.65625,8.59375 L22.65625,5.46875 Z" id="Shape" fill-rule="nonzero"></path>
                            <path d="M4.6875,18.75 L9.375,18.75 C9.80625,18.75 10.15625,18.4007813 10.15625,17.96875 L10.15625,13.28125 C10.15625,12.8492187 9.80625,12.5 9.375,12.5 L4.6875,12.5 C4.25625,12.5 3.90625,12.8492187 3.90625,13.28125 L3.90625,17.96875 C3.90625,18.4007813 4.25625,18.75 4.6875,18.75 Z M5.46875,14.0625 L8.59375,14.0625 L8.59375,17.1875 L5.46875,17.1875 L5.46875,14.0625 Z" id="Shape" fill-rule="nonzero"></path>
                            <path d="M13.28125,18.75 L17.96875,18.75 C18.4,18.75 18.75,18.4007813 18.75,17.96875 L18.75,13.28125 C18.75,12.8492187 18.4,12.5 17.96875,12.5 L13.28125,12.5 C12.85,12.5 12.5,12.8492187 12.5,13.28125 L12.5,17.96875 C12.5,18.4007813 12.85,18.75 13.28125,18.75 Z M14.0625,14.0625 L17.1875,14.0625 L17.1875,17.1875 L14.0625,17.1875 L14.0625,14.0625 Z" id="Shape" fill-rule="nonzero"></path>
                            <path d="M21.875,18.75 L26.5625,18.75 C26.99375,18.75 27.34375,18.4007813 27.34375,17.96875 L27.34375,13.28125 C27.34375,12.8492187 26.99375,12.5 26.5625,12.5 L21.875,12.5 C21.44375,12.5 21.09375,12.8492187 21.09375,13.28125 L21.09375,17.96875 C21.09375,18.4007813 21.44375,18.75 21.875,18.75 Z M22.65625,14.0625 L25.78125,14.0625 L25.78125,17.1875 L22.65625,17.1875 L22.65625,14.0625 Z" id="Shape" fill-rule="nonzero"></path>
                            <path d="M4.6875,27.34375 L9.375,27.34375 C9.80625,27.34375 10.15625,26.9945312 10.15625,26.5625 L10.15625,21.875 C10.15625,21.4429687 9.80625,21.09375 9.375,21.09375 L4.6875,21.09375 C4.25625,21.09375 3.90625,21.4429687 3.90625,21.875 L3.90625,26.5625 C3.90625,26.9945312 4.25625,27.34375 4.6875,27.34375 Z M5.46875,22.65625 L8.59375,22.65625 L8.59375,25.78125 L5.46875,25.78125 L5.46875,22.65625 Z" id="Shape" fill-rule="nonzero"></path>
                            <path d="M13.28125,27.34375 L17.96875,27.34375 C18.4,27.34375 18.75,26.9945312 18.75,26.5625 L18.75,21.875 C18.75,21.4429687 18.4,21.09375 17.96875,21.09375 L13.28125,21.09375 C12.85,21.09375 12.5,21.4429687 12.5,21.875 L12.5,26.5625 C12.5,26.9945312 12.85,27.34375 13.28125,27.34375 Z M14.0625,22.65625 L17.1875,22.65625 L17.1875,25.78125 L14.0625,25.78125 L14.0625,22.65625 Z" id="Shape" fill-rule="nonzero"></path>
                            <path d="M21.875,27.34375 L26.5625,27.34375 C26.99375,27.34375 27.34375,26.9945312 27.34375,26.5625 L27.34375,21.875 C27.34375,21.4429687 26.99375,21.09375 26.5625,21.09375 L21.875,21.09375 C21.44375,21.09375 21.09375,21.4429687 21.09375,21.875 L21.09375,26.5625 C21.09375,26.9945312 21.44375,27.34375 21.875,27.34375 Z M22.65625,22.65625 L25.78125,22.65625 L25.78125,25.78125 L22.65625,25.78125 L22.65625,22.65625 Z" id="Shape" fill-rule="nonzero"></path>
                            <path d="M10.15625,35.15625 L10.15625,30.46875 C10.15625,30.0367188 9.80625,29.6875 9.375,29.6875 L4.6875,29.6875 C4.25625,29.6875 3.90625,30.0367188 3.90625,30.46875 L3.90625,35.15625 C3.90625,35.5882812 4.25625,35.9375 4.6875,35.9375 L9.375,35.9375 C9.80625,35.9375 10.15625,35.5882812 10.15625,35.15625 Z M8.59375,34.375 L5.46875,34.375 L5.46875,31.25 L8.59375,31.25 L8.59375,34.375 Z" id="Shape" fill-rule="nonzero"></path>
                            <path d="M13.28125,35.9375 L17.96875,35.9375 C18.4,35.9375 18.75,35.5882812 18.75,35.15625 L18.75,30.46875 C18.75,30.0367188 18.4,29.6875 17.96875,29.6875 L13.28125,29.6875 C12.85,29.6875 12.5,30.0367188 12.5,30.46875 L12.5,35.15625 C12.5,35.5882812 12.85,35.9375 13.28125,35.9375 Z M14.0625,31.25 L17.1875,31.25 L17.1875,34.375 L14.0625,34.375 L14.0625,31.25 Z" id="Shape" fill-rule="nonzero"></path>
                            <path d="M21.875,35.9375 L26.5625,35.9375 C26.99375,35.9375 27.34375,35.5882812 27.34375,35.15625 L27.34375,30.46875 C27.34375,30.0367188 26.99375,29.6875 26.5625,29.6875 L21.875,29.6875 C21.44375,29.6875 21.09375,30.0367188 21.09375,30.46875 L21.09375,35.15625 C21.09375,35.5882812 21.44375,35.9375 21.875,35.9375 Z M22.65625,31.25 L25.78125,31.25 L25.78125,34.375 L22.65625,34.375 L22.65625,31.25 Z" id="Shape" fill-rule="nonzero"></path>
                            <path d="M33.59375,35.9375 L38.28125,35.9375 C38.7125,35.9375 39.0625,35.5882812 39.0625,35.15625 L39.0625,30.46875 C39.0625,30.0367188 38.7125,29.6875 38.28125,29.6875 L33.59375,29.6875 C33.1625,29.6875 32.8125,30.0367188 32.8125,30.46875 L32.8125,35.15625 C32.8125,35.5882812 33.1625,35.9375 33.59375,35.9375 Z M34.375,31.25 L37.5,31.25 L37.5,34.375 L34.375,34.375 L34.375,31.25 Z" id="Shape" fill-rule="nonzero"></path>
                            <path d="M41.40625,35.9375 L46.09375,35.9375 C46.525,35.9375 46.875,35.5882812 46.875,35.15625 L46.875,30.46875 C46.875,30.0367188 46.525,29.6875 46.09375,29.6875 L41.40625,29.6875 C40.975,29.6875 40.625,30.0367188 40.625,30.46875 L40.625,35.15625 C40.625,35.5882812 40.975,35.9375 41.40625,35.9375 Z M42.1875,31.25 L45.3125,31.25 L45.3125,34.375 L42.1875,34.375 L42.1875,31.25 Z" id="Shape" fill-rule="nonzero"></path>
                            <path d="M49.21875,25.78125 L31.25,25.78125 L31.25,21.09375 L35.15625,21.09375 L35.15625,22.65625 C35.15625,23.0882813 35.50625,23.4375 35.9375,23.4375 L42.1875,23.4375 C42.61875,23.4375 42.96875,23.0882813 42.96875,22.65625 L42.96875,3.90625 C42.96875,3.47421875 42.61875,3.125 42.1875,3.125 L35.9375,3.125 C35.50625,3.125 35.15625,3.47421875 35.15625,3.90625 L35.15625,5.46875 L31.25,5.46875 L31.25,0.78125 C31.25,0.34921875 30.9,0 30.46875,0 L0.78125,0 C0.35,0 0,0.34921875 0,0.78125 L0,46.09375 C0,48.2476562 1.75234375,50 3.90625,50 L10.15625,50 L21.09375,50 L30.46875,50 L37.5,50 L42.1875,50 L46.09375,50 C48.2476562,50 50,48.2476562 50,46.09375 L50,26.5625 C50,26.1304688 49.65,25.78125 49.21875,25.78125 Z M36.71875,4.6875 L41.40625,4.6875 L41.40625,21.875 L36.71875,21.875 L36.71875,4.6875 Z M35.15625,7.03125 L35.15625,19.53125 L31.25,19.53125 L31.25,7.03125 L35.15625,7.03125 Z M1.5625,46.09375 L1.5625,1.5625 L29.6875,1.5625 L29.6875,26.5625 L29.6875,48.4375 L21.875,48.4375 L21.875,39.84375 L23.4375,39.84375 L23.4375,38.28125 L21.09375,38.28125 L10.15625,38.28125 L7.8125,38.28125 L7.8125,39.84375 L9.375,39.84375 L9.375,48.4375 L3.90625,48.4375 C2.6140625,48.4375 1.5625,47.3859375 1.5625,46.09375 Z M10.9375,39.84375 L14.84375,39.84375 L14.84375,48.4375 L10.9375,48.4375 L10.9375,39.84375 Z M16.40625,48.4375 L16.40625,39.84375 L20.3125,39.84375 L20.3125,48.4375 L16.40625,48.4375 Z M38.28125,48.4375 L38.28125,43.75 L41.40625,43.75 L41.40625,48.4375 L38.28125,48.4375 Z M48.4375,46.09375 C48.4375,47.3859375 47.3859375,48.4375 46.09375,48.4375 L42.96875,48.4375 L42.96875,42.96875 C42.96875,42.5367188 42.61875,42.1875 42.1875,42.1875 L37.5,42.1875 C37.06875,42.1875 36.71875,42.5367188 36.71875,42.96875 L36.71875,48.4375 L31.25,48.4375 L31.25,27.34375 L48.4375,27.34375 L48.4375,46.09375 Z" id="Shape" fill-rule="nonzero"></path>
                            <rect id="Rectangle-path" fill-rule="nonzero" x="38.28125" y="9.375" width="1.5625" height="1.5625"></rect>
                            <rect id="Rectangle-path" fill-rule="nonzero" x="38.28125" y="12.5" width="1.5625" height="1.5625"></rect>
                            <rect id="Rectangle-path" fill-rule="nonzero" x="38.28125" y="15.625" width="1.5625" height="1.5625"></rect>
                            <rect id="Rectangle-path" fill-rule="nonzero" x="38.28125" y="18.75" width="1.5625" height="1.5625"></rect>
                            <rect id="Rectangle-path" fill-rule="nonzero" x="38.28125" y="6.25" width="1.5625" height="1.5625"></rect>
                        </g>
                    </g>
                </g>
            </g>
        </g>
    </g>
</svg>