<?xml version="1.0" encoding="UTF-8"?>
<svg width="28px" height="20px" viewBox="0 0 28 20" version="1.1" xmlns="http://www.w3.org/2000/svg" xmlns:xlink="http://www.w3.org/1999/xlink">
    <!-- Generator: Sketch 48.2 (47327) - http://www.bohemiancoding.com/sketch -->
    <title>hug</title>
    <desc>Created with Sketch.</desc>
    <defs></defs>
    <g id="Main-page" stroke="none" stroke-width="1" fill="none" fill-rule="evenodd" transform="translate(-470.000000, -4563.000000)">
        <g id="Hotel-themes" transform="translate(149.000000, 4058.000000)" fill="#5EABDD" fill-rule="nonzero">
            <g id="Romantic" transform="translate(293.000000, 332.000000)">
                <g id="Group-5" transform="translate(25.000000, 166.000000)">
                    <g id="hug" transform="translate(3.000000, 7.000000)">
                        <g id="Shape">
                            <path d="M27.5898438,8.38928962 C27.3632734,8.38928962 27.1796875,8.57278689 27.1796875,8.79918033 L27.1796875,9.27972678 L25.8022188,9.27972678 C25.7711563,9.15939891 25.7332578,9.04103825 25.6888516,8.92551913 C25.7222109,8.88546448 25.7484609,8.83836066 25.7649766,8.78551913 C26.5225078,6.36043716 25.86325,3.73918033 24.0445078,1.9447541 C21.4575156,-0.607704918 17.2483281,-0.607704918 14.6613359,1.9447541 L14.3017109,2.29961749 C14.0230781,2.57448087 13.5696094,2.57459016 13.2910313,2.29961749 L12.9314063,1.9447541 C11.87025,0.897759563 10.4664219,0.231038251 8.97848438,0.0673770492 C7.51351563,-0.093715847 6.01945313,0.234590164 4.77055469,0.991748634 C4.57690625,1.10918033 4.51516406,1.36120219 4.6326875,1.5547541 C4.75021094,1.74830601 5.00242969,1.81005464 5.19613281,1.69256831 C7.49809375,0.29704918 10.4420859,0.640437158 12.3551094,2.52803279 L12.7147344,2.88289617 C13.3112109,3.47142077 14.28175,3.47131148 14.8781719,2.88289617 L15.2377969,2.52803279 C17.5068906,0.289125683 21.1991172,0.289125683 23.4683203,2.52803279 C24.9282578,3.96852459 25.5388438,6.01398907 25.1278672,7.98060109 C25.0228125,7.85699454 24.9081328,7.74060109 24.7845391,7.6326776 C23.7810234,6.75666667 22.127875,5.31349727 21.5745469,4.83021858 C21.3087656,4.59825137 20.902875,4.61163934 20.6508203,4.86027322 L20.6413594,4.86956284 C20.0492578,5.45377049 19.9998203,6.37907104 20.5262969,7.02191257 L21.3674453,8.04868852 C21.3967578,8.08448087 21.4017344,8.12349727 21.3822109,8.16464481 C21.3702344,8.18989071 21.3400469,8.23218579 21.2719609,8.23218579 L16.4764141,8.23218579 C15.8121797,8.23218579 15.2718125,8.76770492 15.2718125,9.42590164 C15.2718125,9.55748634 15.2934141,9.68415301 15.3332813,9.80262295 C14.7068359,9.8442623 14.2101094,10.3625683 14.2101094,10.9937158 C14.2101094,11.6519672 14.7505313,12.1874317 15.4147109,12.1874317 L15.8644063,12.1874317 C15.824375,12.3061749 15.8026641,12.4330601 15.8026641,12.5649727 C15.8026641,13.1965027 16.3000469,13.7150273 16.9270391,13.7561202 C16.8864063,13.8755738 16.8643672,14.0034426 16.8643672,14.1363388 C16.8643672,14.7945355 17.4047891,15.3300546 18.0679297,15.3300546 L19.4772266,15.3337705 C18.3902031,16.2682514 17.2288047,17.125847 16.0152344,17.8894536 L14.1813984,19.0433333 C13.9476094,19.1904372 13.6454609,19.1904372 13.4116719,19.0433333 L11.5778359,17.8894536 C10.3653594,17.1265027 9.20215625,16.2678689 8.1169375,15.3348634 L9.93141406,15.3300546 C10.5956484,15.3300546 11.1360156,14.7945355 11.1360156,14.1363388 C11.1360156,14.0034973 11.1140312,13.8756284 11.0733437,13.7561202 C11.7003359,13.7150273 12.1977187,13.1965027 12.1977187,12.5649727 C12.1977187,12.4330601 12.1760625,12.3061202 12.1359766,12.1874317 L12.5856719,12.1874317 C13.2499062,12.1874317 13.7902734,11.6519126 13.7902734,10.9936612 C13.7902734,10.3625683 13.2935469,9.8442623 12.6671016,9.80262295 C12.7069687,9.68415301 12.7285703,9.55748634 12.7285703,9.42590164 C12.7285703,8.76770492 12.1881484,8.23218579 11.5239687,8.23218579 L6.72842187,8.23218579 C6.66039062,8.23218579 6.63014844,8.18989071 6.61817187,8.16464481 C6.59864844,8.12349727 6.60357031,8.08448087 6.6329375,8.04868852 L7.47408594,7.02191257 C8.00061719,6.37912568 7.95117969,5.45382514 7.35875,4.86928962 L7.34994531,4.86060109 C7.09761719,4.6115847 6.69178125,4.59819672 6.42589062,4.83032787 C5.87261719,5.31349727 4.21941406,6.75672131 3.21600781,7.63273224 C2.96007031,7.85612022 2.74257812,8.1157377 2.56916406,8.40092896 C1.97810156,6.32814208 2.56358594,4.0684153 4.12480469,2.52808743 C4.28596875,2.36907104 4.28766406,2.10956284 4.12846875,1.94846995 C3.96927344,1.78737705 3.70967187,1.7857377 3.54845312,1.94480874 C1.64051562,3.82726776 1.01445312,6.65557377 1.95349219,9.15021858 C1.97197656,9.19939891 1.9989375,9.24295082 2.03213281,9.27983607 L0.8203125,9.27983607 L0.8203125,8.79928962 C0.8203125,8.57295082 0.636726563,8.38939891 0.41015625,8.38939891 C0.183585937,8.38939891 0,8.57278689 0,8.79918033 L0,14.9272678 C0,15.1536066 0.183585938,15.3371585 0.41015625,15.3371585 C0.636726563,15.3371585 0.8203125,15.1536612 0.8203125,14.9272678 L0.8203125,14.2895628 L2.75460937,14.2895628 C3.58919531,14.2895628 4.424875,14.4842077 5.17125,14.8524044 C5.70335938,15.114918 6.28813281,15.2749727 6.88192969,15.3222951 C6.92480469,15.3619126 6.97560938,15.409235 7.02876563,15.4587432 C7.1588125,15.5799454 7.29328906,15.7053005 7.37925781,15.7806011 C8.55252344,16.8080874 9.81799219,17.750929 11.1405,18.5831148 L12.9742812,19.7369945 C13.2239844,19.894153 13.5100547,19.9726776 13.7962344,19.9726776 C14.0823047,19.9726776 14.3685937,19.8940984 14.6181875,19.7370492 L16.4520234,18.5831694 C17.9517187,17.6395082 19.3739219,16.5563934 20.6790937,15.3639344 C20.6885547,15.3553005 20.6974688,15.3463934 20.7058906,15.3371038 L20.7478359,15.3372131 C21.466375,15.3372131 22.1858984,15.1696175 22.8286406,14.8525137 C23.5750156,14.4843169 24.41075,14.2896721 25.2452812,14.2896721 L27.1796875,14.2896721 L27.1796875,14.9273224 C27.1796875,15.1536612 27.3632734,15.3372131 27.5898438,15.3372131 C27.8164141,15.3372131 28,15.1537158 28,14.9273224 L28,8.79918033 C28,8.57278689 27.8164141,8.38928962 27.5898438,8.38928962 Z M7.25205469,14.517377 C6.65880469,14.517377 6.06484375,14.379071 5.53442969,14.117377 C4.67567188,13.6937705 3.71448438,13.4698361 2.75460938,13.4698361 L0.8203125,13.4698361 L0.8203125,10.0993989 L2.5335625,10.0993989 C2.73771094,10.0993989 2.91085156,9.94928962 2.93961719,9.74726776 C3.02203125,9.16896175 3.31171094,8.63721311 3.75533594,8.24994536 C4.70099219,7.42437158 6.22376563,6.09502732 6.85907031,5.54021858 C7.07344531,5.82420765 7.07082031,6.21961749 6.83905469,6.50251366 L5.99790625,7.52928962 C5.76789063,7.81016393 5.72135156,8.18803279 5.87660938,8.51546448 C6.03345313,8.84628415 6.35977344,9.05180328 6.72814844,9.05180328 L11.5236953,9.05180328 C11.7356094,9.05180328 11.9079844,9.21961749 11.9079844,9.42579235 C11.9079844,9.62043716 11.7544219,9.78081967 11.5590234,9.79819672 L7.31067969,9.80333333 C7.08410937,9.80360656 6.90074219,9.9873224 6.90101562,10.2137158 C6.90128906,10.4398907 7.084875,10.6230601 7.31117188,10.6230601 C7.31133594,10.6230601 7.3115,10.6230601 7.31166406,10.6230601 L11.4885312,10.6179781 C11.500125,10.6189617 11.5118281,10.6194536 11.5236953,10.6194536 L12.5853984,10.6194536 C12.7973125,10.6194536 12.9696875,10.7872678 12.9696875,10.9934973 C12.9696875,11.1997268 12.7973125,11.3674863 12.5853984,11.3674863 L9.07998438,11.3674863 L7.29990625,11.3710383 C7.0735,11.3714754 6.89035156,11.555082 6.89057031,11.7813115 C6.89078906,12.0074863 7.07432031,12.190765 7.30072656,12.190765 L10.9928438,12.190765 C11.2047578,12.190765 11.3771328,12.3585792 11.3771328,12.5647541 C11.3771328,12.770929 11.2047578,12.9387432 10.9928438,12.9387432 L7.30985937,12.9459016 C7.08334375,12.946612 6.90030469,13.1307104 6.90101562,13.3571038 C6.90178125,13.5830601 7.08520312,13.7656831 7.31111719,13.7656831 C7.31160937,13.7656831 7.31204687,13.7656831 7.31248437,13.7656831 L9.93108594,13.7621311 C10.143,13.7621311 10.315375,13.9299454 10.315375,14.1361202 C10.315375,14.3422951 10.143,14.5101093 9.92999219,14.5101093 L7.25205469,14.517377 Z M27.1796875,13.4698361 L25.2453906,13.4698361 C24.2855156,13.4698361 23.3243281,13.6937158 22.4655703,14.117377 C21.9351562,14.379071 21.3411406,14.517377 20.7489844,14.517377 L18.0688047,14.5102732 C17.8568906,14.5102732 17.6845156,14.342459 17.6845156,14.1362842 C17.6845156,13.9301093 17.8568906,13.7622951 18.0688047,13.7622951 L18.9097891,13.7622951 L20.6879531,13.765847 C20.6882266,13.765847 20.6885,13.765847 20.6887734,13.765847 C20.9149062,13.765847 21.0984375,13.5828962 21.0989297,13.3568306 C21.0994219,13.1304918 20.9161094,12.946612 20.6895937,12.9461202 L17.0071562,12.9389617 C16.7952422,12.9389617 16.6228672,12.7711475 16.6228672,12.5649727 C16.6228672,12.3587978 16.7952422,12.1909836 17.0071562,12.1909836 L20.7061094,12.1909836 C20.9325156,12.1909836 21.1160469,12.0077049 21.1162656,11.7815301 C21.1164844,11.5553552 20.9332812,11.371694 20.7069297,11.3712568 L18.91925,11.3677049 L15.4146562,11.3677049 C15.2027422,11.3677049 15.0303672,11.1998907 15.0303672,10.9936612 C15.0303672,10.7874317 15.2027422,10.6196721 15.4146562,10.6196721 L16.4454062,10.6196721 C16.4524609,10.6200546 16.459625,10.6202186 16.4667344,10.6202186 L20.6886094,10.623224 C20.6887187,10.623224 20.6887734,10.623224 20.6888828,10.623224 C20.9152891,10.623224 21.098875,10.4398907 21.0990391,10.2136612 C21.0992031,9.9873224 20.9156719,9.8036612 20.6891562,9.80349727 L16.4984531,9.8004918 C16.491125,9.80010929 16.4837422,9.79989071 16.4764141,9.79989071 C16.2645,9.79989071 16.092125,9.63213115 16.092125,9.42590164 C16.092125,9.21967213 16.2645,9.05191257 16.4764141,9.05191257 L21.2719609,9.05191257 C21.6403359,9.05191257 21.9666562,8.84639344 22.1235,8.51557377 C22.2787578,8.18814208 22.2322187,7.81027322 22.0022031,7.52939891 L21.1610547,6.50262295 C20.9292344,6.21956284 20.9266094,5.82404372 21.1409844,5.54027322 C21.7763437,6.09513661 23.2991172,7.42448087 24.2448281,8.25 C24.6883984,8.63721311 24.9780781,9.16901639 25.0604922,9.7473224 C25.0892031,9.94934426 25.2623437,10.0994536 25.4665469,10.0994536 L27.1796875,10.0994536 L27.1796875,13.4698361 Z"></path>
                        </g>
                    </g>
                </g>
            </g>
        </g>
    </g>
</svg>