<?xml version="1.0" encoding="UTF-8"?>
<svg width="22px" height="22px" viewBox="0 0 22 22" version="1.1" xmlns="http://www.w3.org/2000/svg" xmlns:xlink="http://www.w3.org/1999/xlink">
    <!-- Generator: Sketch 49.1 (51147) - http://www.bohemiancoding.com/sketch -->
    <title>internet</title>
    <desc>Created with Sketch.</desc>
    <defs></defs>
    <g id="Page-1" stroke="none" stroke-width="1" fill="none" fill-rule="evenodd">
        <g id="FAQ-" transform="translate(-169.000000, -1781.000000)" fill="#5EABDD">
            <g id="Call-us" transform="translate(149.000000, 1509.000000)">
                <g id="Group-21" transform="translate(20.000000, 20.000000)">
                    <g id="Group-20" transform="translate(0.000000, 252.000000)">
                        <g id="internet">
                            <g id="internet-(1)">
                                <path d="M19.2264828,18.2911034 C20.950069,16.3486552 22,13.7951379 22,11 C22,8.09182759 20.8635862,5.44575862 19.014069,3.47675862 C19.014069,3.47675862 19.014069,3.47637931 19.014069,3.47637931 C19.0125517,3.47410345 19.0102759,3.47334483 19.0091379,3.47144828 C17.0826207,1.42355172 14.3834483,0.112655172 11.3812069,0.00986206897 L11.3808276,0.00948275862 L11.1665172,0.00379310345 C11.1111379,0.00189655172 11.0557586,0 11,0 C10.9442414,0 10.8888621,0.00189655172 10.8334828,0.00379310345 L10.619931,0.00948275862 L10.6195517,0.00986206897 C7.61731034,0.112655172 4.91813793,1.42355172 2.99162069,3.47144828 C2.99010345,3.47334483 2.98782759,3.47410345 2.98668966,3.47637931 C2.98668966,3.47637931 2.98668966,3.47675862 2.98631034,3.47713793 C1.13641379,5.44575862 0,8.09182759 0,11 C0,13.7951379 1.04993103,16.3486552 2.77351724,18.2911034 C2.7757931,18.2945172 2.7757931,18.2983103 2.77844828,18.3017241 C2.78527586,18.3112069 2.79513793,18.3157586 2.80234483,18.3244828 C4.73910345,20.4895862 7.51793103,21.8843103 10.6191724,21.9905172 L10.6195517,21.9908966 L10.8331034,21.9965862 C10.8888621,21.9981034 10.9442414,22 11,22 C11.0557586,22 11.1111379,21.9981034 11.1665172,21.9962069 L11.380069,21.9905172 L11.3804483,21.9901379 C14.4851034,21.8835517 17.2669655,20.4861724 19.2037241,18.3165172 C19.2086552,18.310069 19.2166207,18.3081724 19.2211724,18.3013448 C19.2242069,18.2983103 19.2242069,18.2945172 19.2264828,18.2911034 Z M0.768103448,11.3793103 L5.32096552,11.3793103 C5.36382759,12.9872069 5.67789655,14.5495862 6.237,16.0133448 C5.15824138,16.4036552 4.12689655,16.9271034 3.16041379,17.5802759 C1.73913793,15.8896897 0.854586207,13.7348276 0.768103448,11.3793103 Z M3.36751724,4.18113793 C4.31124138,4.79486207 5.31603448,5.28644828 6.36406897,5.65362069 C5.72227586,7.21144828 5.36724138,8.89103448 5.32096552,10.6206897 L0.768103448,10.6206897 C0.858758621,8.15251724 1.82524138,5.90510345 3.36751724,4.18113793 Z M21.2318966,10.6206897 L16.6790345,10.6206897 C16.6327586,8.89103448 16.2777241,7.21144828 15.635931,5.65362069 C16.6839655,5.28644828 17.6887586,4.79486207 18.6324828,4.18113793 C20.1747586,5.90510345 21.1412414,8.15251724 21.2318966,10.6206897 Z M10.6206897,5.67562069 C9.52410345,5.64451724 8.44762069,5.48103448 7.40755172,5.18896552 C8.17641379,3.6117931 9.262,2.18824138 10.6206897,1.00289655 L10.6206897,5.67562069 Z M10.6206897,6.43424138 L10.6206897,10.6206897 L6.07958621,10.6206897 C6.12624138,8.97144828 6.47217241,7.37189655 7.09082759,5.8887931 C8.23103448,6.21917241 9.41486207,6.402 10.6206897,6.43424138 Z M11.3793103,6.43424138 C12.5851379,6.402 13.7689655,6.21955172 14.9095517,5.8887931 C15.5282069,7.37189655 15.8741379,8.97144828 15.9207931,10.6206897 L11.3793103,10.6206897 L11.3793103,6.43424138 Z M11.3793103,5.67562069 L11.3793103,1.00289655 C12.738,2.18824138 13.8235862,3.6117931 14.5924483,5.18896552 C13.5523793,5.48103448 12.4758966,5.64451724 11.3793103,5.67562069 Z M15.3275517,4.95834483 C14.5988966,3.43162069 13.5876552,2.04068966 12.3355517,0.848517241 C14.5567931,1.13906897 16.5553793,2.14348276 18.0946207,3.62431034 C17.2206897,4.17886207 16.2936552,4.62493103 15.3275517,4.95834483 Z M6.67244828,4.95834483 C5.70634483,4.62493103 4.77931034,4.17886207 3.90575862,3.62431034 C5.44462069,2.14348276 7.44358621,1.13906897 9.66482759,0.848517241 C8.41234483,2.04068966 7.40110345,3.43162069 6.67244828,4.95834483 Z M6.07958621,11.3793103 L10.6206897,11.3793103 L10.6206897,15.1868276 C9.36631034,15.2202069 8.13734483,15.415931 6.95617241,15.7713448 C6.42248276,14.3849655 6.12244828,12.9037586 6.07958621,11.3793103 Z M10.6206897,15.9454483 L10.6206897,20.9971034 C9.16641379,19.7283103 8.0262069,18.1867931 7.25089655,16.4768621 C8.33837931,16.1563448 9.46796552,15.978069 10.6206897,15.9454483 Z M11.3793103,20.9971034 L11.3793103,15.9454483 C12.5320345,15.9776897 13.6616207,16.1563448 14.7491034,16.4764828 C13.9737931,18.1867931 12.8335862,19.7283103 11.3793103,20.9971034 Z M11.3793103,15.1868276 L11.3793103,11.3793103 L15.9204138,11.3793103 C15.8775517,12.9037586 15.5775172,14.3849655 15.0434483,15.7717241 C13.8626552,15.415931 12.6336897,15.2202069 11.3793103,15.1868276 Z M16.6790345,11.3793103 L21.2318966,11.3793103 C21.1454138,13.7348276 20.2612414,15.8896897 18.8395862,17.5802759 C17.8731034,16.9271034 16.8417586,16.4036552 15.763,16.0133448 C16.3224828,14.5495862 16.6361724,12.9872069 16.6790345,11.3793103 Z M3.67589655,18.1484828 C4.57334483,17.5522069 5.52882759,17.0727586 6.52717241,16.7143103 C7.26493103,18.3681034 8.32396552,19.8751034 9.66444828,21.1514828 C7.33131034,20.8461379 5.2432069,19.7537241 3.67589655,18.1484828 Z M12.3355517,21.1514828 C13.6760345,19.8754828 14.735069,18.3684828 15.4728276,16.7143103 C16.4711724,17.0727586 17.4262759,17.5522069 18.3241034,18.1484828 C16.7567931,19.7537241 14.6686897,20.8461379 12.3355517,21.1514828 Z" id="Shape" fill-rule="nonzero"></path>
                            </g>
                        </g>
                    </g>
                </g>
            </g>
        </g>
    </g>
</svg>