<?xml version="1.0" encoding="UTF-8"?>
<svg width="18px" height="18px" viewBox="0 0 18 18" version="1.1" xmlns="http://www.w3.org/2000/svg" xmlns:xlink="http://www.w3.org/1999/xlink">
    <!-- Generator: Sketch 48.2 (47327) - http://www.bohemiancoding.com/sketch -->
    <title>items</title>
    <desc>Created with Sketch.</desc>
    <defs></defs>
    <g id="Hotel-list_Tablet" stroke="none" stroke-width="1" fill="none" fill-rule="evenodd" transform="translate(-681.000000, -682.000000)">
        <g id="List-view" transform="translate(0.000000, 571.000000)" fill="#50E3C2">
            <g id="Menu" transform="translate(15.000000, 82.000000)">
                <g id="Group-5" transform="translate(15.000000, 18.000000)">
                    <g id="items" transform="translate(651.000000, 11.000000)">
                        <g id="options_active">
                            <path d="M6.74071875,9.56953125 L1.6875,9.56953125 C0.75684375,9.56953125 0,10.326375 0,11.2570313 L0,16.3125 C0,17.2431562 0.75684375,18 1.6875,18 L6.74071875,18 C7.671375,18 8.42821875,17.2431562 8.42821875,16.3125 L8.42821875,11.2570313 C8.42821875,10.3266563 7.67109375,9.56953125 6.74071875,9.56953125 Z M7.30321875,16.3125 C7.30321875,16.6227188 7.05121875,16.875 6.74071875,16.875 L1.6875,16.875 C1.377,16.875 1.125,16.6227188 1.125,16.3125 L1.125,11.2570313 C1.125,10.9468125 1.377,10.6945313 1.6875,10.6945313 L6.74071875,10.6945313 C7.05121875,10.6945313 7.30321875,10.9468125 7.30321875,11.2570313 L7.30321875,16.3125 Z" id="Shape" fill-rule="nonzero"></path>
                            <path d="M16.3125,9.56953125 L11.2587188,9.56953125 C10.3280625,9.56953125 9.57121875,10.326375 9.57121875,11.2570313 L9.57121875,16.3125 C9.57121875,17.2431562 10.3280625,18 11.2587188,18 L16.3125,18 C17.2431562,18 18,17.2431562 18,16.3125 L18,11.2570313 C18,10.3266563 17.2431562,9.56953125 16.3125,9.56953125 Z M16.875,16.3125 C16.875,16.6227188 16.6224375,16.875 16.3125,16.875 L11.2587188,16.875 C10.9487813,16.875 10.6962188,16.6227188 10.6962188,16.3125 L10.6962188,11.2570313 C10.6962188,10.9468125 10.9487813,10.6945313 11.2587188,10.6945313 L16.3125,10.6945313 C16.6224375,10.6945313 16.875,10.9468125 16.875,11.2570313 L16.875,16.3125 Z" id="Shape" fill-rule="nonzero"></path>
                            <path d="M6.74071875,0 L1.6875,0 C0.75684375,0 0,0.75684375 0,1.6875 L0,6.74128125 C0,7.6719375 0.75684375,8.42878125 1.6875,8.42878125 L6.74071875,8.42878125 C7.671375,8.42878125 8.42821875,7.6719375 8.42821875,6.74128125 L8.42821875,1.6875 C8.42821875,0.75684375 7.67109375,0 6.74071875,0 Z M7.30321875,6.74128125 C7.30321875,7.0515 7.05121875,7.30378125 6.74071875,7.30378125 L1.6875,7.30378125 C1.377,7.30378125 1.125,7.0515 1.125,6.74128125 L1.125,1.6875 C1.125,1.37728125 1.377,1.125 1.6875,1.125 L6.74071875,1.125 C7.05121875,1.125 7.30321875,1.37728125 7.30321875,1.6875 L7.30321875,6.74128125 Z" id="Shape" fill-rule="nonzero"></path>
                            <path d="M16.3125,0 L11.2587188,0 C10.3280625,0 9.57121875,0.75684375 9.57121875,1.6875 L9.57121875,6.74128125 C9.57121875,7.6719375 10.3280625,8.42878125 11.2587188,8.42878125 L16.3125,8.42878125 C17.2431562,8.42878125 18,7.6719375 18,6.74128125 L18,1.6875 C18,0.75684375 17.2431562,0 16.3125,0 Z M16.875,6.74128125 C16.875,7.0515 16.6224375,7.30378125 16.3125,7.30378125 L11.2587188,7.30378125 C10.9487813,7.30378125 10.6962188,7.0515 10.6962188,6.74128125 L10.6962188,1.6875 C10.6962188,1.37728125 10.9487813,1.125 11.2587188,1.125 L16.3125,1.125 C16.6224375,1.125 16.875,1.37728125 16.875,1.6875 L16.875,6.74128125 Z" id="Shape" fill-rule="nonzero"></path>
                        </g>
                    </g>
                </g>
            </g>
        </g>
    </g>
</svg>