<?xml version="1.0" encoding="UTF-8"?>
<svg width="45px" height="50px" viewBox="0 0 45 50" version="1.1" xmlns="http://www.w3.org/2000/svg" xmlns:xlink="http://www.w3.org/1999/xlink">
    <!-- Generator: Sketch 49 (51002) - http://www.bohemiancoding.com/sketch -->
    <title>key-card</title>
    <desc>Created with Sketch.</desc>
    <defs></defs>
    <g id="About-us" stroke="none" stroke-width="1" fill="none" fill-rule="evenodd">
        <g transform="translate(-307.000000, -1077.000000)" fill="#5EABDD" id="Benefits">
            <g transform="translate(249.000000, 857.000000)">
                <g id="300-Rooms" transform="translate(10.000000, 220.000000)">
                    <g id="key-card" transform="translate(48.000000, 0.000000)">
                        <g transform="translate(22.500000, 25.000000) rotate(90.000000) translate(-22.500000, -25.000000) translate(-2.500000, 2.500000)" id="Shape">
                            <path d="M12.5,23.6842105 L45.8333333,23.6842105 C48.1308333,23.6842105 50,21.9134211 50,19.7368421 L50,3.94736842 C50,1.77078947 48.1308333,0 45.8333333,0 L12.5,0 C10.2025,0 8.33333333,1.77078947 8.33333333,3.94736842 L8.33333333,12.1097368 C3.43833333,14.1063158 -6.66133815e-16,18.7184211 -6.66133815e-16,24.0789474 C-6.66133815e-16,29.445 3.44416667,34.0610526 8.3475,36.0544737 C8.34416667,36.1421053 8.33333333,36.2273684 8.33333333,36.3157895 C8.33333333,41.1039474 12.4458333,45 17.5,45 C20.9566667,45 24.1033333,43.1573684 25.6625,40.2631579 L45.8333333,40.2631579 C46.0866667,40.2631579 46.3258333,40.1542105 46.4841667,39.9671053 L49.8175,36.0197368 C49.9583333,35.8523684 50.0216667,35.6392105 49.9933333,35.4268421 C49.965,35.2144737 49.8466667,35.0226316 49.6666667,34.8947368 L46.3333333,32.5263158 C46.1891667,32.4236842 46.0141667,32.3684211 45.8333333,32.3684211 L44.1666667,32.3684211 C43.8883333,32.3684211 43.6283333,32.5002632 43.4733333,32.7197368 L42.3708333,34.2868421 L40.5891667,32.5989474 C40.4333333,32.4513158 40.2216667,32.3684211 40,32.3684211 L38.3333333,32.3684211 C37.8725,32.3684211 37.5,32.7213158 37.5,33.1578947 L37.5,34.7368421 L35.6008333,34.7368421 L34.9575,32.9084211 C34.8433333,32.5855263 34.5258333,32.3684211 34.1666667,32.3684211 L30.8333333,32.3684211 C30.555,32.3684211 30.295,32.5002632 30.14,32.7197368 L29.1666667,34.1028947 L28.1933333,32.7197368 C28.0383333,32.5002632 27.7783333,32.3684211 27.5,32.3684211 L25.6625,32.3684211 C24.1033333,29.4742105 20.9575,27.6315789 17.5,27.6315789 C13.14,27.6315789 9.4875,30.5328947 8.565,34.4028947 C4.49333333,32.5594737 1.66666667,28.6310526 1.66666667,24.0789474 C1.66666667,19.6128947 4.38666667,15.7468421 8.33333333,13.8607895 L8.33333333,19.7368421 C8.33333333,21.9134211 10.2025,23.6842105 12.5,23.6842105 Z M10,13.2031579 C10.8425,12.9418421 11.7241667,12.765 12.6358333,12.6852632 C13.0275,14.0155263 14.305,15 15.8333333,15 C17.6716667,15 19.1666667,13.5836842 19.1666667,11.8421053 C19.1666667,10.1005263 17.6716667,8.68421053 15.8333333,8.68421053 C14.2633333,8.68421053 12.9516667,9.72078947 12.6,11.1078947 C11.7058333,11.1781579 10.8375,11.3321053 10,11.5578947 L10,3.94736842 C10,2.64157895 11.1216667,1.57894737 12.5,1.57894737 L45.8333333,1.57894737 C47.2116667,1.57894737 48.3333333,2.64157895 48.3333333,3.94736842 L48.3333333,19.7368421 C48.3333333,21.0426316 47.2116667,22.1052632 45.8333333,22.1052632 L12.5,22.1052632 C11.1216667,22.1052632 10,21.0426316 10,19.7368421 L10,13.2031579 Z M14.3983333,11.0526316 C14.6875,10.5828947 15.2191667,10.2631579 15.8333333,10.2631579 C16.7525,10.2631579 17.5,10.9713158 17.5,11.8421053 C17.5,12.7128947 16.7525,13.4210526 15.8333333,13.4210526 C15.2191667,13.4210526 14.6875,13.1013158 14.3983333,12.6315789 L15.8333333,12.6315789 L15.8333333,11.0526316 L14.3983333,11.0526316 Z M13.75,35.5263158 C13.6891667,35.5263158 13.6308333,35.5184211 13.57,35.5176316 C13.8608333,35.0526316 14.39,34.7368421 15,34.7368421 C15.9191667,34.7368421 16.6666667,35.445 16.6666667,36.3157895 C16.6666667,37.1865789 15.9191667,37.8947368 15,37.8947368 C14.3825,37.8947368 13.8475,37.5710526 13.56,37.0957895 C13.6241667,37.0973684 13.6858333,37.1052632 13.75,37.1052632 L15,37.1052632 L15,35.5263158 L13.75,35.5263158 Z M15,39.4736842 C16.8383333,39.4736842 18.3333333,38.0573684 18.3333333,36.3157895 C18.3333333,34.5742105 16.8383333,33.1578947 15,33.1578947 C13.5125,33.1578947 12.2641667,34.0918421 11.8366667,35.3684211 C11.2558333,35.28 10.6841667,35.1655263 10.1341667,35.0013158 C10.7866667,31.71 13.8391667,29.2105263 17.5,29.2105263 C20.4791667,29.2105263 23.1766667,30.8842105 24.3716667,33.4736842 C24.5041667,33.7610526 24.8041667,33.9473684 25.135,33.9473684 L27.0541667,33.9473684 L28.4733333,35.9644737 C28.7825,36.4042105 29.5508333,36.4042105 29.86,35.9644737 L31.2791667,33.9473684 L33.5658333,33.9473684 L34.2091667,35.7757895 C34.3233333,36.0986842 34.6408333,36.3157895 35,36.3157895 L38.3333333,36.3157895 C38.7941667,36.3157895 39.1666667,35.9628947 39.1666667,35.5263158 L39.1666667,33.9473684 L39.655,33.9473684 L41.9108333,36.0844737 C42.0875,36.2518421 42.3308333,36.3339474 42.5825,36.3118421 C42.8308333,36.2889474 43.055,36.1610526 43.1933333,35.9644737 L44.6125,33.9473684 L45.5558333,33.9473684 L47.9783333,35.6692105 L45.4333333,38.6842105 L25.135,38.6842105 C24.8041667,38.6842105 24.5041667,38.8697368 24.3716667,39.1578947 C23.1766667,41.7473684 20.4791667,43.4210526 17.5,43.4210526 C13.4666667,43.4210526 10.1766667,40.3878947 10.015,36.6039474 C10.5741667,36.7539474 11.1483333,36.8668421 11.7341667,36.9489474 C12.0441667,38.3881579 13.3908333,39.4736842 15,39.4736842 Z" fill-rule="nonzero"></path>
                            <path d="M44.1666667,4.73684211 L37.5,4.73684211 C37.0391667,4.73684211 36.6666667,5.08973684 36.6666667,5.52631579 L36.6666667,18.1578947 C36.6666667,18.5944737 37.0391667,18.9473684 37.5,18.9473684 L44.1666667,18.9473684 C44.6275,18.9473684 45,18.5944737 45,18.1578947 L45,5.52631579 C45,5.08973684 44.6275,4.73684211 44.1666667,4.73684211 Z M43.3333333,17.3684211 L38.3333333,17.3684211 L38.3333333,6.31578947 L43.3333333,6.31578947 L43.3333333,17.3684211 Z" fill-rule="nonzero"></path>
                        </g>
                    </g>
                </g>
            </g>
        </g>
    </g>
</svg>