<?xml version="1.0" encoding="UTF-8"?>
<svg width="34px" height="34px" viewBox="0 0 34 34" version="1.1" xmlns="http://www.w3.org/2000/svg" xmlns:xlink="http://www.w3.org/1999/xlink">
    <!-- Generator: Sketch 48.2 (47327) - http://www.bohemiancoding.com/sketch -->
    <title>light-bulb</title>
    <desc>Created with Sketch.</desc>
    <defs></defs>
    <g id="Main-page_open" stroke="none" stroke-width="1" fill="none" fill-rule="evenodd" transform="translate(-555.000000, -774.000000)">
        <g id="Benefits/Hotel-class" transform="translate(0.000000, 564.000000)" fill="#5EABDD">
            <g id="Why-book-with-us" transform="translate(150.000000, 40.000000)">
                <g id="expertise" transform="translate(292.000000, 145.000000)">
                    <g id="Group-33" transform="translate(62.000000, 25.000000)">
                        <g id="light-bulb" transform="translate(51.000000, 0.000000)">
                            <g id="light-bulb-(1)">
                                <path d="M18.7,22.1 C19.0133711,22.1 19.2666445,21.8461289 19.2666445,21.5333555 L19.2666445,13.6 L20.9666445,13.6 C22.528918,13.6 23.8,12.3289844 23.8,10.7666445 C23.8,9.20437109 22.5289844,7.93328906 20.9666445,7.93328906 C19.4043711,7.93328906 18.1332891,9.20430469 18.1332891,10.7666445 L18.1332891,12.4666445 L15.8666445,12.4666445 L15.8666445,10.7666445 C15.8666445,9.20437109 14.5956289,7.93328906 13.0332891,7.93328906 C11.4710156,7.93328906 10.1999336,9.20430469 10.1999336,10.7666445 C10.1999336,12.328918 11.4709492,13.6 13.0332891,13.6 L14.7332891,13.6 L14.7332891,21.5333555 C14.7332891,21.8461289 14.9871602,22.1 15.2999336,22.1 C15.612707,22.1 15.8665781,21.8461289 15.8665781,21.5333555 L15.8665781,13.6 L18.1332227,13.6 L18.1332227,21.5333555 C18.1333555,21.8461289 18.3866289,22.1 18.7,22.1 Z M19.2666445,10.7666445 C19.2666445,9.82938672 20.0293867,9.06664453 20.9666445,9.06664453 C21.9039023,9.06664453 22.6666445,9.82938672 22.6666445,10.7666445 C22.6666445,11.7039023 21.9039023,12.4666445 20.9666445,12.4666445 L19.2666445,12.4666445 L19.2666445,10.7666445 Z M14.7333555,12.4666445 L13.0333555,12.4666445 C12.0960977,12.4666445 11.3333555,11.7039023 11.3333555,10.7666445 C11.3333555,9.82938672 12.0960977,9.06664453 13.0333555,9.06664453 C13.9706133,9.06664453 14.7333555,9.82938672 14.7333555,10.7666445 L14.7333555,12.4666445 Z" id="Shape" fill-rule="nonzero"></path>
                                <path d="M4.046,1.20527344 L6.21522656,3.026 C6.32174219,3.11551562 6.45096875,3.15861328 6.57959766,3.15861328 C6.74109766,3.15861328 6.902,3.09001562 7.01362891,2.95633984 C7.21477344,2.71661328 7.18362891,2.35908203 6.94390234,2.1579375 L4.77474219,0.337144531 C4.53501562,0.13653125 4.17801562,0.167742187 3.97633984,0.406871094 C3.77512891,0.647128906 3.80627344,1.00412891 4.046,1.20527344 Z" id="Shape" fill-rule="nonzero"></path>
                                <path d="M4.41262891,6.15001563 L1.751,5.18161328 C1.45688672,5.07509766 1.13222656,5.22637109 1.02451562,5.52048438 C0.918,5.81459766 1.06927344,6.13985547 1.36338672,6.24696875 L4.02501562,7.21537109 C4.08903125,7.23861328 4.15424219,7.24996875 4.21878906,7.24996875 C4.45001562,7.24996875 4.6675625,7.10659766 4.75143359,6.87656641 C4.85861328,6.58238672 4.70674219,6.25712891 4.41262891,6.15001563 Z" id="Shape" fill-rule="nonzero"></path>
                                <path d="M27.4187422,3.15861328 C27.5467734,3.15861328 27.676,3.11498438 27.7819844,3.026 L29.9523398,1.20414453 C30.1920664,1.003 30.2237422,0.646 30.0220664,0.405742188 C29.822582,0.167144531 29.4650508,0.134871094 29.2241953,0.336015625 L27.0538398,2.15787109 C26.8141133,2.35901563 26.7829687,2.71601563 26.9841133,2.95627344 C27.0957422,3.08948438 27.2566445,3.15861328 27.4187422,3.15861328 Z" id="Shape" fill-rule="nonzero"></path>
                                <path d="M3.39887109,10.7677734 L0.566644531,10.7677734 C0.253871094,10.7677734 0,11.0216445 0,11.334418 C0,11.6471914 0.253871094,11.9010625 0.566644531,11.9010625 L3.39887109,11.9010625 C3.71164453,11.9010625 3.96551563,11.6471914 3.96551563,11.334418 C3.96551563,11.0216445 3.71164453,10.7677734 3.39887109,10.7677734 Z" id="Shape" fill-rule="nonzero"></path>
                                <path d="M32.9743555,5.51875781 C32.8678398,5.22524219 32.5419844,5.07277344 32.2484687,5.18048438 L29.5862422,6.14948438 C29.2915977,6.25659766 29.1402578,6.58185547 29.2473711,6.87596875 C29.3312422,7.10606641 29.5482578,7.24883984 29.7800156,7.24883984 C29.8440312,7.24883984 29.9097734,7.23808203 29.9732578,7.21424219 L32.6360156,6.24524219 C32.9301289,6.13812891 33.082,5.81287109 32.9743555,5.51875781 Z" id="Shape" fill-rule="nonzero"></path>
                                <path d="M17,0 C10.7507734,0 5.66664453,5.08412891 5.66664453,11.3333555 C5.66664453,16.116 7.54228906,19.6837422 11.5707578,22.5612578 C11.5900156,22.5748711 11.6183711,22.5918711 11.6393555,22.6031602 C11.6688398,22.6190312 12.278582,22.9595625 12.431582,23.9150156 C11.7918242,24.1592578 11.3333555,24.7752422 11.3333555,25.5 C11.3333555,25.9352266 11.4977109,26.3324687 11.7673867,26.6333555 C11.4976445,26.9342422 11.3333555,27.3314844 11.3333555,27.7667109 C11.3333555,28.2019375 11.4977109,28.5991133 11.7673867,28.9000664 C11.4976445,29.2009531 11.3333555,29.5981953 11.3333555,30.0334219 C11.3333555,30.9706797 12.0960977,31.7334219 13.0333555,31.7334219 C13.3461289,31.7334219 13.6,31.4795508 13.6,31.1667773 C13.6,30.8540039 13.3461289,30.6001328 13.0333555,30.6001328 C12.7211133,30.6001328 12.4667109,30.3457305 12.4667109,30.0334883 C12.4667109,29.7212461 12.7211133,29.4668437 13.0333555,29.4668437 L18.7,29.4668437 C19.0133711,29.4668437 19.2666445,29.2129727 19.2666445,28.9001992 C19.2666445,28.5874258 19.0133711,28.3335547 18.7,28.3335547 L13.0333555,28.3335547 C12.7211133,28.3335547 12.4667109,28.0791523 12.4667109,27.7669102 C12.4667109,27.454668 12.7211133,27.2002656 13.0333555,27.2002656 L18.7,27.2002656 C19.0133711,27.2002656 19.2666445,26.9463945 19.2666445,26.6336211 C19.2666445,26.3208477 19.0133711,26.0669766 18.7,26.0669766 L13.0333555,26.0669766 C12.7211133,26.0669766 12.4667109,25.8125742 12.4667109,25.500332 C12.4667109,25.1880898 12.7211133,24.9336875 13.0333555,24.9336875 L18.7,24.9336875 C19.0133711,24.9336875 19.2666445,24.6798164 19.2666445,24.367043 C19.2666445,24.0542695 19.0133711,23.8003984 18.7,23.8003984 L13.5614844,23.8003984 C13.3608711,22.3735273 12.4360977,21.7552852 12.2043398,21.621543 C8.46659766,18.9429141 6.80006641,15.7690273 6.80006641,11.3336875 C6.80006641,5.70954297 11.3759219,1.1336875 17.0000664,1.1336875 C22.6242109,1.1336875 27.2000664,5.70954297 27.2000664,11.3336875 C27.2000664,15.7689609 25.5334688,18.9429141 21.795793,21.621543 C21.5351484,21.7716875 20.4000664,22.5338984 20.4000664,24.367043 C20.4000664,24.6798164 20.6533398,24.9336875 20.9667109,24.9336875 C21.2794844,24.9336875 21.5333555,25.1880898 21.5333555,25.500332 C21.5333555,25.8125742 21.2794844,26.0669766 20.9667109,26.0669766 C20.6533398,26.0669766 20.4000664,26.3208477 20.4000664,26.6336211 C20.4000664,26.9463945 20.6533398,27.2002656 20.9667109,27.2002656 C21.2794844,27.2002656 21.5333555,27.454668 21.5333555,27.7669102 C21.5333555,28.0791523 21.2794844,28.3335547 20.9667109,28.3335547 C20.6533398,28.3335547 20.4000664,28.5874258 20.4000664,28.9001992 C20.4000664,29.2129727 20.6533398,29.4668437 20.9667109,29.4668437 C21.2794844,29.4668437 21.5333555,29.7212461 21.5333555,30.0334883 C21.5333555,30.3564883 21.2897109,30.6001328 20.9667109,30.6001328 L15.3,30.6001328 C14.9872266,30.6001328 14.7333555,30.8540039 14.7333555,31.1667773 L14.7333555,32.3 C14.7333555,33.2372578 15.4960977,34 16.4333555,34 L17.5667109,34 C18.5039688,34 19.2667109,33.2372578 19.2667109,32.3 L19.2667109,31.7333555 L20.9667109,31.7333555 C21.9204375,31.7333555 22.6667109,30.9864844 22.6667109,30.0333555 C22.6667109,29.5981289 22.5023555,29.2009531 22.2326133,28.9 C22.5023555,28.5991133 22.6667109,28.2018711 22.6667109,27.7666445 C22.6667109,27.331418 22.5023555,26.9342422 22.2326133,26.6332891 C22.5023555,26.3324023 22.6667109,25.9351602 22.6667109,25.4999336 C22.6667109,24.7751758 22.2082422,24.1591914 21.5679531,23.9149492 C21.7209531,22.9595625 22.3300977,22.6195625 22.3533398,22.6065469 C22.3799688,22.5935312 22.4054688,22.5781914 22.4292422,22.5611914 C26.4571133,19.6836758 28.3333555,16.1159336 28.3333555,11.3332891 C28.3333555,5.08412891 23.2492266,0 17,0 Z M18.1333555,32.3 C18.1333555,32.6122422 17.8794844,32.8666445 17.5667109,32.8666445 L16.4333555,32.8666445 C16.1211133,32.8666445 15.8667109,32.6122422 15.8667109,32.3 L15.8667109,31.7333555 L18.1333555,31.7333555 L18.1333555,32.3 Z" id="Shape" fill-rule="nonzero"></path>
                                <path d="M33.4333555,10.7666445 L30.6,10.7666445 C30.2866289,10.7666445 30.0333555,11.0205156 30.0333555,11.3332891 C30.0333555,11.6460625 30.2866289,11.8999336 30.6,11.8999336 L33.4333555,11.8999336 C33.7467266,11.8999336 34,11.6460625 34,11.3332891 C34,11.0205156 33.7467266,10.7666445 33.4333555,10.7666445 Z" id="Shape" fill-rule="nonzero"></path>
                            </g>
                        </g>
                    </g>
                </g>
            </g>
        </g>
    </g>
</svg>