<?xml version="1.0" encoding="utf-8"?>
<!-- Generator: Adobe Illustrator 21.1.0, SVG Export Plug-In . SVG Version: 6.00 Build 0)  -->
<svg version="1.1" id="Слой_1" xmlns="http://www.w3.org/2000/svg" xmlns:xlink="http://www.w3.org/1999/xlink" x="0px" y="0px"
	 viewBox="0 0 23 20" style="enable-background:new 0 0 23 20;" xml:space="preserve">
<style type="text/css">
	.st0{fill:#5EABDD;}
</style>
<title>like-full</title>
<desc>Created with Sketch.</desc>
<g id="Hotel-page" transform="translate(-334.000000, -4516.000000)">
	<g id="Review" transform="translate(150.000000, 4070.000000)">
		<g id="Review_2" transform="translate(0.000000, 289.000000)">
			<g id="active-like" transform="translate(170.000000, 157.000000)">
				<g id="like-full" transform="translate(14.000000, 0.000000)">
					<g id="like-_x28_1_x29_">
						<path id="Shape" class="st0" d="M3.8,6.4h-3C0.3,6.4,0,6.7,0,7.1v12.2C0,19.7,0.3,20,0.8,20h3c0.4,0,0.8-0.3,0.8-0.7V7.1
							C4.5,6.7,4.2,6.4,3.8,6.4z"/>
						<path id="Shape_1_" class="st0" d="M21.1,6.4c-0.1,0-5.8,0-5.8,0l0.8-2c0.5-1.3,0.2-3.4-1.3-4.1c-0.5-0.2-1.2-0.4-1.7-0.2
							c-0.3,0.1-0.6,0.3-0.8,0.5c-0.2,0.3-0.2,0.6-0.2,1c-0.2,0.8-0.6,1.6-1.3,2.2c-1.2,1-4.8,4-4.8,4v10.9h12.5c1.7,0,2.8-1.7,2-3
							c1-0.6,1.3-1.8,0.8-2.7c1-0.6,1.3-1.8,0.8-2.7C23.7,9.2,23.1,6.7,21.1,6.4z"/>
					</g>
				</g>
			</g>
		</g>
	</g>
</g>
</svg>
