<?xml version="1.0" encoding="UTF-8"?>
<svg width="23px" height="20px" viewBox="0 0 23 20" version="1.1" xmlns="http://www.w3.org/2000/svg" xmlns:xlink="http://www.w3.org/1999/xlink">
    <!-- Generator: Sketch 48.2 (47327) - http://www.bohemiancoding.com/sketch -->
    <title>like</title>
    <desc>Created with Sketch.</desc>
    <defs></defs>
    <g id="Hotel-page" stroke="none" stroke-width="1" fill="none" fill-rule="evenodd" transform="translate(-342.000000, -4289.000000)">
        <g id="Review" transform="translate(150.000000, 4070.000000)" fill="#5EABDD">
            <g id="Review_1" transform="translate(0.000000, 62.000000)">
                <g id="likes" transform="translate(170.000000, 157.000000)">
                    <g id="like" transform="translate(22.000000, 0.000000)">
                        <g id="like-copy">
                            <path d="M23,8.42394309 C23,7.30126016 21.9906504,6.38788618 20.749998,6.38788618 L15.3237051,6.38788618 L16.1136563,4.43772358 C16.1162168,4.43142276 16.1186426,4.4251626 16.1209785,4.41882114 C16.5016914,3.3854065 16.405873,2.30109756 15.8438105,1.28284553 C15.4197031,0.515243902 14.5672656,0.0384146341 13.6191895,0.0384146341 L13.3555879,0.0384146341 C12.7171582,0.0384146341 12.1771523,0.489756098 12.1260762,1.06581301 C12.0368613,2.07317073 11.5593867,3.02731707 10.7816543,3.75284553 L6.43600195,7.74528455 L5.99999023,7.74528455 L5.99999023,7.06658537 C5.99999023,6.69178862 5.66419922,6.38788618 5.24997461,6.38788618 L0.750015625,6.38788618 C0.335791016,6.38788618 0,6.69178862 0,7.06658537 L0,19.2829268 C0,19.6577236 0.335791016,19.961626 0.750015625,19.961626 L5.25001953,19.961626 C5.66419922,19.961626 6.00003516,19.6577642 6.00003516,19.2829268 L6.00003516,18.6042276 L18.500041,18.6042276 C19.7406934,18.6042276 20.750043,17.6908537 20.750043,16.5681707 C20.750043,16.2054065 20.6447461,15.8645528 20.460207,15.5692683 C21.0851152,15.2071138 21.5000586,14.5733333 21.5000586,13.8534146 C21.5000586,13.4906504 21.3947617,13.1497967 21.2102227,12.8545122 C21.8351309,12.4923577 22.2500742,11.8585772 22.2500742,11.1386585 C22.2500742,10.7758943 22.1447773,10.4350407 21.9602383,10.1397561 C22.5850566,9.77768293 23,9.14386179 23,8.42394309 Z M4.50000391,8.42394309 L4.50000391,17.9255285 L4.50000391,18.6042276 L1.49998633,18.6042276 L1.49998633,7.74528455 L4.50000391,7.74528455 L4.50000391,8.42394309 Z M20.749998,9.10264228 L19.9999824,9.10264228 L18.4999961,9.10264228 C18.0858164,9.10264228 17.7499805,9.40650407 17.7499805,9.78134146 C17.7499805,10.1561789 18.0857715,10.4600407 18.4999961,10.4600407 L19.9999824,10.4600407 C20.4135332,10.4600407 20.749998,10.7645122 20.749998,11.1387398 C20.749998,11.5129675 20.4135332,11.817439 19.9999824,11.817439 L19.2499668,11.817439 L17.7499805,11.817439 C17.3358008,11.817439 16.9999648,12.1213008 16.9999648,12.4961382 C16.9999648,12.8709756 17.3357559,13.1748374 17.7499805,13.1748374 L19.2499668,13.1748374 C19.6635176,13.1748374 19.9999824,13.4793089 19.9999824,13.8535366 C19.9999824,14.2277642 19.6635176,14.5322358 19.2499668,14.5322358 L18.4999512,14.5322358 C18.4606445,14.5322358 18.4223711,14.535813 18.3846367,14.5410569 L16.9501465,14.5410569 C16.5359668,14.5410569 16.2001309,14.8449187 16.2001309,15.2197561 C16.2001309,15.5945528 16.5359219,15.8984553 16.9501465,15.8984553 L18.4501328,15.8984553 C18.4837793,15.8984553 18.5166172,15.8957317 18.5490957,15.8918699 C18.9397363,15.9149593 19.2499668,16.2091057 19.2499668,16.5682927 C19.2499668,16.9425203 18.913502,17.2469919 18.4999512,17.2469919 L5.99999023,17.2469919 L5.99999023,9.10260163 L6.75000586,9.10260163 C6.95089648,9.10260163 7.1433418,9.0296748 7.28435156,8.9001626 L11.8523223,4.70345528 C11.8535801,4.70231707 11.8548379,4.70113821 11.8560059,4.7 C12.8199844,3.80170732 13.432584,2.63560976 13.5968184,1.39569106 L13.6191895,1.39569106 C13.9954102,1.39569106 14.3338066,1.58504065 14.5020391,1.8895935 C14.8862559,2.58556911 14.9531895,3.28894309 14.7011777,3.9804878 L13.5457871,6.83296748 C13.4614238,7.04113821 13.4948457,7.27345528 13.6351367,7.45520325 C13.7754277,7.63695122 14.0049336,7.7452439 14.2499824,7.7452439 L20.749998,7.7452439 C21.1635488,7.7452439 21.5000137,8.04971545 21.5000137,8.42394309 C21.5000137,8.79817073 21.1635488,9.10264228 20.749998,9.10264228 Z" id="Shape" fill-rule="nonzero"></path>
                        </g>
                    </g>
                </g>
            </g>
        </g>
    </g>
</svg>