<?xml version="1.0" encoding="UTF-8"?>
<svg width="18px" height="18px" viewBox="0 0 18 18" version="1.1" xmlns="http://www.w3.org/2000/svg" xmlns:xlink="http://www.w3.org/1999/xlink">
    <!-- Generator: Sketch 48.2 (47327) - http://www.bohemiancoding.com/sketch -->
    <title>list</title>
    <desc>Created with Sketch.</desc>
    <defs></defs>
    <g id="Hotel-list-" stroke="none" stroke-width="1" fill="none" fill-rule="evenodd" transform="translate(-1097.000000, -681.000000)">
        <g id="List" transform="translate(0.000000, 569.000000)" fill="#5EABDD">
            <g id="Menu" transform="translate(150.000000, 82.000000)">
                <g id="Type-view" transform="translate(947.000000, 30.000000)">
                    <g id="Group-2-Copy">
                        <g id="list">
                            <g id="bullets">
                                <path d="M17.3513437,2.11764706 L6.64865632,2.11764706 C6.25948381,2.11764706 6,2.32940018 6,2.64705882 C6,2.96471746 6.32432816,3.17647059 6.64865632,3.17647059 L17.3513437,3.17647059 C17.7405162,3.17647059 18,2.96471746 18,2.64705882 C18,2.32940018 17.7405517,2.11764706 17.3513437,2.11764706 Z" id="Shape" fill-rule="nonzero"></path>
                                <path d="M17.416188,8.47058824 L6.64865632,8.47058824 C6.25948381,8.47058824 6,8.68234136 6,9 C6,9.31765864 6.25944834,9.52941176 6.64865632,9.52941176 L17.3513437,9.52941176 C17.7405162,9.52941176 18,9.31765864 18,9 C18,8.68234136 17.7405517,8.47058824 17.416188,8.47058824 Z" id="Shape" fill-rule="nonzero"></path>
                                <path d="M17.416188,14.8235294 L6.64865632,14.8235294 C6.25948381,14.8235294 6,15.0352825 6,15.3529412 C6,15.6705709 6.25944834,15.8823529 6.64865632,15.8823529 L17.3513437,15.8823529 C17.7405162,15.8823529 18,15.6705998 18,15.3529412 C18,15.0352825 17.7405517,14.8235294 17.416188,14.8235294 Z" id="Shape" fill-rule="nonzero"></path>
                                <path d="M2.5,0 C1.11109845,0 0,1.17646612 0,2.64703872 C0,4.11761132 1.11109845,5.29411765 2.5,5.29411765 C3.88886357,5.29411765 5,4.11765153 5,2.64703872 C4.99996202,1.17646612 3.88886357,0 2.5,0 Z M2.5,3.89705156 C1.87497152,3.89705156 1.38890155,3.38238533 1.38890155,2.72058544 C1.38890155,2.05878555 1.87500949,1.54411932 2.5,1.54411932 C3.12502848,1.54411932 3.61109845,2.05882576 3.61109845,2.72058544 C3.61109845,3.30883861 3.12499051,3.89705156 2.5,3.89705156 Z" id="Shape" fill-rule="nonzero"></path>
                                <path d="M2.5,6.35294118 C1.11109845,6.35294118 0,7.52943857 0,9 C0,10.4705614 1.11109845,11.6470588 2.5,11.6470588 C3.88886357,11.6470588 5,10.4706016 5,9 C5,7.52939836 3.88886357,6.35294118 2.5,6.35294118 Z M2.5,10.1764572 C1.87497152,10.1764572 1.38890155,9.66175465 1.38890155,9 C1.38890155,8.33824535 1.87500949,7.82354282 2.5,7.82354282 C3.12502848,7.82354282 3.61109845,8.33820514 3.61109845,9 C3.61109845,9.66179486 3.12499051,10.1764572 2.5,10.1764572 Z" id="Shape" fill-rule="nonzero"></path>
                                <path d="M2.5,12.7058824 C1.11109845,12.7058824 0,13.8823395 0,15.3529412 C0,16.8235428 1.11109845,18 2.5,18 C3.88886357,18 5,16.8235428 5,15.3529412 C4.99996202,13.9558455 3.88886357,12.7058824 2.5,12.7058824 Z M2.5,16.6029043 C1.87497152,16.6029043 1.38890155,16.0882018 1.38890155,15.4264471 C1.38890155,14.7646925 1.87500949,14.2499899 2.5,14.2499899 C3.12502848,14.2499899 3.61109845,14.7646925 3.61109845,15.4264471 C3.61109845,16.0882018 3.12499051,16.6029043 2.5,16.6029043 Z" id="Shape" fill-rule="nonzero"></path>
                            </g>
                        </g>
                    </g>
                </g>
            </g>
        </g>
    </g>
</svg>