<?xml version="1.0" encoding="UTF-8"?>
<svg width="36px" height="27px" viewBox="0 0 36 27" version="1.1" xmlns="http://www.w3.org/2000/svg" xmlns:xlink="http://www.w3.org/1999/xlink">
    <!-- Generator: Sketch 48.2 (47327) - http://www.bohemiancoding.com/sketch -->
    <title>livingroom</title>
    <desc>Created with Sketch.</desc>
    <defs></defs>
    <g id="Hotel-page" stroke="none" stroke-width="1" fill="none" fill-rule="evenodd" transform="translate(-1048.000000, -4521.000000)">
        <g id="Review" transform="translate(150.000000, 4070.000000)" fill="#5EABDD">
            <g id="Rating" transform="translate(878.000000, 62.000000)">
                <g id="unique-style" transform="translate(20.000000, 389.000000)">
                    <g id="livingroom">
                        <g id="Shape">
                            <path d="M32.2666172,10.2842542 C32.0995547,10.2842542 31.9337578,10.2966102 31.77,10.3202542 L31.77,7.31799153 C31.77,4.71462712 30.4756172,2.29164407 28.3919063,0.994576271 C28.1234531,0.827466102 27.7809609,0.928067797 27.6269766,1.21919492 C27.4729219,1.51032203 27.5656641,1.88183898 27.8340469,2.04894915 C29.5705547,3.12994068 30.6492188,5.14891525 30.6492188,7.31799153 L30.6492188,10.6837627 C29.3693203,11.3514407 28.5338672,12.7671864 28.5338672,14.333339 L28.5338672,16.2173136 C28.1584688,15.9572288 27.7133906,15.8057542 27.2358984,15.8057542 L19.8584297,15.8057542 C19.1122734,15.8057542 18.4440938,16.1743729 18.0000703,16.7522797 C17.5560469,16.1743729 16.8878672,15.8057542 16.1417109,15.8057542 L8.76424219,15.8057542 C8.28682031,15.8057542 7.84160156,15.9572288 7.46627344,16.2173136 L7.46627344,14.333339 C7.46627344,12.6193729 6.4659375,11.0847966 4.97749219,10.5148983 C4.56588281,10.3568644 4.13353125,10.2800593 3.6916875,10.2844831 C3.07645313,10.2917288 2.46635156,10.4677627 1.92754688,10.7935932 C1.65726563,10.9570424 1.56023438,11.3272627 1.71098438,11.6205254 C1.86166406,11.9137119 2.20303125,12.0190424 2.4733125,11.8554407 C2.84941406,11.6279237 3.27501563,11.5050508 3.70385156,11.5000932 C4.01322656,11.4960508 4.31634375,11.5505847 4.60413281,11.6610254 C5.6458125,12.0598475 6.34570312,13.1337458 6.34570312,14.333339 L6.34570312,20.4947542 L3.87,20.4947542 C3.86950781,18.9534661 3.22052344,17.487839 2.13377344,16.5740339 C1.48211719,16.0261017 1.11297656,15.199322 1.12078125,14.3055763 C1.12485938,13.8404746 1.2375,13.3788051 1.44646875,12.9707542 C1.59672656,12.6772627 1.49920313,12.3072712 1.22871094,12.1442034 C0.958007813,11.9812119 0.616921875,12.0869237 0.466734375,12.3804153 C0.16734375,12.9651864 0.0059765625,13.626839 0.000140625,14.2939831 C-0.0110390625,15.570839 0.516304688,16.7520508 1.44710156,17.534822 C2.26251562,18.2205 2.74928906,19.3277288 2.74928906,20.4965847 L2.74928906,21.1025593 L2.74928906,23.2120678 C2.74928906,23.5477373 3.00016406,23.8198729 3.30960937,23.8198729 L4.1878125,23.8198729 C4.29426563,24.1800254 4.494375,24.5037966 4.77239062,24.7516017 C4.92363281,24.8857627 4.95372656,25.143178 4.84080469,25.3381271 L4.43657812,26.0367712 C4.32815625,26.2241695 4.32217969,26.4605339 4.42089844,26.6540339 C4.51954687,26.8475339 4.70735156,26.9677373 4.91125781,26.9677373 L7.20717187,26.9677373 C7.51661719,26.9677373 7.76749219,26.6956017 7.76749219,26.3599322 L7.76749219,23.8199492 L25.4556562,23.8199492 C25.7651016,23.8199492 26.0159766,23.5478136 26.0159766,23.2121441 C26.0159766,22.8764746 25.7651016,22.604339 25.4556562,22.604339 L3.87,22.604339 L3.87,21.7105932 L32.1292969,21.7105932 L32.1292969,22.6044153 L26.9502891,22.6044153 C26.6408438,22.6044153 26.3899688,22.8765508 26.3899688,23.2122203 C26.3899688,23.5478898 26.6408438,23.8200254 26.9502891,23.8200254 L28.2319453,23.8200254 L28.2319453,26.3600085 C28.2319453,26.695678 28.4828203,26.9678136 28.7922656,26.9678136 L31.0881797,26.9678136 C31.2920859,26.9678136 31.4798906,26.8476864 31.5785391,26.6541102 C31.6772578,26.4606102 31.6712109,26.2241695 31.5628594,26.0368475 L31.1584219,25.337822 C31.0457109,25.1432542 31.075875,24.8857627 31.2280312,24.7507627 C31.5053438,24.5035678 31.7052422,24.1800254 31.811625,23.8199492 L32.6896875,23.8199492 C32.9991328,23.8199492 33.2500078,23.5478136 33.2500078,23.2121441 L33.2500078,21.1026356 L33.2500078,20.4427373 C33.2500078,19.3099576 33.73875,18.2381186 34.5911484,17.5021017 C35.4865078,16.7288644 36,15.5738898 36,14.333339 C36,12.1007288 34.3251562,10.2842542 32.2666172,10.2842542 Z M6.64671094,23.8201017 L6.64671094,25.7522034 L5.90266406,25.7522034 C6.16999219,25.0807119 6.01157813,24.2889407 5.49154688,23.8201017 L6.64671094,23.8201017 Z M17.4396797,20.4949068 L7.46620313,20.4949068 L7.46620313,18.4295593 C7.46620313,17.6531186 8.04846094,17.0215932 8.76417188,17.0215932 L16.1416406,17.0215932 C16.8573516,17.0215932 17.4396094,17.6531949 17.4396094,18.4295593 L17.4396797,20.4949068 Z M18.5603203,20.4949068 L18.5603203,18.4295593 C18.5603203,17.6531186 19.1425781,17.0215932 19.8582891,17.0215932 L27.2357578,17.0215932 C27.9514688,17.0215932 28.5337266,17.6531949 28.5337266,18.4295593 L28.5337266,20.4949068 L18.5603203,20.4949068 Z M30.0966328,25.7522034 L29.3526562,25.7522034 L29.3526562,23.8201017 L30.5079609,23.8201017 C29.9877188,24.2898559 29.8294453,25.081322 30.0966328,25.7522034 Z M33.8930859,16.5510763 C32.7721641,17.5191864 32.1292969,18.9376017 32.1292969,20.4428898 L32.1292969,20.4949068 L29.6545078,20.4949068 L29.6545078,14.3334153 C29.6545078,13.1338983 30.3543984,12.06 31.3964297,11.6609492 C31.6747266,11.5540932 31.9674375,11.5000169 32.2665469,11.5000169 C33.70725,11.5000169 34.8792891,12.7711525 34.8792891,14.3334153 C34.8793594,15.2015339 34.5198516,16.0097797 33.8930859,16.5510763 Z" fill-rule="nonzero"></path>
                            <path d="M26.7791484,0.275110169 C26.2186875,0.113872881 25.6380469,0.0321101695 25.0532578,0.0321101695 L10.9468125,0.0321101695 C7.24317187,0.0321101695 4.23014063,3.30055932 4.23014063,7.3180678 L4.23014063,9.4134661 C4.23014063,9.74913559 4.48094531,10.0212712 4.79046094,10.0212712 C5.09990625,10.0212712 5.35078125,9.74913559 5.35078125,9.4134661 L5.35078125,7.3180678 C5.35078125,3.97090678 7.86114844,1.24779661 10.9467422,1.24779661 L25.0531875,1.24779661 C25.5410859,1.24779661 26.0250469,1.31590678 26.4917812,1.45014407 C26.7908203,1.53617797 27.0977344,1.34283051 27.1770469,1.01844915 C27.2564297,0.693991525 27.0782578,0.361220339 26.7791484,0.275110169 Z" fill-rule="nonzero"></path>
                            <path d="M12.0426328,7.05569492 L11.4188203,7.05569492 L11.4188203,6.37916949 C11.4188203,6.0435 11.1679453,5.77136441 10.8585,5.77136441 C10.5490547,5.77136441 10.2981797,6.0435 10.2981797,6.37916949 L10.2981797,7.05569492 L9.6744375,7.05569492 C9.36499219,7.05569492 9.11411719,7.32783051 9.11411719,7.6635 C9.11411719,7.99916949 9.36499219,8.27130508 9.6744375,8.27130508 L10.2981094,8.27130508 L10.2981094,8.94798305 C10.2981094,9.28365254 10.5489844,9.55578814 10.8584297,9.55578814 C11.167875,9.55578814 11.41875,9.28365254 11.41875,8.94798305 L11.41875,8.27130508 L12.0425625,8.27130508 C12.3520078,8.27130508 12.6028828,7.99916949 12.6028828,7.6635 C12.6029531,7.32783051 12.3520781,7.05569492 12.0426328,7.05569492 Z" fill-rule="nonzero"></path>
                            <path d="M19.1840625,7.05569492 L18.5603906,7.05569492 L18.5603906,6.37916949 C18.5603906,6.0435 18.3095156,5.77136441 18.0000703,5.77136441 C17.690625,5.77136441 17.43975,6.0435 17.43975,6.37916949 L17.43975,7.05569492 L16.8160781,7.05569492 C16.5066328,7.05569492 16.2557578,7.32783051 16.2557578,7.6635 C16.2557578,7.99916949 16.5066328,8.27130508 16.8160781,8.27130508 L17.43975,8.27130508 L17.43975,8.94798305 C17.43975,9.28365254 17.690625,9.55578814 18.0000703,9.55578814 C18.3095156,9.55578814 18.5603906,9.28365254 18.5603906,8.94798305 L18.5603906,8.27130508 L19.1840625,8.27130508 C19.4935078,8.27130508 19.7443828,7.99916949 19.7443828,7.6635 C19.7443828,7.32783051 19.4935078,7.05569492 19.1840625,7.05569492 Z" fill-rule="nonzero"></path>
                            <path d="M26.3256328,7.05569492 L25.7019609,7.05569492 L25.7019609,6.37916949 C25.7019609,6.0435 25.4510859,5.77136441 25.1416406,5.77136441 C24.8321953,5.77136441 24.5813203,6.0435 24.5813203,6.37916949 L24.5813203,7.05569492 L23.9575078,7.05569492 C23.6480625,7.05569492 23.3971875,7.32783051 23.3971875,7.6635 C23.3971875,7.99916949 23.6480625,8.27130508 23.9575078,8.27130508 L24.5813203,8.27130508 L24.5813203,8.94798305 C24.5813203,9.28365254 24.8321953,9.55578814 25.1416406,9.55578814 C25.4510859,9.55578814 25.7019609,9.28365254 25.7019609,8.94798305 L25.7019609,8.27130508 L26.3256328,8.27130508 C26.6350781,8.27130508 26.8859531,7.99916949 26.8859531,7.6635 C26.8859531,7.32783051 26.6350781,7.05569492 26.3256328,7.05569492 Z" fill-rule="nonzero"></path>
                        </g>
                    </g>
                </g>
            </g>
        </g>
    </g>
</svg>