<?xml version="1.0" encoding="UTF-8"?>
<svg width="34px" height="34px" viewBox="0 0 34 34" version="1.1" xmlns="http://www.w3.org/2000/svg" xmlns:xlink="http://www.w3.org/1999/xlink">
    <!-- Generator: Sketch 48.2 (47327) - http://www.bohemiancoding.com/sketch -->
    <title>location</title>
    <desc>Created with Sketch.</desc>
    <defs></defs>
    <g id="Main-page_open" stroke="none" stroke-width="1" fill="none" fill-rule="evenodd" transform="translate(-848.000000, -774.000000)">
        <g id="Benefits/Hotel-class" transform="translate(0.000000, 564.000000)" fill="#5EABDD">
            <g id="Why-book-with-us" transform="translate(150.000000, 40.000000)">
                <g id="language" transform="translate(584.000000, 145.000000)">
                    <g id="Group-33" transform="translate(25.000000, 25.000000)">
                        <g id="location" transform="translate(89.000000, 0.000000)">
                            <g id="location-(1)">
                                <path d="M23.6151914,1.33875 L23.5703672,1.31982422 C23.232293,1.17758203 22.8430195,1.33622656 22.7007773,1.67416797 C22.5584688,2.01204297 22.7171797,2.40144922 23.0551211,2.54369141 L23.0976875,2.56162109 C23.1821563,2.59734766 23.2698789,2.61428125 23.356207,2.61428125 C23.6148594,2.61428125 23.8608281,2.46207812 23.9680078,2.2089375 C24.1108477,1.87126172 23.9529336,1.48165625 23.6151914,1.33875 Z" id="Shape" fill-rule="nonzero"></path>
                                <path d="M9.46621094,14.2335156 L9.14746094,14.2335156 C8.83721094,14.2335156 8.58473437,13.9810391 8.58473437,13.6707891 L8.58473437,13.4029062 C8.58473437,12.3370195 7.71760156,11.4699531 6.65178125,11.4699531 C6.31822266,11.4699531 6.04675391,11.1986172 6.04675391,10.8649258 L6.04675391,8.89956641 C6.04675391,8.53287109 5.74951953,8.23557031 5.38275781,8.23557031 C5.01599609,8.23557031 4.71876172,8.53280469 4.71876172,8.89956641 L4.71876172,10.8649258 C4.71869531,11.9307461 5.58582812,12.7978789 6.65171484,12.7978789 C6.98527344,12.7978789 7.25674219,13.0692812 7.25674219,13.4029062 L7.25674219,13.6707891 C7.25674219,14.7133008 8.10488281,15.5614414 9.14739453,15.5614414 L9.46614453,15.5614414 C9.83283984,15.5614414 10.1301406,15.264207 10.1301406,14.8974453 C10.130207,14.53075 9.83290625,14.2335156 9.46621094,14.2335156 Z" id="Shape" fill-rule="nonzero"></path>
                                <path d="M20.2218984,29.6108789 C20.0983828,29.4873633 19.9271211,29.4163086 19.7524727,29.4163086 C19.5778242,29.4163086 19.4065625,29.4872969 19.2830469,29.6108789 C19.1595313,29.7343945 19.0884766,29.9056563 19.0884766,30.0803047 C19.0884766,30.2549531 19.1595313,30.4262148 19.2830469,30.5496641 C19.4065625,30.6731797 19.5778242,30.7443008 19.7524727,30.7443008 C19.9271211,30.7443008 20.0983828,30.6732461 20.2218984,30.5496641 C20.3454141,30.4262148 20.4164688,30.2549531 20.4164688,30.0803047 C20.4164023,29.9056563 20.3453477,29.7343945 20.2218984,29.6108789 Z" id="Shape" fill-rule="nonzero"></path>
                                <path d="M32.8936055,10.9735664 C32.5807656,10.1467422 32.2034453,9.34382422 31.7631055,8.57384375 C31.5810859,8.255625 31.1754766,8.14505859 30.857125,8.32707813 C30.5388398,8.50916406 30.4283398,8.91477344 30.6103594,9.23305859 C30.8644297,9.67744922 31.0959219,10.1336602 31.3042383,10.5997656 L27.6257969,10.5997656 L27.6257969,8.40975391 L33.6679688,4.92130078 C33.8734297,4.80269922 33.9999336,4.58355859 33.9999336,4.34628906 C33.9999336,4.10901953 33.8733633,3.88987891 33.6679688,3.77127734 L27.293832,0.0912421875 C27.0883711,-0.027359375 26.8353633,-0.027359375 26.6298359,0.0912421875 C26.424375,0.20984375 26.2978711,0.428984375 26.2978711,0.666253906 L26.2978711,5.87980859 L26.2978711,8.02658984 L26.2978711,10.7539609 C24.6848633,11.2225234 23.5021016,12.7126133 23.5021016,14.4747695 L23.5021016,14.8589297 C23.5021016,15.0838477 23.3190859,15.2667969 23.0942344,15.2667969 L22.6674414,15.2667969 C21.3128203,15.2667969 20.2107422,16.368875 20.2107422,17.7234961 L20.2107422,18.961375 C20.2107422,20.3905039 21.3735156,21.5532773 22.8026445,21.5532773 L24.4598125,21.5532773 C25.1524961,21.5532773 25.7160195,22.1168008 25.7160195,22.8095508 C25.7160195,24.3685039 26.9843125,25.6367305 28.5432656,25.6367305 C28.6730898,25.6367305 28.7786094,25.7423164 28.7786094,25.8721406 L28.7786094,27.2089648 C28.7786094,27.2437617 28.7820625,27.2776289 28.7872422,27.3109648 C26.0490469,30.4379688 22.0901055,32.4695352 17.6618047,32.6550742 L17.6618047,32.1596836 C17.6618047,30.9668281 16.6914102,29.9964336 15.4985547,29.9964336 L11.6858398,29.9964336 C10.4509492,29.9964336 9.44628906,28.9917734 9.44628906,27.7568828 L9.44628906,27.6751367 C9.44628906,25.9407383 8.03522266,24.5297383 6.30082422,24.5297383 L6.21914453,24.5297383 C5.05019531,24.5297383 4.099125,23.5787344 4.09905859,22.4094531 C4.09905859,21.8431406 4.31959375,21.3106953 4.72002344,20.9102656 C5.12045312,20.5098359 5.65283203,20.2892344 6.21921094,20.2892344 L6.28701172,20.2892344 C6.90332812,20.2892344 7.40469531,19.7878008 7.40469531,19.1714844 C7.40469531,18.5368398 7.92100391,18.0205977 8.55558203,18.0205977 L12.9159492,18.0205977 C14.0769297,18.0205977 15.0214258,18.9650938 15.0214258,20.1260742 L15.0214258,22.4373438 C15.0214258,23.9247773 16.2316133,25.1349648 17.7190469,25.1349648 C18.4742187,25.1349648 19.0886758,25.7494219 19.0886758,26.5045938 L19.0886758,27.6901445 C19.0886758,28.0567734 19.3859102,28.3541406 19.7526719,28.3541406 C20.1194336,28.3541406 20.416668,28.0568398 20.416668,27.6901445 L20.416668,26.5045938 C20.416668,25.0171602 19.2064805,23.8069727 17.7190469,23.8069727 C16.9638086,23.8069727 16.349418,23.1925156 16.349418,22.4373438 L16.349418,20.1260742 C16.349418,18.2328984 14.8091914,16.6926719 12.9160156,16.6926719 L12.4026289,16.6926719 L12.4026289,16.0170547 C12.4026289,15.8863008 12.5090117,15.7799844 12.6397656,15.7799844 C14.201043,15.7799844 15.4711953,14.5098984 15.4711953,12.9486211 C15.4711953,12.2538789 16.0363789,11.6886289 16.7311211,11.6886289 L18.3914766,11.6886289 C19.8227305,11.6886289 20.9870977,10.5241953 20.9870977,9.09300781 L20.9870977,7.85280469 C20.9870977,6.49625781 19.8834258,5.39258594 18.5268789,5.39258594 L17.8330664,5.39258594 C17.6070195,5.39258594 17.4231406,5.20864063 17.4231406,4.98266016 L17.4231406,4.59776953 C17.4231406,3.26194141 16.7446016,2.08157031 15.7142422,1.38310938 C16.1377148,1.34857813 16.5657031,1.33018359 16.9979414,1.33018359 C18.0724609,1.33018359 19.1458516,1.43948828 20.1883633,1.65504297 C20.5472891,1.72928516 20.8988437,1.49832422 20.9730195,1.13926563 C21.0472617,0.780207031 20.8162344,0.428851563 20.4571094,0.354609375 C19.3262773,0.120792969 18.1624414,0.0022578125 16.9978086,0.0022578125 C12.4575469,0.0022578125 8.18908594,1.77025781 4.97854297,4.98080078 C1.768,8.19127734 0,12.4597383 0,17 C0,21.5402617 1.768,25.8087227 4.97847656,29.0192656 C8.18895312,32.2297422 12.4574141,33.9977422 16.9977422,33.9977422 C21.5380039,33.9977422 25.8064648,32.2296758 29.0169414,29.0192656 C32.2274844,25.8087227 33.9954844,21.5402617 33.9954844,17 C33.9954844,14.9754063 33.6338359,12.9718633 32.9376328,11.0903086 C32.926543,11.049668 32.9118008,11.0107539 32.8936055,10.9735664 Z M27.6258633,5.87974219 L27.6258633,1.81621094 L32.0080781,4.34628906 L27.6258633,6.87636719 L27.6258633,5.87974219 Z M16.3336797,32.654875 C8.00029297,32.3055117 1.32792578,25.4178555 1.32792578,17 C1.32792578,9.97740625 5.97158203,4.01903906 12.3495039,2.03402344 C12.3870898,2.04066406 12.4256055,2.04471484 12.4651172,2.04471484 L13.5418945,2.04471484 C14.9496406,2.04471484 16.0949492,3.19002344 16.0949492,4.59776953 L16.0949492,4.98266016 C16.0949492,5.94090234 16.8745586,6.72057813 17.8328672,6.72057813 L18.5266797,6.72057813 C19.1510312,6.72057813 19.6589727,7.22851953 19.6589727,7.85287109 L19.6589727,9.09314063 C19.6589727,9.79213281 19.0902695,10.3607695 18.3913437,10.3607695 L16.7309883,10.3607695 C15.3040508,10.3607695 14.1430703,11.5216836 14.1430703,12.9486875 C14.1430703,13.7776367 13.468582,14.452125 12.6395664,14.452125 C11.7766172,14.452125 11.0745039,15.1542383 11.0745039,16.0171875 L11.0745039,16.6926719 L8.55551563,16.6926719 C7.25860156,16.6926719 6.19112109,17.6937461 6.08526953,18.963832 C5.21441797,18.9968359 4.40054297,19.3515781 3.78097266,19.9712813 C3.12972656,20.6225938 2.77113281,21.4884648 2.77113281,22.4098516 C2.77126563,24.3109961 4.318,25.8576641 6.21914453,25.8576641 L6.30082422,25.8576641 C7.30296094,25.8576641 8.11823047,26.6729336 8.11829688,27.6750703 L8.11829688,27.7568164 C8.11829688,29.7239023 9.71875391,31.324293 11.6857734,31.324293 L15.4984883,31.324293 C15.959082,31.324293 16.3337461,31.6990234 16.3337461,32.1595508 L16.3337461,32.654875 L16.3336797,32.654875 Z M30.083957,25.6090391 C29.958582,24.8717305 29.3156367,24.3084727 28.5431992,24.3084727 C27.7165078,24.3084727 27.0438789,23.6359102 27.0438789,22.8092188 C27.0438789,21.3842734 25.884625,20.2250195 24.4597461,20.2250195 L22.8025781,20.2250195 C22.1055781,20.2250195 21.538668,19.6579766 21.538668,18.9611094 L21.538668,17.7232305 C21.538668,17.1008047 22.0450156,16.594457 22.6674414,16.594457 L23.0942344,16.594457 C24.0514141,16.594457 24.8300938,15.8157773 24.8300938,14.8585977 L24.8300938,14.4744375 C24.8300938,13.4556992 25.431668,12.5751523 26.2979375,12.1682148 L26.2979375,13.7464258 C26.2979375,14.1131211 26.5951719,14.4104219 26.9619336,14.4104219 C27.3286289,14.4104219 27.6259297,14.1131875 27.6259297,13.7464258 L27.6259297,11.927625 L31.8259922,11.927625 C32.3802188,13.5520547 32.667625,15.2675273 32.667625,17.0000664 C32.6675586,20.1776055 31.7158906,23.1367344 30.083957,25.6090391 Z" id="Shape" fill-rule="nonzero"></path>
                            </g>
                        </g>
                    </g>
                </g>
            </g>
        </g>
    </g>
</svg>