<?xml version="1.0" encoding="utf-8"?>
<!-- Generator: Adobe Illustrator 21.1.0, SVG Export Plug-In . SVG Version: 6.00 Build 0)  -->
<svg version="1.1" id="Слой_1" xmlns="http://www.w3.org/2000/svg" xmlns:xlink="http://www.w3.org/1999/xlink" x="0px" y="0px"
	 viewBox="0 0 37 12" enable-background="new 0 0 37 12" xml:space="preserve">
<title>logo-waves</title>
<desc>Created with Sketch.</desc>
<g id="Hotel-page" transform="translate(-216.000000, -7.000000)">
	<g id="First-screen" transform="translate(0.000000, 7.000000)">
		<g id="Header" transform="translate(150.000000, 0.000000)">
			<g id="Logo">
				<g id="logo-waves" transform="translate(66.000000, 0.000000)">
					<g id="Group-13">
						<g id="heat" transform="translate(0.000000, 5.000000)">
							<path id="Shape" fill="#5B6D7C" d="M36.8,0c-0.4-0.2-1.2,0.9-1.4,1.2c-0.6,0.6-1.2,1.2-1.9,1.6c-1.6,1.1-3.1,1.2-4.9,1.2
								c-3.8,0-7.7-1.9-11.3-3C13.5,0,9.4-0.3,5.6,0.7C3.9,1.1,2.1,2,1.2,3.5C0.7,4.3-0.7,6.1,0.5,6.9c0.4,0.3,0.7-1,0.9-1.2
								C1.8,4.9,2.7,4.5,3.4,4c1.2-0.9,3.3-1.4,4.8-1.4c2.1,0,4.4-0.4,6.4,0.3c1.6,0.5,3.3,0.9,5,1.5c1.9,0.6,3.7,1.3,5.6,1.7
								c1.1,0.2,2.1,0.4,3.2,0.4c0.8,0,1.7-0.2,2.5-0.1C31.4,6,32.4,6,32.9,5.4c0.8-0.2,1.3-0.9,2-1.3c0.7-0.4,2.3-2.8,2.1-3.7
								C37,0.1,36.9,0.1,36.8,0z"/>
						</g>
						<g id="heat-copy">
							<path id="Shape_1_" fill="#5B6D7C" d="M36.8,0c-0.4-0.2-1.2,0.9-1.4,1.2c-0.6,0.6-1.2,1.2-1.9,1.6c-1.6,1.1-3.1,1.2-4.9,1.2
								c-3.8,0-7.7-1.9-11.3-3C13.5,0,9.4-0.3,5.6,0.7C3.9,1.1,2.1,2,1.2,3.5C0.7,4.3-0.7,6.1,0.5,6.9c0.4,0.3,0.7-1,0.9-1.2
								C1.8,4.9,2.7,4.5,3.4,4c1.2-0.9,3.3-1.4,4.8-1.4c2.1,0,4.4-0.4,6.4,0.3c1.6,0.5,3.3,0.9,5,1.5c1.9,0.6,3.7,1.3,5.6,1.7
								c1.1,0.2,2.1,0.4,3.2,0.4c0.8,0,1.7-0.2,2.5-0.1C31.4,6,32.4,6,32.9,5.4c0.8-0.2,1.3-0.9,2-1.3c0.7-0.4,2.3-2.8,2.1-3.7
								C37,0.1,36.9,0.1,36.8,0z"/>
						</g>
					</g>
				</g>
			</g>
		</g>
	</g>
</g>
</svg>
