<?xml version="1.0" encoding="utf-8"?>
<!-- Generator: Adobe Illustrator 21.1.0, SVG Export Plug-In . SVG Version: 6.00 Build 0)  -->
<svg version="1.1" id="Слой_1" xmlns="http://www.w3.org/2000/svg" xmlns:xlink="http://www.w3.org/1999/xlink" x="0px" y="0px"
	 viewBox="0 0 19 13" enable-background="new 0 0 19 13" xml:space="preserve">
<title>mail</title>
<desc>Created with Sketch.</desc>
<g id="Support" transform="translate(-994.000000, -102.000000)">
	<g id="mail" transform="translate(974.000000, 47.000000)">
		<g transform="translate(20.000000, 55.000000)">
			<g id="mail-copy">
				<g id="Group" transform="translate(2.968750, 6.217391)">
					<path id="Shape" fill="#5EABDD" d="M11.9,3.7c-0.1,0-0.1,0-0.2-0.1L8.3,0.6c-0.1-0.1-0.1-0.3,0-0.4C8.4,0,8.6,0,8.7,0.1
						l3.4,3.1c0.1,0.1,0.1,0.3,0,0.4C12.1,3.6,12,3.7,11.9,3.7z"/>
					<path id="Shape_1_" fill="#5EABDD" d="M0.5,3.7c-0.1,0-0.2,0-0.2-0.1c-0.1-0.1-0.1-0.3,0-0.4l3.4-3.1C3.9,0,4.1,0,4.2,0.2
						c0.1,0.1,0.1,0.3,0,0.4L0.7,3.6C0.7,3.7,0.6,3.7,0.5,3.7z"/>
				</g>
				<path id="Shape_2_" fill="#5EABDD" d="M16.9,12.7H1.5c-0.8,0-1.5-0.6-1.5-1.4V1.7c0-0.8,0.7-1.4,1.5-1.4h15.4
					c0.8,0,1.5,0.6,1.5,1.4v9.6C18.4,12.1,17.7,12.7,16.9,12.7z M1.5,0.8C1,0.8,0.6,1.2,0.6,1.7v9.6c0,0.5,0.4,0.8,0.9,0.8h15.4
					c0.5,0,0.9-0.4,0.9-0.8V1.7c0-0.5-0.4-0.8-0.9-0.8H1.5z"/>
				<path id="Shape_3_" fill="#5EABDD" d="M9.2,7.9c-0.4,0-0.8-0.1-1.1-0.4L0.5,1.2c-0.1-0.1-0.1-0.3,0-0.4c0.1-0.1,0.3-0.1,0.4,0
					l7.6,6.3c0.4,0.3,1,0.3,1.4,0l7.6-6.3c0.1-0.1,0.3-0.1,0.4,0c0.1,0.1,0.1,0.3,0,0.4l-7.6,6.3C10,7.8,9.6,7.9,9.2,7.9z"/>
			</g>
		</g>
	</g>
</g>
</svg>
