<?xml version="1.0" encoding="UTF-8"?>
<svg width="34px" height="34px" viewBox="0 0 34 34" version="1.1" xmlns="http://www.w3.org/2000/svg" xmlns:xlink="http://www.w3.org/1999/xlink">
    <!-- Generator: Sketch 48.2 (47327) - http://www.bohemiancoding.com/sketch -->
    <title>map</title>
    <desc>Created with Sketch.</desc>
    <defs></defs>
    <g id="Hotel-page" stroke="none" stroke-width="1" fill="none" fill-rule="evenodd" transform="translate(-1048.000000, -4401.000000)">
        <g id="Review" transform="translate(150.000000, 4070.000000)" fill="#5EABDD">
            <g id="Rating" transform="translate(878.000000, 62.000000)">
                <g id="great-location" transform="translate(20.000000, 265.000000)">
                    <g id="map" transform="translate(0.000000, 4.000000)">
                        <g id="Shape">
                            <path d="M33.9278132,22.4772553 L33.9278132,11.5148596 C33.9278132,11.2746894 33.7701571,11.0630213 33.5404586,10.9947319 L28.4792229,9.48990638 C28.8709809,8.52958723 29.115189,7.57642979 29.115189,6.69148936 C29.115189,3.0018383 26.1197962,0 22.4379066,0 C18.756017,0 15.7606242,3.00176596 15.7606242,6.69148936 C15.7606242,7.57642979 16.0048323,8.52958723 16.3965902,9.48990638 L11.4894013,10.9489404 L0.695375796,7.73934043 C0.531656051,7.6908 0.354509554,7.72234043 0.217571125,7.82470213 C0.0806326964,7.92706383 2.84217094e-14,8.08831064 2.84217094e-14,8.25954043 L2.84217094e-14,19.2356085 C2.84217094e-14,19.2369106 2.84217094e-14,19.2382851 2.84217094e-14,19.2395872 L2.84217094e-14,30.2021277 C2.84217094e-14,30.4422979 0.157583864,30.653966 0.387426752,30.7222553 L11.3272696,33.9751872 C11.3304459,33.9761277 11.3354268,33.9775745 11.3354268,33.9775745 C11.3371592,33.9780809 11.3389639,33.9782255 11.3406964,33.9787319 C11.3608365,33.9845191 11.381482,33.9889319 11.4025605,33.9923319 C11.4081911,33.9932723 11.4138217,33.9942128 11.4195244,33.9949362 C11.4421911,33.9979021 11.4651465,33.9998553 11.488535,33.9999277 C11.5136561,33.9999277 11.5366837,33.9979021 11.5594225,33.9949362 C11.5650531,33.9942128 11.5706115,33.9932723 11.576242,33.9923319 C11.5973206,33.9889319 11.6180382,33.9844468 11.6382505,33.9787319 C11.639983,33.9782255 11.6417877,33.9780809 11.6435202,33.9775745 L11.6485011,33.9760553 C11.6516773,33.9751149 22.218603,30.8332255 22.218603,30.8332255 C22.2857367,30.8631021 22.3598004,30.8800298 22.4379788,30.8800298 C22.5161571,30.8800298 22.590293,30.8631021 22.6573546,30.8332255 L33.2324374,33.9775021 C33.2830403,33.9925489 33.3348705,33.9999277 33.3864841,33.9999277 C33.5018386,33.9999277 33.6156773,33.9629617 33.7103142,33.8921404 C33.8471805,33.7897064 33.9278854,33.6285319 33.9278854,33.4573745 L33.9278854,22.4815957 C33.9278132,22.4801489 33.9278132,22.4787021 33.9278132,22.4772553 Z M32.8450106,11.9198213 L32.8450106,21.7592766 L22.9793079,18.8258723 L22.9793079,17.2827064 C23.6852951,16.554166 26.4578471,13.5937064 28.0234352,10.4862511 L32.8450106,11.9198213 Z M22.4379066,1.08510638 C25.5226667,1.08510638 28.0323864,3.60009362 28.0323864,6.69148936 C28.0323864,7.57266809 27.7382251,8.55411064 27.2807771,9.54785106 C27.2581104,9.58416596 27.2394862,9.62359149 27.2255541,9.66598298 C25.9209936,12.4256979 23.3975584,15.2542809 22.4377622,16.2776085 C21.4785435,15.255366 18.9574183,12.4306894 17.6523524,9.67191489 C17.6376985,9.62547234 17.6172696,9.58242979 17.5922208,9.54314894 C17.1364331,8.55121702 16.8434268,7.57158298 16.8434268,6.69141702 C16.8434268,3.60009362 19.3531465,1.08510638 22.4379066,1.08510638 Z M21.8965053,17.282634 L21.8965053,18.8258 L12.0308025,21.7592043 L12.0308025,11.9198213 L16.8523779,10.4862511 C18.4180382,13.5937064 21.190518,16.554166 21.8965053,17.282634 Z M1.08280255,19.9577106 L4.82338004,21.0699447 C4.87477707,21.0852085 4.92660722,21.0925149 4.97757113,21.0925149 C5.21109554,21.0925149 5.42657325,20.9399489 5.49637792,20.7041191 C5.5814862,20.4168553 5.4180552,20.1149064 5.13132909,20.0296894 L1.08280255,18.8258723 L1.08280255,8.98641702 L10.948,11.9198213 L10.948,21.7592766 L7.20749469,20.6470426 C6.92091295,20.5616809 6.61953291,20.7255319 6.53449682,21.0128681 C6.44938854,21.3001319 6.61281953,21.6020809 6.89954565,21.6872979 L10.9480722,22.8911149 L10.9480722,32.7305702 L1.08280255,29.797166 L1.08280255,19.9577106 Z M22.9793079,29.797166 L22.9793079,25.8692979 C22.9793079,25.5696638 22.7369766,25.3267447 22.4379066,25.3267447 C22.1388365,25.3267447 21.8965053,25.5696638 21.8965053,25.8692979 L21.8965053,29.797166 L12.0308025,32.7305702 L12.0308025,22.8911149 L21.8965053,19.9577106 L21.8965053,23.6990851 C21.8965053,23.9987191 22.1388365,24.2416383 22.4379066,24.2416383 C22.7369766,24.2416383 22.9793079,23.9987191 22.9793079,23.6990851 L22.9793079,19.9577106 L32.8450106,22.8911149 L32.8450106,32.7305702 L22.9793079,29.797166 Z" fill-rule="nonzero"></path>
                            <path d="M22.4379066,10.4893617 C24.5275711,10.4893617 26.2277155,8.78567234 26.2277155,6.69148936 C26.2277155,4.59737872 24.5275711,2.89361702 22.4379066,2.89361702 C20.348242,2.89361702 18.6480977,4.59730638 18.6480977,6.69148936 C18.6480977,8.7856 20.348242,10.4893617 22.4379066,10.4893617 Z M22.4379066,3.9787234 C23.930586,3.9787234 25.144913,5.19563404 25.144913,6.69148936 C25.144913,8.18734468 23.930586,9.40425532 22.4379066,9.40425532 C20.9452272,9.40425532 19.7309002,8.18734468 19.7309002,6.69148936 C19.7309002,5.19563404 20.9452272,3.9787234 22.4379066,3.9787234 Z" fill-rule="nonzero"></path>
                        </g>
                    </g>
                </g>
            </g>
        </g>
    </g>
</svg>