<?xml version="1.0" encoding="UTF-8"?>
<svg width="12px" height="16px" viewBox="0 0 12 16" version="1.1" xmlns="http://www.w3.org/2000/svg" xmlns:xlink="http://www.w3.org/1999/xlink">
    <!-- Generator: Sketch 48.2 (47327) - http://www.bohemiancoding.com/sketch -->
    <title>marker</title>
    <desc>Created with Sketch.</desc>
    <defs></defs>
    <g id="Map_route-planner_1" stroke="none" stroke-width="1" fill="none" fill-rule="evenodd" transform="translate(-1039.000000, -308.000000)" opacity="0.5">
        <g id="Location_route-planner" transform="translate(-1.000000, 32.000000)" fill="#5B6D7C">
            <g id="Location-block" transform="translate(1028.000000, 92.000000)">
                <g id="Route" transform="translate(10.000000, 145.000000)">
                    <g id="Group" transform="translate(0.000000, 1.000000)">
                        <g id="marker" transform="translate(2.000000, 38.000000)">
                            <g id="maps-and-flags-(1)">
                                <path d="M6,0 C2.70177419,0 0.018483871,2.5994375 0.018483871,5.7945625 C0.018483871,9.7598125 5.37135484,15.5810312 5.59925806,15.8269063 C5.81332258,16.057875 6.18706452,16.0574688 6.40074194,15.8269063 C6.62864516,15.5810313 11.9815161,9.7598125 11.9815161,5.7945625 C11.9814516,2.5994375 9.29819355,0 6,0 Z M6,14.6790312 C4.19848387,12.6059687 1.09564516,8.516 1.09564516,5.794625 C1.09564516,3.1748125 3.29570968,1.0435 6,1.0435 C8.70429032,1.0435 10.9043548,3.1748125 10.9043548,5.79459375 C10.9043226,8.51609375 7.80196774,12.6053125 6,14.6790312 Z" id="Shape" fill-rule="nonzero"></path>
                                <path d="M6,2.8791875 C4.34058065,2.8791875 2.99058065,4.18703125 2.99058065,5.79459375 C2.99058065,7.40215625 4.3406129,8.71 6,8.71 C7.6593871,8.71 9.0093871,7.40215625 9.0093871,5.79459375 C9.0093871,4.18703125 7.6593871,2.8791875 6,2.8791875 Z M6,7.6665 C4.93451613,7.6665 4.06774194,6.82678125 4.06774194,5.79459375 C4.06774194,4.76240625 4.93454839,3.9226875 6,3.9226875 C7.06545161,3.9226875 7.93225806,4.76240625 7.93225806,5.79459375 C7.93225806,6.82678125 7.06545161,7.6665 6,7.6665 Z" id="Shape" fill-rule="nonzero"></path>
                            </g>
                        </g>
                    </g>
                </g>
            </g>
        </g>
    </g>
</svg>