<?xml version="1.0" encoding="UTF-8"?>
<svg width="20px" height="28px" viewBox="0 0 20 28" version="1.1" xmlns="http://www.w3.org/2000/svg" xmlns:xlink="http://www.w3.org/1999/xlink">
    <!-- Generator: Sketch 48.2 (47327) - http://www.bohemiancoding.com/sketch -->
    <title>modern-chair</title>
    <desc>Created with Sketch.</desc>
    <defs></defs>
    <g id="Main-page" stroke="none" stroke-width="1" fill="none" fill-rule="evenodd" transform="translate(-180.000000, -4839.000000)">
        <g id="Hotel-themes" transform="translate(149.000000, 4058.000000)" fill="#5EABDD">
            <g id="design-and-modern" transform="translate(0.000000, 612.000000)">
                <g id="Group-5" transform="translate(25.000000, 166.000000)">
                    <g id="modern-chair" transform="translate(6.000000, 3.000000)">
                        <g transform="translate(-0.000000, 0.000000)" id="Shape">
                            <path d="M17.3772581,19.3695049 C19.0510215,17.6460039 19.9727419,15.4117895 19.9727419,13.0784016 C19.9727419,10.4960156 18.8711828,7.26990253 17.0978495,4.65918908 C15.0571505,1.65467446 12.5363978,0 10,0 C7.46360215,0 4.94284946,1.65467446 2.90209677,4.65924366 C1.1288172,7.2700117 0.0272580645,10.4960702 0.0272580645,13.0784561 C0.0272580645,15.4117895 0.949032258,17.6459493 2.62274194,19.3695595 C4.19543011,20.9889747 6.30844086,22.0334347 8.60462366,22.3350487 L8.60462366,25.2606394 L7.60666667,25.2606394 C6.47516129,25.2606394 5.55456989,26.1951735 5.55456989,27.3439376 L5.55456989,27.5426667 C5.55456989,27.7650838 5.73225806,27.9454737 5.95134409,27.9454737 L14.0486022,27.9454737 C14.2676882,27.9454737 14.4453763,27.7650838 14.4453763,27.5426667 L14.4453763,27.3439376 C14.4453763,26.1952281 13.5248387,25.2606394 12.3932796,25.2606394 L11.3953226,25.2606394 L11.3953226,22.3350487 C13.691828,22.033271 15.8046774,20.9888109 17.3772581,19.3695049 Z M12.3933333,26.0662534 C13.018871,26.0662534 13.5392473,26.5319922 13.6357527,27.1398051 L6.36424731,27.1398051 C6.46075269,26.5319376 6.98112903,26.0662534 7.60666667,26.0662534 L12.3933333,26.0662534 Z M9.39817204,25.2605848 L9.39817204,22.4092242 C9.59758065,22.4203587 9.79860215,22.4266901 10,22.4266901 C10.2012903,22.4266901 10.4023656,22.4203587 10.601828,22.4092242 L10.601828,25.2605848 L9.39817204,25.2605848 Z M10.960914,21.5745185 L10.9603763,21.5745731 C10.332957,21.6361949 9.66763441,21.6362495 9.03908602,21.5745185 C6.78946237,21.3567407 4.71145161,20.3727563 3.18784946,18.803883 C1.66145161,17.2320624 0.820860215,15.1987057 0.820860215,13.0784561 C0.820860215,10.68754 1.89424731,7.5622924 3.55548387,5.116577 C6.10317204,1.3657232 8.68666667,0.805668616 10,0.805668616 C11.3132796,0.805668616 13.896828,1.3657232 16.4445161,5.116577 C18.1057527,7.56234698 19.1791398,10.6875945 19.1791398,13.0784561 C19.1791398,15.1987057 18.3385484,17.2320624 16.8121505,18.803883 C15.2885484,20.3727563 13.2105914,21.3567407 10.960914,21.5745185 Z" fill-rule="nonzero"></path>
                            <path d="M10,2.38338402 C8.29053763,2.38338402 6.60833333,3.39787914 5.26306452,5.24003899 C4.08612903,6.85175828 3.35494624,8.90236257 3.35494624,10.5916413 C3.35494624,11.4765068 3.54801075,12.3308616 3.92865591,13.1303626 C4.99564516,15.3786043 7.37876344,16.8313294 10,16.8313294 C12.6210753,16.831384 15.0040323,15.3788772 16.071129,13.1308538 C16.4519355,12.3308616 16.645,11.4765614 16.645,10.5916959 C16.645,8.90236257 15.9138172,6.85181287 14.7368817,5.24009357 C13.3916667,3.39793372 11.7094624,2.38338402 10,2.38338402 Z M10,16.0258246 C7.80962366,16.02577 5.81258065,14.8883587 4.80946237,13.1000156 C6.35543011,12.1663548 8.14193548,11.6746355 10,11.6746355 C11.8580645,11.6746355 13.6445699,12.1664094 15.1905376,13.1000156 C14.1876882,14.8882495 12.1904839,16.0258246 10,16.0258246 Z M15.5306452,12.369614 C13.8769892,11.3870487 11.9753763,10.8688577 10,10.8688577 C8.02456989,10.8688577 6.12295699,11.3870487 4.46935484,12.369614 C4.25645161,11.8009357 4.14860215,11.2047485 4.14860215,10.5916959 C4.14860215,9.06654191 4.81989247,7.19976608 5.90064516,5.71991423 C7.50865591,3.51784795 9.15924731,3.18910721 10,3.18910721 C10.8407527,3.18910721 12.4913441,3.51790253 14.0993548,5.71991423 C15.18,7.19976608 15.8513978,9.06659649 15.8513978,10.5916959 C15.8513978,11.2047485 15.7434946,11.8008811 15.5306452,12.369614 Z" fill-rule="nonzero"></path>
                        </g>
                    </g>
                </g>
            </g>
        </g>
    </g>
</svg>