<?xml version="1.0" encoding="UTF-8"?>
<svg width="38px" height="39px" viewBox="0 0 38 39" version="1.1" xmlns="http://www.w3.org/2000/svg" xmlns:xlink="http://www.w3.org/1999/xlink">
    <!-- Generator: Sketch 48.2 (47327) - http://www.bohemiancoding.com/sketch -->
    <title>museum</title>
    <desc>Created with Sketch.</desc>
    <defs></defs>
    <g id="Hotel-page" stroke="none" stroke-width="1" fill="none" fill-rule="evenodd" transform="translate(-165.000000, -3780.000000)">
        <g id="Location" transform="translate(0.000000, 3048.000000)" fill="#5EABDD">
            <g id="Local-attractions" transform="translate(74.000000, 632.000000)">
                <g id="Museums" transform="translate(76.000000, 80.000000)">
                    <g id="museum" transform="translate(15.000000, 20.000000)">
                        <g id="Shape">
                            <path d="M34.5093293,14.694681 L34.5093293,12.5838728 L37.7134553,12.5838728 L37.9975285,11.6092544 L19.3068577,0 L18.7386341,0 L0.0479634146,11.6092544 L0.332036585,12.5838728 L3.5361626,12.5838728 L3.5361626,14.694681 L4.07017073,15.222364 L6.02856098,15.222364 C4.96239837,19.0439824 3.45684146,27.7505988 5.67829675,31.5808415 L4.07024797,31.5808415 L3.53623984,32.1085245 L3.53623984,34.7470157 L1.40013008,34.7470157 L0.866121951,35.2746986 L0.866121951,38.4408728 L1.40013008,38.9685558 L36.6452846,38.9685558 L37.1793699,38.4408728 L37.1793699,35.2746986 L36.6453618,34.7470157 L34.509252,34.7470157 L34.509252,32.1085245 L33.9752439,31.5808415 L32.3685081,31.5808415 C34.3578699,27.6381781 33.0318862,18.9789569 32.0960976,15.222364 L33.9752439,15.222364 L34.5093293,14.694681 Z M2.18507724,11.5285068 L19.0227073,1.06963796 L35.8602602,11.5285068 L4.07017073,11.5285068 L2.18507724,11.5285068 Z M7.13813008,15.222364 L9.53421545,15.222364 C10.0292195,17.1204658 10.6102642,20.3489178 10.8094553,23.4390763 C11.0620163,27.3560959 10.6705854,30.1602798 9.67733333,31.5808415 L6.97361789,31.5808415 C4.44236992,28.6822485 5.9649187,19.2211996 7.13813008,15.222364 Z M10.6355203,15.222364 L16.8087439,15.222364 C15.7425813,19.0439824 14.2370244,27.7505988 16.4584797,31.5808415 L10.9079309,31.5808415 C12.8972927,27.6381781 11.5713089,18.9789569 10.6355203,15.222364 Z M20.313935,15.222364 C20.808939,17.1204658 21.3899837,20.3489178 21.5891748,23.4390763 C21.8417358,27.3560959 21.4503049,30.1602798 20.4570528,31.5808415 L17.7533374,31.5808415 C15.2220894,28.6822485 16.7451016,19.2211996 17.9177724,15.222364 L20.313935,15.222364 Z M36.1113537,35.8023816 L36.1113537,37.9131898 L1.93413821,37.9131898 L1.93413821,35.8023816 L36.1113537,35.8023816 Z M33.4411585,34.7470157 L4.60417886,34.7470157 L4.60417886,32.6362074 L6.74082927,32.6362074 L9.94441463,32.6362074 L17.5210122,32.6362074 L20.7245976,32.6362074 L28.2014065,32.6362074 L31.4049919,32.6362074 L33.4411585,32.6362074 L33.4411585,34.7470157 Z M21.6880366,31.5808415 C23.6773984,27.6381781 22.3514146,18.9789569 21.415626,15.222364 L27.489061,15.222364 C26.4228984,19.0439824 24.9173415,27.7505988 27.1387967,31.5808415 L21.6880366,31.5808415 Z M32.2695691,23.4390763 C32.5221301,27.3560959 32.1306992,30.1602798 31.1374472,31.5808415 L28.4337317,31.5808415 C25.9024837,28.6822485 27.4254959,19.2211996 28.5981667,15.222364 L30.9943293,15.222364 C31.4893333,17.1204658 32.070378,20.3489178 32.2695691,23.4390763 Z M33.4411585,14.166998 L31.4050691,14.166998 L31.4049919,14.1669217 L28.2014065,14.1669217 L28.2013293,14.166998 L20.7246748,14.166998 L20.7245976,14.1669217 L17.5210122,14.1669217 L17.520935,14.166998 L9.94449187,14.166998 L9.94441463,14.1669217 L6.74082927,14.1669217 L6.74075203,14.166998 L4.60417886,14.166998 L4.60417886,12.5839491 L33.4411585,12.5839491 L33.4411585,14.166998 Z" fill-rule="nonzero"></path>
                        </g>
                    </g>
                </g>
            </g>
        </g>
    </g>
</svg>