<?xml version="1.0" encoding="UTF-8"?>
<svg width="26px" height="27px" viewBox="0 0 26 27" version="1.1" xmlns="http://www.w3.org/2000/svg" xmlns:xlink="http://www.w3.org/1999/xlink">
    <!-- Generator: Sketch 48.2 (47327) - http://www.bohemiancoding.com/sketch -->
    <title>palm</title>
    <desc>Created with Sketch.</desc>
    <defs></defs>
    <g id="Main-page" stroke="none" stroke-width="1" fill="none" fill-rule="evenodd" transform="translate(-762.000000, -4841.000000)">
        <g id="Hotel-themes" transform="translate(149.000000, 4058.000000)" fill="#5EABDD">
            <g id="Resorts" transform="translate(585.000000, 613.000000)">
                <g id="Group-5" transform="translate(25.000000, 166.000000)">
                    <g id="palm" transform="translate(3.000000, 4.000000)">
                        <g id="Shape">
                            <path d="M25.8816789,8.31 C25.3875732,7.67821053 24.7864024,7.14563158 24.094813,6.72694737 C21.4524837,5.12731579 18.1216829,5.59078947 16.0080732,7.65426316 L17.0555772,4.08552632 C17.1200488,3.86578947 16.9934837,3.63563158 16.7729065,3.57142105 C16.5523293,3.50715789 16.3211829,3.63321053 16.2567114,3.85294737 L14.5214756,9.76484211 C14.3988211,9.48110526 14.2557683,9.20436842 14.0941138,8.93952632 C13.7402073,8.35978947 13.3103618,7.85368421 12.8249756,7.42605263 C12.4545285,5.03257895 13.6372114,2.64494737 15.772065,1.48068421 C16.1973659,1.24873684 16.6447033,1.07215789 17.1080528,0.952947368 L16.6460772,2.52673684 C16.5816057,2.74647368 16.7081707,2.97663158 16.928748,3.04084211 C17.1492724,3.10510526 17.3804715,2.979 17.4449431,2.75931579 L18.099065,0.530789474 C18.1822439,0.247315789 17.9361423,-0.0368947368 17.6423211,0.004 C16.8458862,0.114368421 16.0821098,0.366631579 15.3723415,0.753684211 C13.1664106,1.95673684 11.8499228,4.30231579 11.9292439,6.76284211 C9.87281301,5.494 7.18884146,5.39231579 4.98417886,6.72705263 C4.29258943,7.14573684 3.6914187,7.67836842 3.19731301,8.31010526 C3.0148374,8.54336842 3.13913008,8.89752632 3.42703252,8.96742105 L10.7331382,10.7418947 C7.85855285,11.5175263 5.76750813,14.1701579 5.83779268,17.2655263 C5.85607724,18.0713158 6.01863008,18.8562105 6.32095935,19.5982105 C6.43225203,19.8715789 6.80222358,19.9425263 7.00742276,19.7287368 L11.8314797,14.702 C12.1481301,15.0186316 12.586061,15.215 13.0691748,15.215 C13.4357642,15.215 13.7761951,15.1017895 14.0575447,14.9088947 C14.2728902,15.9119474 14.4451667,16.9312632 14.5704634,17.9457895 C14.7622927,19.4988947 14.8477967,21.0787368 14.827874,22.6472105 C14.1712154,22.5928421 13.5105935,22.5646842 12.8472764,22.5646842 C8.36534146,22.5646842 4.00093496,23.8161053 0.225808943,26.1835789 C0.0339268293,26.3039474 -0.0253658537,26.564 0.0954390244,26.7551579 C0.216296748,26.9463158 0.477406504,27.0054211 0.669341463,26.8850526 C4.31150813,24.6009474 8.52260976,23.3936316 12.8473293,23.3936316 C17.1720488,23.3936316 21.3832033,24.601 25.0253699,26.8850526 C25.2328415,27.0151053 25.5150894,26.9338947 25.6217846,26.7147368 C25.7130488,26.5272105 25.6457236,26.2945263 25.4687967,26.1836316 C23.1740854,24.7445789 20.6613862,23.7187895 18.0372358,23.1347895 C17.9415325,21.4973684 17.7236504,19.8563158 17.3884512,18.2527895 C17.1718374,17.2163684 16.902061,16.1795263 16.5867846,15.1660526 C16.8650691,15.0990526 17.1174065,14.9657368 17.3261992,14.7836316 L22.0718333,19.7287895 C22.2769797,19.9425789 22.6469512,19.8715789 22.7582967,19.5982632 C23.0605732,18.8561579 23.2231789,18.0713684 23.2414634,17.2655789 C23.311748,14.1702105 21.2207561,11.5175263 18.3461179,10.7419474 L25.6522236,8.96747368 C25.9399146,8.89742105 26.0642073,8.54326316 25.8816789,8.31 Z M4.28952439,8.32357895 C4.62482927,7.98363158 5.00193496,7.68615789 5.41640244,7.43526316 C8.14841057,5.78126316 11.7221423,6.64921053 13.3829187,9.37005263 C13.528878,9.60926316 13.6568699,9.85968421 13.7663659,10.1162105 C13.6170772,10.2331579 13.4872886,10.3736316 13.3827602,10.5322105 L4.28952439,8.32357895 Z M11.3212033,13.4741053 C11.3212033,13.6430526 11.345935,13.8062105 11.3912236,13.9607895 L6.87879675,18.6628421 C6.75080488,18.2036316 6.68073171,17.7295263 6.66973984,17.2466842 C6.59744715,14.0633158 9.13905285,11.4148421 12.3354146,11.3428421 C12.5910285,11.3372105 12.8471179,11.3485263 13.1005122,11.3759474 C13.0982927,11.412 13.0967602,11.4481579 13.0967602,11.4847368 C13.0967602,11.5686842 13.1034187,11.6520526 13.1154146,11.7345789 C13.0999309,11.7341579 13.0845528,11.7334211 13.0690163,11.7334211 C12.1052724,11.7333684 11.3212033,12.5142632 11.3212033,13.4741053 Z M13.0690691,14.3858947 C12.5642358,14.3858947 12.1535732,13.9768421 12.1535732,13.4741053 C12.1535732,12.9713158 12.5642886,12.5623158 13.0690691,12.5623158 C13.5739024,12.5623158 13.984565,12.9713684 13.984565,13.4741053 C13.984565,13.9768421 13.5738496,14.3858947 13.0690691,14.3858947 Z M14.6226748,12.6781579 C14.4975366,12.4369474 14.3177033,12.2283684 14.0992927,12.0690526 C14.0907317,12.0248421 14.0751423,11.9813158 14.0513089,11.9401053 C13.9714065,11.8025263 13.9291301,11.6449474 13.9291301,11.4846316 C13.9291301,10.9818947 14.3398455,10.5728421 14.844626,10.5728421 C15.3494593,10.5728421 15.760122,10.9818947 15.760122,11.4846316 C15.760122,11.5891053 15.7425772,11.6913684 15.708122,11.7886316 C15.7070122,11.7917895 15.7063252,11.7949474 15.7052683,11.798 C15.2342561,11.9295263 14.8431463,12.253 14.6226748,12.6781579 Z M14.8404512,14.5949474 C15.0645691,14.8594737 15.3662114,15.0565263 15.7102358,15.1514737 C15.8667114,15.6398947 16.0116667,16.1346316 16.1455244,16.6325263 L15.2479959,16.7815263 C15.1348537,16.0487895 14.9986179,15.3175263 14.8404512,14.5949474 Z M17.1916016,22.9625789 C16.684126,22.8687895 16.1730569,22.7912632 15.6589756,22.7305263 C15.6709187,21.9214211 15.6556463,21.1092632 15.6122602,20.2988947 L16.9083496,20.2988947 C17.0394593,21.1826842 17.1335244,22.0728421 17.1916016,22.9625789 Z M16.7731179,19.4699474 L15.5575122,19.4699474 C15.5157114,18.9259474 15.4629187,18.3835263 15.3963333,17.8444211 C15.3863984,17.7638421 15.3754065,17.6831579 15.3648902,17.6025263 L16.351252,17.4388421 C16.4303089,17.7659474 16.504874,18.0937368 16.5733618,18.4215263 C16.6460772,18.7692632 16.7118171,19.1190526 16.7731179,19.4699474 Z M16.1762805,14.3858947 C15.6715,14.3858947 15.2607846,13.9768421 15.2607846,13.4741053 C15.2607846,12.9713158 15.6715,12.5623158 16.1762805,12.5623158 C16.6811138,12.5623158 17.0917764,12.9713684 17.0917764,13.4741053 C17.0917764,13.9768421 16.681061,14.3858947 16.1762805,14.3858947 Z M22.4091463,17.2466316 C22.3981545,17.7294737 22.3280813,18.2035789 22.2000894,18.6627895 L17.8110041,14.0892105 C17.883878,13.8978421 17.9240935,13.6905789 17.9240935,13.4740526 C17.9240935,12.6482105 17.3434797,11.9554211 16.5676545,11.7778947 C16.5840894,11.6814737 16.592439,11.5835263 16.592439,11.4846842 C16.592439,11.4368947 16.5899553,11.3896842 16.5861504,11.3428947 C16.638626,11.3426842 16.6912602,11.3416842 16.7435244,11.3427895 C19.9397805,11.4147895 22.481439,14.0632105 22.4091463,17.2466316 Z M16.2149106,10.4061579 C16.0142561,10.1538421 15.7452195,9.95784211 15.4356504,9.84663158 C15.5151301,9.68421053 15.6017439,9.52447368 15.6959675,9.37 C17.3567439,6.64915789 20.9306341,5.78121053 23.6624837,7.43521053 C24.0768984,7.68610526 24.4541098,7.98357895 24.7894146,8.32352632 L16.2149106,10.4061579 Z" fill-rule="nonzero"></path>
                        </g>
                    </g>
                </g>
            </g>
        </g>
    </g>
</svg>