<?xml version="1.0" encoding="utf-8"?>
<!-- Generator: Adobe Illustrator 21.1.0, SVG Export Plug-In . SVG Version: 6.00 Build 0)  -->
<svg version="1.1" id="Слой_1" xmlns="http://www.w3.org/2000/svg" xmlns:xlink="http://www.w3.org/1999/xlink" x="0px" y="0px"
	 viewBox="0 0 48 48" enable-background="new 0 0 48 48" xml:space="preserve">
<title>payment</title>
<desc>Created with Sketch.</desc>
<g id="Page-1">
	<g id="FAQ-" transform="translate(-168.000000, -1190.000000)">
		<g id="Group-6" transform="translate(149.000000, 616.000000)">
			<g id="Payment" transform="translate(10.000000, 564.000000)">
				<g id="payment">
					<g id="Icon_x2F_faq_x2F_payment">
						<g id="credit-card-_x28_3_x29_" transform="translate(9.000000, 10.000000)">
							<path id="Shape" fill="#5EABDD" d="M34.6,16.1h-4.4c-0.3,0-0.6,0.3-0.6,0.6c0,0.3,0.2,0.6,0.6,0.6h4.3c1.8,0,3.3,1.5,3.3,3.4
								v0.7H10.1v-0.7c0-1.9,1.5-3.4,3.3-3.4h4.3c0.3,0,0.6-0.3,0.6-0.6c0-0.3-0.2-0.6-0.6-0.6h-4.3c-2.4,0-4.4,2-4.4,4.5v12.7
								c0,2.5,2,4.5,4.4,4.5h21.1c2.4,0,4.4-2,4.4-4.5V20.7C39,18.1,37,16.1,34.6,16.1z M37.9,33.4c0,1.9-1.5,3.4-3.3,3.4H13.4
								c-1.8,0-3.3-1.5-3.3-3.4v-7.5h27.8V33.4z M37.9,24.8H10.1v-2.3h27.8V24.8z"/>
							<path id="Shape_1_" fill="#5EABDD" d="M17.8,28.7h-5.3c-0.3,0-0.6,0.3-0.6,0.6s0.2,0.6,0.6,0.6h5.3c0.3,0,0.6-0.3,0.6-0.6
								S18.1,28.7,17.8,28.7z"/>
							<path id="Shape_2_" fill="#5EABDD" d="M23.2,28.7h-3c-0.3,0-0.6,0.3-0.6,0.6s0.2,0.6,0.6,0.6h3c0.3,0,0.6-0.3,0.6-0.6
								S23.5,28.7,23.2,28.7z"/>
							<path id="Shape_3_" fill="#5EABDD" d="M32.6,28.7c-1.4,0-2.5,1.2-2.5,2.6c0,1.4,1.1,2.6,2.5,2.6c1.4,0,2.5-1.2,2.5-2.6
								C35.1,29.8,34,28.7,32.6,28.7z M32.6,32.7c-0.8,0-1.4-0.6-1.4-1.4s0.6-1.4,1.4-1.4c0.8,0,1.4,0.6,1.4,1.4
								S33.4,32.7,32.6,32.7z"/>
							<path id="Shape_4_" fill="#5EABDD" d="M30.9,13.5c-1.8-2.2-4.4-3.5-7.2-3.5s-5.4,1.3-7.2,3.5c-0.2,0.3-0.2,0.6,0.1,0.8
								c0.1,0.1,0.2,0.1,0.3,0.1c0.2,0,0.3-0.1,0.4-0.2c1.6-1.9,3.9-3,6.3-3c2.5,0,4.8,1.1,6.3,3c0.2,0.3,0.6,0.3,0.8,0.1
								C31.1,14.1,31.2,13.8,30.9,13.5z"/>
							<path id="Shape_5_" fill="#5EABDD" d="M28.5,16.2c-1.1-1.4-2.9-2.3-4.7-2.3c-1.8,0-3.5,0.8-4.7,2.3c-0.2,0.3-0.2,0.6,0.1,0.8
								c0.1,0.1,0.2,0.1,0.3,0.1c0.2,0,0.3-0.1,0.4-0.2c0.9-1.2,2.3-1.9,3.8-1.9c1.5,0,2.9,0.7,3.9,1.9c0.2,0.3,0.6,0.3,0.8,0.1
								C28.7,16.8,28.7,16.4,28.5,16.2z"/>
							<path id="Shape_6_" fill="#5EABDD" d="M26.4,18.9c-0.6-0.8-1.6-1.3-2.6-1.3c-1,0-2,0.5-2.6,1.3c-0.2,0.3-0.2,0.6,0.1,0.8
								c0.1,0.1,0.2,0.1,0.3,0.1c0.2,0,0.3-0.1,0.4-0.2c0.5-0.5,1.1-0.9,1.7-0.9c0.7,0,1.3,0.3,1.7,0.9c0.2,0.3,0.6,0.3,0.8,0.1
								C26.5,19.5,26.6,19.1,26.4,18.9z"/>
						</g>
					</g>
				</g>
			</g>
		</g>
	</g>
</g>
</svg>
