<?xml version="1.0" encoding="utf-8"?>
<!-- Generator: Adobe Illustrator 21.1.0, SVG Export Plug-In . SVG Version: 6.00 Build 0)  -->
<svg version="1.1" id="Слой_1" xmlns="http://www.w3.org/2000/svg" xmlns:xlink="http://www.w3.org/1999/xlink" x="0px" y="0px"
	 viewBox="0 0 19 18" enable-background="new 0 0 19 18" xml:space="preserve">
<title>phone</title>
<desc>Created with Sketch.</desc>
<g id="Support" transform="translate(-994.000000, -127.000000)">
	<g id="phone" transform="translate(974.000000, 47.000000)">
		<g transform="translate(20.000000, 80.000000)">
			<g id="phone-call-copy">
				<path id="Shape" fill="#5EABDD" d="M19,14.8c-0.1-0.4-0.3-0.8-0.7-1l-4.7-2.6c-0.6-0.3-1.3-0.2-1.8,0.2l-0.9,0.9
					c-0.2,0.2-0.6,0.3-0.9,0c-0.7-0.6-1.4-1.2-2.1-1.8c-0.7-0.6-1.3-1.3-1.9-2C5.7,8.3,5.7,7.9,6,7.7l0.9-0.9
					c0.5-0.4,0.6-1.1,0.2-1.7L4.4,0.7C4.2,0.3,3.8,0.1,3.4,0C2.9,0,2.5,0.1,2.1,0.4L0.7,1.7c-1,0.9-1,2.6,0,4.7
					c0.9,2.1,2.6,4.3,4.8,6.4c2.2,2.1,4.6,3.7,6.7,4.5c1.1,0.4,2.1,0.7,2.9,0.7c0.9,0,1.6-0.2,2.1-0.7l1.4-1.3
					C18.9,15.7,19,15.2,19,14.8z M13.3,11.7l4.7,2.6c0.2,0.1,0.4,0.3,0.4,0.6c0,0.2,0,0.4-0.2,0.6L12,12.1l0.3-0.2
					C12.5,11.6,12.9,11.6,13.3,11.7z M3.3,0.6c0.3,0,0.5,0.2,0.6,0.4l2.7,4.4c0.2,0.3,0.1,0.7-0.1,1L6.2,6.6L2.7,0.7
					C2.8,0.6,3,0.6,3.2,0.6C3.2,0.6,3.2,0.6,3.3,0.6z M16.7,16.9c-0.8,0.7-2.3,0.7-4.3-0.1C10.3,16,8,14.4,5.9,12.4
					c-2.1-2-3.8-4.2-4.6-6.2C0.4,4.4,0.4,2.9,1.2,2.1l1-1l3.6,5.9L5.5,7.3C5.1,7.7,5,8.4,5.5,8.9c0.6,0.7,1.3,1.4,2,2.1
					c0.7,0.7,1.4,1.3,2.2,1.9c0.5,0.4,1.3,0.4,1.7-0.1l0.2-0.2l6.2,3.4L16.7,16.9z"/>
			</g>
		</g>
	</g>
</g>
</svg>
