<?xml version="1.0" encoding="utf-8"?>
<!-- Generator: Adobe Illustrator 21.1.0, SVG Export Plug-In . SVG Version: 6.00 Build 0)  -->
<svg version="1.1" id="Слой_1" xmlns="http://www.w3.org/2000/svg" xmlns:xlink="http://www.w3.org/1999/xlink" x="0px" y="0px"
	 viewBox="0 0 108 88" enable-background="new 0 0 108 88" xml:space="preserve">
<title>photo-camera</title>
<desc>Created with Sketch.</desc>
<g id="No-photo" transform="translate(-666.000000, -166.000000)" opacity="0.7">
	<g id="Rooms-Copy" transform="translate(74.000000, 60.000000)">
		<g id="Room" transform="translate(466.000000, 62.000000)">
			<g id="Group-25">
				<g id="photo-camera" transform="translate(126.000000, 44.000000)">
					
						<g id="photo-camera-_x28_1_x29_" transform="translate(54.000000, 44.000000) rotate(-360.000000) translate(-54.000000, -44.000000) ">
						<path id="Shape" fill="#5B6D7C" d="M0,26.9v47.8C0,82.1,5.9,88,13.2,88h81.6c7.3,0,13.2-5.9,13.2-13.2V26.9
							c0-6.9-5.6-12.6-12.5-12.6H77.9l-0.4-1.8C75.8,5.1,69.3,0,61.8,0H46.2c-7.5,0-14,5.1-15.7,12.5l-0.4,1.8H12.5
							C5.6,14.3,0,20,0,26.9z M32.2,19.8c1.3,0,2.3-0.9,2.6-2.1l0.9-3.9c1.1-4.9,5.4-8.3,10.4-8.3h15.6c5,0,9.3,3.4,10.4,8.3
							l0.9,3.9c0.3,1.2,1.4,2.1,2.6,2.1h19.7c3.9,0,7.1,3.2,7.1,7.2v47.8c0,4.3-3.5,7.8-7.8,7.8H13.2c-4.3,0-7.8-3.5-7.8-7.8V26.9
							c0-4,3.2-7.2,7.1-7.2H32.2z"/>
						<circle id="Oval" fill="#5B6D7C" cx="18.5" cy="31.5" r="3.5"/>
						<path id="Shape_1_" fill="#5B6D7C" d="M53.5,73C65.9,73,76,62.9,76,50.5S65.9,28,53.5,28S31,38.1,31,50.5S41.1,73,53.5,73z
							 M53.5,33.4c9.4,0,17.1,7.7,17.1,17.1s-7.7,17.1-17.1,17.1s-17.1-7.7-17.1-17.1S44.1,33.4,53.5,33.4z"/>
					</g>
				</g>
			</g>
		</g>
	</g>
</g>
</svg>
