<?xml version="1.0" encoding="utf-8"?>
<!-- Generator: Adobe Illustrator 21.1.0, SVG Export Plug-In . SVG Version: 6.00 Build 0)  -->
<svg version="1.1" id="Слой_1" xmlns="http://www.w3.org/2000/svg" xmlns:xlink="http://www.w3.org/1999/xlink" x="0px" y="0px"
	 viewBox="0 0 20 20" enable-background="new 0 0 20 20" xml:space="preserve">
<title>picture</title>
<desc>Created with Sketch.</desc>
<g id="Hotel-page" transform="translate(-1266.000000, -118.000000)">
	<g id="First-screen" transform="translate(0.000000, 7.000000)">
		<g id="Button_photo-gallery-Copy-4" transform="translate(1240.000000, 101.000000)">
			<g id="Group-2" transform="translate(26.000000, 10.000000)">
				<g id="picture">
					<g id="Shape">
						<path fill="#5B6D7C" d="M0,17.9C0,19.1,0.9,20,2.1,20h15.8c1.2,0,2.1-0.9,2.1-2.1V2.1C20,0.9,19.1,0,17.9,0H2.1
							C0.9,0,0,0.9,0,2.1V17.9z M17.9,19H2.1C1.5,19,1,18.5,1,17.9v-2.6l3.8-3.8L8,14.7c0.2,0.2,0.5,0.2,0.7,0l5.9-5.9l4.4,4.4v4.6
							C19,18.5,18.5,19,17.9,19z M2.1,1h15.8C18.5,1,19,1.5,19,2.1v9.7l-4.1-4c-0.2-0.2-0.5-0.2-0.7,0l-5.9,5.9l-3.2-3.2
							c-0.2-0.2-0.5-0.2-0.7,0L1,13.8V2.1C1,1.5,1.5,1,2.1,1z"/>
						<path fill="#5B6D7C" d="M6.2,8c1.4,0,2.6-1.2,2.6-2.6S7.6,2.8,6.2,2.8S3.6,4,3.6,5.4S4.8,8,6.2,8z M6.2,3.8
							c0.9,0,1.6,0.7,1.6,1.6S7.1,7,6.2,7S4.6,6.3,4.6,5.4S5.3,3.8,6.2,3.8z"/>
					</g>
				</g>
			</g>
		</g>
	</g>
</g>
</svg>
