<?xml version="1.0" encoding="UTF-8"?>
<svg width="14px" height="18px" viewBox="0 0 14 18" version="1.1" xmlns="http://www.w3.org/2000/svg" xmlns:xlink="http://www.w3.org/1999/xlink">
    <!-- Generator: Sketch 48.2 (47327) - http://www.bohemiancoding.com/sketch -->
    <title>Shape</title>
    <desc>Created with Sketch.</desc>
    <defs></defs>
    <g id="Hotel-page" stroke="none" stroke-width="1" fill="none" fill-rule="evenodd" transform="translate(-1126.000000, -5708.000000)" opacity="0.800000012">
        <g id="Footer/desctop" transform="translate(0.000000, 5566.000000)" fill="#5B6D7C" fill-rule="nonzero">
            <g id="Social-networks" transform="translate(1028.000000, 136.000000)">
                <g id="pinterest-social-visual-website-logotype" transform="translate(90.000000, 0.000000)">
                    <path d="M21.9231373,12.3545588 C21.9231373,9.24411765 19.3418137,6.34637255 15.42,6.34637255 C10.5381863,6.34637255 8.07818627,9.91911765 8.07818627,12.8986765 C8.07818627,14.7027451 8.74637255,16.3077451 10.1822549,16.905049 C10.4168137,17.0032353 10.6281863,16.9077941 10.6963725,16.6431863 C10.7427451,16.4591176 10.8558824,15.9941176 10.905,15.8018627 C10.9745588,15.5386765 10.9472549,15.4473039 10.7577451,15.2168137 C10.3431863,14.7163725 10.08,14.0727451 10.08,13.1590686 C10.08,10.5095098 12.0218137,8.13681373 15.1377451,8.13681373 C17.8963725,8.13681373 19.4127451,9.85769608 19.4127451,12.1554412 C19.4127451,15.18 18.1023039,17.7313725 16.155049,17.7313725 C15.0791176,17.7313725 14.2759314,16.8245588 14.5336765,15.7118627 C14.8418627,14.3836765 15.4404902,12.9491176 15.4404902,11.9904902 C15.4404902,11.1327451 14.9891176,10.4154902 14.055049,10.4154902 C12.9559804,10.4154902 12.0736765,11.5759314 12.0736765,13.1304902 C12.0736765,14.1204902 12.4023039,14.79 12.4023039,14.79 C12.4023039,14.79 11.2773039,19.6541176 11.0809314,20.505 C10.9022549,21.2809314 10.875,22.1331863 10.8995588,22.8531863 C10.9745588,23.4995588 11.6004902,24.0259314 12.1431863,23.3168137 C12.525,22.6936275 12.9354902,21.9068137 13.1481863,21.1186275 C13.275,20.6522549 13.8709314,18.2358824 13.8709314,18.2358824 C14.2281863,18.9313725 15.2713725,19.5436275 16.3813725,19.5436275 C19.6826961,19.5422549 21.9231373,16.4686275 21.9231373,12.3545588 Z" id="Shape"></path>
                </g>
            </g>
        </g>
    </g>
</svg>