<?xml version="1.0" encoding="UTF-8"?>
<svg width="50px" height="50px" viewBox="0 0 50 50" version="1.1" xmlns="http://www.w3.org/2000/svg" xmlns:xlink="http://www.w3.org/1999/xlink">
    <!-- Generator: Sketch 49 (51002) - http://www.bohemiancoding.com/sketch -->
    <title>planet-earth</title>
    <desc>Created with Sketch.</desc>
    <defs></defs>
    <g id="About-us" stroke="none" stroke-width="1" fill="none" fill-rule="evenodd">
        <g transform="translate(-695.000000, -1077.000000)" fill="#5EABDD" id="Benefits">
            <g transform="translate(249.000000, 857.000000)">
                <g id="language-and-currency" transform="translate(385.000000, 220.000000)">
                    <g id="planet-earth" transform="translate(61.000000, 0.000000)">
                        <g id="Shape">
                            <path d="M42.6776618,7.3223382 C37.9557411,2.60052192 31.6777662,0 25,0 C18.3222338,0 12.0442589,2.60052192 7.3223382,7.3223382 C2.60052192,12.0442589 0,18.3222338 0,25 C0,31.6777662 2.60052192,37.9557411 7.3223382,42.6776618 C12.0442589,47.3994781 18.3222338,50 25,50 C31.6777662,50 37.9557411,47.3994781 42.6776618,42.6776618 C47.3994781,37.9557411 50,31.6777662 50,25 C50,18.3222338 47.3994781,12.0442589 42.6776618,7.3223382 Z M47.8800626,19.8993737 L41.2862213,18.0526096 C41.0208768,17.9782881 40.7358038,18.0490605 40.5359081,18.2388309 C40.3360125,18.4287056 40.2507307,18.7096033 40.3113779,18.9786013 L40.847286,21.3566806 C40.9991649,22.0306889 41.4312109,22.6124217 42.0325678,22.9526096 C42.6034447,23.2755741 43.2822547,23.3555324 43.9108559,23.1770355 L43.9108559,24.3641962 C43.9108559,24.9075157 43.6502088,25.4249478 43.2136743,25.7482255 L39.2220251,28.7045929 L35.7015658,21.9124217 C35.5026096,21.5286013 35.030167,21.3786013 34.6462422,21.5775574 C34.2623173,21.7765136 34.1124217,22.2490605 34.3113779,22.632881 L37.8798539,29.5176409 C38.6360125,30.9765136 40.1843424,31.8467641 41.8229645,31.7337161 L42.0051148,31.72119 L41.7425887,33.1660752 L36.969833,37.6633612 C36.8862213,37.7420668 36.8210856,37.838309 36.77881,37.9450939 L33.2378914,46.8936326 C32.3601253,47.0573069 31.4618998,46.9105428 30.6727557,46.4681628 C29.7825678,45.9693111 29.1433194,45.1551148 28.8728601,44.1756785 C28.5335073,42.9467641 28.4968685,42.532881 28.4968685,42.4120042 L28.4968685,38.6395616 C28.4968685,38.3155532 28.2973904,38.0251566 27.9949896,37.9088727 L27.1628392,37.5888309 C26.0599165,37.1646138 25.0845511,36.4544885 24.3420668,35.5352818 L22.8949896,33.7436326 C22.7155532,33.5215031 22.4296451,33.4146138 22.1483299,33.4648225 L16.3553236,34.4990605 C15.3572025,34.6773486 14.3473904,34.2484342 13.7824635,33.406785 L13.1749478,32.5016701 C12.1439457,30.9655532 12.0326722,28.9912317 12.8846555,27.3489562 L14.2126305,24.7889353 C14.2731733,24.6723382 14.3033403,24.5422756 14.3004175,24.4109603 L14.27881,23.4436326 C14.2597077,22.5873695 14.8579332,21.8579332 15.7012526,21.708977 L20.886952,20.7934238 C21.7468685,20.6417537 22.6212944,20.8234864 23.3491649,21.3053236 L26.3430063,23.2868476 C26.5438413,23.4197286 26.7948852,23.4529228 27.023382,23.3764092 L31.9289144,21.7364301 C32.0313152,21.7021921 32.1254697,21.6471816 32.2055324,21.5748434 L32.9151357,20.9336117 C33.5544885,20.3558455 33.9191023,19.5303758 33.9155532,18.6686848 C33.9120042,17.8069937 33.5407098,16.9844468 32.8966597,16.4120042 C32.6942589,16.2321503 32.4134656,16.1696242 32.1538622,16.2465553 L28.2638831,17.4004175 L25.8532359,15.193737 C25.3852818,14.7653445 24.730167,14.6493737 24.1436326,14.8914405 C23.5570981,15.1334029 23.1742171,15.677453 23.144572,16.3112735 C23.1443633,16.3160752 23.1441545,16.3209812 23.1440501,16.3257829 L22.375261,15.6443633 C22.3324635,15.6063674 22.285595,15.5732777 22.235595,15.5455115 C20.9890397,14.8541754 19.4493737,15.0413361 18.4043841,16.0110647 L17.1845511,17.143215 C17.1223382,17.2009395 17.0699374,17.2683716 17.0294363,17.3429019 L15.8254697,19.5556367 L14.3270355,19.1391441 C13.9596033,19.036952 13.6990605,18.7126305 13.6787056,18.3317328 L13.6188935,17.2158664 C13.5936326,16.7443633 13.9416493,16.3360125 14.4111691,16.2861169 L15.8969729,16.1282881 C16.2950939,16.0860125 16.5971816,15.7501044 16.5971816,15.3497912 L16.5971816,13.3908142 L19.6061587,11.1201461 C19.9628392,10.8509395 20.2563674,10.5178497 20.4786013,10.1299582 L21.504071,8.33977035 C21.6563674,8.07379958 21.6395616,7.7434238 21.4608559,7.49436326 C21.2822547,7.24530271 20.9749478,7.12327766 20.673904,7.18246347 L16.9985386,7.90386221 L16.9985386,7.71075157 C16.9985386,6.93361169 17.3455115,6.20803758 17.9504175,5.72014614 L22.7618998,1.83966597 L25.9586639,3.68058455 C26.3385177,3.89947808 26.7802714,3.95469729 27.2024008,3.83663883 C27.6245303,3.71847599 27.9732777,3.44175365 28.1843424,3.05751566 L28.8325678,1.87745303 C33.6351775,2.66294363 38.0615866,4.92056367 41.5707724,8.42964509 C44.768476,11.6275574 46.9276618,15.5872651 47.8800626,19.8993737 Z M24.941858,18.1810021 L24.7163883,16.3561587 C24.7209812,16.3498956 24.7284969,16.3440501 24.7408142,16.3389353 C24.7712944,16.3263048 24.7844468,16.3382046 24.795929,16.3487474 L27.5332985,18.8544885 C27.7360125,19.0400835 28.02119,19.1056367 28.2845511,19.0275574 L32.1201461,17.8898747 C32.2687891,18.1210856 32.3485386,18.3901879 32.3497912,18.6751566 C32.3514614,19.0985386 32.1794363,19.4881002 31.8652401,19.7719207 L31.2771399,20.3033403 L26.8888309,21.7703549 L24.2133612,19.9995825 C23.3942589,19.4574113 22.4483299,19.1751566 21.4829854,19.1751566 C21.1943633,19.1751566 20.9039666,19.2004175 20.6148225,19.2514614 L17.4716075,19.8063674 L18.3436326,18.2037578 L19.4696242,17.1587683 C19.9977035,16.6685804 20.7672234,16.5602296 21.4072025,16.8784969 L23.6457203,18.8627349 C23.8893528,19.0787056 24.2414405,19.1212944 24.5295407,18.9697286 C24.8175365,18.8182672 24.9818372,18.5041754 24.941858,18.1810021 Z M25.4331942,1.57108559 C26.0133612,1.58152401 26.5900835,1.61304802 27.1625261,1.66503132 L26.8117954,2.30354906 C26.8091858,2.30835073 26.8012526,2.32286013 26.780167,2.32870564 C26.7588727,2.33465553 26.7447808,2.3263048 26.7399791,2.32359081 L25.4331942,1.57108559 Z M8.42943633,41.5705637 C4.00334029,37.1443633 1.565762,31.259499 1.565762,25 C1.565762,18.740501 4.00334029,12.8556367 8.42943633,8.42943633 C11.6343424,5.22453027 15.6042797,3.06325678 19.9272443,2.11398747 L16.9673278,4.50125261 C15.9920668,5.28789144 15.4326722,6.45772443 15.4326722,7.71064718 L15.4326722,8.85521921 C15.4326722,9.08924843 15.5373695,9.31106472 15.7181628,9.45981211 C15.8988518,9.6085595 16.1368476,9.66858038 16.3662839,9.62348643 L19.293215,9.04906054 L19.119833,9.35167015 C19.0033403,9.55490605 18.8495825,9.72943633 18.6628392,9.87035491 L15.3425887,12.3758873 C15.1465553,12.5237996 15.0313152,12.7552192 15.0313152,13.0008351 L15.0313152,14.6456159 L14.2457203,14.7291232 C12.9474948,14.8670146 11.9853862,15.9961378 12.0553236,17.2995825 L12.1151357,18.4154489 C12.1715031,19.4682672 12.891858,20.3653445 13.90762,20.6477035 L14.115762,20.7055324 C13.2358038,21.3162839 12.6879958,22.3385177 12.7134656,23.4783925 L12.7305846,24.2456159 L11.4947808,26.6278706 C10.3793319,28.7779749 10.5250522,31.3629436 11.8749478,33.3741127 L12.4824635,34.2792276 C13.3933194,35.6363257 15.0216075,36.3277662 16.6305846,36.0403967 L21.9678497,35.0875783 L23.1241127,36.5191023 C24.0392484,37.6520877 25.2414405,38.5273486 26.6008351,39.0502088 L26.9311065,39.1772443 L26.9311065,42.4120042 C26.9311065,42.6757829 26.9759916,43.1887265 27.3636743,44.5926931 C27.7463466,45.9781837 28.6496868,47.1294363 29.9074113,47.834238 C29.9464509,47.8561587 29.9866388,47.8750522 30.026096,47.895929 C28.3933194,48.2508351 26.7108559,48.434238 25,48.434238 C18.740501,48.434238 12.8556367,45.9966597 8.42943633,41.5705637 Z M41.5705637,41.5705637 C39.6949896,43.4461378 37.556785,44.963048 35.2398747,46.0902923 L38.1706681,38.6836117 L43.0038622,34.1293319 C43.1255741,34.0146138 43.2073069,33.8639875 43.2372651,33.6994781 L43.7255741,31.0114823 C43.7687891,30.773904 43.6997912,30.5296451 43.5387265,30.3495825 C43.3776618,30.1695198 43.1427975,30.0740084 42.9015658,30.090501 L41.715762,30.1719207 C41.211691,30.2064718 40.7218163,30.091023 40.298643,29.8558455 L44.1456159,27.0065762 C44.9790188,26.3892484 45.476618,25.4015658 45.476618,24.3643006 L45.476618,22.0957203 C45.476618,21.8443633 45.3559499,21.6083507 45.1521921,21.4610647 C44.9484342,21.3137787 44.6864301,21.2734864 44.4477035,21.3524008 L43.5191023,21.6598121 C43.2781837,21.7393528 43.0241127,21.7145094 42.8035491,21.5897704 C42.582881,21.4649269 42.4305846,21.2599165 42.3748434,21.0125261 L42.1273486,19.9141962 L48.1919624,21.6127349 C48.3519833,22.7250522 48.4343424,23.8561587 48.4343424,25 C48.434238,31.259499 45.9966597,37.1443633 41.5705637,41.5705637 Z" fill-rule="nonzero"></path>
                            <path d="M12.0643006,10.2320459 L12.9236952,10.7597077 L12.4541754,12.8729645 C12.3604384,13.2949896 12.6265136,13.7131524 13.048643,13.8069937 C13.1058455,13.8197286 13.1629436,13.8257829 13.2191023,13.8257829 C13.5779749,13.8257829 13.9015658,13.577453 13.9825678,13.2125261 L14.5731733,10.5543841 C14.6456159,10.2282881 14.5032359,9.89217119 14.2185804,9.71743215 L12.8834029,8.89770355 C12.5149269,8.67150313 12.032881,8.78674322 11.8065762,9.15521921 C11.5804802,9.52379958 11.6958246,10.0058455 12.0643006,10.2320459 Z" fill-rule="nonzero"></path>
                            <path d="M29.6625261,15.7300626 L31.9819415,15.7300626 C32.1495825,15.7300626 32.3127349,15.6762004 32.4474948,15.576618 L33.7467641,14.6154489 C34.0943633,14.3583507 34.1677453,13.8680585 33.9105428,13.5204593 C33.6533403,13.1728601 33.1631524,13.0995825 32.8155532,13.3566806 L31.7237996,14.1643006 L29.6625261,14.1643006 C29.230167,14.1643006 28.8796451,14.5148225 28.8796451,14.9471816 C28.8796451,15.3795407 29.2300626,15.7300626 29.6625261,15.7300626 Z" fill-rule="nonzero"></path>
                            <path d="M36.3898747,14.4473904 C36.5431106,14.6575157 36.7814196,14.7689979 37.0230689,14.7689979 C37.1830898,14.7689979 37.344572,14.7200418 37.4837161,14.6185804 C37.8330898,14.3637787 37.9097077,13.8741127 37.6549061,13.524739 L35.5168058,10.593215 C35.2621086,10.2438413 34.7722338,10.1672234 34.4229645,10.4220251 C34.0735908,10.6768267 33.9969729,11.1664927 34.2517745,11.5158664 L36.3898747,14.4473904 Z" fill-rule="nonzero"></path>
                        </g>
                    </g>
                </g>
            </g>
        </g>
    </g>
</svg>