<?xml version="1.0" encoding="utf-8"?>
<!-- Generator: Adobe Illustrator 21.1.0, SVG Export Plug-In . SVG Version: 6.00 Build 0)  -->
<svg version="1.1" id="Слой_1" xmlns="http://www.w3.org/2000/svg" xmlns:xlink="http://www.w3.org/1999/xlink" x="0px" y="0px"
	 viewBox="0 0 48 48" enable-background="new 0 0 48 48" xml:space="preserve">
<title>policies</title>
<desc>Created with Sketch.</desc>
<g id="Page-1">
	<g id="FAQ-" transform="translate(-168.000000, -755.000000)">
		<g id="Group-6" transform="translate(149.000000, 616.000000)">
			<g id="Hotel-policies" transform="translate(10.000000, 130.000000)">
				<g id="policies">
					<g id="Icon_x2F_faq_x2F_policies">
						<g id="clock-_x28_2_x29_" transform="translate(9.000000, 9.000000)">
							<path id="Shape" fill="#5EABDD" d="M24,9C15.7,9,9,15.7,9,24s6.7,15,15,15s15-6.7,15-15S32.3,9,24,9z M24,38
								c-7.7,0-14-6.3-14-14s6.3-14,14-14s14,6.3,14,14S31.7,38,24,38z"/>
							<path id="Shape_1_" fill="#5EABDD" d="M24.5,22v-5.1c0-0.3-0.2-0.5-0.5-0.5s-0.5,0.2-0.5,0.5V22c-0.7,0.2-1.2,0.7-1.4,1.4
								h-3.6c-0.3,0-0.5,0.2-0.5,0.5c0,0.3,0.2,0.5,0.5,0.5h3.6c0.2,0.9,1,1.5,1.9,1.5c1.1,0,2-0.9,2-2C26,23,25.4,22.2,24.5,22z
								 M24,24.9c-0.6,0-1-0.4-1-1c0-0.6,0.4-1,1-1s1,0.4,1,1C25,24.5,24.6,24.9,24,24.9z"/>
							<path id="Shape_2_" fill="#5EABDD" d="M24,13.9c0.3,0,0.5-0.2,0.5-0.5v-0.5c0-0.3-0.2-0.5-0.5-0.5s-0.5,0.2-0.5,0.5v0.5
								C23.5,13.7,23.7,13.9,24,13.9z"/>
							<path id="Shape_3_" fill="#5EABDD" d="M24,33.9c-0.3,0-0.5,0.2-0.5,0.5v0.5c0,0.3,0.2,0.5,0.5,0.5s0.5-0.2,0.5-0.5v-0.5
								C24.5,34.2,24.3,33.9,24,33.9z"/>
							<path id="Shape_4_" fill="#5EABDD" d="M35,23.4h-0.5c-0.3,0-0.5,0.2-0.5,0.5c0,0.3,0.2,0.5,0.5,0.5H35c0.3,0,0.5-0.2,0.5-0.5
								C35.5,23.7,35.3,23.4,35,23.4z"/>
							<path id="Shape_5_" fill="#5EABDD" d="M13.5,23.4H13c-0.3,0-0.5,0.2-0.5,0.5c0,0.3,0.2,0.5,0.5,0.5h0.5
								c0.3,0,0.5-0.2,0.5-0.5C14,23.7,13.8,23.4,13.5,23.4z"/>
							<path id="Shape_6_" fill="#5EABDD" d="M31.4,15.8l-0.4,0.4c-0.2,0.2-0.2,0.5,0,0.7c0.1,0.1,0.2,0.1,0.4,0.1s0.3,0,0.4-0.1
								l0.4-0.4c0.2-0.2,0.2-0.5,0-0.7S31.6,15.6,31.4,15.8z"/>
							<path id="Shape_7_" fill="#5EABDD" d="M16.2,31l-0.4,0.4c-0.2,0.2-0.2,0.5,0,0.7c0.1,0.1,0.2,0.1,0.4,0.1s0.3,0,0.4-0.1
								l0.4-0.4c0.2-0.2,0.2-0.5,0-0.7C16.7,30.8,16.4,30.8,16.2,31z"/>
							<path id="Shape_8_" fill="#5EABDD" d="M31.8,31c-0.2-0.2-0.5-0.2-0.7,0c-0.2,0.2-0.2,0.5,0,0.7l0.4,0.4
								c0.1,0.1,0.2,0.1,0.4,0.1s0.3,0,0.4-0.1c0.2-0.2,0.2-0.5,0-0.7L31.8,31z"/>
							<path id="Shape_9_" fill="#5EABDD" d="M16.6,15.8c-0.2-0.2-0.5-0.2-0.7,0s-0.2,0.5,0,0.7l0.4,0.4c0.1,0.1,0.2,0.1,0.4,0.1
								c0.1,0,0.3,0,0.4-0.1c0.2-0.2,0.2-0.5,0-0.7L16.6,15.8z"/>
						</g>
					</g>
				</g>
			</g>
		</g>
	</g>
</g>
</svg>
