<?xml version="1.0" encoding="utf-8"?>
<!-- Generator: Adobe Illustrator 21.1.0, SVG Export Plug-In . SVG Version: 6.00 Build 0)  -->
<svg version="1.1" id="Слой_1" xmlns="http://www.w3.org/2000/svg" xmlns:xlink="http://www.w3.org/1999/xlink" x="0px" y="0px"
	 viewBox="0 0 48 48" enable-background="new 0 0 48 48" xml:space="preserve">
<title>pricing</title>
<desc>Created with Sketch.</desc>
<g id="Page-1">
	<g id="FAQ-" transform="translate(-167.000000, -1126.000000)">
		<g id="Group-6" transform="translate(149.000000, 616.000000)">
			<g id="Pricing" transform="translate(10.000000, 502.000000)">
				<g id="pricing">
					<g id="Icon_x2F_faq_x2F_pricing">
						<g id="tag" transform="translate(9.000000, 9.000000)">
							<path id="Shape" fill="#5EABDD" stroke="#5EABDD" stroke-width="0.3" d="M34.3,8c-1.7,0-3.2,1.2-3.6,2.8h-8.4
								c-0.6,0-1.2,0.2-1.6,0.7L8.5,23.6c-0.7,0.7-0.7,1.9,0,2.6l11.3,11.3c0.4,0.4,0.8,0.5,1.3,0.5s0.9-0.2,1.3-0.5l12.1-12.1
								c0.4-0.4,0.7-1,0.7-1.6v-7.6c0.4-0.2,0.7-0.4,1-0.7c1.2-0.9,1.8-2.2,1.8-3.7C38,9.7,36.3,8,34.3,8z M34.3,23.8
								c0,0.4-0.1,0.7-0.4,1L21.8,36.8c-0.4,0.4-1,0.4-1.4,0L9.2,25.5c-0.4-0.4-0.4-1,0-1.4l12.1-12.1c0.3-0.3,0.6-0.4,1-0.4h11.1
								c0.5,0,1,0.4,1,1v2.9c-0.8,0.3-1.6,0.5-2.4,0.6c-0.1-1.1-1.1-2-2.3-2c-1.3,0-2.3,1-2.3,2.3s1,2.3,2.3,2.3
								c1.1,0,2-0.7,2.2-1.7c0.8-0.1,1.7-0.2,2.5-0.5V23.8z M29.5,16.9c0.4,0.1,0.9,0.2,1.4,0.2c-0.2,0.5-0.7,0.8-1.3,0.8
								c-0.8,0-1.4-0.6-1.4-1.4c0-0.8,0.6-1.4,1.4-1.4c0.7,0,1.3,0.5,1.4,1.2c-0.5,0-0.9-0.1-1.3-0.2c-0.2-0.1-0.5,0.1-0.5,0.3
								C29.1,16.6,29.2,16.8,29.5,16.9z M35.6,14.8c-0.1,0.1-0.3,0.2-0.5,0.3v-2.4c0-1-0.8-1.8-1.8-1.8h-1.8C32,9.7,33,8.9,34.3,8.9
								c1.6,0,2.8,1.3,2.8,2.8C37.1,13,36.6,14,35.6,14.8z"/>
						</g>
					</g>
				</g>
			</g>
		</g>
	</g>
</g>
</svg>
