<?xml version="1.0" encoding="UTF-8"?>
<svg width="22px" height="22px" viewBox="0 0 22 22" version="1.1" xmlns="http://www.w3.org/2000/svg" xmlns:xlink="http://www.w3.org/1999/xlink">
    <!-- Generator: Sketch 48.2 (47327) - http://www.bohemiancoding.com/sketch -->
    <title>puzzle</title>
    <desc>Created with Sketch.</desc>
    <defs></defs>
    <g id="Tablet_Pop-up-room-gallery" stroke="none" stroke-width="1" fill="none" fill-rule="evenodd" transform="translate(-30.000000, -1122.000000)">
        <g id="Entertainment" transform="translate(30.000000, 1122.000000)" fill="#5EABDD">
            <g id="puzzle">
                <g id="puzzle-(1)">
                    <path d="M21.5388186,0 L0.460465116,0 C0.206134884,0 0,0.206134884 0,0.460465116 L0,4.41263721 C0,4.66696744 0.206134884,4.87310233 0.460465116,4.87310233 L1.77790698,4.87310233 C2.25044651,4.87310233 2.63488372,5.25753953 2.63488372,5.73002791 C2.63488372,6.20251628 2.25044651,6.58695349 1.77790698,6.58695349 L0.460465116,6.58695349 C0.206134884,6.58695349 0,6.79308837 0,7.0474186 L0,14.951814 C0,15.2061442 0.206134884,15.4122791 0.460465116,15.4122791 L1.77790698,15.4122791 C2.25044651,15.4122791 2.63488372,15.7967163 2.63488372,16.2692047 C2.63488372,16.741693 2.25044651,17.1261302 1.77790698,17.1261302 L0.460465116,17.1261302 C0.206134884,17.1261302 0,17.3322651 0,17.5865953 L0,21.5388186 C0,21.7931488 0.206134884,21.9992837 0.460465116,21.9992837 L10.9996419,21.9992837 C11.2539721,21.9992837 11.460107,21.7931488 11.460107,21.5388186 L11.460107,17.5865953 C11.460107,17.3322651 11.2539721,17.1261302 10.9996419,17.1261302 L9.6822,17.1261302 C9.20971163,17.1261302 8.82527442,16.741693 8.82527442,16.2691535 C8.82527442,15.7966651 9.20966047,15.4122791 9.6822,15.4122791 L10.9996419,15.4122791 C11.2539721,15.4122791 11.460107,15.2061442 11.460107,14.951814 L11.460107,11.460107 L14.4914,11.460107 L14.4914,12.3170837 C14.4914,13.2973628 15.2889256,14.0948884 16.269307,14.0948884 C17.2496884,14.0948884 18.047214,13.2973628 18.047214,12.3170837 L18.047214,11.460107 L21.5389209,11.460107 C21.7932512,11.460107 21.999386,11.2539721 21.999386,10.9996419 L21.999386,0.460465116 C21.9992837,0.206134884 21.7931488,0 21.5388186,0 Z M10.5391767,14.4913488 L9.6822,14.4913488 C8.70192093,14.4913488 7.90434419,15.2888744 7.90434419,16.2692047 C7.90434419,17.2495349 8.70186977,18.0470605 9.6822,18.0470605 L10.5391767,18.0470605 L10.5392279,21.0783535 L0.920930233,21.0783535 L0.920930233,18.0470605 L1.77790698,18.0470605 C2.75823721,18.0470605 3.55581395,17.2494837 3.55581395,16.2691535 C3.55581395,15.2888744 2.75828837,14.4913488 1.77790698,14.4913488 L0.920930233,14.4913488 L0.920930233,11.460107 L4.41263721,11.460107 C4.66696744,11.460107 4.87310233,11.2539721 4.87310233,10.9996419 L4.87310233,9.6822 C4.87310233,9.20971163 5.2575907,8.82532558 5.73013023,8.82532558 C6.20256744,8.82532558 6.58700465,9.20971163 6.58700465,9.6822 L6.58700465,10.9996419 C6.58700465,11.2539721 6.79313953,11.460107 7.04746977,11.460107 L10.5392279,11.460107 L10.5392279,14.4913488 L10.5391767,14.4913488 Z M10.9996419,6.58695349 C10.7453116,6.58695349 10.5391767,6.79308837 10.5391767,7.0474186 L10.5391767,10.5391767 L7.50788372,10.5391767 L7.50788372,9.6822 C7.50788372,8.70192093 6.71035814,7.90439535 5.72997674,7.90439535 C4.74959535,7.90439535 3.95206977,8.70192093 3.95206977,9.6822 L3.95206977,10.5391767 L0.920930233,10.5391767 L0.920930233,7.50788372 L1.77790698,7.50788372 C2.75823721,7.50788372 3.55581395,6.71030698 3.55581395,5.72997674 C3.55581395,4.74969767 2.75828837,3.95217209 1.77790698,3.95217209 L0.920930233,3.95217209 L0.920930233,0.920930233 L10.5391767,0.920930233 L10.5391767,4.41263721 C10.5391767,4.66696744 10.7453116,4.87310233 10.9996419,4.87310233 L12.3170837,4.87310233 C12.7895209,4.87310233 13.1739581,5.25753953 13.1739581,5.73002791 C13.1739581,6.20251628 12.7895721,6.58695349 12.3170837,6.58695349 L10.9996419,6.58695349 Z M21.0783535,10.5391767 L17.5866977,10.5391767 C17.3323674,10.5391767 17.1262326,10.7453116 17.1262326,10.9996419 L17.1262326,12.3170837 C17.1262326,12.7895721 16.7417953,13.1739581 16.2692558,13.1739581 C15.7967674,13.1739581 15.4123302,12.7895721 15.4123302,12.3170837 L15.4123302,10.9996419 C15.4123302,10.7453116 15.2061953,10.5391767 14.9518651,10.5391767 L11.460107,10.5391767 L11.460107,7.50788372 L12.3170837,7.50788372 C13.2973628,7.50788372 14.0948884,6.71030698 14.0948884,5.72997674 C14.0948884,4.74969767 13.2973628,3.95217209 12.3170837,3.95217209 L11.460107,3.95217209 L11.460107,0.920930233 L21.0783535,0.920930233 L21.0783535,10.5391767 Z" id="XMLID_1428_" fill-rule="nonzero"></path>
                </g>
            </g>
        </g>
    </g>
</svg>