<?xml version="1.0" encoding="utf-8"?>
<!-- Generator: Adobe Illustrator 21.1.0, SVG Export Plug-In . SVG Version: 6.00 Build 0)  -->
<svg version="1.1" id="Слой_1" xmlns="http://www.w3.org/2000/svg" xmlns:xlink="http://www.w3.org/1999/xlink" x="0px" y="0px"
	 viewBox="0 0 38 38" enable-background="new 0 0 38 38" xml:space="preserve">
<title>reception</title>
<desc>Created with Sketch.</desc>
<g id="Hotel-page" transform="translate(-151.000000, -1670.000000)">
	<g id="Amenities" transform="translate(0.000000, 1580.000000)">
		<g id="General-amenities" transform="translate(151.000000, 89.000000)">
			<g id="reception" transform="translate(0.000000, 1.000000)">
				<g id="reception-copy">
					<path id="Shape" fill="#5EABDD" d="M37.4,22.3c0.4,0,0.6-0.3,0.6-0.6v-7.6c0-0.3-0.3-0.6-0.6-0.6h-9.8c-0.4-0.8-1.1-1.5-2-1.8
						l-0.4-0.1C25.7,10.9,26,10,26,9c0-2.4-2-4.4-4.4-4.4s-4.4,2-4.4,4.4c0,1,0.4,2,1,2.7L17.3,12c-0.4,0.2-0.8,0.4-1.1,0.7l-2,2
						H9.8c-1.2,0-2.2,1-2.2,2.2c0,0.3,0.1,0.7,0.2,0.9H1.9c-0.4,0-0.6,0.3-0.6,0.6v5H0.6c-0.4,0-0.6,0.3-0.6,0.6v2.5
						c0,0.2,0.1,0.4,0.3,0.5l1.9,1.3c0.1,0.1,0.2,0.1,0.4,0.1h0.6v8.8c0,0.3,0.3,0.6,0.6,0.6h30.4c0.4,0,0.6-0.3,0.6-0.6v-8.8h0.6
						c0.1,0,0.2,0,0.4-0.1l1.9-1.3c0.2-0.1,0.3-0.3,0.3-0.5v-2.5c0-0.3-0.3-0.6-0.6-0.6h-4.4v-1.3H37.4z M21.5,5.9
						c1.7,0,3.2,1.4,3.2,3.1c0,1-0.5,1.9-1.2,2.5c-0.1,0.1-0.2,0.1-0.3,0.2c-0.1,0-0.1,0.1-0.2,0.1c-0.8,0.4-1.7,0.5-2.5,0.2
						c0,0-0.1,0-0.1,0c-0.1,0-0.3-0.1-0.4-0.2c-0.1,0-0.1-0.1-0.2-0.1c-0.1-0.1-0.2-0.1-0.3-0.2c-0.8-0.6-1.3-1.5-1.3-2.5
						C18.4,7.3,19.8,5.9,21.5,5.9z M9.8,16h4.8c0.2,0,0.3-0.1,0.4-0.2l2.2-2.2c0.2-0.2,0.4-0.3,0.6-0.4l1.3-0.5c0,0,0,0,0,0
						c0.2,0.1,0.4,0.2,0.5,0.3c0,0,0,0,0,0c0.6,0.3,1.2,0.4,1.8,0.4c1,0,1.9-0.3,2.6-0.8c0,0,0,0,0,0l1.1,0.3
						c0.3,0.1,0.6,0.3,0.9,0.5h-0.8c-0.4,0-0.6,0.3-0.6,0.6v7.6c0,0.3,0.3,0.6,0.6,0.6h1.3v1.3H19v-6.9c0-0.2-0.1-0.5-0.4-0.6
						c-0.2-0.1-0.5-0.1-0.7,0.1l-2.4,1.8h-4.9H9.8c-0.5,0-0.9-0.4-0.9-0.9C8.9,16.4,9.3,16,9.8,16z M17.7,17.9v5.7h-6.3v-4.4h4.4
						c0.1,0,0.3,0,0.4-0.1L17.7,17.9z M2.5,19.1h7.3h0.3v4.4H2.5V19.1z M36.7,24.8v1.6l-1.5,1h-1.1c-0.4,0-0.6,0.3-0.6,0.6v8.8H4.4
						v-8.8c0-0.3-0.3-0.6-0.6-0.6H2.7l-1.5-1v-1.6h0.6h8.9h7.6h8.9h2.5h2.5H36.7z M27.9,23.5v-1.3h1.3v1.3H27.9z M30.4,23.5v-1.3
						h1.3v1.3H30.4z M32.3,21h-2.5h-2.5H26v-6.3h1.2h9.6V21H32.3z"/>
					<path id="Shape_1_" fill="#5EABDD" d="M5.6,0C2.5,0,0,2.5,0,5.6s2.5,5.6,5.6,5.6s5.6-2.5,5.6-5.6S8.6,0,5.6,0z M6.2,9.8V8.7
						H4.9v1.2C3.1,9.6,1.6,8.1,1.3,6.2h1.2V4.9H1.3c0.3-1.9,1.8-3.4,3.7-3.7v1.2h1.2V1.3c1.9,0.3,3.4,1.8,3.7,3.7H8.7v1.2h1.2
						C9.6,8.1,8.1,9.6,6.2,9.8z"/>
					<path id="Shape_2_" fill="#5EABDD" d="M6.5,3.7l-1.3,2L4.5,5L3.7,5.9l1.1,1.3C5,7.3,5.1,7.4,5.2,7.4c0,0,0,0,0,0
						c0.2,0,0.3-0.1,0.4-0.3l1.7-2.6L6.5,3.7z"/>
				</g>
			</g>
		</g>
	</g>
</g>
</svg>
