<?xml version="1.0" encoding="utf-8"?>
<!-- Generator: Adobe Illustrator 21.1.0, SVG Export Plug-In . SVG Version: 6.00 Build 0)  -->
<svg version="1.1" id="Слой_1" xmlns="http://www.w3.org/2000/svg" xmlns:xlink="http://www.w3.org/1999/xlink" x="0px" y="0px"
	 viewBox="0 0 38 38" enable-background="new 0 0 38 38" xml:space="preserve">
<title>room-service</title>
<desc>Created with Sketch.</desc>
<g id="Hotel-page" transform="translate(-151.000000, -2004.000000)">
	<g id="Amenities" transform="translate(0.000000, 1580.000000)">
		<g id="Services" transform="translate(151.000000, 424.000000)">
			<g id="Group-20-Copy">
				<g id="room-service">
					<g id="room-service-_x28_1_x29_">
						<path id="Shape" fill="#5EABDD" d="M37.4,16.5h-1.9c-0.3-3.1-2.6-5.7-5.7-6.6v-1c0-1.4-1.1-2.5-2.5-2.5s-2.5,1.1-2.5,2.5v1
							c-0.9,0.3-1.8,0.7-2.5,1.3v-0.4c0-0.1,0-0.2-0.1-0.3l-1.8-3.7V3.2V0.6C20.3,0.3,20,0,19.6,0h-2.5c-0.4,0-0.6,0.3-0.6,0.6v2.5
							v3.7l-1.8,3.7c0,0.1-0.1,0.2-0.1,0.3v0.6v3.2v1.9h-3.2v-3.9c1.1-0.3,1.9-1.3,1.9-2.4V7c0-0.3-0.3-0.6-0.6-0.6H8.9
							C8.5,6.3,8.2,6.6,8.2,7v3.2c0,1.2,0.8,2.2,1.9,2.4v3.9H5.1v-3.9C6.2,12.3,7,11.3,7,10.1V7c0-0.3-0.3-0.6-0.6-0.6H2.5
							C2.2,6.3,1.9,6.6,1.9,7v3.2c0,1.2,0.8,2.2,1.9,2.4v3.9H0.6c-0.4,0-0.6,0.3-0.6,0.6v7c0,1.7,1.4,3.2,3.2,3.2h1.3v3.2V33
							c-1.1,0.3-1.9,1.3-1.9,2.4c0,1.4,1.1,2.5,2.5,2.5s2.5-1.1,2.5-2.5c0-1.2-0.8-2.2-1.9-2.4v-2h26.6v2c-1.1,0.3-1.9,1.3-1.9,2.4
							c0,1.4,1.1,2.5,2.5,2.5c1.4,0,2.5-1.1,2.5-2.5c0-1.2-0.8-2.2-1.9-2.4v-2.6v-3.2h1.3c1.7,0,3.2-1.4,3.2-3.2v-7
							C38,16.8,37.7,16.5,37.4,16.5z M26,8.9c0-0.7,0.6-1.3,1.3-1.3s1.3,0.6,1.3,1.3v0.7c0,0-0.1,0-0.1,0c-0.1,0-0.3,0-0.4,0
							c-0.2,0-0.5,0-0.7,0s-0.5,0-0.7,0c-0.1,0-0.3,0-0.4,0c0,0-0.1,0-0.1,0V8.9z M21.1,14.1c0-0.1,0.1-0.1,0.1-0.2
							c0.1-0.1,0.1-0.2,0.2-0.3c0-0.1,0.1-0.1,0.1-0.2c0.1-0.1,0.2-0.3,0.4-0.4c0.9-1,2.1-1.7,3.5-2c0,0,0,0,0,0
							c0.3-0.1,0.6-0.1,0.8-0.2c0,0,0,0,0.1,0c0.6-0.1,1.1-0.1,1.7,0c0,0,0,0,0.1,0c0.3,0,0.6,0.1,0.8,0.2c0,0,0,0,0,0
							c2.8,0.7,4.9,2.8,5.2,5.5H20.3c0-0.1,0-0.2,0-0.3c0-0.1,0-0.2,0-0.2c0-0.1,0.1-0.3,0.1-0.4c0,0,0-0.1,0-0.1
							c0-0.2,0.1-0.3,0.2-0.5c0,0,0,0,0-0.1c0-0.1,0.1-0.1,0.1-0.2c0.1-0.1,0.1-0.2,0.2-0.3C21,14.2,21.1,14.2,21.1,14.1z M17.7,1.3
							H19v1.3h-1.3V1.3z M17.7,7.2c0-0.1,0.1-0.2,0.1-0.3V3.8H19V7c0,0.1,0,0.2,0.1,0.3l1.8,3.5h-4.9L17.7,7.2z M15.8,12h5.1v0.2
							c-0.1,0.1-0.2,0.2-0.2,0.3c-0.1,0.1-0.1,0.1-0.2,0.2c-0.1,0.1-0.1,0.2-0.2,0.3c0,0,0,0.1-0.1,0.1c0,0.1-0.1,0.1-0.1,0.2
							c-0.1,0.1-0.1,0.2-0.2,0.3c0,0.1-0.1,0.2-0.1,0.2c0,0,0,0,0,0.1h-3.9V12z M15.8,15.2h3.4c0,0.1,0,0.2-0.1,0.2
							c0,0.1,0,0.2-0.1,0.3c0,0.1-0.1,0.3-0.1,0.4c0,0.1,0,0.2,0,0.2c0,0,0,0,0,0.1h-3.2V15.2z M9.5,10.1V7.6H12v2.5
							c0,0.7-0.6,1.3-1.3,1.3S9.5,10.8,9.5,10.1z M3.2,10.1V7.6h2.5v2.5c0,0.7-0.6,1.3-1.3,1.3S3.2,10.8,3.2,10.1z M6.3,35.5
							c0,0.7-0.6,1.3-1.3,1.3s-1.3-0.6-1.3-1.3s0.6-1.3,1.3-1.3S6.3,34.8,6.3,35.5z M5.7,29.8v-2.5h26.6v2.5H5.7z M34.2,35.5
							c0,0.7-0.6,1.3-1.3,1.3s-1.3-0.6-1.3-1.3s0.6-1.3,1.3-1.3S34.2,34.8,34.2,35.5z M36.7,24.1c0,1-0.9,1.9-1.9,1.9h-1.9H5.1H3.2
							c-1,0-1.9-0.9-1.9-1.9v-6.3h13.9h4.4h15.2h1.9V24.1z"/>
					</g>
				</g>
			</g>
		</g>
	</g>
</g>
</svg>
