<?xml version="1.0" encoding="utf-8"?>
<!-- Generator: Adobe Illustrator 21.1.0, SVG Export Plug-In . SVG Version: 6.00 Build 0)  -->
<svg version="1.1" id="Слой_1" xmlns="http://www.w3.org/2000/svg" xmlns:xlink="http://www.w3.org/1999/xlink" x="0px" y="0px"
	 viewBox="0 0 48 48" enable-background="new 0 0 48 48" xml:space="preserve">
<title>room-type</title>
<desc>Created with Sketch.</desc>
<g id="Page-1">
	<g id="FAQ-" transform="translate(-166.000000, -942.000000)">
		<g id="Group-6" transform="translate(149.000000, 616.000000)">
			<g id="Room-types" transform="translate(10.000000, 316.000000)">
				<g id="room-type">
					<g id="Icon_x2F_faq_x2F_room-type">
						<g id="bed" transform="translate(7.000000, 10.000000)">
							<path id="Shape" fill="#5EABDD" d="M37.8,23.1v-6.3c0-3.8-2.8-6.9-6.2-6.9H16.4c-3.4,0-6.2,3.1-6.2,6.9v6.3
								C8.3,23.8,7,25.8,7,28.1v1.2c0,2.1,1.1,3.8,2.7,4.7v4h1.1v-3.6c0.3,0.1,0.7,0.1,1,0.1h24.5c0.4,0,0.7,0,1-0.1V38h1.1v-4
								c1.6-0.9,2.7-2.6,2.7-4.7v-1.2C41,25.8,39.7,23.8,37.8,23.1z M11.2,16.9c0-3.1,2.3-5.7,5.2-5.7h15.1c2.9,0,5.2,2.6,5.2,5.7
								v4.6c-0.6-0.7-1.3-1.2-2.1-1.4v-1.7c0-1.4-1-2.5-2.3-2.5h-5c-1.2,0-2.3,1.1-2.3,2.5v1.6h-2.1v-1.6c0-1.4-1-2.5-2.3-2.5h-5
								c-1.2,0-2.3,1.1-2.3,2.5v1.7c-0.8,0.2-1.6,0.7-2.1,1.4V16.9z M33.6,21.1c1.1,0,2.2,0.7,2.8,1.8c0,0-0.1,0-0.1,0H11.8
								c0,0-0.1,0-0.1,0c0.6-1.1,1.6-1.8,2.8-1.8H33.6z M14.4,19.9v-1.6c0-0.7,0.5-1.3,1.2-1.3h5c0.7,0,1.2,0.6,1.2,1.3v1.6H14.4z
								 M33.6,19.9h-7.4v-1.6c0-0.7,0.5-1.3,1.2-1.3h5c0.7,0,1.2,0.6,1.2,1.3V19.9z M36.2,33.3H11.8c-2,0-3.7-1.8-3.7-4.1v-1.2
								c0-2.2,1.7-4.1,3.7-4.1h24.5c2,0,3.7,1.8,3.7,4.1v1.2h0C39.9,31.5,38.3,33.3,36.2,33.3z"/>
							<rect id="Rectangle-path" x="10.7" y="30.4" fill="#5EABDD" width="26.6" height="1.2"/>
						</g>
					</g>
				</g>
			</g>
		</g>
	</g>
</g>
</svg>
