<?xml version="1.0" encoding="utf-8"?>
<!-- Generator: Adobe Illustrator 21.1.0, SVG Export Plug-In . SVG Version: 6.00 Build 0)  -->
<svg version="1.1" id="Слой_1" xmlns="http://www.w3.org/2000/svg" xmlns:xlink="http://www.w3.org/1999/xlink" x="0px" y="0px"
	 viewBox="0 0 48 48" enable-background="new 0 0 48 48" xml:space="preserve">
<title>search</title>
<desc>Created with Sketch.</desc>
<g id="Page-1">
	<g id="FAQ-" transform="translate(-168.000000, -1065.000000)">
		<g id="Group-6" transform="translate(149.000000, 616.000000)">
			<g id="Search" transform="translate(10.000000, 440.000000)">
				<g id="search">
					<g id="Icon_x2F_faq_x2F_search">
						<g id="search-_x28_1_x29_" transform="translate(9.000000, 9.000000)">
							<path id="Shape" fill="#5EABDD" d="M35.3,12.7C32.9,10.3,29.7,9,26.3,9s-6.6,1.3-8.9,3.7c-2.4,2.4-3.7,5.6-3.7,8.9
								c0,0.7,0,1.3,0.1,1.9c0,0.3,0.3,0.4,0.5,0.4c0.3,0,0.4-0.3,0.4-0.5c-0.1-0.4-0.1-0.9-0.1-1.3h0.5c0.3,0,0.5-0.2,0.5-0.5
								s-0.2-0.5-0.5-0.5h-0.5c0.1-2.1,0.7-4,1.7-5.6h1.8c-0.5,1.3-0.9,2.7-1,4.2c0,0.3,0.2,0.5,0.4,0.5c0.3,0,0.5-0.2,0.5-0.4
								c0.2-1.5,0.6-3,1.1-4.3h3.5c-0.2,0.9-0.3,1.9-0.4,2.8c0,0.3,0.2,0.5,0.4,0.5c0.3,0,0.5-0.2,0.5-0.4c0.1-1,0.2-2,0.4-2.9h5.5
								c0.3,1.7,0.5,3.6,0.5,5.6h-1.4c-0.3,0-0.5,0.2-0.5,0.5c0,0.3,0.2,0.5,0.5,0.5h1.4c0,3-0.4,5.9-1.1,8c-0.6,2-1.4,3.2-2.2,3.2
								c-0.8,0-1.5-0.1-2.3-0.2c-0.3,0-0.5,0.1-0.5,0.4s0.1,0.5,0.4,0.5c0.8,0.2,1.6,0.2,2.4,0.2c3.4,0,6.6-1.3,8.9-3.7
								S39,25,39,21.7S37.7,15.1,35.3,12.7z M36.3,27.8h-1.8c0.7-1.7,1.1-3.6,1.1-5.6h2.3C38,24.2,37.4,26.1,36.3,27.8z M35.7,21.2
								c-0.1-2-0.4-3.9-1.1-5.6h1.8c1,1.7,1.6,3.6,1.7,5.6H35.7z M35.7,14.6h-1.6c-0.3-0.7-0.7-1.3-1.1-1.9
								c-0.4-0.6-0.9-1.1-1.4-1.6C33.2,12,34.6,13.2,35.7,14.6z M33.1,14.6h-3.2c-0.4-1.8-0.9-3.4-1.6-4.4
								C30.2,10.9,31.9,12.5,33.1,14.6z M17,14.6c1.1-1.4,2.5-2.6,4.1-3.4c-0.3,0.3-0.6,0.6-0.9,0.9c-0.6,0.7-1.2,1.6-1.6,2.5H17z
								 M19.6,14.6c0.4-0.7,0.8-1.3,1.3-1.9c1-1.2,2.3-2.1,3.6-2.5c-0.7,1-1.3,2.6-1.6,4.4H19.6z M23.8,14.6
								c0.2-0.9,0.5-1.8,0.7-2.5c0.6-1.4,1.2-2.2,1.9-2.2c0.8,0,1.6,1.2,2.2,3.2c0.1,0.5,0.3,0.9,0.4,1.4H23.8z M30.1,15.6h3.5
								c0.7,1.7,1.2,3.6,1.2,5.6h-4.2C30.5,19.3,30.4,17.3,30.1,15.6z M34.8,22.1c-0.1,2.1-0.5,4-1.2,5.6h-3.5
								c0.3-1.8,0.5-3.7,0.5-5.6H34.8z M29.9,28.7h3.2c-1.2,2.2-2.9,3.8-4.8,4.4C28.9,32.1,29.5,30.5,29.9,28.7z M31.6,32.1
								c0.5-0.5,0.9-1,1.4-1.6c0.4-0.6,0.8-1.2,1.1-1.9h1.6C34.6,30.1,33.2,31.3,31.6,32.1z"/>
							<path id="Shape_1_" fill="#5EABDD" d="M21.7,32.9c3.6,0,6.6-2.9,6.6-6.6s-2.9-6.6-6.6-6.6s-6.6,2.9-6.6,6.6
								c0,1.6,0.6,3.1,1.6,4.3l-1,1c-0.2-0.1-0.4-0.1-0.6-0.1c-0.4,0-0.7,0.1-1,0.4l-4.7,4.7c-0.3,0.3-0.4,0.6-0.4,1s0.1,0.7,0.4,1
								c0.3,0.3,0.6,0.4,1,0.4s0.7-0.1,1-0.4l4.7-4.7c0.4-0.4,0.5-1.1,0.3-1.6l1-1C18.5,32.3,20,32.9,21.7,32.9z M21.7,20.7
								c3.1,0,5.6,2.5,5.6,5.6S24.8,32,21.7,32S16,29.4,16,26.3S18.6,20.7,21.7,20.7z M15.4,33.2l-4.7,4.7c-0.1,0.1-0.2,0.1-0.3,0.1
								s-0.2,0-0.3-0.1c-0.2-0.2-0.2-0.5,0-0.7l4.7-4.7c0.1-0.1,0.2-0.1,0.3-0.1c0.1,0,0.2,0,0.3,0.1C15.6,32.8,15.6,33.1,15.4,33.2
								z"/>
							<path id="Shape_2_" fill="#5EABDD" d="M21.7,22.6c2.1,0,3.8,1.7,3.8,3.8c0,0.3,0.2,0.5,0.5,0.5s0.5-0.2,0.5-0.5
								c0-2.6-2.1-4.7-4.7-4.7c-0.3,0-0.5,0.2-0.5,0.5S21.4,22.6,21.7,22.6z"/>
						</g>
					</g>
				</g>
			</g>
		</g>
	</g>
</g>
</svg>
