<?xml version="1.0" encoding="UTF-8"?>
<svg width="34px" height="34px" viewBox="0 0 34 34" version="1.1" xmlns="http://www.w3.org/2000/svg" xmlns:xlink="http://www.w3.org/1999/xlink">
    <!-- Generator: Sketch 48.2 (47327) - http://www.bohemiancoding.com/sketch -->
    <title>security</title>
    <desc>Created with Sketch.</desc>
    <defs></defs>
    <g id="Main-page_open" stroke="none" stroke-width="1" fill="none" fill-rule="evenodd" transform="translate(-1141.000000, -774.000000)">
        <g id="Benefits/Hotel-class" transform="translate(0.000000, 564.000000)" fill="#5EABDD">
            <g id="Why-book-with-us" transform="translate(150.000000, 40.000000)">
                <g id="secure" transform="translate(877.000000, 145.000000)">
                    <g id="Group-33" transform="translate(70.000000, 25.000000)">
                        <g id="security" transform="translate(44.000000, 0.000000)">
                            <g id="Shape">
                                <path d="M22.6368607,0.00869438669 C19.755131,0.00869438669 17.1301331,1.1012183 15.131131,2.88194179 C14.7629979,2.42219958 14.414657,1.95567152 14.1042037,1.4817921 C14.0979834,1.46765489 14.0957214,1.45238669 14.0883701,1.43881497 C13.9894096,1.2544657 13.7977089,1.13967152 13.5890437,1.13967152 L13.570948,1.13967152 C13.3622827,1.13967152 13.175106,1.26125156 13.076711,1.44503534 C13.0738836,1.45012474 13.0733181,1.45634511 13.0704906,1.462 C11.6641206,3.61368399 9.7838711,5.48884407 7.62709771,6.88560083 C5.48276507,8.27444075 3.01553846,9.22276507 0.492893971,9.62935135 C0.226548857,9.67176299 0.0280623701,9.89682744 0.0173180873,10.166 C-0.0986070686,13.2337755 0.273484407,19.2664075 4.06451975,25.1944241 C6.92306445,29.6651767 10.6004366,32.3405031 13.2152557,33.8102079 C13.3136507,33.8899418 13.4374927,33.9380083 13.570948,33.9380083 L13.5890437,33.9380083 C13.7196715,33.9380083 13.8406861,33.8922037 13.9368191,33.8141663 C16.5522037,32.3455925 20.2335343,29.6691351 23.0949064,25.1944241 C23.6490852,24.3275301 24.1461497,23.4227484 24.6115468,22.4438877 C29.9079127,21.5063077 33.946632,16.8800457 33.946632,11.3184657 C33.946632,5.0822578 28.8730686,0.00869438669 22.6368607,0.00869438669 Z M22.1420582,24.5859584 C19.4780416,28.7519127 16.0670146,31.2903909 13.5794304,32.717684 C11.0924116,31.2903909 7.68138462,28.7519127 5.01680249,24.5859584 C1.57184615,19.1974179 1.0798711,13.7161372 1.13528898,10.6653264 C3.65001663,10.1965364 6.09745114,9.22276507 8.2412183,7.83449064 C10.3126029,6.49315177 12.1442204,4.73674428 13.5799958,2.7230395 C13.8090187,3.04310603 14.0510478,3.3609106 14.3038212,3.67306029 C14.2088191,3.7765447 14.1251268,3.88794595 14.0346486,3.99482328 C13.96679,4.07455717 13.8989314,4.15372557 13.8333347,4.23515593 C13.6648191,4.44325572 13.5064823,4.65757588 13.3543659,4.87528898 C13.3057339,4.94540956 13.2565364,5.01439917 13.2090353,5.08565073 C13.0750146,5.28753015 12.9489106,5.49336798 12.8284615,5.70316424 C12.7068815,5.74840333 12.6005696,5.83096466 12.533842,5.9474553 C11.9694844,6.92801247 10.9125863,7.87520582 9.27832432,9.18035343 C7.11193763,10.9096175 4.83584615,11.6102578 3.30789605,11.8935676 C3.0483368,11.9416341 2.85607069,12.1633056 2.84589189,12.4273888 C2.75767568,14.6695509 3.0183659,19.0888441 5.758158,23.492869 C8.08005405,27.225659 11.1534844,29.351896 13.3215676,30.4783493 C13.3226985,30.4789148 13.323264,30.4783493 13.324395,30.4789148 C13.400736,30.517368 13.4838628,30.5450769 13.5749064,30.5450769 L13.5890437,30.5450769 C13.6789563,30.5450769 13.7603867,30.517368 13.8361622,30.4794802 C13.8384241,30.4783493 13.8406861,30.4789148 13.8423825,30.4777838 C16.0110312,29.3513306 19.0833306,27.225659 21.4057921,23.4923035 C21.5760042,23.2186071 21.7462162,22.9183326 21.9237796,22.5920457 C22.1607193,22.6067484 22.3965281,22.628237 22.6368607,22.628237 C22.8449605,22.628237 23.0558877,22.6208857 23.2741663,22.6067484 C22.9213015,23.2989064 22.546948,23.9520457 22.1420582,24.5859584 Z M11.3830728,12.4279543 C11.3909896,12.5116466 11.4062578,12.5930769 11.4164366,12.6767692 C11.4503659,12.9657339 11.4922121,13.2518711 11.5476299,13.5334844 C11.5612017,13.6019085 11.5787318,13.6692017 11.594,13.7376258 C11.6595967,14.0418586 11.7359376,14.3410021 11.8252848,14.6356216 C11.8354636,14.6695509 11.8467734,14.7029148 11.8575177,14.7368441 C12.8465572,17.8883119 15.1673222,20.4414927 18.2090852,21.7240208 C18.2334012,21.7347651 18.2582827,21.7443784 18.2831642,21.7545572 C18.5625156,21.8699168 18.8475218,21.9745322 19.138183,22.0678378 C19.2309231,22.0978087 19.3230977,22.1272141 19.4169688,22.1549231 C19.6397713,22.2199543 19.8654012,22.2776341 20.0938586,22.329659 C20.2391892,22.3630229 20.3845198,22.3963867 20.5321123,22.4246611 C20.5903576,22.4354054 20.646341,22.4518046 20.7045863,22.4619834 C20.617501,22.6135343 20.5321123,22.7566029 20.4455925,22.8951476 C18.3498919,26.263763 15.6044449,28.242973 13.5816923,29.3360624 C11.5583742,28.242973 8.81292723,26.263763 6.7177921,22.8951476 C4.30767983,19.0209854 3.93445738,15.1321206 3.9632973,12.9148399 C6.16926819,12.4347401 8.24178378,11.454183 9.98348857,10.0642121 C10.6128773,9.56149272 11.1630977,9.10627443 11.6403701,8.67650312 C11.6222744,8.7517131 11.6092682,8.82861954 11.592869,8.90439501 C11.5787318,8.9694262 11.5617672,9.03276091 11.5487609,9.09835759 C11.5351892,9.16791268 11.521052,9.23746778 11.5086112,9.30702287 C11.4616757,9.56601663 11.4260499,9.82727235 11.39721,10.089659 C11.3932516,10.1269813 11.3875967,10.1631726 11.3842037,10.2004948 C11.3779834,10.265526 11.3751559,10.3316881 11.3700665,10.3972848 C11.3446195,10.7032141 11.3270894,11.0102744 11.3270894,11.3184657 C11.3270894,11.6928191 11.3480125,12.0626486 11.3830728,12.4279543 Z M24.1495426,21.3722869 C24.1489771,21.3722869 24.1484116,21.3722869 24.1472807,21.3722869 C23.9024241,21.4090437 23.6767942,21.4356216 23.4602121,21.4554137 C23.1882121,21.4774678 22.9150811,21.4972599 22.6368607,21.4972599 C22.3043534,21.4972599 21.9758046,21.4785988 21.6512141,21.4474969 C21.6512141,21.4474969 21.6512141,21.4474969 21.6506486,21.4474969 C21.4527277,21.4282703 21.259896,21.39321 21.065368,21.3632391 C20.9245613,21.341185 20.7814927,21.3259168 20.6423825,21.2982079 C20.5258919,21.2755884 20.4133597,21.2422245 20.2985655,21.2150811 C20.0780249,21.1630561 19.8569189,21.1121622 19.6420333,21.046 C19.5967942,21.0324283 19.553817,21.0148981 19.5091435,21.0001954 C16.3746403,19.9851435 13.8983659,17.4919044 12.9166778,14.3426985 C12.9166778,14.3421331 12.9161123,14.3410021 12.9161123,14.3404366 C12.8256341,14.050341 12.7521206,13.7534595 12.6876549,13.453185 C12.6803035,13.4169938 12.6695593,13.382499 12.6622079,13.3463077 C12.60679,13.0737422 12.5677713,12.7949563 12.534973,12.5150395 C12.5281871,12.4550977 12.5157464,12.3968524 12.509526,12.3363451 C12.4761622,12.0021414 12.4580665,11.6622827 12.4580665,11.3184657 C12.4580665,11.0091435 12.4772931,10.7037796 12.5044366,10.4012432 C12.510657,10.3328191 12.5157464,10.2638295 12.5236632,10.1954054 C12.5253597,10.1790062 12.5287526,10.163738 12.5310146,10.1473389 C12.5621164,9.8792973 12.6011351,9.61408316 12.6525946,9.35339293 C12.6678628,9.27648649 12.6859584,9.20071102 12.7029231,9.12437006 C12.756079,8.88347193 12.8165863,8.64540125 12.8867069,8.41072349 C12.9019751,8.35926403 12.9144158,8.30780457 12.930815,8.25634511 C13.0179002,7.97982121 13.1185572,7.71008316 13.228262,7.44430353 C13.2508815,7.38832017 13.274632,7.33346778 13.298948,7.2780499 C14.8653514,3.67079834 18.4595967,1.13967152 22.6368607,1.13967152 C28.2493347,1.13967152 32.8156549,5.70599168 32.8156549,11.3184657 C32.8156549,16.4157796 29.0455426,20.6376466 24.1495426,21.3722869 Z" fill-rule="nonzero"></path>
                                <path d="M22.6368607,2.27064865 C17.6481206,2.27064865 13.5890437,6.32972557 13.5890437,11.3184657 C13.5890437,16.3072058 17.6481206,20.3662827 22.6368607,20.3662827 C27.6256008,20.3662827 31.6846778,16.3072058 31.6846778,11.3184657 C31.6846778,6.32972557 27.6256008,2.27064865 22.6368607,2.27064865 Z M23.2023493,19.2064657 L23.2023493,18.1043285 L22.0713721,18.1043285 L22.0713721,19.2064657 C18.1576258,18.9282453 15.0270811,15.7977006 14.7488607,11.8839543 L15.8509979,11.8839543 L15.8509979,10.7529771 L14.7488607,10.7529771 C15.0270811,6.83923077 18.1576258,3.70868607 22.0713721,3.4304657 L22.0713721,4.53260291 L23.2023493,4.53260291 L23.2023493,3.4304657 C27.1160956,3.70868607 30.2466403,6.83923077 30.5248607,10.7529771 L29.4227235,10.7529771 L29.4227235,11.8839543 L30.5248607,11.8839543 C30.2466403,15.7977006 27.1160956,18.9282453 23.2023493,19.2064657 Z" fill-rule="nonzero"></path>
                                <path d="M27.3264574,6.96024532 L22.6368607,11.649842 L20.2092183,9.22219958 L19.4096175,10.0218004 L22.2370603,12.8492432 C22.3473306,12.9595135 22.4920956,13.0149314 22.6368607,13.0149314 C22.7816258,13.0149314 22.9263909,12.9595135 23.0366611,12.8492432 L28.1260582,7.75984615 L27.3264574,6.96024532 Z" fill-rule="nonzero"></path>
                            </g>
                        </g>
                    </g>
                </g>
            </g>
        </g>
    </g>
</svg>