<?xml version="1.0" encoding="UTF-8"?>
<svg width="19px" height="18px" viewBox="0 0 19 18" version="1.1" xmlns="http://www.w3.org/2000/svg" xmlns:xlink="http://www.w3.org/1999/xlink">
    <!-- Generator: Sketch 48.2 (47327) - http://www.bohemiancoding.com/sketch -->
    <title>sort-descending</title>
    <desc>Created with Sketch.</desc>
    <defs></defs>
    <g id="Hotel-list-" stroke="none" stroke-width="1" fill="none" fill-rule="evenodd" transform="translate(-531.000000, -757.000000)">
        <g id="List" transform="translate(0.000000, 569.000000)" fill="#FFFFFF">
            <g id="Menu" transform="translate(150.000000, 82.000000)">
                <g id="Sort-by" transform="translate(366.000000, 57.000000)">
                    <g id="sort-descending" transform="translate(15.000000, 49.000000)">
                        <g id="Shape">
                            <path d="M18.3169593,15.4304696 L10.4837296,15.4304696 C10.1233795,15.4304696 9.83095277,15.7178007 9.83095277,16.0725101 C9.83095277,16.4271892 10.1233795,16.7145203 10.4837296,16.7145203 L18.3169593,16.6959426 C18.6773094,16.6959426 18.9697362,16.4271892 18.9697362,16.0725101 C18.9697052,15.7178007 18.6779283,15.4304696 18.3169593,15.4304696 Z M9.17820684,1.30378378 L18.3169593,1.30250676 C18.6773094,1.30250676 18.9697362,1.0164527 18.9697362,0.661743243 C18.9697362,0.307033784 18.6773094,0.0197027027 18.3169593,0.0197027027 L9.17820684,0.0197027027 C8.81785668,0.0197027027 8.52542997,0.307033784 8.52542997,0.661743243 C8.52542997,1.0164527 8.81785668,1.30378378 9.17820684,1.30378378 Z M10.2794332,11.7591385 C10.0235212,11.5064088 9.60836808,11.5064088 9.35248697,11.7591385 L5.91435342,15.6466216 L5.91435342,0.0197027027 L4.60883062,0.0197027027 L4.60883062,15.6696993 L1.1497785,11.7591385 C0.893897394,11.5064088 0.478713355,11.5064088 0.222863192,11.7591385 C-0.0330488599,12.0118682 -0.0330488599,12.4210642 0.222863192,12.673125 L4.75436319,17.7972264 C4.89079805,17.9319223 5.07225733,17.9889932 5.25046743,17.9800236 C5.42929642,17.9889932 5.61013681,17.9319223 5.74654072,17.7972264 L10.2780717,12.673125 C10.5353143,12.4210642 10.5353143,12.0118682 10.2794332,11.7591385 Z M18.3169593,3.87255405 L9.17820684,3.87255405 C8.81785668,3.87255405 8.52542997,4.15991554 8.52542997,4.51459459 C8.52542997,4.86930405 8.81785668,5.15085811 9.17820684,5.15085811 L18.3169593,5.15085811 C18.6773094,5.15085811 18.9697362,4.86927365 18.9697362,4.51459459 C18.9697052,4.15991554 18.6779283,3.87255405 18.3169593,3.87255405 Z M18.3169593,7.72476689 L9.17820684,7.72476689 C8.81785668,7.72476689 8.52542997,8.01212838 8.52542997,8.36680743 C8.52542997,8.72151689 8.81785668,8.99857095 9.17820684,8.99857095 L18.3169593,9.00884797 C18.6773094,9.00884797 18.9697362,8.72148649 18.9697362,8.36680743 C18.9697052,8.01276689 18.6779283,7.72476689 18.3169593,7.72476689 Z M18.3169593,11.5776182 L13.0948062,11.5776182 C12.734456,11.5776182 12.4420293,11.8649493 12.4420293,12.2196284 C12.4420293,12.5743378 12.734456,12.8475608 13.0948062,12.8475608 L18.3169593,12.8475608 C18.6773094,12.8475608 18.9697362,12.5743378 18.9697362,12.2196284 C18.9697052,11.8649797 18.6779283,11.5776182 18.3169593,11.5776182 Z" fill-rule="nonzero"></path>
                        </g>
                    </g>
                </g>
            </g>
        </g>
    </g>
</svg>