<?xml version="1.0" encoding="UTF-8"?>
<svg width="16px" height="16px" viewBox="0 0 16 16" version="1.1" xmlns="http://www.w3.org/2000/svg" xmlns:xlink="http://www.w3.org/1999/xlink">
    <!-- Generator: Sketch 48.2 (47327) - http://www.bohemiancoding.com/sketch -->
    <title>sort</title>
    <desc>Created with Sketch.</desc>
    <defs></defs>
    <g id="Map_route-planner_1" stroke="none" stroke-width="1" fill="none" fill-rule="evenodd" transform="translate(-1263.000000, -299.000000)">
        <g id="Location_route-planner" transform="translate(-1.000000, 32.000000)" fill="#5B6D7C">
            <g id="Location-block" transform="translate(1028.000000, 92.000000)">
                <g id="Route" transform="translate(10.000000, 145.000000)">
                    <g id="sort" transform="translate(226.000000, 30.000000)">
                        <g id="sort-copy">
                            <path d="M12.238728,15.5837123 C12.238728,15.8138551 12.4122766,16 12.6268458,16 C12.841415,16 13.0149636,15.8138551 13.0149636,15.5837123 L13.0149636,1.40962454 L15.3373598,3.9005817 C15.4130901,3.98180857 15.5109084,4.022422 15.6118822,4.022422 C15.7128559,4.022422 15.8106742,3.98180857 15.8864045,3.9005817 C16.0378652,3.73812797 16.0378652,3.47752512 15.8864045,3.31507139 L12.9045236,0.116763617 C12.7593738,-0.0389212057 12.5037841,-0.0389212057 12.3586343,0.116763617 L9.37675336,3.31507139 C9.22529274,3.47752512 9.22529274,3.73812797 9.37675336,3.9005817 C9.52821398,4.06303543 9.77118205,4.06303543 9.92264267,3.9005817 L12.2450388,1.40962454 L12.2450388,15.5837123 L12.238728,15.5837123 Z" id="Shape" fill-rule="nonzero"></path>
                            <path d="M6.62518297,12.0955805 C6.47367807,11.9331783 6.23063896,11.9331783 6.07913406,12.0955805 L3.75605895,14.5857475 L3.75605895,0.416155635 C3.75605895,0.186085853 3.58245959,0 3.36782765,0 C3.15319571,0 2.97959634,0.186085853 2.97959634,0.416155635 L2.97959634,14.5857475 L0.65967758,12.0955805 C0.508172681,11.9331783 0.265133573,11.9331783 0.113628674,12.0955805 C-0.0378762247,12.2579827 -0.0378762247,12.5185029 0.113628674,12.6809051 L3.09638137,15.8781984 C3.17213382,15.9593995 3.26998073,16 3.370984,16 C3.47198726,16 3.56983418,15.9593995 3.64558663,15.8781984 L6.62833932,12.6809051 C6.77353152,12.5218862 6.77353152,12.2579827 6.62518297,12.0955805 Z" id="Shape" fill-rule="nonzero"></path>
                        </g>
                    </g>
                </g>
            </g>
        </g>
    </g>
</svg>