<?xml version="1.0" encoding="UTF-8"?>
<svg width="19px" height="18px" viewBox="0 0 19 18" version="1.1" xmlns="http://www.w3.org/2000/svg" xmlns:xlink="http://www.w3.org/1999/xlink">
    <!-- Generator: Sketch 48.2 (47327) - http://www.bohemiancoding.com/sketch -->
    <title>sort-ascending</title>
    <desc>Created with Sketch.</desc>
    <defs></defs>
    <g id="Hotel-list-" stroke="none" stroke-width="1" fill="none" fill-rule="evenodd" transform="translate(-531.000000, -720.000000)">
        <g id="List" transform="translate(0.000000, 569.000000)" fill="#5EABDD">
            <g id="Menu" transform="translate(150.000000, 82.000000)">
                <g id="Sort-by" transform="translate(366.000000, 57.000000)">
                    <g id="sort-ascending" transform="translate(15.000000, 12.000000)">
                        <g transform="translate(9.500000, 9.000000) rotate(-360.000000) translate(-9.500000, -9.000000) " id="Shape">
                            <path d="M18.3450596,16.7144557 L9.17648426,16.7144557 C8.81498797,16.7144557 8.52157493,17.0011276 8.52157493,17.3565727 C8.52157493,17.7120483 8.81498797,18 9.17648426,18 L18.3450907,18 C18.706618,18 19,17.7120483 19,17.3565727 C18.999969,17.0011276 18.7072079,16.7144557 18.3450596,16.7144557 Z M10.281277,6.23523891 C10.5380251,5.98196332 10.5380251,5.57188356 10.281277,5.31924786 L5.73497377,0.184109543 C5.59809322,0.0491226705 5.41604116,-0.00810201277 5.23724889,0.000917426134 C5.05780467,-0.00810201277 4.87640456,0.0491226705 4.73952401,0.184109543 L0.192537754,5.31863843 C-0.0641792514,5.57191403 -0.0641792514,5.98199379 0.192537754,6.23459902 C0.449285806,6.48720425 0.865795099,6.48787462 1.1225121,6.23459902 L4.59283302,2.31556141 L4.59283302,17.9993906 L5.90262063,17.9993906 L5.90262063,2.33932885 L9.35195463,6.23520844 C9.60801968,6.48784414 10.024529,6.48784414 10.281277,6.23523891 Z M10.4862719,2.57331625 L18.3450907,2.57331625 C18.706618,2.57331625 19,2.26799605 19,1.91252046 C19,1.55707535 18.706618,1.26912367 18.3450907,1.26912367 L10.4862719,1.26912367 C10.1247445,1.26912367 9.83136254,1.55707535 9.83136254,1.91252046 C9.83136254,2.26799605 10.1247445,2.57331625 10.4862719,2.57331625 Z M18.3450596,12.8520029 L9.17648426,12.8520029 C8.81498797,12.8520029 8.52157493,13.1399546 8.52157493,13.4953997 C8.52157493,13.8508753 8.81498797,14.138827 9.17648426,14.138827 L18.3450907,14.138827 C18.706618,14.138827 19,13.8508753 19,13.4953997 C18.999969,13.1399546 18.7072079,12.8520029 18.3450596,12.8520029 Z M18.3450596,8.99079938 L9.17648426,8.99079938 C8.81498797,8.99079938 8.52157493,9.27878153 8.52157493,9.63422665 C8.52157493,9.98970224 8.81498797,10.2776539 9.17648426,10.2776539 L18.3450907,10.2776539 C18.706618,10.2776539 19,9.98970224 19,9.63422665 C18.999969,9.27878153 18.7072079,8.99079938 18.3450596,8.99079938 Z M18.3450596,5.12962634 L13.1058471,5.14376492 C12.7443198,5.14376492 12.4509378,5.41757802 12.4509378,5.77305361 C12.4509378,6.12849873 12.7443198,6.4293092 13.1058471,6.4293092 L18.3450596,6.41645041 C18.706587,6.41645041 18.999969,6.12849873 18.999969,5.77305361 C18.999969,5.41760849 18.7072079,5.12962634 18.3450596,5.12962634 Z" fill-rule="nonzero"></path>
                        </g>
                    </g>
                </g>
            </g>
        </g>
    </g>
</svg>