<?xml version="1.0" encoding="UTF-8"?>
<svg width="81px" height="81px" viewBox="0 0 81 81" version="1.1" xmlns="http://www.w3.org/2000/svg" xmlns:xlink="http://www.w3.org/1999/xlink">
    <!-- Generator: Sketch 48.2 (47327) - http://www.bohemiancoding.com/sketch -->
    <title>speech-bubble</title>
    <desc>Created with Sketch.</desc>
    <defs></defs>
    <g id="Состояния" stroke="none" stroke-width="1" fill="none" fill-rule="evenodd" transform="translate(-1966.000000, -1134.000000)">
        <g id="Group-21-Copy-2" transform="translate(1582.000000, 946.000000)" fill="#CFDEE5">
            <g id="speech-bubble" transform="translate(384.000000, 188.000000)">
                <g id="speech-bubble-(1)">
                    <path d="M69.040284,44.1631581 C67.4893109,42.6122806 64.9656486,42.6122806 63.4146755,44.1631581 L42.9082535,64.6696486 L40.0807923,75.0341467 L39.3892502,75.7256462 C38.8722592,76.2426054 38.8709267,77.0766683 39.3812555,77.5976246 L39.3745932,77.624272 L39.3999098,77.6176101 C39.6597378,77.8707602 39.9955154,78 40.3312931,78 C40.6724006,78 41.0135081,77.8694278 41.273336,77.6096159 L41.9662106,76.916784 L52.3300151,74.0908295 L72.8377695,53.584339 C74.3874102,52.0334615 74.3874102,49.5099547 72.8377695,47.9590772 L69.040284,44.1631581 Z M45.984883,65.3624805 L59.6331794,51.7150253 L65.2867693,57.3682668 L51.6384729,71.015722 L45.984883,65.3624805 Z M44.7816797,67.9272907 L49.0721722,72.2175187 L43.1720788,73.8270204 L44.7816797,67.9272907 Z M70.9536837,51.7017016 L67.1708551,55.4842971 L61.5172652,49.8310556 L65.3000938,46.0484602 C65.8130875,45.5354981 66.644537,45.5354981 67.1575306,46.0484602 L70.9536837,49.8457117 C71.4653449,50.356009 71.4653449,51.1900719 70.9536837,51.7017016 Z" id="Shape" fill-rule="nonzero"></path>
                    <path d="M56.699055,0 L24.299595,0 C10.9010683,0 0,10.8985254 0,24.2939265 L0,43.1892027 C0,56.1324669 10.1761304,66.7435141 22.9496175,67.4466883 L22.9496175,78.7082729 C22.9496175,79.6381905 23.5044583,80.4695826 24.3643939,80.8245439 C24.6492392,80.9419645 24.9475842,81 25.2432293,81 C25.8372194,81 26.4217596,80.7665084 26.8605023,80.327868 L29.3944101,77.795901 C31.9661172,75.2234441 34.9144681,73.072082 38.157114,71.4025494 C38.819953,71.0610847 39.0804987,70.2485879 38.7389544,69.5845539 C38.39741,68.9232192 37.5847236,68.6573357 36.9205347,69.0028493 C33.4308428,70.7992502 30.2556957,73.1166208 27.4855419,75.8874781 L25.6495725,77.7216696 L25.6495725,64.783804 L24.299595,64.783804 C12.3900935,64.783804 2.699955,55.095926 2.699955,43.1892027 L2.699955,24.2939265 C2.699955,12.3872032 12.3900935,2.69932517 24.299595,2.69932517 L56.699055,2.69932517 C68.6085565,2.69932517 78.298695,12.3872032 78.298695,24.2939265 L78.298695,43.1892027 C78.298695,46.3042239 77.6277562,49.3369158 76.3061282,52.2049488 C75.9942834,52.8824794 76.2899285,53.684179 76.9676172,53.995951 C77.641256,54.3077231 78.4458426,54.012147 78.7590373,53.335966 C80.2453626,50.1102724 81,46.6969758 81,43.1892027 L81,24.2939265 C80.99865,10.8985254 70.0989317,0 56.699055,0 Z" id="Shape" fill-rule="nonzero"></path>
                    <circle id="Oval-4" cx="20.5" cy="33.5" r="2.5"></circle>
                    <circle id="Oval-4-Copy" cx="40.5" cy="33.5" r="2.5"></circle>
                    <circle id="Oval-4-Copy-2" cx="60.5" cy="33.5" r="2.5"></circle>
                </g>
            </g>
        </g>
    </g>
</svg>