<?xml version="1.0" encoding="utf-8"?>
<!-- Generator: Adobe Illustrator 21.1.0, SVG Export Plug-In . SVG Version: 6.00 Build 0)  -->
<svg version="1.1" id="Слой_1" xmlns="http://www.w3.org/2000/svg" xmlns:xlink="http://www.w3.org/1999/xlink" x="0px" y="0px"
	 viewBox="0 0 58 56" enable-background="new 0 0 58 56" xml:space="preserve">
<title>spinner-circle</title>
<desc>Created with Sketch.</desc>
<g id="Load" transform="translate(-514.000000, -153.000000)">
	<g id="Group" transform="translate(514.000000, 153.000000)">
		<g id="spinner-circle">
			<g id="Shape">
				<path fill="#50E3C2" d="M58,28.9c-0.1-3.9-0.9-7.8-2.5-11.3c-1.6-3.6-3.8-6.8-6.6-9.4c-2.8-2.7-6.1-4.8-9.6-6.2
					c-3.6-1.4-7.4-2.1-11.2-2c-3.8,0.1-7.6,0.9-11,2.4c-3.5,1.5-6.6,3.7-9.2,6.4c-2.6,2.7-4.6,5.9-6,9.3c-1.4,3.4-2,7.1-1.9,10.8
					c0.1,3.7,0.9,7.3,2.3,10.6c1.5,3.3,3.6,6.3,6.2,8.8c2.6,2.5,5.7,4.5,9,5.8c3.3,1.3,6.9,1.9,10.5,1.8c3.5-0.1,7.1-0.8,10.3-2.3
					c3.2-1.4,6.1-3.5,8.6-6c2.4-2.5,4.3-5.5,5.6-8.7c0.8-2,1.3-4,1.6-6.1c0.1,0,0.1,0,0.2,0c2.1,0,3.7-1.7,3.7-3.7
					C58,29.1,58,29,58,28.9L58,28.9z M52.1,38.8c-1.4,3.1-3.4,5.9-5.8,8.2c-2.4,2.3-5.3,4.2-8.4,5.4c-3.1,1.2-6.4,1.8-9.8,1.7
					c-3.3-0.1-6.6-0.8-9.6-2.1c-3-1.3-5.7-3.2-8-5.6c-2.2-2.3-4-5.1-5.2-8.1c-1.2-3-1.7-6.2-1.6-9.4c0.1-3.2,0.8-6.3,2.1-9.2
					c1.3-2.9,3.1-5.5,5.4-7.6c2.3-2.2,4.9-3.8,7.8-4.9c2.9-1.1,6-1.6,9-1.6c3.1,0.1,6.1,0.8,8.9,2c2.8,1.2,5.3,3,7.3,5.2
					c2.1,2.2,3.7,4.7,4.8,7.5c1.1,2.8,1.6,5.7,1.5,8.7h0c0,0.1,0,0.2,0,0.3c0,1.9,1.5,3.5,3.3,3.7C53.5,35,52.9,37,52.1,38.8z"/>
			</g>
		</g>
	</g>
</g>
</svg>
