<?xml version="1.0" encoding="UTF-8"?>
<svg width="56px" height="56px" viewBox="0 0 56 56" version="1.1" xmlns="http://www.w3.org/2000/svg" xmlns:xlink="http://www.w3.org/1999/xlink">
    <!-- Generator: Sketch 48.2 (47327) - http://www.bohemiancoding.com/sketch -->
    <title>success</title>
    <desc>Created with Sketch.</desc>
    <defs></defs>
    <g id="Load" stroke="none" stroke-width="1" fill="none" fill-rule="evenodd" transform="translate(-482.000000, -326.000000)">
        <g id="Group-2" transform="translate(482.000000, 326.000000)" fill="#50E3C2" fill-rule="nonzero">
            <g id="success">
                <g id="Shape">
                    <path d="M28,0 C12.5612308,0 0,12.5601538 0,28 C0,43.4398462 12.5612308,56 28,56 C43.4387692,56 56,43.4398462 56,28 C56,12.5601538 43.4387692,0 28,0 Z M43.61,18.662 L26.3792308,38.0466154 C25.9549231,38.5236923 25.3636923,38.7692308 24.7681538,38.7692308 C24.2953846,38.7692308 23.8204615,38.6141538 23.4230769,38.2975385 L12.6538462,29.6821538 C11.7255385,28.9401538 11.5747692,27.5843077 12.3178462,26.6549231 C13.0598462,25.7255385 14.4167692,25.5747692 15.3450769,26.3178462 L24.5172308,33.6549231 L40.39,15.7984615 C41.1783077,14.9089231 42.5416923,14.8292308 43.4301538,15.6196923 C44.3196923,16.4112308 44.4004615,17.7724615 43.61,18.662 Z"></path>
                </g>
            </g>
        </g>
    </g>
</svg>