<?xml version="1.0" encoding="UTF-8"?>
<svg width="36px" height="30px" viewBox="0 0 36 30" version="1.1" xmlns="http://www.w3.org/2000/svg" xmlns:xlink="http://www.w3.org/1999/xlink">
    <!-- Generator: Sketch 48.2 (47327) - http://www.bohemiancoding.com/sketch -->
    <title>sunset</title>
    <desc>Created with Sketch.</desc>
    <defs></defs>
    <g id="Hotel-page" stroke="none" stroke-width="1" fill="none" fill-rule="evenodd" transform="translate(-1048.000000, -4347.000000)">
        <g id="Review" transform="translate(150.000000, 4070.000000)" fill="#5EABDD">
            <g id="Rating" transform="translate(878.000000, 62.000000)">
                <g id="amazing-view" transform="translate(20.000000, 209.000000)">
                    <g id="sunset" transform="translate(0.000000, 6.000000)">
                        <g id="Shape">
                            <path d="M35.6996031,24.7039437 C34.0101245,23.551831 31.8266615,23.551831 30.1369728,24.7039437 C28.8056732,25.6117606 27.0853074,25.6116901 25.7541479,24.7039437 C24.0644591,23.551831 21.8810661,23.5519014 20.1914475,24.7039437 C18.8602179,25.6117606 17.1399222,25.6117606 15.8086926,24.7039437 C14.1190739,23.551831 11.9356809,23.551831 10.2459922,24.7039437 C8.91483268,25.6116901 7.19446693,25.6117606 5.86316732,24.7039437 C4.17354864,23.551831 1.99022568,23.551831 0.300536965,24.7039437 C0.0603735409,24.8677465 -0.00231128405,25.196338 0.160599222,25.4378169 C0.323439689,25.6792958 0.650101167,25.7423239 0.890474708,25.5785915 C2.22170428,24.6707746 3.942,24.6707746 5.27322957,25.5785915 C6.96277821,26.7306338 9.14617121,26.7307042 10.83593,25.5785915 C12.1670195,24.6708451 13.8873852,24.6707746 15.2187549,25.5785915 C16.0636342,26.1547183 17.031642,26.4427465 18,26.4426761 C18.9680778,26.4426056 19.9366459,26.1546479 20.7812451,25.5785915 C22.1125447,24.6707746 23.8329105,24.6708451 25.16407,25.5785915 C26.8537588,26.7307042 29.0371518,26.7306338 30.7267704,25.5785915 C32.058,24.6707746 33.7782957,24.6707746 35.1095253,25.5785915 C35.3497588,25.7423239 35.6764903,25.6794366 35.8394008,25.4378169 C36.0024514,25.1961972 35.9397665,24.8676761 35.6996031,24.7039437 Z" fill-rule="nonzero"></path>
                            <path d="M35.6996031,28.2246479 C34.0101245,27.0725352 31.8266615,27.0725352 30.1369728,28.2246479 C28.8056732,29.1324648 27.0853074,29.1323944 25.7541479,28.2246479 C24.0644591,27.0725352 21.8810661,27.0726056 20.1914475,28.2246479 C18.8602179,29.1324648 17.1399222,29.1324648 15.8086926,28.2246479 C14.1190739,27.0725352 11.9356809,27.0725352 10.2459922,28.2246479 C8.91483268,29.1323944 7.19446693,29.1324648 5.86316732,28.2246479 C4.17354864,27.0725352 1.99022568,27.0725352 0.300536965,28.2246479 C0.0603735409,28.3884507 -0.00231128405,28.7170423 0.160599222,28.9585211 C0.323439689,29.2 0.650101167,29.2630282 0.890474708,29.0992958 C2.22170428,28.1914789 3.942,28.1914789 5.27322957,29.0992958 C6.96277821,30.251338 9.14617121,30.2514085 10.83593,29.0992958 C12.1670195,28.1915493 13.8873852,28.1914789 15.2187549,29.0992958 C16.0636342,29.6754225 17.031642,29.9634507 18,29.9633803 C18.9680778,29.9633099 19.9366459,29.6752817 20.7812451,29.0992958 C22.1125447,28.1914789 23.8329105,28.1916197 25.16407,29.0992958 C26.8537588,30.2514085 29.0371518,30.251338 30.7267704,29.0992958 C32.058,28.1914789 33.7782957,28.1914789 35.1095253,29.0992958 C35.3498288,29.2630282 35.6765603,29.2001408 35.8394708,28.9585211 C36.0023813,28.7169718 35.9397665,28.3884507 35.6996031,28.2246479 Z" fill-rule="nonzero"></path>
                            <path d="M35.6996031,21.1832394 C34.3804202,20.2835211 32.76007,20.086338 31.3087237,20.5916901 C30.580249,17.7821127 28.9662724,15.2421127 26.7164125,13.3862676 C24.2681323,11.3666901 21.1726226,10.2543662 18.0002101,10.2543662 C14.2288249,10.2543662 10.7105603,11.7595775 8.09348638,14.4928169 C7.89226459,14.7030282 7.89856809,15.0375352 8.1075642,15.2399296 C8.31656031,15.4422535 8.6491751,15.4359859 8.850607,15.2257042 C11.2677198,12.701338 14.517035,11.3111268 18.0001401,11.3111268 C20.9301479,11.3111268 23.7889261,12.3382394 26.0498521,14.2033099 C28.1800156,15.9605634 29.692786,18.3811268 30.3401556,21.0524648 C30.2717977,21.0944366 30.2038599,21.1375352 30.1369728,21.1832394 C28.8056732,22.0910563 27.0853074,22.0909859 25.7541479,21.1832394 C24.0644591,20.0311268 21.8810661,20.0311972 20.1914475,21.1832394 C18.8602179,22.0910563 17.1399222,22.0910563 15.8086926,21.1832394 C14.1190739,20.0311268 11.9356809,20.0311268 10.2459922,21.1832394 C8.91483268,22.0909859 7.19446693,22.0910563 5.86316732,21.1832394 C5.79628016,21.1376056 5.72820233,21.0944366 5.65984436,21.0523944 C6.02810895,19.5272535 6.66805447,18.0979577 7.56644358,16.7992254 C7.73215564,16.5597183 7.67332296,16.2304225 7.43505058,16.0638028 C7.19663813,15.8971127 6.86920623,15.956338 6.70363424,16.1959155 C5.77225681,17.5423944 5.09722179,19.0185915 4.69120623,20.5917606 C3.24,20.0866197 1.61985992,20.2837324 0.300607004,21.1833099 C0.0604435798,21.3471127 -0.00224124514,21.6757042 0.160669261,21.9171831 C0.323509728,22.158662 0.650171206,22.2216901 0.890544747,22.0579577 C2.22177432,21.1501408 3.94207004,21.1501408 5.27329961,22.0579577 C6.96284825,23.21 9.14624125,23.2100704 10.836,22.0579577 C12.1670895,21.1502113 13.8874553,21.1501408 15.2188249,22.0579577 C16.0637043,22.6340845 17.0317121,22.9221127 18.00007,22.9220423 C18.9681479,22.9219718 19.936716,22.6339437 20.7813152,22.0579577 C22.1126148,21.1501408 23.8329805,21.1502113 25.1641401,22.0579577 C26.8538288,23.2100704 29.0372218,23.21 30.7268405,22.0579577 C30.8634864,21.9647887 31.0044047,21.8816901 31.1484047,21.8076761 C31.1667549,21.7997887 31.1844047,21.7907746 31.2014942,21.7809155 C32.4495175,21.1628873 33.9316809,21.2547887 35.1095253,22.0579577 C35.3497588,22.2216901 35.6764903,22.1588028 35.8394008,21.9171831 C36.0023813,21.6756338 35.9397665,21.3470423 35.6996031,21.1832394 Z" fill-rule="nonzero"></path>
                            <path d="M18.0002101,5.31147887 C17.7099689,5.31147887 17.4747082,5.54802817 17.4747082,5.83985915 L17.4747082,8.6784507 C17.4747082,8.97021127 17.7098988,9.20683099 18.0002101,9.20683099 C18.2905214,9.20683099 18.5257121,8.97028169 18.5257121,8.6784507 L18.5257121,5.83985915 C18.525642,5.54802817 18.2904514,5.31147887 18.0002101,5.31147887 Z" fill-rule="nonzero"></path>
                            <path d="M28.0382568,8.25626761 C27.793751,8.0993662 27.4687004,8.1715493 27.3126537,8.41760563 C27.3126537,8.41760563 25.7972218,10.8065493 25.7945603,10.8107746 C25.5515953,11.1938732 25.8844903,11.5941549 26.2371362,11.6188028 C26.3985759,11.6300704 26.5641479,11.5626761 26.6805525,11.3790141 L28.1986459,8.98584507 C28.3548327,8.73978873 28.2829027,8.41316901 28.0382568,8.25626761 Z" fill-rule="nonzero"></path>
                            <path d="M34.9265136,16.1666197 C34.8041556,15.9019718 34.4913619,15.7873239 34.2284358,15.9102817 L31.6685837,17.1071127 C31.4054475,17.2301408 31.291284,17.5443662 31.413642,17.8090141 C31.5334786,18.068169 31.8540467,18.1858451 32.1117198,18.0653521 L34.671572,16.8685211 C34.9347082,16.7454225 35.0488016,16.4312676 34.9265136,16.1666197 Z" fill-rule="nonzero"></path>
                            <path d="M10.2057198,10.8107746 L8.68762646,8.41760563 C8.53157977,8.17161972 8.20687938,8.0993662 7.96202335,8.25626761 C7.71737743,8.41323944 7.64544747,8.73978873 7.8015642,8.98584507 C7.8015642,8.98584507 9.31755642,11.3756338 9.31965759,11.3790141 C9.47297276,11.6206338 9.80516732,11.6944366 10.0452607,11.5403521 C10.2899767,11.3834507 10.3618366,11.0567606 10.2057198,10.8107746 Z" fill-rule="nonzero"></path>
                            <path d="M4.33183658,17.1070423 L1.77198444,15.9102113 C1.50877821,15.7871127 1.19619455,15.9019718 1.07390661,16.1665493 C0.951548638,16.4311268 1.06571206,16.7453521 1.32884825,16.8684507 L3.88870039,18.0652817 C4.14861479,18.1867606 4.46596109,18.0701408 4.58677821,17.8089437 C4.70913619,17.5443662 4.59497276,17.2301408 4.33183658,17.1070423 Z" fill-rule="nonzero"></path>
                            <path d="M13.5970739,2.80316901 C13.5345292,2.51830986 13.2538132,2.33816901 12.970716,2.40119718 C12.5167938,2.50204225 11.7524591,2.89528169 11.3570195,3.72542254 C10.6100545,3.19316901 9.75214786,3.22288732 9.30649027,3.3565493 C9.0284358,3.44 8.87028794,3.7343662 8.95328405,4.01394366 C9.03628016,4.29352113 9.32862257,4.45260563 9.60716732,4.36908451 C9.64659922,4.35725352 10.5824591,4.08992958 11.1844436,5.06711268 C11.3041401,5.26133803 11.5436732,5.35760563 11.7631051,5.30028169 C11.9859689,5.24225352 12.1452374,5.045 12.1560233,4.81373239 C12.2080623,3.70528169 13.1005681,3.4565493 13.1972218,3.43302817 C13.4806693,3.37007042 13.6596887,3.08809859 13.5970739,2.80316901 Z" fill-rule="nonzero"></path>
                            <path d="M7.14908171,0.451338028 C7.08653696,0.166478873 6.80603113,-0.0135915493 6.52272374,0.0493661972 C6.06880156,0.150211268 5.30446693,0.543521127 4.9089572,1.37366197 C4.1621323,0.841338028 3.3040856,0.871056338 2.85842802,1.00478873 C2.58037354,1.08823944 2.42222568,1.38260563 2.50522179,1.6621831 C2.58807782,1.94176056 2.88056031,2.10084507 3.15903502,2.01739437 C3.19839689,2.00556338 4.13432685,1.73823944 4.73638132,2.71535211 C4.85628794,2.90992958 5.0952607,3.00591549 5.3150428,2.94852113 C5.53790661,2.89042254 5.6971751,2.69323944 5.70796109,2.46197183 C5.76007004,1.3534507 6.65257588,1.10478873 6.74922957,1.08119718 C7.03274708,1.01830986 7.21176654,0.736338028 7.14908171,0.451338028 Z" fill-rule="nonzero"></path>
                            <path d="M6.58246693,5.93338028 C6.51992218,5.6484507 6.23927626,5.46830986 5.95610895,5.53140845 C5.50218677,5.63225352 4.73785214,6.02549296 4.34234241,6.8556338 C3.59551751,6.32338028 2.73761089,6.35309859 2.29188327,6.48676056 C2.01382879,6.57014085 1.85329961,6.86521127 1.93629572,7.14485915 C2.01929183,7.42450704 2.31002335,7.58408451 2.58765759,7.50077465 C2.68837354,7.47267606 3.5886537,7.25408451 4.16983658,8.19732394 C4.289393,8.39133803 4.52920623,8.4878169 4.74849805,8.43049296 C4.97136187,8.37246479 5.13063035,8.17521127 5.14141634,7.94394366 C5.19345525,6.83549296 6.08596109,6.58676056 6.18261479,6.56316901 C6.46606226,6.50028169 6.64508171,6.21823944 6.58246693,5.93338028 Z" fill-rule="nonzero"></path>
                        </g>
                    </g>
                </g>
            </g>
        </g>
    </g>
</svg>