<?xml version="1.0" encoding="UTF-8"?>
<svg width="50px" height="50px" viewBox="0 0 50 50" version="1.1" xmlns="http://www.w3.org/2000/svg" xmlns:xlink="http://www.w3.org/1999/xlink">
    <!-- Generator: Sketch 49 (51002) - http://www.bohemiancoding.com/sketch -->
    <title>team</title>
    <desc>Created with Sketch.</desc>
    <defs></defs>
    <g id="About-us" stroke="none" stroke-width="1" fill="none" fill-rule="evenodd">
        <g transform="translate(-305.000000, -919.000000)" fill="#5EABDD" id="Benefits">
            <g transform="translate(249.000000, 857.000000)">
                <g id="Team" transform="translate(0.000000, 62.000000)">
                    <g id="team" transform="translate(56.000000, 0.000000)">
                        <g id="Shape">
                            <path d="M11.3850586,11.9469727 C11.0911133,11.6556641 10.6166016,11.6579102 10.3254883,11.9519531 C9.53164063,12.7536133 8.23359375,12.7598633 7.43193359,11.965918 C7.13789063,11.6746094 6.66367188,11.6768555 6.37246094,11.9708984 C6.08125,12.2650391 6.08359375,12.7393555 6.37753906,13.0303711 C7.04609375,13.6925781 7.93105469,14.056543 8.87138672,14.056543 C8.87714844,14.056543 8.88310547,14.056543 8.88886719,14.056543 C9.83554688,14.0520508 10.7240234,13.6791016 11.3902344,13.0064453 C11.6813477,12.7125 11.6791016,12.2380859 11.3850586,11.9469727 Z" fill-rule="nonzero"></path>
                            <path d="M15.4084961,12.165332 C16.6439453,11.9242188 17.5792969,10.834082 17.5792969,9.52910156 C17.5792969,8.26835938 16.7060547,7.20839844 15.5329102,6.92050781 L15.5329102,6.65449219 C15.5329102,2.98671875 12.5490234,0.00283203125 8.88125,0.00283203125 C5.21347656,0.00283203125 2.22949219,2.98671875 2.22949219,6.65449219 L2.22949219,6.88242188 C0.965332031,7.1 0,8.20351563 0,9.52910156 C0,10.8996094 1.03193359,12.0329102 2.359375,12.1947266 C2.7734375,14.2639648 4.15,15.9899414 6.00136719,16.8828125 L6.00136719,17.3219727 L3.81064453,17.3219727 C2.24345703,17.3219727 0.968457031,18.5969727 0.968457031,20.1641602 L0.968457031,24.6200195 C0.968457031,25.0338867 1.30390625,25.3692383 1.71767578,25.3692383 L3.42441406,25.3692383 C3.83818359,25.3692383 4.17363281,25.0338867 4.17363281,24.6200195 C4.17363281,24.2061523 3.83818359,23.8708008 3.42441406,23.8708008 L2.46689453,23.8708008 L2.46689453,20.1642578 C2.46689453,19.4233398 3.06962891,18.8205078 3.81064453,18.8205078 L6.00166016,18.8205078 C6.00546875,19.2310547 6.33916016,19.562793 6.75048828,19.562793 C7.16425781,19.562793 7.49970703,19.2274414 7.49970703,18.8135742 L7.49970703,17.394043 C7.94560547,17.4886719 8.40761719,17.5392578 8.88115234,17.5392578 C9.19736328,17.5392578 9.50800781,17.515625 9.8125,17.4727539 L9.8125,18.8135742 C9.8125,19.2274414 10.1479492,19.562793 10.5617188,19.562793 C10.9731445,19.562793 11.3067383,19.2311523 11.3105469,18.8205078 L13.4123047,18.8205078 C14.1532227,18.8205078 14.7560547,19.4232422 14.7560547,20.1642578 L14.7560547,23.8708008 L6.64550781,23.8708008 C6.23173828,23.8708008 5.89628906,24.2061523 5.89628906,24.6200195 C5.89628906,25.0338867 6.23173828,25.3692383 6.64550781,25.3692383 L15.5054688,25.3692383 C15.9192383,25.3692383 16.2546875,25.0338867 16.2546875,24.6200195 L16.2546875,20.1642578 C16.2546875,18.5970703 14.9796875,17.3220703 13.4125,17.3220703 L11.3110352,17.3220703 L11.3110352,17.0776367 C13.3960938,16.25625 14.9695313,14.4120117 15.4084961,12.165332 Z M15.5329102,8.53007813 C15.8619141,8.74150391 16.0808594,9.10986328 16.0808594,9.52919922 C16.0808594,9.9484375 15.8619141,10.3168945 15.5329102,10.528418 L15.5329102,8.53007813 Z M2.22958984,10.6253906 C1.80068359,10.4460938 1.4984375,10.0222656 1.4984375,9.52910156 C1.4984375,9.0359375 1.80068359,8.61220703 2.22958984,8.43291016 L2.22958984,10.6253906 Z M8.88125,1.50126953 C11.7227539,1.50126953 14.0344727,3.81298828 14.0344727,6.65449219 L14.0344727,6.86826172 C9.78828125,6.69130859 7.62421875,4.57392578 6.87353516,3.64052734 C6.61416016,3.31796875 6.14267578,3.26679688 5.82011719,3.52626953 C5.49765625,3.78564453 5.44648437,4.25712891 5.70585937,4.57958984 C5.74570312,4.62910156 5.79013672,4.68251953 5.83681641,4.73740234 C5.50820312,5.07753906 4.83642578,5.62714844 3.79511719,5.828125 C4.19199219,3.378125 6.32119141,1.50126953 8.88125,1.50126953 Z M8.88125,16.0407227 C6.03974609,16.0407227 3.72802734,13.7291016 3.72802734,10.8875 L3.72802734,7.35625 C5.32089844,7.15273438 6.36484375,6.33466797 6.89863281,5.78955078 C8.24990234,6.92978516 10.5450195,8.23789063 14.034375,8.36826172 L14.034375,10.8875 C14.0344727,13.7290039 11.7227539,16.0407227 8.88125,16.0407227 Z" fill-rule="nonzero"></path>
                            <path d="M6.69921875,8.34443359 C6.28544922,8.34443359 5.95,8.67978516 5.95,9.09365234 L5.95,10.0240234 C5.95,10.437793 6.28544922,10.7732422 6.69921875,10.7732422 C7.11298828,10.7732422 7.4484375,10.4378906 7.4484375,10.0240234 L7.4484375,9.09365234 C7.4484375,8.67978516 7.11298828,8.34443359 6.69921875,8.34443359 Z" fill-rule="nonzero"></path>
                            <path d="M10.9116211,8.34433594 C10.4978516,8.34433594 10.1624023,8.6796875 10.1624023,9.09355469 L10.1624023,10.0239258 C10.1624023,10.437793 10.4978516,10.7731445 10.9116211,10.7731445 C11.3253906,10.7731445 11.6608398,10.437793 11.6608398,10.0239258 L11.6608398,9.09355469 C11.6608398,8.67978516 11.3253906,8.34433594 10.9116211,8.34433594 Z" fill-rule="nonzero"></path>
                            <path d="M47.8291992,12.1652344 C49.0645508,11.9240234 50,10.8339844 50,9.52910156 C50,8.26835938 49.1267578,7.20839844 47.9537109,6.92060547 L47.9537109,6.65458984 C47.9537109,2.98681641 44.9698242,0.0029296875 41.3020508,0.0029296875 C37.6341797,0.0029296875 34.650293,2.98681641 34.650293,6.65458984 L34.650293,6.88251953 C33.3860352,7.10009766 32.4208008,8.20371094 32.4208008,9.52910156 C32.4208008,10.8996094 33.4526367,12.0328125 34.7800781,12.1947266 C35.1941406,14.2639648 36.5708008,15.9899414 38.422168,16.8828125 L38.422168,17.3219727 L36.2314453,17.3219727 C34.6642578,17.3219727 33.3892578,18.5969727 33.3892578,20.1641602 L33.3892578,24.6200195 C33.3892578,25.0338867 33.7246094,25.3692383 34.1384766,25.3692383 L36.2980469,25.3692383 C36.7119141,25.3692383 37.0472656,25.0338867 37.0472656,24.6200195 C37.0472656,24.2061523 36.7119141,23.8708008 36.2980469,23.8708008 L34.8876953,23.8708008 L34.8876953,20.1642578 C34.8876953,19.4233398 35.4904297,18.8205078 36.2314453,18.8205078 L38.4224609,18.8205078 C38.4262695,19.2310547 38.7599609,19.562793 39.1712891,19.562793 C39.5851563,19.562793 39.9205078,19.2274414 39.9205078,18.8135742 L39.9205078,17.394043 C40.3664063,17.4886719 40.828418,17.5392578 41.3019531,17.5392578 C41.6181641,17.5392578 41.9288086,17.515625 42.2333008,17.4727539 L42.2333008,18.8135742 C42.2333008,19.2274414 42.5686523,19.562793 42.9825195,19.562793 C43.394043,19.562793 43.7275391,19.2311523 43.7313477,18.8205078 L45.8331055,18.8205078 C46.5739258,18.8205078 47.1767578,19.4232422 47.1767578,20.1642578 L47.1767578,23.8708008 L39.3251953,23.8708008 C38.9113281,23.8708008 38.5759766,24.2061523 38.5759766,24.6200195 C38.5759766,25.0338867 38.9113281,25.3692383 39.3251953,25.3692383 L47.9259766,25.3692383 C48.3398438,25.3692383 48.6751953,25.0338867 48.6751953,24.6200195 L48.6751953,20.1641602 C48.6751953,18.5969727 47.4001953,17.3219727 45.8331055,17.3219727 L43.7317383,17.3219727 L43.7317383,17.0775391 C45.8168945,16.2561523 47.3901367,14.4119141 47.8291992,12.1652344 Z M47.9537109,8.53007812 C48.2826172,8.74160156 48.5015625,9.10986328 48.5015625,9.52919922 C48.5015625,9.9484375 48.2827148,10.3168945 47.9537109,10.5282227 L47.9537109,8.53007812 Z M34.6501953,10.6253906 C34.2213867,10.4459961 33.9191406,10.0222656 33.9191406,9.52910156 C33.9191406,9.03603516 34.2212891,8.61230469 34.6501953,8.43291016 L34.6501953,10.6253906 Z M41.3019531,1.50126953 C44.143457,1.50126953 46.4551758,3.81298828 46.4551758,6.65449219 L46.4551758,6.86826172 C42.2088867,6.69130859 40.0449219,4.57392578 39.2941406,3.64052734 C39.0348633,3.31796875 38.5631836,3.26679687 38.2408203,3.52626953 C37.9182617,3.78564453 37.8671875,4.25712891 38.1265625,4.57958984 C38.1662109,4.62890625 38.2104492,4.68203125 38.2569336,4.73662109 C37.9262695,5.07871094 37.2548828,5.62714844 36.2158203,5.82792969 C36.6126953,3.37802734 38.7418945,1.50126953 41.3019531,1.50126953 Z M41.3019531,16.040625 C38.4604492,16.040625 36.1486328,13.7291016 36.1486328,10.8875 L36.1486328,7.35625 C37.7415039,7.15273437 38.7854492,6.33457031 39.3192383,5.78945312 C40.6705078,6.9296875 42.965625,8.23779297 46.4550781,8.36816406 L46.4550781,10.8874023 C46.4551758,13.7289063 44.143457,16.040625 41.3019531,16.040625 Z" fill-rule="nonzero"></path>
                            <path d="M43.8057617,11.9469727 C43.5116211,11.6556641 43.037207,11.6580078 42.7461914,11.9519531 C41.9524414,12.7536133 40.6544922,12.7599609 39.8526367,11.965918 C39.5584961,11.6745117 39.0841797,11.6769531 38.7931641,11.9708984 C38.5019531,12.2648438 38.5041992,12.7393555 38.7981445,13.0303711 C39.4666992,13.6925781 40.3517578,14.056543 41.2920898,14.056543 C41.2978516,14.056543 41.3037109,14.056543 41.3094727,14.056543 C42.25625,14.0520508 43.1446289,13.6791016 43.8108398,13.0064453 C44.1019531,12.7125 44.0998047,12.2380859 43.8057617,11.9469727 Z" fill-rule="nonzero"></path>
                            <path d="M39.1199219,8.34443359 C38.7060547,8.34443359 38.3707031,8.67978516 38.3707031,9.09365234 L38.3707031,10.0240234 C38.3707031,10.437793 38.7060547,10.7732422 39.1199219,10.7732422 C39.5337891,10.7732422 39.8691406,10.4378906 39.8691406,10.0240234 L39.8691406,9.09365234 C39.8691406,8.67978516 39.5337891,8.34443359 39.1199219,8.34443359 Z" fill-rule="nonzero"></path>
                            <path d="M43.3322266,8.34433594 C42.9183594,8.34433594 42.5830078,8.6796875 42.5830078,9.09355469 L42.5830078,10.0239258 C42.5830078,10.437793 42.9183594,10.7731445 43.3322266,10.7731445 C43.7460938,10.7731445 44.0814453,10.437793 44.0814453,10.0239258 L44.0814453,9.09355469 C44.0814453,8.67978516 43.7459961,8.34433594 43.3322266,8.34433594 Z" fill-rule="nonzero"></path>
                            <path d="M27.5250977,36.5749023 C27.2310547,36.2838867 26.7568359,36.2859375 26.4655273,36.5801758 C26.080957,36.968457 25.5682617,37.1837891 25.0216797,37.1863281 C24.4777344,37.1869141 23.9603516,36.9785156 23.5720703,36.5939453 C23.2780273,36.3026367 22.8038086,36.3049805 22.5125977,36.5989258 C22.2213867,36.8929688 22.2237305,37.3673828 22.5176758,37.6583984 C23.1862305,38.3206055 24.0712891,38.684668 25.0115234,38.684668 C25.0172852,38.684668 25.0231445,38.684668 25.0289063,38.6845703 C25.9756836,38.6800781 26.8640625,38.3071289 27.5303711,37.634375 C27.8213867,37.3405273 27.8192383,36.8661133 27.5250977,36.5749023 Z" fill-rule="nonzero"></path>
                            <path d="M31.5487305,36.7931641 C32.784082,36.5520508 33.7195312,35.4620117 33.7195312,34.1572266 C33.7193359,32.896582 32.8460937,31.8365234 31.6730469,31.5487305 L31.6730469,31.2827148 C31.6730469,28.4242188 29.8604492,25.981543 27.3244141,25.0425781 C28.0145508,24.4494141 28.452832,23.5711914 28.452832,22.5919922 C28.452832,20.8100586 27.0030273,19.3602539 25.2210937,19.3602539 C23.4391602,19.3602539 21.9894531,20.8100586 21.9894531,22.5919922 C21.9894531,23.5180664 22.381543,24.3537109 23.0077148,24.9433594 C20.3214844,25.7986328 18.3698242,28.3166992 18.3698242,31.2826172 L18.3698242,31.5105469 C17.1054687,31.728125 16.1402344,32.8318359 16.1402344,34.1572266 C16.1402344,35.5277344 17.1720703,36.6609375 18.4996094,36.8227539 C18.9136719,38.8920898 20.2902344,40.6179688 22.1416992,41.5109375 L22.1416992,41.9500977 L19.9509766,41.9500977 C18.3837891,41.9500977 17.1088867,43.2250977 17.1088867,44.7921875 L17.1088867,49.2480469 C17.1088867,49.6619141 17.4443359,49.9972656 17.8581055,49.9972656 L31.6457031,49.9972656 C32.0595703,49.9972656 32.3949219,49.6619141 32.3949219,49.2480469 L32.3949219,44.7921875 C32.3949219,43.225 31.1199219,41.9500977 29.552832,41.9500977 L27.4514648,41.9500977 L27.4514648,41.7056641 C29.5365234,40.8841797 31.1098633,39.0398438 31.5487305,36.7931641 Z M31.6730469,33.1581055 C32.0020508,33.3696289 32.2208984,33.7378906 32.2208984,34.1572266 C32.2208984,34.5765625 32.0020508,34.9449219 31.6730469,35.1563477 L31.6730469,33.1581055 Z M18.3696289,35.253418 C17.9407227,35.0741211 17.6384766,34.650293 17.6384766,34.1572266 C17.6384766,33.6640625 17.9407227,33.2402344 18.3696289,33.0609375 L18.3696289,35.253418 Z M25.2210937,20.8586914 C26.1767578,20.8586914 26.9543945,21.6362305 26.9543945,22.5919922 C26.9543945,23.5478516 26.1768555,24.325293 25.2210937,24.325293 C24.265332,24.325293 23.4878906,23.5477539 23.4878906,22.5919922 C23.4878906,21.6361328 24.265332,20.8586914 25.2210937,20.8586914 Z M25.0212891,26.1293945 C27.862793,26.1293945 30.1745117,28.4411133 30.1745117,31.2826172 L30.1745117,31.4963867 C25.9282227,31.3194336 23.7642578,29.2020508 23.0135742,28.26875 C22.7541992,27.9461914 22.2827148,27.8949219 21.9601562,28.1544922 C21.6376953,28.4138672 21.5865234,28.8853516 21.8458984,29.2078125 C21.8855469,29.2571289 21.9298828,29.3102539 21.9762695,29.3649414 C21.6456055,29.7070313 20.9742187,30.2553711 19.9351562,30.4561523 C20.3320312,28.00625 22.4612305,26.1293945 25.0212891,26.1293945 Z M29.5524414,43.4487305 C30.2933594,43.4487305 30.8961914,44.0514648 30.8961914,44.7923828 L30.8961914,48.4989258 L18.6069336,48.4989258 L18.6069336,44.7923828 C18.6069336,44.0515625 19.209668,43.4487305 19.9505859,43.4487305 L22.1416016,43.4487305 C22.1455078,43.8591797 22.4791016,44.1908203 22.8904297,44.1908203 C23.3041992,44.1908203 23.6396484,43.8554688 23.6396484,43.4416016 L23.6396484,42.022168 C24.0855469,42.1167969 24.5475586,42.1673828 25.0210937,42.1673828 C25.3373047,42.1673828 25.6479492,42.14375 25.9525391,42.1008789 L25.9525391,43.4416016 C25.9525391,43.8554688 26.2878906,44.1908203 26.7017578,44.1908203 C27.1132812,44.1908203 27.4467773,43.8592773 27.4505859,43.4487305 L29.5524414,43.4487305 Z M25.0212891,40.6688477 C22.1797852,40.6688477 19.8680664,38.3571289 19.8680664,35.515625 L19.8680664,31.9842773 C21.4608398,31.7807617 22.5047852,30.9626953 23.0385742,30.4175781 C24.3898437,31.5578125 26.6849609,32.8658203 30.1744141,32.9961914 L30.1744141,35.5155273 C30.1746094,38.3572266 27.862793,40.6688477 25.0212891,40.6688477 Z" fill-rule="nonzero"></path>
                            <path d="M22.8392578,32.9724609 C22.4254883,32.9724609 22.0900391,33.3078125 22.0900391,33.7216797 L22.0900391,34.6520508 C22.0900391,35.065918 22.4254883,35.4012695 22.8392578,35.4012695 C23.2530273,35.4012695 23.5884766,35.065918 23.5884766,34.6520508 L23.5884766,33.7216797 C23.5884766,33.3078125 23.2530273,32.9724609 22.8392578,32.9724609 Z" fill-rule="nonzero"></path>
                            <path d="M27.0515625,32.9724609 C26.6376953,32.9724609 26.3023437,33.3078125 26.3023437,33.7216797 L26.3023437,34.6520508 C26.3023437,35.065918 26.6376953,35.4012695 27.0515625,35.4012695 C27.4654297,35.4012695 27.8007812,35.065918 27.8007812,34.6520508 L27.8007812,33.7216797 C27.8007812,33.3078125 27.4654297,32.9724609 27.0515625,32.9724609 Z" fill-rule="nonzero"></path>
                            <path d="M30.015332,3.36083984 L20.1719727,3.36083984 C19.7582031,3.36083984 19.4227539,3.69619141 19.4227539,4.11005859 C19.4227539,4.52392578 19.7582031,4.85927734 20.1719727,4.85927734 L30.015332,4.85927734 C30.4291992,4.85927734 30.7645508,4.52392578 30.7645508,4.11005859 C30.7645508,3.69619141 30.4291992,3.36083984 30.015332,3.36083984 Z" fill-rule="nonzero"></path>
                            <path d="M46.4890625,29.6419922 C46.0751953,29.6419922 45.7398438,29.9773438 45.7398438,30.3912109 C45.7398438,35.9958008 41.1800781,40.5556641 35.575293,40.5556641 C35.1614258,40.5556641 34.8260742,40.8910156 34.8260742,41.3048828 C34.8260742,41.71875 35.1614258,42.0541016 35.575293,42.0541016 C42.00625,42.0541016 47.2382813,36.822168 47.2382813,30.3912109 C47.2383789,29.9773438 46.9030273,29.6419922 46.4890625,29.6419922 Z" fill-rule="nonzero"></path>
                            <path d="M14.3381836,40.5556641 C8.73339844,40.5556641 4.17363281,35.9958008 4.17363281,30.3912109 C4.17363281,29.9773438 3.83818359,29.6419922 3.42441406,29.6419922 C3.01064453,29.6419922 2.67519531,29.9773438 2.67519531,30.3912109 C2.67519531,36.822168 7.90722656,42.0541016 14.3381836,42.0541016 C14.7519531,42.0541016 15.0874023,41.71875 15.0874023,41.3048828 C15.0874023,40.8910156 14.7519531,40.5556641 14.3381836,40.5556641 Z" fill-rule="nonzero"></path>
                        </g>
                    </g>
                </g>
            </g>
        </g>
    </g>
</svg>