<?xml version="1.0" encoding="UTF-8"?>
<svg width="20px" height="25px" viewBox="0 0 20 25" version="1.1" xmlns="http://www.w3.org/2000/svg" xmlns:xlink="http://www.w3.org/1999/xlink">
    <!-- Generator: Sketch 48.2 (47327) - http://www.bohemiancoding.com/sketch -->
    <title>toiletries</title>
    <desc>Created with Sketch.</desc>
    <defs></defs>
    <g id="Tablet_Pop-up-room-gallery" stroke="none" stroke-width="1" fill="none" fill-rule="evenodd" transform="translate(-33.000000, -1031.000000)">
        <g id="Toiletries" transform="translate(33.000000, 1031.000000)" fill="#5EABDD">
            <g id="toiletries">
                <g id="XMLID_348_">
                    <path d="M5.24683817,15.3415268 L5.23450629,15.3415268 L5.23450629,13.7596013 C5.23450629,12.9284924 4.57959792,12.252343 3.77458487,12.252343 L2.78447905,12.252343 C1.97940864,12.252343 1.32444291,12.9284924 1.32444291,13.7596013 L1.32444291,15.3415268 L1.31205369,15.3415268 C0.588603057,15.3415268 0,15.9491671 0,16.6960164 L0,23.6455104 C0,24.3923597 0.588603057,25 1.31205369,25 L5.24689552,25 C5.9702888,25 6.55889185,24.3923597 6.55889185,23.6455104 L6.55889185,16.6960164 C6.55883449,15.9491671 5.9702888,15.3415268 5.24683817,15.3415268 Z M2.24216353,13.7596013 C2.24216353,13.4508665 2.48541685,13.1997456 2.78447905,13.1997456 L3.77464223,13.1997456 C4.07364708,13.1997456 4.31684304,13.4508665 4.31684304,13.7596013 L4.31684304,15.3415268 L2.24216353,15.3415268 L2.24216353,13.7596013 Z M5.64111388,23.6455104 C5.64111388,23.866196 5.46055235,24.0525974 5.24683817,24.0525974 L1.31205369,24.0525974 C1.09828214,24.0525974 0.917720611,23.866196 0.917720611,23.6455104 L0.917720611,16.6960164 C0.917720611,16.4715412 1.09461126,16.2889294 1.31205369,16.2889294 L5.24689552,16.2889294 C5.46060971,16.2889294 5.64117124,16.4753308 5.64117124,16.6960164 L5.64117124,23.6455104 L5.64111388,23.6455104 Z M16.2695804,2.47964861 L16.2695804,3.08752579 L19.5410823,3.08752579 C19.7944879,3.08752579 19.9999426,3.29962554 19.9999426,3.56122708 C19.9999426,3.82282861 19.7944879,4.03492836 19.5410823,4.03492836 L15.8107201,4.03492836 C15.5573145,4.03492836 15.3518598,3.82282861 15.3518598,3.56122708 L15.3518598,2.00594732 C15.3518598,1.74434578 15.5573145,1.53224603 15.8107201,1.53224603 L19.5410823,1.53224603 C19.7944879,1.53224603 19.9999426,1.74434578 19.9999426,2.00594732 C19.9999426,2.26754886 19.7944879,2.47964861 19.5410823,2.47964861 L16.2695804,2.47964861 Z M19.2641028,14.2271445 C19.3509995,14.3245493 19.3943618,14.455054 19.3838653,14.5869798 L18.5875133,24.5652014 C18.567897,24.8108748 18.3690384,25 18.1302016,25 L13.3905762,25 C13.1371706,25 12.9317159,24.7879002 12.9317159,24.5262987 C12.9317159,24.2646972 13.1371706,24.0525974 13.3905762,24.0525974 L17.7075913,24.0525974 L18.4282887,15.0217784 L13.3905762,15.0217784 C13.1371706,15.0217784 12.9317159,14.8096787 12.9317159,14.5480771 C12.9317159,14.2864756 13.1371706,14.0743758 13.3905762,14.0743758 L18.9265537,14.0743758 C19.0548625,14.0743758 19.1772061,14.1297989 19.2641028,14.2271445 Z M13.8675041,12.7812897 L13.8675041,1.23985391 C13.8675041,0.556243738 14.4063208,0 15.0686283,0 L19.5411397,0 C19.7945453,0 20,0.212099752 20,0.473701289 C20,0.735302825 19.7945453,0.947402577 19.5411397,0.947402577 L15.0686283,0.947402577 C14.912329,0.947402577 14.7852821,1.07861783 14.7852821,1.23985391 L14.7852821,12.7812897 C14.7852821,13.0428913 14.5798274,13.254991 14.3264217,13.254991 C14.0730161,13.254991 13.8675041,13.0428913 13.8675041,12.7812897 Z M16.2695804,5.56723361 L16.2695804,6.17505157 L19.5410823,6.17505157 C19.7944879,6.17505157 19.9999426,6.38715133 19.9999426,6.64875286 C19.9999426,6.9103544 19.7944879,7.12245415 19.5410823,7.12245415 L15.8107201,7.12245415 C15.5573145,7.12245415 15.3518598,6.9103544 15.3518598,6.64875286 L15.3518598,5.09353232 C15.3518598,4.83193078 15.5573145,4.61983103 15.8107201,4.61983103 L19.5410823,4.61983103 C19.7944879,4.61983103 19.9999426,4.83193078 19.9999426,5.09353232 C19.9999426,5.35513386 19.7944879,5.56723361 19.5410823,5.56723361 L16.2695804,5.56723361 Z M10.7741547,7.70729761 L10.0090625,7.70729761 L10.0090625,5.59648466 C10.0090625,4.90493999 9.62356248,4.30458282 9.06289254,4.01236834 L9.06289254,2.36655243 C9.06289254,2.10495089 8.85743784,1.89285114 8.60403223,1.89285114 L8.1277926,1.89285114 L8.1277926,0.486550436 C8.12790731,0.482346337 8.12796467,0.4779646 8.12796467,0.473701289 C8.12796467,0.212099752 7.92250997,0 7.66910436,0 L3.35398205,0 C2.91215693,0 2.55269724,0.37114496 2.55269724,0.827260088 L2.55269724,1.7935515 C2.55269724,2.05515304 2.75815194,2.26725279 3.01155754,2.26725279 C3.26496315,2.26725279 3.47041785,2.05515304 3.47041785,1.7935515 L3.47041785,0.947402577 L7.21001463,0.947402577 L7.21001463,1.89285114 L6.73394706,1.89285114 C6.48054146,1.89285114 6.27508675,2.10495089 6.27508675,2.36655243 L6.27508675,4.01236834 C5.71435946,4.30464204 5.3289168,4.90493999 5.3289168,5.59648466 L5.3289168,7.70729761 L4.56376724,7.70729761 C3.84037397,7.70729761 3.25182827,8.31487872 3.25182827,9.06172801 L3.25182827,10.6480944 C3.25182827,10.909696 3.45728297,11.1217957 3.71068858,11.1217957 C3.96409418,11.1217957 4.16954888,10.909696 4.16954888,10.6480944 L4.16954888,9.06172801 C4.16954888,8.83731203 4.34638217,8.65470018 4.56376724,8.65470018 L10.77404,8.65470018 C10.991425,8.65470018 11.1683157,8.83731203 11.1683157,9.06172801 L11.1683157,23.6455104 C11.1683157,23.8699856 10.991425,24.0525974 10.77404,24.0525974 L7.61341019,24.0525974 C7.36000459,24.0525974 7.15454989,24.2646972 7.15454989,24.5262987 C7.15454989,24.7879002 7.36000459,25 7.61341019,25 L10.77404,25 C11.4974333,25 12.0860363,24.3923597 12.0860363,23.6455104 L12.0860363,9.06172801 C12.086151,8.31487872 11.497548,7.70729761 10.7741547,7.70729761 Z M7.19286472,2.84025371 L8.14517193,2.84025371 L8.14517193,3.82330231 L7.19286472,3.82330231 L7.19286472,2.84025371 Z M9.09134188,7.70729761 L6.24669477,7.70729761 L6.24669477,5.59648466 C6.24669477,5.1411393 6.60552353,4.77070489 7.046603,4.77070489 L8.29149101,4.77070489 C8.73245576,4.77070489 9.09128452,5.1411393 9.09128452,5.59648466 L9.09128452,7.70729761 L9.09134188,7.70729761 Z M19.9999426,8.18105811 C19.9999426,8.44265964 19.7944879,8.6547594 19.5410823,8.6547594 L16.2695804,8.6547594 L16.2695804,12.7812897 C16.2695804,13.0428913 16.0641257,13.254991 15.8107201,13.254991 C15.5573145,13.254991 15.3518598,13.0428913 15.3518598,12.7812897 L15.3518598,8.18105811 C15.3518598,7.91945657 15.5573145,7.70735682 15.8107201,7.70735682 L19.5410823,7.70735682 C19.7944879,7.70735682 19.9999426,7.91945657 19.9999426,8.18105811 Z" fill-rule="nonzero"></path>
                </g>
            </g>
        </g>
    </g>
</svg>