<?xml version="1.0" encoding="utf-8"?>
<!-- Generator: Adobe Illustrator 21.1.0, SVG Export Plug-In . SVG Version: 6.00 Build 0)  -->
<svg version="1.1" id="Слой_1" xmlns="http://www.w3.org/2000/svg" xmlns:xlink="http://www.w3.org/1999/xlink" x="0px" y="0px"
	 viewBox="0 0 48 48" enable-background="new 0 0 48 48" xml:space="preserve">
<title>top-questing</title>
<desc>Created with Sketch.</desc>
<g id="Page-1">
	<g id="FAQ-" transform="translate(-169.000000, -631.000000)">
		<g id="Group-6" transform="translate(149.000000, 616.000000)">
			<g id="Group-2" transform="translate(11.000000, 6.000000)">
				<g id="top-questing">
					<g id="Icon_x2F_faq_x2F_top-questing">
						<g id="help" transform="translate(9.000000, 9.000000)">
							<path id="Shape" fill="#5EABDD" d="M38.4,28C38.4,28,38.4,28,38.4,28c0.4-1.3,0.6-2.6,0.6-4s-0.2-2.8-0.6-4c0,0,0,0,0,0
								c0,0,0,0,0,0c-0.1-0.5-0.3-0.9-0.5-1.4v-0.2c0-0.2-0.1-0.3-0.3-0.4c-0.2-0.4-0.4-0.8-0.6-1.2c0.1,0.1,0.2,0.1,0.3,0.1
								c0.3,0,0.5-0.2,0.5-0.5v-0.5c0-0.3-0.2-0.5-0.5-0.5s-0.5,0.2-0.5,0.5v0.5c0,0,0,0.1,0,0.1c0-0.1-0.1-0.1-0.1-0.2c0,0,0,0,0,0
								c0-0.1-0.1-0.1-0.1-0.2c0,0,0,0,0,0c-0.3-0.5-0.7-1-1.1-1.5c0,0,0,0,0,0c-0.1-0.1-0.2-0.2-0.3-0.4c0,0,0,0,0,0
								c-0.4-0.5-0.9-0.9-1.3-1.3c0,0,0,0,0,0c-0.1-0.1-0.2-0.2-0.4-0.3c0,0,0,0,0,0c-0.5-0.4-1-0.8-1.5-1.1c0,0,0,0,0,0
								c-0.1,0-0.1-0.1-0.2-0.1c0,0,0,0,0,0c-0.1,0-0.1-0.1-0.2-0.1c0,0,0.1,0,0.1,0h0.5c0.3,0,0.5-0.2,0.5-0.5S32.5,10,32.2,10
								h-0.5c-0.3,0-0.5,0.2-0.5,0.5c0,0.1,0.1,0.2,0.1,0.3c-0.4-0.2-0.8-0.4-1.2-0.6C30,10.1,29.8,10,29.6,10h-0.2
								c-0.5-0.2-0.9-0.3-1.4-0.5c0,0,0,0,0,0c0,0,0,0,0,0C26.8,9.2,25.4,9,24,9s-2.8,0.2-4,0.6c0,0,0,0,0,0c0,0,0,0,0,0
								C19.5,9.7,19,9.9,18.5,10h-0.2c-0.2,0-0.3,0.1-0.4,0.3c-0.4,0.2-0.8,0.4-1.2,0.6c0.1-0.1,0.1-0.2,0.1-0.3
								c0-0.3-0.2-0.5-0.5-0.5h-0.5c-0.3,0-0.5,0.2-0.5,0.5s0.2,0.5,0.5,0.5h0.5c0,0,0.1,0,0.1,0c-0.1,0-0.1,0.1-0.2,0.1
								c0,0,0,0,0,0c-0.1,0-0.1,0.1-0.2,0.1c0,0,0,0,0,0c-0.5,0.3-1,0.7-1.5,1.1c0,0,0,0,0,0c-0.1,0.1-0.2,0.2-0.4,0.3c0,0,0,0,0,0
								c-0.5,0.4-0.9,0.9-1.3,1.3c0,0,0,0,0,0c-0.1,0.1-0.2,0.2-0.3,0.4c0,0,0,0,0,0c-0.4,0.5-0.8,1-1.1,1.5c0,0,0,0,0,0
								c0,0.1-0.1,0.1-0.1,0.2c0,0,0,0,0,0c0,0.1-0.1,0.1-0.1,0.2c0,0,0-0.1,0-0.1v-0.5c0-0.3-0.2-0.5-0.5-0.5
								c-0.3,0-0.5,0.2-0.5,0.5v0.5c0,0.3,0.2,0.5,0.5,0.5c0.1,0,0.2-0.1,0.3-0.1c-0.2,0.4-0.4,0.8-0.6,1.2C10.1,18,10,18.2,10,18.4
								v0.2c-0.2,0.5-0.3,0.9-0.5,1.4c0,0,0,0,0,0c0,0,0,0,0,0C9.2,21.2,9,22.6,9,24s0.2,2.8,0.6,4c0,0,0,0,0,0c0,0,0,0,0,0
								c0.1,0.5,0.3,0.9,0.5,1.4v0.2c0,0.2,0.1,0.3,0.3,0.4c0.2,0.4,0.4,0.8,0.6,1.2c-0.1-0.1-0.2-0.1-0.3-0.1
								c-0.3,0-0.5,0.2-0.5,0.5v0.5c0,0.3,0.2,0.5,0.5,0.5c0.3,0,0.5-0.2,0.5-0.5v-0.5c0,0,0-0.1,0-0.1c0,0.1,0.1,0.1,0.1,0.2
								c0,0,0,0,0,0c0,0.1,0.1,0.1,0.1,0.2c0,0,0,0,0,0c0.3,0.5,0.7,1,1.1,1.5c0,0,0,0,0,0c0.1,0.1,0.2,0.2,0.3,0.4c0,0,0,0,0,0
								c0.4,0.5,0.9,0.9,1.3,1.3c0,0,0,0,0,0c0.1,0.1,0.2,0.2,0.4,0.3c0,0,0,0,0,0c0.5,0.4,1,0.8,1.5,1.1c0,0,0,0,0,0
								c0.1,0,0.1,0.1,0.2,0.1c0,0,0,0,0,0c0.1,0,0.1,0.1,0.2,0.1c0,0-0.1,0-0.1,0h-0.5c-0.3,0-0.5,0.2-0.5,0.5
								c0,0.3,0.2,0.5,0.5,0.5h0.5c0.3,0,0.5-0.2,0.5-0.5c0-0.1-0.1-0.2-0.1-0.3c0.4,0.2,0.8,0.4,1.2,0.6c0.1,0.1,0.2,0.3,0.4,0.3
								h0.2c0.5,0.2,0.9,0.3,1.4,0.5c0,0,0,0,0,0c0,0,0,0,0,0c1.3,0.4,2.6,0.6,4,0.6s2.8-0.2,4-0.6c0,0,0,0,0,0c0,0,0,0,0,0
								c0.5-0.1,0.9-0.3,1.4-0.5h0.2c0.2,0,0.3-0.1,0.4-0.3c0.4-0.2,0.8-0.4,1.2-0.6c-0.1,0.1-0.1,0.2-0.1,0.3
								c0,0.3,0.2,0.5,0.5,0.5h0.5c0.3,0,0.5-0.2,0.5-0.5c0-0.3-0.2-0.5-0.5-0.5h-0.5c0,0-0.1,0-0.1,0c0.1,0,0.1-0.1,0.2-0.1
								c0,0,0,0,0,0c0.1,0,0.1-0.1,0.2-0.1c0,0,0,0,0,0c0.5-0.3,1-0.7,1.5-1.1c0,0,0,0,0,0c0.1-0.1,0.2-0.2,0.4-0.3c0,0,0,0,0,0
								c0.5-0.4,0.9-0.9,1.3-1.3c0,0,0,0,0,0c0.1-0.1,0.2-0.2,0.3-0.4c0,0,0,0,0,0c0.4-0.5,0.8-1,1.1-1.5c0,0,0,0,0,0
								c0-0.1,0.1-0.1,0.1-0.2c0,0,0,0,0,0c0-0.1,0.1-0.1,0.1-0.2c0,0,0,0.1,0,0.1v0.5c0,0.3,0.2,0.5,0.5,0.5s0.5-0.2,0.5-0.5v-0.5
								c0-0.3-0.2-0.5-0.5-0.5c-0.1,0-0.2,0.1-0.3,0.1c0.2-0.4,0.4-0.8,0.6-1.2c0.1-0.1,0.3-0.2,0.3-0.4v-0.2
								C38.1,29,38.3,28.5,38.4,28C38.4,28.1,38.4,28,38.4,28z M35.9,31.2c-1.2,1.9-2.8,3.5-4.7,4.7c0,0,0,0,0,0
								c-0.9,0.6-1.9,1-2.9,1.3l-1.4-5.8c2.1-0.8,3.9-2.5,4.7-4.7l5.8,1.4C37,29.3,36.5,30.3,35.9,31.2
								C35.9,31.2,35.9,31.2,35.9,31.2z M16.8,36C16.8,35.9,16.8,35.9,16.8,36c-1.9-1.2-3.6-2.8-4.7-4.7c0,0,0,0,0,0
								c-0.6-0.9-1-1.9-1.3-2.9l5.8-1.4c0.8,2.1,2.5,3.9,4.7,4.7l-1.4,5.8C18.7,37,17.7,36.5,16.8,36z M12.1,16.8
								c1.2-1.9,2.8-3.5,4.7-4.7c0,0,0,0,0,0c0.9-0.6,1.9-1,2.9-1.3l1.4,5.8c-2.1,0.8-3.9,2.5-4.7,4.7l-5.8-1.4
								C11,18.7,11.5,17.7,12.1,16.8C12.1,16.8,12.1,16.8,12.1,16.8z M16.2,22.1C16,22.7,16,23.4,16,24s0.1,1.3,0.2,1.9l-5.7,1.4
								C10.2,26.2,10,25.1,10,24s0.1-2.2,0.4-3.3L16.2,22.1z M17,24c0-3.9,3.1-7,7-7s7,3.1,7,7s-3.1,7-7,7S17,27.9,17,24z M31.2,12
								C31.2,12.1,31.2,12.1,31.2,12c1.9,1.2,3.5,2.8,4.7,4.7c0,0,0,0,0,0c0.6,0.9,1,1.9,1.3,2.9l-5.8,1.4c-0.8-2.1-2.5-3.9-4.7-4.7
								l1.4-5.8C29.3,11,30.3,11.5,31.2,12z M38,24c0,1.1-0.1,2.2-0.4,3.3l-5.7-1.4C32,25.3,32,24.6,32,24s-0.1-1.3-0.2-1.9l5.7-1.4
								C37.8,21.8,38,22.9,38,24z M27.3,10.4l-1.4,5.7C25.3,16,24.6,16,24,16s-1.3,0.1-1.9,0.2l-1.4-5.7c1.1-0.3,2.2-0.4,3.3-0.4
								S26.2,10.2,27.3,10.4z M20.7,37.6l1.4-5.7C22.7,32,23.4,32,24,32s1.3-0.1,1.9-0.2l1.4,5.7C26.2,37.8,25.1,38,24,38
								S21.8,37.8,20.7,37.6z"/>
							<path id="Shape_1_" fill="#5EABDD" d="M11,11.9c0.2,0,0.3-0.1,0.4-0.2c0.1-0.1,0.2-0.2,0.3-0.3c0.2-0.2,0.3-0.5,0.1-0.7
								c-0.2-0.2-0.5-0.3-0.7-0.1c-0.2,0.1-0.3,0.3-0.4,0.4c-0.2,0.2-0.1,0.5,0.1,0.7C10.8,11.9,10.9,11.9,11,11.9z"/>
							<path id="Shape_2_" fill="#5EABDD" d="M10.6,14.3c0.3,0,0.5-0.2,0.5-0.5v-0.5c0-0.3-0.2-0.5-0.5-0.5c-0.3,0-0.5,0.2-0.5,0.5
								v0.5C10,14.1,10.3,14.3,10.6,14.3z"/>
							<path id="Shape_3_" fill="#5EABDD" d="M13.3,11.1h0.5c0.3,0,0.5-0.2,0.5-0.5S14.1,10,13.8,10h-0.5c-0.3,0-0.5,0.2-0.5,0.5
								S13,11.1,13.3,11.1z"/>
							<path id="Shape_4_" fill="#5EABDD" d="M36.9,13.3v0.5c0,0.3,0.2,0.5,0.5,0.5s0.5-0.2,0.5-0.5v-0.5c0-0.3-0.2-0.5-0.5-0.5
								S36.9,13,36.9,13.3z"/>
							<path id="Shape_5_" fill="#5EABDD" d="M36.6,11.7c0.1,0.1,0.3,0.2,0.4,0.2c0.1,0,0.2,0,0.3-0.1c0.2-0.2,0.3-0.5,0.1-0.7
								c-0.1-0.2-0.3-0.3-0.4-0.4c-0.2-0.2-0.5-0.1-0.7,0.1c-0.2,0.2-0.1,0.5,0.1,0.7C36.4,11.5,36.5,11.6,36.6,11.7z"/>
							<path id="Shape_6_" fill="#5EABDD" d="M34.2,11.1h0.5c0.3,0,0.5-0.2,0.5-0.5S35,10,34.7,10h-0.5c-0.3,0-0.5,0.2-0.5,0.5
								S33.9,11.1,34.2,11.1z"/>
							<path id="Shape_7_" fill="#5EABDD" d="M36.5,36.3c-0.1,0.1-0.2,0.2-0.3,0.3c-0.2,0.2-0.3,0.5-0.1,0.7
								c0.1,0.1,0.3,0.2,0.4,0.2c0.1,0,0.2,0,0.3-0.1c0.2-0.1,0.3-0.3,0.4-0.4c0.2-0.2,0.1-0.5-0.1-0.7C37.1,36,36.7,36.1,36.5,36.3
								z"/>
							<path id="Shape_8_" fill="#5EABDD" d="M34.7,36.9h-0.5c-0.3,0-0.5,0.2-0.5,0.5c0,0.3,0.2,0.5,0.5,0.5h0.5
								c0.3,0,0.5-0.2,0.5-0.5C35.2,37.2,35,36.9,34.7,36.9z"/>
							<path id="Shape_9_" fill="#5EABDD" d="M37.4,33.7c-0.3,0-0.5,0.2-0.5,0.5v0.5c0,0.3,0.2,0.5,0.5,0.5S38,35,38,34.7v-0.5
								C38,33.9,37.7,33.7,37.4,33.7z"/>
							<path id="Shape_10_" fill="#5EABDD" d="M13.8,36.9h-0.5c-0.3,0-0.5,0.2-0.5,0.5c0,0.3,0.2,0.5,0.5,0.5h0.5
								c0.3,0,0.5-0.2,0.5-0.5C14.3,37.2,14.1,36.9,13.8,36.9z"/>
							<path id="Shape_11_" fill="#5EABDD" d="M11.1,34.7v-0.5c0-0.3-0.2-0.5-0.5-0.5c-0.3,0-0.5,0.2-0.5,0.5v0.5
								c0,0.3,0.2,0.5,0.5,0.5C10.8,35.2,11.1,35,11.1,34.7z"/>
							<path id="Shape_12_" fill="#5EABDD" d="M11.4,36.3c-0.2-0.2-0.5-0.3-0.7-0.1c-0.2,0.2-0.3,0.5-0.1,0.7
								c0.1,0.2,0.3,0.3,0.4,0.4c0.1,0.1,0.2,0.1,0.3,0.1c0.2,0,0.3-0.1,0.4-0.2c0.2-0.2,0.1-0.5-0.1-0.7
								C11.6,36.5,11.5,36.4,11.4,36.3z"/>
						</g>
					</g>
				</g>
			</g>
		</g>
	</g>
</g>
</svg>
