<?xml version="1.0" encoding="UTF-8"?>
<svg width="20px" height="24px" viewBox="0 0 20 24" version="1.1" xmlns="http://www.w3.org/2000/svg" xmlns:xlink="http://www.w3.org/1999/xlink">
    <!-- Generator: Sketch 48.2 (47327) - http://www.bohemiancoding.com/sketch -->
    <title>train</title>
    <desc>Created with Sketch.</desc>
    <defs></defs>
    <g id="Hotel-page" stroke="none" stroke-width="1" fill="none" fill-rule="evenodd" transform="translate(-1103.000000, -3323.000000)">
        <g id="Location" transform="translate(0.000000, 3048.000000)" fill="#5EABDD">
            <g id="Location-right-block" transform="translate(1027.000000, 92.000000)">
                <g id="Train-Station" transform="translate(20.000000, 183.000000)">
                    <g id="Train-station" transform="translate(56.000000, 0.000000)">
                        <g id="train">
                            <g id="train-(1)">
                                <path d="M17.0739796,0 L2.92091837,0 C1.31377551,0 0.00765306122,1.20944882 0.00765306122,2.6976378 L0.00765306122,15.8031496 C0.00765306122,17.2913386 1.31377551,18.5007874 2.92091837,18.5007874 L3.63010204,18.5007874 L2.10459184,23.7968504 L2.90561224,24 L3.15561224,23.1307087 L16.8392857,23.1307087 L17.0892857,24 L17.8954082,23.8015748 L16.369898,18.5055118 L17.0790816,18.5055118 C18.6862245,18.5055118 19.9923469,17.296063 19.9923469,15.807874 L19.9923469,2.6976378 C19.9872449,1.20944882 18.6811224,0 17.0739796,0 Z M16.6147959,22.3606299 L3.38010204,22.3606299 L3.82397959,20.8204724 L16.1709184,20.8204724 L16.6147959,22.3606299 Z M4.04336735,20.0456693 L4.4872449,18.5055118 L15.5076531,18.5055118 L15.9515306,20.0456693 L4.04336735,20.0456693 Z M19.1556122,15.8031496 C19.1556122,16.8661417 18.2219388,17.7307087 17.0739796,17.7307087 L2.92091837,17.7307087 C1.77295918,17.7307087 0.839285714,16.8661417 0.839285714,15.8031496 L0.839285714,2.6976378 C0.839285714,1.63464567 1.77295918,0.77007874 2.92091837,0.77007874 L17.0739796,0.77007874 C18.2219388,0.77007874 19.1556122,1.63464567 19.1556122,2.6976378 L19.1556122,15.8031496 Z" id="Shape" fill-rule="nonzero"></path>
                                <path d="M16.6607143,3.85511811 L3.33418367,3.85511811 C2.64540816,3.85511811 2.08418367,4.37480315 2.08418367,5.01259843 L2.08418367,9.63779528 C2.08418367,10.2755906 2.64540816,10.7952756 3.33418367,10.7952756 L16.6556122,10.7952756 C17.3443878,10.7952756 17.9056122,10.2755906 17.9056122,9.63779528 L17.9056122,5.01259843 C17.9056122,4.37480315 17.3494898,3.85511811 16.6607143,3.85511811 Z M9.58418367,10.0204724 L3.33418367,10.0204724 C3.10459184,10.0251969 2.92091837,9.8503937 2.92091837,9.63779528 L2.92091837,5.01259843 C2.92091837,4.8 3.10969388,4.62519685 3.33928571,4.62519685 L9.58418367,4.62519685 L9.58418367,10.0204724 Z M17.0790816,9.63779528 L17.0739796,9.63779528 C17.0739796,9.8503937 16.8852041,10.0251969 16.6556122,10.0251969 L10.4158163,10.0251969 L10.4158163,4.62519685 L16.6607143,4.62519685 C16.8903061,4.62519685 17.0790816,4.8 17.0790816,5.01259843 L17.0790816,9.63779528 Z" id="Shape" fill-rule="nonzero"></path>
                                <path d="M5.83418367,12.3354331 C4.68622449,12.3354331 3.75255102,13.2 3.75255102,14.2629921 C3.75255102,15.3259843 4.68622449,16.1905512 5.83418367,16.1905512 C6.98214286,16.1905512 7.91581633,15.3259843 7.91581633,14.2629921 C7.91581633,13.2 6.98214286,12.3354331 5.83418367,12.3354331 Z M5.83418367,15.4204724 C5.14540816,15.4204724 4.58418367,14.9007874 4.58418367,14.2629921 C4.58418367,13.6251969 5.14540816,13.1055118 5.83418367,13.1055118 C6.52295918,13.1055118 7.08418367,13.6251969 7.08418367,14.2629921 C7.08418367,14.9007874 6.52295918,15.4204724 5.83418367,15.4204724 Z" id="Shape" fill-rule="nonzero"></path>
                                <path d="M14.1607143,12.3354331 C13.0127551,12.3354331 12.0790816,13.2 12.0790816,14.2629921 C12.0790816,15.3259843 13.0127551,16.1905512 14.1607143,16.1905512 C15.3086735,16.1905512 16.2423469,15.3259843 16.2423469,14.2629921 C16.2423469,13.2 15.3086735,12.3354331 14.1607143,12.3354331 Z M14.1607143,15.4204724 C13.4719388,15.4204724 12.9107143,14.9007874 12.9107143,14.2629921 C12.9107143,13.6251969 13.4719388,13.1055118 14.1607143,13.1055118 C14.8494898,13.1055118 15.4107143,13.6251969 15.4107143,14.2629921 C15.4107143,14.9007874 14.8494898,15.4204724 14.1607143,15.4204724 Z" id="Shape" fill-rule="nonzero"></path>
                            </g>
                        </g>
                    </g>
                </g>
            </g>
        </g>
    </g>
</svg>