<?xml version="1.0" encoding="UTF-8"?>
<svg width="39px" height="38px" viewBox="0 0 39 38" version="1.1" xmlns="http://www.w3.org/2000/svg" xmlns:xlink="http://www.w3.org/1999/xlink">
    <!-- Generator: Sketch 48.2 (47327) - http://www.bohemiancoding.com/sketch -->
    <title>tree</title>
    <desc>Created with Sketch.</desc>
    <defs></defs>
    <g id="Hotel-page" stroke="none" stroke-width="1" fill="none" fill-rule="evenodd" transform="translate(-555.000000, -3780.000000)">
        <g id="Location" transform="translate(0.000000, 3048.000000)" fill="#5EABDD">
            <g id="Local-attractions" transform="translate(74.000000, 632.000000)">
                <g id="Parks" transform="translate(466.000000, 80.000000)">
                    <g id="Group-10" transform="translate(15.000000, 19.000000)">
                        <g id="tree" transform="translate(0.000000, 1.000000)">
                            <g id="Shape">
                                <path d="M8.33197122,8.04190476 C3.73502158,8.04190476 0,11.8453333 0,16.5264762 C0,21.0613333 3.49559712,24.7672381 7.8531223,25.0110476 L7.8531223,37.4453333 C7.8531223,37.7379048 8.04466187,37.9329524 8.33197122,37.9329524 C8.61928058,37.9329524 8.81082014,37.7379048 8.81082014,37.4453333 L8.81082014,25.0110476 C13.1683453,24.7672381 16.6639424,21.0613333 16.6639424,16.5264762 C16.6639424,11.8453333 12.9289209,8.04190476 8.33197122,8.04190476 Z M8.81082014,24.0845714 L8.81082014,21.6952381 L12.3064173,18.135619 C12.4979568,17.9405714 12.4979568,17.648 12.3064173,17.4529524 C12.1148777,17.2579048 11.8275683,17.2579048 11.6360288,17.4529524 L8.81082014,20.3299048 L8.81082014,15.1611429 C8.81082014,14.8685714 8.61928058,14.6735238 8.33197122,14.6735238 C8.04466187,14.6735238 7.8531223,14.8685714 7.8531223,15.1611429 L7.8531223,20.2811429 L5.02791367,17.4041905 C4.8363741,17.2091429 4.54906475,17.2091429 4.35752518,17.4041905 C4.16598561,17.5992381 4.16598561,17.8918095 4.35752518,18.0868571 L7.8531223,21.6464762 L7.8531223,24.0358095 C4.02233094,23.792 0.957697842,20.5249524 0.957697842,16.5264762 C0.957697842,12.4304762 4.2617554,9.06590476 8.33197122,9.06590476 C12.4021871,9.06590476 15.7062446,12.4304762 15.7062446,16.5752381 C15.7062446,20.5737143 12.6416115,23.792 8.81082014,24.0845714 Z" fill-rule="nonzero"></path>
                                <path d="M28.4436259,0.044952381 C22.649554,0.044952381 17.9089496,4.87238095 17.9089496,10.7725714 C17.9089496,13.2106667 18.7229928,15.5512381 20.2074245,17.4529524 C17.6216403,17.9405714 15.5625899,20.3786667 15.5625899,23.255619 C15.5625899,26.376381 17.9089496,28.912 20.8778129,29.1558095 L20.8778129,37.4453333 C20.8778129,37.7379048 21.0693525,37.9329524 21.3566619,37.9329524 C21.6439712,37.9329524 21.8355108,37.7379048 21.8355108,37.4453333 L21.8355108,29.1558095 C24.8043741,28.912 27.1507338,26.376381 27.1507338,23.255619 C27.1507338,22.5729524 27.054964,21.9390476 26.8155396,21.3051429 C27.1986187,21.3539048 27.5816978,21.4026667 27.964777,21.4514286 L27.964777,37.4453333 C27.964777,37.7379048 28.1563165,37.9329524 28.4436259,37.9329524 C28.7309353,37.9329524 28.9224748,37.7379048 28.9224748,37.4453333 L28.9224748,21.4514286 C34.5250072,21.207619 38.9783022,16.4777143 38.9783022,10.7725714 C38.9783022,4.87238095 34.2376978,0.044952381 28.4436259,0.044952381 Z M21.8355108,28.1805714 L21.8355108,26.7664762 L24.1818705,24.3771429 C24.3734101,24.1820952 24.3734101,23.8895238 24.1818705,23.6944762 C23.9903309,23.4994286 23.7030216,23.4994286 23.511482,23.6944762 L21.8833957,25.352381 L21.8833957,22.231619 C21.8833957,21.9390476 21.6918561,21.744 21.4045468,21.744 C21.1172374,21.744 20.9256978,21.9390476 20.9256978,22.231619 L20.9256978,25.352381 L19.2976115,23.6944762 C19.1060719,23.4994286 18.8187626,23.4994286 18.627223,23.6944762 C18.4356835,23.8895238 18.4356835,24.1820952 18.627223,24.3771429 L20.9735827,26.7664762 L20.9735827,28.1805714 C18.5314532,27.9367619 16.6160576,25.84 16.6160576,23.255619 C16.5202878,20.5737143 18.627223,18.3794286 21.2608921,18.3306667 L21.3566619,18.3306667 C24.0382158,18.3306667 26.193036,20.5737143 26.193036,23.255619 C26.193036,25.84 24.2776403,27.9367619 21.8355108,28.1805714 Z M28.9703597,20.4761905 L28.9703597,17.2091429 L33.4715396,12.6255238 C33.6630791,12.4304762 33.6630791,12.1379048 33.4715396,11.9428571 C33.28,11.7478095 32.9926906,11.7478095 32.8011511,11.9428571 L28.9703597,15.8438095 L28.9703597,8.91961905 C28.9703597,8.62704762 28.7788201,8.432 28.4915108,8.432 C28.2042014,8.432 28.0126619,8.62704762 28.0126619,8.91961905 L28.0126619,15.7950476 L24.1818705,11.8940952 C23.9903309,11.6990476 23.7030216,11.6990476 23.511482,11.8940952 C23.3199424,12.0891429 23.3199424,12.3817143 23.511482,12.5767619 L28.0126619,17.160381 L28.0126619,20.4274286 C27.4859281,20.3786667 26.9113094,20.3299048 26.3366906,20.183619 C25.3311079,18.4769524 23.511482,17.3554286 21.4524317,17.3066667 C19.8243453,15.5024762 18.9145324,13.1619048 18.9145324,10.7238095 C18.9145324,5.36 23.2241727,1.02019048 28.4915108,1.02019048 C33.7588489,1.02019048 38.0684892,5.4087619 38.0684892,10.7725714 C38.0684892,15.9900952 34.0461583,20.232381 28.9703597,20.4761905 Z" fill-rule="nonzero"></path>
                            </g>
                        </g>
                    </g>
                </g>
            </g>
        </g>
    </g>
</svg>