<?xml version="1.0" encoding="utf-8"?>
<!-- Generator: Adobe Illustrator 21.1.0, SVG Export Plug-In . SVG Version: 6.00 Build 0)  -->
<svg version="1.1" id="Слой_1" xmlns="http://www.w3.org/2000/svg" xmlns:xlink="http://www.w3.org/1999/xlink" x="0px" y="0px"
	 viewBox="0 0 26 25" enable-background="new 0 0 26 25" xml:space="preserve">
<title>tv</title>
<desc>Created with Sketch.</desc>
<g id="No-photo" transform="translate(-285.000000, -420.000000)">
	<g id="Rooms-Copy" transform="translate(74.000000, 60.000000)">
		<g id="Room-Copy" transform="translate(76.000000, 62.000000)">
			<g id="Group-25">
				<g id="Group-19" transform="translate(40.000000, 298.000000)">
					<g id="tv" transform="translate(95.000000, 0.000000)">
						<g id="television">
							<path id="Shape" fill="#5B6D7C" d="M24.2,5.6H13.8l3.1-4.9c0.1-0.2,0.1-0.5-0.1-0.6C16.5,0,16.2,0,16.1,0.2l-3.1,5l-3.5-5
								C9.3,0,9,0,8.8,0.1C8.7,0.2,8.6,0.5,8.7,0.7l3.4,4.9H1.7C0.8,5.6,0,6.4,0,7.3v14.6c0,0.9,0.8,1.7,1.7,1.7h0.4v0.9
								c0,0.3,0.2,0.4,0.4,0.4S3,24.8,3,24.5v-0.9h19.9v0.9c0,0.3,0.2,0.4,0.4,0.4c0.3,0,0.4-0.2,0.4-0.4v-0.9h0.4
								c1,0,1.7-0.8,1.7-1.7V7.3C26,6.4,25.2,5.6,24.2,5.6z M25.1,21.9c0,0.5-0.4,0.9-0.9,0.9H1.7c-0.5,0-0.9-0.4-0.9-0.9V7.3
								c0-0.5,0.4-0.9,0.9-0.9h22.5c0.5,0,0.9,0.4,0.9,0.9V21.9z"/>
							<path id="Shape_1_" fill="#5B6D7C" d="M16.5,7.3H4.3c-1.4,0-2.6,1.2-2.6,2.6v9.5c0,1.4,1.2,2.6,2.6,2.6h12.1
								c1.4,0,2.6-1.2,2.6-2.6V9.9C19.1,8.5,17.9,7.3,16.5,7.3z M18.2,19.4c0,0.9-0.8,1.7-1.7,1.7H4.3c-1,0-1.7-0.8-1.7-1.7V9.9
								c0-0.9,0.8-1.7,1.7-1.7h12.1c1,0,1.7,0.8,1.7,1.7L18.2,19.4L18.2,19.4z"/>
							<path id="Shape_2_" fill="#5B6D7C" d="M23.8,9.5h-3.5c-0.3,0-0.4,0.2-0.4,0.4s0.2,0.4,0.4,0.4h3.5c0.3,0,0.4-0.2,0.4-0.4
								S24.1,9.5,23.8,9.5z"/>
							<path id="Shape_3_" fill="#5B6D7C" d="M23.8,11.2h-3.5c-0.3,0-0.4,0.2-0.4,0.4s0.2,0.4,0.4,0.4h3.5c0.3,0,0.4-0.2,0.4-0.4
								S24.1,11.2,23.8,11.2z"/>
							<path id="Shape_4_" fill="#5B6D7C" d="M23.8,12.9h-3.5c-0.3,0-0.4,0.2-0.4,0.4s0.2,0.4,0.4,0.4h3.5c0.3,0,0.4-0.2,0.4-0.4
								S24.1,12.9,23.8,12.9z"/>
							<path id="Shape_5_" fill="#5B6D7C" d="M23.8,14.6h-3.5c-0.3,0-0.4,0.2-0.4,0.4v3.4c0,0.3,0.2,0.4,0.4,0.4h3.5
								c0.3,0,0.4-0.2,0.4-0.4v-3.4C24.2,14.8,24.1,14.6,23.8,14.6z M23.4,18.1h-2.6v-2.6h2.6V18.1z"/>
						</g>
					</g>
				</g>
			</g>
		</g>
	</g>
</g>
</svg>
