<?xml version="1.0" encoding="UTF-8"?>
<svg width="36px" height="30px" viewBox="0 0 36 30" version="1.1" xmlns="http://www.w3.org/2000/svg" xmlns:xlink="http://www.w3.org/1999/xlink">
    <!-- Generator: Sketch 48.2 (47327) - http://www.bohemiancoding.com/sketch -->
    <title>vegetables</title>
    <desc>Created with Sketch.</desc>
    <defs></defs>
    <g id="Hotel-page" stroke="none" stroke-width="1" fill="none" fill-rule="evenodd" transform="translate(-1048.000000, -4465.000000)">
        <g id="Review" transform="translate(150.000000, 4070.000000)" fill="#5EABDD">
            <g id="Rating" transform="translate(878.000000, 62.000000)">
                <g id="tasty-food" transform="translate(20.000000, 327.000000)">
                    <g id="vegetables" transform="translate(0.000000, 6.000000)">
                        <g id="Shape">
                            <path d="M35.8133015,15.5294473 C35.6333015,15.1763866 35.270284,14.9539801 34.8735822,14.9536997 L32.2669858,14.9536997 C32.9888103,13.8849847 33.4247401,12.6495174 33.5332314,11.3649146 C33.5331612,11.1315735 33.3973015,10.9196109 33.1853015,10.8216903 C31.9363191,10.1820174 30.4934419,10.0306156 29.1386349,10.396924 L33.1350559,6.85734454 C34.1957577,6.08715762 34.661091,4.73673706 34.2998279,3.47764827 L34.5420735,3.55832584 C34.7451612,3.62666697 34.9693015,3.58138659 35.1297928,3.43958753 C35.290284,3.29778846 35.3627051,3.08112958 35.3196173,2.87140996 C35.2765296,2.66176042 35.1244594,2.49108285 34.9210208,2.42393332 L34.0430559,2.1317137 L35.1549156,1.02150341 C35.3851612,0.787321172 35.3834068,0.411620237 35.1511261,0.179540798 C34.9188454,-0.0525386413 34.5426349,-0.0542208843 34.3081787,0.175755751 L33.1967401,1.28547538 L32.90467,0.409377247 C32.8000384,0.0957791157 32.4607401,-0.0736367721 32.1467752,0.0308725737 C31.8328103,0.135381919 31.6631963,0.474283789 31.7678279,0.787881919 L31.9279682,1.26816229 C30.7228454,1.00741463 29.4773717,1.4834894 28.7544244,2.48126977 L24.4657226,7.31239127 C24.3352665,6.85461089 24.0817928,6.44133986 23.7328103,6.11729781 C23.586284,5.99771837 23.3918279,5.95419033 23.2082489,5.99989127 C21.2907752,6.51991463 19.4801787,7.37351276 17.8594068,8.52143332 C17.4029156,6.25012491 15.5448805,4.52393332 13.243898,4.23346603 C13.4993366,3.15676042 14.4607401,2.39561556 15.5685296,2.39302211 C15.8992665,2.39302211 16.1673366,2.1252651 16.1673366,1.79491463 C16.1673366,1.46456416 15.8992665,1.19680715 15.5685296,1.19680715 C14.3634068,1.19743799 13.2389156,1.80178379 12.5744244,2.80601276 C11.9100735,1.80185388 10.7857928,1.19750809 9.58081032,1.19680715 C9.25007348,1.19680715 8.9820033,1.46456416 8.9820033,1.79491463 C8.9820033,2.1252651 9.25007348,2.39302211 9.58081032,2.39302211 C10.6884594,2.39575575 11.6495822,3.1569707 11.9048805,4.23353613 C9.26852962,4.56683052 7.26859979,6.76923706 7.19302084,9.42241463 C5.49379277,8.06498472 4.12677523,8.37080248 4.046284,8.39246136 C3.91891558,8.42393332 3.80551207,8.49633986 3.72347698,8.59867631 C2.36817874,10.4247511 1.98537172,12.7946109 2.69681032,14.9538399 L1.05484541,14.9538399 C0.634073476,14.9535595 0.253582247,15.2034427 0.0869857562,15.5893772 C-0.0614352964,15.931223 -0.0177861736,16.3259894 0.201582247,16.6273212 L0.394564704,17.0981389 C2.12431909,21.2958258 5.12740681,24.8466903 8.9817226,27.2517371 L8.9817226,28.1804754 C8.98284541,29.1338165 9.75645944,29.9063165 10.7109858,29.9070875 L25.2174419,29.9070875 C26.171898,29.9063165 26.9455822,29.1338165 26.9467051,28.1804754 L26.9467051,27.2517371 C30.8004594,24.8475315 33.8029156,21.2973679 35.5321086,17.100452 L35.7268454,16.6273212 C35.959898,16.3065735 35.9933015,15.8825081 35.8133015,15.5294473 Z M32.2899331,11.7410361 C32.0469858,12.9058492 31.5497928,14.0027417 30.8337928,14.9536296 L29.4899331,14.9536296 C29.4857928,14.9429754 29.4799682,14.9332324 29.4757577,14.9226483 C29.3918279,14.7108959 29.2970208,14.5036296 29.1917577,14.3016202 C29.1751963,14.2697978 29.1568805,14.2390268 29.1396875,14.2074847 C29.0376524,14.0187931 28.9274068,13.8364801 28.8087401,13.6604754 C28.7973015,13.6435829 28.7866349,13.6263399 28.7750559,13.6095174 C28.4941437,13.2011529 28.1676875,12.8260128 27.8018629,12.4913866 C28.9997577,11.3406623 30.7822138,11.0426249 32.2899331,11.7410361 Z M23.9862138,10.4995408 C24.0211612,10.4308492 24.0570208,10.3619473 24.0885998,10.294938 C24.1547051,10.1539801 24.2149156,10.0142137 24.2681787,9.8759193 C24.3065647,9.77673706 24.3374419,9.6819707 24.3684594,9.58678379 C24.3869156,9.52993799 24.4054419,9.47302211 24.4215822,9.41659687 C24.4537226,9.30521837 24.4815822,9.19692398 24.5043191,9.09136323 C24.5063542,9.0819707 24.5096524,9.07229781 24.5115472,9.06290528 L25.5817928,7.8573679 L26.5227051,8.79711089 C26.7570208,9.02792865 27.1338629,9.02666697 27.3665647,8.79423706 C27.5992665,8.56180715 27.6005998,8.18533519 27.3694419,7.95136323 L26.3777226,6.96080248 L27.5518279,5.63820902 L28.3191963,6.40461089 C28.5535121,6.63542865 28.9303542,6.63416697 29.1630559,6.40173706 C29.3957577,6.16930715 29.397091,5.79283519 29.1659331,5.55886323 L28.3477577,4.7416436 L29.2404594,3.73608285 L30.1156173,4.61021837 C30.3499331,4.84103613 30.7267752,4.83977444 30.959477,4.60734454 C31.1921787,4.37491463 31.1935121,3.99844267 30.9623542,3.7644707 L30.0456524,2.84883986 C30.3504945,2.59082584 30.7280384,2.43374641 31.1260735,2.39933052 C31.9950559,2.3277651 32.8048805,2.84456416 33.1049507,3.66227444 C33.4050208,4.47998472 33.1214419,5.39708753 32.4120384,5.90344267 C32.3949156,5.91549874 32.3784945,5.92860622 32.3629156,5.94255482 L26.191898,11.4081623 C25.4574419,11.0582558 24.6643893,10.8475548 23.8529507,10.7867137 L23.8377226,10.7848212 C23.8916875,10.6889333 23.9380033,10.5943772 23.9862138,10.4995408 Z M23.7521787,11.9909894 C23.9611612,12.0057791 24.1691612,12.0324847 24.3750559,12.0710361 C24.4212314,12.0798679 24.4667051,12.090452 24.5124594,12.1004053 C24.7368103,12.1493305 24.9578629,12.2124146 25.174284,12.2892371 C25.2099331,12.3019941 25.2455121,12.3146109 25.2808103,12.3280688 C25.5096524,12.4147744 25.7321086,12.5174614 25.9465647,12.6352885 C26.1843893,12.7649614 26.4120384,12.9125081 26.6274068,13.0767371 C26.8144945,13.220709 26.9921086,13.3765969 27.1590559,13.5434894 C27.1860033,13.5704754 27.2151261,13.5950081 27.2415822,13.6225548 C27.4065647,13.7954754 27.5598279,13.9792604 27.7001787,14.1725782 C27.7204594,14.2004053 27.7441787,14.2251483 27.7639682,14.2533959 C27.9210208,14.4758025 28.0608103,14.7099146 28.1820735,14.9536997 L18.5268454,14.9536997 C18.9823542,14.0338632 19.6923893,13.2637464 20.5727401,12.734681 C20.5925998,12.722695 20.6141437,12.713723 20.6341437,12.7020875 C20.83267,12.5856623 21.0384244,12.4821343 21.2502138,12.3921343 C21.294284,12.3735595 21.3408103,12.3601716 21.3854419,12.3427885 C21.5774419,12.2664567 21.7737226,12.2012698 21.9733015,12.1475782 C22.0385647,12.1304754 22.1059331,12.1198212 22.1720384,12.1051015 C22.3577928,12.0622744 22.5457226,12.0294006 22.7349858,12.0064801 C22.8145647,11.997438 22.8957577,11.9951249 22.9762489,11.9895174 C23.1643893,11.9750782 23.3531612,11.9706623 23.5417928,11.9762698 C23.6125296,11.978723 23.6820735,11.9858726 23.7521787,11.9909894 Z M17.7629156,10.1561529 C19.3316875,8.82311556 21.1650208,7.83662024 23.1425647,7.26150341 C23.3994068,7.73407351 23.4680384,8.28612958 23.3345647,8.80706416 C23.3121787,8.9180922 23.2852314,9.0305922 23.2504244,9.14568566 C23.2331612,9.20330248 23.2131612,9.26274173 23.1922489,9.32288192 C23.1450208,9.45739127 23.0912665,9.59393332 23.0276875,9.7334894 C23.010284,9.77190061 22.9929507,9.81024173 22.9740033,9.84956416 C22.8992665,10.0043305 22.8135822,10.1623913 22.7193366,10.3228352 C22.6982138,10.3589333 22.6789858,10.3939801 22.65667,10.4306389 C22.5749156,10.5646576 22.4799682,10.7023212 22.3850208,10.8399847 C22.0989156,10.8823913 21.815898,10.9435829 21.5378629,11.023209 L21.5251612,11.0268539 C19.8674068,11.5002651 18.4639682,12.6083726 17.6200384,14.1101249 C17.6007401,14.1441903 17.5820033,14.1783959 17.5632665,14.2128819 C17.4378629,14.4434894 17.326284,14.6813165 17.2291612,14.9251716 C17.2252314,14.9350548 17.2196173,14.9438165 17.2157577,14.9536997 L16.0549858,14.9536997 C16.0413717,14.8828352 16.0216524,14.8107791 16.0109156,14.7404754 C16.0045998,14.6998212 15.9977226,14.6589567 15.9923893,14.6184427 C15.9641086,14.4066202 15.9493015,14.1932558 15.9480384,13.9795408 C15.9479682,13.9606156 15.9492314,13.9419707 15.9493717,13.9231156 C15.9598279,13.0111997 16.2351261,12.121924 16.7417928,11.3632324 C16.7545647,11.3436763 16.7671963,11.3241202 16.7801787,11.3047744 C17.0629858,10.8858959 17.3927401,10.5005221 17.7629156,10.1561529 Z M9.17077523,7.11956416 C9.9585647,6.02659687 11.2257928,5.380195 12.5741437,5.38362958 C14.8429156,5.38972771 16.6968103,7.19435388 16.7613015,9.45956416 C16.7380735,9.482695 16.7196173,9.50722771 16.6968103,9.53042865 C16.5525998,9.67706416 16.4149156,9.82923706 16.2817928,9.98638659 C16.2398279,10.0360829 16.1978629,10.085709 16.1576524,10.1358959 C16.0324594,10.2915735 15.9153366,10.4529286 15.8031963,10.6186997 C15.7707752,10.6668539 15.7377928,10.7147978 15.7069156,10.7633726 C15.6605998,10.8357791 15.6077577,10.9034193 15.5642489,10.9777184 C15.1174419,11.731924 14.8469156,12.5771109 14.7728103,13.4503352 C14.7716875,13.4627417 14.7712665,13.4753586 14.770284,13.4878352 C14.7535822,13.7019006 14.7485296,13.9167371 14.7551963,14.1313632 C14.7563893,14.1747511 14.7574419,14.2180688 14.759477,14.261667 C14.7692314,14.4519006 14.7884594,14.6438866 14.8160384,14.8372744 C14.8215121,14.8763165 14.8213015,14.9145875 14.827477,14.9536997 L14.019898,14.9536997 C13.9977226,14.899167 13.9659331,14.850452 13.9418629,14.7970408 C13.8960384,14.6953352 13.8462138,14.5972744 13.7937226,14.4997043 C13.7284594,14.3785829 13.6591963,14.2613866 13.5841086,14.1470642 C13.5237577,14.0549614 13.4617226,13.9653819 13.3953366,13.8780455 C13.3125998,13.7690501 13.2247401,13.6657324 13.1333717,13.5645174 C13.0607401,13.4841202 12.9883191,13.4048445 12.9105647,13.3294941 C12.8116173,13.2336763 12.7069858,13.1454987 12.6003191,13.0585128 C12.5180033,12.9912931 12.4371612,12.9234427 12.3506349,12.8617604 C12.2358279,12.7799614 12.1151261,12.7083258 11.9935121,12.6367604 C11.9047401,12.5845408 11.8185647,12.5294473 11.7265647,12.4829053 C11.5949156,12.4163165 11.4575121,12.362695 11.3198279,12.3082324 C11.2294419,12.2724847 11.1420033,12.23141 11.0493015,12.2011296 C10.8916173,12.152695 10.731477,12.1125315 10.5696524,12.0806389 C10.4893717,12.0633959 10.411898,12.0380922 10.3304244,12.0249847 C10.0825647,11.9843305 9.83189804,11.9635128 9.58074014,11.9628819 C9.49421383,11.9628819 9.4100033,11.9663866 9.32930155,11.9716436 C9.25091558,11.842181 9.16726646,11.7139801 9.08312611,11.584938 C9.03589804,11.5124614 8.98874014,11.4415268 8.9417226,11.3722744 C8.82824891,11.2055221 8.71498576,11.0427651 8.60242435,10.8940268 C8.17126646,9.61797538 8.38291558,8.21253145 9.17077523,7.11956416 Z M8.54214365,13.3203118 C8.54958225,13.3179987 8.55666997,13.3149146 8.56410856,13.3126716 C8.72874014,13.2640969 8.89659979,13.2275081 9.06649453,13.2030455 C9.114284,13.1961763 9.17231909,13.1897277 9.22838926,13.183209 C9.52410856,13.1452885 9.82389804,13.1522277 10.1175822,13.2038165 C10.1731612,13.2123679 10.2270559,13.2263866 10.2819331,13.2375315 C10.4017928,13.261223 10.5203893,13.2910128 10.6372314,13.3267604 C10.6977226,13.3456857 10.7573015,13.3669941 10.8165998,13.3890034 C10.9261437,13.4297277 11.033091,13.4760595 11.1378629,13.5269473 C11.1925296,13.5535829 11.2476875,13.579167 11.3008805,13.608466 C11.4158279,13.6724614 11.5271963,13.742695 11.6344945,13.8186763 C11.6699331,13.8435595 11.7076875,13.8650081 11.742284,13.8910829 C11.8813015,13.9959427 12.0125998,14.1106156 12.1351963,14.2341903 C12.163898,14.2631389 12.1885296,14.2960128 12.2162489,14.3259427 C12.3079682,14.4240034 12.3941437,14.5271109 12.4743542,14.6347043 C12.5107051,14.6839801 12.5434068,14.7359894 12.5772314,14.7872978 C12.61267,14.8409894 12.6435472,14.8978352 12.6761086,14.9535595 L6.48066997,14.9535595 C6.49505593,14.9288866 6.50740681,14.902952 6.52235418,14.8786296 C6.56481032,14.8098679 6.61063488,14.7437698 6.65737172,14.6782324 C6.70445944,14.6122744 6.75288049,14.547438 6.80417874,14.4849847 C6.85603839,14.4219707 6.90993312,14.3608492 6.96593312,14.3017604 C7.02151207,14.2428118 7.07905593,14.1858258 7.13849453,14.1308726 C7.19631909,14.077181 7.25526646,14.0248913 7.31638926,13.9751249 C7.38452962,13.9198212 7.45533663,13.8680221 7.52747698,13.8177651 C7.58495067,13.7775315 7.64235418,13.7372978 7.70221383,13.7003586 C7.79295067,13.6447043 7.88712611,13.5945174 7.98277523,13.546924 C8.02817874,13.5242137 8.07259979,13.4997511 8.11898576,13.4788632 C8.25659979,13.4172511 8.39793312,13.3642604 8.54214365,13.3203118 Z M4.52031909,9.53834921 C4.99133663,9.55783519 6.20010856,9.73243799 7.60102084,11.5561997 C7.70579277,11.6922511 7.81393312,11.8435128 7.92916119,12.0103352 C7.96481032,12.0624847 8.00017874,12.1119707 8.03603839,12.1662931 C8.04565242,12.1808726 8.05540681,12.1981857 8.06502084,12.2129754 C8.03035418,12.224681 7.99870505,12.2429754 7.96431909,12.255452 C7.78677523,12.3195174 7.61323137,12.3940268 7.44452962,12.4786296 C7.39147698,12.5052651 7.33940681,12.5325315 7.28740681,12.5611296 C6.88607348,12.7801015 6.51814365,13.0552184 6.19470505,13.3781389 C6.16502084,13.4077885 6.13659979,13.4381389 6.10768751,13.4685595 C5.95589804,13.6267604 5.81526646,13.795195 5.6865647,13.9726716 C5.67814365,13.9843772 5.66852962,13.9948913 5.66024891,14.006667 C5.52838926,14.1958492 5.41042435,14.3942838 5.30740681,14.6005688 C5.28403839,14.6467604 5.26312611,14.6940034 5.24116119,14.7410361 C5.20810856,14.812181 5.17042435,14.8806623 5.14081032,14.9537698 L3.97414365,14.9537698 C3.22979277,13.1721343 3.43519628,11.1357791 4.52031909,9.53834921 Z M34.423898,16.6470174 C32.7667051,20.6623212 29.8763191,24.0486062 26.169091,26.3181623 L24.5513366,26.3181623 C24.2205998,26.3181623 23.9525296,26.5859193 23.9525296,26.9162698 C23.9525296,27.2466202 24.2205998,27.5143772 24.5513366,27.5143772 L25.7490208,27.5143772 L25.7490208,28.1802651 C25.7485296,28.4731857 25.5107051,28.7105221 25.2174419,28.7106623 L10.7109858,28.7106623 C10.4177226,28.7105221 10.179898,28.4732558 10.1794068,28.1802651 L10.1794068,27.5143772 L17.3653717,27.5143772 C17.6961086,27.5143772 17.9641787,27.2466202 17.9641787,26.9162698 C17.9641787,26.5859193 17.6961086,26.3181623 17.3653717,26.3181623 L9.75884541,26.3181623 C6.05077523,24.0483959 3.16003839,20.6611296 1.50333663,16.6447043 L1.30038926,16.1499847 L3.59217874,16.1499847 L34.6278279,16.1499847 L34.423898,16.6470174 Z" fill-rule="nonzero"></path>
                            <path d="M26.5993677,18.1763469 C26.707508,18.1762067 26.8135431,18.1469076 26.9063852,18.0916039 C29.349894,16.5930058 31.305894,14.4187768 32.5374027,11.8322581 C32.6211922,11.6356459 32.5936133,11.4093843 32.4650519,11.2386366 C32.3364905,11.0678889 32.1265256,10.9785899 31.9141747,11.0043843 C31.7018238,11.0301787 31.5194378,11.1672114 31.4356484,11.3637534 C30.3117887,13.7186132 28.5279291,15.6971413 26.3005606,17.0594076 C26.2798589,17.0713936 26.2599992,17.0847114 26.2409115,17.0991506 L26.2385957,17.100903 C26.0327712,17.2555992 25.9491922,17.5244777 26.031087,17.7684731 C26.1128413,18.0125385 26.3418238,18.1767674 26.5993677,18.1763469 Z" fill-rule="nonzero"></path>
                            <path d="M10.5988773,16.588715 C10.7577544,16.588785 10.9101053,16.5258411 11.022386,16.4136215 C11.1346667,16.3014019 11.1977544,16.149229 11.1976843,15.9906075 C11.1986667,15.000257 12.0020351,14.1975467 12.9935439,14.196215 C13.3242808,14.196215 13.5923509,13.9284579 13.5923509,13.5981075 C13.5923509,13.267757 13.3242808,13 12.9935439,13 C11.3408422,13.0019626 10.0016843,14.3399065 10.0000001,15.9906776 C9.99992988,16.1493692 10.0629474,16.3015421 10.1752983,16.4136916 C10.2876492,16.5258411 10.4400702,16.588785 10.5988773,16.588715 Z" fill-rule="nonzero"></path>
                        </g>
                    </g>
                </g>
            </g>
        </g>
    </g>
</svg>