<?xml version="1.0" encoding="UTF-8"?>
<svg width="10px" height="20px" viewBox="0 0 10 20" version="1.1" xmlns="http://www.w3.org/2000/svg" xmlns:xlink="http://www.w3.org/1999/xlink">
    <!-- Generator: Sketch 48.2 (47327) - http://www.bohemiancoding.com/sketch -->
    <title>walking</title>
    <desc>Created with Sketch.</desc>
    <defs></defs>
    <g id="Map_route-planner_1" stroke="none" stroke-width="1" fill="none" fill-rule="evenodd" transform="translate(-1218.000000, -225.000000)">
        <g id="Location_route-planner" transform="translate(-1.000000, 32.000000)" fill="#FFFFFF">
            <g id="Location-block" transform="translate(1028.000000, 92.000000)">
                <g id="Directions" transform="translate(20.000000, 97.000000)">
                    <g id="walk" transform="translate(162.000000, 0.000000)">
                        <g id="walking" transform="translate(9.000000, 4.000000)">
                            <g id="pedestrian-walking">
                                <path d="M4.52716599,3.2281104 C4.94550607,3.21397028 5.29639676,3.0441189 5.57979757,2.71855626 C5.86319838,2.39299363 5.99813765,2.01082803 5.98465587,1.57205945 C5.97117409,1.13320594 5.81595142,0.758131635 5.51906883,0.446794055 C5.22218623,0.135414013 4.86453441,-0.0132059448 4.44619433,0.00093418259 C4.02785425,0.01507431 3.67696356,0.18492569 3.39356275,0.510488323 C3.11016194,0.836050955 2.96846154,1.21821656 2.96846154,1.65698514 C2.96846154,2.09575372 3.12364372,2.47087049 3.43404858,2.78225053 C3.74445344,3.09363057 4.10882591,3.24225053 4.52716599,3.2281104 Z" id="Shape" fill-rule="nonzero"></path>
                                <path d="M9.64862348,8.5996603 L7.42190283,7.32577495 L5.60004049,4.26845011 C5.2491498,3.81549894 4.81732794,3.58904459 4.30449393,3.58904459 C3.95360324,3.58904459 3.61623482,3.74475584 3.29234818,4.05613588 L0.539311741,6.98607219 C0.458340081,7.09932059 0.40437247,7.22670913 0.377368421,7.36823779 L0.0129959514,10.6378769 L0.0129959514,10.7228025 C0.0129959514,10.9209342 0.08048583,11.0907856 0.215425101,11.2323567 C0.350364372,11.3738429 0.512307692,11.4446709 0.701255061,11.4446709 C0.890202429,11.4446709 1.04538462,11.3738429 1.16684211,11.2323567 C1.2882996,11.0907856 1.36251012,10.9351168 1.38951417,10.7652654 L1.67291498,7.96271762 L2.6445749,6.94360934 L1.75388664,14.7567728 L0.174939271,18.4510828 C0.12097166,18.6209342 0.0939676113,18.7762633 0.0939676113,18.918259 C0.0939676113,19.229172 0.195182186,19.4915074 0.397611336,19.7038217 C0.600040486,19.9161359 0.849716599,20.0080255 1.14659919,19.9798301 C1.55145749,19.9798301 1.84834008,19.781189 2.03728745,19.3853503 L3.73769231,15.393758 C3.73769231,15.3653079 3.75117409,15.3158386 3.77817814,15.245138 C3.80522267,15.1742251 3.83222672,15.1105308 3.8591498,15.0540552 C3.88615385,14.9973673 3.89963563,14.9406794 3.89963563,14.8842038 L4.10206478,12.9733333 L5.84295547,19.2579618 C6.03190283,19.7675159 6.36927126,20.0081104 6.85510121,19.9798301 C7.12502024,19.9798301 7.36117409,19.873673 7.56360324,19.6613588 C7.76603239,19.4490446 7.86724696,19.1867091 7.86724696,18.8757962 C7.86724696,18.8470064 7.86048583,18.8121019 7.84700405,18.7696391 C7.83352227,18.7271762 7.82676113,18.6916773 7.82676113,18.663397 L5.39761134,9.95847134 L5.68101215,7.11346072 L6.36927126,8.25995754 C6.42323887,8.34488323 6.49072874,8.41566879 6.5717004,8.47227176 L8.96036437,9.87354565 C9.12230769,9.93014862 9.2302834,9.95847134 9.28425101,9.95847134 C9.47319838,9.95847134 9.6351417,9.88063694 9.77008097,9.72492569 C9.90502024,9.56917197 9.97251012,9.39227176 9.97251012,9.19414013 C9.97251012,8.93936306 9.86453441,8.74118896 9.64862348,8.5996603 Z" id="Shape" fill-rule="nonzero"></path>
                            </g>
                        </g>
                    </g>
                </g>
            </g>
        </g>
    </g>
</svg>