<?xml version="1.0" encoding="UTF-8"?>
<svg width="50px" height="50px" viewBox="0 0 50 50" version="1.1" xmlns="http://www.w3.org/2000/svg" xmlns:xlink="http://www.w3.org/1999/xlink">
    <!-- Generator: Sketch 49 (51002) - http://www.bohemiancoding.com/sketch -->
    <title>wallet</title>
    <desc>Created with Sketch.</desc>
    <defs></defs>
    <g id="About-us" stroke="none" stroke-width="1" fill="none" fill-rule="evenodd">
        <g transform="translate(-1086.000000, -1077.000000)" fill="#5EABDD" id="Benefits">
            <g transform="translate(249.000000, 857.000000)">
                <g id="no-fees" transform="translate(787.000000, 220.000000)">
                    <g id="wallet" transform="translate(50.000000, 0.000000)">
                        <g id="Shape">
                            <path d="M48.3457661,29.2865234 L47.5733871,29.2865234 L47.5733871,22.5467773 C47.5733871,21.4797852 47.0252016,20.5350586 46.188004,19.9610352 L46.188004,19.0433594 C46.188004,17.712207 45.0701613,16.6292969 43.6960685,16.6292969 L43.1193548,16.6292969 L45.3259073,13.4925781 C46.0655242,12.4412109 45.7842742,11.002832 44.6989919,10.2862305 L29.7261089,0.401464844 C29.2004032,0.054296875 28.5667339,-0.073828125 27.9413306,0.0411132813 C27.3162298,0.155859375 26.7745968,0.499511719 26.4163306,1.00888672 L13.4928427,19.3802734 L9.89657258,19.3802734 L10.7642137,10.8714844 C10.7739919,10.7755859 10.8383065,10.6924805 10.9280242,10.6597656 C12.0458669,10.2514648 13.0146169,9.48896484 13.655746,8.51279297 C13.70625,8.4359375 13.8015121,8.39199219 13.9001008,8.40166016 L19.5407258,8.94150391 C19.9451613,8.97949219 20.3049395,8.69414063 20.3448589,8.30253906 C20.3847782,7.9109375 20.0895161,7.56220703 19.6852823,7.52353516 L14.0446573,6.98369141 C13.3899194,6.92158203 12.7655242,7.21386719 12.4147177,7.74785156 C11.9433468,8.465625 11.2310484,9.02617188 10.4091734,9.32636719 C9.79052419,9.55234375 9.36572581,10.090625 9.30040323,10.7313477 L8.41854839,19.3801758 L7.48074597,19.3801758 L8.85292339,5.92275391 C8.90231855,5.43837891 9.34858871,5.08251953 9.84919355,5.13105469 L21.2477823,6.221875 C21.6520161,6.25966797 22.011996,5.97451172 22.0519153,5.58291016 C22.0918347,5.19130859 21.7965726,4.84257813 21.3923387,4.80390625 L9.99375,3.71308594 C8.68689516,3.58818359 7.51824597,4.51640625 7.3891129,5.78261719 L6.28306452,16.6292969 L4.39949597,16.6292969 C3.02550403,16.6292969 1.90756048,17.712207 1.90756048,19.0433594 L1.90756048,19.6693359 C0.783467742,20.1707031 0.000806451613,21.2714844 0.000806451613,22.5467773 L0.000806451613,46.8333984 C0.000806451613,48.5794922 1.4671371,50 3.26965726,50 L44.3046371,50 C46.1070565,50 47.5733871,48.5794922 47.5733871,46.8333984 L47.5733871,40.09375 L48.3457661,40.09375 C49.2574597,40.09375 49.9990927,39.375293 49.9990927,38.4921875 L49.9990927,30.8881836 C49.9991935,30.0049805 49.2574597,29.2865234 48.3457661,29.2865234 Z M43.6960685,18.0542969 C44.2591734,18.0541992 44.7171371,18.4979492 44.7171371,19.043457 L44.7171371,19.4064453 C44.5818548,19.3898438 44.4444556,19.3803711 44.3046371,19.3803711 L41.1841734,19.3803711 L42.1169355,18.0542969 L43.6960685,18.0542969 Z M27.631754,1.81123047 C27.7688508,1.61640625 27.9760081,1.48496094 28.215121,1.44101563 C28.2722782,1.43056641 28.3296371,1.42529297 28.3865927,1.42529297 C28.5677419,1.42529297 28.7447581,1.47783203 28.8977823,1.57880859 L43.8706653,11.4635742 C44.2857863,11.7376953 44.3934476,12.2878906 44.1105847,12.6900391 L39.4043347,19.3800781 L38.2748992,19.3800781 L40.5822581,16.1000977 C40.9564516,15.5681641 40.9872984,14.8912109 40.6625,14.3333008 C40.2308468,13.5920898 40.0558468,12.7193359 40.1697581,11.8756836 C40.2544355,11.2480469 39.9693548,10.6353516 39.4258065,10.2765625 L31.6639113,5.15234375 C31.1202621,4.79345703 30.4273185,4.76054688 29.8553427,5.06650391 C29.0866935,5.47763672 28.1841734,5.6390625 27.3142137,5.52109375 C26.6690524,5.43339844 26.0147177,5.715625 25.6460685,6.23955078 L16.4022177,19.3801758 L15.2727823,19.3801758 L27.631754,1.81123047 Z M27.9556452,13.9099609 C24.7529234,13.9099609 22.1238911,16.3291992 21.9096774,19.3801758 L18.1819556,19.3801758 L26.8612903,7.04199219 C26.8613911,7.04199219 26.8613911,7.04199219 26.8613911,7.04199219 C26.9106855,6.97177734 26.9924395,6.92998047 27.0764113,6.92998047 C27.0876008,6.92998047 27.0987903,6.93076172 27.1099798,6.93222656 C28.293246,7.09257813 29.5205645,6.87324219 30.566129,6.31396484 C30.6483871,6.26982422 30.7540323,6.27617188 30.8354839,6.32988281 L38.5974798,11.4541992 C38.6787298,11.5079102 38.7233871,11.6008789 38.7112903,11.6911133 C38.5563508,12.8384766 38.7944556,14.0253906 39.3814516,15.0333984 C39.4285282,15.1143555 39.4227823,15.2180664 39.3669355,15.2976563 L36.4951613,19.3800781 L34.0019153,19.3800781 C33.7875,16.3291992 31.1585685,13.9099609 27.9556452,13.9099609 Z M32.5270161,19.3802734 L23.384375,19.3802734 C23.5950605,17.1157227 25.5642137,15.3349609 27.9556452,15.3349609 C30.3471774,15.3348633 32.3164315,17.1157227 32.5270161,19.3802734 Z M3.37842742,19.0433594 C3.37842742,18.4978516 3.83639113,18.0541016 4.39949597,18.0541016 L6.13780242,18.0541016 L6.00262097,19.3801758 L3.37842742,19.3801758 L3.37842742,19.0433594 Z M1.47167339,22.5467773 C1.47167339,21.5864258 2.27822581,20.8050781 3.26965726,20.8050781 L44.3046371,20.8050781 C45.2960685,20.8050781 46.1025202,21.5864258 46.1025202,22.5467773 L46.1025202,24.5237305 L1.47167339,24.5237305 L1.47167339,22.5467773 Z M46.1025202,46.8333984 C46.1025202,47.79375 45.2960685,48.5750977 44.3046371,48.5750977 L3.26965726,48.5750977 C2.27822581,48.5750977 1.47167339,47.79375 1.47167339,46.8333984 L1.47167339,44.8564453 L5.43760081,44.8564453 C5.84385081,44.8564453 6.17298387,44.5375 6.17298387,44.144043 C6.17298387,43.7505859 5.84375,43.4316406 5.43760081,43.4316406 L1.47167339,43.4316406 L1.47167339,25.9486328 L46.1025202,25.9486328 L46.1025202,29.2865234 L39.1099798,29.2865234 L39.109879,29.2865234 C36.9066532,29.2865234 34.9981855,30.5306641 34.0924395,32.331543 C34.0894153,32.3375977 34.0859879,32.343457 34.0828629,32.3495117 C34.0752016,32.3648438 34.0685484,32.3807617 34.0610887,32.3961914 C33.9532258,32.6181641 33.8594758,32.8479492 33.7831653,33.0850586 C33.7829637,33.0857422 33.7827621,33.0863281 33.7825605,33.0870117 C33.6197581,33.59375 33.5319556,34.1321289 33.5319556,34.6901367 C33.5319556,37.6697266 36.0341734,40.09375 39.1097782,40.09375 L39.109879,40.09375 L46.1024194,40.09375 L46.1024194,43.4316406 L10.1466734,43.4316406 C9.74042339,43.4316406 9.41129032,43.7505859 9.41129032,44.144043 C9.41129032,44.5375 9.74052419,44.8564453 10.1466734,44.8564453 L46.1025202,44.8564453 L46.1025202,46.8333984 Z M48.5283266,38.4920898 C48.5283266,38.5895508 48.4464718,38.6688477 48.3457661,38.6688477 L39.1100806,38.6688477 C37.553125,38.6688477 36.1956653,37.8251953 35.4993952,36.5850586 C35.4677419,36.5287109 35.4375,36.4714844 35.4085685,36.4135742 C35.3508065,36.2976563 35.2986895,36.1786133 35.252621,36.0567383 C35.091129,35.6303711 35.0030242,35.1700195 35.0030242,34.6901367 C35.0030242,34.2102539 35.0912298,33.7499023 35.252621,33.3235352 C35.2987903,33.2017578 35.3509073,33.0827148 35.4085685,32.9666992 C35.4375,32.9087891 35.4677419,32.8515625 35.4993952,32.7952148 C36.1956653,31.5550781 37.553125,30.7114258 39.1100806,30.7114258 L48.3457661,30.7114258 C48.446371,30.7114258 48.5283266,30.7907227 48.5283266,30.8881836 L48.5283266,38.4920898 Z" fill-rule="nonzero"></path>
                            <path d="M39.2823589,31.7995117 C37.636996,31.7995117 36.2984879,33.0962891 36.2984879,34.6901367 C36.2984879,36.2839844 37.636996,37.5806641 39.2823589,37.5806641 C40.9277218,37.5806641 42.2662298,36.2839844 42.2662298,34.6901367 C42.2662298,33.0962891 40.9277218,31.7995117 39.2823589,31.7995117 Z M39.2823589,36.1557617 C38.4480847,36.1557617 37.7693548,35.4982422 37.7693548,34.6901367 C37.7693548,33.8820312 38.4480847,33.2244141 39.2823589,33.2244141 C40.1166331,33.2244141 40.7953629,33.8819336 40.7953629,34.6901367 C40.7953629,35.4983398 40.1166331,36.1557617 39.2823589,36.1557617 Z" fill-rule="nonzero"></path>
                        </g>
                    </g>
                </g>
            </g>
        </g>
    </g>
</svg>