<?xml version="1.0" encoding="utf-8"?>
<!-- Generator: Adobe Illustrator 21.1.0, SVG Export Plug-In . SVG Version: 6.00 Build 0)  -->
<svg version="1.1" id="Слой_1" xmlns="http://www.w3.org/2000/svg" xmlns:xlink="http://www.w3.org/1999/xlink" x="0px" y="0px"
	 viewBox="0 0 39 31" enable-background="new 0 0 39 31" xml:space="preserve">
<title>wifi</title>
<desc>Created with Sketch.</desc>
<g id="Hotel-page_room-with-rates" transform="translate(-1139.000000, -1038.000000)">
	<g id="Hotel-overview-open" transform="translate(0.000000, 781.000000)">
		<g id="Free-wi-fi" transform="translate(1027.000000, 237.000000)">
			<g id="wifi" transform="translate(112.000000, 20.000000)">
				<g id="wifi-_x28_1_x29_">
					<path id="Shape" fill="#5EABDD" d="M38.7,9.2c-5.1-5.5-12-8.5-19.3-8.5S5.3,3.7,0.2,9.2c-0.3,0.3-0.3,0.8,0,1.1s0.7,0.3,1,0
						C6.1,5,12.6,2.2,19.5,2.2S32.9,5,37.7,10.2c0.1,0.1,0.3,0.2,0.5,0.2c0.2,0,0.4-0.1,0.5-0.2C39,9.9,39,9.5,38.7,9.2z"/>
					<path id="Shape_1_" fill="#5EABDD" d="M4.4,13.6c-0.3,0.3-0.3,0.8,0,1.1c0.1,0.1,0.3,0.2,0.5,0.2c0.2,0,0.4-0.1,0.5-0.2
						c7.8-8.3,20.4-8.3,28.2,0c0.3,0.3,0.7,0.3,1,0s0.3-0.8,0-1.1C26.2,4.7,12.7,4.7,4.4,13.6z"/>
					<path id="Shape_2_" fill="#5EABDD" d="M19.5,13.2c-4.1,0-8,1.7-10.9,4.8c-0.3,0.3-0.3,0.8,0,1.1c0.3,0.3,0.7,0.3,1,0
						c2.6-2.8,6.2-4.4,9.9-4.4s7.3,1.6,9.9,4.4c0.1,0.1,0.3,0.2,0.5,0.2c0.2,0,0.4-0.1,0.5-0.2c0.3-0.3,0.3-0.8,0-1.1
						C27.5,14.9,23.6,13.2,19.5,13.2z"/>
					<path id="Shape_3_" fill="#5EABDD" d="M19.5,20.4c-2.6,0-4.6,2.2-4.6,5s2.1,5,4.6,5c2.6,0,4.6-2.2,4.6-5S22,20.4,19.5,20.4z
						 M19.5,28.7c-1.8,0-3.2-1.5-3.2-3.4c0-1.9,1.4-3.4,3.2-3.4c1.8,0,3.2,1.5,3.2,3.4C22.7,27.2,21.2,28.7,19.5,28.7z"/>
				</g>
			</g>
		</g>
	</g>
</g>
</svg>
