<?xml version="1.0" encoding="utf-8"?>
<!-- Generator: Adobe Illustrator 21.1.0, SVG Export Plug-In . SVG Version: 6.00 Build 0)  -->
<svg version="1.1" id="Слой_1" xmlns="http://www.w3.org/2000/svg" xmlns:xlink="http://www.w3.org/1999/xlink" x="0px" y="0px"
	 viewBox="0 0 130 21" enable-background="new 0 0 130 21" xml:space="preserve">
<title>logo-tripadvisor</title>
<desc>Created with Sketch.</desc>
<g id="Hotel-page" transform="translate(-84.000000, -109.000000)">
	<g id="First-screen" transform="translate(0.000000, 7.000000)">
		<g id="Rating" transform="translate(20.000000, 95.000000)">
			<g id="Trip-advisor-review" transform="translate(64.000000, 7.000000)">
				<g id="logo-tripadvisor">
					<g id="tripadvisor-nederland">
						<g id="Owl">
							<path id="Shape" fill="#FFFFFF" fill-opacity="0" d="M14.5,12.1c1.1,3.1,4.7,4.7,7.8,3.5c3.1-1.1,4.8-4.6,3.5-7.7
								c-1.1-3.1-4.7-4.7-7.8-3.5C15,5.5,13.4,9,14.5,12.1z"/>
							<ellipse id="Oval" fill="#FFFFFF" fill-opacity="0" cx="6.8" cy="10" rx="6.1" ry="6"/>
							<path id="Shape_1_" fill="#5B6D7C" d="M7.8,9.9c0,0.6-0.5,1.1-1.1,1.1s-1.1-0.5-1.1-1.1c0-0.6,0.5-1.1,1.1-1.1
								S7.8,9.3,7.8,9.9z"/>
							<path id="Shape_2_" fill="#5B6D7C" d="M21.3,9.9c0,0.6-0.5,1.1-1.1,1.1c-0.6,0-1.1-0.5-1.1-1.1c0-0.6,0.5-1.1,1.1-1.1
								C20.7,8.8,21.3,9.3,21.3,9.9z"/>
							<path id="Shape_3_" fill="#5B6D7C" d="M3.3,9.9c0,1.8,1.5,3.3,3.3,3.3S10,11.7,10,9.9S8.5,6.6,6.7,6.6S3.3,8.1,3.3,9.9z
								 M4.5,9.9c0-1.2,1-2.2,2.2-2.2s2.2,1,2.2,2.2s-1,2.2-2.2,2.2S4.5,11.1,4.5,9.9z M16.8,9.9c0,1.8,1.5,3.3,3.3,3.3
								s3.3-1.5,3.3-3.3S22,6.6,20.1,6.6S16.8,8.1,16.8,9.9z M18,9.9c0-1.2,1-2.2,2.2-2.2c1.2,0,2.2,1,2.2,2.2s-1,2.2-2.2,2.2
								C18.9,12.1,18,11.1,18,9.9z"/>
							<path id="Shape_4_" fill="none" d="M15.7,12.9c0.5,0.8,1.3,1.5,2.2,1.9c1.3,0.6,2.7,0.7,4.1,0.2c2.8-1,4.3-4.1,3.1-6.8
								c-1-2.8-4.1-4.2-6.9-3.1c-1.3,0.5-2.4,1.5-3,2.8c-0.4,0.9-0.5,1.8-0.4,2.7"/>
							<path id="Shape_5_" fill="#5B6D7C" d="M25.6,6c0.3-1.3,1.3-2.7,1.3-2.7h-4.5c-2.5-1.6-5.6-2.5-9-2.5c-3.5,0-6.7,0.9-9.2,2.5
								L0,3.4c0,0,1,1.3,1.3,2.7C0.5,7.2,0,8.5,0,10c0,3.7,3,6.7,6.8,6.7c2.1,0,4-1,5.3-2.5l1.4,2.1l1.4-2.1
								c0.6,0.8,1.5,1.5,2.4,1.9c1.6,0.7,3.4,0.8,5.2,0.2c3.4-1.3,5.3-5.1,3.9-8.6C26.3,7.1,26,6.5,25.6,6z M13.5,2.1
								c2.4,0,4.7,0.4,6.6,1.3c-0.7,0-1.4,0.1-2.1,0.4c-1.7,0.6-3,1.8-3.7,3.5c-0.3,0.7-0.5,1.5-0.6,2.3C13.4,6.2,10.4,3.5,7,3.4
								C8.8,2.5,11,2.1,13.5,2.1z M11.2,13c-1,1.4-2.6,2.3-4.5,2.3c-2.9,0-5.4-2.4-5.4-5.3s2.4-5.3,5.4-5.3S12.1,7,12.1,10
								c0,0.2,0,0.3-0.1,0.5C11.9,11.4,11.7,12.2,11.2,13z M22.1,15c-1.3,0.5-2.8,0.4-4.1-0.2c-0.9-0.4-1.7-1.1-2.2-1.9
								c-0.2-0.3-0.4-0.7-0.6-1.1c-0.2-0.4-0.2-0.9-0.3-1.3c-0.1-0.9,0-1.9,0.4-2.7c0.6-1.3,1.7-2.3,3-2.8c2.8-1,5.9,0.4,6.9,3.1
								C26.3,10.9,24.8,14,22.1,15z"/>
						</g>
						<g id="Netherlands" transform="translate(30.362538, 0.000000)">
							<path id="Shape_6_" fill="#5B6D7C" d="M66.4,2c0,0.7,0.6,1.3,1.3,1.3S69,2.7,69,2s-0.6-1.3-1.3-1.3S66.4,1.3,66.4,2z"/>
							<path id="Shape_7_" fill="#5B6D7C" d="M4.6,1.9l-2,0.7v2.5H0.3v1.7h2.1v5.5c0,2.6,0.9,3.7,3.1,3.7c0.6,0,1.1-0.1,1.6-0.2h0.1
								V14H7.2c-0.4,0.1-0.8,0.2-1,0.2c-1,0-1.4-0.6-1.4-2.1V6.8h2.5V5.1H4.8V1.8L4.6,1.9z M11.3,6.8V5.1h-2v10.7h2.2v-5.4
								c0-2.2,0.9-3.5,2.7-3.5c0.2,0,0.5,0,0.8,0.1h0.1V5l-0.9-0.1C13.1,4.9,11.9,5.6,11.3,6.8z M27,4.8c-1.5,0-2.7,0.7-3.6,2V5.1
								h-2v15h2.2v-5.8c0.8,1.1,1.9,1.6,3.3,1.6c2.7,0,4.6-2.2,4.6-5.7C31.5,7,29.7,4.8,27,4.8z M26.4,14.2c-1.7,0-2.8-1.5-2.8-3.8
								s1.1-3.7,2.9-3.7c1.7,0,2.7,1.4,2.7,3.7C29.1,12.7,28.1,14.2,26.4,14.2z"/>
							<path id="Shape_8_" fill="#5B6D7C" d="M37.9,4.8c-1.3,0-2.5,0.2-3.5,0.8h-0.1v1.8h0.2c1-0.6,2-0.9,2.9-0.9
								c1.6,0,2.5,0.9,2.5,2.5v0.1h-1.2c-3.6,0-5.6,1.3-5.6,3.6c0,1.9,1.4,3.2,3.4,3.2c1.5,0,2.6-0.6,3.5-1.7v1.5h2V9.3
								C41.9,6.3,40.6,4.8,37.9,4.8z M39.8,11.3c0,1.8-1.1,3-2.8,3c-1,0-1.8-0.7-1.8-1.7c0-1.3,1.2-2,3.5-2h1.1V11.3z M51.2,0v6.5
								c-0.8-1.1-1.9-1.7-3.3-1.7c-2.6,0-4.5,2.2-4.5,5.4c0,3.3,1.8,5.7,4.5,5.7c1.5,0,2.7-0.7,3.5-2v1.8h2V0H51.2z M48.4,14.1
								c-1.6,0-2.7-1.4-2.7-3.8c0-2.3,1-3.8,2.6-3.8c1.8,0,2.9,1.4,2.9,3.8S50.1,14.1,48.4,14.1z M63.2,5.1L60,11.3l-2.8-6.2h-2.4
								L60,15.8l5.5-10.7H63.2z M68.6,5.1h-2v10.7h2.2V5.1H68.6z M71.4,7.8c0,1.5,1,2.3,2.9,3.2c1.2,0.6,1.8,0.9,1.8,1.8
								c0,0.9-0.8,1.4-2,1.4c-0.8,0-1.8-0.2-2.7-0.7l-0.2-0.1L71,15.3h0.1c0.9,0.4,1.8,0.5,2.8,0.5c2.6,0,4.5-1.3,4.5-3.2
								c0-1.6-1.1-2.5-3-3.3c-1.4-0.6-1.9-1-1.9-1.7c0-0.6,0.6-1.1,1.6-1.1c0.9,0,1.8,0.2,2.6,0.6l0.2,0.1L78,5.4h-0.1
								C77,5.1,76.1,5,75.3,5C73,5,71.4,6.1,71.4,7.8z M85.3,4.8C82,4.8,80,6.9,80,10.4s2,5.6,5.4,5.6c3.3,0,5.4-2.1,5.4-5.6
								S88.7,4.8,85.3,4.8z M85.3,14.2c-1.8,0-3-1.5-3-3.8s1.2-3.9,3-3.9c1.8,0,3,1.5,3,3.9C88.4,12.7,87.2,14.2,85.3,14.2z
								 M94.7,6.8V5.1h-2v10.7h2.2v-5.4c0-2.2,0.9-3.5,2.7-3.5c0.2,0,0.5,0,0.8,0.1h0.1l0.1-2.1l-0.9-0.1
								C96.4,4.9,95.3,5.6,94.7,6.8z"/>
							<path id="Shape_9_" fill="#5B6D7C" d="M19.1,5.1h-2v10.7h2.1V5.1H19.1z M16.8,2c0,0.7,0.6,1.3,1.3,1.3s1.3-0.6,1.3-1.3
								s-0.6-1.3-1.3-1.3S16.8,1.3,16.8,2z"/>
						</g>
					</g>
				</g>
			</g>
		</g>
	</g>
</g>
</svg>
