<?xml version="1.0" encoding="UTF-8"?>
<svg width="22px" height="14px" viewBox="0 0 22 14" version="1.1" xmlns="http://www.w3.org/2000/svg" xmlns:xlink="http://www.w3.org/1999/xlink">
    <!-- Generator: Sketch 49.1 (51147) - http://www.bohemiancoding.com/sketch -->
    <title>sp</title>
    <desc>Created with Sketch.</desc>
    <defs></defs>
    <g id="Page-1" stroke="none" stroke-width="1" fill="none" fill-rule="evenodd">
        <g id="FAQ-" transform="translate(-169.000000, -1723.000000)">
            <g id="Call-us" transform="translate(149.000000, 1509.000000)">
                <g id="Group-21" transform="translate(20.000000, 20.000000)">
                    <g id="Group-15" transform="translate(0.000000, 194.000000)">
                        <g id="sp">
                            <g id="spain">
                                <g id="Group" fill="#C8414B" fill-rule="nonzero">
                                    <path d="M0,12.3907917 C0,13.2731667 0.737644531,13.9885 1.64763672,13.9885 L20.3523633,13.9885 C21.2623125,13.9885 22,13.2732083 22,12.3907917 L22,11.0459583 L0,11.0459583 L0,12.3907917 Z" id="Shape"></path>
                                    <path d="M20.3523633,0.0115 L1.64763672,0.0115 C0.737644531,0.0115 0,0.726791667 0,1.60920833 L0,2.95404167 L22,2.95404167 L22,1.60920833 C22,0.726791667 21.2623555,0.0115 20.3523633,0.0115 Z" id="Shape"></path>
                                </g>
                                <rect id="Rectangle-path" fill="#FFD250" fill-rule="nonzero" x="0" y="2.95416667" width="22" height="8.09208333"></rect>
                                <path d="M9.29310938,7 L9.61473047,5.596625 C9.64437891,5.467375 9.54292969,5.34479167 9.406375,5.34479167 L9.17984375,5.34479167 C9.04333203,5.34479167 8.94192578,5.46741667 8.97148828,5.596625 L9.29310938,7 Z" id="Shape" fill="#C8414B" fill-rule="nonzero"></path>
                                <rect id="Rectangle-path" fill="#F5F5F5" fill-rule="nonzero" x="8.91386719" y="6.26416667" width="1" height="3.12625"></rect>
                                <rect id="Rectangle-path" fill="#FAB446" fill-rule="nonzero" x="8.72394531" y="5.89666667" width="1.13794141" height="1"></rect>
                                <g id="Group" transform="translate(3.265625, 5.333333)" fill="#C8414B" fill-rule="nonzero">
                                    <rect id="Rectangle-path" x="4.69992187" y="1.66666667" width="1.89664063" height="1"></rect>
                                    <polygon id="Shape" points="6.59643359 3.13791667 5.45849219 2.770125 5.45849219 2.40229167 6.59643359 2.770125"></polygon>
                                    <path d="M0.337820313,1.66666667 L0.659441406,0.263291667 C0.689089844,0.134041667 0.587640625,0.0114583333 0.451085938,0.0114583333 L0.224554688,0.0114583333 C0.0880429688,0.0114583333 -0.0133632812,0.134083333 0.0161992188,0.263291667 L0.337820313,1.66666667 Z" id="Shape"></path>
                                </g>
                                <path d="M4.93105078,5.89654167 C4.72157812,5.89654167 4.55172266,6.06125 4.55172266,6.264375 L4.55172266,8.65516667 C4.55172266,9.10204167 4.98183984,9.94254167 6.44827734,9.94254167 C7.91471484,9.94254167 8.34483203,9.10208333 8.34483203,8.65516667 L8.34483203,6.264375 C8.34483203,6.06125 8.17497656,5.89654167 7.96550391,5.89654167 L4.93105078,5.89654167 Z" id="Shape" fill="#F5F5F5" fill-rule="nonzero"></path>
                                <g id="Group" transform="translate(4.511719, 5.875000)" fill="#C8414B" fill-rule="nonzero">
                                    <path d="M1.93655859,1.860625 L0.0400039062,1.860625 L0.0400039062,0.389375 C0.0400039062,0.18625 0.209859375,0.0215416667 0.419332031,0.0215416667 L1.93655859,0.0215416667 L1.93655859,1.860625 Z" id="Shape"></path>
                                    <path d="M1.93655859,1.860625 L3.83311328,1.860625 L3.83311328,2.78016667 C3.83311328,3.28804167 3.40858203,3.69970833 2.88483594,3.69970833 C2.36108984,3.69970833 1.93655859,3.28804167 1.93655859,2.78016667 L1.93655859,1.860625 Z" id="Shape"></path>
                                </g>
                                <path d="M4.55172266,7.735625 L6.44827734,7.735625 L6.44827734,8.65516667 C6.44827734,9.16304167 6.02374609,9.57470833 5.5,9.57470833 C4.97625391,9.57470833 4.55172266,9.16304167 4.55172266,8.65516667 L4.55172266,7.735625 Z" id="Shape" fill="#FAB446" fill-rule="nonzero"></path>
                                <g id="Group" transform="translate(4.898438, 7.708333)" fill="#C8414B" fill-rule="nonzero">
                                    <path d="M1.29118359,1.67833333 L1.29118359,0.0272916667 L0.791183594,0.0272916667 L0.791183594,1.84783333 C0.977182688,1.82008333 1.14522754,1.7595 1.29118359,1.67833333 Z" id="Shape"></path>
                                    <path d="M0.532570312,1.84783333 L0.532570312,0.0272916667 L0.0325703125,0.0272916667 L0.0325703125,1.67833333 C0.178582999,1.7595 0.346627857,1.82008333 0.532570312,1.84783333 Z" id="Shape"></path>
                                </g>
                                <rect id="Rectangle-path" fill="#FFB441" fill-rule="nonzero" x="4.93109375" y="7" width="1.13794141" height="1"></rect>
                                <g id="Group" transform="translate(4.898438, 6.250000)" fill="#FAB446" fill-rule="nonzero">
                                    <rect id="Rectangle-path" x="0.03265625" y="0.0141666667" width="1.13794141" height="1"></rect>
                                    <rect id="Rectangle-path" x="0.222148438" y="0.232916667" width="1" height="1"></rect>
                                </g>
                                <rect id="Rectangle-path" fill="#F5F5F5" fill-rule="nonzero" x="3.22394531" y="6.26416667" width="1" height="3.12625"></rect>
                                <g id="Group" transform="translate(3.007812, 5.875000)" fill="#FAB446" fill-rule="nonzero">
                                    <rect id="Rectangle-path" x="0.026640625" y="3.33208333" width="1.13794141" height="1"></rect>
                                    <rect id="Rectangle-path" x="0.026640625" y="0.0216666667" width="1.13794141" height="1"></rect>
                                </g>
                                <rect id="Rectangle-path" fill="#5064AA" fill-rule="nonzero" x="2.84496094" y="9.57458333" width="1.51722656" height="1"></rect>
                                <rect id="Rectangle-path" fill="#FAB446" fill-rule="nonzero" x="8.91386719" y="9.20708333" width="1.13794141" height="1"></rect>
                                <rect id="Rectangle-path" fill="#5064AA" fill-rule="nonzero" x="8.53445313" y="9.57458333" width="1.51722656" height="1"></rect>
                                <rect id="Rectangle-path" fill="#FAB446" fill-rule="nonzero" x="5.31050781" y="5.52875" width="2.27588281" height="1"></rect>
                                <rect id="Rectangle-path" fill="#FFB441" fill-rule="nonzero" x="6.25882813" y="4.42541667" width="1" height="1.10345833"></rect>
                                <g id="Group" transform="translate(4.726562, 3.833333)" fill="#F5F5F5" fill-rule="nonzero">
                                    <path d="M1.34238672,1.14366667 C1.02862891,1.14366667 0.7734375,0.896166667 0.7734375,0.591958333 C0.7734375,0.287708333 1.02867187,0.04025 1.34238672,0.04025 C1.65614453,0.04025 1.91133594,0.28775 1.91133594,0.591958333 C1.91137891,0.896166667 1.65614453,1.14366667 1.34238672,1.14366667 Z M1.34238672,0.408041667 C1.23775781,0.408041667 1.15272266,0.490458333 1.15272266,0.591958333 C1.15272266,0.693416667 1.23771484,0.775875 1.34238672,0.775875 C1.44705859,0.775875 1.53205078,0.693458333 1.53205078,0.591958333 C1.53205078,0.4905 1.44705859,0.408041667 1.34238672,0.408041667 Z" id="Shape"></path>
                                    <path d="M2.10104297,1.14366667 C1.78728516,1.14366667 1.53209375,0.896166667 1.53209375,0.591958333 C1.53209375,0.287708333 1.78732812,0.04025 2.10104297,0.04025 C2.41480078,0.04025 2.66999219,0.28775 2.66999219,0.591958333 C2.66999219,0.896166667 2.41475781,1.14366667 2.10104297,1.14366667 Z M2.10104297,0.408041667 C1.99641406,0.408041667 1.91137891,0.490458333 1.91137891,0.591958333 C1.91137891,0.693416667 1.99637109,0.775875 2.10104297,0.775875 C2.20567187,0.775875 2.29070703,0.693458333 2.29070703,0.591958333 C2.29066406,0.4905 2.20567187,0.408041667 2.10104297,0.408041667 Z" id="Shape"></path>
                                    <path d="M2.85965625,1.5115 C2.54589844,1.5115 2.29070703,1.264 2.29070703,0.959791667 C2.29070703,0.655541667 2.54594141,0.408083333 2.85965625,0.408083333 C3.17341406,0.408083333 3.42860547,0.655583333 3.42860547,0.959791667 C3.42860547,1.264 3.17337109,1.5115 2.85965625,1.5115 Z M2.85965625,0.775875 C2.75502734,0.775875 2.66999219,0.858291667 2.66999219,0.959791667 C2.66999219,1.06125 2.75498438,1.14370833 2.85965625,1.14370833 C2.96428516,1.14370833 3.04932031,1.06129167 3.04932031,0.959791667 C3.04932031,0.858291667 2.96428516,0.775875 2.85965625,0.775875 Z" id="Shape"></path>
                                    <path d="M0.583773437,1.5115 C0.270015625,1.5115 0.0148242187,1.264 0.0148242187,0.959791667 C0.0148242187,0.655541667 0.270058594,0.408083333 0.583773437,0.408083333 C0.89753125,0.408083333 1.15272266,0.655583333 1.15272266,0.959791667 C1.15276563,1.264 0.89753125,1.5115 0.583773437,1.5115 Z M0.583773437,0.775875 C0.479144531,0.775875 0.394109375,0.858291667 0.394109375,0.959791667 C0.394109375,1.06125 0.479101562,1.14370833 0.583773437,1.14370833 C0.688445313,1.14370833 0.7734375,1.06125 0.7734375,0.95975 C0.7734375,0.858291667 0.688445313,0.775875 0.583773437,0.775875 Z" id="Shape"></path>
                                </g>
                                <path d="M7.58621875,8.47125 L7.58621875,8.65516667 C7.58621875,8.75658333 7.50114062,8.83908333 7.39655469,8.83908333 C7.29196875,8.83908333 7.20689063,8.75658333 7.20689063,8.65516667 L7.20689063,8.47125 L7.58621875,8.47125 Z M7.96550391,8.10345833 L6.8275625,8.10345833 L6.8275625,8.65516667 C6.8275625,8.95941667 7.08279687,9.206875 7.39651172,9.206875 C7.71026953,9.206875 7.96546094,8.959375 7.96546094,8.65516667 L7.96546094,8.10345833 L7.96550391,8.10345833 Z" id="Shape" fill="#FAB446" fill-rule="nonzero"></path>
                                <path d="M7.39655469,7.36783333 C7.18708203,7.36783333 7.01722656,7.203125 7.01722656,7 L7.01722656,6.63216667 C7.01722656,6.42904167 7.18708203,6.26433333 7.39655469,6.26433333 C7.60602734,6.26433333 7.77588281,6.42904167 7.77588281,6.63216667 L7.77588281,7 C7.77588281,7.203125 7.60602734,7.36783333 7.39655469,7.36783333 Z" id="Shape" fill="#FFA0D2" fill-rule="nonzero"></path>
                                <ellipse id="Oval" fill="#5064AA" fill-rule="nonzero" cx="6.44832031" cy="7.73541667" rx="1" ry="1"></ellipse>
                                <rect id="Rectangle-path" fill="#FAB446" fill-rule="nonzero" x="6.25882813" y="3.68958333" width="1" height="1.10345833"></rect>
                                <path d="M5.31033594,5.52875 L4.93100781,5.16091667 L5.15319922,4.94545833 C5.49664844,4.61241667 5.96251562,4.42529167 6.44827734,4.42529167 C6.93403906,4.42529167 7.39986328,4.61241667 7.74335547,4.94545833 L7.96554687,5.16091667 L7.58621875,5.52875 L5.31033594,5.52875 Z" id="Shape" fill="#C8414B" fill-rule="nonzero"></path>
                                <g id="Group" transform="translate(5.457031, 4.958333)" fill="#FFD250" fill-rule="nonzero">
                                    <circle id="Oval" cx="1.051625" cy="0.2723" r="1"></circle>
                                    <circle id="Oval" cx="0.292796875" cy="0.2723" r="1"></circle>
                                    <circle id="Oval" cx="1.81002344" cy="0.2723" r="1"></circle>
                                </g>
                                <g id="Group" transform="translate(3.007812, 7.000000)" fill="#C8414B" fill-rule="nonzero">
                                    <rect id="Rectangle-path" x="0.026640625" y="0" width="1.89664063" height="1"></rect>
                                    <polygon id="Shape" points="0.0266835937 1.47125 1.16458203 1.10345833 1.16458203 0.735625 0.0266835937 1.10345833"></polygon>
                                </g>
                            </g>
                        </g>
                    </g>
                </g>
            </g>
        </g>
    </g>
</svg>