<?xml version="1.0" encoding="UTF-8"?>
<svg width="135px" height="21px" viewBox="0 0 135 21" version="1.1" xmlns="http://www.w3.org/2000/svg" xmlns:xlink="http://www.w3.org/1999/xlink">
    <!-- Generator: Sketch 48.2 (47327) - http://www.bohemiancoding.com/sketch -->
    <title>tripadvisor-nederland</title>
    <desc>Created with Sketch.</desc>
    <defs></defs>
    <g id="Hotel-page" stroke="none" stroke-width="1" fill="none" fill-rule="evenodd" transform="translate(-1127.000000, -4160.000000)">
        <g id="Review" transform="translate(150.000000, 4070.000000)">
            <g id="Rating" transform="translate(878.000000, 62.000000)">
                <g id="Hotel-rating" transform="translate(20.000000, 20.000000)">
                    <g id="Trip-advisor-rating" transform="translate(79.000000, 8.000000)">
                        <g id="tripadvisor-nederland">
                            <g>
                                <g id="Owl">
                                    <path d="M14.4728097,12.1 C15.5861027,15.2 19.1283988,16.8 22.265861,15.6 C25.4033233,14.5 27.0226586,11 25.8081571,7.9 C24.694864,4.8 21.152568,3.2 18.0151057,4.4 C14.978852,5.5 13.3595166,9 14.4728097,12.1 Z" id="Shape" fill="#FFFFFF" fill-rule="nonzero"></path>
                                    <ellipse id="Oval" fill="#FFFFFF" fill-rule="nonzero" cx="6.78096677" cy="10" rx="6.07250755" ry="6"></ellipse>
                                    <path d="M7.79305136,9.9 C7.79305136,10.5 7.28700906,11 6.67975831,11 C6.07250755,11 5.56646526,10.5 5.56646526,9.9 C5.56646526,9.3 6.07250755,8.8 6.67975831,8.8 C7.28700906,8.8 7.79305136,9.3 7.79305136,9.9 Z" id="Shape" fill="#5B6D7C" fill-rule="nonzero"></path>
                                    <path d="M21.2537764,9.9 C21.2537764,10.5 20.7477341,11 20.1404834,11 C19.5332326,11 19.0271903,10.5 19.0271903,9.9 C19.0271903,9.3 19.5332326,8.8 20.1404834,8.8 C20.7477341,8.8 21.2537764,9.3 21.2537764,9.9 Z" id="Shape" fill="#5B6D7C" fill-rule="nonzero"></path>
                                    <path d="M3.33987915,9.9 C3.33987915,11.7 4.85800604,13.2 6.67975831,13.2 C8.50151057,13.2 10.0196375,11.7 10.0196375,9.9 C10.0196375,8.1 8.50151057,6.6 6.67975831,6.6 C4.85800604,6.6 3.33987915,8.1 3.33987915,9.9 Z M4.45317221,9.9 C4.45317221,8.7 5.4652568,7.7 6.67975831,7.7 C7.89425982,7.7 8.90634441,8.7 8.90634441,9.9 C8.90634441,11.1 7.89425982,12.1 6.67975831,12.1 C5.4652568,12.1 4.45317221,11.1 4.45317221,9.9 Z M16.8006042,9.9 C16.8006042,11.7 18.3187311,13.2 20.1404834,13.2 C21.9622356,13.2 23.4803625,11.7 23.4803625,9.9 C23.4803625,8.1 21.9622356,6.6 20.1404834,6.6 C18.3187311,6.6 16.8006042,8.1 16.8006042,9.9 Z M18.0151057,9.9 C18.0151057,8.7 19.0271903,7.7 20.2416918,7.7 C21.4561934,7.7 22.4682779,8.7 22.4682779,9.9 C22.4682779,11.1 21.4561934,12.1 20.2416918,12.1 C18.9259819,12.1 18.0151057,11.1 18.0151057,9.9 Z" id="Shape" fill="#5B6D7C" fill-rule="nonzero"></path>
                                    <path d="M15.6873112,12.9 C16.1933535,13.7 17.0030211,14.4 17.9138973,14.8 C19.2296073,15.4 20.6465257,15.5 22.0634441,15 C24.897281,14 26.3141994,10.9 25.2009063,8.2 C24.1888218,5.4 21.0513595,4 18.3187311,5.1 C17.0030211,5.6 15.8897281,6.6 15.2824773,7.9 C14.8776435,8.8 14.776435,9.7 14.8776435,10.6" id="Shape"></path>
                                    <path d="M25.6057402,6 C25.9093656,4.7 26.9214502,3.3 26.9214502,3.3 L22.4682779,3.3 C19.9380665,1.7 16.9018127,0.8 13.4607251,0.8 C9.918429,0.8 6.78096677,1.7 4.25075529,3.3 L0,3.4 C0,3.4 1.01208459,4.7 1.31570997,6.1 C0.506042296,7.2 0,8.5 0,10 C0,13.7 3.03625378,16.7 6.78096677,16.7 C8.90634441,16.7 10.8293051,15.7 12.0438066,14.2 L13.4607251,16.3 L14.8776435,14.2 C15.4848943,15 16.3957704,15.7 17.3066465,16.1 C18.9259819,16.8 20.7477341,16.9 22.4682779,16.3 C25.9093656,15 27.7311178,11.2 26.4154079,7.7 C26.3141994,7.1 26.010574,6.5 25.6057402,6 Z M13.4607251,2.1 C15.8897281,2.1 18.1163142,2.5 20.0392749,3.4 C19.3308157,3.4 18.6223565,3.5 17.9138973,3.8 C16.1933535,4.4 14.8776435,5.6 14.1691843,7.3 C13.8655589,8 13.663142,8.8 13.5619335,9.6 C13.3595166,6.2 10.4244713,3.5 6.98338369,3.4 C8.80513595,2.5 11.0317221,2.1 13.4607251,2.1 Z M11.234139,13 C10.2220544,14.4 8.60271903,15.3 6.78096677,15.3 C3.84592145,15.3 1.41691843,12.9 1.41691843,10 C1.41691843,7.1 3.84592145,4.7 6.78096677,4.7 C9.71601208,4.7 12.1450151,7 12.1450151,10 C12.1450151,10.2 12.1450151,10.3 12.0438066,10.5 C11.9425982,11.4 11.7401813,12.2 11.234139,13 Z M22.0634441,15 C20.7477341,15.5 19.2296073,15.4 17.9138973,14.8 C17.0030211,14.4 16.1933535,13.7 15.6873112,12.9 C15.4848943,12.6 15.2824773,12.2 15.0800604,11.8 C14.8776435,11.4 14.8776435,10.9 14.776435,10.5 C14.6752266,9.6 14.776435,8.6 15.1812689,7.8 C15.7885196,6.5 16.9018127,5.5 18.2175227,5 C21.0513595,4 24.0876133,5.4 25.0996979,8.1 C26.3141994,10.9 24.7960725,14 22.0634441,15 Z" id="Shape" fill="#5B6D7C" fill-rule="nonzero"></path>
                                </g>
                                <g id="Netherlands" transform="translate(30.362538, 0.000000)" fill="#5B6D7C" fill-rule="nonzero">
                                    <path d="M66.3927492,2 C66.3927492,2.7 67,3.3 67.7084592,3.3 C68.4169184,3.3 69.0241692,2.7 69.0241692,2 C69.0241692,1.3 68.4169184,0.7 67.7084592,0.7 C67,0.7 66.3927492,1.3 66.3927492,2 Z" id="Shape"></path>
                                    <path d="M4.55438066,1.9 L2.53021148,2.6 L2.53021148,5.1 L0.303625378,5.1 L0.303625378,6.8 L2.42900302,6.8 L2.42900302,12.3 C2.42900302,14.9 3.33987915,16 5.56646526,16 C6.17371601,16 6.67975831,15.9 7.1858006,15.8 L7.28700906,15.8 L7.28700906,14 L7.1858006,14 C6.78096677,14.1 6.37613293,14.2 6.17371601,14.2 C5.16163142,14.2 4.75679758,13.6 4.75679758,12.1 L4.75679758,6.8 L7.28700906,6.8 L7.28700906,5.1 L4.75679758,5.1 L4.75679758,1.8 L4.55438066,1.9 Z M11.3353474,6.8 L11.3353474,5.1 L9.31117825,5.1 L9.31117825,15.8 L11.5377644,15.8 L11.5377644,10.4 C11.5377644,8.2 12.4486405,6.9 14.2703927,6.9 C14.4728097,6.9 14.776435,6.9 15.0800604,7 L15.1812689,7 L15.1812689,5 L14.2703927,4.9 C13.0558912,4.9 11.9425982,5.6 11.3353474,6.8 Z M27.0226586,4.8 C25.5045317,4.8 24.2900302,5.5 23.3791541,6.8 L23.3791541,5.1 L21.3549849,5.1 L21.3549849,20.1 L23.581571,20.1 L23.581571,14.3 C24.3912387,15.4 25.5045317,15.9 26.9214502,15.9 C29.6540785,15.9 31.4758308,13.7 31.4758308,10.2 C31.4758308,7 29.6540785,4.8 27.0226586,4.8 Z M26.4154079,14.2 C24.694864,14.2 23.581571,12.7 23.581571,10.4 C23.581571,8.1 24.694864,6.7 26.5166163,6.7 C28.2371601,6.7 29.2492447,8.1 29.2492447,10.4 C29.1480363,12.7 28.1359517,14.2 26.4154079,14.2 Z" id="Shape"></path>
                                    <path d="M37.8519637,4.8 C36.5362538,4.8 35.3217523,5 34.3096677,5.6 L34.2084592,5.6 L34.2084592,7.4 L34.4108761,7.4 C35.4229607,6.8 36.4350453,6.5 37.3459215,6.5 C38.9652568,6.5 39.8761329,7.4 39.8761329,9 L39.8761329,9.1 L38.6616314,9.1 C35.0181269,9.1 33.0951662,10.4 33.0951662,12.7 C33.0951662,14.6 34.5120846,15.9 36.5362538,15.9 C38.0543807,15.9 39.1676737,15.3 40.0785498,14.2 L40.0785498,15.7 L42.102719,15.7 L42.102719,9.3 C41.9003021,6.3 40.5845921,4.8 37.8519637,4.8 Z M39.7749245,11.3 C39.7749245,13.1 38.6616314,14.3 36.9410876,14.3 C35.929003,14.3 35.1193353,13.6 35.1193353,12.6 C35.1193353,11.3 36.3338369,10.6 38.6616314,10.6 L39.7749245,10.6 L39.7749245,11.3 Z M51.2114804,0 L51.2114804,6.5 C50.4018127,5.4 49.2885196,4.8 47.8716012,4.8 C45.2401813,4.8 43.418429,7 43.418429,10.2 C43.418429,13.5 45.2401813,15.9 47.8716012,15.9 C49.3897281,15.9 50.6042296,15.2 51.4138973,13.9 L51.4138973,15.7 L53.4380665,15.7 L53.4380665,0 L51.2114804,0 Z M48.3776435,14.1 C46.7583082,14.1 45.6450151,12.7 45.6450151,10.3 C45.6450151,8 46.6570997,6.5 48.276435,6.5 C50.0981873,6.5 51.2114804,7.9 51.2114804,10.3 C51.2114804,12.7 50.0981873,14.1 48.3776435,14.1 Z M63.1540785,5.1 L60.0166163,11.3 L57.1827795,5.1 L54.7537764,5.1 L60.0166163,15.8 L65.4818731,5.1 L63.1540785,5.1 Z M68.6193353,5.1 L66.5951662,5.1 L66.5951662,15.8 L68.8217523,15.8 L68.8217523,5.1 L68.6193353,5.1 Z M71.3519637,7.8 C71.3519637,9.3 72.3640483,10.1 74.2870091,11 C75.5015106,11.6 76.1087613,11.9 76.1087613,12.8 C76.1087613,13.7 75.2990937,14.2 74.0845921,14.2 C73.2749245,14.2 72.2628399,14 71.3519637,13.5 L71.1495468,13.4 L71.0483384,15.3 L71.1495468,15.3 C72.060423,15.7 72.9712991,15.8 73.9833837,15.8 C76.6148036,15.8 78.4365559,14.5 78.4365559,12.6 C78.4365559,11 77.3232628,10.1 75.4003021,9.3 C73.9833837,8.7 73.4773414,8.3 73.4773414,7.6 C73.4773414,7 74.0845921,6.5 75.0966767,6.5 C76.0075529,6.5 76.918429,6.7 77.7280967,7.1 L77.9305136,7.2 L78.0317221,5.4 L77.9305136,5.4 C77.0196375,5.1 76.1087613,5 75.2990937,5 C72.9712991,5 71.3519637,6.1 71.3519637,7.8 Z M85.3187311,4.8 C81.978852,4.8 79.9546828,6.9 79.9546828,10.4 C79.9546828,13.9 81.978852,16 85.3187311,16 C88.6586103,16 90.6827795,13.9 90.6827795,10.4 C90.6827795,6.9 88.6586103,4.8 85.3187311,4.8 Z M85.3187311,14.2 C83.4969789,14.2 82.2824773,12.7 82.2824773,10.4 C82.2824773,8.1 83.4969789,6.5 85.3187311,6.5 C87.1404834,6.5 88.3549849,8 88.3549849,10.4 C88.3549849,12.7 87.2416918,14.2 85.3187311,14.2 Z M94.7311178,6.8 L94.7311178,5.1 L92.7069486,5.1 L92.7069486,15.8 L94.9335347,15.8 L94.9335347,10.4 C94.9335347,8.2 95.8444109,6.9 97.6661631,6.9 C97.8685801,6.9 98.1722054,6.9 98.4758308,7 L98.5770393,7 L98.6782477,4.9 L97.7673716,4.8 C96.3504532,4.9 95.3383686,5.6 94.7311178,6.8 Z" id="Shape"></path>
                                    <path d="M19.1283988,5.1 L17.1042296,5.1 L17.1042296,15.8 L19.2296073,15.8 L19.2296073,5.1 L19.1283988,5.1 Z M16.8006042,2 C16.8006042,2.7 17.407855,3.3 18.1163142,3.3 C18.8247734,3.3 19.4320242,2.7 19.4320242,2 C19.4320242,1.3 18.8247734,0.7 18.1163142,0.7 C17.407855,0.7 16.8006042,1.3 16.8006042,2 Z" id="Shape"></path>
                                    <path d="M103.839879,4.6 C104.244713,5 104.345921,5.4 104.345921,6 C104.345921,6.5 104.143505,7 103.738671,7.4 C103.333837,7.8 102.827795,8 102.321752,8 C101.81571,8 101.309668,7.8 100.904834,7.4 C100.5,7 100.297583,6.6 100.297583,6.1 C100.297583,5.6 100.5,5.1 100.904834,4.7 C101.309668,4.3 101.714502,4.2 102.220544,4.2 C102.929003,4 103.435045,4.2 103.839879,4.6 Z M101.309668,4.8 C101.006042,5.1 100.803625,5.5 100.803625,5.9 C100.803625,6.3 101.006042,6.7 101.309668,7 C101.613293,7.3 102.018127,7.5 102.422961,7.5 C102.827795,7.5 103.232628,7.3 103.536254,7 C103.839879,6.7 104.042296,6.3 104.042296,5.9 C104.042296,5.5 103.839879,5.1 103.637462,4.8 C103.333837,4.5 102.929003,4.3 102.524169,4.3 C102.018127,4.4 101.613293,4.5 101.309668,4.8 Z M102.422961,4.9 C103.030211,4.9 103.333837,5.1 103.333837,5.5 C103.333837,5.8 103.13142,6 102.827795,6.1 L103.333837,7 L102.726586,7 L102.321752,6.2 L102.220544,6.2 L102.220544,7 L101.613293,7 L101.613293,4.9 L102.422961,4.9 Z M102.220544,5.8 L102.422961,5.8 C102.726586,5.8 102.827795,5.7 102.827795,5.5 C102.827795,5.3 102.726586,5.2 102.422961,5.2 L102.220544,5.2 L102.220544,5.8 Z" id="Shape"></path>
                                </g>
                            </g>
                        </g>
                    </g>
                </g>
            </g>
        </g>
    </g>
</svg>