<?xml version="1.0" encoding="UTF-8"?>
<svg width="22px" height="14px" viewBox="0 0 22 14" version="1.1" xmlns="http://www.w3.org/2000/svg" xmlns:xlink="http://www.w3.org/1999/xlink">
    <!-- Generator: Sketch 49.1 (51147) - http://www.bohemiancoding.com/sketch -->
    <title>uk</title>
    <desc>Created with Sketch.</desc>
    <defs></defs>
    <g id="Page-1" stroke="none" stroke-width="1" fill="none" fill-rule="evenodd">
        <g id="FAQ-" transform="translate(-169.000000, -1636.000000)">
            <g id="Call-us" transform="translate(149.000000, 1509.000000)">
                <g id="Group-21" transform="translate(20.000000, 20.000000)">
                    <g id="Group-11" transform="translate(0.000000, 107.000000)">
                        <g id="uk">
                            <g id="united-kingdom-(1)">
                                <path d="M20.3523633,0.0115 L1.64763672,0.0115 C0.737644531,0.0115 0,0.726791667 0,1.60920833 L0,12.3908333 C0,13.2732083 0.737644531,13.9885417 1.64763672,13.9885417 L20.3523633,13.9885417 C21.2623125,13.9885417 22,13.27325 22,12.3908333 L22,1.60920833 C22,0.726791667 21.2623555,0.0115 20.3523633,0.0115 Z" id="Shape" fill="#41479B" fill-rule="nonzero"></path>
                                <path d="M21.9771836,1.34508333 C21.847332,0.588458333 21.1695,0.0114583333 20.3523633,0.0114583333 L19.9236641,0.0114583333 L12.8965547,4.47591667 L12.8965547,0.0115 L9.10344531,0.0115 L9.10344531,4.47595833 L2.07633594,0.0115 L1.64763672,0.0115 C0.8305,0.0115 0.152667969,0.588458333 0.0228164062,1.345125 L6.02890234,5.16095833 L0,5.16095833 L0,8.839125 L6.02890234,8.839125 L0.0228164063,12.654875 C0.152667969,13.4115 0.8305,13.9885 1.64763672,13.9885 L2.07633594,13.9885 L9.10344531,9.52404167 L9.10344531,13.9885 L12.8965547,13.9885 L12.8965547,9.52404167 L19.9236641,13.9885 L20.3523633,13.9885 C21.1695,13.9885 21.847332,13.4115417 21.9771836,12.654875 L15.9710977,8.83904167 L22,8.83904167 L22,5.160875 L15.9710977,5.160875 L21.9771836,1.34508333 Z" id="Shape" fill="#F5F5F5" fill-rule="nonzero"></path>
                                <g id="Group" fill="#FF4B55" fill-rule="nonzero">
                                    <polygon id="Shape" points="12.1379414 0.0115 9.86205859 0.0115 9.86205859 5.89654167 0 5.89654167 0 8.10345833 9.86205859 8.10345833 9.86205859 13.9885 12.1379414 13.9885 12.1379414 8.10345833 22 8.10345833 22 5.89654167 12.1379414 5.89654167"></polygon>
                                    <path d="M1.06532422,13.8855 L9.0825625,8.83908333 L7.68917188,8.83908333 L0.39634375,13.4295833 C0.574792969,13.6315417 0.804117187,13.7897917 1.06532422,13.8855 Z" id="Shape"></path>
                                    <path d="M14.8838594,8.83908333 L13.4904687,8.83908333 L21.2556094,13.7267917 C21.4729023,13.5884167 21.6542305,13.4015 21.7835664,13.182 L14.8838594,8.83908333 Z" id="Shape"></path>
                                    <path d="M0.173980469,0.894791667 L6.95144141,5.16091667 L8.34483203,5.16091667 L0.664941406,0.32675 C0.458734375,0.475583333 0.289996094,0.670166667 0.173980469,0.894791667 Z" id="Shape"></path>
                                    <path d="M14.2899453,5.16091667 L21.5961367,0.561958333 C21.4157109,0.360666667 21.184582,0.203333333 20.9215703,0.109458333 L12.8965547,5.16091667 L14.2899453,5.16091667 Z" id="Shape"></path>
                                </g>
                            </g>
                        </g>
                    </g>
                </g>
            </g>
        </g>
    </g>
</svg>