<?xml version="1.0" encoding="UTF-8"?>
<svg width="22px" height="14px" viewBox="0 0 22 14" version="1.1" xmlns="http://www.w3.org/2000/svg" xmlns:xlink="http://www.w3.org/1999/xlink">
    <!-- Generator: Sketch 49.1 (51147) - http://www.bohemiancoding.com/sketch -->
    <title>us</title>
    <desc>Created with Sketch.</desc>
    <defs></defs>
    <g id="Page-1" stroke="none" stroke-width="1" fill="none" fill-rule="evenodd">
        <g id="FAQ-" transform="translate(-169.000000, -1607.000000)">
            <g id="Call-us" transform="translate(149.000000, 1509.000000)">
                <g id="Group-21" transform="translate(20.000000, 20.000000)">
                    <g id="Group-10" transform="translate(0.000000, 78.000000)">
                        <g id="us">
                            <g id="united-states">
                                <path d="M20.3523633,0.0115 L1.64763672,0.0115 C0.737644531,0.0115 0,0.726791667 0,1.60920833 L0,12.3908333 C0,13.2732083 0.737644531,13.9885417 1.64763672,13.9885417 L20.3523633,13.9885417 C21.2623125,13.9885417 22,13.27325 22,12.3908333 L22,1.60920833 C22,0.726791667 21.2623555,0.0115 20.3523633,0.0115 Z" id="Shape" fill="#F5F5F5" fill-rule="nonzero"></path>
                                <g id="Group" fill="#FF4B55" fill-rule="nonzero">
                                    <path d="M0.0906210937,1.08666667 L21.9093359,1.08666667 C21.6860703,0.460958333 21.0735078,0.0115 20.3523633,0.0115 L1.64763672,0.0115 C0.926449219,0.0115 0.313929687,0.460958333 0.0906210937,1.08666667 Z" id="Shape"></path>
                                    <rect id="Rectangle-path" x="0" y="4.31208333" width="22" height="1.075125"></rect>
                                    <rect id="Rectangle-path" x="0" y="2.16166667" width="22" height="1.075125"></rect>
                                    <path d="M0,7.16975 C0,7.372875 0.169855469,7.53758333 0.379328125,7.53758333 L22,7.53758333 L22,6.46241667 L0,6.46241667 L0,7.16975 Z" id="Shape"></path>
                                    <rect id="Rectangle-path" x="0" y="10.7633333" width="22" height="1.07516667"></rect>
                                    <path d="M21.9093789,12.9133333 L0.0906210937,12.9133333 C0.313929687,13.5390417 0.926492187,13.9885 1.64763672,13.9885 L20.3523633,13.9885 C21.0735508,13.9885 21.6860703,13.5390417 21.9093789,12.9133333 Z" id="Shape"></path>
                                    <rect id="Rectangle-path" x="0" y="8.61291667" width="22" height="1.075125"></rect>
                                </g>
                                <path d="M0.379328125,7.53758333 L9.86210156,7.53758333 C10.0715742,7.53758333 10.2414297,7.372875 10.2414297,7.16975 L10.2414297,0.379291667 C10.2414297,0.176125 10.0715742,0.0114583333 9.86210156,0.0114583333 L1.64763672,0.0114583333 C0.737644531,0.0115 0,0.726791667 0,1.60920833 L0,7.16975 C0,7.37291667 0.169855469,7.53758333 0.379328125,7.53758333 Z" id="Shape" fill="#41479B" fill-rule="nonzero"></path>
                                <g id="Group" transform="translate(0.601562, 0.791667)" fill="#F5F5F5" fill-rule="nonzero">
                                    <path d="M0.463589844,0.0640416667 L0.547550781,0.308208333 L0.81296875,0.310166667 C0.84734375,0.310458333 0.861566406,0.352958333 0.8339375,0.37275 L0.620425781,0.525625 L0.700519531,0.771 C0.710917969,0.80275 0.673578125,0.829083333 0.645605469,0.809666667 L0.4296875,0.660041667 L0.213769531,0.809708333 C0.185796875,0.829125 0.148542969,0.802791667 0.158855469,0.771041667 L0.238949219,0.525666667 L0.0254375,0.372791667 C-0.00219140625,0.352958333 0.01203125,0.310458333 0.04640625,0.310208333 L0.311824219,0.30825 L0.395785156,0.0640833333 C0.406613281,0.0324166667 0.452675781,0.0324166667 0.463589844,0.0640416667 Z" id="Shape"></path>
                                    <path d="M0.463589844,1.34129167 L0.547550781,1.58545833 L0.81296875,1.58741667 C0.84734375,1.58770833 0.861566406,1.63016667 0.8339375,1.65 L0.620425781,1.80291667 L0.700519531,2.04829167 C0.710917969,2.08004167 0.673578125,2.106375 0.645605469,2.08695833 L0.4296875,1.93733333 L0.213769531,2.087 C0.185796875,2.106375 0.148542969,2.08008333 0.158855469,2.04833333 L0.238949219,1.80295833 L0.0254375,1.65004167 C-0.00219140625,1.63020833 0.01203125,1.58775 0.04640625,1.58745833 L0.311824219,1.5855 L0.395785156,1.34133333 C0.406613281,1.30970833 0.452675781,1.30970833 0.463589844,1.34129167 Z" id="Shape"></path>
                                    <path d="M0.463589844,2.61858333 L0.547550781,2.86275 L0.81296875,2.86470833 C0.84734375,2.865 0.861566406,2.90745833 0.8339375,2.92729167 L0.620425781,3.08020833 L0.700519531,3.32558333 C0.710917969,3.35733333 0.673578125,3.38366667 0.645605469,3.36425 L0.4296875,3.214625 L0.213769531,3.36429167 C0.185796875,3.38366667 0.148542969,3.35741667 0.158855469,3.325625 L0.238949219,3.08025 L0.0254375,2.92733333 C-0.00219140625,2.9075 0.01203125,2.86504167 0.04640625,2.86475 L0.311824219,2.86279167 L0.395785156,2.618625 C0.406613281,2.58695833 0.452675781,2.58695833 0.463589844,2.61858333 Z" id="Shape"></path>
                                    <path d="M0.463589844,3.89583333 L0.547550781,4.14 L0.81296875,4.14195833 C0.84734375,4.14225 0.861566406,4.18475 0.8339375,4.20454167 L0.620425781,4.35745833 L0.700519531,4.60283333 C0.710917969,4.63458333 0.673578125,4.66091667 0.645605469,4.6415 L0.4296875,4.491875 L0.213769531,4.64154167 C0.185796875,4.66091667 0.148542969,4.634625 0.158855469,4.602875 L0.238949219,4.3575 L0.0254375,4.20458333 C-0.00219140625,4.18483333 0.01203125,4.14229167 0.04640625,4.142 L0.311824219,4.14004167 L0.395785156,3.895875 C0.406613281,3.86420833 0.452675781,3.86420833 0.463589844,3.89583333 Z" id="Shape"></path>
                                    <path d="M0.463589844,5.17308333 L0.547550781,5.41725 L0.81296875,5.41920833 C0.84734375,5.4195 0.861566406,5.46195833 0.8339375,5.48179167 L0.620425781,5.63470833 L0.700519531,5.88008333 C0.710917969,5.91183333 0.673578125,5.93816667 0.645605469,5.91875 L0.4296875,5.769125 L0.213769531,5.91879167 C0.185796875,5.93816667 0.148542969,5.911875 0.158855469,5.880125 L0.238949219,5.63475 L0.0254375,5.48183333 C-0.00219140625,5.462 0.01203125,5.41954167 0.04640625,5.41925 L0.311824219,5.41729167 L0.395785156,5.173125 C0.406613281,5.1415 0.452675781,5.1415 0.463589844,5.17308333 Z" id="Shape"></path>
                                    <path d="M1.48594531,0.69025 L1.56990625,0.934416667 L1.83532422,0.936375 C1.86969922,0.936666667 1.88392187,0.979166667 1.85629297,0.998958333 L1.64278125,1.151875 L1.722875,1.39725 C1.73327344,1.429 1.69593359,1.45533333 1.66796094,1.43591667 L1.45204297,1.28625 L1.236125,1.43591667 C1.20815234,1.45529167 1.17089844,1.429 1.18121094,1.39725 L1.26130469,1.151875 L1.04779297,0.998958333 C1.02016406,0.979125 1.03438672,0.936666667 1.06876172,0.936375 L1.33417969,0.934416667 L1.41814062,0.69025 C1.42896875,0.658666667 1.47507422,0.658666667 1.48594531,0.69025 Z" id="Shape"></path>
                                    <path d="M1.48594531,1.96754167 L1.56990625,2.21170833 L1.83532422,2.21366667 C1.86969922,2.21395833 1.88392187,2.25645833 1.85629297,2.27625 L1.64278125,2.42916667 L1.722875,2.67454167 C1.73327344,2.70629167 1.69593359,2.732625 1.66796094,2.71320833 L1.45204297,2.56354167 L1.236125,2.71320833 C1.20815234,2.73258333 1.17089844,2.70633333 1.18121094,2.67454167 L1.26130469,2.42916667 L1.04779297,2.27625 C1.02016406,2.2565 1.03438672,2.21395833 1.06876172,2.21366667 L1.33417969,2.21170833 L1.41814062,1.96754167 C1.42896875,1.93591667 1.47507422,1.93591667 1.48594531,1.96754167 Z" id="Shape"></path>
                                    <path d="M1.48594531,3.24479167 L1.56990625,3.48895833 L1.83532422,3.49091667 C1.86969922,3.49120833 1.88392187,3.53366667 1.85629297,3.5535 L1.64278125,3.70641667 L1.722875,3.95179167 C1.73327344,3.98354167 1.69593359,4.009875 1.66796094,3.99045833 L1.45204297,3.84079167 L1.236125,3.99045833 C1.20815234,4.00983333 1.17089844,3.98354167 1.18121094,3.95179167 L1.26130469,3.70641667 L1.04779297,3.5535 C1.02016406,3.53366667 1.03438672,3.49120833 1.06876172,3.49091667 L1.33417969,3.48895833 L1.41814062,3.24479167 C1.42896875,3.21316667 1.47507422,3.21316667 1.48594531,3.24479167 Z" id="Shape"></path>
                                    <path d="M1.48594531,4.52204167 L1.56990625,4.76620833 L1.83532422,4.76816667 C1.86969922,4.76845833 1.88392187,4.81091667 1.85629297,4.83075 L1.64278125,4.98366667 L1.722875,5.22904167 C1.73327344,5.26079167 1.69593359,5.287125 1.66796094,5.26770833 L1.45204297,5.11804167 L1.236125,5.26770833 C1.20815234,5.287125 1.17089844,5.26079167 1.18121094,5.22904167 L1.26130469,4.98366667 L1.04779297,4.83075 C1.02016406,4.81091667 1.03438672,4.76845833 1.06876172,4.76816667 L1.33417969,4.76620833 L1.41814062,4.52204167 C1.42896875,4.49045833 1.47507422,4.49045833 1.48594531,4.52204167 Z" id="Shape"></path>
                                    <path d="M2.50830078,0.0640416667 L2.59226172,0.308208333 L2.85767969,0.310166667 C2.89205469,0.310458333 2.90627734,0.352958333 2.87864844,0.37275 L2.66513672,0.525625 L2.74523047,0.771 C2.75562891,0.80275 2.71828906,0.829083333 2.69031641,0.809666667 L2.47439844,0.66 L2.25848047,0.809666667 C2.23050781,0.829083333 2.19325391,0.80275 2.20356641,0.771 L2.28366016,0.525625 L2.07014844,0.37275 C2.04251953,0.352916667 2.05674219,0.310416667 2.09111719,0.310166667 L2.35653516,0.308208333 L2.44049609,0.0640416667 C2.45132422,0.0324166667 2.49742969,0.0324166667 2.50830078,0.0640416667 Z" id="Shape"></path>
                                    <path d="M2.50830078,1.34129167 L2.59226172,1.58545833 L2.85767969,1.58741667 C2.89205469,1.58770833 2.90627734,1.63016667 2.87864844,1.65 L2.66513672,1.80291667 L2.74523047,2.04829167 C2.75562891,2.08004167 2.71828906,2.106375 2.69031641,2.08695833 L2.47439844,1.93729167 L2.25848047,2.08695833 C2.23050781,2.10633333 2.19325391,2.08004167 2.20356641,2.04829167 L2.28366016,1.80291667 L2.07014844,1.65 C2.04251953,1.63016667 2.05674219,1.58770833 2.09111719,1.58741667 L2.35653516,1.58545833 L2.44049609,1.34129167 C2.45132422,1.30970833 2.49742969,1.30970833 2.50830078,1.34129167 Z" id="Shape"></path>
                                    <path d="M2.50830078,2.61858333 L2.59226172,2.86275 L2.85767969,2.86470833 C2.89205469,2.865 2.90627734,2.90745833 2.87864844,2.92729167 L2.66513672,3.08020833 L2.74523047,3.32558333 C2.75562891,3.35733333 2.71828906,3.38366667 2.69031641,3.36425 L2.47439844,3.21458333 L2.25848047,3.36425 C2.23050781,3.383625 2.19325391,3.357375 2.20356641,3.32558333 L2.28366016,3.08020833 L2.07014844,2.92729167 C2.04251953,2.90745833 2.05674219,2.865 2.09111719,2.86470833 L2.35653516,2.86275 L2.44049609,2.61858333 C2.45132422,2.58695833 2.49742969,2.58695833 2.50830078,2.61858333 Z" id="Shape"></path>
                                    <path d="M2.50830078,3.89583333 L2.59226172,4.14 L2.85767969,4.14195833 C2.89205469,4.14225 2.90627734,4.18475 2.87864844,4.20454167 L2.66513672,4.35745833 L2.74523047,4.60283333 C2.75562891,4.63458333 2.71828906,4.66091667 2.69031641,4.6415 L2.47439844,4.49183333 L2.25848047,4.6415 C2.23050781,4.660875 2.19325391,4.63458333 2.20356641,4.60283333 L2.28366016,4.35745833 L2.07014844,4.20454167 C2.04251953,4.18479167 2.05674219,4.14225 2.09111719,4.14195833 L2.35653516,4.14 L2.44049609,3.89583333 C2.45132422,3.86420833 2.49742969,3.86420833 2.50830078,3.89583333 Z" id="Shape"></path>
                                    <path d="M2.50830078,5.17308333 L2.59226172,5.41725 L2.85767969,5.41920833 C2.89205469,5.4195 2.90627734,5.46195833 2.87864844,5.48179167 L2.66513672,5.63470833 L2.74523047,5.88008333 C2.75562891,5.91183333 2.71828906,5.93816667 2.69031641,5.91875 L2.47439844,5.76908333 L2.25848047,5.91875 C2.23050781,5.938125 2.19325391,5.91183333 2.20356641,5.88008333 L2.28366016,5.63470833 L2.07014844,5.48179167 C2.04251953,5.46195833 2.05674219,5.4195 2.09111719,5.41920833 L2.35653516,5.41725 L2.44049609,5.17308333 C2.45132422,5.1415 2.49742969,5.1415 2.50830078,5.17308333 Z" id="Shape"></path>
                                    <path d="M3.53069922,0.69025 L3.61466016,0.934416667 L3.88007812,0.936375 C3.91445312,0.936666667 3.92867578,0.979166667 3.90104687,0.998958333 L3.68753516,1.151875 L3.76762891,1.39725 C3.77802734,1.429 3.7406875,1.45533333 3.71271484,1.43591667 L3.49679687,1.28625 L3.28087891,1.43591667 C3.25290625,1.45529167 3.21565234,1.429 3.22596484,1.39725 L3.30605859,1.151875 L3.09254687,0.998958333 C3.06491797,0.979125 3.07914062,0.936666667 3.11351562,0.936375 L3.37893359,0.934416667 L3.46289453,0.69025 C3.47367969,0.658666667 3.51982812,0.658666667 3.53069922,0.69025 Z" id="Shape"></path>
                                    <path d="M3.53069922,1.96754167 L3.61466016,2.21170833 L3.88007812,2.21366667 C3.91445312,2.21395833 3.92867578,2.25645833 3.90104687,2.27625 L3.68753516,2.42916667 L3.76762891,2.67454167 C3.77802734,2.70629167 3.7406875,2.732625 3.71271484,2.71320833 L3.49679687,2.56354167 L3.28087891,2.71320833 C3.25290625,2.73258333 3.21565234,2.70633333 3.22596484,2.67454167 L3.30605859,2.42916667 L3.09254687,2.27625 C3.06491797,2.2565 3.07914062,2.21395833 3.11351562,2.21366667 L3.37893359,2.21170833 L3.46289453,1.96754167 C3.47367969,1.93591667 3.51982812,1.93591667 3.53069922,1.96754167 Z" id="Shape"></path>
                                    <path d="M3.53069922,3.24479167 L3.61466016,3.48895833 L3.88007812,3.49091667 C3.91445312,3.49120833 3.92867578,3.53366667 3.90104687,3.5535 L3.68753516,3.70641667 L3.76762891,3.95179167 C3.77802734,3.98354167 3.7406875,4.009875 3.71271484,3.99045833 L3.49679687,3.84079167 L3.28087891,3.99045833 C3.25290625,4.00983333 3.21565234,3.98354167 3.22596484,3.95179167 L3.30605859,3.70641667 L3.09254687,3.5535 C3.06491797,3.53366667 3.07914062,3.49120833 3.11351562,3.49091667 L3.37893359,3.48895833 L3.46289453,3.24479167 C3.47367969,3.21316667 3.51982812,3.21316667 3.53069922,3.24479167 Z" id="Shape"></path>
                                    <path d="M3.53069922,4.52204167 L3.61466016,4.76620833 L3.88007812,4.76816667 C3.91445312,4.76845833 3.92867578,4.81091667 3.90104687,4.83075 L3.68753516,4.98366667 L3.76762891,5.22904167 C3.77802734,5.26079167 3.7406875,5.287125 3.71271484,5.26770833 L3.49679687,5.11804167 L3.28087891,5.26770833 C3.25290625,5.287125 3.21565234,5.26079167 3.22596484,5.22904167 L3.30605859,4.98366667 L3.09254687,4.83075 C3.06491797,4.81091667 3.07914062,4.76845833 3.11351562,4.76816667 L3.37893359,4.76620833 L3.46289453,4.52204167 C3.47367969,4.49045833 3.51982812,4.49045833 3.53069922,4.52204167 Z" id="Shape"></path>
                                    <path d="M4.55305469,0.0640416667 L4.63701562,0.308208333 L4.90243359,0.310166667 C4.93680859,0.310458333 4.95103125,0.352958333 4.92340234,0.37275 L4.70989062,0.525625 L4.78998437,0.771 C4.80038281,0.80275 4.76304297,0.829083333 4.73507031,0.809666667 L4.51910937,0.660041667 L4.30319141,0.809708333 C4.27521875,0.829125 4.23796484,0.802791667 4.24827734,0.771041667 L4.32837109,0.525666667 L4.11485937,0.372791667 C4.08723047,0.352958333 4.10145312,0.310458333 4.13582812,0.310208333 L4.40124609,0.30825 L4.48520703,0.0640833333 C4.49607812,0.0324166667 4.54218359,0.0324166667 4.55305469,0.0640416667 Z" id="Shape"></path>
                                    <path d="M4.55305469,1.34129167 L4.63701562,1.58545833 L4.90243359,1.58741667 C4.93680859,1.58770833 4.95103125,1.63016667 4.92340234,1.65 L4.70989062,1.80291667 L4.78998437,2.04829167 C4.80038281,2.08004167 4.76304297,2.106375 4.73507031,2.08695833 L4.51910937,1.93729167 L4.30319141,2.08695833 C4.27521875,2.10633333 4.23796484,2.08004167 4.24827734,2.04829167 L4.32837109,1.80291667 L4.11485937,1.65 C4.08723047,1.63016667 4.10145312,1.58770833 4.13582812,1.58741667 L4.40124609,1.58545833 L4.48520703,1.34129167 C4.49607812,1.30970833 4.54218359,1.30970833 4.55305469,1.34129167 Z" id="Shape"></path>
                                    <path d="M4.55305469,2.61858333 L4.63701562,2.86275 L4.90243359,2.86470833 C4.93680859,2.865 4.95103125,2.90745833 4.92340234,2.92729167 L4.70989062,3.08020833 L4.78998437,3.32558333 C4.80038281,3.35733333 4.76304297,3.38366667 4.73507031,3.36425 L4.51910937,3.21454167 L4.30319141,3.36420833 C4.27521875,3.38358333 4.23796484,3.35729167 4.24827734,3.32554167 L4.32837109,3.08016667 L4.11485937,2.92725 C4.08723047,2.90741667 4.10145312,2.86495833 4.13582812,2.86466667 L4.40124609,2.86270833 L4.48520703,2.61854167 C4.49607812,2.58695833 4.54218359,2.58695833 4.55305469,2.61858333 Z" id="Shape"></path>
                                    <path d="M4.55305469,3.89583333 L4.63701562,4.14 L4.90243359,4.14195833 C4.93680859,4.14225 4.95103125,4.18475 4.92340234,4.20454167 L4.70989062,4.35745833 L4.78998437,4.60283333 C4.80038281,4.63458333 4.76304297,4.66091667 4.73507031,4.6415 L4.51910937,4.49183333 L4.30319141,4.6415 C4.27521875,4.660875 4.23796484,4.63458333 4.24827734,4.60283333 L4.32837109,4.35745833 L4.11485937,4.20454167 C4.08723047,4.18479167 4.10145312,4.14225 4.13582812,4.14195833 L4.40124609,4.14 L4.48520703,3.89583333 C4.49607812,3.86420833 4.54218359,3.86420833 4.55305469,3.89583333 Z" id="Shape"></path>
                                    <path d="M4.55305469,5.17308333 L4.63701562,5.41725 L4.90243359,5.41920833 C4.93680859,5.4195 4.95103125,5.46195833 4.92340234,5.48179167 L4.70989062,5.63470833 L4.78998437,5.88008333 C4.80038281,5.91183333 4.76304297,5.93816667 4.73507031,5.91875 L4.51910937,5.76908333 L4.30319141,5.91875 C4.27521875,5.938125 4.23796484,5.91183333 4.24827734,5.88008333 L4.32837109,5.63470833 L4.11485937,5.48179167 C4.08723047,5.46195833 4.10145312,5.4195 4.13582812,5.41920833 L4.40124609,5.41725 L4.48520703,5.17308333 C4.49607812,5.1415 4.54218359,5.1415 4.55305469,5.17308333 Z" id="Shape"></path>
                                    <path d="M5.57541016,0.69025 L5.65937109,0.934416667 L5.92478906,0.936375 C5.95916406,0.936666667 5.97338672,0.979166667 5.94575781,0.998958333 L5.73224609,1.151875 L5.81233984,1.39725 C5.82273828,1.429 5.78539844,1.45533333 5.75742578,1.43591667 L5.54150781,1.28625 L5.32558984,1.43591667 C5.29761719,1.45529167 5.26036328,1.429 5.27067578,1.39725 L5.35076953,1.151875 L5.13725781,0.998958333 C5.10962891,0.979125 5.12385156,0.936666667 5.15822656,0.936375 L5.42364453,0.934416667 L5.50760547,0.69025 C5.51847656,0.658666667 5.56453906,0.658666667 5.57541016,0.69025 Z" id="Shape"></path>
                                    <path d="M5.57541016,1.96754167 L5.65937109,2.21170833 L5.92478906,2.21366667 C5.95916406,2.21395833 5.97338672,2.25645833 5.94575781,2.27625 L5.73224609,2.42916667 L5.81233984,2.67454167 C5.82273828,2.70629167 5.78539844,2.732625 5.75742578,2.71320833 L5.54150781,2.56354167 L5.32558984,2.71320833 C5.29761719,2.73258333 5.26036328,2.70633333 5.27067578,2.67454167 L5.35076953,2.42916667 L5.13725781,2.27625 C5.10962891,2.2565 5.12385156,2.21395833 5.15822656,2.21366667 L5.42364453,2.21170833 L5.50760547,1.96754167 C5.51847656,1.93591667 5.56453906,1.93591667 5.57541016,1.96754167 Z" id="Shape"></path>
                                    <path d="M5.57541016,3.24479167 L5.65937109,3.48895833 L5.92478906,3.49091667 C5.95916406,3.49120833 5.97338672,3.53366667 5.94575781,3.5535 L5.73224609,3.70641667 L5.81233984,3.95179167 C5.82273828,3.98354167 5.78539844,4.009875 5.75742578,3.99045833 L5.54150781,3.84079167 L5.32558984,3.99045833 C5.29761719,4.00983333 5.26036328,3.98354167 5.27067578,3.95179167 L5.35076953,3.70641667 L5.13725781,3.5535 C5.10962891,3.53366667 5.12385156,3.49120833 5.15822656,3.49091667 L5.42364453,3.48895833 L5.50760547,3.24479167 C5.51847656,3.21316667 5.56453906,3.21316667 5.57541016,3.24479167 Z" id="Shape"></path>
                                    <path d="M5.57541016,4.52204167 L5.65937109,4.76620833 L5.92478906,4.76816667 C5.95916406,4.76845833 5.97338672,4.81091667 5.94575781,4.83075 L5.73224609,4.98366667 L5.81233984,5.22904167 C5.82273828,5.26079167 5.78539844,5.287125 5.75742578,5.26770833 L5.54150781,5.11804167 L5.32558984,5.26770833 C5.29761719,5.287125 5.26036328,5.26079167 5.27067578,5.22904167 L5.35076953,4.98366667 L5.13725781,4.83075 C5.10962891,4.81091667 5.12385156,4.76845833 5.15822656,4.76816667 L5.42364453,4.76620833 L5.50760547,4.52204167 C5.51847656,4.49045833 5.56453906,4.49045833 5.57541016,4.52204167 Z" id="Shape"></path>
                                    <path d="M6.59780859,0.0640416667 L6.68176953,0.308208333 L6.9471875,0.310166667 C6.9815625,0.310458333 6.99578516,0.352958333 6.96815625,0.37275 L6.75464453,0.525625 L6.83473828,0.771 C6.84513672,0.80275 6.80779688,0.829083333 6.77982422,0.809666667 L6.56390625,0.66 L6.34798828,0.809666667 C6.32001563,0.829083333 6.28276172,0.80275 6.29307422,0.771 L6.37316797,0.525625 L6.15965625,0.37275 C6.13202734,0.352916667 6.14625,0.310416667 6.180625,0.310166667 L6.44604297,0.308208333 L6.53000391,0.0640416667 C6.54078906,0.0324166667 6.5869375,0.0324166667 6.59780859,0.0640416667 Z" id="Shape"></path>
                                    <path d="M6.59780859,1.34129167 L6.68176953,1.58545833 L6.9471875,1.58741667 C6.9815625,1.58770833 6.99578516,1.63016667 6.96815625,1.65 L6.75464453,1.80291667 L6.83473828,2.04829167 C6.84513672,2.08004167 6.80779688,2.106375 6.77982422,2.08695833 L6.56390625,1.93729167 L6.34798828,2.08695833 C6.32001563,2.10633333 6.28276172,2.08004167 6.29307422,2.04829167 L6.37316797,1.80291667 L6.15965625,1.65 C6.13202734,1.63016667 6.14625,1.58770833 6.180625,1.58741667 L6.44604297,1.58545833 L6.53000391,1.34129167 C6.54078906,1.30970833 6.5869375,1.30970833 6.59780859,1.34129167 Z" id="Shape"></path>
                                    <path d="M6.59780859,2.61858333 L6.68176953,2.86275 L6.9471875,2.86470833 C6.9815625,2.865 6.99578516,2.90745833 6.96815625,2.92729167 L6.75464453,3.08020833 L6.83473828,3.32558333 C6.84513672,3.35733333 6.80779688,3.38366667 6.77982422,3.36425 L6.56390625,3.21458333 L6.34798828,3.36425 C6.32001563,3.383625 6.28276172,3.357375 6.29307422,3.32558333 L6.37316797,3.08020833 L6.15965625,2.92729167 C6.13202734,2.90745833 6.14625,2.865 6.180625,2.86470833 L6.44604297,2.86275 L6.53000391,2.61858333 C6.54078906,2.58695833 6.5869375,2.58695833 6.59780859,2.61858333 Z" id="Shape"></path>
                                    <path d="M6.59780859,3.89583333 L6.68176953,4.14 L6.9471875,4.14195833 C6.9815625,4.14225 6.99578516,4.18475 6.96815625,4.20454167 L6.75464453,4.35745833 L6.83473828,4.60283333 C6.84513672,4.63458333 6.80779688,4.66091667 6.77982422,4.6415 L6.56390625,4.49183333 L6.34798828,4.6415 C6.32001563,4.660875 6.28276172,4.63458333 6.29307422,4.60283333 L6.37316797,4.35745833 L6.15965625,4.20454167 C6.13202734,4.18479167 6.14625,4.14225 6.180625,4.14195833 L6.44604297,4.14 L6.53000391,3.89583333 C6.54078906,3.86420833 6.5869375,3.86420833 6.59780859,3.89583333 Z" id="Shape"></path>
                                    <path d="M6.59780859,5.17308333 L6.68176953,5.41725 L6.9471875,5.41920833 C6.9815625,5.4195 6.99578516,5.46195833 6.96815625,5.48179167 L6.75464453,5.63470833 L6.83473828,5.88008333 C6.84513672,5.91183333 6.80779688,5.93816667 6.77982422,5.91875 L6.56390625,5.76908333 L6.34798828,5.91875 C6.32001563,5.938125 6.28276172,5.91183333 6.29307422,5.88008333 L6.37316797,5.63470833 L6.15965625,5.48179167 C6.13202734,5.46195833 6.14625,5.4195 6.180625,5.41920833 L6.44604297,5.41725 L6.53000391,5.17308333 C6.54078906,5.1415 6.5869375,5.1415 6.59780859,5.17308333 Z" id="Shape"></path>
                                    <path d="M7.62016406,0.69025 L7.704125,0.934416667 L7.96954297,0.936375 C8.00391797,0.936666667 8.01814063,0.979166667 7.99051172,0.998958333 L7.777,1.151875 L7.85709375,1.39725 C7.86749219,1.429 7.83015234,1.45533333 7.80217969,1.43591667 L7.58626172,1.28625 L7.37034375,1.43591667 C7.34237109,1.45529167 7.30511719,1.429 7.31542969,1.39725 L7.39552344,1.151875 L7.18201172,0.998958333 C7.15438281,0.979125 7.16860547,0.936666667 7.20298047,0.936375 L7.46839844,0.934416667 L7.55235938,0.69025 C7.5631875,0.658666667 7.60929297,0.658666667 7.62016406,0.69025 Z" id="Shape"></path>
                                    <path d="M7.62016406,1.96754167 L7.704125,2.21170833 L7.96954297,2.21366667 C8.00391797,2.21395833 8.01814063,2.25645833 7.99051172,2.27625 L7.777,2.42916667 L7.85709375,2.67454167 C7.86749219,2.70629167 7.83015234,2.732625 7.80217969,2.71320833 L7.58626172,2.56354167 L7.37034375,2.71320833 C7.34237109,2.73258333 7.30511719,2.70633333 7.31542969,2.67454167 L7.39552344,2.42916667 L7.18201172,2.27625 C7.15438281,2.2565 7.16860547,2.21395833 7.20298047,2.21366667 L7.46839844,2.21170833 L7.55235938,1.96754167 C7.5631875,1.93591667 7.60929297,1.93591667 7.62016406,1.96754167 Z" id="Shape"></path>
                                    <path d="M7.62016406,3.24479167 L7.704125,3.48895833 L7.96954297,3.49091667 C8.00391797,3.49120833 8.01814063,3.53366667 7.99051172,3.5535 L7.777,3.70641667 L7.85709375,3.95179167 C7.86749219,3.98354167 7.83015234,4.009875 7.80217969,3.99045833 L7.58626172,3.84079167 L7.37034375,3.99045833 C7.34237109,4.00983333 7.30511719,3.98354167 7.31542969,3.95179167 L7.39552344,3.70641667 L7.18201172,3.5535 C7.15438281,3.53366667 7.16860547,3.49120833 7.20298047,3.49091667 L7.46839844,3.48895833 L7.55235938,3.24479167 C7.5631875,3.21316667 7.60929297,3.21316667 7.62016406,3.24479167 Z" id="Shape"></path>
                                    <path d="M7.62016406,4.52204167 L7.704125,4.76620833 L7.96954297,4.76816667 C8.00391797,4.76845833 8.01814063,4.81091667 7.99051172,4.83075 L7.777,4.98366667 L7.85709375,5.22904167 C7.86749219,5.26079167 7.83015234,5.287125 7.80217969,5.26770833 L7.58626172,5.11804167 L7.37034375,5.26770833 C7.34237109,5.287125 7.30511719,5.26079167 7.31542969,5.22904167 L7.39552344,4.98366667 L7.18201172,4.83075 C7.15438281,4.81091667 7.16860547,4.76845833 7.20298047,4.76816667 L7.46839844,4.76620833 L7.55235938,4.52204167 C7.5631875,4.49045833 7.60929297,4.49045833 7.62016406,4.52204167 Z" id="Shape"></path>
                                    <path d="M8.6425625,0.0640416667 L8.72652344,0.308208333 L8.99194141,0.310166667 C9.02631641,0.310458333 9.04053906,0.352958333 9.01291016,0.37275 L8.79939844,0.525625 L8.87949219,0.771 C8.88989063,0.80275 8.85255078,0.829083333 8.82457813,0.809666667 L8.60866016,0.66 L8.39274219,0.809666667 C8.36476953,0.829083333 8.32751563,0.80275 8.33782813,0.771 L8.41792188,0.525625 L8.20441016,0.37275 C8.17678125,0.352916667 8.19100391,0.310416667 8.22537891,0.310166667 L8.49079688,0.308208333 L8.57475781,0.0640416667 C8.58558594,0.0324166667 8.63164844,0.0324166667 8.6425625,0.0640416667 Z" id="Shape"></path>
                                    <path d="M8.6425625,1.34129167 L8.72652344,1.58545833 L8.99194141,1.58741667 C9.02631641,1.58770833 9.04053906,1.63016667 9.01291016,1.65 L8.79939844,1.80291667 L8.87949219,2.04829167 C8.88989063,2.08004167 8.85255078,2.106375 8.82457813,2.08695833 L8.60866016,1.93729167 L8.39274219,2.08695833 C8.36476953,2.10633333 8.32751563,2.08004167 8.33782813,2.04829167 L8.41792188,1.80291667 L8.20441016,1.65 C8.17678125,1.63016667 8.19100391,1.58770833 8.22537891,1.58741667 L8.49079688,1.58545833 L8.57475781,1.34129167 C8.58558594,1.30970833 8.63164844,1.30970833 8.6425625,1.34129167 Z" id="Shape"></path>
                                    <path d="M8.6425625,2.61858333 L8.72652344,2.86275 L8.99194141,2.86470833 C9.02631641,2.865 9.04053906,2.90745833 9.01291016,2.92729167 L8.79939844,3.08020833 L8.87949219,3.32558333 C8.88989063,3.35733333 8.85255078,3.38366667 8.82457813,3.36425 L8.60866016,3.21458333 L8.39274219,3.36425 C8.36476953,3.383625 8.32751563,3.357375 8.33782813,3.32558333 L8.41792188,3.08020833 L8.20441016,2.92729167 C8.17678125,2.90745833 8.19100391,2.865 8.22537891,2.86470833 L8.49079688,2.86275 L8.57475781,2.61858333 C8.58558594,2.58695833 8.63164844,2.58695833 8.6425625,2.61858333 Z" id="Shape"></path>
                                    <path d="M8.6425625,3.89583333 L8.72652344,4.14 L8.99194141,4.14195833 C9.02631641,4.14225 9.04053906,4.18475 9.01291016,4.20454167 L8.79939844,4.35745833 L8.87949219,4.60283333 C8.88989063,4.63458333 8.85255078,4.66091667 8.82457813,4.6415 L8.60866016,4.49183333 L8.39274219,4.6415 C8.36476953,4.660875 8.32751563,4.63458333 8.33782813,4.60283333 L8.41792188,4.35745833 L8.20441016,4.20454167 C8.17678125,4.18479167 8.19100391,4.14225 8.22537891,4.14195833 L8.49079688,4.14 L8.57475781,3.89583333 C8.58558594,3.86420833 8.63164844,3.86420833 8.6425625,3.89583333 Z" id="Shape"></path>
                                    <path d="M8.6425625,5.17308333 L8.72652344,5.41725 L8.99194141,5.41920833 C9.02631641,5.4195 9.04053906,5.46195833 9.01291016,5.48179167 L8.79939844,5.63470833 L8.87949219,5.88008333 C8.88989063,5.91183333 8.85255078,5.93816667 8.82457813,5.91875 L8.60866016,5.76908333 L8.39274219,5.91875 C8.36476953,5.938125 8.32751563,5.91183333 8.33782813,5.88008333 L8.41792188,5.63470833 L8.20441016,5.48179167 C8.17678125,5.46195833 8.19100391,5.4195 8.22537891,5.41920833 L8.49079688,5.41725 L8.57475781,5.17308333 C8.58558594,5.1415 8.63164844,5.1415 8.6425625,5.17308333 Z" id="Shape"></path>
                                </g>
                            </g>
                        </g>
                    </g>
                </g>
            </g>
        </g>
    </g>
</svg>