<svg xmlns="http://www.w3.org/2000/svg" viewBox="0 0 130 21">
    <title>
        logo-tripadvisor
    </title>
    <g>
        <path fill="none" d="M14.5 12.1c1.1 3.1 4.7 4.7 7.8 3.5 3.1-1.1 4.8-4.6 3.5-7.7-1.1-3.1-4.7-4.7-7.8-3.5-3 1.1-4.6 4.6-3.5 7.7z"/>
        <ellipse fill="none" cx="6.8" cy="10" rx="6.1" ry="6"/>
        <path fill="#fff" d="M7.8 9.9c0 .6-.5 1.1-1.1 1.1s-1.1-.5-1.1-1.1c0-.6.5-1.1 1.1-1.1s1.1.5 1.1 1.1z"/>
        <path fill="#fff" d="M21.3 9.9c0 .6-.5 1.1-1.1 1.1-.6 0-1.1-.5-1.1-1.1 0-.6.5-1.1 1.1-1.1.5 0 1.1.5 1.1 1.1z"/>
        <path fill="#fff" d="M3.3 9.9c0 1.8 1.5 3.3 3.3 3.3S10 11.7 10 9.9 8.5 6.6 6.7 6.6 3.3 8.1 3.3 9.9zm1.2 0c0-1.2 1-2.2 2.2-2.2s2.2 1 2.2 2.2-1 2.2-2.2 2.2-2.2-1-2.2-2.2zm12.3 0c0 1.8 1.5 3.3 3.3 3.3s3.3-1.5 3.3-3.3-1.4-3.3-3.3-3.3-3.3 1.5-3.3 3.3zm1.2 0c0-1.2 1-2.2 2.2-2.2 1.2 0 2.2 1 2.2 2.2s-1 2.2-2.2 2.2c-1.3 0-2.2-1-2.2-2.2z"/>
        <path fill="none" d="M15.7 12.9c.5.8 1.3 1.5 2.2 1.9 1.3.6 2.7.7 4.1.2 2.8-1 4.3-4.1 3.1-6.8-1-2.8-4.1-4.2-6.9-3.1-1.3.5-2.4 1.5-3 2.8-.4.9-.5 1.8-.4 2.7"/>
        <path fill="#fff" d="M25.6 6c.3-1.3 1.3-2.7 1.3-2.7h-4.5c-2.5-1.6-5.6-2.5-9-2.5-3.5 0-6.7.9-9.2 2.5L0 3.4s1 1.3 1.3 2.7C.5 7.2 0 8.5 0 10c0 3.7 3 6.7 6.8 6.7 2.1 0 4-1 5.3-2.5l1.4 2.1 1.4-2.1c.6.8 1.5 1.5 2.4 1.9 1.6.7 3.4.8 5.2.2 3.4-1.3 5.3-5.1 3.9-8.6-.1-.6-.4-1.2-.8-1.7zM13.5 2.1c2.4 0 4.7.4 6.6 1.3-.7 0-1.4.1-2.1.4-1.7.6-3 1.8-3.7 3.5-.3.7-.5 1.5-.6 2.3-.3-3.4-3.3-6.1-6.7-6.2 1.8-.9 4-1.3 6.5-1.3zM11.2 13c-1 1.4-2.6 2.3-4.5 2.3-2.9 0-5.4-2.4-5.4-5.3s2.4-5.3 5.4-5.3S12.1 7 12.1 10c0 .2 0 .3-.1.5-.1.9-.3 1.7-.8 2.5zm10.9 2c-1.3.5-2.8.4-4.1-.2-.9-.4-1.7-1.1-2.2-1.9-.2-.3-.4-.7-.6-1.1-.2-.4-.2-.9-.3-1.3-.1-.9 0-1.9.4-2.7.6-1.3 1.7-2.3 3-2.8 2.8-1 5.9.4 6.9 3.1 1.1 2.8-.4 5.9-3.1 6.9z"/>
    </g>
    <g fill="#fff">
        <path d="M96.763 2c0 .7.6 1.3 1.3 1.3s1.3-.6 1.3-1.3-.6-1.3-1.3-1.3-1.3.6-1.3 1.3z"/>
        <path d="M34.963 1.9l-2 .7v2.5h-2.3v1.7h2.1v5.5c0 2.6.9 3.7 3.1 3.7.6 0 1.1-.1 1.6-.2h.1V14c-.4.1-.8.2-1 .2-1 0-1.4-.6-1.4-2.1V6.8h2.5V5.1h-2.5V1.8l-.2.1zm6.7 4.9V5.1h-2v10.7h2.2v-5.4c0-2.2.9-3.5 2.7-3.5.2 0 .5 0 .8.1h.1V5l-.9-.1c-1.1 0-2.3.7-2.9 1.9zm15.7-2c-1.5 0-2.7.7-3.6 2V5.1h-2v15h2.2v-5.8c.8 1.1 1.9 1.6 3.3 1.6 2.7 0 4.6-2.2 4.6-5.7 0-3.2-1.8-5.4-4.5-5.4zm-.6 9.4c-1.7 0-2.8-1.5-2.8-3.8s1.1-3.7 2.9-3.7c1.7 0 2.7 1.4 2.7 3.7-.1 2.3-1.1 3.8-2.8 3.8z"/>
        <path d="M68.263 4.8c-1.3 0-2.5.2-3.5.8h-.1v1.8h.2c1-.6 2-.9 2.9-.9 1.6 0 2.5.9 2.5 2.5v.1h-1.2c-3.6 0-5.6 1.3-5.6 3.6 0 1.9 1.4 3.2 3.4 3.2 1.5 0 2.6-.6 3.5-1.7v1.5h2V9.3c-.1-3-1.4-4.5-4.1-4.5zm1.9 6.5c0 1.8-1.1 3-2.8 3-1 0-1.8-.7-1.8-1.7 0-1.3 1.2-2 3.5-2h1.1v.7zM81.563 0v6.5c-.8-1.1-1.9-1.7-3.3-1.7-2.6 0-4.5 2.2-4.5 5.4 0 3.3 1.8 5.7 4.5 5.7 1.5 0 2.7-.7 3.5-2v1.8h2V0h-2.2zm-2.8 14.1c-1.6 0-2.7-1.4-2.7-3.8 0-2.3 1-3.8 2.6-3.8 1.8 0 2.9 1.4 2.9 3.8s-1.1 3.8-2.8 3.8zm14.8-9l-3.2 6.2-2.8-6.2h-2.4l5.2 10.7 5.5-10.7h-2.3zm5.4 0h-2v10.7h2.2V5.1h-.2zm2.8 2.7c0 1.5 1 2.3 2.9 3.2 1.2.6 1.8.9 1.8 1.8s-.8 1.4-2 1.4c-.8 0-1.8-.2-2.7-.7l-.2-.1-.2 1.9h.1c.9.4 1.8.5 2.8.5 2.6 0 4.5-1.3 4.5-3.2 0-1.6-1.1-2.5-3-3.3-1.4-.6-1.9-1-1.9-1.7 0-.6.6-1.1 1.6-1.1.9 0 1.8.2 2.6.6l.2.1.1-1.8h-.1c-.9-.3-1.8-.4-2.6-.4-2.3 0-3.9 1.1-3.9 2.8zm13.9-3c-3.3 0-5.3 2.1-5.3 5.6s2 5.6 5.4 5.6c3.3 0 5.4-2.1 5.4-5.6s-2.1-5.6-5.5-5.6zm0 9.4c-1.8 0-3-1.5-3-3.8s1.2-3.9 3-3.9 3 1.5 3 3.9c.1 2.3-1.1 3.8-3 3.8zm9.4-7.4V5.1h-2v10.7h2.2v-5.4c0-2.2.9-3.5 2.7-3.5.2 0 .5 0 .8.1h.1l.1-2.1-.9-.1c-1.3.1-2.4.8-3 2z"/>
        <path d="M49.463 5.1h-2v10.7h2.1V5.1h-.1zm-2.3-3.1c0 .7.6 1.3 1.3 1.3s1.3-.6 1.3-1.3-.6-1.3-1.3-1.3-1.3.6-1.3 1.3z"/>
    </g>
</svg>
