<svg width="22" height="14" viewBox="0 0 22 14" xmlns="http://www.w3.org/2000/svg">
    <title>
        sp
    </title>
    <g fill-rule="nonzero" fill="none">
        <g fill="#C8414B">
            <path d="M0 12.39c0 .883.738 1.598 1.648 1.598h18.704c.91 0 1.648-.715 1.648-1.597v-1.345H0v1.345z"/>
            <path d="M20.352.011H1.648C.738.011 0 .727 0 1.61v1.345h22V1.609c0-.882-.738-1.597-1.648-1.597z"/>
        </g>
        <path fill="#FFD250" d="M0 2.954h22v8.092H0z"/>
        <path d="M9.293 7l.322-1.403a.209.209 0 0 0-.209-.252H9.18a.209.209 0 0 0-.209.252L9.293 7z" fill="#C8414B"/>
        <path fill="#F5F5F5" d="M8.914 6.264h1V9.39h-1z"/>
        <path fill="#FAB446" d="M8.724 5.897h1.138v1H8.724z"/>
        <g fill="#C8414B">
            <path d="M7.966 7h1.897v1H7.966z"/>
            <path d="M9.862 8.471l-1.138-.368v-.367l1.138.367z"/>
            <path d="M3.603 7l.322-1.403a.209.209 0 0 0-.208-.252H3.49a.209.209 0 0 0-.208.252L3.603 7z"/>
        </g>
        <path d="M4.931 5.897c-.21 0-.38.164-.38.367v2.391c0 .447.43 1.288 1.897 1.288s1.897-.84 1.897-1.288v-2.39a.374.374 0 0 0-.38-.368H4.932z" fill="#F5F5F5"/>
        <g fill="#C8414B">
            <path d="M6.448 7.736H4.552V6.264c0-.203.17-.367.38-.367h1.516v1.839z"/>
            <path d="M6.448 7.736h1.897v.92c0 .507-.425.919-.948.919-.524 0-.949-.412-.949-.92v-.92z"/>
        </g>
        <path d="M4.552 7.736h1.896v.92c0 .507-.424.919-.948.919s-.948-.412-.948-.92v-.92z" fill="#FAB446"/>
        <g fill="#C8414B">
            <path d="M6.19 9.387V7.736h-.5v1.82c.186-.028.354-.088.5-.17z"/>
            <path d="M5.431 9.556v-1.82h-.5v1.65c.146.082.314.142.5.17z"/>
        </g>
        <path fill="#FFB441" d="M4.931 7h1.138v1H4.931z"/>
        <g fill="#FAB446">
            <path d="M4.931 6.264H6.07v1H4.931z"/>
            <path d="M5.12 6.483h1v1h-1z"/>
        </g>
        <path fill="#F5F5F5" d="M3.224 6.264h1V9.39h-1z"/>
        <g fill="#FAB446">
            <path d="M3.035 9.207h1.138v1H3.035z"/>
            <path d="M3.035 5.897h1.138v1H3.035z"/>
        </g>
        <path fill="#5064AA" d="M2.845 9.575h1.517v1H2.845z"/>
        <path fill="#FAB446" d="M8.914 9.207h1.138v1H8.914z"/>
        <path fill="#5064AA" d="M8.534 9.575h1.517v1H8.534z"/>
        <path fill="#FAB446" d="M5.311 5.529h2.276v1H5.311z"/>
        <path fill="#FFB441" d="M6.259 4.425h1v1.103h-1z"/>
        <g fill="#F5F5F5">
            <path d="M6.069 4.977a.561.561 0 0 1-.569-.552c0-.304.255-.551.569-.551.314 0 .569.247.569.551a.561.561 0 0 1-.57.552zm0-.736a.187.187 0 0 0-.19.184c0 .102.085.184.19.184s.19-.082.19-.184a.187.187 0 0 0-.19-.184z"/>
            <path d="M6.828 4.977a.561.561 0 0 1-.57-.552c0-.304.256-.551.57-.551.313 0 .569.247.569.551a.561.561 0 0 1-.57.552zm0-.736a.187.187 0 0 0-.19.184c0 .102.085.184.19.184.104 0 .19-.082.19-.184a.187.187 0 0 0-.19-.184z"/>
            <path d="M7.586 5.345a.561.561 0 0 1-.569-.552c0-.304.256-.552.57-.552.313 0 .568.248.568.552a.561.561 0 0 1-.569.552zm0-.736a.187.187 0 0 0-.19.184c0 .102.086.184.19.184.105 0 .19-.082.19-.184a.187.187 0 0 0-.19-.184z"/>
            <path d="M5.31 5.345a.561.561 0 0 1-.569-.552c0-.304.256-.552.57-.552.313 0 .568.248.568.552a.561.561 0 0 1-.569.552zm0-.736a.187.187 0 0 0-.19.184c0 .102.086.184.19.184.105 0 .19-.082.19-.184a.187.187 0 0 0-.19-.184z"/>
        </g>
        <path d="M7.586 8.471v.184a.187.187 0 0 1-.19.184.187.187 0 0 1-.19-.184v-.184h.38zm.38-.368H6.828v.552c0 .304.255.552.569.552a.561.561 0 0 0 .568-.552v-.552z" fill="#FAB446"/>
        <path d="M7.397 7.368A.374.374 0 0 1 7.017 7v-.368c0-.203.17-.368.38-.368.209 0 .379.165.379.368V7c0 .203-.17.368-.38.368z" fill="#FFA0D2"/>
        <ellipse fill="#5064AA" cx="6.448" cy="7.735" rx="1" ry="1"/>
        <path fill="#FAB446" d="M6.259 3.69h1v1.103h-1z"/>
        <path d="M5.31 5.529l-.379-.368.222-.216c.344-.333.81-.52 1.295-.52.486 0 .952.187 1.295.52l.223.216-.38.368H5.31z" fill="#C8414B"/>
        <g transform="translate(5.457 4.958)" fill="#FFD250">
            <circle cx="1.052" cy=".272" r="1"/>
            <circle cx=".293" cy=".272" r="1"/>
            <circle cx="1.81" cy=".272" r="1"/>
        </g>
        <g fill="#C8414B">
            <path d="M3.035 7h1.897v1H3.035z"/>
            <path d="M3.034 8.471l1.138-.368v-.367l-1.138.367z"/>
        </g>
    </g>
</svg>
