<?xml version="1.0" encoding="UTF-8"?><!DOCTYPE svg PUBLIC "-//W3C//DTD SVG 1.1//EN" "http://www.w3.org/Graphics/SVG/1.1/DTD/svg11.dtd"><svg xmlns="http://www.w3.org/2000/svg"><symbol id="icon-chat" viewBox="0 0 21 19">
    <title>
        chat
    </title>
    <g>
        <path d="M18.9.2H7c-1.1 0-2.1.9-2.1 2v1.7H2.1c-1.2 0-2.1.9-2.1 2v7.2c0 1.1.9 2 2.1 2h2.1v3.4c0 .1.1.3.2.3h.1c.1 0 .2 0 .3-.1l3.4-3.6H14c1.1 0 2.1-.9 2.1-2l1.8 2c.1.1.2.1.3.1h.1c.1-.1.2-.2.2-.3v-3.4h.4c1.1 0 2.1-.9 2.1-2V2.2c0-1.1-.9-2-2.1-2zm-3.5 12.9c0 .7-.6 1.3-1.4 1.3H8c-.1 0-.2 0-.3.1l-2.9 3.1v-2.9c0-.2-.2-.3-.3-.3H2.1c-.8 0-1.4-.6-1.4-1.3V5.9c0-.7.6-1.3 1.4-1.3H14c.8 0 1.4.6 1.4 1.3v7.2zm4.9-3.7c0 .7-.6 1.3-1.4 1.3h-.7c-.2 0-.4.2-.4.3v2.9L16.1 12V5.9c0-1.1-.9-2-2.1-2H5.6V2.2c0-.7.6-1.3 1.4-1.3h11.9c.8 0 1.4.6 1.4 1.3v7.2z"/>
        <path d="M4.2 8.3c-.8 0-1.4.6-1.4 1.4 0 .7.6 1.4 1.4 1.4s1.4-.6 1.4-1.4c0-.8-.6-1.4-1.4-1.4zm0 2c-.4 0-.7-.3-.7-.7s.3-.6.7-.6c.4 0 .7.3.7.7s-.3.6-.7.6z"/>
        <path d="M8.1 8.3c-.8 0-1.4.6-1.4 1.4 0 .7.6 1.4 1.4 1.4s1.4-.6 1.4-1.4c-.1-.8-.7-1.4-1.4-1.4zm0 2c-.4 0-.7-.3-.7-.7s.3-.6.7-.6.7.3.7.7-.4.6-.7.6z"/>
        <path d="M11.9 8.3c-.8 0-1.4.6-1.4 1.4 0 .7.6 1.4 1.4 1.4.8 0 1.4-.6 1.4-1.4 0-.8-.6-1.4-1.4-1.4zm0 2c-.4 0-.7-.3-.7-.7s.3-.6.7-.6c.4 0 .7.3.7.7s-.3.6-.7.6z"/>
    </g>
</symbol><symbol id="icon-checked" viewBox="0 0 50 50">
    <title>
        checked
    </title>
    <g fill-rule="nonzero">
        <path d="M42.678 7.322C37.956 2.6 31.678 0 25 0 18.322 0 12.044 2.6 7.322 7.322A24.836 24.836 0 0 0 0 25c0 6.678 2.6 12.956 7.322 17.678C12.044 47.4 18.322 50 25 50c6.678 0 12.956-2.6 17.678-7.322A24.836 24.836 0 0 0 50 25c0-6.678-2.6-12.956-7.322-17.678zM25 48.008C12.313 48.008 1.992 37.687 1.992 25S12.313 1.992 25 1.992 48.008 12.313 48.008 25 37.687 48.008 25 48.008z"/>
        <path d="M39.804 14.355a3.54 3.54 0 0 0-4.976 0L20.023 29.061l-4.85-4.818a3.54 3.54 0 0 0-4.977 0 3.483 3.483 0 0 0 0 4.943l7.34 7.29a3.508 3.508 0 0 0 2.487 1.024c.94 0 1.824-.364 2.489-1.024L39.804 19.3a3.483 3.483 0 0 0 0-4.944zm-1.421 3.531L21.09 35.064a1.504 1.504 0 0 1-1.067.439c-.402 0-.781-.156-1.066-.44l-7.34-7.29a1.493 1.493 0 0 1 0-2.118c.295-.292.68-.438 1.067-.438.386 0 .772.146 1.066.438l5.562 5.525c.393.39 1.03.39 1.422 0L36.25 15.768a1.517 1.517 0 0 1 2.133 0 1.493 1.493 0 0 1 0 2.118z"/>
        <path d="M45.09 29.198a.985.985 0 0 0-1.2.722c-2.18 8.683-9.886 14.747-18.737 14.747a.993.993 0 0 0-.986 1c0 .552.441 1 .986 1 9.754 0 18.245-6.684 20.65-16.253a1.001 1.001 0 0 0-.713-1.216z"/>
        <path d="M45.008 24.167c-.456 0-.825.386-.825.862 0 .246-.005.495-.016.738-.02.476.334.878.79.899h.036c.439 0 .804-.361.824-.824.01-.269.016-.542.016-.813 0-.476-.37-.862-.825-.862z"/>
    </g>
</symbol><symbol id="icon-down" viewBox="0 0 11 6">
    <title>
        Shape
    </title>
    <path d="M10.9.1c-.2-.2-.4-.2-.5 0l-4.9 5L.7.1C.5 0 .3 0 .1.1S0 .5.1.7l5.1 5.2c.1.1.2.1.3.1.1 0 .2 0 .3-.1L10.9.7c.1-.2.1-.4 0-.6z"/>
</symbol><symbol id="icon-facebook" viewBox="0 0 10 18">
    <title>
        Shape
    </title>
    <path d="M5.575 17.658V9h2.857l.452-2.87H5.575V4.693c0-.748.246-1.463 1.32-1.463h2.148V.365H5.994c-2.564 0-3.263 1.689-3.263 4.029V6.13H.97V9h1.76v8.658h2.844z" fill-rule="nonzero" opacity=".8"/>
</symbol><symbol id="icon-google-plus" viewBox="0 0 18 17">
    <title>
        google-plus
    </title>
    <g fill-rule="nonzero" opacity=".8">
        <path d="M11.115 12.718c0-1.471-.852-2.197-1.79-2.986l-.768-.597c-.235-.191-.554-.448-.554-.917 0-.469.32-.768.597-1.044.895-.704 1.79-1.45 1.79-3.028 0-1.621-1.023-2.473-1.513-2.878H10.2L11.562.5H7.17c-1.15 0-2.6.17-3.817 1.173C2.437 2.46 1.99 3.549 1.99 4.53c0 1.662 1.279 3.347 3.538 3.347.214 0 .447-.022.683-.042-.106.256-.212.47-.212.832 0 .66.34 1.066.64 1.45-.96.063-2.751.17-4.073.98-1.258.746-1.641 1.834-1.641 2.602 0 1.577 1.493 3.049 4.584 3.049 3.666 0 5.606-2.027 5.606-4.03zM6.53 7.281c-1.834 0-2.665-2.367-2.665-3.795 0-.555.106-1.129.469-1.577.34-.427.938-.705 1.493-.705 1.77 0 2.686 2.389 2.686 3.923 0 .384-.042 1.066-.533 1.557-.34.341-.916.596-1.45.597zm.022 8.57c-2.281 0-3.752-1.086-3.752-2.6 0-1.513 1.365-2.025 1.834-2.195.896-.299 2.046-.342 2.239-.342.212 0 .319 0 .49.021 1.62 1.151 2.323 1.727 2.323 2.815 0 1.321-1.087 2.302-3.134 2.302z"/>
        <path d="M11.307 8.577h2.309v2.307h1.154V8.577h2.307V7.423H14.77V5.116h-1.154v2.307h-2.309z"/>
    </g>
</symbol><symbol id="icon-home" viewBox="0 0 24 22">
    <title>
        home
    </title>
    <g fill-rule="nonzero">
        <path d="M17.104 10.162a.355.355 0 0 0-.486-.1.341.341 0 0 0-.103.477c.294.443.45.958.45 1.49 0 1-.578 2.201-1.627 3.384-.94 1.06-2.149 1.985-3.338 2.557a9.396 9.396 0 0 1-.875-.483.355.355 0 0 0-.485.107.342.342 0 0 0 .109.476c.37.23.74.43 1.103.595a.357.357 0 0 0 .296 0c1.323-.604 2.679-1.624 3.72-2.799 1.16-1.308 1.8-2.67 1.8-3.837 0-.666-.195-1.312-.564-1.867z"/>
        <path d="M15.806 9A3.518 3.518 0 0 0 12 9.388a3.473 3.473 0 0 0-2.2-.776c-1.912 0-3.467 1.533-3.467 3.417 0 1.588 1.169 3.5 3.127 5.114a.354.354 0 0 0 .495-.043.341.341 0 0 0-.043-.486c-1.774-1.462-2.876-3.219-2.876-4.585 0-1.503 1.24-2.726 2.764-2.726.737 0 1.43.282 1.951.795a.355.355 0 0 0 .498 0 2.767 2.767 0 0 1 1.95-.795c.452 0 .883.104 1.28.309a.355.355 0 0 0 .475-.145.342.342 0 0 0-.148-.467z"/>
        <path d="M23.853 8.268L12.204.098a.357.357 0 0 0-.408 0L6.943 3.503V1.95h.065a.348.348 0 0 0 .351-.345.348.348 0 0 0-.351-.345H3.264a.348.348 0 0 0-.352.345c0 .19.158.345.352.345h.064v4.087L.148 8.268A.343.343 0 0 0 0 8.55v2.043c0 .129.074.247.19.306.118.06.259.05.366-.026l.692-.485v6.803h-.064a.348.348 0 0 0-.352.346v4.084c0 .19.157.345.352.345h21.632a.348.348 0 0 0 .352-.345v-4.084a.348.348 0 0 0-.352-.346h-.064v-6.803l.692.485a.356.356 0 0 0 .365.026.345.345 0 0 0 .191-.306V8.549a.343.343 0 0 0-.147-.28zM4.03 1.95h2.21v2.045l-2.21 1.55V1.95zm19.266 7.97l-1.941-1.36a.356.356 0 0 0-.49.08.341.341 0 0 0 .081.481l1.102.773v7.296H16.16a.348.348 0 0 0-.351.346c0 .19.157.345.351.345h6.305v3.394H1.535v-3.394H7.84a.348.348 0 0 0 .351-.345.348.348 0 0 0-.351-.346H1.95V9.894L12 2.846l7.699 5.4c.158.11.377.074.49-.08a.341.341 0 0 0-.082-.482L12.204 2.14a.357.357 0 0 0-.408 0L.703 9.921V8.727L12 .804l11.297 7.923V9.92z"/>
    </g>
</symbol><symbol id="icon-hotel" viewBox="0 0 50 50">
    <title>
        hotel
    </title>
    <g fill-rule="nonzero">
        <path d="M4.688 10.156h4.687c.431 0 .781-.349.781-.781V4.687a.781.781 0 0 0-.781-.78H4.687a.781.781 0 0 0-.78.78v4.688c0 .432.35.781.78.781zm.78-4.687h3.126v3.125H5.469V5.469z"/>
        <path d="M13.281 10.156h4.688c.431 0 .781-.349.781-.781V4.687a.781.781 0 0 0-.781-.78H13.28a.781.781 0 0 0-.781.78v4.688c0 .432.35.781.781.781zm.781-4.687h3.126v3.125h-3.125V5.469z"/>
        <path d="M21.875 10.156h4.688c.43 0 .78-.349.78-.781V4.687a.781.781 0 0 0-.78-.78h-4.688a.781.781 0 0 0-.781.78v4.688c0 .432.35.781.781.781zm.781-4.687h3.125v3.125h-3.125V5.469z"/>
        <path d="M4.688 18.75h4.687c.431 0 .781-.35.781-.781V13.28a.781.781 0 0 0-.781-.781H4.687a.781.781 0 0 0-.78.781v4.688c0 .432.35.781.78.781zm.78-4.688h3.126v3.126H5.469v-3.125z"/>
        <path d="M13.281 18.75h4.688c.431 0 .781-.35.781-.781V13.28a.781.781 0 0 0-.781-.781H13.28a.781.781 0 0 0-.781.781v4.688c0 .432.35.781.781.781zm.781-4.688h3.126v3.126h-3.125v-3.125z"/>
        <path d="M21.875 18.75h4.688c.43 0 .78-.35.78-.781V13.28a.781.781 0 0 0-.78-.781h-4.688a.781.781 0 0 0-.781.781v4.688c0 .432.35.781.781.781zm.781-4.688h3.125v3.126h-3.125v-3.125z"/>
        <path d="M4.688 27.344h4.687c.431 0 .781-.35.781-.782v-4.687a.781.781 0 0 0-.781-.781H4.687a.781.781 0 0 0-.78.781v4.688c0 .432.35.78.78.78zm.78-4.688h3.126v3.125H5.469v-3.125z"/>
        <path d="M13.281 27.344h4.688c.431 0 .781-.35.781-.782v-4.687a.781.781 0 0 0-.781-.781H13.28a.781.781 0 0 0-.781.781v4.688c0 .432.35.78.781.78zm.781-4.688h3.126v3.125h-3.125v-3.125z"/>
        <path d="M21.875 27.344h4.688c.43 0 .78-.35.78-.782v-4.687a.781.781 0 0 0-.78-.781h-4.688a.781.781 0 0 0-.781.781v4.688c0 .432.35.78.781.78zm.781-4.688h3.125v3.125h-3.125v-3.125z"/>
        <path d="M10.156 35.156V30.47a.781.781 0 0 0-.781-.782H4.687a.781.781 0 0 0-.78.782v4.687c0 .432.35.782.78.782h4.688c.431 0 .781-.35.781-.782zm-1.562-.781H5.469V31.25h3.125v3.125z"/>
        <path d="M13.281 35.938h4.688c.431 0 .781-.35.781-.782V30.47a.781.781 0 0 0-.781-.782H13.28a.781.781 0 0 0-.781.782v4.687c0 .432.35.782.781.782zm.781-4.688h3.126v3.125h-3.125V31.25z"/>
        <path d="M21.875 35.938h4.688c.43 0 .78-.35.78-.782V30.47a.781.781 0 0 0-.78-.782h-4.688a.781.781 0 0 0-.781.782v4.687c0 .432.35.782.781.782zm.781-4.688h3.125v3.125h-3.125V31.25z"/>
        <path d="M33.594 35.938h4.687c.431 0 .782-.35.782-.782V30.47a.781.781 0 0 0-.782-.782h-4.687a.781.781 0 0 0-.782.782v4.687c0 .432.35.782.782.782zm.781-4.688H37.5v3.125h-3.125V31.25z"/>
        <path d="M41.406 35.938h4.688c.431 0 .781-.35.781-.782V30.47a.781.781 0 0 0-.781-.782h-4.688a.781.781 0 0 0-.781.782v4.687c0 .432.35.782.781.782zm.782-4.688h3.124v3.125h-3.124V31.25z"/>
        <path d="M49.219 25.781H31.25v-4.687h3.906v1.562c0 .432.35.782.782.782h6.25c.43 0 .78-.35.78-.782V3.906a.781.781 0 0 0-.78-.781h-6.25a.781.781 0 0 0-.782.781V5.47H31.25V.78A.781.781 0 0 0 30.469 0H.78A.781.781 0 0 0 0 .781v45.313A3.91 3.91 0 0 0 3.906 50h42.188A3.91 3.91 0 0 0 50 46.094V26.562a.781.781 0 0 0-.781-.78zm-12.5-21.093h4.687v17.187H36.72V4.687zM35.156 7.03v12.5H31.25v-12.5h3.906zM1.563 46.094V1.562h28.125v46.875h-7.813v-8.593h1.563V38.28H7.812v1.563h1.563v8.593H3.906a2.347 2.347 0 0 1-2.344-2.343zm9.374-6.25h3.907v8.593h-3.906v-8.593zm5.47 8.593v-8.593h3.905v8.593h-3.906zm21.874 0V43.75h3.125v4.688h-3.125zm10.157-2.343a2.347 2.347 0 0 1-2.344 2.343h-3.125V42.97a.781.781 0 0 0-.782-.782H37.5a.781.781 0 0 0-.781.782v5.468H31.25V27.345h17.188v18.75z"/>
        <path d="M38.281 9.375h1.563v1.563h-1.563z"/>
        <path d="M38.281 12.5h1.563v1.563h-1.563z"/>
        <path d="M38.281 15.625h1.563v1.563h-1.563z"/>
        <path d="M38.281 18.75h1.563v1.563h-1.563z"/>
        <path d="M38.281 6.25h1.563v1.563h-1.563z"/>
    </g>
</symbol><symbol id="icon-key-card" viewBox="0 0 45 50">
    <title>
        key-card
    </title>
    <g fill-rule="nonzero">
        <path d="M21.316 12.5v33.333c0 2.298 1.77 4.167 3.947 4.167h15.79C43.229 50 45 48.13 45 45.833V12.5c0-2.297-1.77-4.167-3.947-4.167H32.89C30.894 3.438 26.282 0 20.921 0 15.555 0 10.94 3.444 8.946 8.348c-.088-.004-.173-.015-.262-.015C3.896 8.333 0 12.446 0 17.5c0 3.457 1.843 6.603 4.737 8.163v20.17c0 .254.109.493.296.651l3.947 3.334a.761.761 0 0 0 1.125-.151l2.369-3.334a.862.862 0 0 0 .158-.5v-1.666a.848.848 0 0 0-.352-.694l-1.567-1.102 1.688-1.782a.856.856 0 0 0 .23-.589v-1.667c0-.46-.352-.833-.789-.833h-1.579v-1.9l1.829-.642a.83.83 0 0 0 .54-.791v-3.334a.848.848 0 0 0-.352-.693l-1.383-.973 1.383-.974a.848.848 0 0 0 .352-.693v-1.837c2.894-1.56 4.736-4.706 4.736-8.163 0-4.36-2.9-8.012-6.77-8.935 1.843-4.072 5.77-6.898 10.323-6.898 4.466 0 8.332 2.72 10.218 6.666h-5.876c-2.176 0-3.947 1.87-3.947 4.167zm10.48-2.5c.262.843.439 1.724.519 2.636-1.33.392-2.315 1.669-2.315 3.197 0 1.839 1.416 3.334 3.158 3.334 1.741 0 3.158-1.495 3.158-3.334 0-1.57-1.037-2.881-2.424-3.233a14.276 14.276 0 0 0-.45-2.6h7.61c1.306 0 2.37 1.122 2.37 2.5v33.333c0 1.379-1.064 2.5-2.37 2.5H25.264c-1.306 0-2.368-1.121-2.368-2.5V12.5c0-1.378 1.062-2.5 2.368-2.5h6.534zm2.151 4.398c.47.29.79.821.79 1.435 0 .92-.708 1.667-1.58 1.667-.87 0-1.578-.747-1.578-1.667 0-.614.32-1.146.79-1.435v1.435h1.578v-1.435zM9.474 13.75c0-.06.008-.12.008-.18.465.29.781.82.781 1.43 0 .92-.708 1.667-1.579 1.667-.87 0-1.579-.748-1.579-1.667 0-.617.324-1.152.8-1.44-.002.064-.01.126-.01.19V15h1.579v-1.25zM5.526 15c0 1.838 1.417 3.333 3.158 3.333 1.742 0 3.158-1.495 3.158-3.333 0-1.487-.934-2.736-2.21-3.163.088-.581.202-1.153.367-1.703 3.291.653 5.79 3.705 5.79 7.366 0 2.98-1.673 5.677-4.263 6.872a.837.837 0 0 0-.473.763v1.92l-2.017 1.418c-.44.31-.44 1.078 0 1.387l2.017 1.42v2.286l-1.829.643a.83.83 0 0 0-.54.791v3.333c0 .461.353.834.79.834h1.579v.488l-2.137 2.256a.862.862 0 0 0 .12 1.282l2.017 1.42v.943L9.33 47.978l-3.015-2.545V25.135c0-.33-.186-.63-.474-.763-2.59-1.195-4.263-3.893-4.263-6.872 0-4.033 3.033-7.323 6.817-7.485-.15.56-.263 1.133-.345 1.72-1.44.31-2.525 1.656-2.525 3.265z"/>
        <path d="M40.263 44.167V37.5c0-.46-.353-.833-.79-.833h-12.63c-.437 0-.79.372-.79.833v6.667c0 .46.353.833.79.833h12.63c.437 0 .79-.373.79-.833zm-12.631-.834v-5h11.052v5H27.632z"/>
    </g>
</symbol><symbol id="icon-logo-waves" viewBox="0 0 37 12">
    <title>
        logo-waves
    </title>
    <path d="M36.8 5c-.4-.2-1.2.9-1.4 1.2-.6.6-1.2 1.2-1.9 1.6C31.9 8.9 30.4 9 28.6 9c-3.8 0-7.7-1.9-11.3-3-3.8-1-7.9-1.3-11.7-.3-1.7.4-3.5 1.3-4.4 2.8-.5.8-1.9 2.6-.7 3.4.4.3.7-1 .9-1.2.4-.8 1.3-1.2 2-1.7 1.2-.9 3.3-1.4 4.8-1.4 2.1 0 4.4-.4 6.4.3 1.6.5 3.3.9 5 1.5 1.9.6 3.7 1.3 5.6 1.7 1.1.2 2.1.4 3.2.4.8 0 1.7-.2 2.5-.1.5-.4 1.5-.4 2-1 .8-.2 1.3-.9 2-1.3s2.3-2.8 2.1-3.7c0-.3-.1-.3-.2-.4z"/>
    <path d="M36.8 0c-.4-.2-1.2.9-1.4 1.2-.6.6-1.2 1.2-1.9 1.6C31.9 3.9 30.4 4 28.6 4c-3.8 0-7.7-1.9-11.3-3C13.5 0 9.4-.3 5.6.7 3.9 1.1 2.1 2 1.2 3.5.7 4.3-.7 6.1.5 6.9c.4.3.7-1 .9-1.2.4-.8 1.3-1.2 2-1.7 1.2-.9 3.3-1.4 4.8-1.4 2.1 0 4.4-.4 6.4.3 1.6.5 3.3.9 5 1.5 1.9.6 3.7 1.3 5.6 1.7 1.1.2 2.1.4 3.2.4.8 0 1.7-.2 2.5-.1.5-.4 1.5-.4 2-1 .8-.2 1.3-.9 2-1.3S37.2 1.3 37 .4c0-.3-.1-.3-.2-.4z"/>
</symbol><symbol id="icon-mail" viewBox="0 0 19 13">
    <title>
        mail
    </title>
    <g>
        <path d="M14.869 9.917c-.1 0-.1 0-.2-.1l-3.4-3c-.1-.1-.1-.3 0-.4.1-.2.3-.2.4-.1l3.4 3.1c.1.1.1.3 0 .4 0 0-.1.1-.2.1z"/>
        <path d="M3.469 9.917c-.1 0-.2 0-.2-.1-.1-.1-.1-.3 0-.4l3.4-3.1c.2-.1.4-.1.5.1.1.1.1.3 0 .4l-3.5 3c0 .1-.1.1-.2.1z"/>
        <path d="M16.9 12.7H1.5c-.8 0-1.5-.6-1.5-1.4V1.7C0 .9.7.3 1.5.3h15.4c.8 0 1.5.6 1.5 1.4v9.6c0 .8-.7 1.4-1.5 1.4zM1.5.8c-.5 0-.9.4-.9.9v9.6c0 .5.4.8.9.8h15.4c.5 0 .9-.4.9-.8V1.7c0-.5-.4-.8-.9-.8H1.5z"/>
        <path d="M9.2 7.9c-.4 0-.8-.1-1.1-.4L.5 1.2C.4 1.1.4.9.5.8.6.7.8.7.9.8l7.6 6.3c.4.3 1 .3 1.4 0L17.5.8c.1-.1.3-.1.4 0 .1.1.1.3 0 .4l-7.6 6.3c-.3.3-.7.4-1.1.4z"/>
    </g>
</symbol><symbol id="icon-next" viewBox="0 0 14 25">
    <title>
        Shape
    </title>
    <path d="M2 24.2l11.2-11.1c.2-.2.3-.4.3-.6 0-.2-.1-.4-.3-.6L2 .7C1.7.4 1.1.4.8.7c-.3.3-.3.9 0 1.2l10.6 10.6L.7 23c-.3.3-.3.9 0 1.2.4.4.9.4 1.3 0z"/>
</symbol><symbol id="icon-phone" viewBox="0 0 19 18">
    <title>
        phone
    </title>
    <path d="M19 14.8c-.1-.4-.3-.8-.7-1l-4.7-2.6c-.6-.3-1.3-.2-1.8.2l-.9.9c-.2.2-.6.3-.9 0l-2.1-1.8c-.7-.6-1.3-1.3-1.9-2-.3-.2-.3-.6 0-.8l.9-.9c.5-.4.6-1.1.2-1.7L4.4.7c-.2-.4-.6-.6-1-.7-.5 0-.9.1-1.3.4L.7 1.7c-1 .9-1 2.6 0 4.7.9 2.1 2.6 4.3 4.8 6.4 2.2 2.1 4.6 3.7 6.7 4.5 1.1.4 2.1.7 2.9.7.9 0 1.6-.2 2.1-.7l1.4-1.3c.3-.3.4-.8.4-1.2zm-5.7-3.1l4.7 2.6c.2.1.4.3.4.6 0 .2 0 .4-.2.6L12 12.1l.3-.2c.2-.3.6-.3 1-.2zM3.3.6c.3 0 .5.2.6.4l2.7 4.4c.2.3.1.7-.1 1l-.3.2L2.7.7c.1-.1.3-.1.5-.1h.1zm13.4 16.3c-.8.7-2.3.7-4.3-.1-2.1-.8-4.4-2.4-6.5-4.4-2.1-2-3.8-4.2-4.6-6.2-.9-1.8-.9-3.3-.1-4.1l1-1L5.8 7l-.3.3c-.4.4-.5 1.1 0 1.6.6.7 1.3 1.4 2 2.1.7.7 1.4 1.3 2.2 1.9.5.4 1.3.4 1.7-.1l.2-.2 6.2 3.4-1.1.9z"/>
</symbol><symbol id="icon-pinterest" viewBox="0 0 14 18">
    <title>
        Shape
    </title>
    <path d="M13.923 6.355c0-3.11-2.581-6.009-6.503-6.009C2.538.346.078 3.92.078 6.9c0 1.804.668 3.409 2.104 4.006.235.098.446.003.514-.262.047-.184.16-.649.209-.841.07-.263.042-.355-.147-.585-.415-.5-.678-1.144-.678-2.058 0-2.65 1.942-5.022 5.058-5.022 2.758 0 4.275 1.72 4.275 4.018 0 3.025-1.31 5.576-3.258 5.576-1.076 0-1.88-.906-1.621-2.02.308-1.327.906-2.762.906-3.72 0-.858-.45-1.576-1.385-1.576-1.099 0-1.981 1.16-1.981 2.715 0 .99.328 1.66.328 1.66l-1.321 5.715c-.179.776-.206 1.628-.181 2.348.075.647.7 1.173 1.243.464.382-.623.792-1.41 1.005-2.198.127-.467.723-2.883.723-2.883.357.695 1.4 1.308 2.51 1.308 3.302-.002 5.542-3.075 5.542-7.19z" fill-rule="nonzero" opacity=".8"/>
</symbol><symbol id="icon-planet-earth" viewBox="0 0 50 50">
    <title>
        planet-earth
    </title>
    <g fill-rule="nonzero">
        <path d="M42.678 7.322C37.956 2.601 31.678 0 25 0 18.322 0 12.044 2.6 7.322 7.322 2.601 12.044 0 18.322 0 25c0 6.678 2.6 12.956 7.322 17.678C12.044 47.399 18.322 50 25 50c6.678 0 12.956-2.6 17.678-7.322C47.399 37.956 50 31.678 50 25c0-6.678-2.6-12.956-7.322-17.678zM47.88 19.9l-6.594-1.846a.783.783 0 0 0-.975.926l.536 2.378a2.458 2.458 0 0 0 1.186 1.596c.57.323 1.25.403 1.878.224v1.187c0 .544-.26 1.06-.697 1.384l-3.992 2.957-3.52-6.793a.783.783 0 0 0-1.39.72l3.568 6.886a4.121 4.121 0 0 0 3.943 2.216l.182-.013-.262 1.445-4.773 4.497a.782.782 0 0 0-.191.282l-3.541 8.949a3.795 3.795 0 0 1-2.565-.426 3.758 3.758 0 0 1-1.8-2.292c-.34-1.23-.376-1.643-.376-1.764V38.64c0-.324-.2-.615-.502-.731l-.832-.32a6.742 6.742 0 0 1-2.82-2.054l-1.448-1.791a.783.783 0 0 0-.747-.28L16.355 34.5a2.558 2.558 0 0 1-2.573-1.092l-.607-.905a5.061 5.061 0 0 1-.29-5.153l1.328-2.56a.783.783 0 0 0 .087-.378l-.021-.967a1.713 1.713 0 0 1 1.422-1.735l5.186-.916a3.38 3.38 0 0 1 2.462.512l2.994 1.982c.2.133.452.166.68.09l4.906-1.64a.783.783 0 0 0 .277-.162l.71-.641a3.04 3.04 0 0 0-.02-4.522.783.783 0 0 0-.742-.165l-3.89 1.153-2.41-2.206a1.603 1.603 0 0 0-1.71-.303 1.603 1.603 0 0 0-1 1.435l-.769-.682a.782.782 0 0 0-.14-.098 3.281 3.281 0 0 0-3.83.465l-1.22 1.132a.781.781 0 0 0-.156.2l-1.204 2.213-1.498-.417a.886.886 0 0 1-.648-.807l-.06-1.116a.887.887 0 0 1 .792-.93l1.486-.158a.783.783 0 0 0 .7-.778v-1.96l3.01-2.27c.356-.27.65-.602.872-.99l1.025-1.79a.783.783 0 0 0-.83-1.158l-3.675.722V7.71c0-.777.347-1.503.951-1.99l4.812-3.881 3.197 1.84c.38.22.821.275 1.243.157.423-.119.771-.395.982-.78l.649-1.18c4.802.786 9.229 3.044 12.738 6.553 3.197 3.198 5.357 7.157 6.31 11.47zm-22.938-1.718l-.226-1.825a.055.055 0 0 1 .025-.017c.03-.013.043 0 .055.01l2.737 2.505a.783.783 0 0 0 .752.174l3.835-1.138c.149.231.229.5.23.785.001.424-.17.813-.485 1.097l-.588.531-4.388 1.467L24.213 20a4.936 4.936 0 0 0-3.598-.749l-3.143.555.872-1.602 1.126-1.045a1.718 1.718 0 0 1 1.937-.28l2.239 1.984a.783.783 0 0 0 1.296-.682zm.491-16.61c.58.01 1.157.042 1.73.094l-.351.639a.05.05 0 0 1-.032.025c-.021.006-.035-.003-.04-.005l-1.307-.753zm-17.004 40A23.281 23.281 0 0 1 1.566 25c0-6.26 2.437-12.144 6.863-16.57 3.205-3.205 7.175-5.367 11.498-6.316l-2.96 2.387a4.105 4.105 0 0 0-1.534 3.21v1.144a.783.783 0 0 0 .933.768l2.927-.574-.173.303c-.117.203-.27.377-.457.518l-3.32 2.506a.783.783 0 0 0-.312.625v1.645l-.785.083a2.452 2.452 0 0 0-2.19 2.57l.06 1.116a2.451 2.451 0 0 0 1.792 2.233l.208.058a3.27 3.27 0 0 0-1.403 2.772l.018.768-1.236 2.382a6.626 6.626 0 0 0 .38 6.746l.607.905a4.124 4.124 0 0 0 4.149 1.761l5.337-.952 1.156 1.431a8.31 8.31 0 0 0 3.477 2.531l.33.127v3.235c0 .264.045.777.433 2.18a5.313 5.313 0 0 0 2.543 3.242c.04.022.08.041.12.062a23.647 23.647 0 0 1-5.027.538 23.281 23.281 0 0 1-16.57-6.863zm33.142 0a23.464 23.464 0 0 1-6.331 4.52l2.93-7.407 4.834-4.555a.784.784 0 0 0 .233-.43l.489-2.688a.783.783 0 0 0-.824-.92l-1.186.08a2.554 2.554 0 0 1-1.417-.315l3.847-2.85a3.301 3.301 0 0 0 1.33-2.642v-2.268a.783.783 0 0 0-1.028-.744l-.929.308a.878.878 0 0 1-.715-.07.877.877 0 0 1-.43-.577l-.247-1.099 6.065 1.699c.16 1.112.242 2.243.242 3.387 0 6.26-2.437 12.144-6.863 16.57z"/>
        <path d="M12.064 10.232l.86.528-.47 2.113a.783.783 0 0 0 1.529.34l.59-2.659a.783.783 0 0 0-.354-.837l-1.336-.82a.783.783 0 1 0-.819 1.335z"/>
        <path d="M29.663 15.73h2.319c.168 0 .33-.054.465-.153l1.3-.962a.783.783 0 1 0-.931-1.258l-1.092.807h-2.061a.783.783 0 0 0 0 1.566z"/>
        <path d="M36.39 14.447a.782.782 0 1 0 1.265-.922l-2.138-2.932a.783.783 0 1 0-1.265.923l2.138 2.931z"/>
    </g>
</symbol><symbol id="icon-prev" viewBox="0 0 14 25">
    <title>
        Shape
    </title>
    <path d="M13.2 24.3c.3-.3.3-.9 0-1.2L2.6 12.5 13.2 1.9c.3-.3.3-.9 0-1.2s-.9-.3-1.2 0L.7 11.8c-.2.2-.3.4-.3.6 0 .2.1.4.3.6L12 24.2c.4.4.9.4 1.2.1z"/>
</symbol><symbol id="icon-team" viewBox="0 0 50 50">
    <title>
        team
    </title>
    <g fill-rule="nonzero">
        <path d="M11.385 11.947a.75.75 0 0 0-1.06.005 2.048 2.048 0 0 1-2.893.014.749.749 0 1 0-1.054 1.064 3.52 3.52 0 0 0 2.493 1.027h.018a3.521 3.521 0 0 0 2.501-1.05.75.75 0 0 0-.005-1.06z"/>
        <path d="M15.408 12.165A2.69 2.69 0 0 0 17.58 9.53a2.69 2.69 0 0 0-2.046-2.608v-.267A6.66 6.66 0 0 0 8.88.003 6.66 6.66 0 0 0 2.23 6.654v.228A2.69 2.69 0 0 0 0 9.53a2.69 2.69 0 0 0 2.36 2.666A6.675 6.675 0 0 0 6 16.883v.439h-2.19a2.845 2.845 0 0 0-2.843 2.842v4.456c0 .414.336.75.75.75h1.706a.75.75 0 1 0 0-1.5h-.957v-3.706c0-.74.603-1.343 1.344-1.343H6a.75.75 0 0 0 1.499-.007v-1.42a6.648 6.648 0 0 0 2.313.079v1.34a.75.75 0 0 0 1.498.008h2.101c.741 0 1.344.602 1.344 1.343v3.707h-8.11a.75.75 0 1 0 0 1.498h8.86a.75.75 0 0 0 .749-.749v-4.456a2.845 2.845 0 0 0-2.842-2.842H11.31v-.244a6.673 6.673 0 0 0 4.097-4.913zm.125-3.635a1.187 1.187 0 0 1 0 1.998V8.53zM2.23 10.625a1.19 1.19 0 0 1 0-2.192v2.192zM8.88 1.501a5.159 5.159 0 0 1 5.153 5.153v.214c-4.246-.177-6.41-2.294-7.16-3.227a.749.749 0 1 0-1.168.939c.04.05.084.103.13.157-.328.34-1 .89-2.04 1.091A5.161 5.161 0 0 1 8.88 1.501zm0 14.54a5.159 5.159 0 0 1-5.153-5.154v-3.53a5.376 5.376 0 0 0 3.17-1.567c1.352 1.14 3.647 2.448 7.136 2.578v2.52a5.159 5.159 0 0 1-5.153 5.153z"/>
        <path d="M6.7 8.344a.75.75 0 0 0-.75.75v.93a.75.75 0 0 0 1.498 0v-.93a.75.75 0 0 0-.749-.75z"/>
        <path d="M10.912 8.344a.75.75 0 0 0-.75.75v.93a.75.75 0 1 0 1.499 0v-.93a.75.75 0 0 0-.75-.75z"/>
        <path d="M47.83 12.165A2.69 2.69 0 0 0 50 9.53a2.69 2.69 0 0 0-2.046-2.608v-.266A6.66 6.66 0 0 0 41.302.003a6.66 6.66 0 0 0-6.652 6.652v.228a2.69 2.69 0 0 0-2.23 2.646 2.69 2.69 0 0 0 2.36 2.666 6.675 6.675 0 0 0 3.642 4.688v.439h-2.19a2.845 2.845 0 0 0-2.843 2.842v4.456c0 .414.336.75.75.75h2.159a.75.75 0 1 0 0-1.5h-1.41v-3.706c0-.74.602-1.343 1.343-1.343h2.191a.75.75 0 0 0 1.499-.007v-1.42a6.648 6.648 0 0 0 2.312.079v1.34a.75.75 0 0 0 1.498.008h2.102c.74 0 1.344.602 1.344 1.343v3.707h-7.852a.75.75 0 1 0 0 1.498h8.601a.75.75 0 0 0 .75-.749v-4.456a2.845 2.845 0 0 0-2.843-2.842h-2.101v-.244a6.673 6.673 0 0 0 4.097-4.913zm.124-3.635a1.187 1.187 0 0 1 0 1.998V8.53zM34.65 10.625a1.19 1.19 0 0 1 0-2.192v2.192zm6.652-9.124a5.159 5.159 0 0 1 5.153 5.153v.214c-4.246-.177-6.41-2.294-7.16-3.227a.749.749 0 1 0-1.168.939c.04.049.083.102.13.157-.33.342-1.002.89-2.041 1.09a5.161 5.161 0 0 1 5.086-4.326zm0 14.54a5.159 5.159 0 0 1-5.153-5.154v-3.53a5.376 5.376 0 0 0 3.17-1.568c1.352 1.14 3.647 2.449 7.136 2.58v2.518a5.159 5.159 0 0 1-5.153 5.154z"/>
        <path d="M43.806 11.947a.75.75 0 0 0-1.06.005 2.048 2.048 0 0 1-2.893.014.749.749 0 1 0-1.055 1.064 3.521 3.521 0 0 0 2.494 1.027h.017a3.521 3.521 0 0 0 2.502-1.05.75.75 0 0 0-.005-1.06z"/>
        <path d="M39.12 8.344a.75.75 0 0 0-.75.75v.93a.75.75 0 1 0 1.5 0v-.93a.75.75 0 0 0-.75-.75z"/>
        <path d="M43.332 8.344a.75.75 0 0 0-.749.75v.93a.75.75 0 1 0 1.498 0v-.93a.75.75 0 0 0-.749-.75z"/>
        <path d="M27.525 36.575a.75.75 0 0 0-1.06.005 2.046 2.046 0 0 1-2.893.014.75.75 0 1 0-1.054 1.064 3.521 3.521 0 0 0 2.494 1.027h.017a3.521 3.521 0 0 0 2.501-1.05.75.75 0 0 0-.005-1.06z"/>
        <path d="M31.549 36.793a2.69 2.69 0 0 0 2.17-2.636 2.69 2.69 0 0 0-2.046-2.608v-.266a6.663 6.663 0 0 0-4.349-6.24 3.225 3.225 0 0 0 1.129-2.451 3.235 3.235 0 0 0-3.232-3.232 3.235 3.235 0 0 0-3.232 3.232c0 .926.393 1.762 1.019 2.351-2.687.856-4.638 3.374-4.638 6.34v.228a2.69 2.69 0 0 0-2.23 2.646 2.69 2.69 0 0 0 2.36 2.666 6.675 6.675 0 0 0 3.642 4.688v.44H19.95a2.845 2.845 0 0 0-2.842 2.841v4.456c0 .414.335.75.75.75h13.787a.75.75 0 0 0 .749-.75v-4.456a2.845 2.845 0 0 0-2.842-2.842H27.45v-.244a6.673 6.673 0 0 0 4.098-4.913zm.124-3.635a1.187 1.187 0 0 1 0 1.998v-1.998zM18.37 35.253a1.19 1.19 0 0 1-.732-1.096c0-.493.303-.917.732-1.096v2.192zM25.22 20.86c.956 0 1.733.777 1.733 1.733 0 .956-.777 1.733-1.733 1.733a1.735 1.735 0 0 1-1.733-1.733c0-.956.777-1.733 1.733-1.733zm-.2 5.27a5.159 5.159 0 0 1 5.154 5.154v.213c-4.247-.177-6.41-2.294-7.161-3.227a.749.749 0 1 0-1.168.939c.04.05.084.102.13.157-.33.342-1.002.89-2.04 1.091a5.161 5.161 0 0 1 5.085-4.327zm4.531 17.32c.741 0 1.344.602 1.344 1.343V48.5h-12.29v-3.707c0-.74.604-1.343 1.345-1.343h2.19a.749.749 0 0 0 1.499-.007v-1.42a6.648 6.648 0 0 0 2.313.079v1.34a.75.75 0 0 0 1.498.008h2.101zm-4.53-2.78a5.159 5.159 0 0 1-5.154-5.153v-3.532a5.376 5.376 0 0 0 3.17-1.566c1.352 1.14 3.647 2.448 7.136 2.578v2.52a5.159 5.159 0 0 1-5.153 5.153z"/>
        <path d="M22.84 32.972a.75.75 0 0 0-.75.75v.93a.75.75 0 1 0 1.498 0v-.93a.75.75 0 0 0-.749-.75z"/>
        <path d="M27.052 32.972a.75.75 0 0 0-.75.75v.93a.75.75 0 1 0 1.499 0v-.93a.75.75 0 0 0-.75-.75z"/>
        <path d="M30.015 3.36h-9.843a.75.75 0 1 0 0 1.5h9.843a.75.75 0 1 0 0-1.5z"/>
        <path d="M46.49 29.642a.75.75 0 0 0-.75.75c0 5.604-4.56 10.164-10.165 10.164a.75.75 0 1 0 0 1.498c6.431 0 11.663-5.232 11.663-11.663a.749.749 0 0 0-.749-.749z"/>
        <path d="M14.338 40.556c-5.605 0-10.164-4.56-10.164-10.165a.75.75 0 1 0-1.499 0c0 6.431 5.232 11.663 11.663 11.663a.75.75 0 1 0 0-1.498z"/>
    </g>
</symbol><symbol id="icon-twitter" viewBox="0 0 16 14">
    <title>
        Shape
    </title>
    <path d="M14.432 4.018a9.83 9.83 0 0 0-.01-.45 6.814 6.814 0 0 0 1.655-1.778 6.35 6.35 0 0 1-1.904.52A3.402 3.402 0 0 0 15.631.407c-.641.388-1.35.667-2.104.811a3.297 3.297 0 0 0-2.42-1.141C9.278.047 7.795 1.593 7.795 3.53c0 .275.029.543.086.8C5.124 4.154 2.682 2.72 1.048.557A3.67 3.67 0 0 0 .6 2.33c0 1.227.585 2.318 1.474 2.961a3.172 3.172 0 0 1-1.502-.46v.046c0 1.715 1.143 3.153 2.66 3.488a3.139 3.139 0 0 1-1.497.05c.422 1.406 1.646 2.433 3.096 2.467A6.396 6.396 0 0 1-.076 12.33a8.94 8.94 0 0 0 5.081 1.593c6.095.002 9.427-5.303 9.427-9.905z" fill-rule="nonzero" opacity=".8"/>
</symbol><symbol id="icon-wallet" viewBox="0 0 50 50">
    <title>
        wallet
    </title>
    <g fill-rule="nonzero">
        <path d="M48.346 29.287h-.773v-6.74c0-1.067-.548-2.012-1.385-2.586v-.918c0-1.33-1.118-2.414-2.492-2.414h-.577l2.207-3.136c.74-1.052.458-2.49-.627-3.207L29.726.401a2.426 2.426 0 0 0-1.785-.36 2.373 2.373 0 0 0-1.525.968L13.493 19.38H9.897l.867-8.509a.254.254 0 0 1 .164-.211 5.559 5.559 0 0 0 2.728-2.147.262.262 0 0 1 .244-.111l5.64.54a.73.73 0 0 0 .805-.64.719.719 0 0 0-.66-.778l-5.64-.54a1.74 1.74 0 0 0-1.63.764 4.087 4.087 0 0 1-2.006 1.578A1.674 1.674 0 0 0 9.3 10.731l-.881 8.65H7.48L8.853 5.922c.05-.485.496-.84.996-.792l11.399 1.09a.73.73 0 0 0 .804-.638.719.719 0 0 0-.66-.78L9.994 3.714c-1.307-.125-2.476.803-2.605 2.07L6.283 16.629H4.4c-1.373 0-2.491 1.083-2.491 2.414v.626C.783 20.171 0 21.271 0 22.547v24.286C0 48.58 1.467 50 3.27 50h41.035c1.802 0 3.268-1.42 3.268-3.167v-6.74h.773c.911 0 1.653-.718 1.653-1.6v-7.605c0-.883-.742-1.601-1.653-1.601zm-4.65-11.233c.563 0 1.021.444 1.021.99v.362a3.382 3.382 0 0 0-.412-.026h-3.12l.932-1.326h1.58zM27.632 1.811a.908.908 0 0 1 .755-.386c.18 0 .358.053.51.154l14.974 9.885a.867.867 0 0 1 .24 1.226l-4.707 6.69h-1.13l2.308-3.28a1.622 1.622 0 0 0 .08-1.767 3.877 3.877 0 0 1-.492-2.457c.084-.628-.2-1.24-.744-1.6l-7.762-5.124a1.767 1.767 0 0 0-1.809-.085 4.225 4.225 0 0 1-2.54.454 1.764 1.764 0 0 0-1.669.719l-9.244 13.14h-1.13l12.36-17.569zm.324 12.099c-3.203 0-5.832 2.42-6.046 5.47h-3.728l8.68-12.338a.265.265 0 0 1 .248-.11 5.746 5.746 0 0 0 3.456-.618.267.267 0 0 1 .27.016l7.761 5.124a.249.249 0 0 1 .114.237 5.273 5.273 0 0 0 .67 3.342.246.246 0 0 1-.014.265l-2.872 4.082h-2.493c-.215-3.05-2.843-5.47-6.046-5.47zm4.571 5.47h-9.143c.211-2.264 2.18-4.045 4.572-4.045 2.391 0 4.36 1.78 4.571 4.045zm-29.149-.337c0-.545.458-.989 1.021-.989h1.739l-.135 1.326H3.378v-.337zm-1.906 3.504c0-.96.806-1.742 1.798-1.742h41.035c.991 0 1.798.781 1.798 1.742v1.977H1.472v-1.977zm44.63 24.286c0 .96-.806 1.742-1.797 1.742H3.27c-.992 0-1.798-.781-1.798-1.742v-1.977h3.966a.724.724 0 0 0 .735-.712.724.724 0 0 0-.735-.712H1.472V25.949h44.63v3.338H39.11c-2.203 0-4.112 1.244-5.018 3.045l-.01.018-.02.046a5.273 5.273 0 0 0-.279.69v.001a5.231 5.231 0 0 0-.251 1.603c0 2.98 2.502 5.404 5.578 5.404h6.992v3.338H10.147a.724.724 0 0 0-.736.712c0 .394.33.712.736.712h35.956v1.977zm2.426-8.34a.18.18 0 0 1-.182.176H39.11a4.131 4.131 0 0 1-3.701-2.255 3.861 3.861 0 0 1 .09-3.619 4.131 4.131 0 0 1 3.611-2.084h9.236c.1 0 .182.08.182.177v7.604z"/>
        <path d="M39.282 31.8c-1.645 0-2.984 1.296-2.984 2.89s1.339 2.89 2.984 2.89c1.646 0 2.984-1.296 2.984-2.89s-1.338-2.89-2.984-2.89zm0 4.356c-.834 0-1.513-.658-1.513-1.466 0-.808.68-1.466 1.513-1.466.835 0 1.513.658 1.513 1.466 0 .808-.678 1.466-1.513 1.466z"/>
    </g>
</symbol></svg>