<?xml version="1.0" encoding="UTF-8"?><!DOCTYPE svg PUBLIC "-//W3C//DTD SVG 1.1//EN" "http://www.w3.org/Graphics/SVG/1.1/DTD/svg11.dtd"><svg xmlns="http://www.w3.org/2000/svg"><symbol id="icon-adults" viewBox="0 0 21 23">
    <title>
        adults
    </title>
    <g>
        <ellipse cx="5.9" cy="14.2" rx="1" ry="1"/>
        <ellipse cx="15.1" cy="14.2" rx="1" ry="1"/>
        <path d="M5.9 11.6c-.5 0-.9.2-1.2.5-.2.2-.2.4 0 .6s.5.2.6 0c.2-.1.4-.2.6-.2s.4.1.6.2c.1.1.2.1.3.1.1 0 .2 0 .3-.1.2-.2.2-.4 0-.6-.3-.4-.7-.5-1.2-.5z"/>
        <path d="M13.9 12.1c-.2.2-.2.4 0 .6.2.2.5.2.6 0 .3-.3.8-.3 1.1 0 .1.1.2.1.3.1s.2 0 .3-.1c.2-.2.2-.4 0-.6-.6-.7-1.6-.7-2.3 0z"/>
        <path d="M11.4 17.6c-.2.2-.5.3-.9.3-.3 0-.6-.1-.9-.3-.2-.2-.5-.2-.6 0-.2.2-.2.4 0 .6.4.4.9.6 1.5.6s1.1-.2 1.5-.6c.2-.2.2-.4 0-.6-.2-.2-.5-.2-.6 0z"/>
        <path d="M21 13.8c0-1.2-.9-2.2-2-2.4V4.2c0-.9-.5-1.8-1.3-2.3-.8-.5-1.7-.6-2.5-.3L12.4.7C10.2-.1 8-.2 5.8.4 3 1.1 1.5 2.7 1.2 5c-.2.2-.4.6-.5.9l-.2.6c-.1.3 0 .7.3.9.3.2.7.2.9-.1.1-.1.2-.2.3-.2v4.3c-1.1.2-2 1.2-2 2.4s1 2.2 2.2 2.3c.3 1.6 1.1 3.2 2.3 4.4 1.6 1.6 3.7 2.5 6 2.5s4.4-.9 6-2.4c1.2-1.2 2.1-2.7 2.4-4.4C20.1 16 21 15 21 13.8zM17.2 2.5c.6.4.9 1 .9 1.6v5.7c-1.4-.2-2.4-1.4-2.4-2.8V2.2c.5-.1 1 0 1.5.3zM1.5 6.4l.1-.2c.2-.7.7-1.2 1.3-1.5.6-.3 1.4-.3 2 0 1.3.6 3 .3 4-.8l.1-.1c.2-.2.1-.5 0-.6-.2-.2-.5-.1-.6 0l-.2.2c-.7.8-1.9 1-2.9.6-.9-.4-1.9-.4-2.8 0h-.2C2.8 2.7 4.1 1.7 6 1.2c2-.5 4-.5 6 .2l2.6.9v2.2c-1.2 1.6-2.9 2.6-4.9 3-2 .4-4.1 0-5.8-1.1-.6-.5-1.6-.5-2.4 0zm-.6 7.4c0-.7.5-1.3 1.1-1.5v2.9c-.6-.1-1.1-.7-1.1-1.4zm15 6.1c-1.4 1.4-3.3 2.2-5.4 2.2-2 0-3.9-.8-5.4-2.2-1.4-1.4-2.2-3.3-2.2-5.3V6.9c.3 0 .5.1.7.2C5.5 8.3 7.8 8.7 10 8.3c1.8-.3 3.4-1.2 4.7-2.5V7c0 1.9 1.5 3.4 3.3 3.6v4c.1 2.1-.7 3.9-2.1 5.3zm3.1-4.7v-2.9c.7.2 1.1.8 1.1 1.5s-.5 1.3-1.1 1.4z"/>
    </g>
</symbol><symbol id="icon-calendar" viewBox="0 0 20 20">
    <title>
        calendar
    </title>
    <g>
        <path d="M19.8 3.6c-.1-.5-.4-1-.8-1.3-.6-.6-1.5-.9-2.4-.9h-1.4v-1c0-.2-.2-.4-.4-.4s-.4.2-.4.4v.9H5.8V.4c0-.2-.2-.4-.4-.4-.3 0-.5.2-.5.4v.9H3.5c-.7 0-1.4.2-1.9.5-.2.2-.4.3-.6.5-.6.5-1 1.4-1 2.2v12.3c0 .9.4 1.7 1 2.3.7.6 1.5.9 2.5.9h13.1c1 0 1.8-.4 2.4-.9.6-.6 1-1.4 1-2.3V4.6c0-.4-.1-.7-.2-1zm-.7 13.2c0 .7-.3 1.3-.7 1.7s-1.1.7-1.8.7H3.5c-.7 0-1.3-.3-1.8-.7s-.7-1-.7-1.7V7.1h18.2v9.7zm0-10.5H.9V4.5c0-.7.3-1.3.7-1.7s1.1-.7 1.8-.7h1.4V3c0 .2.2.4.4.4s.4-.2.4-.4v-.9H14V3c0 .2.2.4.4.4s.4-.2.4-.4v-.9h1.4c.7 0 1.3.3 1.8.7.3.3.6.7.7 1.2v2.3z"/>
        <path d="M4.3 10.9c.4 0 .7-.2 1-.4.3-.2.4-.6.4-.9s-.2-.7-.4-.9c-.3-.3-.6-.4-1-.4s-.7.2-1 .4c-.2.2-.3.5-.3.9s.2.7.4.9c.2.2.6.4.9.4zm-.4-1.7c.1-.1.2-.1.4-.1.1 0 .3 0 .4.1s.1.2.1.3c0 .2 0 .3-.1.3s-.2.1-.4.1c-.1 0-.3 0-.4-.1s-.1-.1-.1-.2c0-.2 0-.3.1-.4z"/>
        <path d="M8.1 10.9c.4 0 .7-.2 1-.4.3-.2.4-.6.4-.9s-.2-.7-.4-.9c-.2-.2-.6-.4-1-.4s-.7.2-1 .4c-.2.2-.4.5-.4.9s.2.7.4.9c.3.2.6.4 1 .4zm-.4-1.7c.1-.1.3-.1.4-.1.1 0 .3 0 .4.1s.1.2.1.3 0 .3-.1.3-.2.1-.4.1c-.1 0-.3 0-.4-.1s-.1-.1-.1-.2c0-.2.1-.3.1-.4z"/>
        <path d="M11.9 10.9c.4 0 .7-.2 1-.4.3-.2.4-.6.4-.9s-.2-.7-.4-.9c-.2-.2-.6-.4-1-.4s-.7.2-1 .4-.4.6-.4.9.2.7.4.9c.3.2.7.4 1 .4zm-.3-1.7c.1-.1.2-.1.4-.1.1 0 .3 0 .4.1.1.1.1.2.1.3 0 .1-.1.2-.2.3s-.2.1-.4.1c-.1 0-.3 0-.4-.1-.1-.1-.1-.2-.1-.3 0 0 .1-.2.2-.3z"/>
        <path d="M15.7 10.9c.4 0 .7-.2 1-.4.3-.2.4-.6.4-.9s-.2-.7-.4-.9c-.2-.2-.6-.4-1-.4s-.7.2-1 .4c-.3.2-.4.6-.4.9s.2.7.4.9c.3.2.6.4 1 .4zm-.4-1.7c.1-.1.2-.1.4-.1.1 0 .3 0 .4.1s.1.2.1.3 0 .3-.1.3-.2.1-.4.1c-.1 0-.3 0-.4-.1s-.1-.2-.1-.3c0-.1.1-.2.1-.3z"/>
        <path d="M4.3 14.4c.4 0 .7-.2 1-.4.3-.2.4-.6.4-.9s-.2-.7-.4-.9c-.3-.2-.6-.4-1-.4s-.7.2-1 .4c-.2.3-.3.6-.3 1s.2.7.4.9c.2.2.6.3.9.3zm-.4-1.6c.1-.1.2-.1.4-.1.1 0 .3 0 .4.1.1.1.1.2.1.3 0 .1 0 .3-.1.3s-.2.1-.4.1c-.1 0-.3 0-.4-.1s-.1-.2-.1-.3c0-.1 0-.2.1-.3z"/>
        <path d="M8.1 14.4c.4 0 .7-.2 1-.4s.4-.6.4-.9-.2-.7-.4-.9c-.2-.2-.6-.4-1-.4s-.7.2-1 .4c-.3.2-.4.6-.4.9s.2.7.4.9c.3.3.6.4 1 .4zm-.4-1.6c.1-.1.2-.1.4-.1.1 0 .3 0 .4.1.1.1.1.2.1.3 0 .1 0 .3-.1.3s-.2.1-.4.1c-.1 0-.3 0-.4-.1s-.1-.2-.1-.3c0-.1.1-.2.1-.3z"/>
        <path d="M11.9 14.4c.4 0 .7-.2 1-.4s.4-.6.4-.9-.2-.7-.4-.9c-.2-.2-.6-.4-1-.4s-.7.2-1 .4-.4.6-.4.9.2.7.4.9.7.4 1 .4zm-.4-1.6c.1-.1.2-.1.4-.1.1 0 .3 0 .4.1.1.1.1.2.1.3 0 .1 0 .3-.1.3s-.2.1-.4.1c-.1 0-.3 0-.4-.1s-.1-.2-.1-.3c0-.1 0-.2.1-.3z"/>
        <path d="M15.7 14.4c.4 0 .7-.2 1-.4.3-.2.4-.6.4-.9s-.2-.7-.4-.9c-.2-.2-.6-.4-1-.4s-.7.2-1 .4c-.3.2-.4.6-.4.9s.2.7.4.9c.3.3.6.4 1 .4zm-.4-1.6c.1-.1.2-.1.4-.1.1 0 .3 0 .4.1.1.1.1.2.1.3 0 .1 0 .3-.1.3s-.2.1-.4.1c-.1 0-.3 0-.4-.1s-.1-.2-.1-.3c0-.1.1-.2.1-.3z"/>
        <path d="M4.3 18c.4 0 .7-.2 1-.4.3-.2.4-.6.4-.9 0-.3-.2-.7-.4-.9-.3-.2-.6-.4-1-.4s-.7.2-1 .4c-.2.2-.3.5-.3.9 0 .3.2.7.4.9.2.3.6.4.9.4zm-.4-1.7c.1-.1.2-.1.4-.1.1 0 .3 0 .4.1.1.1.1.2.1.3 0 .1 0 .3-.1.3-.1.1-.2.1-.4.1-.1 0-.3 0-.4-.1-.1-.1-.1-.2-.1-.3 0 0 0-.2.1-.3z"/>
        <path d="M8.1 18c.4 0 .7-.2 1-.4.3-.2.4-.6.4-.9 0-.3-.2-.7-.4-.9s-.6-.4-1-.4-.7.2-1 .4c-.3.2-.4.6-.4.9 0 .3.2.7.4.9.3.3.6.4 1 .4zm-.4-1.7c.1-.1.2-.1.4-.1.1 0 .3 0 .4.1.1.1.1.2.1.3 0 .1 0 .3-.1.3-.1.1-.2.1-.4.1-.1 0-.3 0-.4-.1-.1-.1-.1-.2-.1-.3 0 0 .1-.2.1-.3z"/>
        <path d="M11.9 18c.4 0 .7-.2 1-.4.3-.2.4-.6.4-.9 0-.3-.2-.7-.4-.9-.3-.2-.6-.4-1-.4s-.7.2-1 .4c-.3.2-.4.6-.4.9 0 .3.2.7.4.9.3.3.7.4 1 .4zm-.4-1.7c.1-.1.2-.1.4-.1.1 0 .3 0 .4.1.1.1.1.2.1.3 0 .1 0 .3-.1.3-.1.1-.2.1-.4.1-.1 0-.3 0-.4-.1-.1-.1-.1-.2-.1-.3 0 0 0-.2.1-.3z"/>
        <path d="M15.7 18c.4 0 .7-.2 1-.4.3-.2.4-.6.4-.9 0-.3-.2-.7-.4-.9-.2-.2-.6-.4-1-.4s-.7.2-1 .4c-.3.2-.4.6-.4.9 0 .3.2.7.4.9.3.3.6.4 1 .4zm-.4-1.7c.1-.1.2-.1.4-.1.1 0 .3 0 .4.1.1.1.1.2.1.3 0 .1 0 .3-.1.3-.1.1-.2.1-.4.1-.1 0-.3 0-.4-.1-.1-.1-.1-.2-.1-.3 0 0 .1-.2.1-.3z"/>
    </g>
</symbol><symbol id="icon-chat" viewBox="0 0 21 19">
    <title>
        chat
    </title>
    <g>
        <path d="M18.9.2H7c-1.1 0-2.1.9-2.1 2v1.7H2.1c-1.2 0-2.1.9-2.1 2v7.2c0 1.1.9 2 2.1 2h2.1v3.4c0 .1.1.3.2.3h.1c.1 0 .2 0 .3-.1l3.4-3.6H14c1.1 0 2.1-.9 2.1-2l1.8 2c.1.1.2.1.3.1h.1c.1-.1.2-.2.2-.3v-3.4h.4c1.1 0 2.1-.9 2.1-2V2.2c0-1.1-.9-2-2.1-2zm-3.5 12.9c0 .7-.6 1.3-1.4 1.3H8c-.1 0-.2 0-.3.1l-2.9 3.1v-2.9c0-.2-.2-.3-.3-.3H2.1c-.8 0-1.4-.6-1.4-1.3V5.9c0-.7.6-1.3 1.4-1.3H14c.8 0 1.4.6 1.4 1.3v7.2zm4.9-3.7c0 .7-.6 1.3-1.4 1.3h-.7c-.2 0-.4.2-.4.3v2.9L16.1 12V5.9c0-1.1-.9-2-2.1-2H5.6V2.2c0-.7.6-1.3 1.4-1.3h11.9c.8 0 1.4.6 1.4 1.3v7.2z"/>
        <path d="M4.2 8.3c-.8 0-1.4.6-1.4 1.4 0 .7.6 1.4 1.4 1.4s1.4-.6 1.4-1.4c0-.8-.6-1.4-1.4-1.4zm0 2c-.4 0-.7-.3-.7-.7s.3-.6.7-.6c.4 0 .7.3.7.7s-.3.6-.7.6z"/>
        <path d="M8.1 8.3c-.8 0-1.4.6-1.4 1.4 0 .7.6 1.4 1.4 1.4s1.4-.6 1.4-1.4c-.1-.8-.7-1.4-1.4-1.4zm0 2c-.4 0-.7-.3-.7-.7s.3-.6.7-.6.7.3.7.7-.4.6-.7.6z"/>
        <path d="M11.9 8.3c-.8 0-1.4.6-1.4 1.4 0 .7.6 1.4 1.4 1.4.8 0 1.4-.6 1.4-1.4 0-.8-.6-1.4-1.4-1.4zm0 2c-.4 0-.7-.3-.7-.7s.3-.6.7-.6c.4 0 .7.3.7.7s-.3.6-.7.6z"/>
    </g>
</symbol><symbol id="icon-check" viewBox="0 0 10 8">
    <title>
        Shape
    </title>
    <path d="M4.5 7.6c-.5.5-1.2.5-1.6 0L.3 4.9c-.5-.5-.5-1.3 0-1.8s1.2-.5 1.6 0l1.5 1.6c.1.1.3.1.4 0L8 .4c.5-.5 1.2-.5 1.6 0 .3.2.4.5.4.8s-.1.7-.3.9L4.5 7.6z"/>
</symbol><symbol id="icon-children" viewBox="0 0 22 20">
    <title>
        children
    </title>
    <g>
        <ellipse cx="6.4" cy="12.3" rx="1" ry="1"/>
        <ellipse cx="15.5" cy="12.3" rx="1" ry="1"/>
        <path d="M21.9 11.9c0-1.3-.9-2.3-2.1-2.6V9c0-4.9-4-9-8.9-9-4.8 0-8.8 4-8.8 9v.4C.9 9.6 0 10.6 0 11.9s.9 2.4 2.1 2.6c.2 2 1.1 3.4 2.7 4.3 1.4.8 3.4 1.2 6.2 1.2 2.7 0 4.7-.4 6.2-1.2 1.6-.9 2.5-2.4 2.7-4.3 1.1-.2 2-1.3 2-2.6zm-21 0c0-.8.5-1.4 1.2-1.6v3.2c-.7-.2-1.2-.8-1.2-1.6zm18 1.8c0 2-.7 3.4-2.2 4.3-1.3.7-3.2 1.1-5.7 1.1s-4.5-.4-5.7-1.1C3.8 17.1 3 15.8 3 13.7V9c0-3.6 2.4-6.7 5.7-7.7 2.5 0 3.8 1.9 3.8 3.2 0 1-.8 1.8-1.8 1.8-.7 0-1.4-.6-1.4-1.4 0-.6.4-1 1-1 .3 0 .5-.2.5-.5s-.2-.4-.5-.4c-1 0-1.9.9-1.9 1.9 0 1.3 1 2.3 2.3 2.3 1.5 0 2.7-1.2 2.7-2.7 0-1-.5-2-1.3-2.7-.3-.3-.7-.6-1.1-.8 4.3.1 7.8 3.6 7.8 8v4.7zm.9-.2v-3.2c.7.2 1.2.8 1.2 1.6s-.5 1.4-1.2 1.6z"/>
        <path d="M12.7 13.5c-1 1-2.5 1-3.5 0-.2-.2-.5-.2-.6 0-.2.2-.2.5 0 .6.7.7 1.5 1 2.4 1 .9 0 1.7-.3 2.4-1 .2-.2.2-.5 0-.6-.2-.1-.5-.1-.7 0z"/>
    </g>
</symbol><symbol id="icon-close-button" viewBox="0 0 18 18">
    <title>
        close-button
    </title>
    <path fill-rule="nonzero" d="M18 1.8L16.2 0 9 7.2 1.8 0 0 1.8 7.2 9 0 16.2 1.8 18 9 10.8l7.2 7.2 1.8-1.8L10.8 9z"/>
</symbol><symbol id="icon-coffee-cup" viewBox="0 0 25 25">
    <title>
        coffee-cup
    </title>
    <g>
        <path d="M22.5 21.6h-5.3c1.4-.5 2.4-1.3 3.2-2.2 3.2-.5 4.7-3.1 4.7-5.5 0-1.7-1-3.1-2.2-3.4 0-.2-.1-.4-.3-.6s-.4-.3-.6-.3H1.8c-.2 0-.4.1-.6.3s-.3.4-.3.6c0 4.6.9 9.2 5.6 11H1.1c-.6 0-1.1.5-1.1 1.1 0 .5.4.9 1 1l5.6.4c.1 0 .3.1.3.2.1.5.6.8 1.1.8h7.3c.5 0 .9-.3 1.1-.7 0-.1.2-.2.3-.2l6-.4c.6-.1 1-.5 1-1-.1-.6-.6-1.1-1.2-1.1zm.3-10.1c.7.3 1.3 1.3 1.3 2.5 0 1.7-.8 3.6-3 4.4 0-.1.1-.1.1-.2 1.2-2.1 1.5-4.6 1.6-6.7zm-21-.9h20.1c0 5.7-1.3 11-10.1 11s-10-5.3-10-11zm20.7 12.3l-5.9.4c-.4 0-.8.3-1.1.7-.1.1-.2.2-.4.2H8c-.1 0-.3-.1-.4-.2-.2-.4-.6-.6-1.1-.7L1 22.9c-.2 0-.2-.1-.2-.2s.1-.3.3-.3h21.4c.1 0 .3.1.3.3 0 .1 0 .1-.3.2z"/>
        <path d="M12.2 3.8c-.7.7-1.1 1.4-1.1 2.1s.4 1.5 1.1 2.2c.1.1.2.1.3.1.1 0 .2 0 .3-.1.2-.1.2-.4 0-.6-.5-.5-.8-1-.8-1.5s.3-1 .8-1.5c.7-.6 1.1-1.4 1.1-2.1S13.6.9 12.8.2c-.2-.2-.5-.2-.6 0s-.2.5 0 .6c.5.5.8 1.1.8 1.6s-.3 1-.8 1.4z"/>
        <path d="M15.3 6c0 .7.4 1.5 1.1 2.2.1.1.2.1.3.1.1 0 .2 0 .3-.1.2-.2.2-.5 0-.6-.6-.6-.8-1.1-.8-1.6s.3-1 .8-1.5c.7-.6 1.1-1.4 1.1-2.1 0-.8-.3-1.5-1.1-2.2-.2-.2-.5-.2-.6 0-.2.2-.2.5 0 .6.5.6.8 1.1.8 1.6s-.3 1-.8 1.5c-.8.6-1.1 1.3-1.1 2.1z"/>
        <path d="M5.6 6c0 .7.4 1.5 1.1 2.2.1.1.2.1.3.1.1 0 .2 0 .3-.1.2-.2.2-.5 0-.6-.6-.6-.9-1.1-.9-1.6s.3-1 .8-1.5c.8-.7 1.1-1.4 1.1-2.1C8.3 1.6 8 .9 7.2.2 7.1 0 6.8 0 6.6.1c-.2.2-.2.5 0 .6.5.6.8 1.1.8 1.6s-.3 1-.8 1.5c-.7.7-1 1.4-1 2.2z"/>
    </g>
</symbol><symbol id="icon-down" viewBox="0 0 11 6">
    <title>
        Shape
    </title>
    <path d="M10.9.1c-.2-.2-.4-.2-.5 0l-4.9 5L.7.1C.5 0 .3 0 .1.1S0 .5.1.7l5.1 5.2c.1.1.2.1.3.1.1 0 .2 0 .3-.1L10.9.7c.1-.2.1-.4 0-.6z"/>
</symbol><symbol id="icon-earth" viewBox="0 0 20 23">
    <title>
        earth
    </title>
    <g fill-rule="nonzero">
        <path d="M19.899 11.631a.385.385 0 0 0-.434-.326.383.383 0 0 0-.328.431c.059.42.088.849.088 1.272 0 5.026-4.078 9.122-9.114 9.182-1.367-.87-2.648-1.934-2.077-3.26 1.024-2.38.07-3.268-.337-3.647l-.076-.072a1.806 1.806 0 0 0-.364-.264c-.281-.168-.357-.213-.206-.664.1-.3.233-.44.386-.6.356-.375.628-.747.628-1.83 0-.629-.321-1.131-.881-1.377-.635-.28-1.482-.181-1.93.224a.863.863 0 0 0-.258.945c.274.817-.352 1.997-1.522 2.87-.31.232-.403.126-.458.063-.343-.394-.317-1.514-.035-1.794.189-.188.245-.428.15-.641-.311-.704-2.298-.65-2.691-.63-.017 0-.03.008-.047.011a.348.348 0 0 0-.14.054.354.354 0 0 0-.164.229c-.003.014-.012.026-.013.041a9.933 9.933 0 0 0 7.52 10.817.383.383 0 1 0 .183-.743A9.17 9.17 0 0 1 .805 12.27c.649-.003 1.202.073 1.484.159-.441.685-.393 2.032.146 2.65.387.443.947.462 1.5.049 1.477-1.102 2.18-2.565 1.79-3.725-.012-.038-.025-.073.046-.137.202-.183.717-.26 1.102-.09.285.124.423.346.423.678 0 .863-.175 1.048-.417 1.302-.18.19-.403.425-.558.885-.345 1.034.21 1.365.54 1.563a1.189 1.189 0 0 1 .311.238c.338.315.967.9.155 2.787-.921 2.139 1.454 3.63 2.468 4.267a.389.389 0 0 0 .205.06c5.51 0 9.994-4.463 9.994-9.948 0-.458-.032-.921-.095-1.377z"/>
        <path d="M14.611 13.207a3.114 3.114 0 0 1-.303.078c-.531 0-.868.41-1.114.708-.094.114-.261.329-.371.322a1.209 1.209 0 0 0-.543-.13c-.453 0-.845.268-.933.638-.062.26.03.617.47.836.623.31 1.269.632 1.556.917.198.197.54.31.938.31.605 0 1.41-.293 1.687-1.118.109-.326.37-.574.622-.815.293-.28.57-.542.574-.921.003-.224-.097-.437-.295-.635-.27-.269-.638-.405-1.094-.405-.437 0-.875.124-1.194.215zm1.814.814c-.018.076-.21.258-.336.38-.29.276-.652.62-.82 1.125-.19.566-.832.595-.958.595-.224 0-.365-.06-.394-.085-.376-.374-1.047-.708-1.757-1.062l-.004-.001a.43.43 0 0 1 .323.026.843.843 0 0 0 .379.094c.425 0 .694-.327.93-.615.174-.21.353-.428.52-.428.136 0 .295-.045.514-.107.291-.083.653-.186.983-.186.248 0 .428.06.55.181.053.054.068.083.07.083z"/>
        <path d="M9.623 3.834a9.342 9.342 0 0 1 2.31.194c-.013.55.225.928.379 1.17l.108.172c0 1.373-.282 1.596-.28 1.596-.622 0-1.645.554-2.029 1.269-.236.438-.217.902.053 1.306.186.276.345.584.5.881.326.63.69 1.329 1.258 1.329.12 0 .25-.032.391-.102.448-.223.77-.857 1.08-1.47.137-.27.338-.666.457-.792.39.053.581.404.84.96.189.41.385.832.771 1.024.65.323 2.786-.015 3.966-.514.016-.007.027-.02.041-.028.023-.013.045-.026.064-.043a.375.375 0 0 0 .047-.055.364.364 0 0 0 .04-.06.341.341 0 0 0 .023-.07.374.374 0 0 0 .014-.07.366.366 0 0 0-.005-.076c-.002-.017.002-.033-.003-.05A10.02 10.02 0 0 0 13.785 3.8a.382.382 0 1 0-.291.708 9.257 9.257 0 0 1 5.312 5.768c-1.196.42-2.728.546-3.001.412-.145-.072-.29-.385-.418-.66-.268-.578-.635-1.37-1.572-1.41-.49-.026-.757.525-1.108 1.218-.206.406-.517 1.02-.765 1.141-.143-.033-.426-.579-.595-.905-.157-.301-.334-.643-.543-.955-.113-.169-.118-.33-.015-.52.264-.49 1.056-.864 1.352-.864.695 0 1.047-.795 1.047-2.362 0-.222-.114-.404-.225-.58-.163-.256-.331-.522-.232-.976a.383.383 0 0 0-.28-.452c-.928-.233-1.9-.331-2.859-.293a.383.383 0 1 0 .031.765z"/>
        <path d="M10.112 20.951c.364 0 .705-.131.935-.36.255-.253.317-.627.175-1.05a2.175 2.175 0 0 0-.507-.81.592.592 0 0 0-.42-.17c-.48 0-1.043.55-1.249 1.043-.16.386-.112.745.131.988.23.228.57.36.935.36zm-.292-1.176c.132-.218.32-.372.421-.426.11.128.204.29.252.433.042.127.046.232.01.268-.17.17-.614.165-.78.004-.006-.016-.005-.112.097-.279z"/>
        <path d="M.59 11.072a.384.384 0 0 0 .459-.29c.272-1.222 1.227-3.022 2-3.777a.382.382 0 0 0 .007-.541.386.386 0 0 0-.544-.006c-.875.853-1.91 2.796-2.215 4.158a.383.383 0 0 0 .292.456z"/>
        <path d="M5.087 7.89a.385.385 0 0 0 .6 0l1.527-1.9c.422-.479 1.248-1.875 1.248-2.93C8.462 1.374 7.082 0 5.387 0a3.071 3.071 0 0 0-3.075 3.06c0 1.233 1.104 2.74 1.238 2.918L5.087 7.89zm.3-7.125a2.303 2.303 0 0 1 2.307 2.296c0 .79-.7 2.017-1.07 2.439L5.388 7.04l-1.23-1.53c-.371-.497-1.076-1.647-1.076-2.45A2.303 2.303 0 0 1 5.387.766z"/>
        <path d="M5.387 3.826a.768.768 0 0 0 .77-.765.768.768 0 0 0-1.538 0c0 .422.344.765.768.765z"/>
    </g>
</symbol><symbol id="icon-facebook" viewBox="0 0 10 18">
    <title>
        Shape
    </title>
    <path d="M5.575 17.658V9h2.857l.452-2.87H5.575V4.693c0-.748.246-1.463 1.32-1.463h2.148V.365H5.994c-2.564 0-3.263 1.689-3.263 4.029V6.13H.97V9h1.76v8.658h2.844z" fill-rule="nonzero" opacity=".8"/>
</symbol><symbol id="icon-filter" viewBox="0 0 20 18">
    <title>
        filter
    </title>
    <path d="M19.899.392a.606.606 0 0 0-.547-.338H.605a.606.606 0 0 0-.547.338c-.1.206-.069.45.08.626l7.207 8.52v7.855c0 .204.108.393.286.501a.617.617 0 0 0 .587.027l4.05-1.956a.588.588 0 0 0 .335-.527l.008-5.9 7.207-8.52a.577.577 0 0 0 .08-.626zM11.54 8.95a.58.58 0 0 0-.138.374l-.008 5.746-2.84 1.372V9.326a.58.58 0 0 0-.138-.375L1.887 1.233H18.07L11.54 8.95z" fill-rule="nonzero"/>
</symbol><symbol id="icon-google-plus" viewBox="0 0 18 17">
    <title>
        google-plus
    </title>
    <g fill-rule="nonzero" opacity=".8">
        <path d="M11.115 12.718c0-1.471-.852-2.197-1.79-2.986l-.768-.597c-.235-.191-.554-.448-.554-.917 0-.469.32-.768.597-1.044.895-.704 1.79-1.45 1.79-3.028 0-1.621-1.023-2.473-1.513-2.878H10.2L11.562.5H7.17c-1.15 0-2.6.17-3.817 1.173C2.437 2.46 1.99 3.549 1.99 4.53c0 1.662 1.279 3.347 3.538 3.347.214 0 .447-.022.683-.042-.106.256-.212.47-.212.832 0 .66.34 1.066.64 1.45-.96.063-2.751.17-4.073.98-1.258.746-1.641 1.834-1.641 2.602 0 1.577 1.493 3.049 4.584 3.049 3.666 0 5.606-2.027 5.606-4.03zM6.53 7.281c-1.834 0-2.665-2.367-2.665-3.795 0-.555.106-1.129.469-1.577.34-.427.938-.705 1.493-.705 1.77 0 2.686 2.389 2.686 3.923 0 .384-.042 1.066-.533 1.557-.34.341-.916.596-1.45.597zm.022 8.57c-2.281 0-3.752-1.086-3.752-2.6 0-1.513 1.365-2.025 1.834-2.195.896-.299 2.046-.342 2.239-.342.212 0 .319 0 .49.021 1.62 1.151 2.323 1.727 2.323 2.815 0 1.321-1.087 2.302-3.134 2.302z"/>
        <path d="M11.307 8.577h2.309v2.307h1.154V8.577h2.307V7.423H14.77V5.116h-1.154v2.307h-2.309z"/>
    </g>
</symbol><symbol id="icon-items" viewBox="0 0 18 18">
    <title>
        items
    </title>
    <g fill-rule="nonzero">
        <path d="M6.74 9.57H1.688A1.69 1.69 0 0 0 0 11.257v5.056C0 17.242.757 18 1.688 18H6.74a1.69 1.69 0 0 0 1.687-1.688v-5.055A1.69 1.69 0 0 0 6.741 9.57zm.563 6.742c0 .31-.252.563-.562.563H1.688a.563.563 0 0 1-.563-.563v-5.055c0-.31.252-.562.563-.562H6.74c.31 0 .562.252.562.562v5.056z"/>
        <path d="M16.313 9.57h-5.054a1.69 1.69 0 0 0-1.688 1.687v5.056c0 .93.757 1.687 1.688 1.687h5.053A1.69 1.69 0 0 0 18 16.312v-5.055a1.69 1.69 0 0 0-1.688-1.687zm.562 6.742c0 .31-.253.563-.563.563H11.26a.563.563 0 0 1-.563-.563v-5.055c0-.31.253-.562.563-.562h5.053c.31 0 .563.252.563.562v5.056z"/>
        <path d="M6.74 0H1.688A1.69 1.69 0 0 0 0 1.688V6.74c0 .93.757 1.688 1.688 1.688H6.74A1.69 1.69 0 0 0 8.428 6.74V1.688A1.69 1.69 0 0 0 6.741 0zm.563 6.741c0 .31-.252.563-.562.563H1.688a.563.563 0 0 1-.563-.563V1.688c0-.31.252-.563.563-.563H6.74c.31 0 .562.252.562.563V6.74z"/>
        <path d="M16.313 0h-5.054A1.69 1.69 0 0 0 9.57 1.688V6.74c0 .93.757 1.688 1.688 1.688h5.053A1.69 1.69 0 0 0 18 6.74V1.688A1.69 1.69 0 0 0 16.312 0zm.562 6.741c0 .31-.253.563-.563.563H11.26a.563.563 0 0 1-.563-.563V1.688c0-.31.253-.563.563-.563h5.053c.31 0 .563.252.563.563V6.74z"/>
    </g>
</symbol><symbol id="icon-list" viewBox="0 0 18 18">
    <title>
        list
    </title>
    <g fill-rule="nonzero">
        <path d="M17.351 2.118H6.65c-.39 0-.649.211-.649.53 0 .317.324.528.649.528H17.35c.39 0 .649-.211.649-.529 0-.318-.26-.53-.649-.53z"/>
        <path d="M17.416 8.47H6.65C6.259 8.47 6 8.683 6 9c0 .318.26.53.649.53H17.35c.39 0 .649-.212.649-.53 0-.318-.26-.53-.584-.53z"/>
        <path d="M17.416 14.824H6.65c-.39 0-.649.211-.649.529 0 .318.26.53.649.53H17.35c.39 0 .649-.212.649-.53 0-.318-.26-.53-.584-.53z"/>
        <path d="M2.5 0C1.111 0 0 1.176 0 2.647c0 1.47 1.111 2.647 2.5 2.647S5 4.118 5 2.647C5 1.177 3.889 0 2.5 0zm0 3.897c-.625 0-1.111-.515-1.111-1.176 0-.662.486-1.177 1.111-1.177s1.111.515 1.111 1.177c0 .588-.486 1.176-1.111 1.176z"/>
        <path d="M2.5 6.353C1.111 6.353 0 7.529 0 9c0 1.47 1.111 2.647 2.5 2.647S5 10.471 5 9c0-1.47-1.111-2.647-2.5-2.647zm0 3.823c-.625 0-1.111-.514-1.111-1.176 0-.662.486-1.176 1.111-1.176S3.611 8.338 3.611 9c0 .662-.486 1.176-1.111 1.176z"/>
        <path d="M2.5 12.706c-1.389 0-2.5 1.176-2.5 2.647C0 16.823 1.111 18 2.5 18S5 16.824 5 15.353c0-1.397-1.111-2.647-2.5-2.647zm0 3.897c-.625 0-1.111-.515-1.111-1.177 0-.661.486-1.176 1.111-1.176s1.111.515 1.111 1.176c0 .662-.486 1.177-1.111 1.177z"/>
    </g>
</symbol><symbol id="icon-logo-waves" viewBox="0 0 37 12">
    <title>
        logo-waves
    </title>
    <path d="M36.8 5c-.4-.2-1.2.9-1.4 1.2-.6.6-1.2 1.2-1.9 1.6C31.9 8.9 30.4 9 28.6 9c-3.8 0-7.7-1.9-11.3-3-3.8-1-7.9-1.3-11.7-.3-1.7.4-3.5 1.3-4.4 2.8-.5.8-1.9 2.6-.7 3.4.4.3.7-1 .9-1.2.4-.8 1.3-1.2 2-1.7 1.2-.9 3.3-1.4 4.8-1.4 2.1 0 4.4-.4 6.4.3 1.6.5 3.3.9 5 1.5 1.9.6 3.7 1.3 5.6 1.7 1.1.2 2.1.4 3.2.4.8 0 1.7-.2 2.5-.1.5-.4 1.5-.4 2-1 .8-.2 1.3-.9 2-1.3s2.3-2.8 2.1-3.7c0-.3-.1-.3-.2-.4z"/>
    <path d="M36.8 0c-.4-.2-1.2.9-1.4 1.2-.6.6-1.2 1.2-1.9 1.6C31.9 3.9 30.4 4 28.6 4c-3.8 0-7.7-1.9-11.3-3C13.5 0 9.4-.3 5.6.7 3.9 1.1 2.1 2 1.2 3.5.7 4.3-.7 6.1.5 6.9c.4.3.7-1 .9-1.2.4-.8 1.3-1.2 2-1.7 1.2-.9 3.3-1.4 4.8-1.4 2.1 0 4.4-.4 6.4.3 1.6.5 3.3.9 5 1.5 1.9.6 3.7 1.3 5.6 1.7 1.1.2 2.1.4 3.2.4.8 0 1.7-.2 2.5-.1.5-.4 1.5-.4 2-1 .8-.2 1.3-.9 2-1.3S37.2 1.3 37 .4c0-.3-.1-.3-.2-.4z"/>
</symbol><symbol id="icon-mail" viewBox="0 0 19 13">
    <title>
        mail
    </title>
    <g>
        <path d="M14.869 9.917c-.1 0-.1 0-.2-.1l-3.4-3c-.1-.1-.1-.3 0-.4.1-.2.3-.2.4-.1l3.4 3.1c.1.1.1.3 0 .4 0 0-.1.1-.2.1z"/>
        <path d="M3.469 9.917c-.1 0-.2 0-.2-.1-.1-.1-.1-.3 0-.4l3.4-3.1c.2-.1.4-.1.5.1.1.1.1.3 0 .4l-3.5 3c0 .1-.1.1-.2.1z"/>
        <path d="M16.9 12.7H1.5c-.8 0-1.5-.6-1.5-1.4V1.7C0 .9.7.3 1.5.3h15.4c.8 0 1.5.6 1.5 1.4v9.6c0 .8-.7 1.4-1.5 1.4zM1.5.8c-.5 0-.9.4-.9.9v9.6c0 .5.4.8.9.8h15.4c.5 0 .9-.4.9-.8V1.7c0-.5-.4-.8-.9-.8H1.5z"/>
        <path d="M9.2 7.9c-.4 0-.8-.1-1.1-.4L.5 1.2C.4 1.1.4.9.5.8.6.7.8.7.9.8l7.6 6.3c.4.3 1 .3 1.4 0L17.5.8c.1-.1.3-.1.4 0 .1.1.1.3 0 .4l-7.6 6.3c-.3.3-.7.4-1.1.4z"/>
    </g>
</symbol><symbol id="icon-marker" viewBox="0 0 12 16">
    <title>
        marker
    </title>
    <g fill-rule="nonzero">
        <path d="M6 0C2.702 0 .018 2.6.018 5.795c0 3.965 5.353 9.786 5.581 10.032a.55.55 0 0 0 .802 0c.228-.246 5.58-6.067 5.58-10.032C11.982 2.599 9.299 0 6 0zm0 14.679c-1.802-2.073-4.904-6.163-4.904-8.884 0-2.62 2.2-4.752 4.904-4.752 2.704 0 4.904 2.132 4.904 4.752 0 2.721-3.102 6.81-4.904 8.884z"/>
        <path d="M6 2.88c-1.66 0-3.01 1.307-3.01 2.915C2.99 7.402 4.34 8.71 6 8.71c1.66 0 3.01-1.308 3.01-2.915 0-1.608-1.35-2.916-3.01-2.916zm0 4.787c-1.065 0-1.932-.84-1.932-1.872 0-1.033.867-1.872 1.932-1.872s1.932.84 1.932 1.872S7.065 7.667 6 7.667z"/>
    </g>
</symbol><symbol id="icon-next" viewBox="0 0 14 25">
    <title>
        Shape
    </title>
    <path d="M2 24.2l11.2-11.1c.2-.2.3-.4.3-.6 0-.2-.1-.4-.3-.6L2 .7C1.7.4 1.1.4.8.7c-.3.3-.3.9 0 1.2l10.6 10.6L.7 23c-.3.3-.3.9 0 1.2.4.4.9.4 1.3 0z"/>
</symbol><symbol id="icon-phone" viewBox="0 0 19 18">
    <title>
        phone
    </title>
    <path d="M19 14.8c-.1-.4-.3-.8-.7-1l-4.7-2.6c-.6-.3-1.3-.2-1.8.2l-.9.9c-.2.2-.6.3-.9 0l-2.1-1.8c-.7-.6-1.3-1.3-1.9-2-.3-.2-.3-.6 0-.8l.9-.9c.5-.4.6-1.1.2-1.7L4.4.7c-.2-.4-.6-.6-1-.7-.5 0-.9.1-1.3.4L.7 1.7c-1 .9-1 2.6 0 4.7.9 2.1 2.6 4.3 4.8 6.4 2.2 2.1 4.6 3.7 6.7 4.5 1.1.4 2.1.7 2.9.7.9 0 1.6-.2 2.1-.7l1.4-1.3c.3-.3.4-.8.4-1.2zm-5.7-3.1l4.7 2.6c.2.1.4.3.4.6 0 .2 0 .4-.2.6L12 12.1l.3-.2c.2-.3.6-.3 1-.2zM3.3.6c.3 0 .5.2.6.4l2.7 4.4c.2.3.1.7-.1 1l-.3.2L2.7.7c.1-.1.3-.1.5-.1h.1zm13.4 16.3c-.8.7-2.3.7-4.3-.1-2.1-.8-4.4-2.4-6.5-4.4-2.1-2-3.8-4.2-4.6-6.2-.9-1.8-.9-3.3-.1-4.1l1-1L5.8 7l-.3.3c-.4.4-.5 1.1 0 1.6.6.7 1.3 1.4 2 2.1.7.7 1.4 1.3 2.2 1.9.5.4 1.3.4 1.7-.1l.2-.2 6.2 3.4-1.1.9z"/>
</symbol><symbol id="icon-pinterest" viewBox="0 0 14 18">
    <title>
        Shape
    </title>
    <path d="M13.923 6.355c0-3.11-2.581-6.009-6.503-6.009C2.538.346.078 3.92.078 6.9c0 1.804.668 3.409 2.104 4.006.235.098.446.003.514-.262.047-.184.16-.649.209-.841.07-.263.042-.355-.147-.585-.415-.5-.678-1.144-.678-2.058 0-2.65 1.942-5.022 5.058-5.022 2.758 0 4.275 1.72 4.275 4.018 0 3.025-1.31 5.576-3.258 5.576-1.076 0-1.88-.906-1.621-2.02.308-1.327.906-2.762.906-3.72 0-.858-.45-1.576-1.385-1.576-1.099 0-1.981 1.16-1.981 2.715 0 .99.328 1.66.328 1.66l-1.321 5.715c-.179.776-.206 1.628-.181 2.348.075.647.7 1.173 1.243.464.382-.623.792-1.41 1.005-2.198.127-.467.723-2.883.723-2.883.357.695 1.4 1.308 2.51 1.308 3.302-.002 5.542-3.075 5.542-7.19z" fill-rule="nonzero" opacity=".8"/>
</symbol><symbol id="icon-prev" viewBox="0 0 14 25">
    <title>
        Shape
    </title>
    <path d="M13.2 24.3c.3-.3.3-.9 0-1.2L2.6 12.5 13.2 1.9c.3-.3.3-.9 0-1.2s-.9-.3-1.2 0L.7 11.8c-.2.2-.3.4-.3.6 0 .2.1.4.3.6L12 24.2c.4.4.9.4 1.2.1z"/>
</symbol><symbol id="icon-search" viewBox="0 0 18 18">
    <title>
        search
    </title>
    <path d="M17.726 16.395L13.29 11.94a7.096 7.096 0 0 0 1.766-4.673C15.055 3.26 11.678 0 7.528 0 3.377 0 0 3.26 0 7.267c0 4.008 3.377 7.268 7.528 7.268a7.632 7.632 0 0 0 4.312-1.315l4.471 4.49c.187.187.438.29.708.29a.995.995 0 0 0 .68-.264.926.926 0 0 0 .027-1.34zM7.528 1.895c3.067 0 5.563 2.41 5.563 5.372 0 2.962-2.496 5.372-5.563 5.372-3.068 0-5.564-2.41-5.564-5.372 0-2.961 2.496-5.371 5.564-5.371z" fill-rule="nonzero"/>
</symbol><symbol id="icon-sort-ascending" viewBox="0 0 19 18">
    <title>
        sort-ascending
    </title>
    <path d="M18.345 16.714H9.176a.648.648 0 0 0-.654.643.65.65 0 0 0 .654.643h9.17a.65.65 0 0 0 .654-.643.648.648 0 0 0-.655-.643zM10.281 6.235a.64.64 0 0 0 0-.916L5.735.184a.655.655 0 0 0-.498-.183.654.654 0 0 0-.497.183L.193 5.32a.641.641 0 0 0 0 .916.665.665 0 0 0 .93 0l3.47-3.92V18h1.31V2.34l3.449 3.896a.665.665 0 0 0 .93 0zm.205-3.662h7.86a.664.664 0 0 0 .654-.66.65.65 0 0 0-.655-.644h-7.859a.65.65 0 0 0-.655.644c0 .355.294.66.655.66zm7.86 10.279h-9.17a.65.65 0 0 0-.654.643.65.65 0 0 0 .654.644h9.17a.65.65 0 0 0 .654-.644.649.649 0 0 0-.655-.643zm0-3.861h-9.17a.65.65 0 0 0-.654.643.65.65 0 0 0 .654.644h9.17A.65.65 0 0 0 19 9.634a.649.649 0 0 0-.655-.643zm0-3.861l-5.24.014c-.362 0-.655.274-.655.63a.66.66 0 0 0 .655.655l5.24-.013A.65.65 0 0 0 19 5.773a.649.649 0 0 0-.655-.643z" fill-rule="nonzero"/>
</symbol><symbol id="icon-sort-descending" viewBox="0 0 19 18">
    <title>
        sort-descending
    </title>
    <path d="M18.317 15.43h-7.833a.648.648 0 0 0-.653.643c0 .354.292.642.653.642l7.833-.02c.36 0 .653-.268.653-.622a.647.647 0 0 0-.653-.643zM9.178 1.304l9.139-.001c.36 0 .653-.287.653-.641a.648.648 0 0 0-.653-.642H9.178a.648.648 0 0 0-.653.642c0 .354.293.642.653.642zm1.101 10.455a.661.661 0 0 0-.927 0l-3.438 3.888V.02H4.61v15.65l-3.46-3.91a.661.661 0 0 0-.926 0 .64.64 0 0 0 0 .913l4.531 5.124a.652.652 0 0 0 .496.183.651.651 0 0 0 .497-.183l4.531-5.124a.639.639 0 0 0 .001-.914zm8.038-7.886H9.178a.648.648 0 0 0-.653.642c0 .354.293.636.653.636h9.139c.36 0 .653-.282.653-.636a.647.647 0 0 0-.653-.642zm0 3.852H9.178a.648.648 0 0 0-.653.642c0 .355.293.632.653.632l9.139.01c.36 0 .653-.288.653-.642a.648.648 0 0 0-.653-.642zm0 3.853h-5.222a.647.647 0 0 0-.653.642c0 .354.292.628.653.628h5.222c.36 0 .653-.274.653-.628a.647.647 0 0 0-.653-.642z" fill-rule="nonzero"/>
</symbol><symbol id="icon-spinner-circle" viewBox="0 0 58 56">
    <title>
        spinner-circle
    </title>
    <path d="M58 28.9c-.1-3.9-.9-7.8-2.5-11.3-1.6-3.6-3.8-6.8-6.6-9.4-2.8-2.7-6.1-4.8-9.6-6.2C35.7.6 31.9-.1 28.1 0c-3.8.1-7.6.9-11 2.4-3.5 1.5-6.6 3.7-9.2 6.4-2.6 2.7-4.6 5.9-6 9.3-1.4 3.4-2 7.1-1.9 10.8.1 3.7.9 7.3 2.3 10.6 1.5 3.3 3.6 6.3 6.2 8.8 2.6 2.5 5.7 4.5 9 5.8 3.3 1.3 6.9 1.9 10.5 1.8 3.5-.1 7.1-.8 10.3-2.3 3.2-1.4 6.1-3.5 8.6-6 2.4-2.5 4.3-5.5 5.6-8.7.8-2 1.3-4 1.6-6.1h.2c2.1 0 3.7-1.7 3.7-3.7v-.2zm-5.9 9.9c-1.4 3.1-3.4 5.9-5.8 8.2-2.4 2.3-5.3 4.2-8.4 5.4-3.1 1.2-6.4 1.8-9.8 1.7-3.3-.1-6.6-.8-9.6-2.1s-5.7-3.2-8-5.6c-2.2-2.3-4-5.1-5.2-8.1-1.2-3-1.7-6.2-1.6-9.4.1-3.2.8-6.3 2.1-9.2 1.3-2.9 3.1-5.5 5.4-7.6 2.3-2.2 4.9-3.8 7.8-4.9 2.9-1.1 6-1.6 9-1.6 3.1.1 6.1.8 8.9 2 2.8 1.2 5.3 3 7.3 5.2 2.1 2.2 3.7 4.7 4.8 7.5 1.1 2.8 1.6 5.7 1.5 8.7v.3c0 1.9 1.5 3.5 3.3 3.7-.3 2-.9 4-1.7 5.8z"/>
</symbol><symbol id="icon-star" viewBox="0 0 15 15">
    <title>
        Star
    </title>
    <path d="M7.5 12.4L2.9 15l.9-5.4L0 5.7l5.2-.8L7.5 0l2.3 4.9 5.2.8-3.8 3.9.9 5.4z"/>
</symbol><symbol id="icon-tv" viewBox="0 0 26 25">
    <title>
        tv
    </title>
    <g>
        <path d="M24.2 5.6H13.8L16.9.7c.1-.2.1-.5-.1-.6-.3-.1-.6-.1-.7.1l-3.1 5-3.5-5C9.3 0 9 0 8.8.1c-.1.1-.2.4-.1.6l3.4 4.9H1.7C.8 5.6 0 6.4 0 7.3v14.6c0 .9.8 1.7 1.7 1.7h.4v.9c0 .3.2.4.4.4s.5-.1.5-.4v-.9h19.9v.9c0 .3.2.4.4.4.3 0 .4-.2.4-.4v-.9h.4c1 0 1.7-.8 1.7-1.7V7.3c.2-.9-.6-1.7-1.6-1.7zm.9 16.3c0 .5-.4.9-.9.9H1.7c-.5 0-.9-.4-.9-.9V7.3c0-.5.4-.9.9-.9h22.5c.5 0 .9.4.9.9v14.6z"/>
        <path d="M16.5 7.3H4.3c-1.4 0-2.6 1.2-2.6 2.6v9.5c0 1.4 1.2 2.6 2.6 2.6h12.1c1.4 0 2.6-1.2 2.6-2.6V9.9c.1-1.4-1.1-2.6-2.5-2.6zm1.7 12.1c0 .9-.8 1.7-1.7 1.7H4.3c-1 0-1.7-.8-1.7-1.7V9.9c0-.9.8-1.7 1.7-1.7h12.1c1 0 1.7.8 1.7 1.7l.1 9.5z"/>
        <path d="M23.8 9.5h-3.5c-.3 0-.4.2-.4.4s.2.4.4.4h3.5c.3 0 .4-.2.4-.4s-.1-.4-.4-.4z"/>
        <path d="M23.8 11.2h-3.5c-.3 0-.4.2-.4.4s.2.4.4.4h3.5c.3 0 .4-.2.4-.4s-.1-.4-.4-.4z"/>
        <path d="M23.8 12.9h-3.5c-.3 0-.4.2-.4.4s.2.4.4.4h3.5c.3 0 .4-.2.4-.4s-.1-.4-.4-.4z"/>
        <path d="M23.8 14.6h-3.5c-.3 0-.4.2-.4.4v3.4c0 .3.2.4.4.4h3.5c.3 0 .4-.2.4-.4V15c0-.2-.1-.4-.4-.4zm-.4 3.5h-2.6v-2.6h2.6v2.6z"/>
    </g>
</symbol><symbol id="icon-twitter" viewBox="0 0 16 14">
    <title>
        Shape
    </title>
    <path d="M14.432 4.018a9.83 9.83 0 0 0-.01-.45 6.814 6.814 0 0 0 1.655-1.778 6.35 6.35 0 0 1-1.904.52A3.402 3.402 0 0 0 15.631.407c-.641.388-1.35.667-2.104.811a3.297 3.297 0 0 0-2.42-1.141C9.278.047 7.795 1.593 7.795 3.53c0 .275.029.543.086.8C5.124 4.154 2.682 2.72 1.048.557A3.67 3.67 0 0 0 .6 2.33c0 1.227.585 2.318 1.474 2.961a3.172 3.172 0 0 1-1.502-.46v.046c0 1.715 1.143 3.153 2.66 3.488a3.139 3.139 0 0 1-1.497.05c.422 1.406 1.646 2.433 3.096 2.467A6.396 6.396 0 0 1-.076 12.33a8.94 8.94 0 0 0 5.081 1.593c6.095.002 9.427-5.303 9.427-9.905z" fill-rule="nonzero" opacity=".8"/>
</symbol><symbol id="icon-wifi" viewBox="0 0 39 31">
    <title>
        wifi
    </title>
    <g>
        <path d="M38.7 9.2C33.6 3.7 26.7.7 19.4.7S5.3 3.7.2 9.2c-.3.3-.3.8 0 1.1s.7.3 1 0C6.1 5 12.6 2.2 19.5 2.2s13.4 2.8 18.2 8c.1.1.3.2.5.2s.4-.1.5-.2c.3-.3.3-.7 0-1z"/>
        <path d="M4.4 13.6c-.3.3-.3.8 0 1.1.1.1.3.2.5.2s.4-.1.5-.2c7.8-8.3 20.4-8.3 28.2 0 .3.3.7.3 1 0s.3-.8 0-1.1c-8.4-8.9-21.9-8.9-30.2 0z"/>
        <path d="M19.5 13.2c-4.1 0-8 1.7-10.9 4.8-.3.3-.3.8 0 1.1.3.3.7.3 1 0 2.6-2.8 6.2-4.4 9.9-4.4s7.3 1.6 9.9 4.4c.1.1.3.2.5.2s.4-.1.5-.2c.3-.3.3-.8 0-1.1-2.9-3.1-6.8-4.8-10.9-4.8z"/>
        <path d="M19.5 20.4c-2.6 0-4.6 2.2-4.6 5s2.1 5 4.6 5c2.6 0 4.6-2.2 4.6-5s-2.1-5-4.6-5zm0 8.3c-1.8 0-3.2-1.5-3.2-3.4s1.4-3.4 3.2-3.4c1.8 0 3.2 1.5 3.2 3.4s-1.5 3.4-3.2 3.4z"/>
    </g>
</symbol></svg>