<?xml version="1.0" encoding="UTF-8"?><!DOCTYPE svg PUBLIC "-//W3C//DTD SVG 1.1//EN" "http://www.w3.org/Graphics/SVG/1.1/DTD/svg11.dtd"><svg xmlns="http://www.w3.org/2000/svg"><symbol id="icon-adults" viewBox="0 0 21 23">
    <title>
        adults
    </title>
    <g>
        <ellipse cx="5.9" cy="14.2" rx="1" ry="1"/>
        <ellipse cx="15.1" cy="14.2" rx="1" ry="1"/>
        <path d="M5.9 11.6c-.5 0-.9.2-1.2.5-.2.2-.2.4 0 .6s.5.2.6 0c.2-.1.4-.2.6-.2s.4.1.6.2c.1.1.2.1.3.1.1 0 .2 0 .3-.1.2-.2.2-.4 0-.6-.3-.4-.7-.5-1.2-.5z"/>
        <path d="M13.9 12.1c-.2.2-.2.4 0 .6.2.2.5.2.6 0 .3-.3.8-.3 1.1 0 .1.1.2.1.3.1s.2 0 .3-.1c.2-.2.2-.4 0-.6-.6-.7-1.6-.7-2.3 0z"/>
        <path d="M11.4 17.6c-.2.2-.5.3-.9.3-.3 0-.6-.1-.9-.3-.2-.2-.5-.2-.6 0-.2.2-.2.4 0 .6.4.4.9.6 1.5.6s1.1-.2 1.5-.6c.2-.2.2-.4 0-.6-.2-.2-.5-.2-.6 0z"/>
        <path d="M21 13.8c0-1.2-.9-2.2-2-2.4V4.2c0-.9-.5-1.8-1.3-2.3-.8-.5-1.7-.6-2.5-.3L12.4.7C10.2-.1 8-.2 5.8.4 3 1.1 1.5 2.7 1.2 5c-.2.2-.4.6-.5.9l-.2.6c-.1.3 0 .7.3.9.3.2.7.2.9-.1.1-.1.2-.2.3-.2v4.3c-1.1.2-2 1.2-2 2.4s1 2.2 2.2 2.3c.3 1.6 1.1 3.2 2.3 4.4 1.6 1.6 3.7 2.5 6 2.5s4.4-.9 6-2.4c1.2-1.2 2.1-2.7 2.4-4.4C20.1 16 21 15 21 13.8zM17.2 2.5c.6.4.9 1 .9 1.6v5.7c-1.4-.2-2.4-1.4-2.4-2.8V2.2c.5-.1 1 0 1.5.3zM1.5 6.4l.1-.2c.2-.7.7-1.2 1.3-1.5.6-.3 1.4-.3 2 0 1.3.6 3 .3 4-.8l.1-.1c.2-.2.1-.5 0-.6-.2-.2-.5-.1-.6 0l-.2.2c-.7.8-1.9 1-2.9.6-.9-.4-1.9-.4-2.8 0h-.2C2.8 2.7 4.1 1.7 6 1.2c2-.5 4-.5 6 .2l2.6.9v2.2c-1.2 1.6-2.9 2.6-4.9 3-2 .4-4.1 0-5.8-1.1-.6-.5-1.6-.5-2.4 0zm-.6 7.4c0-.7.5-1.3 1.1-1.5v2.9c-.6-.1-1.1-.7-1.1-1.4zm15 6.1c-1.4 1.4-3.3 2.2-5.4 2.2-2 0-3.9-.8-5.4-2.2-1.4-1.4-2.2-3.3-2.2-5.3V6.9c.3 0 .5.1.7.2C5.5 8.3 7.8 8.7 10 8.3c1.8-.3 3.4-1.2 4.7-2.5V7c0 1.9 1.5 3.4 3.3 3.6v4c.1 2.1-.7 3.9-2.1 5.3zm3.1-4.7v-2.9c.7.2 1.1.8 1.1 1.5s-.5 1.3-1.1 1.4z"/>
    </g>
</symbol><symbol id="icon-alarm-clock" viewBox="0 0 34 34">
    <title>
        alarm-clock
    </title>
    <g>
        <path d="M23.1 16.8H19c-.2-.8-.8-1.4-1.6-1.6V9.3c0-.3-.3-.6-.6-.6s-.6.3-.6.6v5.8c-1 .3-1.7 1.2-1.7 2.2 0 1.3 1 2.3 2.3 2.3 1.1 0 2-.7 2.2-1.7h4.1c.3 0 .6-.3.6-.6s-.3-.5-.6-.5zm-6.3 1.7c-.6 0-1.2-.5-1.2-1.2 0-.6.5-1.2 1.2-1.2s1.2.5 1.2 1.2c-.1.7-.6 1.2-1.2 1.2z"/>
        <path d="M28.9 5.6L31.3 8c.1.1.3.2.4.2s.3-.1.4-.2c1.8-1.8 1.8-4.8 0-6.6s-4.8-1.8-6.6 0c-.1.1-.2.3-.2.4s.1.3.2.4l2.6 2.6-1 1c-2.8-2.5-6.4-4-10.4-4s-7.6 1.5-10.4 4l-1-1L8 2.2c.1-.1.2-.3.2-.4s-.1-.3-.2-.4C6.2-.4 3.2-.4 1.4 1.4S-.4 6.2 1.4 8c.1.1.3.2.4.2s.3-.1.4-.2l2.4-2.4 1 1c-2.7 2.8-4.4 6.6-4.4 10.8 0 5.7 3.1 10.7 7.7 13.4l-1.7 1.7c-.2.2-.2.6 0 .8.1.1.3.2.4.2.1 0 .3-.1.4-.2l2-2c2.1 1 4.4 1.6 6.8 1.6s4.8-.6 6.8-1.6l2 2c.1.1.3.2.4.2s.3-.1.4-.2c.2-.2.2-.6 0-.8l-1.7-1.7c4.6-2.7 7.7-7.7 7.7-13.4 0-4.2-1.7-8-4.4-10.8l.9-1zm2.4-3.4c1.2 1.2 1.4 3.2.4 4.5l-4.9-4.9c1.3-1 3.2-.9 4.5.4zM1.9 6.7c-1-1.3-.9-3.3.3-4.5S5.4.8 6.7 1.8L1.9 6.7zm14.9 25.1c-7.9 0-14.4-6.5-14.4-14.4S8.8 3 16.8 3s14.4 6.5 14.4 14.4-6.5 14.4-14.4 14.4z"/>
        <path d="M16.8 5.8c.3 0 .6-.3.6-.6v-.6c0-.3-.3-.6-.6-.6s-.6.3-.6.6v.6c0 .3.2.6.6.6z"/>
        <path d="M16.8 28.8c-.3 0-.6.3-.6.6v.6c0 .3.3.6.6.6s.6-.3.6-.6v-.6c-.1-.3-.3-.6-.6-.6z"/>
        <path d="M28.9 17.9h.6c.3 0 .6-.3.6-.6s-.3-.6-.6-.6h-.6c-.3 0-.6.3-.6.6s.2.6.6.6z"/>
        <path d="M4.7 16.7h-.6c-.3 0-.6.3-.6.6s.3.6.6.6h.6c.3 0 .6-.3.6-.6s-.3-.6-.6-.6z"/>
        <path d="M25.3 7.9l-.4.4c-.2.2-.2.6 0 .8.1.1.3.2.4.2s.3-.1.4-.2l.4-.4c.2-.2.2-.6 0-.8-.2-.2-.6-.2-.8 0z"/>
        <path d="M7.8 25.5l-.4.4c-.2.2-.2.6 0 .8.1.1.3.2.4.2s.3-.1.4-.2l.4-.4c.2-.2.2-.6 0-.8-.2-.3-.6-.3-.8 0z"/>
        <path d="M25.7 25.5c-.2-.2-.6-.2-.8 0-.2.2-.2.6 0 .8l.4.4c.1.1.3.2.4.2.1 0 .3-.1.4-.2.2-.2.2-.6 0-.8l-.4-.4z"/>
        <path d="M8.2 7.9c-.2-.2-.6-.2-.8 0-.2.2-.2.6 0 .8l.4.4c.1.1.3.2.4.2.1 0 .3-.1.4-.2.2-.2.2-.6 0-.8l-.4-.4z"/>
    </g>
</symbol><symbol id="icon-breakfast" viewBox="0 0 34 34">
    <title>
        breakfast
    </title>
    <g>
        <path d="M33.7 4.8c-.2-.1-.4-.1-.6.1l-1 .7c-.6.5-1.2 1.1-1.7 1.7-3-4.6-8-7.3-13.4-7.3-4.2 0-8.3 1.7-11.3 4.7H4.5V10H3.4V4.7H2.3V10H1.1V4.7H0V11.8c0 .8.5 1.4 1.1 1.6l-.9 13c-.1.9.3 2 .9 2.7.5.5 1 .8 1.6.8h.1c.6 0 1.2-.3 1.7-.8.1-.2.3-.3.4-.5C8 32 12.4 34 17 34c4.7 0 9.2-2.1 12.3-5.8.1.3.2.6.4.8.5.5 1.1.8 1.8.8 1.3 0 2.4-1.1 2.4-2.5v-22c.1-.2 0-.4-.2-.5zM4.3 26.9c0 .1 0 .2-.1.2-.1.4-.3.8-.6 1.2-.2.2-.5.4-.8.5h-.1c-.4 0-.7-.3-.9-.5-.4-.5-.7-1.2-.6-1.8l.9-12.9h1.2l.9 13c.2 0 .1.1.1.3zm.2-15.2c0 .3-.3.6-.6.6H1.7c-.3 0-.6-.3-.6-.6v-.6h3.4v.6zm25.2 9.8l-.5 5c-2.9 4-7.4 6.3-12.2 6.3-4.5 0-8.7-2-11.6-5.5 0-.2.1-.3.1-.5v-.1-.4l-.9-13h.1c.1 0 .1-.1.2-.1 0 0 .1 0 .1-.1.1 0 .1-.1.2-.2h.1c.1-.1.1-.2.2-.2v-.1c0-.1.1-.1.1-.2v-.1c0-.1 0-.1.1-.2V12 6.4c2.9-3.3 7-5.2 11.3-5.2 5.2 0 10 2.7 12.8 7.2l-.3.6c-.7 1.3-1.1 2.8-1.1 4.4v1.5c0 .8.3 1.5.8 2.1l.8.9-.3 3.6zm3.2 5.9c0 .7-.6 1.3-1.3 1.3-.4 0-.7-.2-1-.5-.2-.3-.4-.7-.3-1.1v-.4l.6-6.9.2-1.7h1.8v9.3zm0-10.4h-2l-.9-.9c-.3-.3-.5-.8-.5-1.2v-1.5c0-1.3.3-2.6 1-3.8l.4-.7.1-.3c.5-.8 1.1-1.6 1.9-2.1V17z"/>
        <path d="M25.7 7.9c-.3-.3-.6-.7-.7-1-.2-.3-.3-.8-.5-1.2-.3-.9-.6-1.9-1.5-2.4-.8-.5-1.8-.3-2.7-.1-.5.1-.9.2-1.3.2s-.8-.1-1.3-.2c-.9-.2-1.9-.4-2.7.1-.9.5-1.2 1.5-1.5 2.4-.1.4-.3.9-.5 1.2-.2.3-.5.6-.7 1-.6.7-1.3 1.5-1.3 2.6s.7 1.9 1.3 2.6c.3.3.6.7.7 1 .2.3.3.8.5 1.2.3.9.6 1.9 1.5 2.4.8.5 1.8.3 2.7.1.5-.1.9-.2 1.3-.2s.8.1 1.3.2 1 .2 1.5.2c.4 0 .8-.1 1.2-.3.9-.5 1.2-1.5 1.5-2.4.1-.4.3-.9.5-1.2.2-.3.5-.6.7-1 .6-.7 1.3-1.5 1.3-2.6s-.7-1.9-1.3-2.6zm-.9 4.4c-.3.4-.7.8-.9 1.2-.2.4-.4.9-.6 1.4-.2.8-.5 1.5-1 1.8-.5.3-1.2.1-1.9 0-.5-.1-1-.2-1.5-.2s-1 .1-1.5.2c-.7.2-1.5.3-1.9 0-.5-.3-.7-1-1-1.8-.2-.5-.3-1-.6-1.4-.2-.4-.6-.8-.9-1.2-.5-.6-1-1.2-1-1.8s.5-1.2 1-1.8c.5-.4.8-.7 1-1.2.2-.4.4-.9.6-1.4.2-.8.5-1.5 1-1.8.2-.1.4-.2.7-.2.4 0 .8.1 1.2.2.5.1 1 .2 1.5.2s1-.1 1.5-.2c.7-.2 1.5-.3 1.9 0 .5.3.7 1 1 1.8.2.5.3 1 .6 1.4.2.4.6.8.9 1.2.5.6 1 1.2 1 1.8s-.5 1.2-1.1 1.8z"/>
        <path d="M19.5 7C17.6 7 16 8.6 16 10.5s1.6 3.5 3.5 3.5 3.5-1.6 3.5-3.5S21.4 7 19.5 7zm0 5.8c-1.3 0-2.3-1-2.3-2.3s1-2.3 2.3-2.3 2.3 1 2.3 2.3-1 2.3-2.3 2.3z"/>
        <path d="M21.4 19h-9.9c-.2 0-.4.1-.5.4-.1.2 0 .5.1.6l.2.2H6.6c-.2 0-.4.1-.5.4-.1.1-.1.4.1.5l9.9 9.7c.1.1.2.2.4.2h.2c.2-.1.3-.3.3-.5v-4.7l4 3.9c.1.1.2.2.4.2h.2c.2-.1.3-.3.3-.5v-9.7c.1-.4-.1-.7-.5-.7zm-5.5 10.1l-8-7.8h4.5l3.5 3.4v4.4zm5-1.1l-8-7.8h8V28z"/>
    </g>
</symbol><symbol id="icon-calendar" viewBox="0 0 20 20">
    <title>
        calendar
    </title>
    <g fill-rule="nonzero">
        <path d="M19.79 3.607c-.116-.525-.418-.984-.813-1.334a3.525 3.525 0 0 0-2.419-.94h-1.442V.415A.429.429 0 0 0 14.674 0c-.232 0-.441.175-.441.415v.896H5.814V.415A.429.429 0 0 0 5.372 0C5.14 0 4.93.175 4.93.415v.896H3.488c-.72 0-1.372.197-1.93.547-.186.11-.349.24-.511.393-.628.59-1 1.4-1 2.274v12.262c0 .896.395 1.705 1 2.273.627.59 1.488.94 2.418.94h13.07a3.54 3.54 0 0 0 2.418-.94c.628-.59 1-1.399 1-2.273V4.568c0-.328-.046-.655-.162-.961zm-.674 13.202c0 .677-.279 1.29-.744 1.727-.465.437-1.116.699-1.814.699H3.488a2.654 2.654 0 0 1-1.814-.7 2.342 2.342 0 0 1-.744-1.704V7.148h18.186v9.66zm.024-10.47H.93V4.546c0-.655.28-1.267.744-1.704a2.654 2.654 0 0 1 1.814-.7H4.93v.896c0 .219.186.416.442.416.233 0 .442-.175.442-.416v-.896h8.442v.896c0 .219.186.416.442.416.232 0 .442-.175.442-.416v-.896h1.441c.698 0 1.35.262 1.814.7.35.327.605.743.698 1.224.023.153.047.327.047.48V6.34z"/>
        <path d="M4.326 10.863c.372 0 .72-.153.976-.371a1.25 1.25 0 0 0 .396-.918c0-.35-.163-.678-.396-.918a1.527 1.527 0 0 0-.976-.372c-.373 0-.721.153-.977.372a1.25 1.25 0 0 0-.396.918c0 .35.163.677.396.918.256.24.604.371.977.371zM3.93 9.224a.509.509 0 0 1 .372-.131c.14 0 .28.044.372.131.093.087.14.197.14.35.023.153-.047.262-.14.35a.509.509 0 0 1-.372.13.548.548 0 0 1-.372-.13.447.447 0 0 1-.14-.35.48.48 0 0 1 .14-.35z"/>
        <path d="M8.116 10.863c.372 0 .721-.153.977-.371a1.25 1.25 0 0 0 .395-.918c0-.35-.162-.678-.395-.918s-.581-.372-.977-.372c-.372 0-.72.153-.976.372a1.25 1.25 0 0 0-.396.918c0 .35.163.677.396.918.255.24.604.371.976.371zm-.372-1.639a.509.509 0 0 1 .372-.131c.14 0 .28.044.372.131.093.087.14.197.14.35a.447.447 0 0 1-.14.35.509.509 0 0 1-.372.13.548.548 0 0 1-.372-.13.447.447 0 0 1-.14-.35.48.48 0 0 1 .14-.35z"/>
        <path d="M11.93 10.863c.372 0 .721-.153.977-.371a1.25 1.25 0 0 0 .395-.918c0-.35-.162-.678-.395-.918s-.605-.372-.977-.372-.72.153-.977.372c-.255.218-.395.568-.395.918 0 .35.163.677.395.918.256.24.605.371.977.371zm-.372-1.617a.509.509 0 0 1 .372-.131c.14 0 .28.043.372.13a.454.454 0 0 1-.023.678.509.509 0 0 1-.372.132.548.548 0 0 1-.372-.132.516.516 0 0 1 .023-.677z"/>
        <path d="M15.72 10.863c.373 0 .722-.153.978-.371a1.25 1.25 0 0 0 .395-.918c0-.35-.163-.678-.395-.918a1.434 1.434 0 0 0-.977-.372c-.372 0-.721.153-.977.372a1.25 1.25 0 0 0-.395.918c0 .35.163.677.395.918.256.24.605.371.977.371zm-.371-1.639a.509.509 0 0 1 .372-.131c.14 0 .279.044.372.131.093.087.14.197.14.35a.447.447 0 0 1-.14.35.509.509 0 0 1-.372.13.548.548 0 0 1-.372-.13.447.447 0 0 1-.14-.35.48.48 0 0 1 .14-.35z"/>
        <path d="M4.326 14.448c.372 0 .72-.153.976-.371a1.25 1.25 0 0 0 .396-.919c0-.35-.163-.677-.396-.918a1.418 1.418 0 0 0-.976-.371c-.373 0-.721.153-.977.371a1.25 1.25 0 0 0-.396.918c0 .35.163.678.396.919.256.24.604.371.977.371zm-.396-1.64a.509.509 0 0 1 .372-.13c.14 0 .28.043.372.13.093.088.14.197.14.35.023.132-.047.263-.14.35a.509.509 0 0 1-.372.131.548.548 0 0 1-.372-.13.447.447 0 0 1-.14-.35.48.48 0 0 1 .14-.35z"/>
        <path d="M8.116 14.448c.372 0 .721-.153.977-.371.256-.22.395-.569.395-.919 0-.35-.162-.677-.395-.918-.233-.24-.581-.371-.977-.371-.372 0-.72.153-.976.371a1.25 1.25 0 0 0-.396.918c0 .35.163.678.396.919.255.24.604.371.976.371zm-.372-1.64a.509.509 0 0 1 .372-.13c.14 0 .28.043.372.13.093.088.14.197.14.35a.48.48 0 0 1-.14.35.509.509 0 0 1-.372.131.548.548 0 0 1-.372-.13.447.447 0 0 1-.14-.35.48.48 0 0 1 .14-.35z"/>
        <path d="M11.93 14.448c.372 0 .721-.153.977-.371.256-.22.395-.569.395-.919 0-.35-.162-.677-.395-.918-.233-.24-.605-.371-.977-.371s-.72.153-.977.371c-.255.219-.395.569-.395.918 0 .35.163.678.395.919.233.24.605.371.977.371zm-.395-1.64a.509.509 0 0 1 .372-.13c.14 0 .279.043.372.13.093.088.14.197.14.35.023.132-.047.263-.14.35a.509.509 0 0 1-.372.131.548.548 0 0 1-.372-.13.447.447 0 0 1-.14-.35.48.48 0 0 1 .14-.35z"/>
        <path d="M15.72 14.448c.373 0 .722-.153.978-.371a1.25 1.25 0 0 0 .395-.919c0-.35-.163-.677-.395-.918-.233-.24-.582-.371-.977-.371-.372 0-.721.153-.977.371a1.25 1.25 0 0 0-.395.918c0 .35.163.678.395.919.256.24.605.371.977.371zm-.371-1.64a.509.509 0 0 1 .372-.13c.14 0 .279.043.372.13.093.088.14.197.14.35a.48.48 0 0 1-.14.35.509.509 0 0 1-.372.131.548.548 0 0 1-.372-.13.447.447 0 0 1-.14-.35.48.48 0 0 1 .14-.35z"/>
        <path d="M4.326 17.99c.372 0 .72-.154.976-.373a1.25 1.25 0 0 0 .396-.918c0-.35-.163-.677-.396-.918a1.418 1.418 0 0 0-.976-.371c-.373 0-.721.153-.977.371a1.25 1.25 0 0 0-.396.918c0 .35.163.678.396.918.256.24.604.372.977.372zm-.396-1.64a.509.509 0 0 1 .372-.131c.14 0 .28.043.372.13.093.088.14.197.14.35.023.132-.047.263-.14.35a.509.509 0 0 1-.372.131.548.548 0 0 1-.372-.13.447.447 0 0 1-.14-.35.48.48 0 0 1 .14-.35z"/>
        <path d="M8.116 17.99c.372 0 .721-.154.977-.373.256-.218.395-.568.395-.918 0-.35-.162-.677-.395-.918-.233-.24-.581-.371-.977-.371-.372 0-.72.153-.976.371a1.25 1.25 0 0 0-.396.918c0 .35.163.678.396.918.255.24.604.372.976.372zm-.372-1.64a.509.509 0 0 1 .372-.131c.14 0 .28.043.372.13.093.088.14.197.14.35a.48.48 0 0 1-.14.35.509.509 0 0 1-.372.131.548.548 0 0 1-.372-.13.447.447 0 0 1-.14-.35.48.48 0 0 1 .14-.35z"/>
        <path d="M11.93 17.99c.372 0 .721-.154.977-.373.256-.218.395-.568.395-.918 0-.35-.162-.677-.395-.918a1.418 1.418 0 0 0-.977-.371c-.372 0-.72.153-.977.371a1.25 1.25 0 0 0-.395.918c0 .35.163.678.395.918.233.24.605.372.977.372zm-.395-1.64a.509.509 0 0 1 .372-.131c.14 0 .279.043.372.13.093.088.14.197.14.35.023.132-.047.263-.14.35a.509.509 0 0 1-.372.131.548.548 0 0 1-.372-.13.447.447 0 0 1-.14-.35.48.48 0 0 1 .14-.35z"/>
        <path d="M15.72 17.99c.373 0 .722-.154.978-.373a1.25 1.25 0 0 0 .395-.918c0-.35-.163-.677-.395-.918-.233-.24-.582-.371-.977-.371-.372 0-.721.153-.977.371a1.25 1.25 0 0 0-.395.918c0 .35.163.678.395.918.256.24.605.372.977.372zm-.371-1.64a.509.509 0 0 1 .372-.131c.14 0 .279.043.372.13.093.088.14.197.14.35a.48.48 0 0 1-.14.35.509.509 0 0 1-.372.131.548.548 0 0 1-.372-.13.447.447 0 0 1-.14-.35.48.48 0 0 1 .14-.35z"/>
    </g>
</symbol><symbol id="icon-chat" viewBox="0 0 21 19">
    <title>
        chat
    </title>
    <g fill-rule="nonzero">
        <path d="M18.925.182L6.975.158C5.832.158 4.9 1.06 4.9 2.17v1.738l-2.825.006C.931 3.914 0 4.816 0 5.926v7.173c0 1.11.931 2.012 2.075 2.012H4.2v3.393c0 .14.089.266.224.316a.356.356 0 0 0 .385-.088l3.396-3.622 5.82-.023c1.144 0 2.075-.902 2.075-2.012v-.038L17.941 15a.354.354 0 0 0 .385.088.34.34 0 0 0 .224-.317V11.38h.374c1.145 0 2.076-.903 2.076-2.012V2.193c0-1.109-.93-2.011-2.075-2.011zM15.4 13.074c0 .736-.617 1.334-1.377 1.334l-5.974.024a.355.355 0 0 0-.258.11L4.9 17.625v-2.854a.345.345 0 0 0-.35-.34H2.075c-.758 0-1.375-.598-1.375-1.333V5.926c0-.736.617-1.334 1.376-1.334l3.174-.006 8.705-.018h.07c.758 0 1.375.599 1.375 1.334V13.074zm4.9-3.708c0 .735-.617 1.333-1.376 1.333H18.2a.344.344 0 0 0-.35.34v2.854l-1.75-1.866V5.902c0-1.11-.931-2.012-2.076-2.012h-.036L5.6 3.907V2.169c0-.735.617-1.333 1.375-1.333l11.95.024c.758 0 1.375.598 1.375 1.333v7.173z"/>
        <path d="M4.2 8.295c-.772 0-1.4.609-1.4 1.357 0 .749.628 1.357 1.4 1.357.772 0 1.4-.608 1.4-1.357 0-.748-.628-1.357-1.4-1.357zm0 2.036a.69.69 0 0 1-.7-.679.69.69 0 0 1 .7-.678c.386 0 .7.304.7.678a.69.69 0 0 1-.7.679z"/>
        <path d="M8.05 8.295c-.772 0-1.4.609-1.4 1.357 0 .749.628 1.357 1.4 1.357.772 0 1.4-.608 1.4-1.357 0-.748-.628-1.357-1.4-1.357zm0 2.036a.69.69 0 0 1-.7-.679.69.69 0 0 1 .7-.678c.386 0 .7.304.7.678a.69.69 0 0 1-.7.679z"/>
        <path d="M11.9 8.295c-.772 0-1.4.609-1.4 1.357 0 .749.628 1.357 1.4 1.357.772 0 1.4-.608 1.4-1.357 0-.748-.628-1.357-1.4-1.357zm0 2.036a.69.69 0 0 1-.7-.679.69.69 0 0 1 .7-.678c.386 0 .7.304.7.678a.69.69 0 0 1-.7.679z"/>
    </g>
</symbol><symbol id="icon-check" viewBox="0 0 10 8">
    <title>
        Shape
    </title>
    <path d="M4.5 7.6c-.5.5-1.2.5-1.6 0L.3 4.9c-.5-.5-.5-1.3 0-1.8s1.2-.5 1.6 0l1.5 1.6c.1.1.3.1.4 0L8 .4c.5-.5 1.2-.5 1.6 0 .3.2.4.5.4.8s-.1.7-.3.9L4.5 7.6z"/>
</symbol><symbol id="icon-children" viewBox="0 0 22 20">
    <title>
        children
    </title>
    <g>
        <ellipse cx="6.4" cy="12.3" rx="1" ry="1"/>
        <ellipse cx="15.5" cy="12.3" rx="1" ry="1"/>
        <path d="M21.9 11.9c0-1.3-.9-2.3-2.1-2.6V9c0-4.9-4-9-8.9-9-4.8 0-8.8 4-8.8 9v.4C.9 9.6 0 10.6 0 11.9s.9 2.4 2.1 2.6c.2 2 1.1 3.4 2.7 4.3 1.4.8 3.4 1.2 6.2 1.2 2.7 0 4.7-.4 6.2-1.2 1.6-.9 2.5-2.4 2.7-4.3 1.1-.2 2-1.3 2-2.6zm-21 0c0-.8.5-1.4 1.2-1.6v3.2c-.7-.2-1.2-.8-1.2-1.6zm18 1.8c0 2-.7 3.4-2.2 4.3-1.3.7-3.2 1.1-5.7 1.1s-4.5-.4-5.7-1.1C3.8 17.1 3 15.8 3 13.7V9c0-3.6 2.4-6.7 5.7-7.7 2.5 0 3.8 1.9 3.8 3.2 0 1-.8 1.8-1.8 1.8-.7 0-1.4-.6-1.4-1.4 0-.6.4-1 1-1 .3 0 .5-.2.5-.5s-.2-.4-.5-.4c-1 0-1.9.9-1.9 1.9 0 1.3 1 2.3 2.3 2.3 1.5 0 2.7-1.2 2.7-2.7 0-1-.5-2-1.3-2.7-.3-.3-.7-.6-1.1-.8 4.3.1 7.8 3.6 7.8 8v4.7zm.9-.2v-3.2c.7.2 1.2.8 1.2 1.6s-.5 1.4-1.2 1.6z"/>
        <path d="M12.7 13.5c-1 1-2.5 1-3.5 0-.2-.2-.5-.2-.6 0-.2.2-.2.5 0 .6.7.7 1.5 1 2.4 1 .9 0 1.7-.3 2.4-1 .2-.2.2-.5 0-.6-.2-.1-.5-.1-.7 0z"/>
    </g>
</symbol><symbol id="icon-cocktail" viewBox="0 0 34 34">
    <title>
        cocktail
    </title>
    <path d="M33.7 2.8L29.6.2c-.1-.2-.3-.2-.4-.2-.2 0-.3.2-.4.3l-3.1 6.4H15.1C14.8 3 11.6 0 7.6 0 3.4 0 0 3.3 0 7.4s3.4 7.4 7.6 7.4c1.5 0 2.9-.4 4.1-1.2l7.3 9.3v6.4l-5.6 3.6c-.3.1-.4.4-.4.7.1.3.3.4.6.4h11.8c.3 0 .5-.2.6-.4.1-.3 0-.5-.3-.7l-5.6-3.6V23l3.4-4.4c.2-.3.2-.6-.1-.8-.3-.2-.7-.1-.9.1l-3.1 3.9-9.1-11.7h5.9c.3 0 .6-.3.6-.6s-.3-.6-.6-.6H15c.1-.3.1-.6.1-.9H25l-.4.9h-6.2c-.3 0-.6.3-.6.6s.3.6.6.6h10.2l-4.7 6.1c-.2.3-.2.6.1.8.3.2.7.1.9-.1L32 7.8c.1-.2.2-.4.1-.6-.1-.2-.3-.3-.6-.3H27l2.6-5.3L33 3.8c.3.2.7.1.9-.2.2-.3.1-.7-.2-.8zM19.5 30.4l3.8 2.4h-7.7l3.9-2.4zM13.7 8.9H9.5L8.8 8h5.1c0 .3-.1.6-.2.9zM7.6 6.8c-.3 0-.5.1-.6.3-.1.2-.1.5.1.7l3.8 4.9c-1 .6-2.1.9-3.3.9-3.5 0-6.3-2.8-6.3-6.2 0-3.4 2.8-6.2 6.3-6.2 3.3 0 6 2.5 6.3 5.6H7.6zM30.3 8l-.7.9H26l.4-.9h3.9z"/>
</symbol><symbol id="icon-down" viewBox="0 0 11 6">
    <title>
        Shape
    </title>
    <path d="M10.9.1c-.2-.2-.4-.2-.5 0l-4.9 5L.7.1C.5 0 .3 0 .1.1S0 .5.1.7l5.1 5.2c.1.1.2.1.3.1.1 0 .2 0 .3-.1L10.9.7c.1-.2.1-.4 0-.6z"/>
</symbol><symbol id="icon-logo-waves" viewBox="0 0 37 12">
    <title>
        logo-waves
    </title>
    <path d="M36.8 5c-.4-.2-1.2.9-1.4 1.2-.6.6-1.2 1.2-1.9 1.6C31.9 8.9 30.4 9 28.6 9c-3.8 0-7.7-1.9-11.3-3-3.8-1-7.9-1.3-11.7-.3-1.7.4-3.5 1.3-4.4 2.8-.5.8-1.9 2.6-.7 3.4.4.3.7-1 .9-1.2.4-.8 1.3-1.2 2-1.7 1.2-.9 3.3-1.4 4.8-1.4 2.1 0 4.4-.4 6.4.3 1.6.5 3.3.9 5 1.5 1.9.6 3.7 1.3 5.6 1.7 1.1.2 2.1.4 3.2.4.8 0 1.7-.2 2.5-.1.5-.4 1.5-.4 2-1 .8-.2 1.3-.9 2-1.3s2.3-2.8 2.1-3.7c0-.3-.1-.3-.2-.4z"/>
    <path d="M36.8 0c-.4-.2-1.2.9-1.4 1.2-.6.6-1.2 1.2-1.9 1.6C31.9 3.9 30.4 4 28.6 4c-3.8 0-7.7-1.9-11.3-3C13.5 0 9.4-.3 5.6.7 3.9 1.1 2.1 2 1.2 3.5.7 4.3-.7 6.1.5 6.9c.4.3.7-1 .9-1.2.4-.8 1.3-1.2 2-1.7 1.2-.9 3.3-1.4 4.8-1.4 2.1 0 4.4-.4 6.4.3 1.6.5 3.3.9 5 1.5 1.9.6 3.7 1.3 5.6 1.7 1.1.2 2.1.4 3.2.4.8 0 1.7-.2 2.5-.1.5-.4 1.5-.4 2-1 .8-.2 1.3-.9 2-1.3S37.2 1.3 37 .4c0-.3-.1-.3-.2-.4z"/>
</symbol><symbol id="icon-mail" viewBox="0 0 19 13">
    <title>
        mail
    </title>
    <g>
        <path d="M14.869 9.917c-.1 0-.1 0-.2-.1l-3.4-3c-.1-.1-.1-.3 0-.4.1-.2.3-.2.4-.1l3.4 3.1c.1.1.1.3 0 .4 0 0-.1.1-.2.1z"/>
        <path d="M3.469 9.917c-.1 0-.2 0-.2-.1-.1-.1-.1-.3 0-.4l3.4-3.1c.2-.1.4-.1.5.1.1.1.1.3 0 .4l-3.5 3c0 .1-.1.1-.2.1z"/>
        <path d="M16.9 12.7H1.5c-.8 0-1.5-.6-1.5-1.4V1.7C0 .9.7.3 1.5.3h15.4c.8 0 1.5.6 1.5 1.4v9.6c0 .8-.7 1.4-1.5 1.4zM1.5.8c-.5 0-.9.4-.9.9v9.6c0 .5.4.8.9.8h15.4c.5 0 .9-.4.9-.8V1.7c0-.5-.4-.8-.9-.8H1.5z"/>
        <path d="M9.2 7.9c-.4 0-.8-.1-1.1-.4L.5 1.2C.4 1.1.4.9.5.8.6.7.8.7.9.8l7.6 6.3c.4.3 1 .3 1.4 0L17.5.8c.1-.1.3-.1.4 0 .1.1.1.3 0 .4l-7.6 6.3c-.3.3-.7.4-1.1.4z"/>
    </g>
</symbol><symbol id="icon-next" viewBox="0 0 14 25">
    <title>
        Shape
    </title>
    <path d="M2 24.2l11.2-11.1c.2-.2.3-.4.3-.6 0-.2-.1-.4-.3-.6L2 .7C1.7.4 1.1.4.8.7c-.3.3-.3.9 0 1.2l10.6 10.6L.7 23c-.3.3-.3.9 0 1.2.4.4.9.4 1.3 0z"/>
</symbol><symbol id="icon-phone" viewBox="0 0 19 18">
    <title>
        phone
    </title>
    <path d="M19 14.8c-.1-.4-.3-.8-.7-1l-4.7-2.6c-.6-.3-1.3-.2-1.8.2l-.9.9c-.2.2-.6.3-.9 0l-2.1-1.8c-.7-.6-1.3-1.3-1.9-2-.3-.2-.3-.6 0-.8l.9-.9c.5-.4.6-1.1.2-1.7L4.4.7c-.2-.4-.6-.6-1-.7-.5 0-.9.1-1.3.4L.7 1.7c-1 .9-1 2.6 0 4.7.9 2.1 2.6 4.3 4.8 6.4 2.2 2.1 4.6 3.7 6.7 4.5 1.1.4 2.1.7 2.9.7.9 0 1.6-.2 2.1-.7l1.4-1.3c.3-.3.4-.8.4-1.2zm-5.7-3.1l4.7 2.6c.2.1.4.3.4.6 0 .2 0 .4-.2.6L12 12.1l.3-.2c.2-.3.6-.3 1-.2zM3.3.6c.3 0 .5.2.6.4l2.7 4.4c.2.3.1.7-.1 1l-.3.2L2.7.7c.1-.1.3-.1.5-.1h.1zm13.4 16.3c-.8.7-2.3.7-4.3-.1-2.1-.8-4.4-2.4-6.5-4.4-2.1-2-3.8-4.2-4.6-6.2-.9-1.8-.9-3.3-.1-4.1l1-1L5.8 7l-.3.3c-.4.4-.5 1.1 0 1.6.6.7 1.3 1.4 2 2.1.7.7 1.4 1.3 2.2 1.9.5.4 1.3.4 1.7-.1l.2-.2 6.2 3.4-1.1.9z"/>
</symbol><symbol id="icon-picture" viewBox="0 0 20 20">
    <title>
        picture
    </title>
    <g>
        <path d="M0 17.9C0 19.1.9 20 2.1 20h15.8c1.2 0 2.1-.9 2.1-2.1V2.1C20 .9 19.1 0 17.9 0H2.1C.9 0 0 .9 0 2.1v15.8zM17.9 19H2.1c-.6 0-1.1-.5-1.1-1.1v-2.6l3.8-3.8L8 14.7c.2.2.5.2.7 0l5.9-5.9 4.4 4.4v4.6c0 .7-.5 1.2-1.1 1.2zM2.1 1h15.8c.6 0 1.1.5 1.1 1.1v9.7l-4.1-4c-.2-.2-.5-.2-.7 0l-5.9 5.9-3.2-3.2c-.2-.2-.5-.2-.7 0L1 13.8V2.1C1 1.5 1.5 1 2.1 1z"/>
        <path d="M6.2 8c1.4 0 2.6-1.2 2.6-2.6S7.6 2.8 6.2 2.8 3.6 4 3.6 5.4 4.8 8 6.2 8zm0-4.2c.9 0 1.6.7 1.6 1.6S7.1 7 6.2 7s-1.6-.7-1.6-1.6.7-1.6 1.6-1.6z"/>
    </g>
</symbol><symbol id="icon-prev" viewBox="0 0 14 25">
    <title>
        Shape
    </title>
    <path d="M13.2 24.3c.3-.3.3-.9 0-1.2L2.6 12.5 13.2 1.9c.3-.3.3-.9 0-1.2s-.9-.3-1.2 0L.7 11.8c-.2.2-.3.4-.3.6 0 .2.1.4.3.6L12 24.2c.4.4.9.4 1.2.1z"/>
</symbol><symbol id="icon-star" viewBox="0 0 15 15">
    <title>
        Star
    </title>
    <path d="M7.5 12.4L2.9 15l.9-5.4L0 5.7l5.2-.8L7.5 0l2.3 4.9 5.2.8-3.8 3.9.9 5.4z"/>
</symbol><symbol id="icon-wifi" viewBox="0 0 39 31">
    <title>
        wifi
    </title>
    <g>
        <path d="M38.7 9.2C33.6 3.7 26.7.7 19.4.7S5.3 3.7.2 9.2c-.3.3-.3.8 0 1.1s.7.3 1 0C6.1 5 12.6 2.2 19.5 2.2s13.4 2.8 18.2 8c.1.1.3.2.5.2s.4-.1.5-.2c.3-.3.3-.7 0-1z"/>
        <path d="M4.4 13.6c-.3.3-.3.8 0 1.1.1.1.3.2.5.2s.4-.1.5-.2c7.8-8.3 20.4-8.3 28.2 0 .3.3.7.3 1 0s.3-.8 0-1.1c-8.4-8.9-21.9-8.9-30.2 0z"/>
        <path d="M19.5 13.2c-4.1 0-8 1.7-10.9 4.8-.3.3-.3.8 0 1.1.3.3.7.3 1 0 2.6-2.8 6.2-4.4 9.9-4.4s7.3 1.6 9.9 4.4c.1.1.3.2.5.2s.4-.1.5-.2c.3-.3.3-.8 0-1.1-2.9-3.1-6.8-4.8-10.9-4.8z"/>
        <path d="M19.5 20.4c-2.6 0-4.6 2.2-4.6 5s2.1 5 4.6 5c2.6 0 4.6-2.2 4.6-5s-2.1-5-4.6-5zm0 8.3c-1.8 0-3.2-1.5-3.2-3.4s1.4-3.4 3.2-3.4c1.8 0 3.2 1.5 3.2 3.4s-1.5 3.4-3.2 3.4z"/>
    </g>
</symbol></svg>