<?xml version="1.0" encoding="UTF-8"?><!DOCTYPE svg PUBLIC "-//W3C//DTD SVG 1.1//EN" "http://www.w3.org/Graphics/SVG/1.1/DTD/svg11.dtd"><svg xmlns="http://www.w3.org/2000/svg"><symbol id="icon-adults" viewBox="0 0 21 23">
    <title>
        adults
    </title>
    <g>
        <ellipse cx="5.9" cy="14.2" rx="1" ry="1"/>
        <ellipse cx="15.1" cy="14.2" rx="1" ry="1"/>
        <path d="M5.9 11.6c-.5 0-.9.2-1.2.5-.2.2-.2.4 0 .6s.5.2.6 0c.2-.1.4-.2.6-.2s.4.1.6.2c.1.1.2.1.3.1.1 0 .2 0 .3-.1.2-.2.2-.4 0-.6-.3-.4-.7-.5-1.2-.5z"/>
        <path d="M13.9 12.1c-.2.2-.2.4 0 .6.2.2.5.2.6 0 .3-.3.8-.3 1.1 0 .1.1.2.1.3.1s.2 0 .3-.1c.2-.2.2-.4 0-.6-.6-.7-1.6-.7-2.3 0z"/>
        <path d="M11.4 17.6c-.2.2-.5.3-.9.3-.3 0-.6-.1-.9-.3-.2-.2-.5-.2-.6 0-.2.2-.2.4 0 .6.4.4.9.6 1.5.6s1.1-.2 1.5-.6c.2-.2.2-.4 0-.6-.2-.2-.5-.2-.6 0z"/>
        <path d="M21 13.8c0-1.2-.9-2.2-2-2.4V4.2c0-.9-.5-1.8-1.3-2.3-.8-.5-1.7-.6-2.5-.3L12.4.7C10.2-.1 8-.2 5.8.4 3 1.1 1.5 2.7 1.2 5c-.2.2-.4.6-.5.9l-.2.6c-.1.3 0 .7.3.9.3.2.7.2.9-.1.1-.1.2-.2.3-.2v4.3c-1.1.2-2 1.2-2 2.4s1 2.2 2.2 2.3c.3 1.6 1.1 3.2 2.3 4.4 1.6 1.6 3.7 2.5 6 2.5s4.4-.9 6-2.4c1.2-1.2 2.1-2.7 2.4-4.4C20.1 16 21 15 21 13.8zM17.2 2.5c.6.4.9 1 .9 1.6v5.7c-1.4-.2-2.4-1.4-2.4-2.8V2.2c.5-.1 1 0 1.5.3zM1.5 6.4l.1-.2c.2-.7.7-1.2 1.3-1.5.6-.3 1.4-.3 2 0 1.3.6 3 .3 4-.8l.1-.1c.2-.2.1-.5 0-.6-.2-.2-.5-.1-.6 0l-.2.2c-.7.8-1.9 1-2.9.6-.9-.4-1.9-.4-2.8 0h-.2C2.8 2.7 4.1 1.7 6 1.2c2-.5 4-.5 6 .2l2.6.9v2.2c-1.2 1.6-2.9 2.6-4.9 3-2 .4-4.1 0-5.8-1.1-.6-.5-1.6-.5-2.4 0zm-.6 7.4c0-.7.5-1.3 1.1-1.5v2.9c-.6-.1-1.1-.7-1.1-1.4zm15 6.1c-1.4 1.4-3.3 2.2-5.4 2.2-2 0-3.9-.8-5.4-2.2-1.4-1.4-2.2-3.3-2.2-5.3V6.9c.3 0 .5.1.7.2C5.5 8.3 7.8 8.7 10 8.3c1.8-.3 3.4-1.2 4.7-2.5V7c0 1.9 1.5 3.4 3.3 3.6v4c.1 2.1-.7 3.9-2.1 5.3zm3.1-4.7v-2.9c.7.2 1.1.8 1.1 1.5s-.5 1.3-1.1 1.4z"/>
    </g>
</symbol><symbol id="icon-building" viewBox="0 0 34 34">
    <title>
        building
    </title>
    <g fill-rule="nonzero">
        <path d="M33.407 7.045H31.71V6.46c0-.35-.227-.585-.567-.585-.34 0-.566.234-.566.585v.585h-2.265V6.46c0-.35-.226-.585-.566-.585-.34 0-.566.234-.566.585v.585h-2.265V1.782c0-.351-.226-.585-.566-.585h-5.096V.612c0-.35-.227-.584-.566-.584-.34 0-.567.233-.567.584v.585h-2.265V.612c0-.35-.226-.584-.566-.584-.34 0-.566.233-.566.584v.585H9.626c-.34 0-.566.234-.566.585v5.263H6.795V6.46c0-.35-.227-.585-.567-.585-.34 0-.566.234-.566.585v.585H3.397V6.46c0-.35-.226-.585-.566-.585-.34 0-.566.234-.566.585v.585H.566c-.34 0-.566.234-.566.585v25.73c0 .351.226.585.566.585H33.408c.339 0 .565-.234.565-.585V7.63c0-.351-.226-.585-.566-.585zm-.566 1.17v19.882h-7.927V8.214h7.927zm-31.709 0H9.06v19.882H1.132V8.214zm0 21.052H9.06v3.509H1.132v-3.51zm9.06-.585V2.367h13.59v30.409h-1.7v-5.264c0-.35-.226-.584-.565-.584h-9.06c-.34 0-.566.234-.566.584v5.264h-1.699v-4.094zm2.831-.585h3.398v4.679h-3.398v-4.679zm4.53 4.679v-4.679h3.397v4.679h-3.397zm15.288 0h-7.927v-3.51h7.927v3.51z"/>
        <path d="M13.59 8.8h1.132c.623 0 1.132-.527 1.132-1.17V6.46c0-.643-.51-1.17-1.132-1.17h-1.133c-.622 0-1.132.527-1.132 1.17v1.17c0 .643.51 1.17 1.132 1.17zm0-2.34h1.132v1.17h-1.133V6.46z"/>
        <path d="M19.252 8.8h1.132c.623 0 1.133-.527 1.133-1.17V6.46c0-.643-.51-1.17-1.133-1.17h-1.132c-.623 0-1.133.527-1.133 1.17v1.17c0 .643.51 1.17 1.133 1.17zm0-2.34h1.132v1.17h-1.132V6.46z"/>
        <path d="M13.59 13.478h1.132c.623 0 1.132-.527 1.132-1.17v-1.17c0-.643-.51-1.17-1.132-1.17h-1.133c-.622 0-1.132.527-1.132 1.17v1.17c0 .643.51 1.17 1.132 1.17zm0-2.34h1.132v1.17h-1.133v-1.17z"/>
        <path d="M19.252 13.478h1.132c.623 0 1.133-.527 1.133-1.17v-1.17c0-.643-.51-1.17-1.133-1.17h-1.132c-.623 0-1.133.527-1.133 1.17v1.17c0 .643.51 1.17 1.133 1.17zm0-2.34h1.132v1.17h-1.132v-1.17z"/>
        <path d="M13.59 18.156h1.132c.623 0 1.132-.526 1.132-1.17v-1.17c0-.643-.51-1.169-1.132-1.169h-1.133c-.622 0-1.132.526-1.132 1.17v1.17c0 .643.51 1.169 1.132 1.169zm0-2.34h1.132v1.17h-1.133v-1.17z"/>
        <path d="M19.252 18.156h1.132c.623 0 1.133-.526 1.133-1.17v-1.17c0-.643-.51-1.169-1.133-1.169h-1.132c-.623 0-1.133.526-1.133 1.17v1.17c0 .643.51 1.169 1.133 1.169zm0-2.34h1.132v1.17h-1.132v-1.17z"/>
        <path d="M13.59 22.834h1.132c.623 0 1.132-.526 1.132-1.17v-1.169c0-.643-.51-1.17-1.132-1.17h-1.133c-.622 0-1.132.527-1.132 1.17v1.17c0 .643.51 1.17 1.132 1.17zm0-2.339h1.132v1.17h-1.133v-1.17z"/>
        <path d="M19.252 22.834h1.132c.623 0 1.133-.526 1.133-1.17v-1.169c0-.643-.51-1.17-1.133-1.17h-1.132c-.623 0-1.133.527-1.133 1.17v1.17c0 .643.51 1.17 1.133 1.17zm0-2.339h1.132v1.17h-1.132v-1.17z"/>
        <path d="M28.311 12.893h1.133c.623 0 1.132-.527 1.132-1.17v-1.17c0-.643-.51-1.169-1.132-1.169H28.31c-.623 0-1.132.526-1.132 1.17v1.17c0 .642.51 1.169 1.132 1.169zm0-2.34h1.133v1.17H28.31v-1.17z"/>
        <path d="M28.311 17.571h1.133c.623 0 1.132-.526 1.132-1.17v-1.17c0-.642-.51-1.169-1.132-1.169H28.31c-.623 0-1.132.527-1.132 1.17v1.17c0 .643.51 1.17 1.132 1.17zm0-2.34h1.133v1.17H28.31v-1.17z"/>
        <path d="M28.311 22.25h1.133c.623 0 1.132-.527 1.132-1.17v-1.17c0-.643-.51-1.17-1.132-1.17H28.31c-.623 0-1.132.527-1.132 1.17v1.17c0 .643.51 1.17 1.132 1.17zm0-2.34h1.133v1.17H28.31v-1.17z"/>
        <path d="M28.311 26.928h1.133c.623 0 1.132-.527 1.132-1.17v-1.17c0-.643-.51-1.169-1.132-1.169H28.31c-.623 0-1.132.526-1.132 1.17v1.17c0 .642.51 1.169 1.132 1.169zm0-2.34h1.133v1.17H28.31v-1.17z"/>
        <path d="M5.662 9.384H4.53c-.623 0-1.133.526-1.133 1.17v1.17c0 .643.51 1.169 1.133 1.169h1.132c.623 0 1.133-.526 1.133-1.17v-1.17c0-.643-.51-1.169-1.133-1.169zm0 2.34H4.53v-1.17h1.132v1.17z"/>
        <path d="M5.662 14.062H4.53c-.623 0-1.133.527-1.133 1.17v1.17c0 .643.51 1.17 1.133 1.17h1.132c.623 0 1.133-.527 1.133-1.17v-1.17c0-.643-.51-1.17-1.133-1.17zm0 2.34H4.53v-1.17h1.132v1.17z"/>
        <path d="M5.662 18.74H4.53c-.623 0-1.133.527-1.133 1.17v1.17c0 .643.51 1.17 1.133 1.17h1.132c.623 0 1.133-.527 1.133-1.17v-1.17c0-.643-.51-1.17-1.133-1.17zm0 2.34H4.53v-1.17h1.132v1.17z"/>
        <path d="M5.662 23.419H4.53c-.623 0-1.133.526-1.133 1.17v1.17c0 .642.51 1.169 1.133 1.169h1.132c.623 0 1.133-.527 1.133-1.17v-1.17c0-.643-.51-1.169-1.133-1.169zm0 2.34H4.53v-1.17h1.132v1.17z"/>
    </g>
</symbol><symbol id="icon-calendar" viewBox="0 0 20 20">
    <title>
        calendar
    </title>
    <g>
        <path d="M19.8 3.6c-.1-.5-.4-1-.8-1.3-.6-.6-1.5-.9-2.4-.9h-1.4v-1c0-.2-.2-.4-.4-.4s-.4.2-.4.4v.9H5.8V.4c0-.2-.2-.4-.4-.4-.3 0-.5.2-.5.4v.9H3.5c-.7 0-1.4.2-1.9.5-.2.2-.4.3-.6.5-.6.5-1 1.4-1 2.2v12.3c0 .9.4 1.7 1 2.3.7.6 1.5.9 2.5.9h13.1c1 0 1.8-.4 2.4-.9.6-.6 1-1.4 1-2.3V4.6c0-.4-.1-.7-.2-1zm-.7 13.2c0 .7-.3 1.3-.7 1.7s-1.1.7-1.8.7H3.5c-.7 0-1.3-.3-1.8-.7s-.7-1-.7-1.7V7.1h18.2v9.7zm0-10.5H.9V4.5c0-.7.3-1.3.7-1.7s1.1-.7 1.8-.7h1.4V3c0 .2.2.4.4.4s.4-.2.4-.4v-.9H14V3c0 .2.2.4.4.4s.4-.2.4-.4v-.9h1.4c.7 0 1.3.3 1.8.7.3.3.6.7.7 1.2v2.3z"/>
        <path d="M4.3 10.9c.4 0 .7-.2 1-.4.3-.2.4-.6.4-.9s-.2-.7-.4-.9c-.3-.3-.6-.4-1-.4s-.7.2-1 .4c-.2.2-.3.5-.3.9s.2.7.4.9c.2.2.6.4.9.4zm-.4-1.7c.1-.1.2-.1.4-.1.1 0 .3 0 .4.1s.1.2.1.3c0 .2 0 .3-.1.3s-.2.1-.4.1c-.1 0-.3 0-.4-.1s-.1-.1-.1-.2c0-.2 0-.3.1-.4z"/>
        <path d="M8.1 10.9c.4 0 .7-.2 1-.4.3-.2.4-.6.4-.9s-.2-.7-.4-.9c-.2-.2-.6-.4-1-.4s-.7.2-1 .4c-.2.2-.4.5-.4.9s.2.7.4.9c.3.2.6.4 1 .4zm-.4-1.7c.1-.1.3-.1.4-.1.1 0 .3 0 .4.1s.1.2.1.3 0 .3-.1.3-.2.1-.4.1c-.1 0-.3 0-.4-.1s-.1-.1-.1-.2c0-.2.1-.3.1-.4z"/>
        <path d="M11.9 10.9c.4 0 .7-.2 1-.4.3-.2.4-.6.4-.9s-.2-.7-.4-.9c-.2-.2-.6-.4-1-.4s-.7.2-1 .4-.4.6-.4.9.2.7.4.9c.3.2.7.4 1 .4zm-.3-1.7c.1-.1.2-.1.4-.1.1 0 .3 0 .4.1.1.1.1.2.1.3 0 .1-.1.2-.2.3s-.2.1-.4.1c-.1 0-.3 0-.4-.1-.1-.1-.1-.2-.1-.3 0 0 .1-.2.2-.3z"/>
        <path d="M15.7 10.9c.4 0 .7-.2 1-.4.3-.2.4-.6.4-.9s-.2-.7-.4-.9c-.2-.2-.6-.4-1-.4s-.7.2-1 .4c-.3.2-.4.6-.4.9s.2.7.4.9c.3.2.6.4 1 .4zm-.4-1.7c.1-.1.2-.1.4-.1.1 0 .3 0 .4.1s.1.2.1.3 0 .3-.1.3-.2.1-.4.1c-.1 0-.3 0-.4-.1s-.1-.2-.1-.3c0-.1.1-.2.1-.3z"/>
        <path d="M4.3 14.4c.4 0 .7-.2 1-.4.3-.2.4-.6.4-.9s-.2-.7-.4-.9c-.3-.2-.6-.4-1-.4s-.7.2-1 .4c-.2.3-.3.6-.3 1s.2.7.4.9c.2.2.6.3.9.3zm-.4-1.6c.1-.1.2-.1.4-.1.1 0 .3 0 .4.1.1.1.1.2.1.3 0 .1 0 .3-.1.3s-.2.1-.4.1c-.1 0-.3 0-.4-.1s-.1-.2-.1-.3c0-.1 0-.2.1-.3z"/>
        <path d="M8.1 14.4c.4 0 .7-.2 1-.4s.4-.6.4-.9-.2-.7-.4-.9c-.2-.2-.6-.4-1-.4s-.7.2-1 .4c-.3.2-.4.6-.4.9s.2.7.4.9c.3.3.6.4 1 .4zm-.4-1.6c.1-.1.2-.1.4-.1.1 0 .3 0 .4.1.1.1.1.2.1.3 0 .1 0 .3-.1.3s-.2.1-.4.1c-.1 0-.3 0-.4-.1s-.1-.2-.1-.3c0-.1.1-.2.1-.3z"/>
        <path d="M11.9 14.4c.4 0 .7-.2 1-.4s.4-.6.4-.9-.2-.7-.4-.9c-.2-.2-.6-.4-1-.4s-.7.2-1 .4-.4.6-.4.9.2.7.4.9.7.4 1 .4zm-.4-1.6c.1-.1.2-.1.4-.1.1 0 .3 0 .4.1.1.1.1.2.1.3 0 .1 0 .3-.1.3s-.2.1-.4.1c-.1 0-.3 0-.4-.1s-.1-.2-.1-.3c0-.1 0-.2.1-.3z"/>
        <path d="M15.7 14.4c.4 0 .7-.2 1-.4.3-.2.4-.6.4-.9s-.2-.7-.4-.9c-.2-.2-.6-.4-1-.4s-.7.2-1 .4c-.3.2-.4.6-.4.9s.2.7.4.9c.3.3.6.4 1 .4zm-.4-1.6c.1-.1.2-.1.4-.1.1 0 .3 0 .4.1.1.1.1.2.1.3 0 .1 0 .3-.1.3s-.2.1-.4.1c-.1 0-.3 0-.4-.1s-.1-.2-.1-.3c0-.1.1-.2.1-.3z"/>
        <path d="M4.3 18c.4 0 .7-.2 1-.4.3-.2.4-.6.4-.9 0-.3-.2-.7-.4-.9-.3-.2-.6-.4-1-.4s-.7.2-1 .4c-.2.2-.3.5-.3.9 0 .3.2.7.4.9.2.3.6.4.9.4zm-.4-1.7c.1-.1.2-.1.4-.1.1 0 .3 0 .4.1.1.1.1.2.1.3 0 .1 0 .3-.1.3-.1.1-.2.1-.4.1-.1 0-.3 0-.4-.1-.1-.1-.1-.2-.1-.3 0 0 0-.2.1-.3z"/>
        <path d="M8.1 18c.4 0 .7-.2 1-.4.3-.2.4-.6.4-.9 0-.3-.2-.7-.4-.9s-.6-.4-1-.4-.7.2-1 .4c-.3.2-.4.6-.4.9 0 .3.2.7.4.9.3.3.6.4 1 .4zm-.4-1.7c.1-.1.2-.1.4-.1.1 0 .3 0 .4.1.1.1.1.2.1.3 0 .1 0 .3-.1.3-.1.1-.2.1-.4.1-.1 0-.3 0-.4-.1-.1-.1-.1-.2-.1-.3 0 0 .1-.2.1-.3z"/>
        <path d="M11.9 18c.4 0 .7-.2 1-.4.3-.2.4-.6.4-.9 0-.3-.2-.7-.4-.9-.3-.2-.6-.4-1-.4s-.7.2-1 .4c-.3.2-.4.6-.4.9 0 .3.2.7.4.9.3.3.7.4 1 .4zm-.4-1.7c.1-.1.2-.1.4-.1.1 0 .3 0 .4.1.1.1.1.2.1.3 0 .1 0 .3-.1.3-.1.1-.2.1-.4.1-.1 0-.3 0-.4-.1-.1-.1-.1-.2-.1-.3 0 0 0-.2.1-.3z"/>
        <path d="M15.7 18c.4 0 .7-.2 1-.4.3-.2.4-.6.4-.9 0-.3-.2-.7-.4-.9-.2-.2-.6-.4-1-.4s-.7.2-1 .4c-.3.2-.4.6-.4.9 0 .3.2.7.4.9.3.3.6.4 1 .4zm-.4-1.7c.1-.1.2-.1.4-.1.1 0 .3 0 .4.1.1.1.1.2.1.3 0 .1 0 .3-.1.3-.1.1-.2.1-.4.1-.1 0-.3 0-.4-.1-.1-.1-.1-.2-.1-.3 0 0 .1-.2.1-.3z"/>
    </g>
</symbol><symbol id="icon-chandelier" viewBox="0 0 28 28">
    <title>
        chandelier
    </title>
    <path d="M27.755 13.206a.432.432 0 0 0 .128-.306.46.46 0 0 0-.471-.446H27.3c-.345-.561-.27-1.426.07-1.668a.433.433 0 0 0 .164-.498.47.47 0 0 0-.447-.305h-4.516a.47.47 0 0 0-.447.305.433.433 0 0 0 .164.498c.34.242.416 1.107.07 1.668h-.11a.46.46 0 0 0-.472.446c0 .118.05.226.129.306-.151.352-.23.73-.23 1.12 0 1.144.682 2.14 1.681 2.641a3.667 3.667 0 0 1-2.685 1.141c-1.91 0-3.474-1.401-3.587-3.2a2.84 2.84 0 0 0-.168-1.702.432.432 0 0 0 .128-.306.46.46 0 0 0-.471-.446h-.111a1.668 1.668 0 0 1-.225-.895h.694c.979 0 1.775-.754 1.775-1.68 0-.87-.7-1.587-1.595-1.673.03-.641.59-1.155 1.274-1.155.703 0 1.276.543 1.276 1.21v.83c0 .705.605 1.278 1.349 1.278.743 0 1.348-.573 1.348-1.277a.46.46 0 0 0-.471-.447.46.46 0 0 0-.471.447.397.397 0 0 1-.406.385.397.397 0 0 1-.407-.385V8.26c0-1.159-.995-2.102-2.218-2.102-1.202 0-2.182.91-2.217 2.04h-1.066c.054-.156.084-.327.084-.507 0-.376-.128-.71-.339-.953.21-.243.34-.578.34-.953 0-.376-.13-.71-.34-.953.21-.243.34-.578.34-.954a1.51 1.51 0 0 0-.156-.676c1.195-.404 2.052-1.486 2.052-2.756A.46.46 0 0 0 16.613 0H11.38a.46.46 0 0 0-.472.446c0 1.27.858 2.352 2.053 2.756a1.51 1.51 0 0 0-.155.676c0 .376.128.71.339.954-.211.242-.34.577-.34.953 0 .375.129.71.34.953-.211.242-.34.577-.34.953 0 .18.03.35.085.506h-1.066c-.035-1.13-1.016-2.039-2.217-2.039-1.223 0-2.218.943-2.218 2.102v.832a.397.397 0 0 1-.407.385.396.396 0 0 1-.406-.385.46.46 0 0 0-.471-.447.46.46 0 0 0-.471.447c0 .704.605 1.277 1.348 1.277.744 0 1.35-.573 1.35-1.277V8.26c0-.666.572-1.209 1.275-1.209.685 0 1.243.514 1.274 1.155-.895.085-1.595.803-1.595 1.672 0 .927.796 1.681 1.774 1.681h.686c.007.302-.063.631-.225.895h-.11a.46.46 0 0 0-.472.446c0 .118.049.226.128.306a2.838 2.838 0 0 0-.168 1.703c-.113 1.798-1.678 3.2-3.587 3.2a3.668 3.668 0 0 1-2.685-1.142c.999-.502 1.68-1.497 1.68-2.64 0-.39-.078-.769-.229-1.121a.432.432 0 0 0 .129-.306.46.46 0 0 0-.471-.446h-.111c-.346-.561-.27-1.426.07-1.668a.433.433 0 0 0 .164-.498.47.47 0 0 0-.447-.305H.896a.47.47 0 0 0-.447.305.433.433 0 0 0 .164.498c.34.242.415 1.107.07 1.668h-.11A.46.46 0 0 0 .1 12.9c0 .119.049.226.128.306-.15.352-.229.73-.229 1.12 0 1.648 1.415 2.988 3.154 2.988.178 0 .352-.015.521-.041a4.53 4.53 0 0 0 2.467 1.584 3.966 3.966 0 0 0-.414.693c-.311.651-.52 1.437-.52 1.955 0 .72.406 1.353 1.012 1.703-.176.21-.34.473-.492.79-.311.65-.52 1.436-.52 1.954 0 1.1.944 1.993 2.104 1.993 1.16 0 2.104-.894 2.104-1.993 0-.518-.209-1.303-.52-1.955a3.76 3.76 0 0 0-.492-.79c.607-.35 1.012-.982 1.012-1.702 0-.518-.209-1.304-.52-1.955-.129-.27-.268-.5-.415-.693 1.418-.356 2.564-1.343 3.076-2.634a3.198 3.198 0 0 0 1.964 1.058v1.01c-.391.201-.748.626-1.05 1.26-.311.65-.52 1.436-.52 1.954 0 .72.405 1.353 1.011 1.703-.175.21-.34.473-.491.79-.311.65-.52 1.436-.52 1.954 0 1.1.943 1.993 2.104 1.993 1.16 0 2.104-.894 2.104-1.993 0-.518-.21-1.303-.52-1.955a3.762 3.762 0 0 0-.492-.79c.606-.35 1.012-.982 1.012-1.702 0-.518-.21-1.304-.52-1.955-.335-.7-.736-1.145-1.176-1.314v-.955c.787-.113 1.48-.5 1.964-1.058.525 1.323 1.715 2.327 3.182 2.66-.14.187-.273.41-.396.667-.31.651-.52 1.437-.52 1.955 0 .72.406 1.353 1.012 1.703-.176.21-.34.473-.492.79-.31.65-.52 1.436-.52 1.954 0 1.1.944 1.993 2.104 1.993 1.16 0 2.104-.894 2.104-1.993 0-.518-.209-1.303-.52-1.955a3.76 3.76 0 0 0-.491-.79c.606-.35 1.011-.982 1.011-1.702 0-.518-.209-1.304-.52-1.955a3.918 3.918 0 0 0-.434-.72 4.524 4.524 0 0 0 2.362-1.557c.17.026.343.041.521.041 1.74 0 3.154-1.34 3.154-2.988 0-.39-.078-.768-.23-1.12zm-26.016-2.33h2.83c-.158.49-.136 1.074.035 1.578h-2.9c.17-.504.193-1.087.035-1.578zm1.415 5.545c-1.22 0-2.211-.94-2.211-2.095 0-.346.088-.68.256-.98h3.91c.168.3.256.634.256.98 0 1.155-.992 2.095-2.211 2.095zm5.32 9.531c0 .607-.521 1.1-1.162 1.1-.64 0-1.162-.493-1.162-1.1 0-.335.15-.987.437-1.586.304-.637.6-.868.725-.868s.421.231.725.868c.287.599.437 1.251.437 1.586zm-1.162-3.347c-.64 0-1.161-.493-1.161-1.1 0-.335.15-.987.436-1.587.304-.636.6-.867.725-.867s.421.23.725.867c.287.6.437 1.252.437 1.587 0 .607-.521 1.1-1.162 1.1zM11.903.893h4.187c-.216.907-1.072 1.586-2.093 1.586-1.022 0-1.878-.68-2.094-1.586zm2.094 5.35c-.088 0-.249-.174-.249-.458 0-.285.161-.459.249-.459.087 0 .248.174.248.459 0 .284-.16.458-.248.458zm.248 1.448c0 .284-.161.458-.248.458-.088 0-.249-.174-.249-.458 0-.285.161-.459.249-.459.087 0 .248.174.248.459zm-.248-3.354c-.088 0-.249-.174-.249-.458 0-.285.161-.46.249-.46.087 0 .248.175.248.46 0 .284-.16.458-.248.458zm1.22 21.615c0 .607-.522 1.1-1.162 1.1-.64 0-1.162-.493-1.162-1.1 0-.335.15-.987.436-1.586.305-.637.6-.868.726-.868.125 0 .42.231.725.868.286.599.436 1.251.436 1.586zm-.437-6.034c.286.6.436 1.252.436 1.587 0 .607-.52 1.1-1.161 1.1-.64 0-1.162-.493-1.162-1.1 0-.335.15-.987.436-1.587.305-.636.6-.867.726-.867.125 0 .42.23.725.867zm-.788-3.497c-1.22 0-2.211-.94-2.211-2.095 0-.346.088-.68.256-.98h3.91c.168.3.256.634.256.98 0 1.155-.992 2.095-2.21 2.095zm-1.415-5.545h2.83c-.158.49-.136 1.074.035 1.578h-2.9c.17-.504.193-1.087.035-1.578zm-.843-.893a.47.47 0 0 0-.447.305.425.425 0 0 0 .05.379h-.276c-.46 0-.832-.354-.832-.789 0-.434.373-.788.832-.788h5.872c.458 0 .832.354.832.788 0 .435-.374.789-.832.789h-.285a.425.425 0 0 0 .05-.379.47.47 0 0 0-.448-.305h-4.516zm10.225 15.97c0 .606-.521 1.1-1.162 1.1-.64 0-1.161-.494-1.161-1.1 0-.336.15-.988.436-1.587.304-.637.6-.868.725-.868s.421.231.725.868c.287.599.437 1.251.437 1.586zm0-4.448c0 .607-.521 1.1-1.162 1.1-.64 0-1.161-.493-1.161-1.1 0-.335.15-.987.436-1.587.304-.636.6-.867.725-.867s.421.23.725.867c.287.6.437 1.252.437 1.587zm1.456-10.63h2.83c-.158.492-.136 1.075.035 1.579h-2.9c.17-.504.193-1.087.035-1.578zm1.415 5.546c-1.22 0-2.211-.94-2.211-2.095 0-.346.088-.68.256-.98h3.91c.168.3.257.634.257.98 0 1.155-.992 2.095-2.212 2.095z" fill-rule="nonzero"/>
</symbol><symbol id="icon-chat" viewBox="0 0 21 19">
    <title>
        chat
    </title>
    <g>
        <path d="M18.9.2H7c-1.1 0-2.1.9-2.1 2v1.7H2.1c-1.2 0-2.1.9-2.1 2v7.2c0 1.1.9 2 2.1 2h2.1v3.4c0 .1.1.3.2.3h.1c.1 0 .2 0 .3-.1l3.4-3.6H14c1.1 0 2.1-.9 2.1-2l1.8 2c.1.1.2.1.3.1h.1c.1-.1.2-.2.2-.3v-3.4h.4c1.1 0 2.1-.9 2.1-2V2.2c0-1.1-.9-2-2.1-2zm-3.5 12.9c0 .7-.6 1.3-1.4 1.3H8c-.1 0-.2 0-.3.1l-2.9 3.1v-2.9c0-.2-.2-.3-.3-.3H2.1c-.8 0-1.4-.6-1.4-1.3V5.9c0-.7.6-1.3 1.4-1.3H14c.8 0 1.4.6 1.4 1.3v7.2zm4.9-3.7c0 .7-.6 1.3-1.4 1.3h-.7c-.2 0-.4.2-.4.3v2.9L16.1 12V5.9c0-1.1-.9-2-2.1-2H5.6V2.2c0-.7.6-1.3 1.4-1.3h11.9c.8 0 1.4.6 1.4 1.3v7.2z"/>
        <path d="M4.2 8.3c-.8 0-1.4.6-1.4 1.4 0 .7.6 1.4 1.4 1.4s1.4-.6 1.4-1.4c0-.8-.6-1.4-1.4-1.4zm0 2c-.4 0-.7-.3-.7-.7s.3-.6.7-.6c.4 0 .7.3.7.7s-.3.6-.7.6z"/>
        <path d="M8.1 8.3c-.8 0-1.4.6-1.4 1.4 0 .7.6 1.4 1.4 1.4s1.4-.6 1.4-1.4c-.1-.8-.7-1.4-1.4-1.4zm0 2c-.4 0-.7-.3-.7-.7s.3-.6.7-.6.7.3.7.7-.4.6-.7.6z"/>
        <path d="M11.9 8.3c-.8 0-1.4.6-1.4 1.4 0 .7.6 1.4 1.4 1.4.8 0 1.4-.6 1.4-1.4 0-.8-.6-1.4-1.4-1.4zm0 2c-.4 0-.7-.3-.7-.7s.3-.6.7-.6c.4 0 .7.3.7.7s-.3.6-.7.6z"/>
    </g>
</symbol><symbol id="icon-check" viewBox="0 0 10 8">
    <title>
        Shape
    </title>
    <path d="M4.5 7.6c-.5.5-1.2.5-1.6 0L.3 4.9c-.5-.5-.5-1.3 0-1.8s1.2-.5 1.6 0l1.5 1.6c.1.1.3.1.4 0L8 .4c.5-.5 1.2-.5 1.6 0 .3.2.4.5.4.8s-.1.7-.3.9L4.5 7.6z"/>
</symbol><symbol id="icon-children" viewBox="0 0 22 20">
    <title>
        children
    </title>
    <g>
        <ellipse cx="6.4" cy="12.3" rx="1" ry="1"/>
        <ellipse cx="15.5" cy="12.3" rx="1" ry="1"/>
        <path d="M21.9 11.9c0-1.3-.9-2.3-2.1-2.6V9c0-4.9-4-9-8.9-9-4.8 0-8.8 4-8.8 9v.4C.9 9.6 0 10.6 0 11.9s.9 2.4 2.1 2.6c.2 2 1.1 3.4 2.7 4.3 1.4.8 3.4 1.2 6.2 1.2 2.7 0 4.7-.4 6.2-1.2 1.6-.9 2.5-2.4 2.7-4.3 1.1-.2 2-1.3 2-2.6zm-21 0c0-.8.5-1.4 1.2-1.6v3.2c-.7-.2-1.2-.8-1.2-1.6zm18 1.8c0 2-.7 3.4-2.2 4.3-1.3.7-3.2 1.1-5.7 1.1s-4.5-.4-5.7-1.1C3.8 17.1 3 15.8 3 13.7V9c0-3.6 2.4-6.7 5.7-7.7 2.5 0 3.8 1.9 3.8 3.2 0 1-.8 1.8-1.8 1.8-.7 0-1.4-.6-1.4-1.4 0-.6.4-1 1-1 .3 0 .5-.2.5-.5s-.2-.4-.5-.4c-1 0-1.9.9-1.9 1.9 0 1.3 1 2.3 2.3 2.3 1.5 0 2.7-1.2 2.7-2.7 0-1-.5-2-1.3-2.7-.3-.3-.7-.6-1.1-.8 4.3.1 7.8 3.6 7.8 8v4.7zm.9-.2v-3.2c.7.2 1.2.8 1.2 1.6s-.5 1.4-1.2 1.6z"/>
        <path d="M12.7 13.5c-1 1-2.5 1-3.5 0-.2-.2-.5-.2-.6 0-.2.2-.2.5 0 .6.7.7 1.5 1 2.4 1 .9 0 1.7-.3 2.4-1 .2-.2.2-.5 0-.6-.2-.1-.5-.1-.7 0z"/>
    </g>
</symbol><symbol id="icon-cities" viewBox="0 0 28 28">
    <title>
        cities
    </title>
    <g fill-rule="nonzero">
        <path d="M23.9 4.1A13.908 13.908 0 0 0 14 0c-3.74 0-7.255 1.456-9.9 4.1A13.908 13.908 0 0 0 0 14c0 3.74 1.456 7.255 4.1 9.9A13.908 13.908 0 0 0 14 28c3.74 0 7.255-1.456 9.9-4.1A13.908 13.908 0 0 0 28 14c0-3.74-1.456-7.255-4.1-9.9zM14 27.107C6.773 27.106.894 21.226.894 14 .894 6.773 6.774.894 14 .894c7.227 0 13.106 5.88 13.106 13.106 0 7.227-5.88 13.106-13.106 13.106z"/>
        <circle cx="14" cy="5.809" r="1"/>
        <path d="M26.067 14.439a.447.447 0 0 0-.325-.141H24.19v-1.34a.447.447 0 1 0-.894 0v1.34h-1.105V11.17a.447.447 0 0 0-.21-.379l-4.555-2.847V5.809c0-.247-.2-.447-.447-.447h-.79A2.238 2.238 0 0 0 14 3.574a2.238 2.238 0 0 0-2.19 1.788h-.789c-.247 0-.447.2-.447.447v1.936H9.085v-1.34a.447.447 0 1 0-.894 0v1.34H6.255c-.246 0-.446.2-.446.446v6.107h-3.55a.447.447 0 0 0-.447.474 12.176 12.176 0 0 0 4.176 8.436 12.22 12.22 0 0 0 4.95 2.614 12.169 12.169 0 0 0 6.123 0 12.144 12.144 0 0 0 3.073-1.265 12.315 12.315 0 0 0 4.377-4.346.447.447 0 0 0-.768-.456c-.442.745-.964 1.429-1.552 2.043v-6.607h3.065a11.227 11.227 0 0 1-.752 3.023.447.447 0 1 0 .83.333c.485-1.206.772-2.476.854-3.774a.447.447 0 0 0-.12-.334zm-14.599-4.013h5.064v12.808h-5.064V10.426zm0-4.17h.745c.247 0 .447-.2.447-.447 0-.74.6-1.34 1.34-1.34.74 0 1.34.6 1.34 1.34 0 .246.2.446.447.446h.745v3.277h-5.064V6.255zM2.744 15.19h3.065v3.128a.447.447 0 1 0 .893 0V8.64h3.872v14.595h-.148a.447.447 0 1 0 0 .894h.148v.66a11.337 11.337 0 0 1-3.872-2.145v-2.537a.447.447 0 1 0-.893 0v1.696a11.269 11.269 0 0 1-3.065-6.611zm8.724 9.84v-.903h5.064v.9a11.179 11.179 0 0 1-5.064.004zm5.958-.251v-.652h.148a.447.447 0 1 0 0-.894h-.148V8.998l3.872 2.42v11.218a11.438 11.438 0 0 1-3.872 2.144z"/>
        <path d="M19.362 19.064c-.247 0-.447.2-.447.447v.595a.447.447 0 1 0 .894 0v-.595c0-.247-.2-.447-.447-.447z"/>
        <path d="M19.362 16.68c-.247 0-.447.2-.447.448v.595a.447.447 0 1 0 .894 0v-.595c0-.247-.2-.447-.447-.447z"/>
        <path d="M19.362 14.298c-.247 0-.447.2-.447.447v.595a.447.447 0 1 0 .894 0v-.595c0-.247-.2-.447-.447-.447z"/>
        <path d="M19.362 11.915c-.247 0-.447.2-.447.447v.595a.447.447 0 1 0 .894 0v-.595c0-.247-.2-.447-.447-.447z"/>
        <path d="M8.638 20.553c.247 0 .447-.2.447-.447v-.595a.447.447 0 1 0-.894 0v.595c0 .247.2.447.447.447z"/>
        <path d="M8.638 18.17c.247 0 .447-.2.447-.447v-.595a.447.447 0 1 0-.894 0v.595c0 .247.2.447.447.447z"/>
        <path d="M8.638 15.787c.247 0 .447-.2.447-.447v-.595a.447.447 0 1 0-.894 0v.595c0 .247.2.447.447.447z"/>
        <path d="M8.638 11.021c.247 0 .447-.2.447-.447V9.98a.447.447 0 1 0-.894 0v.595c0 .247.2.447.447.447z"/>
        <path d="M8.638 13.404c.247 0 .447-.2.447-.447v-.595a.447.447 0 1 0-.894 0v.595c0 .247.2.447.447.447z"/>
        <path d="M14 20.851c-.247 0-.447.2-.447.447v.596a.447.447 0 1 0 .894 0v-.596c0-.247-.2-.447-.447-.447z"/>
        <path d="M14 18.468c-.247 0-.447.2-.447.447v.596a.447.447 0 1 0 .894 0v-.596c0-.247-.2-.447-.447-.447z"/>
        <path d="M14 16.085c-.247 0-.447.2-.447.447v.596a.447.447 0 1 0 .894 0v-.596c0-.247-.2-.447-.447-.447z"/>
        <path d="M14 13.702c-.247 0-.447.2-.447.447v.596a.447.447 0 1 0 .894 0v-.596c0-.247-.2-.447-.447-.447z"/>
        <path d="M14 11.32c-.247 0-.447.2-.447.446v.596a.447.447 0 1 0 .894 0v-.596c0-.247-.2-.447-.447-.447z"/>
        <path d="M12.809 8.638h2.382a.447.447 0 1 0 0-.893H12.81a.447.447 0 1 0 0 .893z"/>
    </g>
</symbol><symbol id="icon-close-button" viewBox="0 0 18 18">
    <title>
        close-button
    </title>
    <path fill-rule="nonzero" d="M18 1.8L16.2 0 9 7.2 1.8 0 0 1.8 7.2 9 0 16.2 1.8 18 9 10.8l7.2 7.2 1.8-1.8L10.8 9z"/>
</symbol><symbol id="icon-clover" viewBox="0 0 24 23">
    <title>
        clover
    </title>
    <path d="M18.563 7.434c-.578 0-1.148.092-1.69.27a5.321 5.321 0 0 0 .541-2.337C17.414 2.407 14.985 0 12 0 9.014 0 6.586 2.408 6.586 5.366c0 .814.188 1.613.542 2.337a5.448 5.448 0 0 0-1.69-.269C2.438 7.434 0 9.852 0 12.824c0 2.972 2.44 5.39 5.437 5.39 2.101 0 4.314-.933 5.437-2.54-.016 1.823-.448 6.583-2.249 6.583V23h6.75v-.743c-1.798 0-2.232-4.76-2.25-6.583 1.124 1.607 3.337 2.54 5.438 2.54 2.998 0 5.437-2.418 5.437-5.39 0-2.972-2.44-5.39-5.437-5.39zm0 10.037c-2.616 0-5.438-1.581-5.438-4.136h-.75v2.23c0 .604.053 4.93 1.531 6.692h-3.812c1.478-1.762 1.531-6.088 1.531-6.691v-2.23h-.75c0 2.554-2.822 4.135-5.437 4.135-2.585 0-4.688-2.085-4.688-4.647 0-2.562 2.103-4.646 4.688-4.646.893 0 1.766.254 2.523.735l.488-.554a4.598 4.598 0 0 1-1.113-2.992C7.336 2.817 9.428.743 12 .743c2.572 0 4.664 2.074 4.664 4.624a4.597 4.597 0 0 1-1.112 2.992l.488.554a4.697 4.697 0 0 1 2.523-.735c2.584 0 4.687 2.084 4.687 4.646s-2.103 4.647-4.687 4.647z" fill-rule="nonzero"/>
</symbol><symbol id="icon-coffee-cup" viewBox="0 0 25 25">
    <title>
        coffee-cup
    </title>
    <g>
        <path d="M22.5 21.6h-5.3c1.4-.5 2.4-1.3 3.2-2.2 3.2-.5 4.7-3.1 4.7-5.5 0-1.7-1-3.1-2.2-3.4 0-.2-.1-.4-.3-.6s-.4-.3-.6-.3H1.8c-.2 0-.4.1-.6.3s-.3.4-.3.6c0 4.6.9 9.2 5.6 11H1.1c-.6 0-1.1.5-1.1 1.1 0 .5.4.9 1 1l5.6.4c.1 0 .3.1.3.2.1.5.6.8 1.1.8h7.3c.5 0 .9-.3 1.1-.7 0-.1.2-.2.3-.2l6-.4c.6-.1 1-.5 1-1-.1-.6-.6-1.1-1.2-1.1zm.3-10.1c.7.3 1.3 1.3 1.3 2.5 0 1.7-.8 3.6-3 4.4 0-.1.1-.1.1-.2 1.2-2.1 1.5-4.6 1.6-6.7zm-21-.9h20.1c0 5.7-1.3 11-10.1 11s-10-5.3-10-11zm20.7 12.3l-5.9.4c-.4 0-.8.3-1.1.7-.1.1-.2.2-.4.2H8c-.1 0-.3-.1-.4-.2-.2-.4-.6-.6-1.1-.7L1 22.9c-.2 0-.2-.1-.2-.2s.1-.3.3-.3h21.4c.1 0 .3.1.3.3 0 .1 0 .1-.3.2z"/>
        <path d="M12.2 3.8c-.7.7-1.1 1.4-1.1 2.1s.4 1.5 1.1 2.2c.1.1.2.1.3.1.1 0 .2 0 .3-.1.2-.1.2-.4 0-.6-.5-.5-.8-1-.8-1.5s.3-1 .8-1.5c.7-.6 1.1-1.4 1.1-2.1S13.6.9 12.8.2c-.2-.2-.5-.2-.6 0s-.2.5 0 .6c.5.5.8 1.1.8 1.6s-.3 1-.8 1.4z"/>
        <path d="M15.3 6c0 .7.4 1.5 1.1 2.2.1.1.2.1.3.1.1 0 .2 0 .3-.1.2-.2.2-.5 0-.6-.6-.6-.8-1.1-.8-1.6s.3-1 .8-1.5c.7-.6 1.1-1.4 1.1-2.1 0-.8-.3-1.5-1.1-2.2-.2-.2-.5-.2-.6 0-.2.2-.2.5 0 .6.5.6.8 1.1.8 1.6s-.3 1-.8 1.5c-.8.6-1.1 1.3-1.1 2.1z"/>
        <path d="M5.6 6c0 .7.4 1.5 1.1 2.2.1.1.2.1.3.1.1 0 .2 0 .3-.1.2-.2.2-.5 0-.6-.6-.6-.9-1.1-.9-1.6s.3-1 .8-1.5c.8-.7 1.1-1.4 1.1-2.1C8.3 1.6 8 .9 7.2.2 7.1 0 6.8 0 6.6.1c-.2.2-.2.5 0 .6.5.6.8 1.1.8 1.6s-.3 1-.8 1.5c-.7.7-1 1.4-1 2.2z"/>
    </g>
</symbol><symbol id="icon-croissant" viewBox="0 0 28 28">
    <title>
        croissant
    </title>
    <g fill-rule="nonzero">
        <path d="M27.525 11.974L25.75 9.038c.17-.17.341-.375.444-.682a3.305 3.305 0 0 0-.17-2.833l-.035-.035c-.068-.102-.137-.238-.205-.34-.034-.07-.102-.103-.136-.172-.034-.068-.103-.102-.137-.17l-2.39-2.39c-.067-.068-.136-.102-.17-.17l-.136-.137a3.002 3.002 0 0 0-.342-.205l-.034-.034c-.853-.478-1.911-.58-2.833-.17-.273.136-.512.273-.683.443L15.988.437c-.853-.512-1.877-.58-2.697-.17-.512.238-.819.545-1.024.955l-.375.853-1.946-.58c-.341-.103-.682-.137-.99-.103-1.194.137-2.218 1.127-2.9 2.8-.07.17 0 .375.17.443l3.96 1.707c-.069.717.272 1.502.955 1.911l2.39 1.468a1.485 1.485 0 0 0 .34 1.57l2.765 2.765c.308.307.683.444 1.059.444.17 0 .34-.034.512-.103l1.467 2.39c.376.648 1.093.99 1.775.99h.17l1.708 3.959c.068.136.17.205.307.205.034 0 .102 0 .136-.034 1.673-.683 2.663-1.707 2.8-2.902.033-.307 0-.648-.103-.99l-.58-1.945.853-.376c.41-.17.717-.512.956-1.024.375-.853.307-1.843-.171-2.696zM10.322 5.625L6.806 4.123c.376-.853 1.092-1.945 2.185-2.082.204-.034.443 0 .716.068l1.878.58-1.263 2.936zm1.16 2.048c-.58-.375-.819-1.126-.546-1.74l1.912-4.438c.102-.273.307-.444.648-.615.649-.307 1.434-.238 2.082.137l2.868 1.673-4.574 6.45-2.39-1.467zm6.656 5.905c-.307.239-.75.205-1.058-.102l-2.73-2.663c-.273-.273-.308-.717-.103-1.058l2.014-2.765 3.004-4.198s0-.034.034-.068l.034-.069c.137-.17.341-.307.683-.41.273-.067.512-.136.785-.136.682 0 1.331.273 1.809.751L25 5.25c.067.068.102.136.17.204l.068.069c.512.682.649 1.536.41 2.32-.103.342-.24.547-.41.683l-.068.034c-.034 0-.034 0-.068.035l-4.13 2.97-2.834 2.013zm7.714 5.359c-.102 1.092-1.228 1.81-2.048 2.219l-1.501-3.516 2.935-1.263.546 1.843c.068.273.103.512.068.717zm1.195-4.54c-.17.342-.341.546-.614.649l-4.438 1.911c-.648.273-1.4.034-1.74-.546l-1.468-2.39 6.417-4.573 1.672 2.867c.41.683.444 1.434.171 2.082z"/>
        <path d="M21.722 23.408l-3.96-1.706a2.082 2.082 0 0 0-.989-1.946l-2.39-1.468a1.485 1.485 0 0 0-.34-1.57l-2.731-2.73a1.485 1.485 0 0 0-1.57-.342l-1.468-2.389a2.082 2.082 0 0 0-1.946-.99l-1.706-3.96c-.069-.17-.273-.238-.444-.17-1.673.683-2.663 1.707-2.8 2.901-.033.308 0 .649.103.99l.58 1.946-.819.307c-.41.17-.716.512-.955 1.024-.376.853-.308 1.843.17 2.697l1.707 2.935c-.17.17-.341.375-.444.683a3.305 3.305 0 0 0 .17 2.833l.035.034c.068.102.137.239.205.341.034.034.068.103.136.137.069.068.103.136.171.205l1.195 1.194 1.194 1.195c.683.614 1.502.956 2.356.956.41 0 .819-.069 1.194-.24.273-.136.512-.272.683-.443l2.935 1.707c.478.273 1.024.443 1.536.443.41 0 .785-.068 1.16-.239.513-.239.82-.546 1.025-.955l.375-.854 1.946.58c.273.069.512.137.75.137h.206c1.194-.136 2.218-1.126 2.901-2.799.068-.17 0-.375-.17-.444zM2.096 9.038C2.198 7.946 3.324 7.23 4.144 6.82l1.502 3.515-2.936 1.263-.546-1.843c-.068-.273-.102-.512-.068-.717zM1.072 15.66c-.41-.682-.444-1.433-.171-2.082.17-.341.341-.546.614-.648l4.438-1.912c.17-.068.375-.102.546-.102.478 0 .956.239 1.195.682l1.467 2.39-6.417 4.54-1.672-2.868zm7.611 9.49s0 .033-.034.068l-.034.068c-.136.17-.341.307-.683.41a2.457 2.457 0 0 1-2.32-.41c-.035 0-.035-.034-.035-.034-.068-.069-.17-.137-.239-.205l-1.194-1.195-1.195-1.194a1.485 1.485 0 0 1-.205-.24c0-.034-.034-.034-.034-.068a2.587 2.587 0 0 1-.41-2.32c.103-.342.24-.547.41-.683l.034-.035c.034 0 .034-.034.068-.034l4.199-3.003 2.765-1.98a.784.784 0 0 1 .478-.137.8.8 0 0 1 .58.24l2.73 2.764c.274.273.308.717.103 1.058l-1.98 2.765-3.004 4.164zm6.417 1.33c-.102.274-.307.444-.648.615-.649.307-1.434.239-2.082-.137l-2.867-1.672 4.573-6.417 2.39 1.467c.58.342.819 1.093.546 1.707L15.1 26.48zm3.823-.546c-.204.034-.443 0-.716-.068l-1.878-.58 1.297-2.936 3.516 1.502c-.375.854-1.092 1.946-2.219 2.082z"/>
    </g>
</symbol><symbol id="icon-donation" viewBox="0 0 26 26">
    <title>
        donation
    </title>
    <g fill-rule="nonzero">
        <path d="M4.767 22.1a.432.432 0 0 0 .306-.74l-3.491-3.489c-.03-.025-.715-.637-.715-1.838v-6.5a.868.868 0 0 1 1.733 0v3.431a.433.433 0 1 0 .867 0v-3.43c0-.957-.778-1.734-1.734-1.734S0 8.577 0 9.533v6.5c0 1.618.979 2.463.994 2.473l3.466 3.467a.432.432 0 0 0 .307.127z"/>
        <path d="M24.267 7.8c-.956 0-1.734.777-1.734 1.733v3.431a.433.433 0 1 0 .867 0v-3.43a.868.868 0 0 1 1.733 0v6.5c0 1.2-.686 1.811-.74 1.86l-3.466 3.466a.433.433 0 1 0 .613.613l3.44-3.442c.041-.035 1.02-.88 1.02-2.498v-6.5c0-.956-.777-1.733-1.733-1.733z"/>
        <path d="M2.626 15.591c.019.436.208.856.534 1.182l2.167 2.167a.433.433 0 1 0 .613-.613L3.773 16.16a.912.912 0 0 1-.28-.604.746.746 0 0 1 .228-.569.738.738 0 0 1 .569-.228.914.914 0 0 1 .604.28l3.053 3.053c.03.027.72.657.72 1.841V22.1a.433.433 0 1 0 .866 0v-2.167c0-1.594-.974-2.458-.993-2.473l-3.034-3.033a1.78 1.78 0 0 0-1.18-.534 1.611 1.611 0 0 0-1.218.482c-.33.328-.5.76-.482 1.216z"/>
        <path d="M9.967 23.4H3.033a.433.433 0 0 0-.433.433v1.734a.433.433 0 1 0 .867 0v-1.3h6.066v1.3a.433.433 0 1 0 .867 0v-1.734a.433.433 0 0 0-.433-.433z"/>
        <path d="M16.467 19.933V22.1a.433.433 0 1 0 .866 0v-2.167c0-1.184.69-1.815.74-1.86l3.033-3.033a.914.914 0 0 1 .604-.28c.221-.01.411.07.57.227a.746.746 0 0 1 .227.57.914.914 0 0 1-.28.603l-2.167 2.167a.433.433 0 1 0 .613.613l2.167-2.167c.326-.326.515-.746.534-1.182a1.611 1.611 0 0 0-.482-1.217 1.609 1.609 0 0 0-1.217-.481 1.78 1.78 0 0 0-1.181.534l-3.011 3.012c-.042.036-1.016.9-1.016 2.494z"/>
        <path d="M13 4.767c.478 0 .867.388.867.866a.433.433 0 1 0 .866 0c0-.805-.554-1.478-1.3-1.671V3.9a.433.433 0 1 0-.866 0v.062c-.746.193-1.3.866-1.3 1.671 0 .956.777 1.734 1.733 1.734a.868.868 0 1 1-.867.866.433.433 0 1 0-.866 0c0 .806.554 1.478 1.3 1.672v.062a.433.433 0 1 0 .866 0v-.062a1.731 1.731 0 0 0 1.3-1.672c0-.956-.777-1.733-1.733-1.733a.868.868 0 0 1 0-1.733z"/>
        <path d="M22.967 23.4h-6.934a.433.433 0 0 0-.433.433v1.734a.433.433 0 1 0 .867 0v-1.3h6.066v1.3a.433.433 0 1 0 .867 0v-1.734a.433.433 0 0 0-.433-.433z"/>
        <path d="M19.933 6.933A6.941 6.941 0 0 0 13 0a6.941 6.941 0 0 0-6.933 6.933A6.941 6.941 0 0 0 13 13.867a6.941 6.941 0 0 0 6.933-6.934zM13 13a6.073 6.073 0 0 1-6.067-6.067A6.073 6.073 0 0 1 13 .867a6.073 6.073 0 0 1 6.067 6.066A6.073 6.073 0 0 1 13 13z"/>
    </g>
</symbol><symbol id="icon-down" viewBox="0 0 11 6">
    <title>
        Shape
    </title>
    <path d="M10.9.1c-.2-.2-.4-.2-.5 0l-4.9 5L.7.1C.5 0 .3 0 .1.1S0 .5.1.7l5.1 5.2c.1.1.2.1.3.1.1 0 .2 0 .3-.1L10.9.7c.1-.2.1-.4 0-.6z"/>
</symbol><symbol id="icon-earth" viewBox="0 0 20 23">
    <title>
        earth
    </title>
    <g fill-rule="nonzero">
        <path d="M19.899 11.631a.385.385 0 0 0-.434-.326.383.383 0 0 0-.328.431c.059.42.088.849.088 1.272 0 5.026-4.078 9.122-9.114 9.182-1.367-.87-2.648-1.934-2.077-3.26 1.024-2.38.07-3.268-.337-3.647l-.076-.072a1.806 1.806 0 0 0-.364-.264c-.281-.168-.357-.213-.206-.664.1-.3.233-.44.386-.6.356-.375.628-.747.628-1.83 0-.629-.321-1.131-.881-1.377-.635-.28-1.482-.181-1.93.224a.863.863 0 0 0-.258.945c.274.817-.352 1.997-1.522 2.87-.31.232-.403.126-.458.063-.343-.394-.317-1.514-.035-1.794.189-.188.245-.428.15-.641-.311-.704-2.298-.65-2.691-.63-.017 0-.03.008-.047.011a.348.348 0 0 0-.14.054.354.354 0 0 0-.164.229c-.003.014-.012.026-.013.041a9.933 9.933 0 0 0 7.52 10.817.383.383 0 1 0 .183-.743A9.17 9.17 0 0 1 .805 12.27c.649-.003 1.202.073 1.484.159-.441.685-.393 2.032.146 2.65.387.443.947.462 1.5.049 1.477-1.102 2.18-2.565 1.79-3.725-.012-.038-.025-.073.046-.137.202-.183.717-.26 1.102-.09.285.124.423.346.423.678 0 .863-.175 1.048-.417 1.302-.18.19-.403.425-.558.885-.345 1.034.21 1.365.54 1.563a1.189 1.189 0 0 1 .311.238c.338.315.967.9.155 2.787-.921 2.139 1.454 3.63 2.468 4.267a.389.389 0 0 0 .205.06c5.51 0 9.994-4.463 9.994-9.948 0-.458-.032-.921-.095-1.377z"/>
        <path d="M14.611 13.207a3.114 3.114 0 0 1-.303.078c-.531 0-.868.41-1.114.708-.094.114-.261.329-.371.322a1.209 1.209 0 0 0-.543-.13c-.453 0-.845.268-.933.638-.062.26.03.617.47.836.623.31 1.269.632 1.556.917.198.197.54.31.938.31.605 0 1.41-.293 1.687-1.118.109-.326.37-.574.622-.815.293-.28.57-.542.574-.921.003-.224-.097-.437-.295-.635-.27-.269-.638-.405-1.094-.405-.437 0-.875.124-1.194.215zm1.814.814c-.018.076-.21.258-.336.38-.29.276-.652.62-.82 1.125-.19.566-.832.595-.958.595-.224 0-.365-.06-.394-.085-.376-.374-1.047-.708-1.757-1.062l-.004-.001a.43.43 0 0 1 .323.026.843.843 0 0 0 .379.094c.425 0 .694-.327.93-.615.174-.21.353-.428.52-.428.136 0 .295-.045.514-.107.291-.083.653-.186.983-.186.248 0 .428.06.55.181.053.054.068.083.07.083z"/>
        <path d="M9.623 3.834a9.342 9.342 0 0 1 2.31.194c-.013.55.225.928.379 1.17l.108.172c0 1.373-.282 1.596-.28 1.596-.622 0-1.645.554-2.029 1.269-.236.438-.217.902.053 1.306.186.276.345.584.5.881.326.63.69 1.329 1.258 1.329.12 0 .25-.032.391-.102.448-.223.77-.857 1.08-1.47.137-.27.338-.666.457-.792.39.053.581.404.84.96.189.41.385.832.771 1.024.65.323 2.786-.015 3.966-.514.016-.007.027-.02.041-.028.023-.013.045-.026.064-.043a.375.375 0 0 0 .047-.055.364.364 0 0 0 .04-.06.341.341 0 0 0 .023-.07.374.374 0 0 0 .014-.07.366.366 0 0 0-.005-.076c-.002-.017.002-.033-.003-.05A10.02 10.02 0 0 0 13.785 3.8a.382.382 0 1 0-.291.708 9.257 9.257 0 0 1 5.312 5.768c-1.196.42-2.728.546-3.001.412-.145-.072-.29-.385-.418-.66-.268-.578-.635-1.37-1.572-1.41-.49-.026-.757.525-1.108 1.218-.206.406-.517 1.02-.765 1.141-.143-.033-.426-.579-.595-.905-.157-.301-.334-.643-.543-.955-.113-.169-.118-.33-.015-.52.264-.49 1.056-.864 1.352-.864.695 0 1.047-.795 1.047-2.362 0-.222-.114-.404-.225-.58-.163-.256-.331-.522-.232-.976a.383.383 0 0 0-.28-.452c-.928-.233-1.9-.331-2.859-.293a.383.383 0 1 0 .031.765z"/>
        <path d="M10.112 20.951c.364 0 .705-.131.935-.36.255-.253.317-.627.175-1.05a2.175 2.175 0 0 0-.507-.81.592.592 0 0 0-.42-.17c-.48 0-1.043.55-1.249 1.043-.16.386-.112.745.131.988.23.228.57.36.935.36zm-.292-1.176c.132-.218.32-.372.421-.426.11.128.204.29.252.433.042.127.046.232.01.268-.17.17-.614.165-.78.004-.006-.016-.005-.112.097-.279z"/>
        <path d="M.59 11.072a.384.384 0 0 0 .459-.29c.272-1.222 1.227-3.022 2-3.777a.382.382 0 0 0 .007-.541.386.386 0 0 0-.544-.006c-.875.853-1.91 2.796-2.215 4.158a.383.383 0 0 0 .292.456z"/>
        <path d="M5.087 7.89a.385.385 0 0 0 .6 0l1.527-1.9c.422-.479 1.248-1.875 1.248-2.93C8.462 1.374 7.082 0 5.387 0a3.071 3.071 0 0 0-3.075 3.06c0 1.233 1.104 2.74 1.238 2.918L5.087 7.89zm.3-7.125a2.303 2.303 0 0 1 2.307 2.296c0 .79-.7 2.017-1.07 2.439L5.388 7.04l-1.23-1.53c-.371-.497-1.076-1.647-1.076-2.45A2.303 2.303 0 0 1 5.387.766z"/>
        <path d="M5.387 3.826a.768.768 0 0 0 .77-.765.768.768 0 0 0-1.538 0c0 .422.344.765.768.765z"/>
    </g>
</symbol><symbol id="icon-facebook" viewBox="0 0 10 18">
    <title>
        Shape
    </title>
    <path d="M5.575 17.658V9h2.857l.452-2.87H5.575V4.693c0-.748.246-1.463 1.32-1.463h2.148V.365H5.994c-2.564 0-3.263 1.689-3.263 4.029V6.13H.97V9h1.76v8.658h2.844z" fill-rule="nonzero" opacity=".8"/>
</symbol><symbol id="icon-filter" viewBox="0 0 20 18">
    <title>
        filter
    </title>
    <path d="M19.899.392a.606.606 0 0 0-.547-.338H.605a.606.606 0 0 0-.547.338c-.1.206-.069.45.08.626l7.207 8.52v7.855c0 .204.108.393.286.501a.617.617 0 0 0 .587.027l4.05-1.956a.588.588 0 0 0 .335-.527l.008-5.9 7.207-8.52a.577.577 0 0 0 .08-.626zM11.54 8.95a.58.58 0 0 0-.138.374l-.008 5.746-2.84 1.372V9.326a.58.58 0 0 0-.138-.375L1.887 1.233H18.07L11.54 8.95z" fill-rule="nonzero"/>
</symbol><symbol id="icon-golf" viewBox="0 0 20 28">
    <title>
        golf
    </title>
    <g fill-rule="nonzero">
        <path d="M8.075 6.967a.445.445 0 0 0 .641 0 1.43 1.43 0 0 0 0-1.98 1.337 1.337 0 0 0-1.925 0 .476.476 0 0 0 0 .66.445.445 0 0 0 .642 0 .446.446 0 0 1 .642 0 .477.477 0 0 1 0 .66.475.475 0 0 0 0 .66z"/>
        <path d="M10 0C4.494 0 .014 4.606.014 10.267c0 4.898 3.389 9.136 8.057 10.075a.454.454 0 0 0 .533-.369.466.466 0 0 0-.358-.547C4.002 18.572.922 14.72.922 10.266.922 5.12 4.994.934 10 .934c5.006 0 9.078 4.187 9.078 9.334 0 5.146-4.072 9.333-9.078 9.333a.46.46 0 0 0-.454.467.46.46 0 0 0 .454.466c5.506 0 9.986-4.605 9.986-10.266S15.506 0 10 0z"/>
        <path d="M14.085 20.533a.46.46 0 0 0-.454.467.46.46 0 0 1-.454.467H6.823A.46.46 0 0 1 6.369 21a.46.46 0 0 0-.454-.467.46.46 0 0 0-.454.467c0 .772.611 1.4 1.362 1.4h1.885l.845 5.21c.036.225.225.39.447.39a.458.458 0 0 0 .448-.39l.844-5.21h1.885c.751 0 1.362-.628 1.362-1.4a.46.46 0 0 0-.454-.467zM10 24.695L9.628 22.4h.744L10 24.695z"/>
        <path d="M12.247 9.277a.447.447 0 0 0 .642 0 1.43 1.43 0 0 0 0-1.98 1.337 1.337 0 0 0-1.926 0 .476.476 0 0 0 0 .66.445.445 0 0 0 .642 0 .446.446 0 0 1 .642 0 .476.476 0 0 1 0 .66.476.476 0 0 0 0 .66z"/>
        <path d="M13.53 4.657a.477.477 0 0 0 0 .66.445.445 0 0 0 .642 0 .446.446 0 0 1 .643 0 .476.476 0 0 1 0 .66.476.476 0 0 0 0 .66.448.448 0 0 0 .641 0 1.43 1.43 0 0 0 0-1.98 1.337 1.337 0 0 0-1.926 0z"/>
        <path d="M10 3.007a.476.476 0 0 0 0 .66.445.445 0 0 0 .642 0 .456.456 0 0 1 .642 0 .476.476 0 0 1 0 .66.476.476 0 0 0 0 .66.446.446 0 0 0 .642 0 1.43 1.43 0 0 0 0-1.98 1.368 1.368 0 0 0-1.926 0z"/>
        <path d="M13.53 12.577a.445.445 0 0 0 .642 0 .446.446 0 0 1 .643 0 .477.477 0 0 1 0 .66.476.476 0 0 0 0 .66.448.448 0 0 0 .641 0 1.43 1.43 0 0 0 0-1.98 1.337 1.337 0 0 0-1.926 0 .476.476 0 0 0 0 .66z"/>
        <path d="M16.42 10.267a.446.446 0 0 0 .641 0c.257-.264.4-.616.4-.99s-.143-.726-.4-.99a1.337 1.337 0 0 0-1.926 0 .477.477 0 0 0 0 .66.446.446 0 0 0 .643 0 .445.445 0 0 1 .642 0 .47.47 0 0 1 .132.33.468.468 0 0 1-.132.33.476.476 0 0 0 0 .66z"/>
    </g>
</symbol><symbol id="icon-google-plus" viewBox="0 0 18 17">
    <title>
        google-plus
    </title>
    <g fill-rule="nonzero" opacity=".8">
        <path d="M11.115 12.718c0-1.471-.852-2.197-1.79-2.986l-.768-.597c-.235-.191-.554-.448-.554-.917 0-.469.32-.768.597-1.044.895-.704 1.79-1.45 1.79-3.028 0-1.621-1.023-2.473-1.513-2.878H10.2L11.562.5H7.17c-1.15 0-2.6.17-3.817 1.173C2.437 2.46 1.99 3.549 1.99 4.53c0 1.662 1.279 3.347 3.538 3.347.214 0 .447-.022.683-.042-.106.256-.212.47-.212.832 0 .66.34 1.066.64 1.45-.96.063-2.751.17-4.073.98-1.258.746-1.641 1.834-1.641 2.602 0 1.577 1.493 3.049 4.584 3.049 3.666 0 5.606-2.027 5.606-4.03zM6.53 7.281c-1.834 0-2.665-2.367-2.665-3.795 0-.555.106-1.129.469-1.577.34-.427.938-.705 1.493-.705 1.77 0 2.686 2.389 2.686 3.923 0 .384-.042 1.066-.533 1.557-.34.341-.916.596-1.45.597zm.022 8.57c-2.281 0-3.752-1.086-3.752-2.6 0-1.513 1.365-2.025 1.834-2.195.896-.299 2.046-.342 2.239-.342.212 0 .319 0 .49.021 1.62 1.151 2.323 1.727 2.323 2.815 0 1.321-1.087 2.302-3.134 2.302z"/>
        <path d="M11.307 8.577h2.309v2.307h1.154V8.577h2.307V7.423H14.77V5.116h-1.154v2.307h-2.309z"/>
    </g>
</symbol><symbol id="icon-home" viewBox="0 0 24 22">
    <title>
        home
    </title>
    <g fill-rule="nonzero">
        <path d="M17.104 10.162a.355.355 0 0 0-.486-.1.341.341 0 0 0-.103.477c.294.443.45.958.45 1.49 0 1-.578 2.201-1.627 3.384-.94 1.06-2.149 1.985-3.338 2.557a9.396 9.396 0 0 1-.875-.483.355.355 0 0 0-.485.107.342.342 0 0 0 .109.476c.37.23.74.43 1.103.595a.357.357 0 0 0 .296 0c1.323-.604 2.679-1.624 3.72-2.799 1.16-1.308 1.8-2.67 1.8-3.837 0-.666-.195-1.312-.564-1.867z"/>
        <path d="M15.806 9A3.518 3.518 0 0 0 12 9.388a3.473 3.473 0 0 0-2.2-.776c-1.912 0-3.467 1.533-3.467 3.417 0 1.588 1.169 3.5 3.127 5.114a.354.354 0 0 0 .495-.043.341.341 0 0 0-.043-.486c-1.774-1.462-2.876-3.219-2.876-4.585 0-1.503 1.24-2.726 2.764-2.726.737 0 1.43.282 1.951.795a.355.355 0 0 0 .498 0 2.767 2.767 0 0 1 1.95-.795c.452 0 .883.104 1.28.309a.355.355 0 0 0 .475-.145.342.342 0 0 0-.148-.467z"/>
        <path d="M23.853 8.268L12.204.098a.357.357 0 0 0-.408 0L6.943 3.503V1.95h.065a.348.348 0 0 0 .351-.345.348.348 0 0 0-.351-.345H3.264a.348.348 0 0 0-.352.345c0 .19.158.345.352.345h.064v4.087L.148 8.268A.343.343 0 0 0 0 8.55v2.043c0 .129.074.247.19.306.118.06.259.05.366-.026l.692-.485v6.803h-.064a.348.348 0 0 0-.352.346v4.084c0 .19.157.345.352.345h21.632a.348.348 0 0 0 .352-.345v-4.084a.348.348 0 0 0-.352-.346h-.064v-6.803l.692.485a.356.356 0 0 0 .365.026.345.345 0 0 0 .191-.306V8.549a.343.343 0 0 0-.147-.28zM4.03 1.95h2.21v2.045l-2.21 1.55V1.95zm19.266 7.97l-1.941-1.36a.356.356 0 0 0-.49.08.341.341 0 0 0 .081.481l1.102.773v7.296H16.16a.348.348 0 0 0-.351.346c0 .19.157.345.351.345h6.305v3.394H1.535v-3.394H7.84a.348.348 0 0 0 .351-.345.348.348 0 0 0-.351-.346H1.95V9.894L12 2.846l7.699 5.4c.158.11.377.074.49-.08a.341.341 0 0 0-.082-.482L12.204 2.14a.357.357 0 0 0-.408 0L.703 9.921V8.727L12 .804l11.297 7.923V9.92z"/>
    </g>
</symbol><symbol id="icon-hotel" viewBox="0 0 24 22">
    <title>
        hotel
    </title>
    <g fill-rule="nonzero">
        <path d="M4.874 10.792c-.554 0-1.021.47-1.021 1.027v.968c0 .146.146.293.292.293h1.459c.175 0 .292-.117.292-.293v-.968c0-.558-.467-1.027-1.022-1.027zm.438 1.701h-.875v-.674a.45.45 0 0 1 .437-.44.45.45 0 0 1 .438.44v.674z"/>
        <path d="M7.91 10.792c-.555 0-1.022.47-1.022 1.027v.968c0 .146.117.293.292.293h1.46c.175 0 .291-.117.291-.293v-.968c0-.558-.467-1.027-1.021-1.027zm.438 1.701h-.876v-.674a.45.45 0 0 1 .438-.44.45.45 0 0 1 .438.44v.674z"/>
        <path d="M4.874 14.195c-.554 0-1.021.469-1.021 1.026v.968c0 .176.146.294.292.294h1.459c.175 0 .292-.118.292-.294v-.968c0-.557-.467-1.026-1.022-1.026zm.438 1.701h-.875v-.675a.45.45 0 0 1 .437-.44.45.45 0 0 1 .438.44v.675z"/>
        <path d="M7.91 14.195c-.555 0-1.022.469-1.022 1.026v.968c0 .176.117.294.292.294h1.46c.175 0 .291-.118.291-.294v-.968c0-.557-.467-1.026-1.021-1.026zm.438 1.701h-.876v-.675a.45.45 0 0 1 .438-.44.45.45 0 0 1 .438.44v.675z"/>
        <path d="M10.858 10.792c-.555 0-1.022.47-1.022 1.027v.968c0 .176.117.293.292.293h1.46c.175 0 .291-.117.291-.293v-.968a1 1 0 0 0-1.021-1.027zm.438 1.701h-.876v-.674a.45.45 0 0 1 .438-.44.45.45 0 0 1 .438.44v.674z"/>
        <path d="M4.874 7.39c-.554 0-1.021.469-1.021 1.026v.968c0 .147.146.293.292.293h1.459c.175 0 .292-.117.292-.293v-.968c0-.557-.467-1.027-1.022-1.027zm.438 1.7h-.875v-.674a.45.45 0 0 1 .437-.44.45.45 0 0 1 .438.44v.675z"/>
        <path d="M7.91 7.39c-.555 0-1.022.469-1.022 1.026v.968c0 .147.117.293.292.293h1.46c.175 0 .291-.117.291-.293v-.968c0-.557-.467-1.027-1.021-1.027zm.438 1.7h-.876v-.674a.45.45 0 0 1 .438-.44.45.45 0 0 1 .438.44v.675z"/>
        <path d="M4.874 4.045c-.554 0-1.021.47-1.021 1.027v.968c0 .147.146.293.292.293h1.459c.175 0 .292-.117.292-.293v-.968c0-.557-.467-1.027-1.022-1.027zm.438 1.702h-.875v-.675a.45.45 0 0 1 .437-.44.45.45 0 0 1 .438.44v.675z"/>
        <path d="M7.91 4.045c-.555 0-1.022.47-1.022 1.027v.968c0 .147.117.293.292.293h1.46c.175 0 .291-.117.291-.293v-.968c0-.557-.467-1.027-1.021-1.027zm.438 1.702h-.876v-.675a.45.45 0 0 1 .438-.44.45.45 0 0 1 .438.44v.675z"/>
        <path d="M10.858 4.045c-.555 0-1.022.47-1.022 1.027v.968c0 .147.146.293.292.293h1.46c.175 0 .291-.117.291-.293v-.968c0-.557-.467-1.027-1.021-1.027zm.438 1.702h-.876v-.675a.45.45 0 0 1 .438-.44.45.45 0 0 1 .438.44v.675z"/>
        <path d="M10.858 7.39c-.555 0-1.022.469-1.022 1.026v.968c0 .176.117.293.292.293h1.46c.175 0 .291-.117.291-.293v-.968c0-.557-.437-1.027-1.021-1.027zm.438 1.7h-.876v-.674a.45.45 0 0 1 .438-.44.45.45 0 0 1 .438.44v.675z"/>
        <path d="M10.858 14.195c-.555 0-1.022.469-1.022 1.026v.968c0 .176.117.294.292.294h1.46c.175 0 .291-.118.291-.294v-.968c0-.557-.437-1.026-1.021-1.026zm.438 1.701h-.876v-.675a.45.45 0 0 1 .438-.44.45.45 0 0 1 .438.44v.675z"/>
        <path d="M23.73 21.44h-2.51v-5.133a.45.45 0 0 1 .437-.44.45.45 0 0 1 .438.44c0 .176.117.293.292.293s.292-.117.292-.293c0-.558-.467-1.027-1.022-1.027a.805.805 0 0 0-.38.088c.147-.41.526-.704.993-.704.175 0 .292-.117.292-.293s-.117-.294-.292-.294c-.408 0-.759.147-1.05.382V13.9c0-.176-.117-.293-.292-.293-.176 0-.292.117-.292.293v.558a1.648 1.648 0 0 0-1.051-.382c-.175 0-.292.118-.292.294s.117.293.292.293c.467 0 .846.293.992.704a.805.805 0 0 0-.38-.088c-.554 0-1.02.47-1.02 1.027 0 .176.116.293.291.293s.292-.117.292-.293a.45.45 0 0 1 .438-.44.45.45 0 0 1 .438.44v5.104h-3.824v-6.747c0-.381.292-.675.671-.675.38 0 .672.294.672.675 0 .176.116.293.292.293.175 0 .291-.117.291-.293 0-.704-.554-1.261-1.255-1.261-.233 0-.437.058-.642.176a1.472 1.472 0 0 1 1.43-1.203c.176 0 .292-.117.292-.293s-.116-.294-.292-.294c-.583 0-1.08.235-1.459.616v-.909c0-.176-.117-.293-.292-.293s-.292.117-.292.293v.939a2.022 2.022 0 0 0-1.459-.616c-.175 0-.292.117-.292.293s.117.293.292.293c.7 0 1.313.499 1.43 1.203a1.172 1.172 0 0 0-.642-.176c-.7 0-1.255.557-1.255 1.261 0 .176.117.294.292.294s.292-.118.292-.294c0-.381.292-.674.671-.674.38 0 .671.293.671.674v6.747h-2.422V.379c0-.176-.117-.294-.292-.294H2.627c-.175 0-.292.118-.292.294V21.41H.292c-.175 0-.292.117-.292.293s.117.293.292.293H23.7c.175 0 .292-.117.292-.293.03-.147-.117-.264-.262-.264zm-14.915 0h-1.81v-1.848c0-.528.409-.968.905-.968.496 0 .905.44.905.968v1.848zm4.407 0H9.398v-1.848c0-.85-.67-1.555-1.488-1.555-.817 0-1.489.704-1.489 1.555v1.848H2.92V2.373h10.303V21.44zm0-19.683H2.919V.672h10.303v1.085z"/>
        <path d="M19.468 2.08c-1.05 0-1.926.88-1.926 1.936s.875 1.936 1.926 1.936c1.05 0 1.927-.88 1.927-1.936a1.93 1.93 0 0 0-1.927-1.936zm-.029 3.285a1.342 1.342 0 0 1-1.343-1.349c0-.733.613-1.35 1.343-1.35.759 0 1.343.617 1.343 1.35 0 .733-.584 1.35-1.343 1.35z"/>
        <path d="M19.439.056c-.175 0-.292.117-.292.293v.939c0 .147.146.293.292.293.175 0 .292-.117.292-.293V.349c0-.176-.117-.293-.292-.293z"/>
        <path d="M21.395.555c-.146-.088-.322-.03-.41.117l-.466.821c-.058.147-.03.323.117.411.058.03.087.03.146.03a.348.348 0 0 0 .262-.147l.467-.822c.088-.146.03-.322-.116-.41z"/>
        <path d="M22.854 1.992c-.088-.147-.263-.176-.409-.117l-.817.469c-.146.117-.175.293-.117.41a.306.306 0 0 0 .263.147c.058 0 .088 0 .146-.029l.817-.47c.146-.087.175-.263.117-.41z"/>
        <path d="M23.087 3.635l-.934.029a.293.293 0 0 0-.291.293c0 .147.145.294.291.294l.934-.03a.293.293 0 0 0 0-.586z"/>
        <path d="M22.796 5.512l-.818-.47c-.146-.087-.32-.029-.408.118-.088.147-.03.323.116.41l.818.47c.058.03.087.03.146.03a.306.306 0 0 0 .262-.147c.088-.147.03-.323-.116-.411z"/>
        <path d="M21.599 7.008l-.496-.821c-.088-.147-.263-.176-.409-.088-.146.088-.175.264-.088.41l.497.792a.306.306 0 0 0 .262.147c.059 0 .117 0 .146-.03.146-.087.175-.263.088-.41z"/>
        <path d="M19.818 6.744c0-.176-.146-.323-.291-.293a.293.293 0 0 0-.292.293l.029.939c0 .146.146.293.292.293a.293.293 0 0 0 .292-.293l-.03-.939z"/>
        <path d="M18.33 6.157c-.146-.088-.321-.029-.409.118l-.438.85c-.087.147-.029.323.117.411.03.03.088.03.146.03a.306.306 0 0 0 .263-.147l.438-.851c.087-.147.029-.323-.117-.41z"/>
        <path d="M17.367 5.307c-.059-.118-.234-.176-.38-.088l-.788.498c-.146.088-.175.264-.087.411.058.088.146.147.233.147.058 0 .117-.03.146-.059l.788-.499c.146-.088.175-.264.088-.41z"/>
        <path d="M17.016 4.133c0-.176-.146-.293-.291-.264l-.934.059c-.176 0-.292.147-.263.293-.03.147.117.264.263.264l.963-.058c.175 0 .292-.147.262-.294z"/>
        <path d="M17.192 2.55l-.847-.44c-.146-.06-.321-.03-.38.117-.116.146-.058.322.088.381l.847.44c.029.03.087.03.146.03a.306.306 0 0 0 .262-.147c.059-.147.03-.323-.116-.382z"/>
        <path d="M18.184 1.552L17.659.76c-.088-.147-.263-.176-.41-.088-.145.088-.174.264-.087.41l.526.822a.265.265 0 0 0 .233.117c.059 0 .117-.029.175-.058.146-.088.175-.264.088-.411z"/>
    </g>
</symbol><symbol id="icon-hug" viewBox="0 0 28 20">
    <title>
        hug
    </title>
    <path d="M27.59 8.39a.41.41 0 0 0-.41.41v.48h-1.378a3.255 3.255 0 0 0-.113-.354.409.409 0 0 0 .076-.14 6.75 6.75 0 0 0-1.72-6.841c-2.587-2.553-6.797-2.553-9.384 0l-.36.355a.722.722 0 0 1-1.01 0l-.36-.355A6.69 6.69 0 0 0 8.978.067a6.736 6.736 0 0 0-4.207.925.41.41 0 1 0 .425.7 5.858 5.858 0 0 1 7.16.836l.359.355a1.546 1.546 0 0 0 2.163 0l.36-.355c2.269-2.239 5.961-2.239 8.23 0a5.937 5.937 0 0 1 1.66 5.453 3.294 3.294 0 0 0-.343-.348l-3.21-2.803a.682.682 0 0 0-.924.03l-.01.01a1.593 1.593 0 0 0-.115 2.152l.841 1.027c.03.035.035.074.015.116a.115.115 0 0 1-.11.067h-4.796a1.2 1.2 0 0 0-1.204 1.194c0 .131.021.258.061.377a1.2 1.2 0 0 0-1.123 1.19 1.2 1.2 0 0 0 1.205 1.194h.45a1.18 1.18 0 0 0-.062.378 1.2 1.2 0 0 0 1.124 1.191c-.04.12-.063.247-.063.38a1.2 1.2 0 0 0 1.204 1.194l1.41.004a29.068 29.068 0 0 1-3.463 2.555l-1.834 1.154a.726.726 0 0 1-.77 0l-1.833-1.154a29.08 29.08 0 0 1-3.461-2.554l1.814-.005a1.2 1.2 0 0 0 1.205-1.194c0-.133-.022-.26-.063-.38a1.2 1.2 0 0 0 1.125-1.191c0-.132-.022-.259-.062-.378h.45a1.2 1.2 0 0 0 1.204-1.193 1.2 1.2 0 0 0-1.123-1.191c.04-.119.062-.246.062-.377a1.2 1.2 0 0 0-1.205-1.194H6.728a.116.116 0 0 1-.11-.067.102.102 0 0 1 .015-.116l.841-1.027a1.593 1.593 0 0 0-.115-2.153l-.01-.008a.682.682 0 0 0-.923-.03l-3.21 2.802a3.285 3.285 0 0 0-.647.768 5.965 5.965 0 0 1 1.556-5.873.41.41 0 1 0-.577-.583A6.78 6.78 0 0 0 1.953 9.15c.019.05.046.093.08.13H.82V8.8a.41.41 0 0 0-.82 0v6.127a.41.41 0 0 0 .82 0v-.637h1.935c.834 0 1.67.194 2.416.562a4.729 4.729 0 0 0 1.71.47l.148.137c.13.12.264.246.35.322a29.885 29.885 0 0 0 3.761 2.802l1.834 1.154a1.544 1.544 0 0 0 1.644 0l1.834-1.154a29.86 29.86 0 0 0 4.254-3.246h.042c.718 0 1.438-.167 2.08-.484a5.492 5.492 0 0 1 2.417-.563h1.935v.637a.41.41 0 0 0 .82 0V8.8a.41.41 0 0 0-.41-.41zM7.252 14.516a3.903 3.903 0 0 1-1.718-.4 6.317 6.317 0 0 0-2.78-.647H.82V10.1h1.714a.41.41 0 0 0 .406-.353c.082-.578.372-1.11.815-1.497L6.86 5.54a.776.776 0 0 1-.02.963l-.841 1.026a.933.933 0 0 0 .73 1.523h4.796a.38.38 0 0 1 .384.374.379.379 0 0 1-.349.372l-4.248.005a.41.41 0 0 0 0 .82l4.178-.005a.415.415 0 0 0 .035.001h1.061a.38.38 0 0 1 .385.374.38.38 0 0 1-.385.374H9.08l-1.78.004a.41.41 0 0 0 0 .82h3.693a.38.38 0 0 1 .384.374.38.38 0 0 1-.384.374l-3.683.007a.41.41 0 0 0 .001.82h.001l2.62-.004a.38.38 0 0 1 .383.374.38.38 0 0 1-.385.374l-2.678.007zM27.18 13.47h-1.935c-.96 0-1.92.224-2.78.647-.53.262-1.124.4-1.716.4l-2.68-.007a.38.38 0 0 1-.384-.374.38.38 0 0 1 .384-.374h.84l1.779.004a.41.41 0 0 0 .002-.82l-3.683-.007a.38.38 0 0 1-.384-.374.38.38 0 0 1 .384-.374h3.7a.41.41 0 0 0 0-.82l-1.788-.003h-3.504a.38.38 0 0 1-.385-.374.38.38 0 0 1 .385-.374h1.052l4.222.003a.41.41 0 1 0 0-.82L16.5 9.8h-.023a.38.38 0 0 1-.384-.374.38.38 0 0 1 .384-.374h4.796a.933.933 0 0 0 .73-1.523l-.84-1.026a.776.776 0 0 1-.021-.963l3.104 2.71c.443.387.733.919.815 1.497a.41.41 0 0 0 .407.352h1.713v3.37z" fill-rule="nonzero"/>
</symbol><symbol id="icon-items" viewBox="0 0 18 18">
    <title>
        items
    </title>
    <g fill-rule="nonzero">
        <path d="M6.74 9.57H1.688A1.69 1.69 0 0 0 0 11.257v5.056C0 17.242.757 18 1.688 18H6.74a1.69 1.69 0 0 0 1.687-1.688v-5.055A1.69 1.69 0 0 0 6.741 9.57zm.563 6.742c0 .31-.252.563-.562.563H1.688a.563.563 0 0 1-.563-.563v-5.055c0-.31.252-.562.563-.562H6.74c.31 0 .562.252.562.562v5.056z"/>
        <path d="M16.313 9.57h-5.054a1.69 1.69 0 0 0-1.688 1.687v5.056c0 .93.757 1.687 1.688 1.687h5.053A1.69 1.69 0 0 0 18 16.312v-5.055a1.69 1.69 0 0 0-1.688-1.687zm.562 6.742c0 .31-.253.563-.563.563H11.26a.563.563 0 0 1-.563-.563v-5.055c0-.31.253-.562.563-.562h5.053c.31 0 .563.252.563.562v5.056z"/>
        <path d="M6.74 0H1.688A1.69 1.69 0 0 0 0 1.688V6.74c0 .93.757 1.688 1.688 1.688H6.74A1.69 1.69 0 0 0 8.428 6.74V1.688A1.69 1.69 0 0 0 6.741 0zm.563 6.741c0 .31-.252.563-.562.563H1.688a.563.563 0 0 1-.563-.563V1.688c0-.31.252-.563.563-.563H6.74c.31 0 .562.252.562.563V6.74z"/>
        <path d="M16.313 0h-5.054A1.69 1.69 0 0 0 9.57 1.688V6.74c0 .93.757 1.688 1.688 1.688h5.053A1.69 1.69 0 0 0 18 6.74V1.688A1.69 1.69 0 0 0 16.312 0zm.562 6.741c0 .31-.253.563-.563.563H11.26a.563.563 0 0 1-.563-.563V1.688c0-.31.253-.563.563-.563h5.053c.31 0 .563.252.563.563V6.74z"/>
    </g>
</symbol><symbol id="icon-light-bulb" viewBox="0 0 34 34">
    <title>
        light-bulb
    </title>
    <g fill-rule="nonzero">
        <path d="M18.7 22.1a.566.566 0 0 0 .567-.567V13.6h1.7a2.837 2.837 0 0 0 2.833-2.833 2.837 2.837 0 0 0-2.833-2.834 2.837 2.837 0 0 0-2.834 2.834v1.7h-2.266v-1.7a2.837 2.837 0 0 0-2.834-2.834 2.837 2.837 0 0 0-2.833 2.834 2.837 2.837 0 0 0 2.833 2.833h1.7v7.933a.567.567 0 0 0 1.134 0V13.6h2.266v7.933c0 .313.254.567.567.567zm.567-11.333c0-.938.762-1.7 1.7-1.7.937 0 1.7.762 1.7 1.7 0 .937-.763 1.7-1.7 1.7h-1.7v-1.7zm-4.534 1.7h-1.7c-.937 0-1.7-.763-1.7-1.7 0-.938.763-1.7 1.7-1.7.938 0 1.7.762 1.7 1.7v1.7z"/>
        <path d="M4.046 1.205l2.17 1.821a.564.564 0 0 0 .798-.07.567.567 0 0 0-.07-.798L4.774.338a.568.568 0 0 0-.728.867z"/>
        <path d="M4.413 6.15L1.75 5.182a.568.568 0 0 0-.388 1.065l2.662.968a.566.566 0 1 0 .388-1.065z"/>
        <path d="M27.419 3.159a.564.564 0 0 0 .363-.133l2.17-1.822a.566.566 0 1 0-.728-.868l-2.17 1.822a.567.567 0 0 0 .365 1z"/>
        <path d="M3.399 10.768H.567a.567.567 0 0 0 0 1.133h2.832a.567.567 0 0 0 0-1.133z"/>
        <path d="M32.974 5.519a.566.566 0 0 0-.726-.339l-2.662.97a.566.566 0 1 0 .387 1.064l2.663-.969a.566.566 0 0 0 .338-.726z"/>
        <path d="M17 0C10.75 0 5.667 5.084 5.667 11.333c0 4.783 1.875 8.35 5.904 11.228.019.014.047.03.068.042.03.016.64.357.793 1.312a1.693 1.693 0 0 0-.664 2.718 1.693 1.693 0 0 0 0 2.267c-.27.301-.435.698-.435 1.133 0 .938.763 1.7 1.7 1.7a.567.567 0 0 0 0-1.133.568.568 0 0 1 0-1.133H18.7a.566.566 0 1 0 0-1.133h-5.667a.568.568 0 0 1 0-1.134H18.7a.566.566 0 1 0 0-1.133h-5.667a.568.568 0 0 1 0-1.133H18.7a.566.566 0 1 0 0-1.134h-5.139c-.2-1.426-1.125-2.045-1.357-2.178C8.467 18.942 6.8 15.769 6.8 11.334c0-5.624 4.576-10.2 10.2-10.2s10.2 4.576 10.2 10.2c0 4.435-1.667 7.609-5.404 10.288-.26.15-1.396.912-1.396 2.745 0 .313.253.567.567.567a.567.567 0 0 1 0 1.133.566.566 0 1 0 0 1.133.567.567 0 0 1 0 1.134.566.566 0 1 0 0 1.133c.312 0 .566.254.566.566a.554.554 0 0 1-.566.567H15.3a.567.567 0 0 0-.567.567V32.3c0 .937.763 1.7 1.7 1.7h1.134c.937 0 1.7-.763 1.7-1.7v-.567h1.7c.953 0 1.7-.747 1.7-1.7 0-.435-.165-.832-.434-1.133a1.693 1.693 0 0 0 0-2.267 1.693 1.693 0 0 0-.665-2.718c.153-.955.762-1.295.785-1.308a.534.534 0 0 0 .076-.046c4.028-2.877 5.904-6.445 5.904-11.228C28.333 5.084 23.25 0 17 0zm1.133 32.3a.567.567 0 0 1-.566.567h-1.134a.568.568 0 0 1-.566-.567v-.567h2.266v.567z"/>
        <path d="M33.433 10.767H30.6a.566.566 0 1 0 0 1.133h2.833a.566.566 0 1 0 0-1.133z"/>
    </g>
</symbol><symbol id="icon-list" viewBox="0 0 18 18">
    <title>
        list
    </title>
    <g fill-rule="nonzero">
        <path d="M17.351 2.118H6.65c-.39 0-.649.211-.649.53 0 .317.324.528.649.528H17.35c.39 0 .649-.211.649-.529 0-.318-.26-.53-.649-.53z"/>
        <path d="M17.416 8.47H6.65C6.259 8.47 6 8.683 6 9c0 .318.26.53.649.53H17.35c.39 0 .649-.212.649-.53 0-.318-.26-.53-.584-.53z"/>
        <path d="M17.416 14.824H6.65c-.39 0-.649.211-.649.529 0 .318.26.53.649.53H17.35c.39 0 .649-.212.649-.53 0-.318-.26-.53-.584-.53z"/>
        <path d="M2.5 0C1.111 0 0 1.176 0 2.647c0 1.47 1.111 2.647 2.5 2.647S5 4.118 5 2.647C5 1.177 3.889 0 2.5 0zm0 3.897c-.625 0-1.111-.515-1.111-1.176 0-.662.486-1.177 1.111-1.177s1.111.515 1.111 1.177c0 .588-.486 1.176-1.111 1.176z"/>
        <path d="M2.5 6.353C1.111 6.353 0 7.529 0 9c0 1.47 1.111 2.647 2.5 2.647S5 10.471 5 9c0-1.47-1.111-2.647-2.5-2.647zm0 3.823c-.625 0-1.111-.514-1.111-1.176 0-.662.486-1.176 1.111-1.176S3.611 8.338 3.611 9c0 .662-.486 1.176-1.111 1.176z"/>
        <path d="M2.5 12.706c-1.389 0-2.5 1.176-2.5 2.647C0 16.823 1.111 18 2.5 18S5 16.824 5 15.353c0-1.397-1.111-2.647-2.5-2.647zm0 3.897c-.625 0-1.111-.515-1.111-1.177 0-.661.486-1.176 1.111-1.176s1.111.515 1.111 1.176c0 .662-.486 1.177-1.111 1.177z"/>
    </g>
</symbol><symbol id="icon-location" viewBox="0 0 34 34">
    <title>
        location
    </title>
    <g fill-rule="nonzero">
        <path d="M23.615 1.339l-.045-.02a.664.664 0 0 0-.515 1.225l.043.018a.662.662 0 0 0 .87-.353.664.664 0 0 0-.353-.87z"/>
        <path d="M9.466 14.234h-.319a.563.563 0 0 1-.562-.563v-.268a1.935 1.935 0 0 0-1.933-1.933.606.606 0 0 1-.605-.605V8.9a.664.664 0 1 0-1.328 0v1.965c0 1.066.867 1.933 1.933 1.933.333 0 .605.271.605.605v.268c0 1.042.848 1.89 1.89 1.89h.32a.664.664 0 0 0 0-1.327z"/>
        <path d="M20.222 29.61a.669.669 0 0 0-.47-.194.669.669 0 0 0-.469.195.669.669 0 0 0-.195.47.669.669 0 0 0 .664.663.669.669 0 0 0 .664-.664.67.67 0 0 0-.194-.47z"/>
        <path d="M32.894 10.974c-.313-.827-.69-1.63-1.13-2.4a.664.664 0 0 0-1.154.66c.254.443.486.9.694 1.366h-3.678V8.41l6.042-3.489a.664.664 0 0 0 0-1.15L27.294.091a.664.664 0 0 0-.996.575V10.754a3.88 3.88 0 0 0-2.796 3.72v.385a.408.408 0 0 1-.408.408h-.427a2.46 2.46 0 0 0-2.456 2.456v1.238a2.595 2.595 0 0 0 2.592 2.592h1.657c.692 0 1.256.564 1.256 1.257a2.83 2.83 0 0 0 2.827 2.827c.13 0 .236.105.236.235v1.337c0 .035.003.069.008.102a15.64 15.64 0 0 1-11.125 5.344v-.495c0-1.193-.97-2.164-2.163-2.164h-3.813a2.242 2.242 0 0 1-2.24-2.24v-.08a3.149 3.149 0 0 0-3.145-3.146h-.082a2.123 2.123 0 0 1-1.499-3.62c.4-.4.933-.62 1.5-.62h.067c.616 0 1.118-.502 1.118-1.119 0-.634.516-1.15 1.15-1.15h4.36c1.162 0 2.106.944 2.106 2.105v2.311a2.7 2.7 0 0 0 2.698 2.698c.755 0 1.37.614 1.37 1.37v1.185a.664.664 0 0 0 1.328 0v-1.185a2.7 2.7 0 0 0-2.698-2.698c-.755 0-1.37-.614-1.37-1.37v-2.31a3.437 3.437 0 0 0-3.433-3.434h-.513v-.676c0-.13.106-.237.237-.237a2.835 2.835 0 0 0 2.831-2.831c0-.695.565-1.26 1.26-1.26h1.66a2.599 2.599 0 0 0 2.596-2.596v-1.24a2.463 2.463 0 0 0-2.46-2.46h-.694a.41.41 0 0 1-.41-.41v-.385a3.88 3.88 0 0 0-1.709-3.215 15.789 15.789 0 0 1 4.474.272.664.664 0 0 0 .27-1.3 17.119 17.119 0 0 0-3.46-.353c-4.54 0-8.809 1.768-12.02 4.979A16.886 16.886 0 0 0 0 17c0 4.54 1.768 8.809 4.978 12.02a16.886 16.886 0 0 0 12.02 4.978c4.54 0 8.808-1.768 12.019-4.979A16.886 16.886 0 0 0 33.995 17c0-2.025-.361-4.028-1.057-5.91a.661.661 0 0 0-.044-.116zM27.626 5.88V1.816l4.382 2.53-4.382 2.53V5.88zM16.334 32.655C8 32.305 1.328 25.418 1.328 17c0-7.023 4.644-12.981 11.022-14.966.037.007.076.01.115.01h1.077a2.556 2.556 0 0 1 2.553 2.554v.385c0 .958.78 1.738 1.738 1.738h.694c.624 0 1.132.508 1.132 1.132v1.24a1.27 1.27 0 0 1-1.268 1.268h-1.66a2.59 2.59 0 0 0-2.588 2.588c0 .829-.674 1.503-1.503 1.503-.863 0-1.565.702-1.565 1.565v.676h-2.52a2.482 2.482 0 0 0-2.47 2.27 3.423 3.423 0 0 0-2.304 1.008 3.426 3.426 0 0 0-1.01 2.439 3.452 3.452 0 0 0 3.448 3.448h.082a1.82 1.82 0 0 1 1.817 1.817v.082c0 1.967 1.6 3.567 3.568 3.567h3.812c.461 0 .836.375.836.836v.495zm13.75-7.046a1.566 1.566 0 0 0-1.54-1.3c-.827 0-1.5-.673-1.5-1.5a2.587 2.587 0 0 0-2.584-2.584h-1.657a1.265 1.265 0 0 1-1.264-1.264v-1.238a1.13 1.13 0 0 1 1.128-1.129h.427c.957 0 1.736-.778 1.736-1.735v-.385c0-1.018.602-1.899 1.468-2.306v1.578a.664.664 0 1 0 1.328 0v-1.818h4.2c.554 1.624.842 3.34.842 5.072 0 3.178-.952 6.137-2.584 8.609z"/>
    </g>
</symbol><symbol id="icon-logo-waves" viewBox="0 0 37 12">
    <title>
        logo-waves
    </title>
    <path d="M36.8 5c-.4-.2-1.2.9-1.4 1.2-.6.6-1.2 1.2-1.9 1.6C31.9 8.9 30.4 9 28.6 9c-3.8 0-7.7-1.9-11.3-3-3.8-1-7.9-1.3-11.7-.3-1.7.4-3.5 1.3-4.4 2.8-.5.8-1.9 2.6-.7 3.4.4.3.7-1 .9-1.2.4-.8 1.3-1.2 2-1.7 1.2-.9 3.3-1.4 4.8-1.4 2.1 0 4.4-.4 6.4.3 1.6.5 3.3.9 5 1.5 1.9.6 3.7 1.3 5.6 1.7 1.1.2 2.1.4 3.2.4.8 0 1.7-.2 2.5-.1.5-.4 1.5-.4 2-1 .8-.2 1.3-.9 2-1.3s2.3-2.8 2.1-3.7c0-.3-.1-.3-.2-.4z"/>
    <path d="M36.8 0c-.4-.2-1.2.9-1.4 1.2-.6.6-1.2 1.2-1.9 1.6C31.9 3.9 30.4 4 28.6 4c-3.8 0-7.7-1.9-11.3-3C13.5 0 9.4-.3 5.6.7 3.9 1.1 2.1 2 1.2 3.5.7 4.3-.7 6.1.5 6.9c.4.3.7-1 .9-1.2.4-.8 1.3-1.2 2-1.7 1.2-.9 3.3-1.4 4.8-1.4 2.1 0 4.4-.4 6.4.3 1.6.5 3.3.9 5 1.5 1.9.6 3.7 1.3 5.6 1.7 1.1.2 2.1.4 3.2.4.8 0 1.7-.2 2.5-.1.5-.4 1.5-.4 2-1 .8-.2 1.3-.9 2-1.3S37.2 1.3 37 .4c0-.3-.1-.3-.2-.4z"/>
</symbol><symbol id="icon-mail" viewBox="0 0 19 13">
    <title>
        mail
    </title>
    <g>
        <path d="M14.869 9.917c-.1 0-.1 0-.2-.1l-3.4-3c-.1-.1-.1-.3 0-.4.1-.2.3-.2.4-.1l3.4 3.1c.1.1.1.3 0 .4 0 0-.1.1-.2.1z"/>
        <path d="M3.469 9.917c-.1 0-.2 0-.2-.1-.1-.1-.1-.3 0-.4l3.4-3.1c.2-.1.4-.1.5.1.1.1.1.3 0 .4l-3.5 3c0 .1-.1.1-.2.1z"/>
        <path d="M16.9 12.7H1.5c-.8 0-1.5-.6-1.5-1.4V1.7C0 .9.7.3 1.5.3h15.4c.8 0 1.5.6 1.5 1.4v9.6c0 .8-.7 1.4-1.5 1.4zM1.5.8c-.5 0-.9.4-.9.9v9.6c0 .5.4.8.9.8h15.4c.5 0 .9-.4.9-.8V1.7c0-.5-.4-.8-.9-.8H1.5z"/>
        <path d="M9.2 7.9c-.4 0-.8-.1-1.1-.4L.5 1.2C.4 1.1.4.9.5.8.6.7.8.7.9.8l7.6 6.3c.4.3 1 .3 1.4 0L17.5.8c.1-.1.3-.1.4 0 .1.1.1.3 0 .4l-7.6 6.3c-.3.3-.7.4-1.1.4z"/>
    </g>
</symbol><symbol id="icon-marker" viewBox="0 0 12 16">
    <title>
        marker
    </title>
    <g fill-rule="nonzero">
        <path d="M6 0C2.702 0 .018 2.6.018 5.795c0 3.965 5.353 9.786 5.581 10.032a.55.55 0 0 0 .802 0c.228-.246 5.58-6.067 5.58-10.032C11.982 2.599 9.299 0 6 0zm0 14.679c-1.802-2.073-4.904-6.163-4.904-8.884 0-2.62 2.2-4.752 4.904-4.752 2.704 0 4.904 2.132 4.904 4.752 0 2.721-3.102 6.81-4.904 8.884z"/>
        <path d="M6 2.88c-1.66 0-3.01 1.307-3.01 2.915C2.99 7.402 4.34 8.71 6 8.71c1.66 0 3.01-1.308 3.01-2.915 0-1.608-1.35-2.916-3.01-2.916zm0 4.787c-1.065 0-1.932-.84-1.932-1.872 0-1.033.867-1.872 1.932-1.872s1.932.84 1.932 1.872S7.065 7.667 6 7.667z"/>
    </g>
</symbol><symbol id="icon-modern-chair" viewBox="0 0 20 28">
    <title>
        modern-chair
    </title>
    <g fill-rule="nonzero">
        <path d="M17.377 19.37c1.674-1.724 2.596-3.958 2.596-6.292 0-2.582-1.102-5.808-2.875-8.419C15.058 1.655 12.536 0 10 0 7.464 0 4.943 1.655 2.902 4.66 1.13 7.27.027 10.495.027 13.077c0 2.334.922 4.568 2.596 6.292 1.572 1.619 3.685 2.663 5.982 2.965v2.926h-.998c-1.132 0-2.052.934-2.052 2.083v.199a.4.4 0 0 0 .396.402h8.098a.4.4 0 0 0 .396-.402v-.2c0-1.148-.92-2.082-2.052-2.082h-.998v-2.926c2.297-.302 4.41-1.346 5.982-2.965zm-4.984 6.696c.626 0 1.146.466 1.243 1.074H6.364a1.266 1.266 0 0 1 1.243-1.074h4.786zm-2.995-.805v-2.852a10.803 10.803 0 0 0 1.204 0v2.852H9.398zm1.563-3.686a9.998 9.998 0 0 1-1.922 0c-2.25-.218-4.328-1.202-5.851-2.771C1.66 17.232.82 15.199.82 13.078c0-2.39 1.073-5.516 2.734-7.961C6.103 1.366 8.687.806 10 .806c1.313 0 3.897.56 6.445 4.31 1.66 2.446 2.734 5.572 2.734 7.962 0 2.12-.84 4.154-2.367 5.726-1.523 1.569-3.601 2.553-5.851 2.77z"/>
        <path d="M10 2.383c-1.71 0-3.392 1.015-4.737 2.857-1.177 1.612-1.908 3.662-1.908 5.352 0 .885.193 1.739.574 2.538 1.067 2.249 3.45 3.701 6.071 3.701 2.621 0 5.004-1.452 6.071-3.7.38-.8.574-1.654.574-2.54 0-1.689-.731-3.74-1.908-5.35C13.392 3.397 11.709 2.382 10 2.382zm0 13.643c-2.19 0-4.187-1.138-5.19-2.926A10.009 10.009 0 0 1 10 11.675c1.858 0 3.645.491 5.19 1.425-1.002 1.788-3 2.926-5.19 2.926zm5.53-3.656A10.795 10.795 0 0 0 10 10.869c-1.975 0-3.877.518-5.53 1.5a5.045 5.045 0 0 1-.321-1.777c0-1.525.67-3.392 1.752-4.872C7.509 3.518 9.159 3.19 10 3.19c.84 0 2.491.328 4.1 2.53 1.08 1.48 1.751 3.347 1.751 4.872 0 .613-.108 1.209-.32 1.778z"/>
    </g>
</symbol><symbol id="icon-next" viewBox="0 0 14 25">
    <title>
        Shape
    </title>
    <path d="M2 24.2l11.2-11.1c.2-.2.3-.4.3-.6 0-.2-.1-.4-.3-.6L2 .7C1.7.4 1.1.4.8.7c-.3.3-.3.9 0 1.2l10.6 10.6L.7 23c-.3.3-.3.9 0 1.2.4.4.9.4 1.3 0z"/>
</symbol><symbol id="icon-palm" viewBox="0 0 26 27">
    <title>
        palm
    </title>
    <path d="M25.882 8.31a6.594 6.594 0 0 0-1.787-1.583 6.663 6.663 0 0 0-8.087.927l1.048-3.568a.416.416 0 0 0-.799-.233L14.52 9.765a6.655 6.655 0 0 0-1.696-2.339A5.783 5.783 0 0 1 17.108.953l-.462 1.574a.416.416 0 0 0 .799.233l.654-2.23a.42.42 0 0 0-.457-.526 6.625 6.625 0 0 0-5.713 6.759 6.661 6.661 0 0 0-6.945-.036A6.595 6.595 0 0 0 3.197 8.31a.418.418 0 0 0 .23.657l7.306 1.775c-2.874.776-4.965 3.428-4.895 6.524.018.805.18 1.59.483 2.332a.421.421 0 0 0 .686.13l4.824-5.026a1.746 1.746 0 0 0 2.227.207 34.852 34.852 0 0 1 .77 7.738 24 24 0 0 0-1.98-.082A23.723 23.723 0 0 0 .225 26.184a.417.417 0 0 0-.13.571c.12.191.381.25.573.13a22.89 22.89 0 0 1 12.178-3.491 22.89 22.89 0 0 1 12.178 3.491c.208.13.49.049.597-.17a.417.417 0 0 0-.153-.531 23.65 23.65 0 0 0-7.432-3.05 33.472 33.472 0 0 0-1.45-7.968c.278-.067.53-.2.74-.382l4.745 4.945a.421.421 0 0 0 .686-.13 6.555 6.555 0 0 0 .483-2.333c.07-3.096-2.02-5.748-4.895-6.524l7.306-1.775a.418.418 0 0 0 .23-.657zM4.29 8.324c.335-.34.712-.638 1.126-.889 2.732-1.654 6.306-.786 7.967 1.935.146.24.274.49.383.746-.149.117-.279.258-.383.416L4.29 8.324zm7.031 5.15c0 .17.025.332.07.487L6.88 18.663a5.753 5.753 0 0 1-.21-1.416c-.072-3.184 2.47-5.832 5.666-5.904a5.91 5.91 0 0 1 .766.033 1.767 1.767 0 0 0 .014.359l-.046-.002c-.964 0-1.748.781-1.748 1.741zm1.748.912a.915.915 0 0 1-.915-.912.915.915 0 0 1 1.83 0c0 .503-.41.912-.915.912zm1.554-1.708a1.755 1.755 0 0 0-.524-.609.414.414 0 0 0-.048-.129.915.915 0 1 1 1.657-.151l-.003.009a1.754 1.754 0 0 0-1.082.88zm.217 1.917c.225.264.526.462.87.556.157.489.302.984.436 1.482l-.898.149a35.762 35.762 0 0 0-.408-2.187zm2.352 8.368a23.795 23.795 0 0 0-1.533-.232c.012-.81-.003-1.622-.047-2.432h1.296c.131.884.226 1.774.284 2.664zm-.419-3.493h-1.215a35.375 35.375 0 0 0-.162-1.626l-.031-.241.986-.164a32.348 32.348 0 0 1 .422 2.03zm-.597-5.084a.915.915 0 0 1-.915-.912.915.915 0 0 1 1.83 0c0 .503-.41.912-.915.912zm6.233 2.86a5.753 5.753 0 0 1-.209 1.417l-4.389-4.574c.073-.191.113-.398.113-.615 0-.826-.58-1.519-1.356-1.696a1.744 1.744 0 0 0 .018-.435h.158c3.196.072 5.737 2.72 5.665 5.904zm-6.194-6.84c-.2-.252-.47-.448-.78-.56.08-.162.167-.322.261-.476 1.66-2.72 5.235-3.589 7.966-1.935.415.251.792.549 1.127.889l-8.574 2.082z" fill-rule="nonzero"/>
</symbol><symbol id="icon-phone" viewBox="0 0 19 18">
    <title>
        phone
    </title>
    <path d="M19 14.8c-.1-.4-.3-.8-.7-1l-4.7-2.6c-.6-.3-1.3-.2-1.8.2l-.9.9c-.2.2-.6.3-.9 0l-2.1-1.8c-.7-.6-1.3-1.3-1.9-2-.3-.2-.3-.6 0-.8l.9-.9c.5-.4.6-1.1.2-1.7L4.4.7c-.2-.4-.6-.6-1-.7-.5 0-.9.1-1.3.4L.7 1.7c-1 .9-1 2.6 0 4.7.9 2.1 2.6 4.3 4.8 6.4 2.2 2.1 4.6 3.7 6.7 4.5 1.1.4 2.1.7 2.9.7.9 0 1.6-.2 2.1-.7l1.4-1.3c.3-.3.4-.8.4-1.2zm-5.7-3.1l4.7 2.6c.2.1.4.3.4.6 0 .2 0 .4-.2.6L12 12.1l.3-.2c.2-.3.6-.3 1-.2zM3.3.6c.3 0 .5.2.6.4l2.7 4.4c.2.3.1.7-.1 1l-.3.2L2.7.7c.1-.1.3-.1.5-.1h.1zm13.4 16.3c-.8.7-2.3.7-4.3-.1-2.1-.8-4.4-2.4-6.5-4.4-2.1-2-3.8-4.2-4.6-6.2-.9-1.8-.9-3.3-.1-4.1l1-1L5.8 7l-.3.3c-.4.4-.5 1.1 0 1.6.6.7 1.3 1.4 2 2.1.7.7 1.4 1.3 2.2 1.9.5.4 1.3.4 1.7-.1l.2-.2 6.2 3.4-1.1.9z"/>
</symbol><symbol id="icon-pinterest" viewBox="0 0 14 18">
    <title>
        Shape
    </title>
    <path d="M13.923 6.355c0-3.11-2.581-6.009-6.503-6.009C2.538.346.078 3.92.078 6.9c0 1.804.668 3.409 2.104 4.006.235.098.446.003.514-.262.047-.184.16-.649.209-.841.07-.263.042-.355-.147-.585-.415-.5-.678-1.144-.678-2.058 0-2.65 1.942-5.022 5.058-5.022 2.758 0 4.275 1.72 4.275 4.018 0 3.025-1.31 5.576-3.258 5.576-1.076 0-1.88-.906-1.621-2.02.308-1.327.906-2.762.906-3.72 0-.858-.45-1.576-1.385-1.576-1.099 0-1.981 1.16-1.981 2.715 0 .99.328 1.66.328 1.66l-1.321 5.715c-.179.776-.206 1.628-.181 2.348.075.647.7 1.173 1.243.464.382-.623.792-1.41 1.005-2.198.127-.467.723-2.883.723-2.883.357.695 1.4 1.308 2.51 1.308 3.302-.002 5.542-3.075 5.542-7.19z" fill-rule="nonzero" opacity=".8"/>
</symbol><symbol id="icon-prev" viewBox="0 0 14 25">
    <title>
        Shape
    </title>
    <path d="M13.2 24.3c.3-.3.3-.9 0-1.2L2.6 12.5 13.2 1.9c.3-.3.3-.9 0-1.2s-.9-.3-1.2 0L.7 11.8c-.2.2-.3.4-.3.6 0 .2.1.4.3.6L12 24.2c.4.4.9.4 1.2.1z"/>
</symbol><symbol id="icon-search" viewBox="0 0 18 18">
    <title>
        search
    </title>
    <path d="M17.726 16.395L13.29 11.94a7.096 7.096 0 0 0 1.766-4.673C15.055 3.26 11.678 0 7.528 0 3.377 0 0 3.26 0 7.267c0 4.008 3.377 7.268 7.528 7.268a7.632 7.632 0 0 0 4.312-1.315l4.471 4.49c.187.187.438.29.708.29a.995.995 0 0 0 .68-.264.926.926 0 0 0 .027-1.34zM7.528 1.895c3.067 0 5.563 2.41 5.563 5.372 0 2.962-2.496 5.372-5.563 5.372-3.068 0-5.564-2.41-5.564-5.372 0-2.961 2.496-5.371 5.564-5.371z" fill-rule="nonzero"/>
</symbol><symbol id="icon-security" viewBox="0 0 34 34">
    <title>
        security
    </title>
    <g fill-rule="nonzero">
        <path d="M22.637.009a11.25 11.25 0 0 0-7.506 2.873c-.368-.46-.716-.926-1.027-1.4-.006-.014-.008-.03-.016-.043a.567.567 0 0 0-.499-.3h-.018a.565.565 0 0 0-.494.306l-.007.017a18.69 18.69 0 0 1-5.443 5.424A18.7 18.7 0 0 1 .493 9.629a.566.566 0 0 0-.476.537c-.116 3.068.256 9.1 4.048 15.028 2.858 4.471 6.535 7.147 9.15 8.616.099.08.222.128.356.128h.018a.55.55 0 0 0 .348-.124c2.615-1.468 6.297-4.145 9.158-8.62a24.97 24.97 0 0 0 1.517-2.75c5.296-.938 9.335-5.564 9.335-11.126 0-6.236-5.074-11.31-11.31-11.31zm-.495 24.577c-2.664 4.166-6.075 6.704-8.563 8.132-2.487-1.428-5.898-3.966-8.562-8.132-3.445-5.389-3.937-10.87-3.882-13.92a19.856 19.856 0 0 0 7.106-2.832 19.855 19.855 0 0 0 5.339-5.111c.229.32.471.638.724.95-.095.104-.179.215-.27.322-.067.08-.135.159-.2.24-.17.208-.328.423-.48.64l-.145.21c-.134.203-.26.408-.38.618a.56.56 0 0 0-.295.244c-.565.981-1.621 1.928-3.256 3.233a13.58 13.58 0 0 1-5.97 2.714.565.565 0 0 0-.462.533c-.088 2.243.172 6.662 2.912 11.066 2.322 3.733 5.395 5.859 7.564 6.985h.002c.077.04.16.067.25.067h.015c.09 0 .171-.028.247-.066l.006-.001a19.5 19.5 0 0 0 7.564-6.986c.17-.273.34-.574.518-.9.237.015.473.036.713.036.208 0 .419-.007.637-.021a23.406 23.406 0 0 1-1.132 1.979zM11.383 12.428c.008.084.023.165.033.249.034.289.076.575.132.856.013.069.03.136.046.205.066.304.142.603.231.898.01.034.022.067.033.1a11.227 11.227 0 0 0 6.351 6.988l.074.03a11.24 11.24 0 0 0 1.81.576c.146.033.292.066.44.095.057.01.113.027.172.037a18.36 18.36 0 0 1-7.123 6.874 18.351 18.351 0 0 1-6.864-6.44c-2.41-3.875-2.784-7.764-2.755-9.981a14.676 14.676 0 0 0 6.02-2.85c.63-.504 1.18-.959 1.657-1.388-.018.075-.03.152-.047.227-.014.065-.031.129-.044.194-.014.07-.028.14-.04.209-.047.259-.083.52-.112.783-.004.037-.01.073-.013.11-.006.066-.009.132-.014.197a11.11 11.11 0 0 0-.043.921c0 .375.021.745.056 1.11zm12.767 8.944h-.003c-.245.037-.47.064-.687.083-.272.022-.545.042-.823.042-.333 0-.661-.018-.986-.05-.198-.019-.391-.054-.586-.084-.14-.022-.284-.037-.423-.065-.116-.022-.229-.056-.343-.083-.221-.052-.442-.103-.657-.169-.045-.014-.088-.031-.133-.046a10.221 10.221 0 0 1-6.592-6.657v-.003c-.091-.29-.165-.587-.23-.887-.007-.036-.017-.07-.025-.107a10.048 10.048 0 0 1-.127-.831c-.007-.06-.02-.118-.025-.179a10.248 10.248 0 0 1-.052-1.018c0-.309.02-.614.046-.917.007-.068.012-.137.02-.206.001-.016.005-.031.007-.048.031-.268.07-.533.122-.794.015-.077.033-.152.05-.229.053-.24.114-.479.184-.713.015-.052.027-.103.044-.155a10.002 10.002 0 0 1 .368-.978c1.566-3.607 5.16-6.138 9.338-6.138 5.612 0 10.179 4.566 10.179 10.178 0 5.098-3.77 9.32-8.666 10.054z"/>
        <path d="M22.637 2.27c-4.989 0-9.048 4.06-9.048 9.048 0 4.99 4.06 9.048 9.048 9.048 4.989 0 9.048-4.059 9.048-9.048 0-4.988-4.06-9.047-9.048-9.047zm.565 16.936v-1.102h-1.13v1.102a7.917 7.917 0 0 1-7.323-7.322h1.102v-1.131h-1.102A7.917 7.917 0 0 1 22.07 3.43v1.103h1.131V3.43a7.917 7.917 0 0 1 7.323 7.323h-1.102v1.131h1.102a7.917 7.917 0 0 1-7.323 7.322z"/>
        <path d="M27.326 6.96l-4.69 4.69-2.427-2.428-.8.8 2.828 2.827a.564.564 0 0 0 .8 0l5.09-5.09-.8-.799z"/>
    </g>
</symbol><symbol id="icon-sort-ascending" viewBox="0 0 19 18">
    <title>
        sort-ascending
    </title>
    <path d="M18.345 16.714H9.176a.648.648 0 0 0-.654.643.65.65 0 0 0 .654.643h9.17a.65.65 0 0 0 .654-.643.648.648 0 0 0-.655-.643zM10.281 6.235a.64.64 0 0 0 0-.916L5.735.184a.655.655 0 0 0-.498-.183.654.654 0 0 0-.497.183L.193 5.32a.641.641 0 0 0 0 .916.665.665 0 0 0 .93 0l3.47-3.92V18h1.31V2.34l3.449 3.896a.665.665 0 0 0 .93 0zm.205-3.662h7.86a.664.664 0 0 0 .654-.66.65.65 0 0 0-.655-.644h-7.859a.65.65 0 0 0-.655.644c0 .355.294.66.655.66zm7.86 10.279h-9.17a.65.65 0 0 0-.654.643.65.65 0 0 0 .654.644h9.17a.65.65 0 0 0 .654-.644.649.649 0 0 0-.655-.643zm0-3.861h-9.17a.65.65 0 0 0-.654.643.65.65 0 0 0 .654.644h9.17A.65.65 0 0 0 19 9.634a.649.649 0 0 0-.655-.643zm0-3.861l-5.24.014c-.362 0-.655.274-.655.63a.66.66 0 0 0 .655.655l5.24-.013A.65.65 0 0 0 19 5.773a.649.649 0 0 0-.655-.643z" fill-rule="nonzero"/>
</symbol><symbol id="icon-sort-descending" viewBox="0 0 19 18">
    <title>
        sort-descending
    </title>
    <path d="M18.317 15.43h-7.833a.648.648 0 0 0-.653.643c0 .354.292.642.653.642l7.833-.02c.36 0 .653-.268.653-.622a.647.647 0 0 0-.653-.643zM9.178 1.304l9.139-.001c.36 0 .653-.287.653-.641a.648.648 0 0 0-.653-.642H9.178a.648.648 0 0 0-.653.642c0 .354.293.642.653.642zm1.101 10.455a.661.661 0 0 0-.927 0l-3.438 3.888V.02H4.61v15.65l-3.46-3.91a.661.661 0 0 0-.926 0 .64.64 0 0 0 0 .913l4.531 5.124a.652.652 0 0 0 .496.183.651.651 0 0 0 .497-.183l4.531-5.124a.639.639 0 0 0 .001-.914zm8.038-7.886H9.178a.648.648 0 0 0-.653.642c0 .354.293.636.653.636h9.139c.36 0 .653-.282.653-.636a.647.647 0 0 0-.653-.642zm0 3.852H9.178a.648.648 0 0 0-.653.642c0 .355.293.632.653.632l9.139.01c.36 0 .653-.288.653-.642a.648.648 0 0 0-.653-.642zm0 3.853h-5.222a.647.647 0 0 0-.653.642c0 .354.292.628.653.628h5.222c.36 0 .653-.274.653-.628a.647.647 0 0 0-.653-.642z" fill-rule="nonzero"/>
</symbol><symbol id="icon-spinner-circle" viewBox="0 0 58 56">
    <title>
        spinner-circle
    </title>
    <path d="M58 28.9c-.1-3.9-.9-7.8-2.5-11.3-1.6-3.6-3.8-6.8-6.6-9.4-2.8-2.7-6.1-4.8-9.6-6.2C35.7.6 31.9-.1 28.1 0c-3.8.1-7.6.9-11 2.4-3.5 1.5-6.6 3.7-9.2 6.4-2.6 2.7-4.6 5.9-6 9.3-1.4 3.4-2 7.1-1.9 10.8.1 3.7.9 7.3 2.3 10.6 1.5 3.3 3.6 6.3 6.2 8.8 2.6 2.5 5.7 4.5 9 5.8 3.3 1.3 6.9 1.9 10.5 1.8 3.5-.1 7.1-.8 10.3-2.3 3.2-1.4 6.1-3.5 8.6-6 2.4-2.5 4.3-5.5 5.6-8.7.8-2 1.3-4 1.6-6.1h.2c2.1 0 3.7-1.7 3.7-3.7v-.2zm-5.9 9.9c-1.4 3.1-3.4 5.9-5.8 8.2-2.4 2.3-5.3 4.2-8.4 5.4-3.1 1.2-6.4 1.8-9.8 1.7-3.3-.1-6.6-.8-9.6-2.1s-5.7-3.2-8-5.6c-2.2-2.3-4-5.1-5.2-8.1-1.2-3-1.7-6.2-1.6-9.4.1-3.2.8-6.3 2.1-9.2 1.3-2.9 3.1-5.5 5.4-7.6 2.3-2.2 4.9-3.8 7.8-4.9 2.9-1.1 6-1.6 9-1.6 3.1.1 6.1.8 8.9 2 2.8 1.2 5.3 3 7.3 5.2 2.1 2.2 3.7 4.7 4.8 7.5 1.1 2.8 1.6 5.7 1.5 8.7v.3c0 1.9 1.5 3.5 3.3 3.7-.3 2-.9 4-1.7 5.8z"/>
</symbol><symbol id="icon-star" viewBox="0 0 15 15">
    <title>
        Star
    </title>
    <path d="M7.5 12.4L2.9 15l.9-5.4L0 5.7l5.2-.8L7.5 0l2.3 4.9 5.2.8-3.8 3.9.9 5.4z"/>
</symbol><symbol id="icon-tv" viewBox="0 0 26 25">
    <title>
        tv
    </title>
    <g>
        <path d="M24.2 5.6H13.8L16.9.7c.1-.2.1-.5-.1-.6-.3-.1-.6-.1-.7.1l-3.1 5-3.5-5C9.3 0 9 0 8.8.1c-.1.1-.2.4-.1.6l3.4 4.9H1.7C.8 5.6 0 6.4 0 7.3v14.6c0 .9.8 1.7 1.7 1.7h.4v.9c0 .3.2.4.4.4s.5-.1.5-.4v-.9h19.9v.9c0 .3.2.4.4.4.3 0 .4-.2.4-.4v-.9h.4c1 0 1.7-.8 1.7-1.7V7.3c.2-.9-.6-1.7-1.6-1.7zm.9 16.3c0 .5-.4.9-.9.9H1.7c-.5 0-.9-.4-.9-.9V7.3c0-.5.4-.9.9-.9h22.5c.5 0 .9.4.9.9v14.6z"/>
        <path d="M16.5 7.3H4.3c-1.4 0-2.6 1.2-2.6 2.6v9.5c0 1.4 1.2 2.6 2.6 2.6h12.1c1.4 0 2.6-1.2 2.6-2.6V9.9c.1-1.4-1.1-2.6-2.5-2.6zm1.7 12.1c0 .9-.8 1.7-1.7 1.7H4.3c-1 0-1.7-.8-1.7-1.7V9.9c0-.9.8-1.7 1.7-1.7h12.1c1 0 1.7.8 1.7 1.7l.1 9.5z"/>
        <path d="M23.8 9.5h-3.5c-.3 0-.4.2-.4.4s.2.4.4.4h3.5c.3 0 .4-.2.4-.4s-.1-.4-.4-.4z"/>
        <path d="M23.8 11.2h-3.5c-.3 0-.4.2-.4.4s.2.4.4.4h3.5c.3 0 .4-.2.4-.4s-.1-.4-.4-.4z"/>
        <path d="M23.8 12.9h-3.5c-.3 0-.4.2-.4.4s.2.4.4.4h3.5c.3 0 .4-.2.4-.4s-.1-.4-.4-.4z"/>
        <path d="M23.8 14.6h-3.5c-.3 0-.4.2-.4.4v3.4c0 .3.2.4.4.4h3.5c.3 0 .4-.2.4-.4V15c0-.2-.1-.4-.4-.4zm-.4 3.5h-2.6v-2.6h2.6v2.6z"/>
    </g>
</symbol><symbol id="icon-twitter" viewBox="0 0 16 14">
    <title>
        Shape
    </title>
    <path d="M14.432 4.018a9.83 9.83 0 0 0-.01-.45 6.814 6.814 0 0 0 1.655-1.778 6.35 6.35 0 0 1-1.904.52A3.402 3.402 0 0 0 15.631.407c-.641.388-1.35.667-2.104.811a3.297 3.297 0 0 0-2.42-1.141C9.278.047 7.795 1.593 7.795 3.53c0 .275.029.543.086.8C5.124 4.154 2.682 2.72 1.048.557A3.67 3.67 0 0 0 .6 2.33c0 1.227.585 2.318 1.474 2.961a3.172 3.172 0 0 1-1.502-.46v.046c0 1.715 1.143 3.153 2.66 3.488a3.139 3.139 0 0 1-1.497.05c.422 1.406 1.646 2.433 3.096 2.467A6.396 6.396 0 0 1-.076 12.33a8.94 8.94 0 0 0 5.081 1.593c6.095.002 9.427-5.303 9.427-9.905z" fill-rule="nonzero" opacity=".8"/>
</symbol><symbol id="icon-wifi" viewBox="0 0 39 31">
    <title>
        wifi
    </title>
    <g>
        <path d="M38.7 9.2C33.6 3.7 26.7.7 19.4.7S5.3 3.7.2 9.2c-.3.3-.3.8 0 1.1s.7.3 1 0C6.1 5 12.6 2.2 19.5 2.2s13.4 2.8 18.2 8c.1.1.3.2.5.2s.4-.1.5-.2c.3-.3.3-.7 0-1z"/>
        <path d="M4.4 13.6c-.3.3-.3.8 0 1.1.1.1.3.2.5.2s.4-.1.5-.2c7.8-8.3 20.4-8.3 28.2 0 .3.3.7.3 1 0s.3-.8 0-1.1c-8.4-8.9-21.9-8.9-30.2 0z"/>
        <path d="M19.5 13.2c-4.1 0-8 1.7-10.9 4.8-.3.3-.3.8 0 1.1.3.3.7.3 1 0 2.6-2.8 6.2-4.4 9.9-4.4s7.3 1.6 9.9 4.4c.1.1.3.2.5.2s.4-.1.5-.2c.3-.3.3-.8 0-1.1-2.9-3.1-6.8-4.8-10.9-4.8z"/>
        <path d="M19.5 20.4c-2.6 0-4.6 2.2-4.6 5s2.1 5 4.6 5c2.6 0 4.6-2.2 4.6-5s-2.1-5-4.6-5zm0 8.3c-1.8 0-3.2-1.5-3.2-3.4s1.4-3.4 3.2-3.4c1.8 0 3.2 1.5 3.2 3.4s-1.5 3.4-3.2 3.4z"/>
    </g>
</symbol></svg>