<?xml version="1.0" encoding="UTF-8"?><!DOCTYPE svg PUBLIC "-//W3C//DTD SVG 1.1//EN" "http://www.w3.org/Graphics/SVG/1.1/DTD/svg11.dtd"><svg xmlns="http://www.w3.org/2000/svg"><symbol id="icon-adults" viewBox="0 0 21 23">
    <title>
        adults
    </title>
    <g>
        <ellipse cx="5.9" cy="14.2" rx="1" ry="1"/>
        <ellipse cx="15.1" cy="14.2" rx="1" ry="1"/>
        <path d="M5.9 11.6c-.5 0-.9.2-1.2.5-.2.2-.2.4 0 .6s.5.2.6 0c.2-.1.4-.2.6-.2s.4.1.6.2c.1.1.2.1.3.1.1 0 .2 0 .3-.1.2-.2.2-.4 0-.6-.3-.4-.7-.5-1.2-.5z"/>
        <path d="M13.9 12.1c-.2.2-.2.4 0 .6.2.2.5.2.6 0 .3-.3.8-.3 1.1 0 .1.1.2.1.3.1s.2 0 .3-.1c.2-.2.2-.4 0-.6-.6-.7-1.6-.7-2.3 0z"/>
        <path d="M11.4 17.6c-.2.2-.5.3-.9.3-.3 0-.6-.1-.9-.3-.2-.2-.5-.2-.6 0-.2.2-.2.4 0 .6.4.4.9.6 1.5.6s1.1-.2 1.5-.6c.2-.2.2-.4 0-.6-.2-.2-.5-.2-.6 0z"/>
        <path d="M21 13.8c0-1.2-.9-2.2-2-2.4V4.2c0-.9-.5-1.8-1.3-2.3-.8-.5-1.7-.6-2.5-.3L12.4.7C10.2-.1 8-.2 5.8.4 3 1.1 1.5 2.7 1.2 5c-.2.2-.4.6-.5.9l-.2.6c-.1.3 0 .7.3.9.3.2.7.2.9-.1.1-.1.2-.2.3-.2v4.3c-1.1.2-2 1.2-2 2.4s1 2.2 2.2 2.3c.3 1.6 1.1 3.2 2.3 4.4 1.6 1.6 3.7 2.5 6 2.5s4.4-.9 6-2.4c1.2-1.2 2.1-2.7 2.4-4.4C20.1 16 21 15 21 13.8zM17.2 2.5c.6.4.9 1 .9 1.6v5.7c-1.4-.2-2.4-1.4-2.4-2.8V2.2c.5-.1 1 0 1.5.3zM1.5 6.4l.1-.2c.2-.7.7-1.2 1.3-1.5.6-.3 1.4-.3 2 0 1.3.6 3 .3 4-.8l.1-.1c.2-.2.1-.5 0-.6-.2-.2-.5-.1-.6 0l-.2.2c-.7.8-1.9 1-2.9.6-.9-.4-1.9-.4-2.8 0h-.2C2.8 2.7 4.1 1.7 6 1.2c2-.5 4-.5 6 .2l2.6.9v2.2c-1.2 1.6-2.9 2.6-4.9 3-2 .4-4.1 0-5.8-1.1-.6-.5-1.6-.5-2.4 0zm-.6 7.4c0-.7.5-1.3 1.1-1.5v2.9c-.6-.1-1.1-.7-1.1-1.4zm15 6.1c-1.4 1.4-3.3 2.2-5.4 2.2-2 0-3.9-.8-5.4-2.2-1.4-1.4-2.2-3.3-2.2-5.3V6.9c.3 0 .5.1.7.2C5.5 8.3 7.8 8.7 10 8.3c1.8-.3 3.4-1.2 4.7-2.5V7c0 1.9 1.5 3.4 3.3 3.6v4c.1 2.1-.7 3.9-2.1 5.3zm3.1-4.7v-2.9c.7.2 1.1.8 1.1 1.5s-.5 1.3-1.1 1.4z"/>
    </g>
</symbol><symbol id="icon-building" viewBox="0 0 34 34">
    <title>
        building
    </title>
    <g fill-rule="nonzero">
        <path d="M33.407 7.045H31.71V6.46c0-.35-.227-.585-.567-.585-.34 0-.566.234-.566.585v.585h-2.265V6.46c0-.35-.226-.585-.566-.585-.34 0-.566.234-.566.585v.585h-2.265V1.782c0-.351-.226-.585-.566-.585h-5.096V.612c0-.35-.227-.584-.566-.584-.34 0-.567.233-.567.584v.585h-2.265V.612c0-.35-.226-.584-.566-.584-.34 0-.566.233-.566.584v.585H9.626c-.34 0-.566.234-.566.585v5.263H6.795V6.46c0-.35-.227-.585-.567-.585-.34 0-.566.234-.566.585v.585H3.397V6.46c0-.35-.226-.585-.566-.585-.34 0-.566.234-.566.585v.585H.566c-.34 0-.566.234-.566.585v25.73c0 .351.226.585.566.585H33.408c.339 0 .565-.234.565-.585V7.63c0-.351-.226-.585-.566-.585zm-.566 1.17v19.882h-7.927V8.214h7.927zm-31.709 0H9.06v19.882H1.132V8.214zm0 21.052H9.06v3.509H1.132v-3.51zm9.06-.585V2.367h13.59v30.409h-1.7v-5.264c0-.35-.226-.584-.565-.584h-9.06c-.34 0-.566.234-.566.584v5.264h-1.699v-4.094zm2.831-.585h3.398v4.679h-3.398v-4.679zm4.53 4.679v-4.679h3.397v4.679h-3.397zm15.288 0h-7.927v-3.51h7.927v3.51z"/>
        <path d="M13.59 8.8h1.132c.623 0 1.132-.527 1.132-1.17V6.46c0-.643-.51-1.17-1.132-1.17h-1.133c-.622 0-1.132.527-1.132 1.17v1.17c0 .643.51 1.17 1.132 1.17zm0-2.34h1.132v1.17h-1.133V6.46z"/>
        <path d="M19.252 8.8h1.132c.623 0 1.133-.527 1.133-1.17V6.46c0-.643-.51-1.17-1.133-1.17h-1.132c-.623 0-1.133.527-1.133 1.17v1.17c0 .643.51 1.17 1.133 1.17zm0-2.34h1.132v1.17h-1.132V6.46z"/>
        <path d="M13.59 13.478h1.132c.623 0 1.132-.527 1.132-1.17v-1.17c0-.643-.51-1.17-1.132-1.17h-1.133c-.622 0-1.132.527-1.132 1.17v1.17c0 .643.51 1.17 1.132 1.17zm0-2.34h1.132v1.17h-1.133v-1.17z"/>
        <path d="M19.252 13.478h1.132c.623 0 1.133-.527 1.133-1.17v-1.17c0-.643-.51-1.17-1.133-1.17h-1.132c-.623 0-1.133.527-1.133 1.17v1.17c0 .643.51 1.17 1.133 1.17zm0-2.34h1.132v1.17h-1.132v-1.17z"/>
        <path d="M13.59 18.156h1.132c.623 0 1.132-.526 1.132-1.17v-1.17c0-.643-.51-1.169-1.132-1.169h-1.133c-.622 0-1.132.526-1.132 1.17v1.17c0 .643.51 1.169 1.132 1.169zm0-2.34h1.132v1.17h-1.133v-1.17z"/>
        <path d="M19.252 18.156h1.132c.623 0 1.133-.526 1.133-1.17v-1.17c0-.643-.51-1.169-1.133-1.169h-1.132c-.623 0-1.133.526-1.133 1.17v1.17c0 .643.51 1.169 1.133 1.169zm0-2.34h1.132v1.17h-1.132v-1.17z"/>
        <path d="M13.59 22.834h1.132c.623 0 1.132-.526 1.132-1.17v-1.169c0-.643-.51-1.17-1.132-1.17h-1.133c-.622 0-1.132.527-1.132 1.17v1.17c0 .643.51 1.17 1.132 1.17zm0-2.339h1.132v1.17h-1.133v-1.17z"/>
        <path d="M19.252 22.834h1.132c.623 0 1.133-.526 1.133-1.17v-1.169c0-.643-.51-1.17-1.133-1.17h-1.132c-.623 0-1.133.527-1.133 1.17v1.17c0 .643.51 1.17 1.133 1.17zm0-2.339h1.132v1.17h-1.132v-1.17z"/>
        <path d="M28.311 12.893h1.133c.623 0 1.132-.527 1.132-1.17v-1.17c0-.643-.51-1.169-1.132-1.169H28.31c-.623 0-1.132.526-1.132 1.17v1.17c0 .642.51 1.169 1.132 1.169zm0-2.34h1.133v1.17H28.31v-1.17z"/>
        <path d="M28.311 17.571h1.133c.623 0 1.132-.526 1.132-1.17v-1.17c0-.642-.51-1.169-1.132-1.169H28.31c-.623 0-1.132.527-1.132 1.17v1.17c0 .643.51 1.17 1.132 1.17zm0-2.34h1.133v1.17H28.31v-1.17z"/>
        <path d="M28.311 22.25h1.133c.623 0 1.132-.527 1.132-1.17v-1.17c0-.643-.51-1.17-1.132-1.17H28.31c-.623 0-1.132.527-1.132 1.17v1.17c0 .643.51 1.17 1.132 1.17zm0-2.34h1.133v1.17H28.31v-1.17z"/>
        <path d="M28.311 26.928h1.133c.623 0 1.132-.527 1.132-1.17v-1.17c0-.643-.51-1.169-1.132-1.169H28.31c-.623 0-1.132.526-1.132 1.17v1.17c0 .642.51 1.169 1.132 1.169zm0-2.34h1.133v1.17H28.31v-1.17z"/>
        <path d="M5.662 9.384H4.53c-.623 0-1.133.526-1.133 1.17v1.17c0 .643.51 1.169 1.133 1.169h1.132c.623 0 1.133-.526 1.133-1.17v-1.17c0-.643-.51-1.169-1.133-1.169zm0 2.34H4.53v-1.17h1.132v1.17z"/>
        <path d="M5.662 14.062H4.53c-.623 0-1.133.527-1.133 1.17v1.17c0 .643.51 1.17 1.133 1.17h1.132c.623 0 1.133-.527 1.133-1.17v-1.17c0-.643-.51-1.17-1.133-1.17zm0 2.34H4.53v-1.17h1.132v1.17z"/>
        <path d="M5.662 18.74H4.53c-.623 0-1.133.527-1.133 1.17v1.17c0 .643.51 1.17 1.133 1.17h1.132c.623 0 1.133-.527 1.133-1.17v-1.17c0-.643-.51-1.17-1.133-1.17zm0 2.34H4.53v-1.17h1.132v1.17z"/>
        <path d="M5.662 23.419H4.53c-.623 0-1.133.526-1.133 1.17v1.17c0 .642.51 1.169 1.133 1.169h1.132c.623 0 1.133-.527 1.133-1.17v-1.17c0-.643-.51-1.169-1.133-1.169zm0 2.34H4.53v-1.17h1.132v1.17z"/>
    </g>
</symbol><symbol id="icon-calendar" viewBox="0 0 20 20">
    <title>
        calendar
    </title>
    <g>
        <path d="M19.8 3.6c-.1-.5-.4-1-.8-1.3-.6-.6-1.5-.9-2.4-.9h-1.4v-1c0-.2-.2-.4-.4-.4s-.4.2-.4.4v.9H5.8V.4c0-.2-.2-.4-.4-.4-.3 0-.5.2-.5.4v.9H3.5c-.7 0-1.4.2-1.9.5-.2.2-.4.3-.6.5-.6.5-1 1.4-1 2.2v12.3c0 .9.4 1.7 1 2.3.7.6 1.5.9 2.5.9h13.1c1 0 1.8-.4 2.4-.9.6-.6 1-1.4 1-2.3V4.6c0-.4-.1-.7-.2-1zm-.7 13.2c0 .7-.3 1.3-.7 1.7s-1.1.7-1.8.7H3.5c-.7 0-1.3-.3-1.8-.7s-.7-1-.7-1.7V7.1h18.2v9.7zm0-10.5H.9V4.5c0-.7.3-1.3.7-1.7s1.1-.7 1.8-.7h1.4V3c0 .2.2.4.4.4s.4-.2.4-.4v-.9H14V3c0 .2.2.4.4.4s.4-.2.4-.4v-.9h1.4c.7 0 1.3.3 1.8.7.3.3.6.7.7 1.2v2.3z"/>
        <path d="M4.3 10.9c.4 0 .7-.2 1-.4.3-.2.4-.6.4-.9s-.2-.7-.4-.9c-.3-.3-.6-.4-1-.4s-.7.2-1 .4c-.2.2-.3.5-.3.9s.2.7.4.9c.2.2.6.4.9.4zm-.4-1.7c.1-.1.2-.1.4-.1.1 0 .3 0 .4.1s.1.2.1.3c0 .2 0 .3-.1.3s-.2.1-.4.1c-.1 0-.3 0-.4-.1s-.1-.1-.1-.2c0-.2 0-.3.1-.4z"/>
        <path d="M8.1 10.9c.4 0 .7-.2 1-.4.3-.2.4-.6.4-.9s-.2-.7-.4-.9c-.2-.2-.6-.4-1-.4s-.7.2-1 .4c-.2.2-.4.5-.4.9s.2.7.4.9c.3.2.6.4 1 .4zm-.4-1.7c.1-.1.3-.1.4-.1.1 0 .3 0 .4.1s.1.2.1.3 0 .3-.1.3-.2.1-.4.1c-.1 0-.3 0-.4-.1s-.1-.1-.1-.2c0-.2.1-.3.1-.4z"/>
        <path d="M11.9 10.9c.4 0 .7-.2 1-.4.3-.2.4-.6.4-.9s-.2-.7-.4-.9c-.2-.2-.6-.4-1-.4s-.7.2-1 .4-.4.6-.4.9.2.7.4.9c.3.2.7.4 1 .4zm-.3-1.7c.1-.1.2-.1.4-.1.1 0 .3 0 .4.1.1.1.1.2.1.3 0 .1-.1.2-.2.3s-.2.1-.4.1c-.1 0-.3 0-.4-.1-.1-.1-.1-.2-.1-.3 0 0 .1-.2.2-.3z"/>
        <path d="M15.7 10.9c.4 0 .7-.2 1-.4.3-.2.4-.6.4-.9s-.2-.7-.4-.9c-.2-.2-.6-.4-1-.4s-.7.2-1 .4c-.3.2-.4.6-.4.9s.2.7.4.9c.3.2.6.4 1 .4zm-.4-1.7c.1-.1.2-.1.4-.1.1 0 .3 0 .4.1s.1.2.1.3 0 .3-.1.3-.2.1-.4.1c-.1 0-.3 0-.4-.1s-.1-.2-.1-.3c0-.1.1-.2.1-.3z"/>
        <path d="M4.3 14.4c.4 0 .7-.2 1-.4.3-.2.4-.6.4-.9s-.2-.7-.4-.9c-.3-.2-.6-.4-1-.4s-.7.2-1 .4c-.2.3-.3.6-.3 1s.2.7.4.9c.2.2.6.3.9.3zm-.4-1.6c.1-.1.2-.1.4-.1.1 0 .3 0 .4.1.1.1.1.2.1.3 0 .1 0 .3-.1.3s-.2.1-.4.1c-.1 0-.3 0-.4-.1s-.1-.2-.1-.3c0-.1 0-.2.1-.3z"/>
        <path d="M8.1 14.4c.4 0 .7-.2 1-.4s.4-.6.4-.9-.2-.7-.4-.9c-.2-.2-.6-.4-1-.4s-.7.2-1 .4c-.3.2-.4.6-.4.9s.2.7.4.9c.3.3.6.4 1 .4zm-.4-1.6c.1-.1.2-.1.4-.1.1 0 .3 0 .4.1.1.1.1.2.1.3 0 .1 0 .3-.1.3s-.2.1-.4.1c-.1 0-.3 0-.4-.1s-.1-.2-.1-.3c0-.1.1-.2.1-.3z"/>
        <path d="M11.9 14.4c.4 0 .7-.2 1-.4s.4-.6.4-.9-.2-.7-.4-.9c-.2-.2-.6-.4-1-.4s-.7.2-1 .4-.4.6-.4.9.2.7.4.9.7.4 1 .4zm-.4-1.6c.1-.1.2-.1.4-.1.1 0 .3 0 .4.1.1.1.1.2.1.3 0 .1 0 .3-.1.3s-.2.1-.4.1c-.1 0-.3 0-.4-.1s-.1-.2-.1-.3c0-.1 0-.2.1-.3z"/>
        <path d="M15.7 14.4c.4 0 .7-.2 1-.4.3-.2.4-.6.4-.9s-.2-.7-.4-.9c-.2-.2-.6-.4-1-.4s-.7.2-1 .4c-.3.2-.4.6-.4.9s.2.7.4.9c.3.3.6.4 1 .4zm-.4-1.6c.1-.1.2-.1.4-.1.1 0 .3 0 .4.1.1.1.1.2.1.3 0 .1 0 .3-.1.3s-.2.1-.4.1c-.1 0-.3 0-.4-.1s-.1-.2-.1-.3c0-.1.1-.2.1-.3z"/>
        <path d="M4.3 18c.4 0 .7-.2 1-.4.3-.2.4-.6.4-.9 0-.3-.2-.7-.4-.9-.3-.2-.6-.4-1-.4s-.7.2-1 .4c-.2.2-.3.5-.3.9 0 .3.2.7.4.9.2.3.6.4.9.4zm-.4-1.7c.1-.1.2-.1.4-.1.1 0 .3 0 .4.1.1.1.1.2.1.3 0 .1 0 .3-.1.3-.1.1-.2.1-.4.1-.1 0-.3 0-.4-.1-.1-.1-.1-.2-.1-.3 0 0 0-.2.1-.3z"/>
        <path d="M8.1 18c.4 0 .7-.2 1-.4.3-.2.4-.6.4-.9 0-.3-.2-.7-.4-.9s-.6-.4-1-.4-.7.2-1 .4c-.3.2-.4.6-.4.9 0 .3.2.7.4.9.3.3.6.4 1 .4zm-.4-1.7c.1-.1.2-.1.4-.1.1 0 .3 0 .4.1.1.1.1.2.1.3 0 .1 0 .3-.1.3-.1.1-.2.1-.4.1-.1 0-.3 0-.4-.1-.1-.1-.1-.2-.1-.3 0 0 .1-.2.1-.3z"/>
        <path d="M11.9 18c.4 0 .7-.2 1-.4.3-.2.4-.6.4-.9 0-.3-.2-.7-.4-.9-.3-.2-.6-.4-1-.4s-.7.2-1 .4c-.3.2-.4.6-.4.9 0 .3.2.7.4.9.3.3.7.4 1 .4zm-.4-1.7c.1-.1.2-.1.4-.1.1 0 .3 0 .4.1.1.1.1.2.1.3 0 .1 0 .3-.1.3-.1.1-.2.1-.4.1-.1 0-.3 0-.4-.1-.1-.1-.1-.2-.1-.3 0 0 0-.2.1-.3z"/>
        <path d="M15.7 18c.4 0 .7-.2 1-.4.3-.2.4-.6.4-.9 0-.3-.2-.7-.4-.9-.2-.2-.6-.4-1-.4s-.7.2-1 .4c-.3.2-.4.6-.4.9 0 .3.2.7.4.9.3.3.6.4 1 .4zm-.4-1.7c.1-.1.2-.1.4-.1.1 0 .3 0 .4.1.1.1.1.2.1.3 0 .1 0 .3-.1.3-.1.1-.2.1-.4.1-.1 0-.3 0-.4-.1-.1-.1-.1-.2-.1-.3 0 0 .1-.2.1-.3z"/>
    </g>
</symbol><symbol id="icon-chandelier" viewBox="0 0 28 28">
    <title>
        chandelier
    </title>
    <path d="M27.755 13.206a.432.432 0 0 0 .128-.306.46.46 0 0 0-.471-.446H27.3c-.345-.561-.27-1.426.07-1.668a.433.433 0 0 0 .164-.498.47.47 0 0 0-.447-.305h-4.516a.47.47 0 0 0-.447.305.433.433 0 0 0 .164.498c.34.242.416 1.107.07 1.668h-.11a.46.46 0 0 0-.472.446c0 .118.05.226.129.306-.151.352-.23.73-.23 1.12 0 1.144.682 2.14 1.681 2.641a3.667 3.667 0 0 1-2.685 1.141c-1.91 0-3.474-1.401-3.587-3.2a2.84 2.84 0 0 0-.168-1.702.432.432 0 0 0 .128-.306.46.46 0 0 0-.471-.446h-.111a1.668 1.668 0 0 1-.225-.895h.694c.979 0 1.775-.754 1.775-1.68 0-.87-.7-1.587-1.595-1.673.03-.641.59-1.155 1.274-1.155.703 0 1.276.543 1.276 1.21v.83c0 .705.605 1.278 1.349 1.278.743 0 1.348-.573 1.348-1.277a.46.46 0 0 0-.471-.447.46.46 0 0 0-.471.447.397.397 0 0 1-.406.385.397.397 0 0 1-.407-.385V8.26c0-1.159-.995-2.102-2.218-2.102-1.202 0-2.182.91-2.217 2.04h-1.066c.054-.156.084-.327.084-.507 0-.376-.128-.71-.339-.953.21-.243.34-.578.34-.953 0-.376-.13-.71-.34-.953.21-.243.34-.578.34-.954a1.51 1.51 0 0 0-.156-.676c1.195-.404 2.052-1.486 2.052-2.756A.46.46 0 0 0 16.613 0H11.38a.46.46 0 0 0-.472.446c0 1.27.858 2.352 2.053 2.756a1.51 1.51 0 0 0-.155.676c0 .376.128.71.339.954-.211.242-.34.577-.34.953 0 .375.129.71.34.953-.211.242-.34.577-.34.953 0 .18.03.35.085.506h-1.066c-.035-1.13-1.016-2.039-2.217-2.039-1.223 0-2.218.943-2.218 2.102v.832a.397.397 0 0 1-.407.385.396.396 0 0 1-.406-.385.46.46 0 0 0-.471-.447.46.46 0 0 0-.471.447c0 .704.605 1.277 1.348 1.277.744 0 1.35-.573 1.35-1.277V8.26c0-.666.572-1.209 1.275-1.209.685 0 1.243.514 1.274 1.155-.895.085-1.595.803-1.595 1.672 0 .927.796 1.681 1.774 1.681h.686c.007.302-.063.631-.225.895h-.11a.46.46 0 0 0-.472.446c0 .118.049.226.128.306a2.838 2.838 0 0 0-.168 1.703c-.113 1.798-1.678 3.2-3.587 3.2a3.668 3.668 0 0 1-2.685-1.142c.999-.502 1.68-1.497 1.68-2.64 0-.39-.078-.769-.229-1.121a.432.432 0 0 0 .129-.306.46.46 0 0 0-.471-.446h-.111c-.346-.561-.27-1.426.07-1.668a.433.433 0 0 0 .164-.498.47.47 0 0 0-.447-.305H.896a.47.47 0 0 0-.447.305.433.433 0 0 0 .164.498c.34.242.415 1.107.07 1.668h-.11A.46.46 0 0 0 .1 12.9c0 .119.049.226.128.306-.15.352-.229.73-.229 1.12 0 1.648 1.415 2.988 3.154 2.988.178 0 .352-.015.521-.041a4.53 4.53 0 0 0 2.467 1.584 3.966 3.966 0 0 0-.414.693c-.311.651-.52 1.437-.52 1.955 0 .72.406 1.353 1.012 1.703-.176.21-.34.473-.492.79-.311.65-.52 1.436-.52 1.954 0 1.1.944 1.993 2.104 1.993 1.16 0 2.104-.894 2.104-1.993 0-.518-.209-1.303-.52-1.955a3.76 3.76 0 0 0-.492-.79c.607-.35 1.012-.982 1.012-1.702 0-.518-.209-1.304-.52-1.955-.129-.27-.268-.5-.415-.693 1.418-.356 2.564-1.343 3.076-2.634a3.198 3.198 0 0 0 1.964 1.058v1.01c-.391.201-.748.626-1.05 1.26-.311.65-.52 1.436-.52 1.954 0 .72.405 1.353 1.011 1.703-.175.21-.34.473-.491.79-.311.65-.52 1.436-.52 1.954 0 1.1.943 1.993 2.104 1.993 1.16 0 2.104-.894 2.104-1.993 0-.518-.21-1.303-.52-1.955a3.762 3.762 0 0 0-.492-.79c.606-.35 1.012-.982 1.012-1.702 0-.518-.21-1.304-.52-1.955-.335-.7-.736-1.145-1.176-1.314v-.955c.787-.113 1.48-.5 1.964-1.058.525 1.323 1.715 2.327 3.182 2.66-.14.187-.273.41-.396.667-.31.651-.52 1.437-.52 1.955 0 .72.406 1.353 1.012 1.703-.176.21-.34.473-.492.79-.31.65-.52 1.436-.52 1.954 0 1.1.944 1.993 2.104 1.993 1.16 0 2.104-.894 2.104-1.993 0-.518-.209-1.303-.52-1.955a3.76 3.76 0 0 0-.491-.79c.606-.35 1.011-.982 1.011-1.702 0-.518-.209-1.304-.52-1.955a3.918 3.918 0 0 0-.434-.72 4.524 4.524 0 0 0 2.362-1.557c.17.026.343.041.521.041 1.74 0 3.154-1.34 3.154-2.988 0-.39-.078-.768-.23-1.12zm-26.016-2.33h2.83c-.158.49-.136 1.074.035 1.578h-2.9c.17-.504.193-1.087.035-1.578zm1.415 5.545c-1.22 0-2.211-.94-2.211-2.095 0-.346.088-.68.256-.98h3.91c.168.3.256.634.256.98 0 1.155-.992 2.095-2.211 2.095zm5.32 9.531c0 .607-.521 1.1-1.162 1.1-.64 0-1.162-.493-1.162-1.1 0-.335.15-.987.437-1.586.304-.637.6-.868.725-.868s.421.231.725.868c.287.599.437 1.251.437 1.586zm-1.162-3.347c-.64 0-1.161-.493-1.161-1.1 0-.335.15-.987.436-1.587.304-.636.6-.867.725-.867s.421.23.725.867c.287.6.437 1.252.437 1.587 0 .607-.521 1.1-1.162 1.1zM11.903.893h4.187c-.216.907-1.072 1.586-2.093 1.586-1.022 0-1.878-.68-2.094-1.586zm2.094 5.35c-.088 0-.249-.174-.249-.458 0-.285.161-.459.249-.459.087 0 .248.174.248.459 0 .284-.16.458-.248.458zm.248 1.448c0 .284-.161.458-.248.458-.088 0-.249-.174-.249-.458 0-.285.161-.459.249-.459.087 0 .248.174.248.459zm-.248-3.354c-.088 0-.249-.174-.249-.458 0-.285.161-.46.249-.46.087 0 .248.175.248.46 0 .284-.16.458-.248.458zm1.22 21.615c0 .607-.522 1.1-1.162 1.1-.64 0-1.162-.493-1.162-1.1 0-.335.15-.987.436-1.586.305-.637.6-.868.726-.868.125 0 .42.231.725.868.286.599.436 1.251.436 1.586zm-.437-6.034c.286.6.436 1.252.436 1.587 0 .607-.52 1.1-1.161 1.1-.64 0-1.162-.493-1.162-1.1 0-.335.15-.987.436-1.587.305-.636.6-.867.726-.867.125 0 .42.23.725.867zm-.788-3.497c-1.22 0-2.211-.94-2.211-2.095 0-.346.088-.68.256-.98h3.91c.168.3.256.634.256.98 0 1.155-.992 2.095-2.21 2.095zm-1.415-5.545h2.83c-.158.49-.136 1.074.035 1.578h-2.9c.17-.504.193-1.087.035-1.578zm-.843-.893a.47.47 0 0 0-.447.305.425.425 0 0 0 .05.379h-.276c-.46 0-.832-.354-.832-.789 0-.434.373-.788.832-.788h5.872c.458 0 .832.354.832.788 0 .435-.374.789-.832.789h-.285a.425.425 0 0 0 .05-.379.47.47 0 0 0-.448-.305h-4.516zm10.225 15.97c0 .606-.521 1.1-1.162 1.1-.64 0-1.161-.494-1.161-1.1 0-.336.15-.988.436-1.587.304-.637.6-.868.725-.868s.421.231.725.868c.287.599.437 1.251.437 1.586zm0-4.448c0 .607-.521 1.1-1.162 1.1-.64 0-1.161-.493-1.161-1.1 0-.335.15-.987.436-1.587.304-.636.6-.867.725-.867s.421.23.725.867c.287.6.437 1.252.437 1.587zm1.456-10.63h2.83c-.158.492-.136 1.075.035 1.579h-2.9c.17-.504.193-1.087.035-1.578zm1.415 5.546c-1.22 0-2.211-.94-2.211-2.095 0-.346.088-.68.256-.98h3.91c.168.3.257.634.257.98 0 1.155-.992 2.095-2.212 2.095z" fill-rule="nonzero"/>
</symbol><symbol id="icon-chat" viewBox="0 0 21 19">
    <title>
        chat
    </title>
    <g>
        <path d="M18.9.2H7c-1.1 0-2.1.9-2.1 2v1.7H2.1c-1.2 0-2.1.9-2.1 2v7.2c0 1.1.9 2 2.1 2h2.1v3.4c0 .1.1.3.2.3h.1c.1 0 .2 0 .3-.1l3.4-3.6H14c1.1 0 2.1-.9 2.1-2l1.8 2c.1.1.2.1.3.1h.1c.1-.1.2-.2.2-.3v-3.4h.4c1.1 0 2.1-.9 2.1-2V2.2c0-1.1-.9-2-2.1-2zm-3.5 12.9c0 .7-.6 1.3-1.4 1.3H8c-.1 0-.2 0-.3.1l-2.9 3.1v-2.9c0-.2-.2-.3-.3-.3H2.1c-.8 0-1.4-.6-1.4-1.3V5.9c0-.7.6-1.3 1.4-1.3H14c.8 0 1.4.6 1.4 1.3v7.2zm4.9-3.7c0 .7-.6 1.3-1.4 1.3h-.7c-.2 0-.4.2-.4.3v2.9L16.1 12V5.9c0-1.1-.9-2-2.1-2H5.6V2.2c0-.7.6-1.3 1.4-1.3h11.9c.8 0 1.4.6 1.4 1.3v7.2z"/>
        <path d="M4.2 8.3c-.8 0-1.4.6-1.4 1.4 0 .7.6 1.4 1.4 1.4s1.4-.6 1.4-1.4c0-.8-.6-1.4-1.4-1.4zm0 2c-.4 0-.7-.3-.7-.7s.3-.6.7-.6c.4 0 .7.3.7.7s-.3.6-.7.6z"/>
        <path d="M8.1 8.3c-.8 0-1.4.6-1.4 1.4 0 .7.6 1.4 1.4 1.4s1.4-.6 1.4-1.4c-.1-.8-.7-1.4-1.4-1.4zm0 2c-.4 0-.7-.3-.7-.7s.3-.6.7-.6.7.3.7.7-.4.6-.7.6z"/>
        <path d="M11.9 8.3c-.8 0-1.4.6-1.4 1.4 0 .7.6 1.4 1.4 1.4.8 0 1.4-.6 1.4-1.4 0-.8-.6-1.4-1.4-1.4zm0 2c-.4 0-.7-.3-.7-.7s.3-.6.7-.6c.4 0 .7.3.7.7s-.3.6-.7.6z"/>
    </g>
</symbol><symbol id="icon-check" viewBox="0 0 10 8">
    <title>
        Shape
    </title>
    <path d="M4.5 7.6c-.5.5-1.2.5-1.6 0L.3 4.9c-.5-.5-.5-1.3 0-1.8s1.2-.5 1.6 0l1.5 1.6c.1.1.3.1.4 0L8 .4c.5-.5 1.2-.5 1.6 0 .3.2.4.5.4.8s-.1.7-.3.9L4.5 7.6z"/>
</symbol><symbol id="icon-checked" viewBox="0 0 50 50">
    <title>
        checked
    </title>
    <g fill-rule="nonzero">
        <path d="M42.678 7.322C37.956 2.6 31.678 0 25 0 18.322 0 12.044 2.6 7.322 7.322A24.836 24.836 0 0 0 0 25c0 6.678 2.6 12.956 7.322 17.678C12.044 47.4 18.322 50 25 50c6.678 0 12.956-2.6 17.678-7.322A24.836 24.836 0 0 0 50 25c0-6.678-2.6-12.956-7.322-17.678zM25 48.008C12.313 48.008 1.992 37.687 1.992 25S12.313 1.992 25 1.992 48.008 12.313 48.008 25 37.687 48.008 25 48.008z"/>
        <path d="M39.804 14.355a3.54 3.54 0 0 0-4.976 0L20.023 29.061l-4.85-4.818a3.54 3.54 0 0 0-4.977 0 3.483 3.483 0 0 0 0 4.943l7.34 7.29a3.508 3.508 0 0 0 2.487 1.024c.94 0 1.824-.364 2.489-1.024L39.804 19.3a3.483 3.483 0 0 0 0-4.944zm-1.421 3.531L21.09 35.064a1.504 1.504 0 0 1-1.067.439c-.402 0-.781-.156-1.066-.44l-7.34-7.29a1.493 1.493 0 0 1 0-2.118c.295-.292.68-.438 1.067-.438.386 0 .772.146 1.066.438l5.562 5.525c.393.39 1.03.39 1.422 0L36.25 15.768a1.517 1.517 0 0 1 2.133 0 1.493 1.493 0 0 1 0 2.118z"/>
        <path d="M45.09 29.198a.985.985 0 0 0-1.2.722c-2.18 8.683-9.886 14.747-18.737 14.747a.993.993 0 0 0-.986 1c0 .552.441 1 .986 1 9.754 0 18.245-6.684 20.65-16.253a1.001 1.001 0 0 0-.713-1.216z"/>
        <path d="M45.008 24.167c-.456 0-.825.386-.825.862 0 .246-.005.495-.016.738-.02.476.334.878.79.899h.036c.439 0 .804-.361.824-.824.01-.269.016-.542.016-.813 0-.476-.37-.862-.825-.862z"/>
    </g>
</symbol><symbol id="icon-children" viewBox="0 0 22 20">
    <title>
        children
    </title>
    <g>
        <ellipse cx="6.4" cy="12.3" rx="1" ry="1"/>
        <ellipse cx="15.5" cy="12.3" rx="1" ry="1"/>
        <path d="M21.9 11.9c0-1.3-.9-2.3-2.1-2.6V9c0-4.9-4-9-8.9-9-4.8 0-8.8 4-8.8 9v.4C.9 9.6 0 10.6 0 11.9s.9 2.4 2.1 2.6c.2 2 1.1 3.4 2.7 4.3 1.4.8 3.4 1.2 6.2 1.2 2.7 0 4.7-.4 6.2-1.2 1.6-.9 2.5-2.4 2.7-4.3 1.1-.2 2-1.3 2-2.6zm-21 0c0-.8.5-1.4 1.2-1.6v3.2c-.7-.2-1.2-.8-1.2-1.6zm18 1.8c0 2-.7 3.4-2.2 4.3-1.3.7-3.2 1.1-5.7 1.1s-4.5-.4-5.7-1.1C3.8 17.1 3 15.8 3 13.7V9c0-3.6 2.4-6.7 5.7-7.7 2.5 0 3.8 1.9 3.8 3.2 0 1-.8 1.8-1.8 1.8-.7 0-1.4-.6-1.4-1.4 0-.6.4-1 1-1 .3 0 .5-.2.5-.5s-.2-.4-.5-.4c-1 0-1.9.9-1.9 1.9 0 1.3 1 2.3 2.3 2.3 1.5 0 2.7-1.2 2.7-2.7 0-1-.5-2-1.3-2.7-.3-.3-.7-.6-1.1-.8 4.3.1 7.8 3.6 7.8 8v4.7zm.9-.2v-3.2c.7.2 1.2.8 1.2 1.6s-.5 1.4-1.2 1.6z"/>
        <path d="M12.7 13.5c-1 1-2.5 1-3.5 0-.2-.2-.5-.2-.6 0-.2.2-.2.5 0 .6.7.7 1.5 1 2.4 1 .9 0 1.7-.3 2.4-1 .2-.2.2-.5 0-.6-.2-.1-.5-.1-.7 0z"/>
    </g>
</symbol><symbol id="icon-cities" viewBox="0 0 28 28">
    <title>
        cities
    </title>
    <g fill-rule="nonzero">
        <path d="M23.9 4.1A13.908 13.908 0 0 0 14 0c-3.74 0-7.255 1.456-9.9 4.1A13.908 13.908 0 0 0 0 14c0 3.74 1.456 7.255 4.1 9.9A13.908 13.908 0 0 0 14 28c3.74 0 7.255-1.456 9.9-4.1A13.908 13.908 0 0 0 28 14c0-3.74-1.456-7.255-4.1-9.9zM14 27.107C6.773 27.106.894 21.226.894 14 .894 6.773 6.774.894 14 .894c7.227 0 13.106 5.88 13.106 13.106 0 7.227-5.88 13.106-13.106 13.106z"/>
        <circle cx="14" cy="5.809" r="1"/>
        <path d="M26.067 14.439a.447.447 0 0 0-.325-.141H24.19v-1.34a.447.447 0 1 0-.894 0v1.34h-1.105V11.17a.447.447 0 0 0-.21-.379l-4.555-2.847V5.809c0-.247-.2-.447-.447-.447h-.79A2.238 2.238 0 0 0 14 3.574a2.238 2.238 0 0 0-2.19 1.788h-.789c-.247 0-.447.2-.447.447v1.936H9.085v-1.34a.447.447 0 1 0-.894 0v1.34H6.255c-.246 0-.446.2-.446.446v6.107h-3.55a.447.447 0 0 0-.447.474 12.176 12.176 0 0 0 4.176 8.436 12.22 12.22 0 0 0 4.95 2.614 12.169 12.169 0 0 0 6.123 0 12.144 12.144 0 0 0 3.073-1.265 12.315 12.315 0 0 0 4.377-4.346.447.447 0 0 0-.768-.456c-.442.745-.964 1.429-1.552 2.043v-6.607h3.065a11.227 11.227 0 0 1-.752 3.023.447.447 0 1 0 .83.333c.485-1.206.772-2.476.854-3.774a.447.447 0 0 0-.12-.334zm-14.599-4.013h5.064v12.808h-5.064V10.426zm0-4.17h.745c.247 0 .447-.2.447-.447 0-.74.6-1.34 1.34-1.34.74 0 1.34.6 1.34 1.34 0 .246.2.446.447.446h.745v3.277h-5.064V6.255zM2.744 15.19h3.065v3.128a.447.447 0 1 0 .893 0V8.64h3.872v14.595h-.148a.447.447 0 1 0 0 .894h.148v.66a11.337 11.337 0 0 1-3.872-2.145v-2.537a.447.447 0 1 0-.893 0v1.696a11.269 11.269 0 0 1-3.065-6.611zm8.724 9.84v-.903h5.064v.9a11.179 11.179 0 0 1-5.064.004zm5.958-.251v-.652h.148a.447.447 0 1 0 0-.894h-.148V8.998l3.872 2.42v11.218a11.438 11.438 0 0 1-3.872 2.144z"/>
        <path d="M19.362 19.064c-.247 0-.447.2-.447.447v.595a.447.447 0 1 0 .894 0v-.595c0-.247-.2-.447-.447-.447z"/>
        <path d="M19.362 16.68c-.247 0-.447.2-.447.448v.595a.447.447 0 1 0 .894 0v-.595c0-.247-.2-.447-.447-.447z"/>
        <path d="M19.362 14.298c-.247 0-.447.2-.447.447v.595a.447.447 0 1 0 .894 0v-.595c0-.247-.2-.447-.447-.447z"/>
        <path d="M19.362 11.915c-.247 0-.447.2-.447.447v.595a.447.447 0 1 0 .894 0v-.595c0-.247-.2-.447-.447-.447z"/>
        <path d="M8.638 20.553c.247 0 .447-.2.447-.447v-.595a.447.447 0 1 0-.894 0v.595c0 .247.2.447.447.447z"/>
        <path d="M8.638 18.17c.247 0 .447-.2.447-.447v-.595a.447.447 0 1 0-.894 0v.595c0 .247.2.447.447.447z"/>
        <path d="M8.638 15.787c.247 0 .447-.2.447-.447v-.595a.447.447 0 1 0-.894 0v.595c0 .247.2.447.447.447z"/>
        <path d="M8.638 11.021c.247 0 .447-.2.447-.447V9.98a.447.447 0 1 0-.894 0v.595c0 .247.2.447.447.447z"/>
        <path d="M8.638 13.404c.247 0 .447-.2.447-.447v-.595a.447.447 0 1 0-.894 0v.595c0 .247.2.447.447.447z"/>
        <path d="M14 20.851c-.247 0-.447.2-.447.447v.596a.447.447 0 1 0 .894 0v-.596c0-.247-.2-.447-.447-.447z"/>
        <path d="M14 18.468c-.247 0-.447.2-.447.447v.596a.447.447 0 1 0 .894 0v-.596c0-.247-.2-.447-.447-.447z"/>
        <path d="M14 16.085c-.247 0-.447.2-.447.447v.596a.447.447 0 1 0 .894 0v-.596c0-.247-.2-.447-.447-.447z"/>
        <path d="M14 13.702c-.247 0-.447.2-.447.447v.596a.447.447 0 1 0 .894 0v-.596c0-.247-.2-.447-.447-.447z"/>
        <path d="M14 11.32c-.247 0-.447.2-.447.446v.596a.447.447 0 1 0 .894 0v-.596c0-.247-.2-.447-.447-.447z"/>
        <path d="M12.809 8.638h2.382a.447.447 0 1 0 0-.893H12.81a.447.447 0 1 0 0 .893z"/>
    </g>
</symbol><symbol id="icon-close-button" viewBox="0 0 18 18">
    <title>
        close-button
    </title>
    <path fill-rule="nonzero" d="M18 1.8L16.2 0 9 7.2 1.8 0 0 1.8 7.2 9 0 16.2 1.8 18 9 10.8l7.2 7.2 1.8-1.8L10.8 9z"/>
</symbol><symbol id="icon-clover" viewBox="0 0 24 23">
    <title>
        clover
    </title>
    <path d="M18.563 7.434c-.578 0-1.148.092-1.69.27a5.321 5.321 0 0 0 .541-2.337C17.414 2.407 14.985 0 12 0 9.014 0 6.586 2.408 6.586 5.366c0 .814.188 1.613.542 2.337a5.448 5.448 0 0 0-1.69-.269C2.438 7.434 0 9.852 0 12.824c0 2.972 2.44 5.39 5.437 5.39 2.101 0 4.314-.933 5.437-2.54-.016 1.823-.448 6.583-2.249 6.583V23h6.75v-.743c-1.798 0-2.232-4.76-2.25-6.583 1.124 1.607 3.337 2.54 5.438 2.54 2.998 0 5.437-2.418 5.437-5.39 0-2.972-2.44-5.39-5.437-5.39zm0 10.037c-2.616 0-5.438-1.581-5.438-4.136h-.75v2.23c0 .604.053 4.93 1.531 6.692h-3.812c1.478-1.762 1.531-6.088 1.531-6.691v-2.23h-.75c0 2.554-2.822 4.135-5.437 4.135-2.585 0-4.688-2.085-4.688-4.647 0-2.562 2.103-4.646 4.688-4.646.893 0 1.766.254 2.523.735l.488-.554a4.598 4.598 0 0 1-1.113-2.992C7.336 2.817 9.428.743 12 .743c2.572 0 4.664 2.074 4.664 4.624a4.597 4.597 0 0 1-1.112 2.992l.488.554a4.697 4.697 0 0 1 2.523-.735c2.584 0 4.687 2.084 4.687 4.646s-2.103 4.647-4.687 4.647z" fill-rule="nonzero"/>
</symbol><symbol id="icon-croissant" viewBox="0 0 28 28">
    <title>
        croissant
    </title>
    <g fill-rule="nonzero">
        <path d="M27.525 11.974L25.75 9.038c.17-.17.341-.375.444-.682a3.305 3.305 0 0 0-.17-2.833l-.035-.035c-.068-.102-.137-.238-.205-.34-.034-.07-.102-.103-.136-.172-.034-.068-.103-.102-.137-.17l-2.39-2.39c-.067-.068-.136-.102-.17-.17l-.136-.137a3.002 3.002 0 0 0-.342-.205l-.034-.034c-.853-.478-1.911-.58-2.833-.17-.273.136-.512.273-.683.443L15.988.437c-.853-.512-1.877-.58-2.697-.17-.512.238-.819.545-1.024.955l-.375.853-1.946-.58c-.341-.103-.682-.137-.99-.103-1.194.137-2.218 1.127-2.9 2.8-.07.17 0 .375.17.443l3.96 1.707c-.069.717.272 1.502.955 1.911l2.39 1.468a1.485 1.485 0 0 0 .34 1.57l2.765 2.765c.308.307.683.444 1.059.444.17 0 .34-.034.512-.103l1.467 2.39c.376.648 1.093.99 1.775.99h.17l1.708 3.959c.068.136.17.205.307.205.034 0 .102 0 .136-.034 1.673-.683 2.663-1.707 2.8-2.902.033-.307 0-.648-.103-.99l-.58-1.945.853-.376c.41-.17.717-.512.956-1.024.375-.853.307-1.843-.171-2.696zM10.322 5.625L6.806 4.123c.376-.853 1.092-1.945 2.185-2.082.204-.034.443 0 .716.068l1.878.58-1.263 2.936zm1.16 2.048c-.58-.375-.819-1.126-.546-1.74l1.912-4.438c.102-.273.307-.444.648-.615.649-.307 1.434-.238 2.082.137l2.868 1.673-4.574 6.45-2.39-1.467zm6.656 5.905c-.307.239-.75.205-1.058-.102l-2.73-2.663c-.273-.273-.308-.717-.103-1.058l2.014-2.765 3.004-4.198s0-.034.034-.068l.034-.069c.137-.17.341-.307.683-.41.273-.067.512-.136.785-.136.682 0 1.331.273 1.809.751L25 5.25c.067.068.102.136.17.204l.068.069c.512.682.649 1.536.41 2.32-.103.342-.24.547-.41.683l-.068.034c-.034 0-.034 0-.068.035l-4.13 2.97-2.834 2.013zm7.714 5.359c-.102 1.092-1.228 1.81-2.048 2.219l-1.501-3.516 2.935-1.263.546 1.843c.068.273.103.512.068.717zm1.195-4.54c-.17.342-.341.546-.614.649l-4.438 1.911c-.648.273-1.4.034-1.74-.546l-1.468-2.39 6.417-4.573 1.672 2.867c.41.683.444 1.434.171 2.082z"/>
        <path d="M21.722 23.408l-3.96-1.706a2.082 2.082 0 0 0-.989-1.946l-2.39-1.468a1.485 1.485 0 0 0-.34-1.57l-2.731-2.73a1.485 1.485 0 0 0-1.57-.342l-1.468-2.389a2.082 2.082 0 0 0-1.946-.99l-1.706-3.96c-.069-.17-.273-.238-.444-.17-1.673.683-2.663 1.707-2.8 2.901-.033.308 0 .649.103.99l.58 1.946-.819.307c-.41.17-.716.512-.955 1.024-.376.853-.308 1.843.17 2.697l1.707 2.935c-.17.17-.341.375-.444.683a3.305 3.305 0 0 0 .17 2.833l.035.034c.068.102.137.239.205.341.034.034.068.103.136.137.069.068.103.136.171.205l1.195 1.194 1.194 1.195c.683.614 1.502.956 2.356.956.41 0 .819-.069 1.194-.24.273-.136.512-.272.683-.443l2.935 1.707c.478.273 1.024.443 1.536.443.41 0 .785-.068 1.16-.239.513-.239.82-.546 1.025-.955l.375-.854 1.946.58c.273.069.512.137.75.137h.206c1.194-.136 2.218-1.126 2.901-2.799.068-.17 0-.375-.17-.444zM2.096 9.038C2.198 7.946 3.324 7.23 4.144 6.82l1.502 3.515-2.936 1.263-.546-1.843c-.068-.273-.102-.512-.068-.717zM1.072 15.66c-.41-.682-.444-1.433-.171-2.082.17-.341.341-.546.614-.648l4.438-1.912c.17-.068.375-.102.546-.102.478 0 .956.239 1.195.682l1.467 2.39-6.417 4.54-1.672-2.868zm7.611 9.49s0 .033-.034.068l-.034.068c-.136.17-.341.307-.683.41a2.457 2.457 0 0 1-2.32-.41c-.035 0-.035-.034-.035-.034-.068-.069-.17-.137-.239-.205l-1.194-1.195-1.195-1.194a1.485 1.485 0 0 1-.205-.24c0-.034-.034-.034-.034-.068a2.587 2.587 0 0 1-.41-2.32c.103-.342.24-.547.41-.683l.034-.035c.034 0 .034-.034.068-.034l4.199-3.003 2.765-1.98a.784.784 0 0 1 .478-.137.8.8 0 0 1 .58.24l2.73 2.764c.274.273.308.717.103 1.058l-1.98 2.765-3.004 4.164zm6.417 1.33c-.102.274-.307.444-.648.615-.649.307-1.434.239-2.082-.137l-2.867-1.672 4.573-6.417 2.39 1.467c.58.342.819 1.093.546 1.707L15.1 26.48zm3.823-.546c-.204.034-.443 0-.716-.068l-1.878-.58 1.297-2.936 3.516 1.502c-.375.854-1.092 1.946-2.219 2.082z"/>
    </g>
</symbol><symbol id="icon-donation" viewBox="0 0 26 26">
    <title>
        donation
    </title>
    <g fill-rule="nonzero">
        <path d="M4.767 22.1a.432.432 0 0 0 .306-.74l-3.491-3.489c-.03-.025-.715-.637-.715-1.838v-6.5a.868.868 0 0 1 1.733 0v3.431a.433.433 0 1 0 .867 0v-3.43c0-.957-.778-1.734-1.734-1.734S0 8.577 0 9.533v6.5c0 1.618.979 2.463.994 2.473l3.466 3.467a.432.432 0 0 0 .307.127z"/>
        <path d="M24.267 7.8c-.956 0-1.734.777-1.734 1.733v3.431a.433.433 0 1 0 .867 0v-3.43a.868.868 0 0 1 1.733 0v6.5c0 1.2-.686 1.811-.74 1.86l-3.466 3.466a.433.433 0 1 0 .613.613l3.44-3.442c.041-.035 1.02-.88 1.02-2.498v-6.5c0-.956-.777-1.733-1.733-1.733z"/>
        <path d="M2.626 15.591c.019.436.208.856.534 1.182l2.167 2.167a.433.433 0 1 0 .613-.613L3.773 16.16a.912.912 0 0 1-.28-.604.746.746 0 0 1 .228-.569.738.738 0 0 1 .569-.228.914.914 0 0 1 .604.28l3.053 3.053c.03.027.72.657.72 1.841V22.1a.433.433 0 1 0 .866 0v-2.167c0-1.594-.974-2.458-.993-2.473l-3.034-3.033a1.78 1.78 0 0 0-1.18-.534 1.611 1.611 0 0 0-1.218.482c-.33.328-.5.76-.482 1.216z"/>
        <path d="M9.967 23.4H3.033a.433.433 0 0 0-.433.433v1.734a.433.433 0 1 0 .867 0v-1.3h6.066v1.3a.433.433 0 1 0 .867 0v-1.734a.433.433 0 0 0-.433-.433z"/>
        <path d="M16.467 19.933V22.1a.433.433 0 1 0 .866 0v-2.167c0-1.184.69-1.815.74-1.86l3.033-3.033a.914.914 0 0 1 .604-.28c.221-.01.411.07.57.227a.746.746 0 0 1 .227.57.914.914 0 0 1-.28.603l-2.167 2.167a.433.433 0 1 0 .613.613l2.167-2.167c.326-.326.515-.746.534-1.182a1.611 1.611 0 0 0-.482-1.217 1.609 1.609 0 0 0-1.217-.481 1.78 1.78 0 0 0-1.181.534l-3.011 3.012c-.042.036-1.016.9-1.016 2.494z"/>
        <path d="M13 4.767c.478 0 .867.388.867.866a.433.433 0 1 0 .866 0c0-.805-.554-1.478-1.3-1.671V3.9a.433.433 0 1 0-.866 0v.062c-.746.193-1.3.866-1.3 1.671 0 .956.777 1.734 1.733 1.734a.868.868 0 1 1-.867.866.433.433 0 1 0-.866 0c0 .806.554 1.478 1.3 1.672v.062a.433.433 0 1 0 .866 0v-.062a1.731 1.731 0 0 0 1.3-1.672c0-.956-.777-1.733-1.733-1.733a.868.868 0 0 1 0-1.733z"/>
        <path d="M22.967 23.4h-6.934a.433.433 0 0 0-.433.433v1.734a.433.433 0 1 0 .867 0v-1.3h6.066v1.3a.433.433 0 1 0 .867 0v-1.734a.433.433 0 0 0-.433-.433z"/>
        <path d="M19.933 6.933A6.941 6.941 0 0 0 13 0a6.941 6.941 0 0 0-6.933 6.933A6.941 6.941 0 0 0 13 13.867a6.941 6.941 0 0 0 6.933-6.934zM13 13a6.073 6.073 0 0 1-6.067-6.067A6.073 6.073 0 0 1 13 .867a6.073 6.073 0 0 1 6.067 6.066A6.073 6.073 0 0 1 13 13z"/>
    </g>
</symbol><symbol id="icon-down" viewBox="0 0 11 6">
    <title>
        Shape
    </title>
    <path d="M10.9.1c-.2-.2-.4-.2-.5 0l-4.9 5L.7.1C.5 0 .3 0 .1.1S0 .5.1.7l5.1 5.2c.1.1.2.1.3.1.1 0 .2 0 .3-.1L10.9.7c.1-.2.1-.4 0-.6z"/>
</symbol><symbol id="icon-earth" viewBox="0 0 20 23">
    <title>
        earth
    </title>
    <g fill-rule="nonzero">
        <path d="M19.899 11.631a.385.385 0 0 0-.434-.326.383.383 0 0 0-.328.431c.059.42.088.849.088 1.272 0 5.026-4.078 9.122-9.114 9.182-1.367-.87-2.648-1.934-2.077-3.26 1.024-2.38.07-3.268-.337-3.647l-.076-.072a1.806 1.806 0 0 0-.364-.264c-.281-.168-.357-.213-.206-.664.1-.3.233-.44.386-.6.356-.375.628-.747.628-1.83 0-.629-.321-1.131-.881-1.377-.635-.28-1.482-.181-1.93.224a.863.863 0 0 0-.258.945c.274.817-.352 1.997-1.522 2.87-.31.232-.403.126-.458.063-.343-.394-.317-1.514-.035-1.794.189-.188.245-.428.15-.641-.311-.704-2.298-.65-2.691-.63-.017 0-.03.008-.047.011a.348.348 0 0 0-.14.054.354.354 0 0 0-.164.229c-.003.014-.012.026-.013.041a9.933 9.933 0 0 0 7.52 10.817.383.383 0 1 0 .183-.743A9.17 9.17 0 0 1 .805 12.27c.649-.003 1.202.073 1.484.159-.441.685-.393 2.032.146 2.65.387.443.947.462 1.5.049 1.477-1.102 2.18-2.565 1.79-3.725-.012-.038-.025-.073.046-.137.202-.183.717-.26 1.102-.09.285.124.423.346.423.678 0 .863-.175 1.048-.417 1.302-.18.19-.403.425-.558.885-.345 1.034.21 1.365.54 1.563a1.189 1.189 0 0 1 .311.238c.338.315.967.9.155 2.787-.921 2.139 1.454 3.63 2.468 4.267a.389.389 0 0 0 .205.06c5.51 0 9.994-4.463 9.994-9.948 0-.458-.032-.921-.095-1.377z"/>
        <path d="M14.611 13.207a3.114 3.114 0 0 1-.303.078c-.531 0-.868.41-1.114.708-.094.114-.261.329-.371.322a1.209 1.209 0 0 0-.543-.13c-.453 0-.845.268-.933.638-.062.26.03.617.47.836.623.31 1.269.632 1.556.917.198.197.54.31.938.31.605 0 1.41-.293 1.687-1.118.109-.326.37-.574.622-.815.293-.28.57-.542.574-.921.003-.224-.097-.437-.295-.635-.27-.269-.638-.405-1.094-.405-.437 0-.875.124-1.194.215zm1.814.814c-.018.076-.21.258-.336.38-.29.276-.652.62-.82 1.125-.19.566-.832.595-.958.595-.224 0-.365-.06-.394-.085-.376-.374-1.047-.708-1.757-1.062l-.004-.001a.43.43 0 0 1 .323.026.843.843 0 0 0 .379.094c.425 0 .694-.327.93-.615.174-.21.353-.428.52-.428.136 0 .295-.045.514-.107.291-.083.653-.186.983-.186.248 0 .428.06.55.181.053.054.068.083.07.083z"/>
        <path d="M9.623 3.834a9.342 9.342 0 0 1 2.31.194c-.013.55.225.928.379 1.17l.108.172c0 1.373-.282 1.596-.28 1.596-.622 0-1.645.554-2.029 1.269-.236.438-.217.902.053 1.306.186.276.345.584.5.881.326.63.69 1.329 1.258 1.329.12 0 .25-.032.391-.102.448-.223.77-.857 1.08-1.47.137-.27.338-.666.457-.792.39.053.581.404.84.96.189.41.385.832.771 1.024.65.323 2.786-.015 3.966-.514.016-.007.027-.02.041-.028.023-.013.045-.026.064-.043a.375.375 0 0 0 .047-.055.364.364 0 0 0 .04-.06.341.341 0 0 0 .023-.07.374.374 0 0 0 .014-.07.366.366 0 0 0-.005-.076c-.002-.017.002-.033-.003-.05A10.02 10.02 0 0 0 13.785 3.8a.382.382 0 1 0-.291.708 9.257 9.257 0 0 1 5.312 5.768c-1.196.42-2.728.546-3.001.412-.145-.072-.29-.385-.418-.66-.268-.578-.635-1.37-1.572-1.41-.49-.026-.757.525-1.108 1.218-.206.406-.517 1.02-.765 1.141-.143-.033-.426-.579-.595-.905-.157-.301-.334-.643-.543-.955-.113-.169-.118-.33-.015-.52.264-.49 1.056-.864 1.352-.864.695 0 1.047-.795 1.047-2.362 0-.222-.114-.404-.225-.58-.163-.256-.331-.522-.232-.976a.383.383 0 0 0-.28-.452c-.928-.233-1.9-.331-2.859-.293a.383.383 0 1 0 .031.765z"/>
        <path d="M10.112 20.951c.364 0 .705-.131.935-.36.255-.253.317-.627.175-1.05a2.175 2.175 0 0 0-.507-.81.592.592 0 0 0-.42-.17c-.48 0-1.043.55-1.249 1.043-.16.386-.112.745.131.988.23.228.57.36.935.36zm-.292-1.176c.132-.218.32-.372.421-.426.11.128.204.29.252.433.042.127.046.232.01.268-.17.17-.614.165-.78.004-.006-.016-.005-.112.097-.279z"/>
        <path d="M.59 11.072a.384.384 0 0 0 .459-.29c.272-1.222 1.227-3.022 2-3.777a.382.382 0 0 0 .007-.541.386.386 0 0 0-.544-.006c-.875.853-1.91 2.796-2.215 4.158a.383.383 0 0 0 .292.456z"/>
        <path d="M5.087 7.89a.385.385 0 0 0 .6 0l1.527-1.9c.422-.479 1.248-1.875 1.248-2.93C8.462 1.374 7.082 0 5.387 0a3.071 3.071 0 0 0-3.075 3.06c0 1.233 1.104 2.74 1.238 2.918L5.087 7.89zm.3-7.125a2.303 2.303 0 0 1 2.307 2.296c0 .79-.7 2.017-1.07 2.439L5.388 7.04l-1.23-1.53c-.371-.497-1.076-1.647-1.076-2.45A2.303 2.303 0 0 1 5.387.766z"/>
        <path d="M5.387 3.826a.768.768 0 0 0 .77-.765.768.768 0 0 0-1.538 0c0 .422.344.765.768.765z"/>
    </g>
</symbol><symbol id="icon-facebook" viewBox="0 0 10 18">
    <title>
        Shape
    </title>
    <path d="M5.575 17.658V9h2.857l.452-2.87H5.575V4.693c0-.748.246-1.463 1.32-1.463h2.148V.365H5.994c-2.564 0-3.263 1.689-3.263 4.029V6.13H.97V9h1.76v8.658h2.844z" fill-rule="nonzero" opacity=".8"/>
</symbol><symbol id="icon-golf" viewBox="0 0 20 28">
    <title>
        golf
    </title>
    <g fill-rule="nonzero">
        <path d="M8.075 6.967a.445.445 0 0 0 .641 0 1.43 1.43 0 0 0 0-1.98 1.337 1.337 0 0 0-1.925 0 .476.476 0 0 0 0 .66.445.445 0 0 0 .642 0 .446.446 0 0 1 .642 0 .477.477 0 0 1 0 .66.475.475 0 0 0 0 .66z"/>
        <path d="M10 0C4.494 0 .014 4.606.014 10.267c0 4.898 3.389 9.136 8.057 10.075a.454.454 0 0 0 .533-.369.466.466 0 0 0-.358-.547C4.002 18.572.922 14.72.922 10.266.922 5.12 4.994.934 10 .934c5.006 0 9.078 4.187 9.078 9.334 0 5.146-4.072 9.333-9.078 9.333a.46.46 0 0 0-.454.467.46.46 0 0 0 .454.466c5.506 0 9.986-4.605 9.986-10.266S15.506 0 10 0z"/>
        <path d="M14.085 20.533a.46.46 0 0 0-.454.467.46.46 0 0 1-.454.467H6.823A.46.46 0 0 1 6.369 21a.46.46 0 0 0-.454-.467.46.46 0 0 0-.454.467c0 .772.611 1.4 1.362 1.4h1.885l.845 5.21c.036.225.225.39.447.39a.458.458 0 0 0 .448-.39l.844-5.21h1.885c.751 0 1.362-.628 1.362-1.4a.46.46 0 0 0-.454-.467zM10 24.695L9.628 22.4h.744L10 24.695z"/>
        <path d="M12.247 9.277a.447.447 0 0 0 .642 0 1.43 1.43 0 0 0 0-1.98 1.337 1.337 0 0 0-1.926 0 .476.476 0 0 0 0 .66.445.445 0 0 0 .642 0 .446.446 0 0 1 .642 0 .476.476 0 0 1 0 .66.476.476 0 0 0 0 .66z"/>
        <path d="M13.53 4.657a.477.477 0 0 0 0 .66.445.445 0 0 0 .642 0 .446.446 0 0 1 .643 0 .476.476 0 0 1 0 .66.476.476 0 0 0 0 .66.448.448 0 0 0 .641 0 1.43 1.43 0 0 0 0-1.98 1.337 1.337 0 0 0-1.926 0z"/>
        <path d="M10 3.007a.476.476 0 0 0 0 .66.445.445 0 0 0 .642 0 .456.456 0 0 1 .642 0 .476.476 0 0 1 0 .66.476.476 0 0 0 0 .66.446.446 0 0 0 .642 0 1.43 1.43 0 0 0 0-1.98 1.368 1.368 0 0 0-1.926 0z"/>
        <path d="M13.53 12.577a.445.445 0 0 0 .642 0 .446.446 0 0 1 .643 0 .477.477 0 0 1 0 .66.476.476 0 0 0 0 .66.448.448 0 0 0 .641 0 1.43 1.43 0 0 0 0-1.98 1.337 1.337 0 0 0-1.926 0 .476.476 0 0 0 0 .66z"/>
        <path d="M16.42 10.267a.446.446 0 0 0 .641 0c.257-.264.4-.616.4-.99s-.143-.726-.4-.99a1.337 1.337 0 0 0-1.926 0 .477.477 0 0 0 0 .66.446.446 0 0 0 .643 0 .445.445 0 0 1 .642 0 .47.47 0 0 1 .132.33.468.468 0 0 1-.132.33.476.476 0 0 0 0 .66z"/>
    </g>
</symbol><symbol id="icon-google-plus" viewBox="0 0 18 17">
    <title>
        google-plus
    </title>
    <g fill-rule="nonzero" opacity=".8">
        <path d="M11.115 12.718c0-1.471-.852-2.197-1.79-2.986l-.768-.597c-.235-.191-.554-.448-.554-.917 0-.469.32-.768.597-1.044.895-.704 1.79-1.45 1.79-3.028 0-1.621-1.023-2.473-1.513-2.878H10.2L11.562.5H7.17c-1.15 0-2.6.17-3.817 1.173C2.437 2.46 1.99 3.549 1.99 4.53c0 1.662 1.279 3.347 3.538 3.347.214 0 .447-.022.683-.042-.106.256-.212.47-.212.832 0 .66.34 1.066.64 1.45-.96.063-2.751.17-4.073.98-1.258.746-1.641 1.834-1.641 2.602 0 1.577 1.493 3.049 4.584 3.049 3.666 0 5.606-2.027 5.606-4.03zM6.53 7.281c-1.834 0-2.665-2.367-2.665-3.795 0-.555.106-1.129.469-1.577.34-.427.938-.705 1.493-.705 1.77 0 2.686 2.389 2.686 3.923 0 .384-.042 1.066-.533 1.557-.34.341-.916.596-1.45.597zm.022 8.57c-2.281 0-3.752-1.086-3.752-2.6 0-1.513 1.365-2.025 1.834-2.195.896-.299 2.046-.342 2.239-.342.212 0 .319 0 .49.021 1.62 1.151 2.323 1.727 2.323 2.815 0 1.321-1.087 2.302-3.134 2.302z"/>
        <path d="M11.307 8.577h2.309v2.307h1.154V8.577h2.307V7.423H14.77V5.116h-1.154v2.307h-2.309z"/>
    </g>
</symbol><symbol id="icon-home" viewBox="0 0 24 22">
    <title>
        home
    </title>
    <g fill-rule="nonzero">
        <path d="M17.104 10.162a.355.355 0 0 0-.486-.1.341.341 0 0 0-.103.477c.294.443.45.958.45 1.49 0 1-.578 2.201-1.627 3.384-.94 1.06-2.149 1.985-3.338 2.557a9.396 9.396 0 0 1-.875-.483.355.355 0 0 0-.485.107.342.342 0 0 0 .109.476c.37.23.74.43 1.103.595a.357.357 0 0 0 .296 0c1.323-.604 2.679-1.624 3.72-2.799 1.16-1.308 1.8-2.67 1.8-3.837 0-.666-.195-1.312-.564-1.867z"/>
        <path d="M15.806 9A3.518 3.518 0 0 0 12 9.388a3.473 3.473 0 0 0-2.2-.776c-1.912 0-3.467 1.533-3.467 3.417 0 1.588 1.169 3.5 3.127 5.114a.354.354 0 0 0 .495-.043.341.341 0 0 0-.043-.486c-1.774-1.462-2.876-3.219-2.876-4.585 0-1.503 1.24-2.726 2.764-2.726.737 0 1.43.282 1.951.795a.355.355 0 0 0 .498 0 2.767 2.767 0 0 1 1.95-.795c.452 0 .883.104 1.28.309a.355.355 0 0 0 .475-.145.342.342 0 0 0-.148-.467z"/>
        <path d="M23.853 8.268L12.204.098a.357.357 0 0 0-.408 0L6.943 3.503V1.95h.065a.348.348 0 0 0 .351-.345.348.348 0 0 0-.351-.345H3.264a.348.348 0 0 0-.352.345c0 .19.158.345.352.345h.064v4.087L.148 8.268A.343.343 0 0 0 0 8.55v2.043c0 .129.074.247.19.306.118.06.259.05.366-.026l.692-.485v6.803h-.064a.348.348 0 0 0-.352.346v4.084c0 .19.157.345.352.345h21.632a.348.348 0 0 0 .352-.345v-4.084a.348.348 0 0 0-.352-.346h-.064v-6.803l.692.485a.356.356 0 0 0 .365.026.345.345 0 0 0 .191-.306V8.549a.343.343 0 0 0-.147-.28zM4.03 1.95h2.21v2.045l-2.21 1.55V1.95zm19.266 7.97l-1.941-1.36a.356.356 0 0 0-.49.08.341.341 0 0 0 .081.481l1.102.773v7.296H16.16a.348.348 0 0 0-.351.346c0 .19.157.345.351.345h6.305v3.394H1.535v-3.394H7.84a.348.348 0 0 0 .351-.345.348.348 0 0 0-.351-.346H1.95V9.894L12 2.846l7.699 5.4c.158.11.377.074.49-.08a.341.341 0 0 0-.082-.482L12.204 2.14a.357.357 0 0 0-.408 0L.703 9.921V8.727L12 .804l11.297 7.923V9.92z"/>
    </g>
</symbol><symbol id="icon-hotel" viewBox="0 0 50 50">
    <title>
        hotel
    </title>
    <g fill-rule="nonzero">
        <path d="M4.688 10.156h4.687c.431 0 .781-.349.781-.781V4.687a.781.781 0 0 0-.781-.78H4.687a.781.781 0 0 0-.78.78v4.688c0 .432.35.781.78.781zm.78-4.687h3.126v3.125H5.469V5.469z"/>
        <path d="M13.281 10.156h4.688c.431 0 .781-.349.781-.781V4.687a.781.781 0 0 0-.781-.78H13.28a.781.781 0 0 0-.781.78v4.688c0 .432.35.781.781.781zm.781-4.687h3.126v3.125h-3.125V5.469z"/>
        <path d="M21.875 10.156h4.688c.43 0 .78-.349.78-.781V4.687a.781.781 0 0 0-.78-.78h-4.688a.781.781 0 0 0-.781.78v4.688c0 .432.35.781.781.781zm.781-4.687h3.125v3.125h-3.125V5.469z"/>
        <path d="M4.688 18.75h4.687c.431 0 .781-.35.781-.781V13.28a.781.781 0 0 0-.781-.781H4.687a.781.781 0 0 0-.78.781v4.688c0 .432.35.781.78.781zm.78-4.688h3.126v3.126H5.469v-3.125z"/>
        <path d="M13.281 18.75h4.688c.431 0 .781-.35.781-.781V13.28a.781.781 0 0 0-.781-.781H13.28a.781.781 0 0 0-.781.781v4.688c0 .432.35.781.781.781zm.781-4.688h3.126v3.126h-3.125v-3.125z"/>
        <path d="M21.875 18.75h4.688c.43 0 .78-.35.78-.781V13.28a.781.781 0 0 0-.78-.781h-4.688a.781.781 0 0 0-.781.781v4.688c0 .432.35.781.781.781zm.781-4.688h3.125v3.126h-3.125v-3.125z"/>
        <path d="M4.688 27.344h4.687c.431 0 .781-.35.781-.782v-4.687a.781.781 0 0 0-.781-.781H4.687a.781.781 0 0 0-.78.781v4.688c0 .432.35.78.78.78zm.78-4.688h3.126v3.125H5.469v-3.125z"/>
        <path d="M13.281 27.344h4.688c.431 0 .781-.35.781-.782v-4.687a.781.781 0 0 0-.781-.781H13.28a.781.781 0 0 0-.781.781v4.688c0 .432.35.78.781.78zm.781-4.688h3.126v3.125h-3.125v-3.125z"/>
        <path d="M21.875 27.344h4.688c.43 0 .78-.35.78-.782v-4.687a.781.781 0 0 0-.78-.781h-4.688a.781.781 0 0 0-.781.781v4.688c0 .432.35.78.781.78zm.781-4.688h3.125v3.125h-3.125v-3.125z"/>
        <path d="M10.156 35.156V30.47a.781.781 0 0 0-.781-.782H4.687a.781.781 0 0 0-.78.782v4.687c0 .432.35.782.78.782h4.688c.431 0 .781-.35.781-.782zm-1.562-.781H5.469V31.25h3.125v3.125z"/>
        <path d="M13.281 35.938h4.688c.431 0 .781-.35.781-.782V30.47a.781.781 0 0 0-.781-.782H13.28a.781.781 0 0 0-.781.782v4.687c0 .432.35.782.781.782zm.781-4.688h3.126v3.125h-3.125V31.25z"/>
        <path d="M21.875 35.938h4.688c.43 0 .78-.35.78-.782V30.47a.781.781 0 0 0-.78-.782h-4.688a.781.781 0 0 0-.781.782v4.687c0 .432.35.782.781.782zm.781-4.688h3.125v3.125h-3.125V31.25z"/>
        <path d="M33.594 35.938h4.687c.431 0 .782-.35.782-.782V30.47a.781.781 0 0 0-.782-.782h-4.687a.781.781 0 0 0-.782.782v4.687c0 .432.35.782.782.782zm.781-4.688H37.5v3.125h-3.125V31.25z"/>
        <path d="M41.406 35.938h4.688c.431 0 .781-.35.781-.782V30.47a.781.781 0 0 0-.781-.782h-4.688a.781.781 0 0 0-.781.782v4.687c0 .432.35.782.781.782zm.782-4.688h3.124v3.125h-3.124V31.25z"/>
        <path d="M49.219 25.781H31.25v-4.687h3.906v1.562c0 .432.35.782.782.782h6.25c.43 0 .78-.35.78-.782V3.906a.781.781 0 0 0-.78-.781h-6.25a.781.781 0 0 0-.782.781V5.47H31.25V.78A.781.781 0 0 0 30.469 0H.78A.781.781 0 0 0 0 .781v45.313A3.91 3.91 0 0 0 3.906 50h42.188A3.91 3.91 0 0 0 50 46.094V26.562a.781.781 0 0 0-.781-.78zm-12.5-21.093h4.687v17.187H36.72V4.687zM35.156 7.03v12.5H31.25v-12.5h3.906zM1.563 46.094V1.562h28.125v46.875h-7.813v-8.593h1.563V38.28H7.812v1.563h1.563v8.593H3.906a2.347 2.347 0 0 1-2.344-2.343zm9.374-6.25h3.907v8.593h-3.906v-8.593zm5.47 8.593v-8.593h3.905v8.593h-3.906zm21.874 0V43.75h3.125v4.688h-3.125zm10.157-2.343a2.347 2.347 0 0 1-2.344 2.343h-3.125V42.97a.781.781 0 0 0-.782-.782H37.5a.781.781 0 0 0-.781.782v5.468H31.25V27.345h17.188v18.75z"/>
        <path d="M38.281 9.375h1.563v1.563h-1.563z"/>
        <path d="M38.281 12.5h1.563v1.563h-1.563z"/>
        <path d="M38.281 15.625h1.563v1.563h-1.563z"/>
        <path d="M38.281 18.75h1.563v1.563h-1.563z"/>
        <path d="M38.281 6.25h1.563v1.563h-1.563z"/>
    </g>
</symbol><symbol id="icon-hug" viewBox="0 0 28 20">
    <title>
        hug
    </title>
    <path d="M27.59 8.39a.41.41 0 0 0-.41.41v.48h-1.378a3.255 3.255 0 0 0-.113-.354.409.409 0 0 0 .076-.14 6.75 6.75 0 0 0-1.72-6.841c-2.587-2.553-6.797-2.553-9.384 0l-.36.355a.722.722 0 0 1-1.01 0l-.36-.355A6.69 6.69 0 0 0 8.978.067a6.736 6.736 0 0 0-4.207.925.41.41 0 1 0 .425.7 5.858 5.858 0 0 1 7.16.836l.359.355a1.546 1.546 0 0 0 2.163 0l.36-.355c2.269-2.239 5.961-2.239 8.23 0a5.937 5.937 0 0 1 1.66 5.453 3.294 3.294 0 0 0-.343-.348l-3.21-2.803a.682.682 0 0 0-.924.03l-.01.01a1.593 1.593 0 0 0-.115 2.152l.841 1.027c.03.035.035.074.015.116a.115.115 0 0 1-.11.067h-4.796a1.2 1.2 0 0 0-1.204 1.194c0 .131.021.258.061.377a1.2 1.2 0 0 0-1.123 1.19 1.2 1.2 0 0 0 1.205 1.194h.45a1.18 1.18 0 0 0-.062.378 1.2 1.2 0 0 0 1.124 1.191c-.04.12-.063.247-.063.38a1.2 1.2 0 0 0 1.204 1.194l1.41.004a29.068 29.068 0 0 1-3.463 2.555l-1.834 1.154a.726.726 0 0 1-.77 0l-1.833-1.154a29.08 29.08 0 0 1-3.461-2.554l1.814-.005a1.2 1.2 0 0 0 1.205-1.194c0-.133-.022-.26-.063-.38a1.2 1.2 0 0 0 1.125-1.191c0-.132-.022-.259-.062-.378h.45a1.2 1.2 0 0 0 1.204-1.193 1.2 1.2 0 0 0-1.123-1.191c.04-.119.062-.246.062-.377a1.2 1.2 0 0 0-1.205-1.194H6.728a.116.116 0 0 1-.11-.067.102.102 0 0 1 .015-.116l.841-1.027a1.593 1.593 0 0 0-.115-2.153l-.01-.008a.682.682 0 0 0-.923-.03l-3.21 2.802a3.285 3.285 0 0 0-.647.768 5.965 5.965 0 0 1 1.556-5.873.41.41 0 1 0-.577-.583A6.78 6.78 0 0 0 1.953 9.15c.019.05.046.093.08.13H.82V8.8a.41.41 0 0 0-.82 0v6.127a.41.41 0 0 0 .82 0v-.637h1.935c.834 0 1.67.194 2.416.562a4.729 4.729 0 0 0 1.71.47l.148.137c.13.12.264.246.35.322a29.885 29.885 0 0 0 3.761 2.802l1.834 1.154a1.544 1.544 0 0 0 1.644 0l1.834-1.154a29.86 29.86 0 0 0 4.254-3.246h.042c.718 0 1.438-.167 2.08-.484a5.492 5.492 0 0 1 2.417-.563h1.935v.637a.41.41 0 0 0 .82 0V8.8a.41.41 0 0 0-.41-.41zM7.252 14.516a3.903 3.903 0 0 1-1.718-.4 6.317 6.317 0 0 0-2.78-.647H.82V10.1h1.714a.41.41 0 0 0 .406-.353c.082-.578.372-1.11.815-1.497L6.86 5.54a.776.776 0 0 1-.02.963l-.841 1.026a.933.933 0 0 0 .73 1.523h4.796a.38.38 0 0 1 .384.374.379.379 0 0 1-.349.372l-4.248.005a.41.41 0 0 0 0 .82l4.178-.005a.415.415 0 0 0 .035.001h1.061a.38.38 0 0 1 .385.374.38.38 0 0 1-.385.374H9.08l-1.78.004a.41.41 0 0 0 0 .82h3.693a.38.38 0 0 1 .384.374.38.38 0 0 1-.384.374l-3.683.007a.41.41 0 0 0 .001.82h.001l2.62-.004a.38.38 0 0 1 .383.374.38.38 0 0 1-.385.374l-2.678.007zM27.18 13.47h-1.935c-.96 0-1.92.224-2.78.647-.53.262-1.124.4-1.716.4l-2.68-.007a.38.38 0 0 1-.384-.374.38.38 0 0 1 .384-.374h.84l1.779.004a.41.41 0 0 0 .002-.82l-3.683-.007a.38.38 0 0 1-.384-.374.38.38 0 0 1 .384-.374h3.7a.41.41 0 0 0 0-.82l-1.788-.003h-3.504a.38.38 0 0 1-.385-.374.38.38 0 0 1 .385-.374h1.052l4.222.003a.41.41 0 1 0 0-.82L16.5 9.8h-.023a.38.38 0 0 1-.384-.374.38.38 0 0 1 .384-.374h4.796a.933.933 0 0 0 .73-1.523l-.84-1.026a.776.776 0 0 1-.021-.963l3.104 2.71c.443.387.733.919.815 1.497a.41.41 0 0 0 .407.352h1.713v3.37z" fill-rule="nonzero"/>
</symbol><symbol id="icon-key-card" viewBox="0 0 45 50">
    <title>
        key-card
    </title>
    <g fill-rule="nonzero">
        <path d="M21.316 12.5v33.333c0 2.298 1.77 4.167 3.947 4.167h15.79C43.229 50 45 48.13 45 45.833V12.5c0-2.297-1.77-4.167-3.947-4.167H32.89C30.894 3.438 26.282 0 20.921 0 15.555 0 10.94 3.444 8.946 8.348c-.088-.004-.173-.015-.262-.015C3.896 8.333 0 12.446 0 17.5c0 3.457 1.843 6.603 4.737 8.163v20.17c0 .254.109.493.296.651l3.947 3.334a.761.761 0 0 0 1.125-.151l2.369-3.334a.862.862 0 0 0 .158-.5v-1.666a.848.848 0 0 0-.352-.694l-1.567-1.102 1.688-1.782a.856.856 0 0 0 .23-.589v-1.667c0-.46-.352-.833-.789-.833h-1.579v-1.9l1.829-.642a.83.83 0 0 0 .54-.791v-3.334a.848.848 0 0 0-.352-.693l-1.383-.973 1.383-.974a.848.848 0 0 0 .352-.693v-1.837c2.894-1.56 4.736-4.706 4.736-8.163 0-4.36-2.9-8.012-6.77-8.935 1.843-4.072 5.77-6.898 10.323-6.898 4.466 0 8.332 2.72 10.218 6.666h-5.876c-2.176 0-3.947 1.87-3.947 4.167zm10.48-2.5c.262.843.439 1.724.519 2.636-1.33.392-2.315 1.669-2.315 3.197 0 1.839 1.416 3.334 3.158 3.334 1.741 0 3.158-1.495 3.158-3.334 0-1.57-1.037-2.881-2.424-3.233a14.276 14.276 0 0 0-.45-2.6h7.61c1.306 0 2.37 1.122 2.37 2.5v33.333c0 1.379-1.064 2.5-2.37 2.5H25.264c-1.306 0-2.368-1.121-2.368-2.5V12.5c0-1.378 1.062-2.5 2.368-2.5h6.534zm2.151 4.398c.47.29.79.821.79 1.435 0 .92-.708 1.667-1.58 1.667-.87 0-1.578-.747-1.578-1.667 0-.614.32-1.146.79-1.435v1.435h1.578v-1.435zM9.474 13.75c0-.06.008-.12.008-.18.465.29.781.82.781 1.43 0 .92-.708 1.667-1.579 1.667-.87 0-1.579-.748-1.579-1.667 0-.617.324-1.152.8-1.44-.002.064-.01.126-.01.19V15h1.579v-1.25zM5.526 15c0 1.838 1.417 3.333 3.158 3.333 1.742 0 3.158-1.495 3.158-3.333 0-1.487-.934-2.736-2.21-3.163.088-.581.202-1.153.367-1.703 3.291.653 5.79 3.705 5.79 7.366 0 2.98-1.673 5.677-4.263 6.872a.837.837 0 0 0-.473.763v1.92l-2.017 1.418c-.44.31-.44 1.078 0 1.387l2.017 1.42v2.286l-1.829.643a.83.83 0 0 0-.54.791v3.333c0 .461.353.834.79.834h1.579v.488l-2.137 2.256a.862.862 0 0 0 .12 1.282l2.017 1.42v.943L9.33 47.978l-3.015-2.545V25.135c0-.33-.186-.63-.474-.763-2.59-1.195-4.263-3.893-4.263-6.872 0-4.033 3.033-7.323 6.817-7.485-.15.56-.263 1.133-.345 1.72-1.44.31-2.525 1.656-2.525 3.265z"/>
        <path d="M40.263 44.167V37.5c0-.46-.353-.833-.79-.833h-12.63c-.437 0-.79.372-.79.833v6.667c0 .46.353.833.79.833h12.63c.437 0 .79-.373.79-.833zm-12.631-.834v-5h11.052v5H27.632z"/>
    </g>
</symbol><symbol id="icon-light-bulb" viewBox="0 0 34 34">
    <title>
        light-bulb
    </title>
    <g fill-rule="nonzero">
        <path d="M18.7 22.1a.566.566 0 0 0 .567-.567V13.6h1.7a2.837 2.837 0 0 0 2.833-2.833 2.837 2.837 0 0 0-2.833-2.834 2.837 2.837 0 0 0-2.834 2.834v1.7h-2.266v-1.7a2.837 2.837 0 0 0-2.834-2.834 2.837 2.837 0 0 0-2.833 2.834 2.837 2.837 0 0 0 2.833 2.833h1.7v7.933a.567.567 0 0 0 1.134 0V13.6h2.266v7.933c0 .313.254.567.567.567zm.567-11.333c0-.938.762-1.7 1.7-1.7.937 0 1.7.762 1.7 1.7 0 .937-.763 1.7-1.7 1.7h-1.7v-1.7zm-4.534 1.7h-1.7c-.937 0-1.7-.763-1.7-1.7 0-.938.763-1.7 1.7-1.7.938 0 1.7.762 1.7 1.7v1.7z"/>
        <path d="M4.046 1.205l2.17 1.821a.564.564 0 0 0 .798-.07.567.567 0 0 0-.07-.798L4.774.338a.568.568 0 0 0-.728.867z"/>
        <path d="M4.413 6.15L1.75 5.182a.568.568 0 0 0-.388 1.065l2.662.968a.566.566 0 1 0 .388-1.065z"/>
        <path d="M27.419 3.159a.564.564 0 0 0 .363-.133l2.17-1.822a.566.566 0 1 0-.728-.868l-2.17 1.822a.567.567 0 0 0 .365 1z"/>
        <path d="M3.399 10.768H.567a.567.567 0 0 0 0 1.133h2.832a.567.567 0 0 0 0-1.133z"/>
        <path d="M32.974 5.519a.566.566 0 0 0-.726-.339l-2.662.97a.566.566 0 1 0 .387 1.064l2.663-.969a.566.566 0 0 0 .338-.726z"/>
        <path d="M17 0C10.75 0 5.667 5.084 5.667 11.333c0 4.783 1.875 8.35 5.904 11.228.019.014.047.03.068.042.03.016.64.357.793 1.312a1.693 1.693 0 0 0-.664 2.718 1.693 1.693 0 0 0 0 2.267c-.27.301-.435.698-.435 1.133 0 .938.763 1.7 1.7 1.7a.567.567 0 0 0 0-1.133.568.568 0 0 1 0-1.133H18.7a.566.566 0 1 0 0-1.133h-5.667a.568.568 0 0 1 0-1.134H18.7a.566.566 0 1 0 0-1.133h-5.667a.568.568 0 0 1 0-1.133H18.7a.566.566 0 1 0 0-1.134h-5.139c-.2-1.426-1.125-2.045-1.357-2.178C8.467 18.942 6.8 15.769 6.8 11.334c0-5.624 4.576-10.2 10.2-10.2s10.2 4.576 10.2 10.2c0 4.435-1.667 7.609-5.404 10.288-.26.15-1.396.912-1.396 2.745 0 .313.253.567.567.567a.567.567 0 0 1 0 1.133.566.566 0 1 0 0 1.133.567.567 0 0 1 0 1.134.566.566 0 1 0 0 1.133c.312 0 .566.254.566.566a.554.554 0 0 1-.566.567H15.3a.567.567 0 0 0-.567.567V32.3c0 .937.763 1.7 1.7 1.7h1.134c.937 0 1.7-.763 1.7-1.7v-.567h1.7c.953 0 1.7-.747 1.7-1.7 0-.435-.165-.832-.434-1.133a1.693 1.693 0 0 0 0-2.267 1.693 1.693 0 0 0-.665-2.718c.153-.955.762-1.295.785-1.308a.534.534 0 0 0 .076-.046c4.028-2.877 5.904-6.445 5.904-11.228C28.333 5.084 23.25 0 17 0zm1.133 32.3a.567.567 0 0 1-.566.567h-1.134a.568.568 0 0 1-.566-.567v-.567h2.266v.567z"/>
        <path d="M33.433 10.767H30.6a.566.566 0 1 0 0 1.133h2.833a.566.566 0 1 0 0-1.133z"/>
    </g>
</symbol><symbol id="icon-location" viewBox="0 0 34 34">
    <title>
        location
    </title>
    <g fill-rule="nonzero">
        <path d="M23.615 1.339l-.045-.02a.664.664 0 0 0-.515 1.225l.043.018a.662.662 0 0 0 .87-.353.664.664 0 0 0-.353-.87z"/>
        <path d="M9.466 14.234h-.319a.563.563 0 0 1-.562-.563v-.268a1.935 1.935 0 0 0-1.933-1.933.606.606 0 0 1-.605-.605V8.9a.664.664 0 1 0-1.328 0v1.965c0 1.066.867 1.933 1.933 1.933.333 0 .605.271.605.605v.268c0 1.042.848 1.89 1.89 1.89h.32a.664.664 0 0 0 0-1.327z"/>
        <path d="M20.222 29.61a.669.669 0 0 0-.47-.194.669.669 0 0 0-.469.195.669.669 0 0 0-.195.47.669.669 0 0 0 .664.663.669.669 0 0 0 .664-.664.67.67 0 0 0-.194-.47z"/>
        <path d="M32.894 10.974c-.313-.827-.69-1.63-1.13-2.4a.664.664 0 0 0-1.154.66c.254.443.486.9.694 1.366h-3.678V8.41l6.042-3.489a.664.664 0 0 0 0-1.15L27.294.091a.664.664 0 0 0-.996.575V10.754a3.88 3.88 0 0 0-2.796 3.72v.385a.408.408 0 0 1-.408.408h-.427a2.46 2.46 0 0 0-2.456 2.456v1.238a2.595 2.595 0 0 0 2.592 2.592h1.657c.692 0 1.256.564 1.256 1.257a2.83 2.83 0 0 0 2.827 2.827c.13 0 .236.105.236.235v1.337c0 .035.003.069.008.102a15.64 15.64 0 0 1-11.125 5.344v-.495c0-1.193-.97-2.164-2.163-2.164h-3.813a2.242 2.242 0 0 1-2.24-2.24v-.08a3.149 3.149 0 0 0-3.145-3.146h-.082a2.123 2.123 0 0 1-1.499-3.62c.4-.4.933-.62 1.5-.62h.067c.616 0 1.118-.502 1.118-1.119 0-.634.516-1.15 1.15-1.15h4.36c1.162 0 2.106.944 2.106 2.105v2.311a2.7 2.7 0 0 0 2.698 2.698c.755 0 1.37.614 1.37 1.37v1.185a.664.664 0 0 0 1.328 0v-1.185a2.7 2.7 0 0 0-2.698-2.698c-.755 0-1.37-.614-1.37-1.37v-2.31a3.437 3.437 0 0 0-3.433-3.434h-.513v-.676c0-.13.106-.237.237-.237a2.835 2.835 0 0 0 2.831-2.831c0-.695.565-1.26 1.26-1.26h1.66a2.599 2.599 0 0 0 2.596-2.596v-1.24a2.463 2.463 0 0 0-2.46-2.46h-.694a.41.41 0 0 1-.41-.41v-.385a3.88 3.88 0 0 0-1.709-3.215 15.789 15.789 0 0 1 4.474.272.664.664 0 0 0 .27-1.3 17.119 17.119 0 0 0-3.46-.353c-4.54 0-8.809 1.768-12.02 4.979A16.886 16.886 0 0 0 0 17c0 4.54 1.768 8.809 4.978 12.02a16.886 16.886 0 0 0 12.02 4.978c4.54 0 8.808-1.768 12.019-4.979A16.886 16.886 0 0 0 33.995 17c0-2.025-.361-4.028-1.057-5.91a.661.661 0 0 0-.044-.116zM27.626 5.88V1.816l4.382 2.53-4.382 2.53V5.88zM16.334 32.655C8 32.305 1.328 25.418 1.328 17c0-7.023 4.644-12.981 11.022-14.966.037.007.076.01.115.01h1.077a2.556 2.556 0 0 1 2.553 2.554v.385c0 .958.78 1.738 1.738 1.738h.694c.624 0 1.132.508 1.132 1.132v1.24a1.27 1.27 0 0 1-1.268 1.268h-1.66a2.59 2.59 0 0 0-2.588 2.588c0 .829-.674 1.503-1.503 1.503-.863 0-1.565.702-1.565 1.565v.676h-2.52a2.482 2.482 0 0 0-2.47 2.27 3.423 3.423 0 0 0-2.304 1.008 3.426 3.426 0 0 0-1.01 2.439 3.452 3.452 0 0 0 3.448 3.448h.082a1.82 1.82 0 0 1 1.817 1.817v.082c0 1.967 1.6 3.567 3.568 3.567h3.812c.461 0 .836.375.836.836v.495zm13.75-7.046a1.566 1.566 0 0 0-1.54-1.3c-.827 0-1.5-.673-1.5-1.5a2.587 2.587 0 0 0-2.584-2.584h-1.657a1.265 1.265 0 0 1-1.264-1.264v-1.238a1.13 1.13 0 0 1 1.128-1.129h.427c.957 0 1.736-.778 1.736-1.735v-.385c0-1.018.602-1.899 1.468-2.306v1.578a.664.664 0 1 0 1.328 0v-1.818h4.2c.554 1.624.842 3.34.842 5.072 0 3.178-.952 6.137-2.584 8.609z"/>
    </g>
</symbol><symbol id="icon-logo-waves" viewBox="0 0 37 12">
    <title>
        logo-waves
    </title>
    <path d="M36.8 5c-.4-.2-1.2.9-1.4 1.2-.6.6-1.2 1.2-1.9 1.6C31.9 8.9 30.4 9 28.6 9c-3.8 0-7.7-1.9-11.3-3-3.8-1-7.9-1.3-11.7-.3-1.7.4-3.5 1.3-4.4 2.8-.5.8-1.9 2.6-.7 3.4.4.3.7-1 .9-1.2.4-.8 1.3-1.2 2-1.7 1.2-.9 3.3-1.4 4.8-1.4 2.1 0 4.4-.4 6.4.3 1.6.5 3.3.9 5 1.5 1.9.6 3.7 1.3 5.6 1.7 1.1.2 2.1.4 3.2.4.8 0 1.7-.2 2.5-.1.5-.4 1.5-.4 2-1 .8-.2 1.3-.9 2-1.3s2.3-2.8 2.1-3.7c0-.3-.1-.3-.2-.4z"/>
    <path d="M36.8 0c-.4-.2-1.2.9-1.4 1.2-.6.6-1.2 1.2-1.9 1.6C31.9 3.9 30.4 4 28.6 4c-3.8 0-7.7-1.9-11.3-3C13.5 0 9.4-.3 5.6.7 3.9 1.1 2.1 2 1.2 3.5.7 4.3-.7 6.1.5 6.9c.4.3.7-1 .9-1.2.4-.8 1.3-1.2 2-1.7 1.2-.9 3.3-1.4 4.8-1.4 2.1 0 4.4-.4 6.4.3 1.6.5 3.3.9 5 1.5 1.9.6 3.7 1.3 5.6 1.7 1.1.2 2.1.4 3.2.4.8 0 1.7-.2 2.5-.1.5-.4 1.5-.4 2-1 .8-.2 1.3-.9 2-1.3S37.2 1.3 37 .4c0-.3-.1-.3-.2-.4z"/>
</symbol><symbol id="icon-mail" viewBox="0 0 19 13">
    <title>
        mail
    </title>
    <g>
        <path d="M14.869 9.917c-.1 0-.1 0-.2-.1l-3.4-3c-.1-.1-.1-.3 0-.4.1-.2.3-.2.4-.1l3.4 3.1c.1.1.1.3 0 .4 0 0-.1.1-.2.1z"/>
        <path d="M3.469 9.917c-.1 0-.2 0-.2-.1-.1-.1-.1-.3 0-.4l3.4-3.1c.2-.1.4-.1.5.1.1.1.1.3 0 .4l-3.5 3c0 .1-.1.1-.2.1z"/>
        <path d="M16.9 12.7H1.5c-.8 0-1.5-.6-1.5-1.4V1.7C0 .9.7.3 1.5.3h15.4c.8 0 1.5.6 1.5 1.4v9.6c0 .8-.7 1.4-1.5 1.4zM1.5.8c-.5 0-.9.4-.9.9v9.6c0 .5.4.8.9.8h15.4c.5 0 .9-.4.9-.8V1.7c0-.5-.4-.8-.9-.8H1.5z"/>
        <path d="M9.2 7.9c-.4 0-.8-.1-1.1-.4L.5 1.2C.4 1.1.4.9.5.8.6.7.8.7.9.8l7.6 6.3c.4.3 1 .3 1.4 0L17.5.8c.1-.1.3-.1.4 0 .1.1.1.3 0 .4l-7.6 6.3c-.3.3-.7.4-1.1.4z"/>
    </g>
</symbol><symbol id="icon-marker" viewBox="0 0 12 16">
    <title>
        marker
    </title>
    <g fill-rule="nonzero">
        <path d="M6 0C2.702 0 .018 2.6.018 5.795c0 3.965 5.353 9.786 5.581 10.032a.55.55 0 0 0 .802 0c.228-.246 5.58-6.067 5.58-10.032C11.982 2.599 9.299 0 6 0zm0 14.679c-1.802-2.073-4.904-6.163-4.904-8.884 0-2.62 2.2-4.752 4.904-4.752 2.704 0 4.904 2.132 4.904 4.752 0 2.721-3.102 6.81-4.904 8.884z"/>
        <path d="M6 2.88c-1.66 0-3.01 1.307-3.01 2.915C2.99 7.402 4.34 8.71 6 8.71c1.66 0 3.01-1.308 3.01-2.915 0-1.608-1.35-2.916-3.01-2.916zm0 4.787c-1.065 0-1.932-.84-1.932-1.872 0-1.033.867-1.872 1.932-1.872s1.932.84 1.932 1.872S7.065 7.667 6 7.667z"/>
    </g>
</symbol><symbol id="icon-modern-chair" viewBox="0 0 20 28">
    <title>
        modern-chair
    </title>
    <g fill-rule="nonzero">
        <path d="M17.377 19.37c1.674-1.724 2.596-3.958 2.596-6.292 0-2.582-1.102-5.808-2.875-8.419C15.058 1.655 12.536 0 10 0 7.464 0 4.943 1.655 2.902 4.66 1.13 7.27.027 10.495.027 13.077c0 2.334.922 4.568 2.596 6.292 1.572 1.619 3.685 2.663 5.982 2.965v2.926h-.998c-1.132 0-2.052.934-2.052 2.083v.199a.4.4 0 0 0 .396.402h8.098a.4.4 0 0 0 .396-.402v-.2c0-1.148-.92-2.082-2.052-2.082h-.998v-2.926c2.297-.302 4.41-1.346 5.982-2.965zm-4.984 6.696c.626 0 1.146.466 1.243 1.074H6.364a1.266 1.266 0 0 1 1.243-1.074h4.786zm-2.995-.805v-2.852a10.803 10.803 0 0 0 1.204 0v2.852H9.398zm1.563-3.686a9.998 9.998 0 0 1-1.922 0c-2.25-.218-4.328-1.202-5.851-2.771C1.66 17.232.82 15.199.82 13.078c0-2.39 1.073-5.516 2.734-7.961C6.103 1.366 8.687.806 10 .806c1.313 0 3.897.56 6.445 4.31 1.66 2.446 2.734 5.572 2.734 7.962 0 2.12-.84 4.154-2.367 5.726-1.523 1.569-3.601 2.553-5.851 2.77z"/>
        <path d="M10 2.383c-1.71 0-3.392 1.015-4.737 2.857-1.177 1.612-1.908 3.662-1.908 5.352 0 .885.193 1.739.574 2.538 1.067 2.249 3.45 3.701 6.071 3.701 2.621 0 5.004-1.452 6.071-3.7.38-.8.574-1.654.574-2.54 0-1.689-.731-3.74-1.908-5.35C13.392 3.397 11.709 2.382 10 2.382zm0 13.643c-2.19 0-4.187-1.138-5.19-2.926A10.009 10.009 0 0 1 10 11.675c1.858 0 3.645.491 5.19 1.425-1.002 1.788-3 2.926-5.19 2.926zm5.53-3.656A10.795 10.795 0 0 0 10 10.869c-1.975 0-3.877.518-5.53 1.5a5.045 5.045 0 0 1-.321-1.777c0-1.525.67-3.392 1.752-4.872C7.509 3.518 9.159 3.19 10 3.19c.84 0 2.491.328 4.1 2.53 1.08 1.48 1.751 3.347 1.751 4.872 0 .613-.108 1.209-.32 1.778z"/>
    </g>
</symbol><symbol id="icon-next" viewBox="0 0 14 25">
    <title>
        Shape
    </title>
    <path d="M2 24.2l11.2-11.1c.2-.2.3-.4.3-.6 0-.2-.1-.4-.3-.6L2 .7C1.7.4 1.1.4.8.7c-.3.3-.3.9 0 1.2l10.6 10.6L.7 23c-.3.3-.3.9 0 1.2.4.4.9.4 1.3 0z"/>
</symbol><symbol id="icon-palm" viewBox="0 0 26 27">
    <title>
        palm
    </title>
    <path d="M25.882 8.31a6.594 6.594 0 0 0-1.787-1.583 6.663 6.663 0 0 0-8.087.927l1.048-3.568a.416.416 0 0 0-.799-.233L14.52 9.765a6.655 6.655 0 0 0-1.696-2.339A5.783 5.783 0 0 1 17.108.953l-.462 1.574a.416.416 0 0 0 .799.233l.654-2.23a.42.42 0 0 0-.457-.526 6.625 6.625 0 0 0-5.713 6.759 6.661 6.661 0 0 0-6.945-.036A6.595 6.595 0 0 0 3.197 8.31a.418.418 0 0 0 .23.657l7.306 1.775c-2.874.776-4.965 3.428-4.895 6.524.018.805.18 1.59.483 2.332a.421.421 0 0 0 .686.13l4.824-5.026a1.746 1.746 0 0 0 2.227.207 34.852 34.852 0 0 1 .77 7.738 24 24 0 0 0-1.98-.082A23.723 23.723 0 0 0 .225 26.184a.417.417 0 0 0-.13.571c.12.191.381.25.573.13a22.89 22.89 0 0 1 12.178-3.491 22.89 22.89 0 0 1 12.178 3.491c.208.13.49.049.597-.17a.417.417 0 0 0-.153-.531 23.65 23.65 0 0 0-7.432-3.05 33.472 33.472 0 0 0-1.45-7.968c.278-.067.53-.2.74-.382l4.745 4.945a.421.421 0 0 0 .686-.13 6.555 6.555 0 0 0 .483-2.333c.07-3.096-2.02-5.748-4.895-6.524l7.306-1.775a.418.418 0 0 0 .23-.657zM4.29 8.324c.335-.34.712-.638 1.126-.889 2.732-1.654 6.306-.786 7.967 1.935.146.24.274.49.383.746-.149.117-.279.258-.383.416L4.29 8.324zm7.031 5.15c0 .17.025.332.07.487L6.88 18.663a5.753 5.753 0 0 1-.21-1.416c-.072-3.184 2.47-5.832 5.666-5.904a5.91 5.91 0 0 1 .766.033 1.767 1.767 0 0 0 .014.359l-.046-.002c-.964 0-1.748.781-1.748 1.741zm1.748.912a.915.915 0 0 1-.915-.912.915.915 0 0 1 1.83 0c0 .503-.41.912-.915.912zm1.554-1.708a1.755 1.755 0 0 0-.524-.609.414.414 0 0 0-.048-.129.915.915 0 1 1 1.657-.151l-.003.009a1.754 1.754 0 0 0-1.082.88zm.217 1.917c.225.264.526.462.87.556.157.489.302.984.436 1.482l-.898.149a35.762 35.762 0 0 0-.408-2.187zm2.352 8.368a23.795 23.795 0 0 0-1.533-.232c.012-.81-.003-1.622-.047-2.432h1.296c.131.884.226 1.774.284 2.664zm-.419-3.493h-1.215a35.375 35.375 0 0 0-.162-1.626l-.031-.241.986-.164a32.348 32.348 0 0 1 .422 2.03zm-.597-5.084a.915.915 0 0 1-.915-.912.915.915 0 0 1 1.83 0c0 .503-.41.912-.915.912zm6.233 2.86a5.753 5.753 0 0 1-.209 1.417l-4.389-4.574c.073-.191.113-.398.113-.615 0-.826-.58-1.519-1.356-1.696a1.744 1.744 0 0 0 .018-.435h.158c3.196.072 5.737 2.72 5.665 5.904zm-6.194-6.84c-.2-.252-.47-.448-.78-.56.08-.162.167-.322.261-.476 1.66-2.72 5.235-3.589 7.966-1.935.415.251.792.549 1.127.889l-8.574 2.082z" fill-rule="nonzero"/>
</symbol><symbol id="icon-phone" viewBox="0 0 19 18">
    <title>
        phone
    </title>
    <path d="M19 14.8c-.1-.4-.3-.8-.7-1l-4.7-2.6c-.6-.3-1.3-.2-1.8.2l-.9.9c-.2.2-.6.3-.9 0l-2.1-1.8c-.7-.6-1.3-1.3-1.9-2-.3-.2-.3-.6 0-.8l.9-.9c.5-.4.6-1.1.2-1.7L4.4.7c-.2-.4-.6-.6-1-.7-.5 0-.9.1-1.3.4L.7 1.7c-1 .9-1 2.6 0 4.7.9 2.1 2.6 4.3 4.8 6.4 2.2 2.1 4.6 3.7 6.7 4.5 1.1.4 2.1.7 2.9.7.9 0 1.6-.2 2.1-.7l1.4-1.3c.3-.3.4-.8.4-1.2zm-5.7-3.1l4.7 2.6c.2.1.4.3.4.6 0 .2 0 .4-.2.6L12 12.1l.3-.2c.2-.3.6-.3 1-.2zM3.3.6c.3 0 .5.2.6.4l2.7 4.4c.2.3.1.7-.1 1l-.3.2L2.7.7c.1-.1.3-.1.5-.1h.1zm13.4 16.3c-.8.7-2.3.7-4.3-.1-2.1-.8-4.4-2.4-6.5-4.4-2.1-2-3.8-4.2-4.6-6.2-.9-1.8-.9-3.3-.1-4.1l1-1L5.8 7l-.3.3c-.4.4-.5 1.1 0 1.6.6.7 1.3 1.4 2 2.1.7.7 1.4 1.3 2.2 1.9.5.4 1.3.4 1.7-.1l.2-.2 6.2 3.4-1.1.9z"/>
</symbol><symbol id="icon-pinterest" viewBox="0 0 14 18">
    <title>
        Shape
    </title>
    <path d="M13.923 6.355c0-3.11-2.581-6.009-6.503-6.009C2.538.346.078 3.92.078 6.9c0 1.804.668 3.409 2.104 4.006.235.098.446.003.514-.262.047-.184.16-.649.209-.841.07-.263.042-.355-.147-.585-.415-.5-.678-1.144-.678-2.058 0-2.65 1.942-5.022 5.058-5.022 2.758 0 4.275 1.72 4.275 4.018 0 3.025-1.31 5.576-3.258 5.576-1.076 0-1.88-.906-1.621-2.02.308-1.327.906-2.762.906-3.72 0-.858-.45-1.576-1.385-1.576-1.099 0-1.981 1.16-1.981 2.715 0 .99.328 1.66.328 1.66l-1.321 5.715c-.179.776-.206 1.628-.181 2.348.075.647.7 1.173 1.243.464.382-.623.792-1.41 1.005-2.198.127-.467.723-2.883.723-2.883.357.695 1.4 1.308 2.51 1.308 3.302-.002 5.542-3.075 5.542-7.19z" fill-rule="nonzero" opacity=".8"/>
</symbol><symbol id="icon-planet-earth" viewBox="0 0 50 50">
    <title>
        planet-earth
    </title>
    <g fill-rule="nonzero">
        <path d="M42.678 7.322C37.956 2.601 31.678 0 25 0 18.322 0 12.044 2.6 7.322 7.322 2.601 12.044 0 18.322 0 25c0 6.678 2.6 12.956 7.322 17.678C12.044 47.399 18.322 50 25 50c6.678 0 12.956-2.6 17.678-7.322C47.399 37.956 50 31.678 50 25c0-6.678-2.6-12.956-7.322-17.678zM47.88 19.9l-6.594-1.846a.783.783 0 0 0-.975.926l.536 2.378a2.458 2.458 0 0 0 1.186 1.596c.57.323 1.25.403 1.878.224v1.187c0 .544-.26 1.06-.697 1.384l-3.992 2.957-3.52-6.793a.783.783 0 0 0-1.39.72l3.568 6.886a4.121 4.121 0 0 0 3.943 2.216l.182-.013-.262 1.445-4.773 4.497a.782.782 0 0 0-.191.282l-3.541 8.949a3.795 3.795 0 0 1-2.565-.426 3.758 3.758 0 0 1-1.8-2.292c-.34-1.23-.376-1.643-.376-1.764V38.64c0-.324-.2-.615-.502-.731l-.832-.32a6.742 6.742 0 0 1-2.82-2.054l-1.448-1.791a.783.783 0 0 0-.747-.28L16.355 34.5a2.558 2.558 0 0 1-2.573-1.092l-.607-.905a5.061 5.061 0 0 1-.29-5.153l1.328-2.56a.783.783 0 0 0 .087-.378l-.021-.967a1.713 1.713 0 0 1 1.422-1.735l5.186-.916a3.38 3.38 0 0 1 2.462.512l2.994 1.982c.2.133.452.166.68.09l4.906-1.64a.783.783 0 0 0 .277-.162l.71-.641a3.04 3.04 0 0 0-.02-4.522.783.783 0 0 0-.742-.165l-3.89 1.153-2.41-2.206a1.603 1.603 0 0 0-1.71-.303 1.603 1.603 0 0 0-1 1.435l-.769-.682a.782.782 0 0 0-.14-.098 3.281 3.281 0 0 0-3.83.465l-1.22 1.132a.781.781 0 0 0-.156.2l-1.204 2.213-1.498-.417a.886.886 0 0 1-.648-.807l-.06-1.116a.887.887 0 0 1 .792-.93l1.486-.158a.783.783 0 0 0 .7-.778v-1.96l3.01-2.27c.356-.27.65-.602.872-.99l1.025-1.79a.783.783 0 0 0-.83-1.158l-3.675.722V7.71c0-.777.347-1.503.951-1.99l4.812-3.881 3.197 1.84c.38.22.821.275 1.243.157.423-.119.771-.395.982-.78l.649-1.18c4.802.786 9.229 3.044 12.738 6.553 3.197 3.198 5.357 7.157 6.31 11.47zm-22.938-1.718l-.226-1.825a.055.055 0 0 1 .025-.017c.03-.013.043 0 .055.01l2.737 2.505a.783.783 0 0 0 .752.174l3.835-1.138c.149.231.229.5.23.785.001.424-.17.813-.485 1.097l-.588.531-4.388 1.467L24.213 20a4.936 4.936 0 0 0-3.598-.749l-3.143.555.872-1.602 1.126-1.045a1.718 1.718 0 0 1 1.937-.28l2.239 1.984a.783.783 0 0 0 1.296-.682zm.491-16.61c.58.01 1.157.042 1.73.094l-.351.639a.05.05 0 0 1-.032.025c-.021.006-.035-.003-.04-.005l-1.307-.753zm-17.004 40A23.281 23.281 0 0 1 1.566 25c0-6.26 2.437-12.144 6.863-16.57 3.205-3.205 7.175-5.367 11.498-6.316l-2.96 2.387a4.105 4.105 0 0 0-1.534 3.21v1.144a.783.783 0 0 0 .933.768l2.927-.574-.173.303c-.117.203-.27.377-.457.518l-3.32 2.506a.783.783 0 0 0-.312.625v1.645l-.785.083a2.452 2.452 0 0 0-2.19 2.57l.06 1.116a2.451 2.451 0 0 0 1.792 2.233l.208.058a3.27 3.27 0 0 0-1.403 2.772l.018.768-1.236 2.382a6.626 6.626 0 0 0 .38 6.746l.607.905a4.124 4.124 0 0 0 4.149 1.761l5.337-.952 1.156 1.431a8.31 8.31 0 0 0 3.477 2.531l.33.127v3.235c0 .264.045.777.433 2.18a5.313 5.313 0 0 0 2.543 3.242c.04.022.08.041.12.062a23.647 23.647 0 0 1-5.027.538 23.281 23.281 0 0 1-16.57-6.863zm33.142 0a23.464 23.464 0 0 1-6.331 4.52l2.93-7.407 4.834-4.555a.784.784 0 0 0 .233-.43l.489-2.688a.783.783 0 0 0-.824-.92l-1.186.08a2.554 2.554 0 0 1-1.417-.315l3.847-2.85a3.301 3.301 0 0 0 1.33-2.642v-2.268a.783.783 0 0 0-1.028-.744l-.929.308a.878.878 0 0 1-.715-.07.877.877 0 0 1-.43-.577l-.247-1.099 6.065 1.699c.16 1.112.242 2.243.242 3.387 0 6.26-2.437 12.144-6.863 16.57z"/>
        <path d="M12.064 10.232l.86.528-.47 2.113a.783.783 0 0 0 1.529.34l.59-2.659a.783.783 0 0 0-.354-.837l-1.336-.82a.783.783 0 1 0-.819 1.335z"/>
        <path d="M29.663 15.73h2.319c.168 0 .33-.054.465-.153l1.3-.962a.783.783 0 1 0-.931-1.258l-1.092.807h-2.061a.783.783 0 0 0 0 1.566z"/>
        <path d="M36.39 14.447a.782.782 0 1 0 1.265-.922l-2.138-2.932a.783.783 0 1 0-1.265.923l2.138 2.931z"/>
    </g>
</symbol><symbol id="icon-prev" viewBox="0 0 14 25">
    <title>
        Shape
    </title>
    <path d="M13.2 24.3c.3-.3.3-.9 0-1.2L2.6 12.5 13.2 1.9c.3-.3.3-.9 0-1.2s-.9-.3-1.2 0L.7 11.8c-.2.2-.3.4-.3.6 0 .2.1.4.3.6L12 24.2c.4.4.9.4 1.2.1z"/>
</symbol><symbol id="icon-security" viewBox="0 0 34 34">
    <title>
        security
    </title>
    <g fill-rule="nonzero">
        <path d="M22.637.009a11.25 11.25 0 0 0-7.506 2.873c-.368-.46-.716-.926-1.027-1.4-.006-.014-.008-.03-.016-.043a.567.567 0 0 0-.499-.3h-.018a.565.565 0 0 0-.494.306l-.007.017a18.69 18.69 0 0 1-5.443 5.424A18.7 18.7 0 0 1 .493 9.629a.566.566 0 0 0-.476.537c-.116 3.068.256 9.1 4.048 15.028 2.858 4.471 6.535 7.147 9.15 8.616.099.08.222.128.356.128h.018a.55.55 0 0 0 .348-.124c2.615-1.468 6.297-4.145 9.158-8.62a24.97 24.97 0 0 0 1.517-2.75c5.296-.938 9.335-5.564 9.335-11.126 0-6.236-5.074-11.31-11.31-11.31zm-.495 24.577c-2.664 4.166-6.075 6.704-8.563 8.132-2.487-1.428-5.898-3.966-8.562-8.132-3.445-5.389-3.937-10.87-3.882-13.92a19.856 19.856 0 0 0 7.106-2.832 19.855 19.855 0 0 0 5.339-5.111c.229.32.471.638.724.95-.095.104-.179.215-.27.322-.067.08-.135.159-.2.24-.17.208-.328.423-.48.64l-.145.21c-.134.203-.26.408-.38.618a.56.56 0 0 0-.295.244c-.565.981-1.621 1.928-3.256 3.233a13.58 13.58 0 0 1-5.97 2.714.565.565 0 0 0-.462.533c-.088 2.243.172 6.662 2.912 11.066 2.322 3.733 5.395 5.859 7.564 6.985h.002c.077.04.16.067.25.067h.015c.09 0 .171-.028.247-.066l.006-.001a19.5 19.5 0 0 0 7.564-6.986c.17-.273.34-.574.518-.9.237.015.473.036.713.036.208 0 .419-.007.637-.021a23.406 23.406 0 0 1-1.132 1.979zM11.383 12.428c.008.084.023.165.033.249.034.289.076.575.132.856.013.069.03.136.046.205.066.304.142.603.231.898.01.034.022.067.033.1a11.227 11.227 0 0 0 6.351 6.988l.074.03a11.24 11.24 0 0 0 1.81.576c.146.033.292.066.44.095.057.01.113.027.172.037a18.36 18.36 0 0 1-7.123 6.874 18.351 18.351 0 0 1-6.864-6.44c-2.41-3.875-2.784-7.764-2.755-9.981a14.676 14.676 0 0 0 6.02-2.85c.63-.504 1.18-.959 1.657-1.388-.018.075-.03.152-.047.227-.014.065-.031.129-.044.194-.014.07-.028.14-.04.209-.047.259-.083.52-.112.783-.004.037-.01.073-.013.11-.006.066-.009.132-.014.197a11.11 11.11 0 0 0-.043.921c0 .375.021.745.056 1.11zm12.767 8.944h-.003c-.245.037-.47.064-.687.083-.272.022-.545.042-.823.042-.333 0-.661-.018-.986-.05-.198-.019-.391-.054-.586-.084-.14-.022-.284-.037-.423-.065-.116-.022-.229-.056-.343-.083-.221-.052-.442-.103-.657-.169-.045-.014-.088-.031-.133-.046a10.221 10.221 0 0 1-6.592-6.657v-.003c-.091-.29-.165-.587-.23-.887-.007-.036-.017-.07-.025-.107a10.048 10.048 0 0 1-.127-.831c-.007-.06-.02-.118-.025-.179a10.248 10.248 0 0 1-.052-1.018c0-.309.02-.614.046-.917.007-.068.012-.137.02-.206.001-.016.005-.031.007-.048.031-.268.07-.533.122-.794.015-.077.033-.152.05-.229.053-.24.114-.479.184-.713.015-.052.027-.103.044-.155a10.002 10.002 0 0 1 .368-.978c1.566-3.607 5.16-6.138 9.338-6.138 5.612 0 10.179 4.566 10.179 10.178 0 5.098-3.77 9.32-8.666 10.054z"/>
        <path d="M22.637 2.27c-4.989 0-9.048 4.06-9.048 9.048 0 4.99 4.06 9.048 9.048 9.048 4.989 0 9.048-4.059 9.048-9.048 0-4.988-4.06-9.047-9.048-9.047zm.565 16.936v-1.102h-1.13v1.102a7.917 7.917 0 0 1-7.323-7.322h1.102v-1.131h-1.102A7.917 7.917 0 0 1 22.07 3.43v1.103h1.131V3.43a7.917 7.917 0 0 1 7.323 7.323h-1.102v1.131h1.102a7.917 7.917 0 0 1-7.323 7.322z"/>
        <path d="M27.326 6.96l-4.69 4.69-2.427-2.428-.8.8 2.828 2.827a.564.564 0 0 0 .8 0l5.09-5.09-.8-.799z"/>
    </g>
</symbol><symbol id="icon-spinner-circle" viewBox="0 0 58 56">
    <title>
        spinner-circle
    </title>
    <path d="M58 28.9c-.1-3.9-.9-7.8-2.5-11.3-1.6-3.6-3.8-6.8-6.6-9.4-2.8-2.7-6.1-4.8-9.6-6.2C35.7.6 31.9-.1 28.1 0c-3.8.1-7.6.9-11 2.4-3.5 1.5-6.6 3.7-9.2 6.4-2.6 2.7-4.6 5.9-6 9.3-1.4 3.4-2 7.1-1.9 10.8.1 3.7.9 7.3 2.3 10.6 1.5 3.3 3.6 6.3 6.2 8.8 2.6 2.5 5.7 4.5 9 5.8 3.3 1.3 6.9 1.9 10.5 1.8 3.5-.1 7.1-.8 10.3-2.3 3.2-1.4 6.1-3.5 8.6-6 2.4-2.5 4.3-5.5 5.6-8.7.8-2 1.3-4 1.6-6.1h.2c2.1 0 3.7-1.7 3.7-3.7v-.2zm-5.9 9.9c-1.4 3.1-3.4 5.9-5.8 8.2-2.4 2.3-5.3 4.2-8.4 5.4-3.1 1.2-6.4 1.8-9.8 1.7-3.3-.1-6.6-.8-9.6-2.1s-5.7-3.2-8-5.6c-2.2-2.3-4-5.1-5.2-8.1-1.2-3-1.7-6.2-1.6-9.4.1-3.2.8-6.3 2.1-9.2 1.3-2.9 3.1-5.5 5.4-7.6 2.3-2.2 4.9-3.8 7.8-4.9 2.9-1.1 6-1.6 9-1.6 3.1.1 6.1.8 8.9 2 2.8 1.2 5.3 3 7.3 5.2 2.1 2.2 3.7 4.7 4.8 7.5 1.1 2.8 1.6 5.7 1.5 8.7v.3c0 1.9 1.5 3.5 3.3 3.7-.3 2-.9 4-1.7 5.8z"/>
</symbol><symbol id="icon-star" viewBox="0 0 15 15">
    <title>
        Star
    </title>
    <path d="M7.5 12.4L2.9 15l.9-5.4L0 5.7l5.2-.8L7.5 0l2.3 4.9 5.2.8-3.8 3.9.9 5.4z"/>
</symbol><symbol id="icon-team" viewBox="0 0 50 50">
    <title>
        team
    </title>
    <g fill-rule="nonzero">
        <path d="M11.385 11.947a.75.75 0 0 0-1.06.005 2.048 2.048 0 0 1-2.893.014.749.749 0 1 0-1.054 1.064 3.52 3.52 0 0 0 2.493 1.027h.018a3.521 3.521 0 0 0 2.501-1.05.75.75 0 0 0-.005-1.06z"/>
        <path d="M15.408 12.165A2.69 2.69 0 0 0 17.58 9.53a2.69 2.69 0 0 0-2.046-2.608v-.267A6.66 6.66 0 0 0 8.88.003 6.66 6.66 0 0 0 2.23 6.654v.228A2.69 2.69 0 0 0 0 9.53a2.69 2.69 0 0 0 2.36 2.666A6.675 6.675 0 0 0 6 16.883v.439h-2.19a2.845 2.845 0 0 0-2.843 2.842v4.456c0 .414.336.75.75.75h1.706a.75.75 0 1 0 0-1.5h-.957v-3.706c0-.74.603-1.343 1.344-1.343H6a.75.75 0 0 0 1.499-.007v-1.42a6.648 6.648 0 0 0 2.313.079v1.34a.75.75 0 0 0 1.498.008h2.101c.741 0 1.344.602 1.344 1.343v3.707h-8.11a.75.75 0 1 0 0 1.498h8.86a.75.75 0 0 0 .749-.749v-4.456a2.845 2.845 0 0 0-2.842-2.842H11.31v-.244a6.673 6.673 0 0 0 4.097-4.913zm.125-3.635a1.187 1.187 0 0 1 0 1.998V8.53zM2.23 10.625a1.19 1.19 0 0 1 0-2.192v2.192zM8.88 1.501a5.159 5.159 0 0 1 5.153 5.153v.214c-4.246-.177-6.41-2.294-7.16-3.227a.749.749 0 1 0-1.168.939c.04.05.084.103.13.157-.328.34-1 .89-2.04 1.091A5.161 5.161 0 0 1 8.88 1.501zm0 14.54a5.159 5.159 0 0 1-5.153-5.154v-3.53a5.376 5.376 0 0 0 3.17-1.567c1.352 1.14 3.647 2.448 7.136 2.578v2.52a5.159 5.159 0 0 1-5.153 5.153z"/>
        <path d="M6.7 8.344a.75.75 0 0 0-.75.75v.93a.75.75 0 0 0 1.498 0v-.93a.75.75 0 0 0-.749-.75z"/>
        <path d="M10.912 8.344a.75.75 0 0 0-.75.75v.93a.75.75 0 1 0 1.499 0v-.93a.75.75 0 0 0-.75-.75z"/>
        <path d="M47.83 12.165A2.69 2.69 0 0 0 50 9.53a2.69 2.69 0 0 0-2.046-2.608v-.266A6.66 6.66 0 0 0 41.302.003a6.66 6.66 0 0 0-6.652 6.652v.228a2.69 2.69 0 0 0-2.23 2.646 2.69 2.69 0 0 0 2.36 2.666 6.675 6.675 0 0 0 3.642 4.688v.439h-2.19a2.845 2.845 0 0 0-2.843 2.842v4.456c0 .414.336.75.75.75h2.159a.75.75 0 1 0 0-1.5h-1.41v-3.706c0-.74.602-1.343 1.343-1.343h2.191a.75.75 0 0 0 1.499-.007v-1.42a6.648 6.648 0 0 0 2.312.079v1.34a.75.75 0 0 0 1.498.008h2.102c.74 0 1.344.602 1.344 1.343v3.707h-7.852a.75.75 0 1 0 0 1.498h8.601a.75.75 0 0 0 .75-.749v-4.456a2.845 2.845 0 0 0-2.843-2.842h-2.101v-.244a6.673 6.673 0 0 0 4.097-4.913zm.124-3.635a1.187 1.187 0 0 1 0 1.998V8.53zM34.65 10.625a1.19 1.19 0 0 1 0-2.192v2.192zm6.652-9.124a5.159 5.159 0 0 1 5.153 5.153v.214c-4.246-.177-6.41-2.294-7.16-3.227a.749.749 0 1 0-1.168.939c.04.049.083.102.13.157-.33.342-1.002.89-2.041 1.09a5.161 5.161 0 0 1 5.086-4.326zm0 14.54a5.159 5.159 0 0 1-5.153-5.154v-3.53a5.376 5.376 0 0 0 3.17-1.568c1.352 1.14 3.647 2.449 7.136 2.58v2.518a5.159 5.159 0 0 1-5.153 5.154z"/>
        <path d="M43.806 11.947a.75.75 0 0 0-1.06.005 2.048 2.048 0 0 1-2.893.014.749.749 0 1 0-1.055 1.064 3.521 3.521 0 0 0 2.494 1.027h.017a3.521 3.521 0 0 0 2.502-1.05.75.75 0 0 0-.005-1.06z"/>
        <path d="M39.12 8.344a.75.75 0 0 0-.75.75v.93a.75.75 0 1 0 1.5 0v-.93a.75.75 0 0 0-.75-.75z"/>
        <path d="M43.332 8.344a.75.75 0 0 0-.749.75v.93a.75.75 0 1 0 1.498 0v-.93a.75.75 0 0 0-.749-.75z"/>
        <path d="M27.525 36.575a.75.75 0 0 0-1.06.005 2.046 2.046 0 0 1-2.893.014.75.75 0 1 0-1.054 1.064 3.521 3.521 0 0 0 2.494 1.027h.017a3.521 3.521 0 0 0 2.501-1.05.75.75 0 0 0-.005-1.06z"/>
        <path d="M31.549 36.793a2.69 2.69 0 0 0 2.17-2.636 2.69 2.69 0 0 0-2.046-2.608v-.266a6.663 6.663 0 0 0-4.349-6.24 3.225 3.225 0 0 0 1.129-2.451 3.235 3.235 0 0 0-3.232-3.232 3.235 3.235 0 0 0-3.232 3.232c0 .926.393 1.762 1.019 2.351-2.687.856-4.638 3.374-4.638 6.34v.228a2.69 2.69 0 0 0-2.23 2.646 2.69 2.69 0 0 0 2.36 2.666 6.675 6.675 0 0 0 3.642 4.688v.44H19.95a2.845 2.845 0 0 0-2.842 2.841v4.456c0 .414.335.75.75.75h13.787a.75.75 0 0 0 .749-.75v-4.456a2.845 2.845 0 0 0-2.842-2.842H27.45v-.244a6.673 6.673 0 0 0 4.098-4.913zm.124-3.635a1.187 1.187 0 0 1 0 1.998v-1.998zM18.37 35.253a1.19 1.19 0 0 1-.732-1.096c0-.493.303-.917.732-1.096v2.192zM25.22 20.86c.956 0 1.733.777 1.733 1.733 0 .956-.777 1.733-1.733 1.733a1.735 1.735 0 0 1-1.733-1.733c0-.956.777-1.733 1.733-1.733zm-.2 5.27a5.159 5.159 0 0 1 5.154 5.154v.213c-4.247-.177-6.41-2.294-7.161-3.227a.749.749 0 1 0-1.168.939c.04.05.084.102.13.157-.33.342-1.002.89-2.04 1.091a5.161 5.161 0 0 1 5.085-4.327zm4.531 17.32c.741 0 1.344.602 1.344 1.343V48.5h-12.29v-3.707c0-.74.604-1.343 1.345-1.343h2.19a.749.749 0 0 0 1.499-.007v-1.42a6.648 6.648 0 0 0 2.313.079v1.34a.75.75 0 0 0 1.498.008h2.101zm-4.53-2.78a5.159 5.159 0 0 1-5.154-5.153v-3.532a5.376 5.376 0 0 0 3.17-1.566c1.352 1.14 3.647 2.448 7.136 2.578v2.52a5.159 5.159 0 0 1-5.153 5.153z"/>
        <path d="M22.84 32.972a.75.75 0 0 0-.75.75v.93a.75.75 0 1 0 1.498 0v-.93a.75.75 0 0 0-.749-.75z"/>
        <path d="M27.052 32.972a.75.75 0 0 0-.75.75v.93a.75.75 0 1 0 1.499 0v-.93a.75.75 0 0 0-.75-.75z"/>
        <path d="M30.015 3.36h-9.843a.75.75 0 1 0 0 1.5h9.843a.75.75 0 1 0 0-1.5z"/>
        <path d="M46.49 29.642a.75.75 0 0 0-.75.75c0 5.604-4.56 10.164-10.165 10.164a.75.75 0 1 0 0 1.498c6.431 0 11.663-5.232 11.663-11.663a.749.749 0 0 0-.749-.749z"/>
        <path d="M14.338 40.556c-5.605 0-10.164-4.56-10.164-10.165a.75.75 0 1 0-1.499 0c0 6.431 5.232 11.663 11.663 11.663a.75.75 0 1 0 0-1.498z"/>
    </g>
</symbol><symbol id="icon-twitter" viewBox="0 0 16 14">
    <title>
        Shape
    </title>
    <path d="M14.432 4.018a9.83 9.83 0 0 0-.01-.45 6.814 6.814 0 0 0 1.655-1.778 6.35 6.35 0 0 1-1.904.52A3.402 3.402 0 0 0 15.631.407c-.641.388-1.35.667-2.104.811a3.297 3.297 0 0 0-2.42-1.141C9.278.047 7.795 1.593 7.795 3.53c0 .275.029.543.086.8C5.124 4.154 2.682 2.72 1.048.557A3.67 3.67 0 0 0 .6 2.33c0 1.227.585 2.318 1.474 2.961a3.172 3.172 0 0 1-1.502-.46v.046c0 1.715 1.143 3.153 2.66 3.488a3.139 3.139 0 0 1-1.497.05c.422 1.406 1.646 2.433 3.096 2.467A6.396 6.396 0 0 1-.076 12.33a8.94 8.94 0 0 0 5.081 1.593c6.095.002 9.427-5.303 9.427-9.905z" fill-rule="nonzero" opacity=".8"/>
</symbol><symbol id="icon-wallet" viewBox="0 0 50 50">
    <title>
        wallet
    </title>
    <g fill-rule="nonzero">
        <path d="M48.346 29.287h-.773v-6.74c0-1.067-.548-2.012-1.385-2.586v-.918c0-1.33-1.118-2.414-2.492-2.414h-.577l2.207-3.136c.74-1.052.458-2.49-.627-3.207L29.726.401a2.426 2.426 0 0 0-1.785-.36 2.373 2.373 0 0 0-1.525.968L13.493 19.38H9.897l.867-8.509a.254.254 0 0 1 .164-.211 5.559 5.559 0 0 0 2.728-2.147.262.262 0 0 1 .244-.111l5.64.54a.73.73 0 0 0 .805-.64.719.719 0 0 0-.66-.778l-5.64-.54a1.74 1.74 0 0 0-1.63.764 4.087 4.087 0 0 1-2.006 1.578A1.674 1.674 0 0 0 9.3 10.731l-.881 8.65H7.48L8.853 5.922c.05-.485.496-.84.996-.792l11.399 1.09a.73.73 0 0 0 .804-.638.719.719 0 0 0-.66-.78L9.994 3.714c-1.307-.125-2.476.803-2.605 2.07L6.283 16.629H4.4c-1.373 0-2.491 1.083-2.491 2.414v.626C.783 20.171 0 21.271 0 22.547v24.286C0 48.58 1.467 50 3.27 50h41.035c1.802 0 3.268-1.42 3.268-3.167v-6.74h.773c.911 0 1.653-.718 1.653-1.6v-7.605c0-.883-.742-1.601-1.653-1.601zm-4.65-11.233c.563 0 1.021.444 1.021.99v.362a3.382 3.382 0 0 0-.412-.026h-3.12l.932-1.326h1.58zM27.632 1.811a.908.908 0 0 1 .755-.386c.18 0 .358.053.51.154l14.974 9.885a.867.867 0 0 1 .24 1.226l-4.707 6.69h-1.13l2.308-3.28a1.622 1.622 0 0 0 .08-1.767 3.877 3.877 0 0 1-.492-2.457c.084-.628-.2-1.24-.744-1.6l-7.762-5.124a1.767 1.767 0 0 0-1.809-.085 4.225 4.225 0 0 1-2.54.454 1.764 1.764 0 0 0-1.669.719l-9.244 13.14h-1.13l12.36-17.569zm.324 12.099c-3.203 0-5.832 2.42-6.046 5.47h-3.728l8.68-12.338a.265.265 0 0 1 .248-.11 5.746 5.746 0 0 0 3.456-.618.267.267 0 0 1 .27.016l7.761 5.124a.249.249 0 0 1 .114.237 5.273 5.273 0 0 0 .67 3.342.246.246 0 0 1-.014.265l-2.872 4.082h-2.493c-.215-3.05-2.843-5.47-6.046-5.47zm4.571 5.47h-9.143c.211-2.264 2.18-4.045 4.572-4.045 2.391 0 4.36 1.78 4.571 4.045zm-29.149-.337c0-.545.458-.989 1.021-.989h1.739l-.135 1.326H3.378v-.337zm-1.906 3.504c0-.96.806-1.742 1.798-1.742h41.035c.991 0 1.798.781 1.798 1.742v1.977H1.472v-1.977zm44.63 24.286c0 .96-.806 1.742-1.797 1.742H3.27c-.992 0-1.798-.781-1.798-1.742v-1.977h3.966a.724.724 0 0 0 .735-.712.724.724 0 0 0-.735-.712H1.472V25.949h44.63v3.338H39.11c-2.203 0-4.112 1.244-5.018 3.045l-.01.018-.02.046a5.273 5.273 0 0 0-.279.69v.001a5.231 5.231 0 0 0-.251 1.603c0 2.98 2.502 5.404 5.578 5.404h6.992v3.338H10.147a.724.724 0 0 0-.736.712c0 .394.33.712.736.712h35.956v1.977zm2.426-8.34a.18.18 0 0 1-.182.176H39.11a4.131 4.131 0 0 1-3.701-2.255 3.861 3.861 0 0 1 .09-3.619 4.131 4.131 0 0 1 3.611-2.084h9.236c.1 0 .182.08.182.177v7.604z"/>
        <path d="M39.282 31.8c-1.645 0-2.984 1.296-2.984 2.89s1.339 2.89 2.984 2.89c1.646 0 2.984-1.296 2.984-2.89s-1.338-2.89-2.984-2.89zm0 4.356c-.834 0-1.513-.658-1.513-1.466 0-.808.68-1.466 1.513-1.466.835 0 1.513.658 1.513 1.466 0 .808-.678 1.466-1.513 1.466z"/>
    </g>
</symbol></svg>