<?xml version="1.0" encoding="UTF-8"?><!DOCTYPE svg PUBLIC "-//W3C//DTD SVG 1.1//EN" "http://www.w3.org/Graphics/SVG/1.1/DTD/svg11.dtd"><svg xmlns="http://www.w3.org/2000/svg"><symbol id="icon-chat" viewBox="0 0 21 19">
    <title>
        chat
    </title>
    <g fill-rule="nonzero">
        <path d="M18.925.182L6.975.158C5.832.158 4.9 1.06 4.9 2.17v1.738l-2.825.006C.931 3.914 0 4.816 0 5.926v7.173c0 1.11.931 2.012 2.075 2.012H4.2v3.393c0 .14.089.266.224.316a.356.356 0 0 0 .385-.088l3.396-3.622 5.82-.023c1.144 0 2.075-.902 2.075-2.012v-.038L17.941 15a.354.354 0 0 0 .385.088.34.34 0 0 0 .224-.317V11.38h.374c1.145 0 2.076-.903 2.076-2.012V2.193c0-1.109-.93-2.011-2.075-2.011zM15.4 13.074c0 .736-.617 1.334-1.377 1.334l-5.974.024a.355.355 0 0 0-.258.11L4.9 17.625v-2.854a.345.345 0 0 0-.35-.34H2.075c-.758 0-1.375-.598-1.375-1.333V5.926c0-.736.617-1.334 1.376-1.334l3.174-.006 8.705-.018h.07c.758 0 1.375.599 1.375 1.334V13.074zm4.9-3.708c0 .735-.617 1.333-1.376 1.333H18.2a.344.344 0 0 0-.35.34v2.854l-1.75-1.866V5.902c0-1.11-.931-2.012-2.076-2.012h-.036L5.6 3.907V2.169c0-.735.617-1.333 1.375-1.333l11.95.024c.758 0 1.375.598 1.375 1.333v7.173z"/>
        <path d="M4.2 8.295c-.772 0-1.4.609-1.4 1.357 0 .749.628 1.357 1.4 1.357.772 0 1.4-.608 1.4-1.357 0-.748-.628-1.357-1.4-1.357zm0 2.036a.69.69 0 0 1-.7-.679.69.69 0 0 1 .7-.678c.386 0 .7.304.7.678a.69.69 0 0 1-.7.679z"/>
        <path d="M8.05 8.295c-.772 0-1.4.609-1.4 1.357 0 .749.628 1.357 1.4 1.357.772 0 1.4-.608 1.4-1.357 0-.748-.628-1.357-1.4-1.357zm0 2.036a.69.69 0 0 1-.7-.679.69.69 0 0 1 .7-.678c.386 0 .7.304.7.678a.69.69 0 0 1-.7.679z"/>
        <path d="M11.9 8.295c-.772 0-1.4.609-1.4 1.357 0 .749.628 1.357 1.4 1.357.772 0 1.4-.608 1.4-1.357 0-.748-.628-1.357-1.4-1.357zm0 2.036a.69.69 0 0 1-.7-.679.69.69 0 0 1 .7-.678c.386 0 .7.304.7.678a.69.69 0 0 1-.7.679z"/>
    </g>
</symbol><symbol id="icon-down" viewBox="0 0 11 6">
    <title>
        Shape
    </title>
    <path d="M10.9.1c-.2-.2-.4-.2-.5 0l-4.9 5L.7.1C.5 0 .3 0 .1.1S0 .5.1.7l5.1 5.2c.1.1.2.1.3.1.1 0 .2 0 .3-.1L10.9.7c.1-.2.1-.4 0-.6z"/>
</symbol><symbol id="icon-logo-waves" viewBox="0 0 37 12">
    <title>
        logo-waves
    </title>
    <path d="M36.8 5c-.4-.2-1.2.9-1.4 1.2-.6.6-1.2 1.2-1.9 1.6C31.9 8.9 30.4 9 28.6 9c-3.8 0-7.7-1.9-11.3-3-3.8-1-7.9-1.3-11.7-.3-1.7.4-3.5 1.3-4.4 2.8-.5.8-1.9 2.6-.7 3.4.4.3.7-1 .9-1.2.4-.8 1.3-1.2 2-1.7 1.2-.9 3.3-1.4 4.8-1.4 2.1 0 4.4-.4 6.4.3 1.6.5 3.3.9 5 1.5 1.9.6 3.7 1.3 5.6 1.7 1.1.2 2.1.4 3.2.4.8 0 1.7-.2 2.5-.1.5-.4 1.5-.4 2-1 .8-.2 1.3-.9 2-1.3s2.3-2.8 2.1-3.7c0-.3-.1-.3-.2-.4z"/>
    <path d="M36.8 0c-.4-.2-1.2.9-1.4 1.2-.6.6-1.2 1.2-1.9 1.6C31.9 3.9 30.4 4 28.6 4c-3.8 0-7.7-1.9-11.3-3C13.5 0 9.4-.3 5.6.7 3.9 1.1 2.1 2 1.2 3.5.7 4.3-.7 6.1.5 6.9c.4.3.7-1 .9-1.2.4-.8 1.3-1.2 2-1.7 1.2-.9 3.3-1.4 4.8-1.4 2.1 0 4.4-.4 6.4.3 1.6.5 3.3.9 5 1.5 1.9.6 3.7 1.3 5.6 1.7 1.1.2 2.1.4 3.2.4.8 0 1.7-.2 2.5-.1.5-.4 1.5-.4 2-1 .8-.2 1.3-.9 2-1.3S37.2 1.3 37 .4c0-.3-.1-.3-.2-.4z"/>
</symbol><symbol id="icon-mail" viewBox="0 0 19 13">
    <title>
        mail
    </title>
    <g fill-rule="nonzero">
        <path d="M14.908 9.897a.302.302 0 0 1-.203-.077L11.29 6.77a.273.273 0 0 1-.013-.399c.112-.115.3-.12.42-.012l3.416 3.05c.12.107.125.286.013.4a.303.303 0 0 1-.217.089z"/>
        <path d="M3.504 9.897a.304.304 0 0 1-.216-.09.273.273 0 0 1 .013-.398l3.417-3.051a.308.308 0 0 1 .42.012.273.273 0 0 1-.013.399L3.707 9.82a.302.302 0 0 1-.203.077z"/>
        <path d="M16.929 12.734H1.484C.666 12.734 0 12.1 0 11.32V1.685C0 .906.666.272 1.484.272H16.93c.818 0 1.484.634 1.484 1.413v9.636c0 .78-.666 1.413-1.484 1.413zM1.484.838c-.49 0-.89.38-.89.847v9.636c0 .467.4.848.89.848H16.93c.491 0 .89-.38.89-.848V1.685c0-.467-.399-.847-.89-.847H1.484z"/>
        <path d="M9.207 7.923c-.395 0-.79-.125-1.09-.374L.493 1.218a.274.274 0 0 1-.03-.399.31.31 0 0 1 .42-.027l7.624 6.33c.38.315 1.02.315 1.4 0L17.52.802a.308.308 0 0 1 .42.027.274.274 0 0 1-.029.4l-7.614 6.32a1.71 1.71 0 0 1-1.09.374z"/>
    </g>
</symbol><symbol id="icon-next" viewBox="0 0 14 25">
    <title>
        Shape
    </title>
    <path d="M2 24.2l11.2-11.1c.2-.2.3-.4.3-.6 0-.2-.1-.4-.3-.6L2 .7C1.7.4 1.1.4.8.7c-.3.3-.3.9 0 1.2l10.6 10.6L.7 23c-.3.3-.3.9 0 1.2.4.4.9.4 1.3 0z"/>
</symbol><symbol id="icon-phone" viewBox="0 0 19 18">
    <title>
        phone
    </title>
    <path d="M18.987 14.815a1.381 1.381 0 0 0-.723-1.023l-4.687-2.557a1.533 1.533 0 0 0-1.771.222l-.924.875a.705.705 0 0 1-.904.048 26.254 26.254 0 0 1-4.045-3.833.616.616 0 0 1 .05-.857l.923-.874a1.339 1.339 0 0 0 .235-1.678L4.44.698a1.463 1.463 0 0 0-1.08-.686 1.507 1.507 0 0 0-1.23.396L.74 1.726c-.971.92-.987 2.602-.044 4.738.906 2.053 2.598 4.314 4.763 6.365 2.165 2.05 4.55 3.653 6.718 4.512 1.11.44 2.103.659 2.942.659.866 0 1.566-.234 2.06-.7l1.39-1.319c.326-.308.478-.733.418-1.166zm-5.718-3.074l4.688 2.556a.802.802 0 0 1 .42.595.77.77 0 0 1-.16.585l-6.23-3.368.254-.24a.89.89 0 0 1 1.028-.128zM3.281.59a.85.85 0 0 1 .627.397l2.7 4.441a.778.778 0 0 1-.137.974l-.232.22L2.664.743A.874.874 0 0 1 3.28.59zm13.462 16.296c-.771.73-2.349.7-4.328-.084-2.096-.83-4.411-2.388-6.521-4.387-2.11-1.998-3.754-4.192-4.63-6.177-.828-1.875-.86-3.37-.089-4.1l1.033-.98 3.58 5.892-.24.227a1.176 1.176 0 0 0-.095 1.634 26.882 26.882 0 0 0 4.14 3.922 1.345 1.345 0 0 0 1.725-.09l.219-.207 6.238 3.372-1.032.978z" fill-rule="nonzero"/>
</symbol><symbol id="icon-picture" viewBox="0 0 20 20">
    <title>
        picture
    </title>
    <g fill-rule="nonzero">
        <path d="M0 17.891C0 19.056.948 20 2.109 20H17.89A2.111 2.111 0 0 0 20 17.891V2.11A2.111 2.111 0 0 0 17.891 0H2.11A2.111 2.111 0 0 0 0 2.109V17.89zM17.891 19H2.11A1.111 1.111 0 0 1 1 17.89v-2.636l3.793-3.792 3.24 3.24c.196.197.511.197.707 0l5.852-5.851L19 13.257v4.634c0 .61-.499 1.108-1.108 1.108zM2.11 1H17.89c.61 0 1.108.499 1.108 1.108v9.73l-4.054-4.05a.498.498 0 0 0-.707 0l-5.852 5.852-3.24-3.24a.498.498 0 0 0-.708 0l-3.437 3.436V2.11C1.001 1.499 1.5 1 2.11 1z"/>
        <path d="M6.2 8c1.436 0 2.6-1.169 2.6-2.6S7.631 2.8 6.2 2.8a2.606 2.606 0 0 0-2.6 2.6C3.6 6.831 4.764 8 6.2 8zm0-4.178c.872 0 1.578.71 1.578 1.578 0 .868-.71 1.578-1.578 1.578-.868 0-1.578-.71-1.578-1.578 0-.868.706-1.578 1.578-1.578z"/>
    </g>
</symbol><symbol id="icon-prev" viewBox="0 0 14 25">
    <title>
        Shape
    </title>
    <path d="M13.2 24.3c.3-.3.3-.9 0-1.2L2.6 12.5 13.2 1.9c.3-.3.3-.9 0-1.2s-.9-.3-1.2 0L.7 11.8c-.2.2-.3.4-.3.6 0 .2.1.4.3.6L12 24.2c.4.4.9.4 1.2.1z"/>
</symbol><symbol id="icon-star" viewBox="0 0 15 15">
    <title>
        Star
    </title>
    <path d="M7.5 12.4L2.9 15l.9-5.4L0 5.7l5.2-.8L7.5 0l2.3 4.9 5.2.8-3.8 3.9.9 5.4z"/>
</symbol></svg>