<?xml version="1.0" encoding="UTF-8"?><!DOCTYPE svg PUBLIC "-//W3C//DTD SVG 1.1//EN" "http://www.w3.org/Graphics/SVG/1.1/DTD/svg11.dtd"><svg xmlns="http://www.w3.org/2000/svg"><symbol id="icon-adults" viewBox="0 0 21 23">
    <title>
        adults
    </title>
    <g>
        <ellipse cx="5.9" cy="14.2" rx="1" ry="1"/>
        <ellipse cx="15.1" cy="14.2" rx="1" ry="1"/>
        <path d="M5.9 11.6c-.5 0-.9.2-1.2.5-.2.2-.2.4 0 .6s.5.2.6 0c.2-.1.4-.2.6-.2s.4.1.6.2c.1.1.2.1.3.1.1 0 .2 0 .3-.1.2-.2.2-.4 0-.6-.3-.4-.7-.5-1.2-.5z"/>
        <path d="M13.9 12.1c-.2.2-.2.4 0 .6.2.2.5.2.6 0 .3-.3.8-.3 1.1 0 .1.1.2.1.3.1s.2 0 .3-.1c.2-.2.2-.4 0-.6-.6-.7-1.6-.7-2.3 0z"/>
        <path d="M11.4 17.6c-.2.2-.5.3-.9.3-.3 0-.6-.1-.9-.3-.2-.2-.5-.2-.6 0-.2.2-.2.4 0 .6.4.4.9.6 1.5.6s1.1-.2 1.5-.6c.2-.2.2-.4 0-.6-.2-.2-.5-.2-.6 0z"/>
        <path d="M21 13.8c0-1.2-.9-2.2-2-2.4V4.2c0-.9-.5-1.8-1.3-2.3-.8-.5-1.7-.6-2.5-.3L12.4.7C10.2-.1 8-.2 5.8.4 3 1.1 1.5 2.7 1.2 5c-.2.2-.4.6-.5.9l-.2.6c-.1.3 0 .7.3.9.3.2.7.2.9-.1.1-.1.2-.2.3-.2v4.3c-1.1.2-2 1.2-2 2.4s1 2.2 2.2 2.3c.3 1.6 1.1 3.2 2.3 4.4 1.6 1.6 3.7 2.5 6 2.5s4.4-.9 6-2.4c1.2-1.2 2.1-2.7 2.4-4.4C20.1 16 21 15 21 13.8zM17.2 2.5c.6.4.9 1 .9 1.6v5.7c-1.4-.2-2.4-1.4-2.4-2.8V2.2c.5-.1 1 0 1.5.3zM1.5 6.4l.1-.2c.2-.7.7-1.2 1.3-1.5.6-.3 1.4-.3 2 0 1.3.6 3 .3 4-.8l.1-.1c.2-.2.1-.5 0-.6-.2-.2-.5-.1-.6 0l-.2.2c-.7.8-1.9 1-2.9.6-.9-.4-1.9-.4-2.8 0h-.2C2.8 2.7 4.1 1.7 6 1.2c2-.5 4-.5 6 .2l2.6.9v2.2c-1.2 1.6-2.9 2.6-4.9 3-2 .4-4.1 0-5.8-1.1-.6-.5-1.6-.5-2.4 0zm-.6 7.4c0-.7.5-1.3 1.1-1.5v2.9c-.6-.1-1.1-.7-1.1-1.4zm15 6.1c-1.4 1.4-3.3 2.2-5.4 2.2-2 0-3.9-.8-5.4-2.2-1.4-1.4-2.2-3.3-2.2-5.3V6.9c.3 0 .5.1.7.2C5.5 8.3 7.8 8.7 10 8.3c1.8-.3 3.4-1.2 4.7-2.5V7c0 1.9 1.5 3.4 3.3 3.6v4c.1 2.1-.7 3.9-2.1 5.3zm3.1-4.7v-2.9c.7.2 1.1.8 1.1 1.5s-.5 1.3-1.1 1.4z"/>
    </g>
</symbol><symbol id="icon-aim" viewBox="0 0 16 16">
    <title>
        aim
    </title>
    <g fill-rule="nonzero">
        <path d="M15.681 7.67h-.913a6.78 6.78 0 0 0-6.445-6.45V.32a.319.319 0 1 0-.637 0v.902A6.78 6.78 0 0 0 1.241 7.67H.32a.319.319 0 1 0 0 .637h.923a6.78 6.78 0 0 0 6.444 6.44v.934a.319.319 0 1 0 .637 0v-.934a6.78 6.78 0 0 0 6.445-6.44h.913a.319.319 0 1 0 0-.637zM7.686 1.859v.981a5.161 5.161 0 0 0-4.825 4.83h-.982a6.142 6.142 0 0 1 5.807-5.811zm0 12.25A6.142 6.142 0 0 1 1.88 8.307h.981a5.161 5.161 0 0 0 4.825 4.82v.982zm.319-3.598a.319.319 0 0 0-.319.319v1.659A4.523 4.523 0 0 1 3.5 8.307h1.67a.319.319 0 1 0 0-.637H3.5a4.523 4.523 0 0 1 4.186-4.191V5.17a.319.319 0 1 0 .637 0V3.48a4.522 4.522 0 0 1 4.198 4.505 4.522 4.522 0 0 1-4.198 4.505V10.83a.319.319 0 0 0-.318-.319zm.318 3.598v-.981a5.161 5.161 0 0 0 4.825-4.82h.982a6.142 6.142 0 0 1-5.807 5.801zm4.826-6.44A5.161 5.161 0 0 0 8.323 2.84V1.86a6.142 6.142 0 0 1 5.807 5.81h-.981z"/>
        <path d="M11.115 8.307h1.221c.334 0 .604-.142.604-.318 0-.176-.27-.32-.604-.32h-1.22c-.334 0-.605.144-.605.32 0 .176.27.318.604.318z"/>
    </g>
</symbol><symbol id="icon-airplane" viewBox="0 0 22 22">
    <title>
        airplane
    </title>
    <path d="M21.509 10.697l-7.722-2.69.097-5.131C13.964 1.602 12.818 0 11 0 8.995 0 8.083 1.724 8.12 2.876l.097 5.131-7.726 2.69a.716.716 0 0 0-.487.675v2.187c-.031.217.19.789.863.706l7.443-1.295.088 4.6-2.894.81V22L11 20.463 16.5 22v-3.616l-2.893-.81.088-4.6 7.443 1.296c.69.082.863-.494.863-.706v-2.187a.732.732 0 0 0-.491-.68zM.737 13.564v-2.187L8.23 8.77l.066 3.482-7.558 1.312zm15.028 5.361v2.122l-4.766-1.33-4.766 1.33v-2.122l2.903-.814L8.85 2.858c-.005-.736.46-2.143 2.146-2.143 1.584 0 2.226 1.433 2.146 2.143l-.288 15.249 2.912.818zm5.5-5.361l-7.558-1.317.067-3.482 7.491 2.607v2.192z" fill-rule="nonzero"/>
</symbol><symbol id="icon-alarm-clock" viewBox="0 0 34 34">
    <title>
        alarm-clock
    </title>
    <g>
        <path d="M23.1 16.8H19c-.2-.8-.8-1.4-1.6-1.6V9.3c0-.3-.3-.6-.6-.6s-.6.3-.6.6v5.8c-1 .3-1.7 1.2-1.7 2.2 0 1.3 1 2.3 2.3 2.3 1.1 0 2-.7 2.2-1.7h4.1c.3 0 .6-.3.6-.6s-.3-.5-.6-.5zm-6.3 1.7c-.6 0-1.2-.5-1.2-1.2 0-.6.5-1.2 1.2-1.2s1.2.5 1.2 1.2c-.1.7-.6 1.2-1.2 1.2z"/>
        <path d="M28.9 5.6L31.3 8c.1.1.3.2.4.2s.3-.1.4-.2c1.8-1.8 1.8-4.8 0-6.6s-4.8-1.8-6.6 0c-.1.1-.2.3-.2.4s.1.3.2.4l2.6 2.6-1 1c-2.8-2.5-6.4-4-10.4-4s-7.6 1.5-10.4 4l-1-1L8 2.2c.1-.1.2-.3.2-.4s-.1-.3-.2-.4C6.2-.4 3.2-.4 1.4 1.4S-.4 6.2 1.4 8c.1.1.3.2.4.2s.3-.1.4-.2l2.4-2.4 1 1c-2.7 2.8-4.4 6.6-4.4 10.8 0 5.7 3.1 10.7 7.7 13.4l-1.7 1.7c-.2.2-.2.6 0 .8.1.1.3.2.4.2.1 0 .3-.1.4-.2l2-2c2.1 1 4.4 1.6 6.8 1.6s4.8-.6 6.8-1.6l2 2c.1.1.3.2.4.2s.3-.1.4-.2c.2-.2.2-.6 0-.8l-1.7-1.7c4.6-2.7 7.7-7.7 7.7-13.4 0-4.2-1.7-8-4.4-10.8l.9-1zm2.4-3.4c1.2 1.2 1.4 3.2.4 4.5l-4.9-4.9c1.3-1 3.2-.9 4.5.4zM1.9 6.7c-1-1.3-.9-3.3.3-4.5S5.4.8 6.7 1.8L1.9 6.7zm14.9 25.1c-7.9 0-14.4-6.5-14.4-14.4S8.8 3 16.8 3s14.4 6.5 14.4 14.4-6.5 14.4-14.4 14.4z"/>
        <path d="M16.8 5.8c.3 0 .6-.3.6-.6v-.6c0-.3-.3-.6-.6-.6s-.6.3-.6.6v.6c0 .3.2.6.6.6z"/>
        <path d="M16.8 28.8c-.3 0-.6.3-.6.6v.6c0 .3.3.6.6.6s.6-.3.6-.6v-.6c-.1-.3-.3-.6-.6-.6z"/>
        <path d="M28.9 17.9h.6c.3 0 .6-.3.6-.6s-.3-.6-.6-.6h-.6c-.3 0-.6.3-.6.6s.2.6.6.6z"/>
        <path d="M4.7 16.7h-.6c-.3 0-.6.3-.6.6s.3.6.6.6h.6c.3 0 .6-.3.6-.6s-.3-.6-.6-.6z"/>
        <path d="M25.3 7.9l-.4.4c-.2.2-.2.6 0 .8.1.1.3.2.4.2s.3-.1.4-.2l.4-.4c.2-.2.2-.6 0-.8-.2-.2-.6-.2-.8 0z"/>
        <path d="M7.8 25.5l-.4.4c-.2.2-.2.6 0 .8.1.1.3.2.4.2s.3-.1.4-.2l.4-.4c.2-.2.2-.6 0-.8-.2-.3-.6-.3-.8 0z"/>
        <path d="M25.7 25.5c-.2-.2-.6-.2-.8 0-.2.2-.2.6 0 .8l.4.4c.1.1.3.2.4.2.1 0 .3-.1.4-.2.2-.2.2-.6 0-.8l-.4-.4z"/>
        <path d="M8.2 7.9c-.2-.2-.6-.2-.8 0-.2.2-.2.6 0 .8l.4.4c.1.1.3.2.4.2.1 0 .3-.1.4-.2.2-.2.2-.6 0-.8l-.4-.4z"/>
    </g>
</symbol><symbol id="icon-armchair" viewBox="0 0 25 20">
    <title>
        armchair
    </title>
    <g fill-rule="nonzero">
        <path d="M18.327 15.52H6.673c-.209 0-.378-.154-.378-.344V9.574c0-1.565-1.4-2.837-3.118-2.837-1.335 0-2.42.986-2.42 2.2 0 .935.835 1.693 1.86 1.693.778 0 1.411-.576 1.411-1.284 0-.53-.473-.96-1.054-.96-.209 0-.379-.154-.379-.345 0-.19.17-.344.38-.344.998 0 1.81.739 1.81 1.649 0 1.088-.972 1.974-2.168 1.974C1.174 11.32 0 10.251 0 8.938c0-1.595 1.425-2.891 3.176-2.891 2.137 0 3.876 1.583 3.876 3.527v5.257h10.896V9.574c0-1.944 1.74-3.527 3.875-3.527 1.752 0 3.176 1.297 3.176 2.89 0 1.314-1.174 2.383-2.616 2.383-1.196 0-2.169-.886-2.169-1.974 0-.91.813-1.65 1.811-1.65.21 0 .379.155.379.345 0 .19-.17.345-.379.345-.581 0-1.053.43-1.053.96 0 .708.633 1.284 1.41 1.284 1.026 0 1.86-.759 1.86-1.692 0-1.215-1.085-2.201-2.419-2.201-1.72 0-3.117 1.273-3.117 2.837v5.602c0 .19-.169.345-.379.345z"/>
        <path d="M21.281 18.83H3.801c-.862 0-1.562-.638-1.562-1.422v-6.432c0-.19.17-.345.378-.345.21 0 .38.155.38.345v6.432c0 .404.361.733.805.733h17.48c.443 0 .804-.33.804-.733v-6.432c0-.19.17-.345.38-.345.208 0 .378.155.378.345v6.432c0 .784-.7 1.422-1.563 1.422z"/>
        <path d="M18.327 12.6H6.673c-.209 0-.378-.154-.378-.344 0-.19.17-.345.378-.345h11.655c.21 0 .379.155.379.345 0 .19-.17.345-.38.345z"/>
        <path d="M6.673 19.95c-.209 0-.378-.155-.378-.345v-.846c0-.19.17-.345.378-.345.21 0 .38.154.38.345v.846c0 .19-.17.345-.38.345z"/>
        <path d="M18.327 19.95c-.209 0-.379-.155-.379-.345v-.846c0-.19.17-.345.38-.345.208 0 .378.154.378.345v.846c0 .19-.169.345-.379.345z"/>
        <path d="M20.881 6.737c-.209 0-.379-.155-.379-.345V4.144c0-1.877-1.677-3.404-3.74-3.404H8.319c-2.062 0-3.74 1.527-3.74 3.404v2.248c0 .19-.169.345-.378.345-.21 0-.379-.155-.379-.345V4.144C3.821 1.888 5.84.05 8.318.05h8.445c2.479 0 4.497 1.837 4.497 4.094v2.248c0 .19-.17.345-.379.345z"/>
    </g>
</symbol><symbol id="icon-bar" viewBox="0 0 38 38">
    <title>
        bar
    </title>
    <g>
        <path d="M11.3 30.7c.4 0 .7-.3.7-.6v-1.2c0-1-.9-1.8-2-1.8H6c-1.1 0-2 .8-2 1.8v1.2c0 .3.3.6.7.6H6v4l-1.7 1c-.2.1-.3.3-.3.5v1.2c0 .3.3.6.7.6h6.7c.4 0 .7-.3.7-.6v-1.2c0-.2-.1-.4-.3-.5l-1.7-1v-4h1.2zm-.6 5.8v.3H5.3v-.3l1.7-1c.2-.1.3-.3.3-.5v-4.3h1.3V35c0 .2.1.4.3.5l1.8 1zm-1.4-7.1h-4v-.6c0-.3.3-.6.7-.6h4c.4 0 .7.3.7.6v.6H9.3z"/>
        <path d="M22.3 30.7c.4 0 .7-.3.7-.6v-1.2c0-1-.9-1.8-2-1.8h-4c-1.1 0-2 .8-2 1.8v1.2c0 .3.3.6.7.6H17v4l-1.7 1c-.2.1-.3.3-.3.5v1.2c0 .3.3.6.7.6h6.7c.4 0 .7-.3.7-.6v-1.2c0-.2-.1-.4-.3-.5l-1.7-1v-4h1.2zm-.6 5.8v.3h-5.3v-.3l1.7-1c.2-.1.3-.3.3-.5v-4.3h1.3V35c0 .2.1.4.3.5l1.7 1zm-1.4-7.1h-4v-.6c0-.3.3-.6.7-.6h4c.4 0 .7.3.7.6v.6h-1.4z"/>
        <path d="M33.3 30.7c.4 0 .7-.3.7-.6v-1.2c0-1-.9-1.8-2-1.8h-4c-1.1 0-2 .8-2 1.8v1.2c0 .3.3.6.7.6H28v4l-1.7 1c-.2.1-.3.3-.3.5v1.2c0 .3.3.6.7.6h6.7c.4 0 .7-.3.7-.6v-1.2c0-.2-.1-.4-.3-.5l-1.7-1v-4h1.2zm-.6 5.8v.3h-5.3v-.3l1.7-1c.2-.1.3-.3.3-.5v-4.3h1.3V35c0 .2.1.4.3.5l1.7 1zm-1.4-7.1h-4v-.6c0-.3.3-.6.7-.6h4c.4 0 .7.3.7.6v.6h-1.4z"/>
        <path d="M0 23v1.2h1.9V38h1.3V24.2h31.6V38h1.3V24.2H38V23z"/>
        <path d="M37.4 10H.6c-.3 0-.6.3-.6.6v9.8c0 .3.3.6.6.6h36.8c.3 0 .6-.3.6-.6v-9.8c0-.3-.3-.6-.6-.6zm-33 7.3c-.3 0-.6-.3-.6-.6v-.6h1.3v.6c0 .4-.3.6-.7.6zm5.1 0c-.3 0-.6-.3-.6-.6v-.6h1.3v.6c-.1.4-.4.6-.7.6zm6.3 2.5h-1.3v-2.4h1.3v2.4zm10.2 0h-3.8v-1.6l1.2-1.7c.1-.1.1-.2.1-.3h1.3c0 .1 0 .2.1.3l1.2 1.7v1.6zm-2.6-4.9v-1.2h1.3v1.2h-1.3zm10.8 4.9h-3.8v-1.6l1.2-1.7c.1-.1.1-.2.1-.3H33c0 .1 0 .2.1.3l1.2 1.7v1.6zm-2.5-4.9v-1.2H33v1.2h-1.3zm5 4.9h-1.3V18c0-.1 0-.2-.1-.3L34.1 16v-2.9c0-.3-.3-.6-.6-.6H31c-.3 0-.6.3-.6.6V16l-1.2 1.7c-.1.1-.1.2-.1.3v1.8h-1.9V18c0-.1 0-.2-.1-.3L26 15.9V13c0-.3-.3-.6-.6-.6h-2.5c-.3 0-.6.3-.6.6v2.9L21 17.6c-.1.1-.1.2-.1.3v1.8h-3.8v-3.1c0-.3-.3-.6-.6-.6H14c-.3 0-.6.3-.6.6v3.1h-3.2v-1.3c.7-.3 1.3-.9 1.3-1.7v-1.2c0-.3-.3-.6-.6-.6H8.2c-.3 0-.6.3-.6.6v1.2c0 .8.5 1.5 1.3 1.7v1.3H5.1v-1.3c.7-.3 1.3-.9 1.3-1.7v-1.2c0-.3-.3-.6-.6-.6H3.2c-.3 0-.6.3-.6.6v1.2c0 .8.5 1.5 1.3 1.7v1.3H1.3v-8.6h35.5v8.7z"/>
        <path d="M9.8 5.3L6.1 1.7V0H4.9v1.7L1.2 5.3c-.2.2-.3.5-.2.7s.3.4.6.4h1.9V7c.1 1.1.9 2 2 2s1.9-.9 1.9-1.9v-.7h1.9c.3 0 .6-.1.7-.4.1-.2 0-.5-.2-.7zM6.1 7.1c0 .4-.3.6-.6.6s-.6-.3-.6-.6v-.7h1.3v.7zm.7-2H3.2l2.3-2.3 2.3 2.3h-1z"/>
        <path d="M36.8 5.3l-3.7-3.7V0h-1.3v1.7l-3.7 3.7c-.1.1-.2.4-.1.6s.3.4.6.4h1.9V7c0 1.1.9 1.9 1.9 1.9 1.1 0 1.9-.9 1.9-1.9v-.6h1.9c.3 0 .5-.2.6-.4s.2-.5 0-.7zm-3.7 1.8c0 .4-.3.6-.6.6s-.6-.3-.6-.6v-.7h1.3v.7zm.7-2h-3.6l2.3-2.3 2.3 2.3h-1z"/>
        <path d="M23.8 5.3l-3.7-3.7V0h-1.3v1.7l-3.7 3.7c-.1.1-.2.4-.1.6.1.2.3.4.6.4h1.9V7c0 1.1.9 1.9 1.9 1.9S21.3 8 21.3 7v-.6h1.9c.3 0 .5-.2.6-.4s.2-.5 0-.7zm-3.7 1.8c0 .4-.3.6-.6.6s-.6-.3-.6-.6v-.7h1.3v.7zm.7-2h-3.6l2.3-2.3 2.3 2.3h-1z"/>
    </g>
</symbol><symbol id="icon-bed" viewBox="0 0 24 15">
    <title>
        bed
    </title>
    <path d="M22.3 6.7v-3c0-2.1-1.7-3.8-3.7-3.8H5.4C3.3 0 1.7 1.7 1.7 3.8v3c-1 .1-1.7.9-1.7 2v2.5c0 .2.2.4.4.4h.4V15h.8v-2.1h20.7V15h.8v-3.3h.4c.2 0 .4-.2.4-.4V8.8c.1-1.1-.6-1.9-1.6-2.1zM2.5 3.8C2.5 2.2 3.8.9 5.4.9h13.2c1.6 0 2.9 1.3 2.9 2.9v2.9h-2.1V4.2c0-.2-.1-.3-.3-.4-.1 0-2.2-.9-3.3-.9s-3.2.8-3.3.9c-.2.1-.3.2-.3.4v2.5h-.8V4.2c0-.2-.1-.3-.3-.4-.1 0-2.2-.9-3.3-.9s-2.9.8-3 .9c-.1 0-.2.2-.2.4v2.5H2.5V3.8zm16.1 2.9h-5.4V4.5c.7-.3 2-.7 2.7-.7.7 0 2 .4 2.7.7v2.2zm-7.8 0H5.4V4.5c.7-.3 2-.7 2.7-.7.7 0 2 .4 2.7.7v2.2zm11.5 5.4H1.7v-.4h20.7v.4zm.9-1.3H.8v-2c0-.7.6-1.3 1.2-1.3h19.9c.7 0 1.2.6 1.2 1.3v2z"/>
</symbol><symbol id="icon-bedside-table" viewBox="0 0 20 28">
    <title>
        bedside-table
    </title>
    <g fill-rule="nonzero">
        <path d="M19.355 18.906H.645c-.221 0-.4-.19-.4-.424v-5.73c0-.966.74-1.75 1.65-1.75h16.208c.911 0 1.651.785 1.651 1.75v5.73a.411.411 0 0 1-.399.424zm-18.31-.849h17.91v-5.304c0-.498-.382-.903-.851-.903H1.896c-.469 0-.85.406-.85.903v5.304h-.001z"/>
        <path d="M18.103 25.869H1.896c-.91 0-1.65-.786-1.65-1.752v-5.729c0-.234.179-.424.4-.424h18.71c.22 0 .4.19.4.424v5.73c0 .966-.742 1.75-1.653 1.75zM1.045 18.813v5.304c0 .498.382.903.85.903h16.208c.47 0 .851-.405.851-.903v-5.304H1.044z"/>
        <path d="M3.224 28a.378.378 0 0 1-.153-.032.434.434 0 0 1-.217-.554l.832-2.132c.085-.216.319-.321.523-.23.204.09.3.338.217.554l-.832 2.132a.4.4 0 0 1-.37.262z"/>
        <path d="M16.775 28a.4.4 0 0 1-.37-.262l-.83-2.132a.434.434 0 0 1 .216-.554.392.392 0 0 1 .523.23l.83 2.132a.434.434 0 0 1-.216.554.375.375 0 0 1-.153.032z"/>
        <path d="M10.935 14.496H9.064c-.22 0-.4-.19-.4-.424 0-.234.18-.424.4-.424h1.871c.221 0 .4.19.4.424 0 .234-.178.424-.4.424z"/>
        <path d="M10.935 21.459H9.064c-.22 0-.4-.19-.4-.424 0-.234.18-.424.4-.424h1.871c.221 0 .4.19.4.424 0 .234-.178.424-.4.424z"/>
        <path d="M10.6 11.85H5.28c-.22 0-.4-.19-.4-.424v-1.72c0-.234.18-.424.4-.424h5.32c.22 0 .4.19.4.425v1.718c0 .235-.18.425-.4.425zM5.68 11h4.52v-.87H5.68V11z"/>
        <path d="M11.454 5.399h-7.03a.394.394 0 0 1-.322-.174.447.447 0 0 1-.058-.38L5.417.296A.402.402 0 0 1 5.797 0h4.284c.174 0 .328.12.381.295l1.373 4.55a.45.45 0 0 1-.057.38.397.397 0 0 1-.324.174zM4.972 4.55h5.934L9.789.848h-3.7L4.973 4.55z"/>
        <path d="M7.94 10.13c-.222 0-.4-.19-.4-.423V4.975c0-.235.178-.425.4-.425.22 0 .4.19.4.425v4.732a.412.412 0 0 1-.4.424z"/>
        <path d="M10 6.855c-.22 0-.4-.19-.4-.424V4.975c0-.235.18-.425.4-.425.22 0 .4.19.4.425V6.43c0 .234-.18.424-.4.424z"/>
    </g>
</symbol><symbol id="icon-bell-boy" viewBox="0 0 20 26">
    <title>
        bell-boy
    </title>
    <g>
        <path d="M8.1 12.5c-.3 0-.5.2-.5.5s.2.5.5.5.5-.2.5-.5-.2-.5-.5-.5z"/>
        <path d="M11.9 12.5c-.3 0-.5.2-.5.5s.2.5.5.5.5-.2.5-.5-.2-.5-.5-.5z"/>
        <path d="M20 25.4l-.1-.8c-.2-1.2-.4-1.8-.9-2.3-.5-.5-1.1-.7-2.3-1.1L13.3 20v-1.3c1.3-.8 2.3-2.2 2.7-3.7 1.1-.2 1.9-1.1 1.9-2.2 0-1-.7-1.9-1.7-2.1v-.1c0-1-.3-2.1-.8-3v-7c0-.3-.2-.5-.5-.5H5.2c-.3-.1-.6.1-.6.4v7c-.5.9-.8 1.9-.8 3v.1c-1 .2-1.7 1.1-1.7 2.1 0 1.1.8 2 1.9 2.2.4 1.6 1.4 2.9 2.7 3.7v1.3l-3.4 1.2c-1.1.4-1.8.7-2.3 1.1-.5.5-.6 1.1-.9 2.3 0 0 0 .3-.1.9 0 .1 0 .3.1.4.1.1.3.2.4.2h19c.1 0 .3-.1.4-.2.1-.1.1-.2.1-.4zM16.2 13v-1.9c.4.2.7.6.7 1.1 0 .5-.3.9-.7 1.1-.1-.1 0-.2 0-.3zm-13-.8c0-.5.3-.9.7-1.1V13.3c-.5-.2-.7-.6-.7-1.1zm11.9-2.3c-3.7-.4-5.1-1.7-5.6-2.5h5c.4.8.6 1.6.6 2.5zM5.7 3.1v-.3-.2V1.5h8.7v2.2H5.7v-.6zm0 1.7h8.7v1.6H7.8 5.6V4.8zm-.2 2.6h1.7c-.6 1.7-1.7 2.2-2.3 2.4 0-.8.2-1.6.6-2.4zm-.6 6.5c0-.3-.1-.6-.1-.9v-2.1c.3-.1.8-.2 1.2-.5.7-.4 1.7-1.3 2.1-3h.2c.3 1.2 1.9 3.1 6.7 3.5V13c0 .3 0 .6-.1.9-.3 1.6-1.2 2.9-2.5 3.7 0 0-.1 0-.1.1-.7.4-1.6.7-2.5.7-.9 0-1.8-.2-2.5-.7 0 0-.1 0-.1-.1-1.1-.8-2-2.1-2.3-3.7zm-3.8 11v-.3c.4-2 .4-2 2.5-2.7l3.5-1.3c.3.2.8.5 1.6.7.2.1.5.1.8.1v3.4H1.1zm8.9-4.4c-1.1 0-1.9-.4-2.3-.7v-.9c.7.3 1.5.5 2.3.5.8 0 1.6-.2 2.3-.5v.9c-.9.5-1.6.7-2.3.7zm7.3 4.4h.4.1.1c-.8 0-.2.1-.6 0h-.8.5-6.5v-3.5c.7-.1 1.5-.3 2.3-.8l3.5 1.3c2.1.8 2.1.8 2.5 2.7v.3h-.4c-.1 0-.1 0 0 0h-1.1z"/>
    </g>
</symbol><symbol id="icon-breakfast" viewBox="0 0 34 34">
    <title>
        breakfast
    </title>
    <g>
        <path d="M33.7 4.8c-.2-.1-.4-.1-.6.1l-1 .7c-.6.5-1.2 1.1-1.7 1.7-3-4.6-8-7.3-13.4-7.3-4.2 0-8.3 1.7-11.3 4.7H4.5V10H3.4V4.7H2.3V10H1.1V4.7H0V11.8c0 .8.5 1.4 1.1 1.6l-.9 13c-.1.9.3 2 .9 2.7.5.5 1 .8 1.6.8h.1c.6 0 1.2-.3 1.7-.8.1-.2.3-.3.4-.5C8 32 12.4 34 17 34c4.7 0 9.2-2.1 12.3-5.8.1.3.2.6.4.8.5.5 1.1.8 1.8.8 1.3 0 2.4-1.1 2.4-2.5v-22c.1-.2 0-.4-.2-.5zM4.3 26.9c0 .1 0 .2-.1.2-.1.4-.3.8-.6 1.2-.2.2-.5.4-.8.5h-.1c-.4 0-.7-.3-.9-.5-.4-.5-.7-1.2-.6-1.8l.9-12.9h1.2l.9 13c.2 0 .1.1.1.3zm.2-15.2c0 .3-.3.6-.6.6H1.7c-.3 0-.6-.3-.6-.6v-.6h3.4v.6zm25.2 9.8l-.5 5c-2.9 4-7.4 6.3-12.2 6.3-4.5 0-8.7-2-11.6-5.5 0-.2.1-.3.1-.5v-.1-.4l-.9-13h.1c.1 0 .1-.1.2-.1 0 0 .1 0 .1-.1.1 0 .1-.1.2-.2h.1c.1-.1.1-.2.2-.2v-.1c0-.1.1-.1.1-.2v-.1c0-.1 0-.1.1-.2V12 6.4c2.9-3.3 7-5.2 11.3-5.2 5.2 0 10 2.7 12.8 7.2l-.3.6c-.7 1.3-1.1 2.8-1.1 4.4v1.5c0 .8.3 1.5.8 2.1l.8.9-.3 3.6zm3.2 5.9c0 .7-.6 1.3-1.3 1.3-.4 0-.7-.2-1-.5-.2-.3-.4-.7-.3-1.1v-.4l.6-6.9.2-1.7h1.8v9.3zm0-10.4h-2l-.9-.9c-.3-.3-.5-.8-.5-1.2v-1.5c0-1.3.3-2.6 1-3.8l.4-.7.1-.3c.5-.8 1.1-1.6 1.9-2.1V17z"/>
        <path d="M25.7 7.9c-.3-.3-.6-.7-.7-1-.2-.3-.3-.8-.5-1.2-.3-.9-.6-1.9-1.5-2.4-.8-.5-1.8-.3-2.7-.1-.5.1-.9.2-1.3.2s-.8-.1-1.3-.2c-.9-.2-1.9-.4-2.7.1-.9.5-1.2 1.5-1.5 2.4-.1.4-.3.9-.5 1.2-.2.3-.5.6-.7 1-.6.7-1.3 1.5-1.3 2.6s.7 1.9 1.3 2.6c.3.3.6.7.7 1 .2.3.3.8.5 1.2.3.9.6 1.9 1.5 2.4.8.5 1.8.3 2.7.1.5-.1.9-.2 1.3-.2s.8.1 1.3.2 1 .2 1.5.2c.4 0 .8-.1 1.2-.3.9-.5 1.2-1.5 1.5-2.4.1-.4.3-.9.5-1.2.2-.3.5-.6.7-1 .6-.7 1.3-1.5 1.3-2.6s-.7-1.9-1.3-2.6zm-.9 4.4c-.3.4-.7.8-.9 1.2-.2.4-.4.9-.6 1.4-.2.8-.5 1.5-1 1.8-.5.3-1.2.1-1.9 0-.5-.1-1-.2-1.5-.2s-1 .1-1.5.2c-.7.2-1.5.3-1.9 0-.5-.3-.7-1-1-1.8-.2-.5-.3-1-.6-1.4-.2-.4-.6-.8-.9-1.2-.5-.6-1-1.2-1-1.8s.5-1.2 1-1.8c.5-.4.8-.7 1-1.2.2-.4.4-.9.6-1.4.2-.8.5-1.5 1-1.8.2-.1.4-.2.7-.2.4 0 .8.1 1.2.2.5.1 1 .2 1.5.2s1-.1 1.5-.2c.7-.2 1.5-.3 1.9 0 .5.3.7 1 1 1.8.2.5.3 1 .6 1.4.2.4.6.8.9 1.2.5.6 1 1.2 1 1.8s-.5 1.2-1.1 1.8z"/>
        <path d="M19.5 7C17.6 7 16 8.6 16 10.5s1.6 3.5 3.5 3.5 3.5-1.6 3.5-3.5S21.4 7 19.5 7zm0 5.8c-1.3 0-2.3-1-2.3-2.3s1-2.3 2.3-2.3 2.3 1 2.3 2.3-1 2.3-2.3 2.3z"/>
        <path d="M21.4 19h-9.9c-.2 0-.4.1-.5.4-.1.2 0 .5.1.6l.2.2H6.6c-.2 0-.4.1-.5.4-.1.1-.1.4.1.5l9.9 9.7c.1.1.2.2.4.2h.2c.2-.1.3-.3.3-.5v-4.7l4 3.9c.1.1.2.2.4.2h.2c.2-.1.3-.3.3-.5v-9.7c.1-.4-.1-.7-.5-.7zm-5.5 10.1l-8-7.8h4.5l3.5 3.4v4.4zm5-1.1l-8-7.8h8V28z"/>
    </g>
</symbol><symbol id="icon-bus" viewBox="0 0 16 18">
    <title>
        bus
    </title>
    <path d="M8 0C3.58 0 0 .474 0 3.79v9.473c0 .839.39 1.582 1 2.103v1.687c0 .52.45.947 1 .947h1c.555 0 1-.426 1-.947v-.948h8v.948c0 .52.445.947 1 .947h1c.55 0 1-.426 1-.947v-1.687c.61-.52 1-1.264 1-2.103V3.79C16 .474 12.42 0 8 0zM3.5 14.21c-.83 0-1.5-.634-1.5-1.42 0-.787.67-1.422 1.5-1.422S5 12.003 5 12.79c0 .787-.67 1.422-1.5 1.422zm9 0c-.83 0-1.5-.634-1.5-1.42 0-.787.67-1.422 1.5-1.422s1.5.635 1.5 1.421c0 .787-.67 1.422-1.5 1.422zM14 8.527H2V3.79h12v4.737z" fill-rule="nonzero"/>
</symbol><symbol id="icon-calendar" viewBox="0 0 20 20">
    <title>
        calendar
    </title>
    <g>
        <path d="M19.8 3.6c-.1-.5-.4-1-.8-1.3-.6-.6-1.5-.9-2.4-.9h-1.4v-1c0-.2-.2-.4-.4-.4s-.4.2-.4.4v.9H5.8V.4c0-.2-.2-.4-.4-.4-.3 0-.5.2-.5.4v.9H3.5c-.7 0-1.4.2-1.9.5-.2.2-.4.3-.6.5-.6.5-1 1.4-1 2.2v12.3c0 .9.4 1.7 1 2.3.7.6 1.5.9 2.5.9h13.1c1 0 1.8-.4 2.4-.9.6-.6 1-1.4 1-2.3V4.6c0-.4-.1-.7-.2-1zm-.7 13.2c0 .7-.3 1.3-.7 1.7s-1.1.7-1.8.7H3.5c-.7 0-1.3-.3-1.8-.7s-.7-1-.7-1.7V7.1h18.2v9.7zm0-10.5H.9V4.5c0-.7.3-1.3.7-1.7s1.1-.7 1.8-.7h1.4V3c0 .2.2.4.4.4s.4-.2.4-.4v-.9H14V3c0 .2.2.4.4.4s.4-.2.4-.4v-.9h1.4c.7 0 1.3.3 1.8.7.3.3.6.7.7 1.2v2.3z"/>
        <path d="M4.3 10.9c.4 0 .7-.2 1-.4.3-.2.4-.6.4-.9s-.2-.7-.4-.9c-.3-.3-.6-.4-1-.4s-.7.2-1 .4c-.2.2-.3.5-.3.9s.2.7.4.9c.2.2.6.4.9.4zm-.4-1.7c.1-.1.2-.1.4-.1.1 0 .3 0 .4.1s.1.2.1.3c0 .2 0 .3-.1.3s-.2.1-.4.1c-.1 0-.3 0-.4-.1s-.1-.1-.1-.2c0-.2 0-.3.1-.4z"/>
        <path d="M8.1 10.9c.4 0 .7-.2 1-.4.3-.2.4-.6.4-.9s-.2-.7-.4-.9c-.2-.2-.6-.4-1-.4s-.7.2-1 .4c-.2.2-.4.5-.4.9s.2.7.4.9c.3.2.6.4 1 .4zm-.4-1.7c.1-.1.3-.1.4-.1.1 0 .3 0 .4.1s.1.2.1.3 0 .3-.1.3-.2.1-.4.1c-.1 0-.3 0-.4-.1s-.1-.1-.1-.2c0-.2.1-.3.1-.4z"/>
        <path d="M11.9 10.9c.4 0 .7-.2 1-.4.3-.2.4-.6.4-.9s-.2-.7-.4-.9c-.2-.2-.6-.4-1-.4s-.7.2-1 .4-.4.6-.4.9.2.7.4.9c.3.2.7.4 1 .4zm-.3-1.7c.1-.1.2-.1.4-.1.1 0 .3 0 .4.1.1.1.1.2.1.3 0 .1-.1.2-.2.3s-.2.1-.4.1c-.1 0-.3 0-.4-.1-.1-.1-.1-.2-.1-.3 0 0 .1-.2.2-.3z"/>
        <path d="M15.7 10.9c.4 0 .7-.2 1-.4.3-.2.4-.6.4-.9s-.2-.7-.4-.9c-.2-.2-.6-.4-1-.4s-.7.2-1 .4c-.3.2-.4.6-.4.9s.2.7.4.9c.3.2.6.4 1 .4zm-.4-1.7c.1-.1.2-.1.4-.1.1 0 .3 0 .4.1s.1.2.1.3 0 .3-.1.3-.2.1-.4.1c-.1 0-.3 0-.4-.1s-.1-.2-.1-.3c0-.1.1-.2.1-.3z"/>
        <path d="M4.3 14.4c.4 0 .7-.2 1-.4.3-.2.4-.6.4-.9s-.2-.7-.4-.9c-.3-.2-.6-.4-1-.4s-.7.2-1 .4c-.2.3-.3.6-.3 1s.2.7.4.9c.2.2.6.3.9.3zm-.4-1.6c.1-.1.2-.1.4-.1.1 0 .3 0 .4.1.1.1.1.2.1.3 0 .1 0 .3-.1.3s-.2.1-.4.1c-.1 0-.3 0-.4-.1s-.1-.2-.1-.3c0-.1 0-.2.1-.3z"/>
        <path d="M8.1 14.4c.4 0 .7-.2 1-.4s.4-.6.4-.9-.2-.7-.4-.9c-.2-.2-.6-.4-1-.4s-.7.2-1 .4c-.3.2-.4.6-.4.9s.2.7.4.9c.3.3.6.4 1 .4zm-.4-1.6c.1-.1.2-.1.4-.1.1 0 .3 0 .4.1.1.1.1.2.1.3 0 .1 0 .3-.1.3s-.2.1-.4.1c-.1 0-.3 0-.4-.1s-.1-.2-.1-.3c0-.1.1-.2.1-.3z"/>
        <path d="M11.9 14.4c.4 0 .7-.2 1-.4s.4-.6.4-.9-.2-.7-.4-.9c-.2-.2-.6-.4-1-.4s-.7.2-1 .4-.4.6-.4.9.2.7.4.9.7.4 1 .4zm-.4-1.6c.1-.1.2-.1.4-.1.1 0 .3 0 .4.1.1.1.1.2.1.3 0 .1 0 .3-.1.3s-.2.1-.4.1c-.1 0-.3 0-.4-.1s-.1-.2-.1-.3c0-.1 0-.2.1-.3z"/>
        <path d="M15.7 14.4c.4 0 .7-.2 1-.4.3-.2.4-.6.4-.9s-.2-.7-.4-.9c-.2-.2-.6-.4-1-.4s-.7.2-1 .4c-.3.2-.4.6-.4.9s.2.7.4.9c.3.3.6.4 1 .4zm-.4-1.6c.1-.1.2-.1.4-.1.1 0 .3 0 .4.1.1.1.1.2.1.3 0 .1 0 .3-.1.3s-.2.1-.4.1c-.1 0-.3 0-.4-.1s-.1-.2-.1-.3c0-.1.1-.2.1-.3z"/>
        <path d="M4.3 18c.4 0 .7-.2 1-.4.3-.2.4-.6.4-.9 0-.3-.2-.7-.4-.9-.3-.2-.6-.4-1-.4s-.7.2-1 .4c-.2.2-.3.5-.3.9 0 .3.2.7.4.9.2.3.6.4.9.4zm-.4-1.7c.1-.1.2-.1.4-.1.1 0 .3 0 .4.1.1.1.1.2.1.3 0 .1 0 .3-.1.3-.1.1-.2.1-.4.1-.1 0-.3 0-.4-.1-.1-.1-.1-.2-.1-.3 0 0 0-.2.1-.3z"/>
        <path d="M8.1 18c.4 0 .7-.2 1-.4.3-.2.4-.6.4-.9 0-.3-.2-.7-.4-.9s-.6-.4-1-.4-.7.2-1 .4c-.3.2-.4.6-.4.9 0 .3.2.7.4.9.3.3.6.4 1 .4zm-.4-1.7c.1-.1.2-.1.4-.1.1 0 .3 0 .4.1.1.1.1.2.1.3 0 .1 0 .3-.1.3-.1.1-.2.1-.4.1-.1 0-.3 0-.4-.1-.1-.1-.1-.2-.1-.3 0 0 .1-.2.1-.3z"/>
        <path d="M11.9 18c.4 0 .7-.2 1-.4.3-.2.4-.6.4-.9 0-.3-.2-.7-.4-.9-.3-.2-.6-.4-1-.4s-.7.2-1 .4c-.3.2-.4.6-.4.9 0 .3.2.7.4.9.3.3.7.4 1 .4zm-.4-1.7c.1-.1.2-.1.4-.1.1 0 .3 0 .4.1.1.1.1.2.1.3 0 .1 0 .3-.1.3-.1.1-.2.1-.4.1-.1 0-.3 0-.4-.1-.1-.1-.1-.2-.1-.3 0 0 0-.2.1-.3z"/>
        <path d="M15.7 18c.4 0 .7-.2 1-.4.3-.2.4-.6.4-.9 0-.3-.2-.7-.4-.9-.2-.2-.6-.4-1-.4s-.7.2-1 .4c-.3.2-.4.6-.4.9 0 .3.2.7.4.9.3.3.6.4 1 .4zm-.4-1.7c.1-.1.2-.1.4-.1.1 0 .3 0 .4.1.1.1.1.2.1.3 0 .1 0 .3-.1.3-.1.1-.2.1-.4.1-.1 0-.3 0-.4-.1-.1-.1-.1-.2-.1-.3 0 0 .1-.2.1-.3z"/>
    </g>
</symbol><symbol id="icon-cards" viewBox="0 0 28 22">
    <title>
        cards
    </title>
    <g>
        <path d="M15.5 15h8c.3 0 .5-.2.5-.5v-4.1c0-.3-.2-.5-.5-.5h-8c-.3 0-.5.2-.5.5v4.1c0 .3.2.5.5.5zm.5-4.1h7v3.2h-7v-3.2z"/>
        <path d="M27.6 4.8c-.3-.4-.7-.6-1.3-.7L25.2 4V1.8c0-1-.8-1.8-1.9-1.8H1.9C.8 0 0 .8 0 1.8v14.4c0 .8.6 1.5 1.3 1.7 0 .9.7 1.7 1.6 1.8L24.5 22h.2c.9 0 1.8-.7 1.9-1.5L28 6.1c0-.5-.1-1-.4-1.3zM.9 3.1h23.3v2.7H.9V3.1zm1-2.2h21.5c.5 0 .9.4.9.9v.4H.9v-.4c0-.5.5-.9 1-.9zm-1 15.3V6.7h23.3v9.4c0 .5-.4.9-.9.9H1.9c-.5.1-1-.3-1-.8zM27.1 5.9l-1.4 14.4c0 .5-.5.9-1 .8L3.1 18.8c-.5 0-.8-.4-.8-.8h21c1 0 1.9-.8 1.9-1.8V4.8l1.1.1c.2 0 .5.1.6.3.1.2.2.5.2.7z"/>
    </g>
</symbol><symbol id="icon-chat" viewBox="0 0 21 19">
    <title>
        chat
    </title>
    <g>
        <path d="M18.9.2H7c-1.1 0-2.1.9-2.1 2v1.7H2.1c-1.2 0-2.1.9-2.1 2v7.2c0 1.1.9 2 2.1 2h2.1v3.4c0 .1.1.3.2.3h.1c.1 0 .2 0 .3-.1l3.4-3.6H14c1.1 0 2.1-.9 2.1-2l1.8 2c.1.1.2.1.3.1h.1c.1-.1.2-.2.2-.3v-3.4h.4c1.1 0 2.1-.9 2.1-2V2.2c0-1.1-.9-2-2.1-2zm-3.5 12.9c0 .7-.6 1.3-1.4 1.3H8c-.1 0-.2 0-.3.1l-2.9 3.1v-2.9c0-.2-.2-.3-.3-.3H2.1c-.8 0-1.4-.6-1.4-1.3V5.9c0-.7.6-1.3 1.4-1.3H14c.8 0 1.4.6 1.4 1.3v7.2zm4.9-3.7c0 .7-.6 1.3-1.4 1.3h-.7c-.2 0-.4.2-.4.3v2.9L16.1 12V5.9c0-1.1-.9-2-2.1-2H5.6V2.2c0-.7.6-1.3 1.4-1.3h11.9c.8 0 1.4.6 1.4 1.3v7.2z"/>
        <path d="M4.2 8.3c-.8 0-1.4.6-1.4 1.4 0 .7.6 1.4 1.4 1.4s1.4-.6 1.4-1.4c0-.8-.6-1.4-1.4-1.4zm0 2c-.4 0-.7-.3-.7-.7s.3-.6.7-.6c.4 0 .7.3.7.7s-.3.6-.7.6z"/>
        <path d="M8.1 8.3c-.8 0-1.4.6-1.4 1.4 0 .7.6 1.4 1.4 1.4s1.4-.6 1.4-1.4c-.1-.8-.7-1.4-1.4-1.4zm0 2c-.4 0-.7-.3-.7-.7s.3-.6.7-.6.7.3.7.7-.4.6-.7.6z"/>
        <path d="M11.9 8.3c-.8 0-1.4.6-1.4 1.4 0 .7.6 1.4 1.4 1.4.8 0 1.4-.6 1.4-1.4 0-.8-.6-1.4-1.4-1.4zm0 2c-.4 0-.7-.3-.7-.7s.3-.6.7-.6c.4 0 .7.3.7.7s-.3.6-.7.6z"/>
    </g>
</symbol><symbol id="icon-check" viewBox="0 0 10 8">
    <title>
        Shape
    </title>
    <path d="M4.5 7.6c-.5.5-1.2.5-1.6 0L.3 4.9c-.5-.5-.5-1.3 0-1.8s1.2-.5 1.6 0l1.5 1.6c.1.1.3.1.4 0L8 .4c.5-.5 1.2-.5 1.6 0 .3.2.4.5.4.8s-.1.7-.3.9L4.5 7.6z"/>
</symbol><symbol id="icon-children" viewBox="0 0 22 20">
    <title>
        children
    </title>
    <g>
        <ellipse cx="6.4" cy="12.3" rx="1" ry="1"/>
        <ellipse cx="15.5" cy="12.3" rx="1" ry="1"/>
        <path d="M21.9 11.9c0-1.3-.9-2.3-2.1-2.6V9c0-4.9-4-9-8.9-9-4.8 0-8.8 4-8.8 9v.4C.9 9.6 0 10.6 0 11.9s.9 2.4 2.1 2.6c.2 2 1.1 3.4 2.7 4.3 1.4.8 3.4 1.2 6.2 1.2 2.7 0 4.7-.4 6.2-1.2 1.6-.9 2.5-2.4 2.7-4.3 1.1-.2 2-1.3 2-2.6zm-21 0c0-.8.5-1.4 1.2-1.6v3.2c-.7-.2-1.2-.8-1.2-1.6zm18 1.8c0 2-.7 3.4-2.2 4.3-1.3.7-3.2 1.1-5.7 1.1s-4.5-.4-5.7-1.1C3.8 17.1 3 15.8 3 13.7V9c0-3.6 2.4-6.7 5.7-7.7 2.5 0 3.8 1.9 3.8 3.2 0 1-.8 1.8-1.8 1.8-.7 0-1.4-.6-1.4-1.4 0-.6.4-1 1-1 .3 0 .5-.2.5-.5s-.2-.4-.5-.4c-1 0-1.9.9-1.9 1.9 0 1.3 1 2.3 2.3 2.3 1.5 0 2.7-1.2 2.7-2.7 0-1-.5-2-1.3-2.7-.3-.3-.7-.6-1.1-.8 4.3.1 7.8 3.6 7.8 8v4.7zm.9-.2v-3.2c.7.2 1.2.8 1.2 1.6s-.5 1.4-1.2 1.6z"/>
        <path d="M12.7 13.5c-1 1-2.5 1-3.5 0-.2-.2-.5-.2-.6 0-.2.2-.2.5 0 .6.7.7 1.5 1 2.4 1 .9 0 1.7-.3 2.4-1 .2-.2.2-.5 0-.6-.2-.1-.5-.1-.7 0z"/>
    </g>
</symbol><symbol id="icon-cinema" viewBox="0 0 38 38">
    <title>
        cinema
    </title>
    <g fill-rule="nonzero">
        <path d="M34.104 31.32H31.45c0-1.841-1.748-3.34-3.896-3.34h-4.008c-2.149 0-3.897 1.499-3.897 3.34h-1.298c0-1.841-1.748-3.34-3.897-3.34h-4.008c-2.148 0-3.896 1.499-3.896 3.34H3.896C1.748 31.32 0 32.82 0 34.66v2.783a.557.557 0 0 0 1.113 0V34.66c0-1.228 1.249-2.226 2.783-2.226h4.008c1.535 0 2.784.998 2.784 2.226v2.783a.557.557 0 0 0 1.113 0V34.66c0-1.841-1.748-3.34-3.897-3.34h-.24c0-1.227 1.248-2.226 2.782-2.226h4.008c1.535 0 2.783.999 2.783 2.226h-.24c-2.15 0-3.897 1.499-3.897 3.34v2.783a.557.557 0 0 0 1.113 0V34.66c0-1.228 1.248-2.226 2.783-2.226h4.008c1.535 0 2.783.998 2.783 2.226v2.783a.557.557 0 0 0 1.113 0V34.66c0-1.841-1.748-3.34-3.896-3.34h-.241c0-1.227 1.248-2.226 2.783-2.226h4.008c1.534 0 2.783.999 2.783 2.226h-.241c-2.149 0-3.897 1.499-3.897 3.34v2.783a.557.557 0 0 0 1.113 0V34.66c0-1.228 1.249-2.226 2.784-2.226h4.008c1.534 0 2.783.998 2.783 2.226v2.783a.557.557 0 0 0 1.113 0V34.66c0-1.841-1.748-3.34-3.896-3.34z"/>
        <path d="M37.443 0H.557A.557.557 0 0 0 0 .557V26.31c0 .307.25.556.557.556 1.003 0 1.544-.36 1.978-.65.388-.259.695-.463 1.361-.463.667 0 .973.204 1.362.463.434.29.975.65 1.978.65.308 0 .557-.249.557-.556v-1.67h22.414v1.67c0 .307.25.556.557.556 1.003 0 1.544-.36 1.978-.65.389-.259.695-.463 1.362-.463.666 0 .973.204 1.36.463.435.29.976.65 1.98.65.307 0 .556-.249.556-.556V.557A.557.557 0 0 0 37.443 0zM26.215 1.113H36.86a6.13 6.13 0 0 1-6.096 5.567 6.12 6.12 0 0 1-5.25-2.972 7.18 7.18 0 0 0 .701-2.595zm-1.118 0A6.13 6.13 0 0 1 19 6.68a6.13 6.13 0 0 1-6.097-5.567h12.194zm-13.312 0c.07.924.315 1.8.701 2.595a6.12 6.12 0 0 1-5.25 2.972A6.13 6.13 0 0 1 1.14 1.113h10.645zm25.102 24.58c-.32-.08-.544-.229-.805-.402-.434-.29-.975-.65-1.978-.65-1.004 0-1.545.36-1.98.65-.26.173-.483.323-.804.402V9.463a.557.557 0 0 0-1.113 0v14.064H7.793V9.463a.557.557 0 0 0-1.113 0v16.23c-.32-.08-.544-.229-.805-.402-.434-.29-.975-.65-1.979-.65-1.003 0-1.544.36-1.978.65-.26.173-.484.323-.805.402V4.409a7.237 7.237 0 0 0 6.123 3.384 7.23 7.23 0 0 0 5.884-3.024A7.232 7.232 0 0 0 19 7.793a7.232 7.232 0 0 0 5.88-3.024 7.23 7.23 0 0 0 5.884 3.024 7.237 7.237 0 0 0 6.123-3.384v21.284z"/>
    </g>
</symbol><symbol id="icon-close-button" viewBox="0 0 18 18">
    <title>
        close-button
    </title>
    <path fill-rule="nonzero" d="M18 1.8L16.2 0 9 7.2 1.8 0 0 1.8 7.2 9 0 16.2 1.8 18 9 10.8l7.2 7.2 1.8-1.8L10.8 9z"/>
</symbol><symbol id="icon-close" viewBox="0 0 15 15">
    <title>
        close
    </title>
    <g fill-rule="evenodd">
        <ellipse fill-rule="nonzero" cx="7.5" cy="7.5" rx="7.5" ry="7.495"/>
        <g fill-rule="nonzero" fill="currentColor">
            <path d="M11.04 9.879l-1.16 1.16L3.962 5.12l1.16-1.16z"/>
            <path d="M11.04 5.121L5.121 11.04l-1.16-1.16L9.88 3.963z"/>
        </g>
    </g>
</symbol><symbol id="icon-cocktail" viewBox="0 0 34 34">
    <title>
        cocktail
    </title>
    <path d="M33.7 2.8L29.6.2c-.1-.2-.3-.2-.4-.2-.2 0-.3.2-.4.3l-3.1 6.4H15.1C14.8 3 11.6 0 7.6 0 3.4 0 0 3.3 0 7.4s3.4 7.4 7.6 7.4c1.5 0 2.9-.4 4.1-1.2l7.3 9.3v6.4l-5.6 3.6c-.3.1-.4.4-.4.7.1.3.3.4.6.4h11.8c.3 0 .5-.2.6-.4.1-.3 0-.5-.3-.7l-5.6-3.6V23l3.4-4.4c.2-.3.2-.6-.1-.8-.3-.2-.7-.1-.9.1l-3.1 3.9-9.1-11.7h5.9c.3 0 .6-.3.6-.6s-.3-.6-.6-.6H15c.1-.3.1-.6.1-.9H25l-.4.9h-6.2c-.3 0-.6.3-.6.6s.3.6.6.6h10.2l-4.7 6.1c-.2.3-.2.6.1.8.3.2.7.1.9-.1L32 7.8c.1-.2.2-.4.1-.6-.1-.2-.3-.3-.6-.3H27l2.6-5.3L33 3.8c.3.2.7.1.9-.2.2-.3.1-.7-.2-.8zM19.5 30.4l3.8 2.4h-7.7l3.9-2.4zM13.7 8.9H9.5L8.8 8h5.1c0 .3-.1.6-.2.9zM7.6 6.8c-.3 0-.5.1-.6.3-.1.2-.1.5.1.7l3.8 4.9c-1 .6-2.1.9-3.3.9-3.5 0-6.3-2.8-6.3-6.2 0-3.4 2.8-6.2 6.3-6.2 3.3 0 6 2.5 6.3 5.6H7.6zM30.3 8l-.7.9H26l.4-.9h3.9z"/>
</symbol><symbol id="icon-coffee-cup" viewBox="0 0 25 25">
    <title>
        coffee-cup
    </title>
    <g>
        <path d="M22.5 21.6h-5.3c1.4-.5 2.4-1.3 3.2-2.2 3.2-.5 4.7-3.1 4.7-5.5 0-1.7-1-3.1-2.2-3.4 0-.2-.1-.4-.3-.6s-.4-.3-.6-.3H1.8c-.2 0-.4.1-.6.3s-.3.4-.3.6c0 4.6.9 9.2 5.6 11H1.1c-.6 0-1.1.5-1.1 1.1 0 .5.4.9 1 1l5.6.4c.1 0 .3.1.3.2.1.5.6.8 1.1.8h7.3c.5 0 .9-.3 1.1-.7 0-.1.2-.2.3-.2l6-.4c.6-.1 1-.5 1-1-.1-.6-.6-1.1-1.2-1.1zm.3-10.1c.7.3 1.3 1.3 1.3 2.5 0 1.7-.8 3.6-3 4.4 0-.1.1-.1.1-.2 1.2-2.1 1.5-4.6 1.6-6.7zm-21-.9h20.1c0 5.7-1.3 11-10.1 11s-10-5.3-10-11zm20.7 12.3l-5.9.4c-.4 0-.8.3-1.1.7-.1.1-.2.2-.4.2H8c-.1 0-.3-.1-.4-.2-.2-.4-.6-.6-1.1-.7L1 22.9c-.2 0-.2-.1-.2-.2s.1-.3.3-.3h21.4c.1 0 .3.1.3.3 0 .1 0 .1-.3.2z"/>
        <path d="M12.2 3.8c-.7.7-1.1 1.4-1.1 2.1s.4 1.5 1.1 2.2c.1.1.2.1.3.1.1 0 .2 0 .3-.1.2-.1.2-.4 0-.6-.5-.5-.8-1-.8-1.5s.3-1 .8-1.5c.7-.6 1.1-1.4 1.1-2.1S13.6.9 12.8.2c-.2-.2-.5-.2-.6 0s-.2.5 0 .6c.5.5.8 1.1.8 1.6s-.3 1-.8 1.4z"/>
        <path d="M15.3 6c0 .7.4 1.5 1.1 2.2.1.1.2.1.3.1.1 0 .2 0 .3-.1.2-.2.2-.5 0-.6-.6-.6-.8-1.1-.8-1.6s.3-1 .8-1.5c.7-.6 1.1-1.4 1.1-2.1 0-.8-.3-1.5-1.1-2.2-.2-.2-.5-.2-.6 0-.2.2-.2.5 0 .6.5.6.8 1.1.8 1.6s-.3 1-.8 1.5c-.8.6-1.1 1.3-1.1 2.1z"/>
        <path d="M5.6 6c0 .7.4 1.5 1.1 2.2.1.1.2.1.3.1.1 0 .2 0 .3-.1.2-.2.2-.5 0-.6-.6-.6-.9-1.1-.9-1.6s.3-1 .8-1.5c.8-.7 1.1-1.4 1.1-2.1C8.3 1.6 8 .9 7.2.2 7.1 0 6.8 0 6.6.1c-.2.2-.2.5 0 .6.5.6.8 1.1.8 1.6s-.3 1-.8 1.5c-.7.7-1 1.4-1 2.2z"/>
    </g>
</symbol><symbol id="icon-compass" viewBox="0 0 28 31">
    <title>
        compass
    </title>
    <g fill-rule="nonzero">
        <path d="M19.076 11.585l-7.037 3.484a.536.536 0 0 0-.24.235l-3.543 6.92a.524.524 0 0 0 .1.614.544.544 0 0 0 .625.098l7.037-3.484a.536.536 0 0 0 .24-.235l3.543-6.92a.524.524 0 0 0-.1-.614.547.547 0 0 0-.625-.098zm-6.648 4.853l2.437 2.396-4.91 2.431 2.473-4.827zm3.2 1.645l-2.436-2.396 4.909-2.431-2.472 4.827z"/>
        <path d="M24.423 12.824a.543.543 0 0 0-.71-.275.527.527 0 0 0-.28.698 9.912 9.912 0 0 1 .83 3.483H22.32a.535.535 0 0 0-.54.53c0 .294.242.531.54.531h1.942a9.965 9.965 0 0 1-2.987 6.595 10.289 10.289 0 0 1-6.707 2.933v-1.905a.535.535 0 0 0-.54-.531.535.535 0 0 0-.54.53v1.906a10.289 10.289 0 0 1-6.706-2.933 9.928 9.928 0 0 1-2.988-6.595h1.943c.298 0 .54-.237.54-.53a.535.535 0 0 0-.54-.531H3.794a9.928 9.928 0 0 1 2.988-6.595 10.266 10.266 0 0 1 6.707-2.937v1.91c0 .292.241.53.54.53.298 0 .54-.238.54-.53v-1.91a10.265 10.265 0 0 1 6.53 2.768.546.546 0 0 0 .764-.017.525.525 0 0 0-.018-.75 11.367 11.367 0 0 0-7.942-3.077 11.361 11.361 0 0 0-7.885 3.262 11.02 11.02 0 0 0 0 15.753c2.209 2.171 5.11 3.257 8.01 3.257 2.901 0 5.802-1.086 8.01-3.257a11.015 11.015 0 0 0 3.136-5.878 10.954 10.954 0 0 0-.751-6.435z"/>
        <path d="M15.91 3.661c.287-.382.456-.853.456-1.362C16.366 1.03 15.318 0 14.028 0c-1.289 0-2.337 1.031-2.337 2.299 0 .51.17.98.456 1.362C5.337 4.567.07 10.321.07 17.261c0 7.567 6.262 13.724 13.958 13.724 7.697 0 13.958-6.157 13.958-13.725 0-6.94-5.266-12.693-12.076-13.599zm-3.14-1.362a1.25 1.25 0 0 1 1.258-1.237 1.25 1.25 0 0 1 1.259 1.237 1.25 1.25 0 0 1-1.259 1.237 1.25 1.25 0 0 1-1.258-1.237zm1.258 27.624c-7.1 0-12.878-5.68-12.878-12.663 0-6.982 5.777-12.662 12.878-12.662s12.879 5.68 12.879 12.662c0 6.983-5.778 12.663-12.879 12.663z"/>
    </g>
</symbol><symbol id="icon-diamond" viewBox="0 0 24 21">
    <title>
        diamond
    </title>
    <g fill-rule="nonzero">
        <path d="M12 20.638a.363.363 0 0 1-.278-.129L.086 6.75a.36.36 0 0 1-.013-.45L4.436.507a.364.364 0 0 1 .291-.145h14.546c.114 0 .222.054.29.145L23.928 6.3a.36.36 0 0 1-.013.45L12.278 20.51a.363.363 0 0 1-.278.129zM.828 6.504L12 19.714l11.172-13.21-4.081-5.418H4.909L.83 6.504z"/>
        <path d="M23.636 6.88H.364a.363.363 0 1 1 0-.725h23.272c.201 0 .364.162.364.362 0 .2-.163.362-.364.362z"/>
        <path d="M12 20.638a.36.36 0 0 1-.346-.47l4.363-13.76a.363.363 0 0 1 .694.219l-4.364 13.758a.364.364 0 0 1-.347.253z"/>
        <path d="M12 20.638a.364.364 0 0 1-.347-.254L7.29 6.626a.362.362 0 0 1 .238-.454.362.362 0 0 1 .456.236l4.363 13.759a.362.362 0 0 1-.346.47z"/>
        <path d="M7.636 6.88a.364.364 0 0 1-.325-.2L4.4.885A.362.362 0 0 1 4.564.4a.365.365 0 0 1 .488.163l2.91 5.793a.361.361 0 0 1-.326.523z"/>
        <path d="M7.636 6.88a.36.36 0 0 1-.29-.58L11.71.507a.365.365 0 0 1 .509-.073.36.36 0 0 1 .073.507L7.928 6.734a.365.365 0 0 1-.292.145z"/>
        <path d="M16.364 6.88c-.11 0-.22-.05-.291-.146L11.709.941a.363.363 0 0 1 .582-.434L16.655 6.3a.36.36 0 0 1-.291.58z"/>
        <path d="M16.364 6.88a.363.363 0 0 1-.325-.525L18.948.562A.365.365 0 0 1 19.436.4c.18.09.252.307.163.486l-2.91 5.793a.365.365 0 0 1-.325.2z"/>
    </g>
</symbol><symbol id="icon-down" viewBox="0 0 11 6">
    <title>
        Shape
    </title>
    <path d="M10.9.1c-.2-.2-.4-.2-.5 0l-4.9 5L.7.1C.5 0 .3 0 .1.1S0 .5.1.7l5.1 5.2c.1.1.2.1.3.1.1 0 .2 0 .3-.1L10.9.7c.1-.2.1-.4 0-.6z"/>
</symbol><symbol id="icon-facebook" viewBox="0 0 10 18">
    <title>
        Shape
    </title>
    <path d="M5.575 17.658V9h2.857l.452-2.87H5.575V4.693c0-.748.246-1.463 1.32-1.463h2.148V.365H5.994c-2.564 0-3.263 1.689-3.263 4.029V6.13H.97V9h1.76v8.658h2.844z" fill-rule="nonzero" opacity=".8"/>
</symbol><symbol id="icon-flight" viewBox="0 0 32 32">
    <title>
        flight
    </title>
    <g fill-rule="nonzero">
        <path d="M29.611 6.697l-1.504.203-1.982-1.347L29.84 1.18 28.082 0l-4.96 3.512-1.707-1.161a1.739 1.739 0 0 0-2.407.469 1.717 1.717 0 0 0-.264 1.299c.089.454.35.846.736 1.106L21.2 6.362l-1.395 5.91 1.756 1.18 2.666-5.086 1.945 1.288.378 1.467 1.837 1.235.773-2.65 2.297-1.77-1.845-1.239zm-1.514-5.55l.337.227-3.095 3.644-1.381-.94 4.14-2.93zM21.212 12.08l-.337-.226 1.165-4.935 1.393.922-2.221 4.24zm7.124-2.933l-.496 1.703-.465-.312-.378-1.47-6.99-4.628a.782.782 0 0 1-.334-.502.79.79 0 0 1 1.212-.805l6.99 4.751 1.506-.203.458.308-1.503 1.158z"/>
        <path d="M1.728 20.672l-.9.294c.101.307.213.616.332.917l.88-.349a14.991 14.991 0 0 1-.312-.862z"/>
        <path d="M.274 13.28c-.055.318-.101.642-.137.963l.94.103c.034-.302.077-.606.13-.906l-.933-.16z"/>
        <path d="M2.296 7.84c-.166.277-.326.563-.474.85l.84.434c.14-.27.29-.538.446-.799l-.812-.485z"/>
        <path d="M1.4 9.565c-.13.295-.254.598-.366.9l.887.329c.106-.285.222-.57.344-.846L1.4 9.565z"/>
        <path d="M.723 11.387c-.094.31-.18.625-.254.94l.92.217c.07-.295.151-.593.24-.883l-.906-.274z"/>
        <path d="M3.396 6.237c-.199.255-.392.519-.575.785l.781.533c.172-.25.354-.498.54-.738l-.746-.58z"/>
        <path d="M1.025 17.089l-.944.067c.023.322.056.648.099.968l.938-.125c-.04-.3-.072-.607-.093-.91z"/>
        <path d="M1.005 15.259l-.945-.047a16.184 16.184 0 0 0-.019.973l.946-.01a16.196 16.196 0 0 1 .018-.916z"/>
        <path d="M1.266 18.902l-.929.182c.063.317.135.636.217.948l.916-.238a14.995 14.995 0 0 1-.204-.892z"/>
        <path d="M16.098.08l-.005.945c.304.002.612.013.916.034l.063-.943c-.322-.021-.65-.033-.974-.035z"/>
        <path d="M11.295.784c-.31.095-.62.202-.924.316l.334.883c.285-.107.577-.207.869-.296l-.28-.903z"/>
        <path d="M15.124.104c-.323.017-.65.045-.97.082l.108.938c.301-.035.609-.06.913-.077l-.05-.943z"/>
        <path d="M2.405 22.375l-.857.402c.138.292.287.584.442.868l.83-.453a15.045 15.045 0 0 1-.415-.817z"/>
        <path d="M13.19.327c-.32.056-.64.123-.955.2l.222.917c.296-.071.598-.134.898-.188l-.166-.93z"/>
        <path d="M31.738 13.353l-.933.156c.05.3.093.605.125.907l.94-.099a15.967 15.967 0 0 0-.132-.964z"/>
        <path d="M6.138 3.484c-.254.2-.505.41-.747.625l.63.705c.227-.202.463-.4.702-.588l-.585-.742z"/>
        <path d="M31.298 11.457l-.907.27c.087.291.166.589.235.885l.921-.214a15.899 15.899 0 0 0-.249-.94z"/>
        <path d="M7.741 2.376c-.277.168-.552.346-.818.53l.538.776c.251-.173.51-.34.77-.498l-.49-.808z"/>
        <path d="M4.683 4.778c-.228.229-.452.467-.666.71l.71.624c.202-.228.412-.453.627-.669l-.671-.665z"/>
        <path d="M9.468 1.471c-.295.133-.59.276-.877.426l.44.837c.27-.142.547-.277.825-.401l-.388-.862z"/>
        <path d="M26.358 26.856c-.22.21-.45.415-.683.611l.61.722c.248-.208.492-.427.726-.65l-.653-.683z"/>
        <path d="M28.68 24.034c-.162.257-.336.511-.514.757l.766.554c.19-.261.374-.532.547-.804l-.798-.507z"/>
        <path d="M27.606 25.515c-.193.235-.396.467-.604.69l.694.642c.22-.237.436-.483.64-.732l-.73-.6z"/>
        <path d="M21.774 29.845c-.282.117-.57.227-.858.327l.31.892c.306-.106.613-.223.912-.347l-.364-.872z"/>
        <path d="M23.42 29.038c-.264.15-.537.295-.81.429l.417.847c.29-.142.58-.296.862-.456l-.468-.82z"/>
        <path d="M24.956 28.036c-.244.182-.497.358-.752.524l.518.79c.27-.176.54-.363.8-.556l-.566-.758z"/>
        <path d="M31.944 15.287l-.946.042a15.3 15.3 0 0 1 .014.916l.946.015a15.96 15.96 0 0 0-.014-.973z"/>
        <path d="M30.97 17.16c-.023.303-.056.61-.097.91l.937.129c.044-.32.079-.645.103-.968l-.943-.071z"/>
        <path d="M30.25 20.74a14.89 14.89 0 0 1-.316.859l.878.352c.121-.3.234-.607.336-.913l-.898-.298z"/>
        <path d="M29.567 22.435c-.13.274-.271.547-.419.813l.829.457c.156-.282.306-.573.444-.864l-.854-.406z"/>
        <path d="M30.72 18.972c-.06.298-.13.598-.208.891l.915.242c.083-.312.157-.63.22-.947l-.927-.186z"/>
        <path d="M3.285 23.981l-.8.503a16 16 0 0 0 .544.808l.769-.55c-.178-.248-.35-.504-.513-.76z"/>
        <path d="M8.523 29.006l-.471.819c.28.16.569.315.858.458l.42-.845c-.271-.135-.543-.28-.807-.432z"/>
        <path d="M6.994 28l-.568.755c.259.193.527.382.796.56l.522-.789a15.12 15.12 0 0 1-.75-.527z"/>
        <path d="M5.598 26.814l-.656.681c.234.224.477.443.723.652l.613-.719c-.232-.197-.46-.404-.68-.614z"/>
        <path d="M4.356 25.468l-.734.597c.204.25.42.497.639.735l.695-.64a15.065 15.065 0 0 1-.6-.692z"/>
        <path d="M10.163 29.819l-.368.87c.297.125.603.243.907.35l.314-.89c-.286-.102-.573-.212-.853-.33z"/>
        <path d="M13.68 30.815l-.145.934c.32.05.645.09.967.12l.088-.941a15.06 15.06 0 0 1-.91-.113z"/>
        <path d="M11.89 30.425l-.259.908c.312.089.63.168.946.237l.202-.922c-.297-.065-.597-.14-.89-.223z"/>
        <path d="M16.423 30.987c-.303.009-.613.008-.918-.002l-.03.944a16.393 16.393 0 0 0 .974.003l-.026-.945z"/>
        <path d="M18.249 30.826c-.3.045-.607.082-.91.109l.083.94c.322-.028.648-.067.967-.115l-.14-.934z"/>
        <path d="M20.04 30.444a14.99 14.99 0 0 1-.89.219l.198.923c.317-.067.636-.145.947-.232l-.254-.91z"/>
        <path d="M25.327 9.808l-.785.527a10.156 10.156 0 0 1 1.728 5.233h-9.765V10.72h1.545v-.944h-1.545V5.821c.572.026 1.142.1 1.698.219l.2-.923a11.273 11.273 0 0 0-2.371-.252c-6.175 0-11.197 5.013-11.197 11.175 0 2.356.734 4.544 1.987 6.348v.043h.03a11.203 11.203 0 0 0 8.45 4.76 3.648 3.648 0 0 0 1.637-.012c5.751-.463 10.29-5.281 10.29-11.139 0-2.232-.658-4.387-1.902-6.232zM13.17 6.215c-.57.542-1.092 1.246-1.55 2.1-.245.457-.466.946-.662 1.461H7.933a10.284 10.284 0 0 1 5.238-3.56zM7.279 10.72h3.36c-.449 1.478-.707 3.129-.751 4.848H5.792A10.15 10.15 0 0 1 7.28 10.72zm-1.487 5.793h4.094c.034 1.765.293 3.46.752 4.973h-3.28a10.15 10.15 0 0 1-1.566-4.973zm2.24 5.918h2.927c.196.515.417 1.004.661 1.46.41.763.87 1.406 1.369 1.92a10.285 10.285 0 0 1-4.956-3.38zm7.526 3.829a11.039 11.039 0 0 1-.112-.006c-1.11-.274-2.154-1.247-2.992-2.809-.172-.321-.331-.66-.478-1.014h3.582v3.829zm0-4.774H11.63c-.485-1.49-.76-3.191-.797-4.973h4.726v4.973zm0-5.918h-4.723c.046-1.736.32-3.392.794-4.848h3.93v4.848zm0-5.792h-3.582c.147-.354.306-.693.478-1.014.866-1.615 1.953-2.6 3.104-2.834v3.848zm.947 6.737h4.852c-.036 1.782-.311 3.483-.797 4.973h-4.055v-4.973zm.278 9.73c-.092.007-.185.013-.278.017v-3.83h3.708c-.147.355-.306.694-.478 1.015-.828 1.543-1.857 2.511-2.952 2.799zm2.474-.491a8.639 8.639 0 0 0 1.312-1.861c.245-.456.465-.945.661-1.46h2.8a10.289 10.289 0 0 1-4.773 3.32zm2.294-4.266c.459-1.513.718-3.208.753-4.973h3.967a10.15 10.15 0 0 1-1.566 4.973h-3.154z"/>
    </g>
</symbol><symbol id="icon-front-car" viewBox="0 0 18 16">
    <title>
        front-car
    </title>
    <path d="M15.9 1c-.2-.6-.8-1-1.4-1h-11c-.7 0-1.2.4-1.4 1L0 7v8c0 .6.4 1 1 1h1c.6 0 1-.4 1-1v-1h12v1c0 .6.4 1 1 1h1c.6 0 1-.4 1-1V7l-2.1-6zM3.5 11C2.7 11 2 10.3 2 9.5S2.7 8 3.5 8 5 8.7 5 9.5 4.3 11 3.5 11zm11 0c-.8 0-1.5-.7-1.5-1.5S13.7 8 14.5 8s1.5.7 1.5 1.5-.7 1.5-1.5 1.5zM2 6l1.5-4.5h11L16 6H2z" fill-rule="nonzero"/>
</symbol><symbol id="icon-google-plus" viewBox="0 0 18 17">
    <title>
        google-plus
    </title>
    <g fill-rule="nonzero" opacity=".8">
        <path d="M11.115 12.718c0-1.471-.852-2.197-1.79-2.986l-.768-.597c-.235-.191-.554-.448-.554-.917 0-.469.32-.768.597-1.044.895-.704 1.79-1.45 1.79-3.028 0-1.621-1.023-2.473-1.513-2.878H10.2L11.562.5H7.17c-1.15 0-2.6.17-3.817 1.173C2.437 2.46 1.99 3.549 1.99 4.53c0 1.662 1.279 3.347 3.538 3.347.214 0 .447-.022.683-.042-.106.256-.212.47-.212.832 0 .66.34 1.066.64 1.45-.96.063-2.751.17-4.073.98-1.258.746-1.641 1.834-1.641 2.602 0 1.577 1.493 3.049 4.584 3.049 3.666 0 5.606-2.027 5.606-4.03zM6.53 7.281c-1.834 0-2.665-2.367-2.665-3.795 0-.555.106-1.129.469-1.577.34-.427.938-.705 1.493-.705 1.77 0 2.686 2.389 2.686 3.923 0 .384-.042 1.066-.533 1.557-.34.341-.916.596-1.45.597zm.022 8.57c-2.281 0-3.752-1.086-3.752-2.6 0-1.513 1.365-2.025 1.834-2.195.896-.299 2.046-.342 2.239-.342.212 0 .319 0 .49.021 1.62 1.151 2.323 1.727 2.323 2.815 0 1.321-1.087 2.302-3.134 2.302z"/>
        <path d="M11.307 8.577h2.309v2.307h1.154V8.577h2.307V7.423H14.77V5.116h-1.154v2.307h-2.309z"/>
    </g>
</symbol><symbol id="icon-gym" viewBox="0 0 38 30">
    <title>
        gym
    </title>
    <path d="M36.1 5h-1.3V1.9c0-1-.9-1.9-1.9-1.9h-2.5c-1 0-1.9.8-1.9 1.9v5H27l-.1-.3c-.7-1.7-2.3-2.8-4.1-2.8h-.1c-.3-.7-1-1.2-1.8-1.2-.5 0-.9.2-1.3.5-.3-.3-.8-.5-1.3-.5s-.9.1-1.2.4c-.3-.3-.8-.5-1.3-.5s-.9.2-1.2.5c-.3-.3-.8-.5-1.3-.5-1 0-1.9.8-1.9 1.9v2.5H9.5v-5C9.5.9 8.6 0 7.6 0H5.1C4 0 3.2.8 3.2 1.9V5H1.9C.9 5 0 5.8 0 6.9v6.2c0 1 .9 1.9 1.9 1.9h1.3v3.1c0 1 .9 1.9 1.9 1.9h2.5c1 0 1.9-.8 1.9-1.9v-5h1.4l.5 1.5c0 .1.1.1.1.2l1.7 2.2-1.1 11.2c0 .4.1.9.4 1.2.3.3.7.5 1.2.5h8.6c.5 0 .9-.2 1.2-.5.3-.3.5-.8.4-1.2l-1.1-10.9c0-.1 0-.2.1-.3l3.5-2.9c.3-.3.5-.6.6-1h1.4v5c0 1 .9 1.9 1.9 1.9h2.5c1 0 1.9-.8 1.9-1.9V15H36c1 0 1.9-.8 1.9-1.9V6.9C38 5.8 37.1 5 36.1 5zM3.2 13.8H1.9c-.3 0-.6-.3-.6-.6V6.9c0-.3.3-.6.6-.6h1.3v7.5zm5-6.3v10.6c0 .3-.3.6-.6.6H5.1c-.3 0-.6-.3-.6-.6V1.9c0-.3.3-.6.6-.6h2.5c.3 0 .6.3.6.6v5.6zm12.1-3.1c0-.3.3-.6.6-.6s.6.3.6.6v3.7c0 .2-.1.5-.3.6h-.1-.1H20.7h-.1c-.1 0-.1 0-.1-.1 0 0-.1 0-.1-.1l-.1-.1v-.1c0-.1-.1-.2-.1-.3V4.4zm-2.6 0c0-.3.3-.6.6-.6s.7.2.7.6v3.8c0 .3-.3.6-.6.6s-.6-.3-.6-.6V4.4zm-2.5 0c0-.3.3-.6.6-.6s.6.3.6.6v3.8c0 .3-.3.6-.6.6s-.6-.3-.6-.6V4.4zm-2.5 3.1V4.4c0-.3.3-.6.6-.6s.6.3.6.6v3.8c0 .1 0 .2-.1.3v.1c0 .1-.1.1-.1.1s-.1 0-.1.1l-.1.1H13.2h-.1-.1-.1c-.2-.1-.3-.3-.3-.6v-.8zm-3.2 4.4V8.1h1.9c0 .7.4 1.3.9 1.6 0 0 .1 0 .1.1.1 0 .1.1.2.1s.1 0 .2.1H13.9c.1 0 .1-.1.2-.1s.1-.1.2-.1.1-.1.2-.1c0 0 .1 0 .1-.1l.1.1.1.1c.1 0 .1.1.2.1 0 0 .1 0 .1.1.1 0 .2.1.2.1h1c.1 0 .2 0 .2-.1 0 0 .1 0 .1-.1.1 0 .1-.1.2-.1l.1-.1.1-.1.1.1.1.1c.1 0 .1.1.2.1 0 0 .1 0 .1.1.1 0 .1 0 .2.1h1c.1 0 .2 0 .2-.1 0 0 .1 0 .1-.1.1 0 .1-.1.2-.1l.1-.1.1-.1s.1 0 .1.1c.1 0 .1.1.2.1l.1.1c.1 0 .1.1.2.1H21.1c.1 0 .2 0 .2-.1 0 0 .1 0 .1-.1 0 0 .1 0 .1-.1.5-.3.8-.7.9-1.2V11l-.9.9h-12zm16.5.5c0 .3-.1.6-.3.7L22.2 16c-.4.3-.6.9-.6 1.4l1.1 10.9c0 .1-.1.2-.1.3 0 0-.1.1-.3.1h-8.6c-.1 0-.2-.1-.3-.1s-.1-.1-.1-.3l1.1-11.5c0-.2 0-.3-.1-.4l-1.8-2.3-.3-1.1h9.6c.3 0 .7-.1.9-.4l.9-.9c.2-.2.4-.6.4-.9v-2c0-.8-.5-1.5-1.3-1.8V5c1.3 0 2.4.8 2.9 2l.2.6v4.8zm2.5-.5h-1.3V8.1h1.3v3.8zm5.1-6.3V18.2c0 .3-.3.6-.6.6h-2.5c-.3 0-.6-.3-.6-.6V1.9c0-.3.3-.6.6-.6H33c.3 0 .6.3.6.6v3.7zm3.1 7.5c0 .3-.3.6-.6.6h-1.3V6.2h1.3c.3 0 .6.3.6.6v6.3z"/>
</symbol><symbol id="icon-hotel" viewBox="0 0 38 38">
    <title>
        hotel
    </title>
    <g>
        <path d="M24.1 24.1v-5.8c0-1-.9-1.9-1.9-1.9H4.4c-1 0-1.9.9-1.9 1.9v5.8c-1.4.3-2.5 1.6-2.5 3.1v10.1c0 .4.3.7.6.7h2.5c.3 0 .6-.3.6-.6v-1.9h19v1.9c0 .3.3.6.6.6H26c.3 0 .6-.3.6-.6V27.2c0-1.5-1.1-2.8-2.5-3.1zM3.8 18.4c0-.3.3-.6.6-.6h17.7c.3 0 .6.3.6.6v5.7h-1.3v-2.5c0-1-.9-1.9-1.9-1.9h-3.8c-1 0-1.9.9-1.9 1.9v2.5h-1.3v-2.5c0-1-.9-1.9-1.9-1.9H7c-1 0-1.9.9-1.9 1.9v2.5H3.8v-5.7zm16.5 3.1V24h-5.1v-2.5c0-.3.3-.6.6-.6h3.8c.4 0 .7.3.7.6zm-8.9 0V24H6.3v-2.5c0-.3.3-.6.6-.6h3.8c.4 0 .7.3.7.6zm13.9 15.2H24v-1.9c0-.3-.3-.6-.6-.6H3.2c-.3 0-.6.3-.6.6v1.9H1.3v-5.1h24.1v5.1zm0-6.3h-24v-3.2c0-1 .9-1.9 1.9-1.9h20.1c1 0 1.9.9 1.9 1.9v3.2z"/>
        <path d="M37.4 24.1h-8.9c-.3 0-.6.3-.6.6v9.5h1.3v-3.8h7.6v3.8H38v-9.5c0-.3-.3-.6-.6-.6zm-.7 5h-7.6v-3.8h7.6v3.8z"/>
        <path d="M36.1 18.8L34.8 15c-.1-.3-.3-.4-.6-.4h-2.5c-.3 0-.5.2-.6.4l-1.3 3.8c-.1.2 0 .4.1.6.1.2.3.3.5.3h1.9v1.9H31v1.3h3.8v-1.3h-1.3v-1.9h1.9c.2 0 .4-.1.5-.3.2-.2.2-.4.2-.6zm-4.8-.4l.8-2.5h1.6l.8 2.5h-3.2z"/>
        <path d="M37.6 8.3L19.3.1c-.2-.1-.4-.1-.5 0L.4 8.3c-.3.1-.4.3-.4.6v7.6h1.3V9.3l17.7-8 17.7 7.9v7.2H38V8.9c0-.3-.1-.5-.4-.6z"/>
        <path d="M23.4 8.8l-1.3.2v.5c0 1.7-1.4 3.2-3.2 3.2s-3.2-1.4-3.2-3.2 1.4-3.2 3.2-3.2c.4 0 .7.1 1.1.2l.4-1.2c-.5-.2-1-.3-1.5-.3-2.4 0-4.4 2-4.4 4.4s2 4.4 4.4 4.4 4.4-2 4.4-4.4c.1-.1.1-.4.1-.6z"/>
        <path d="M23 5.3l-4 4-.8-.8-.9.9 1.3 1.3c.1.1.3.2.4.2s.3-.1.4-.2l4.4-4.4-.8-1z"/>
    </g>
</symbol><symbol id="icon-like-empty" viewBox="0 0 23 20">
    <title>
        like
    </title>
    <path d="M23 8.424c0-1.123-1.01-2.036-2.25-2.036h-5.426l.79-1.95a.611.611 0 0 0 .007-.02c.38-1.033.285-2.117-.277-3.135C15.42.515 14.567.038 13.619.038h-.263c-.639 0-1.179.452-1.23 1.028-.09 1.007-.567 1.961-1.344 2.687L6.436 7.745H6v-.678c0-.375-.336-.68-.75-.68H.75c-.414 0-.75.305-.75.68v12.216c0 .375.336.679.75.679h4.5c.414 0 .75-.304.75-.68v-.678h12.5c1.24 0 2.25-.913 2.25-2.036 0-.363-.105-.703-.29-.999.625-.362 1.04-.996 1.04-1.716 0-.362-.105-.703-.29-.998.625-.363 1.04-.996 1.04-1.716 0-.363-.105-.704-.29-1 .625-.361 1.04-.995 1.04-1.715zm-18.5 0V18.604h-3V7.745h3v.679zm16.25.679H18.5c-.414 0-.75.304-.75.678 0 .375.336.679.75.679H20c.414 0 .75.305.75.679 0 .374-.336.678-.75.678h-2.25c-.414 0-.75.304-.75.68 0 .374.336.678.75.678h1.5c.414 0 .75.304.75.679 0 .374-.336.678-.75.678h-.75a.835.835 0 0 0-.115.01H16.95c-.414 0-.75.303-.75.678 0 .375.336.678.75.678h1.5a.835.835 0 0 0 .1-.006c.39.023.7.317.7.676 0 .375-.336.679-.75.679H6V9.103h.75c.2 0 .393-.073.534-.203l4.568-4.197a.138.138 0 0 0 .004-.003c.964-.898 1.577-2.064 1.74-3.304h.023c.376 0 .715.189.883.494.384.696.451 1.399.2 2.09l-1.156 2.853a.625.625 0 0 0 .09.622c.14.182.369.29.614.29h6.5c.414 0 .75.305.75.679 0 .374-.336.679-.75.679z" fill-rule="nonzero"/>
</symbol><symbol id="icon-like-full" viewBox="0 0 23 20">
    <style>
        .st0{fill:#5eabdd}
    </style>
    <title>
        like-full
    </title>
    <g id="Hotel-page" transform="translate(-334 -4516)">
        <g id="Review" transform="translate(150 4070)">
            <g id="Review_2" transform="translate(0 289)">
                <g id="active-like" transform="translate(170 157)">
                    <g id="like-full" transform="translate(14)">
                        <g id="like-_x28_1_x29_">
                            <path id="Shape" class="st0" d="M3.8 6.4h-3c-.5 0-.8.3-.8.7v12.2c0 .4.3.7.8.7h3c.4 0 .8-.3.8-.7V7.1c-.1-.4-.4-.7-.8-.7z"/>
                            <path id="Shape_1_" class="st0" d="M21.1 6.4h-5.8l.8-2c.5-1.3.2-3.4-1.3-4.1-.5-.2-1.2-.4-1.7-.2-.3.1-.6.3-.8.5-.2.3-.2.6-.2 1-.2.8-.6 1.6-1.3 2.2L6 7.8v10.9h12.5c1.7 0 2.8-1.7 2-3 1-.6 1.3-1.8.8-2.7 1-.6 1.3-1.8.8-2.7 1.6-1.1 1-3.6-1-3.9z"/>
                        </g>
                    </g>
                </g>
            </g>
        </g>
    </g>
</symbol><symbol id="icon-livingroom" viewBox="0 0 36 27">
    <title>
        livingroom
    </title>
    <g fill-rule="nonzero">
        <path d="M32.267 10.284c-.167 0-.333.013-.497.036V7.318c0-2.603-1.294-5.026-3.378-6.323-.269-.168-.611-.067-.765.224-.154.291-.061.663.207.83 1.737 1.08 2.815 3.1 2.815 5.269v3.366c-1.28.667-2.115 2.083-2.115 3.65v1.883a2.269 2.269 0 0 0-1.298-.411h-7.378c-.746 0-1.414.368-1.858.946-.444-.578-1.112-.946-1.858-.946H8.764c-.477 0-.922.151-1.298.411v-1.884c0-1.714-1-3.248-2.489-3.818a3.473 3.473 0 0 0-1.285-.23 3.495 3.495 0 0 0-1.764.509c-.27.163-.368.533-.217.827.15.293.492.398.762.234a2.415 2.415 0 0 1 2.13-.194c1.043.399 1.743 1.473 1.743 2.672v6.162H3.87c0-1.542-.65-3.007-1.736-3.921-.652-.548-1.021-1.375-1.013-2.268a3 3 0 0 1 .325-1.335c.15-.294.053-.664-.217-.827-.271-.163-.612-.057-.762.236A4.3 4.3 0 0 0 0 14.294c-.011 1.277.516 2.458 1.447 3.24.816.687 1.302 1.794 1.302 2.963V23.213c0 .335.251.607.56.607h.879c.106.36.306.684.584.932.152.134.182.391.069.586l-.404.699a.652.652 0 0 0-.016.617.555.555 0 0 0 .49.314h2.296c.31 0 .56-.272.56-.608v-2.54h17.689c.31 0 .56-.272.56-.608 0-.336-.25-.608-.56-.608H3.87v-.893h28.26v.893h-5.18c-.31 0-.56.273-.56.608 0 .336.25.608.56.608h1.282v2.54c0 .336.25.608.56.608h2.296c.204 0 .392-.12.49-.314a.652.652 0 0 0-.015-.617l-.405-.7c-.112-.194-.082-.451.07-.586.277-.247.477-.571.584-.931h.878c.31 0 .56-.272.56-.608v-2.77a3.88 3.88 0 0 1 1.341-2.94C35.487 16.73 36 15.574 36 14.333c0-2.232-1.675-4.049-3.733-4.049zM6.647 23.82v1.932h-.744c.267-.671.109-1.463-.411-1.932h1.155zm10.793-3.325H7.466V18.43c0-.777.582-1.408 1.298-1.408h7.378c.715 0 1.298.631 1.298 1.408v2.065zm1.12 0V18.43c0-.777.583-1.408 1.298-1.408h7.378c.715 0 1.298.631 1.298 1.408v2.065H18.56zm11.537 5.257h-.744V23.82h1.155c-.52.47-.679 1.261-.411 1.932zm3.796-9.2a5.13 5.13 0 0 0-1.764 3.89v.053h-2.474v-6.162c0-1.2.7-2.273 1.741-2.672.279-.107.571-.161.87-.161 1.441 0 2.613 1.271 2.613 2.833 0 .869-.36 1.677-.986 2.218z"/>
        <path d="M26.78.275a6.24 6.24 0 0 0-1.727-.243H10.947C7.243.032 4.23 3.301 4.23 7.318v2.095c0 .336.25.608.56.608.31 0 .56-.272.56-.608V7.318c0-3.347 2.511-6.07 5.597-6.07h14.106c.488 0 .972.068 1.439.202.299.086.606-.107.685-.432.08-.324-.099-.657-.398-.743z"/>
        <path d="M12.043 7.056h-.624v-.677c0-.335-.251-.608-.56-.608-.31 0-.56.272-.56.608v.677h-.625c-.309 0-.56.272-.56.607 0 .336.251.608.56.608h.624v.677c0 .336.251.608.56.608.31 0 .56-.272.56-.608v-.677h.625c.309 0 .56-.272.56-.608 0-.335-.25-.607-.56-.607z"/>
        <path d="M19.184 7.056h-.624v-.677c0-.335-.25-.608-.56-.608-.31 0-.56.272-.56.608v.677h-.624c-.31 0-.56.272-.56.607 0 .336.25.608.56.608h.624v.677c0 .336.25.608.56.608.31 0 .56-.272.56-.608v-.677h.624c.31 0 .56-.272.56-.608 0-.335-.25-.607-.56-.607z"/>
        <path d="M26.326 7.056h-.624v-.677c0-.335-.25-.608-.56-.608-.31 0-.56.272-.56.608v.677h-.624c-.31 0-.56.272-.56.607 0 .336.25.608.56.608h.623v.677c0 .336.251.608.56.608.31 0 .561-.272.561-.608v-.677h.624c.31 0 .56-.272.56-.608 0-.335-.25-.607-.56-.607z"/>
    </g>
</symbol><symbol id="icon-logo-waves" viewBox="0 0 37 12">
    <title>
        logo-waves
    </title>
    <path d="M36.8 5c-.4-.2-1.2.9-1.4 1.2-.6.6-1.2 1.2-1.9 1.6C31.9 8.9 30.4 9 28.6 9c-3.8 0-7.7-1.9-11.3-3-3.8-1-7.9-1.3-11.7-.3-1.7.4-3.5 1.3-4.4 2.8-.5.8-1.9 2.6-.7 3.4.4.3.7-1 .9-1.2.4-.8 1.3-1.2 2-1.7 1.2-.9 3.3-1.4 4.8-1.4 2.1 0 4.4-.4 6.4.3 1.6.5 3.3.9 5 1.5 1.9.6 3.7 1.3 5.6 1.7 1.1.2 2.1.4 3.2.4.8 0 1.7-.2 2.5-.1.5-.4 1.5-.4 2-1 .8-.2 1.3-.9 2-1.3s2.3-2.8 2.1-3.7c0-.3-.1-.3-.2-.4z"/>
    <path d="M36.8 0c-.4-.2-1.2.9-1.4 1.2-.6.6-1.2 1.2-1.9 1.6C31.9 3.9 30.4 4 28.6 4c-3.8 0-7.7-1.9-11.3-3C13.5 0 9.4-.3 5.6.7 3.9 1.1 2.1 2 1.2 3.5.7 4.3-.7 6.1.5 6.9c.4.3.7-1 .9-1.2.4-.8 1.3-1.2 2-1.7 1.2-.9 3.3-1.4 4.8-1.4 2.1 0 4.4-.4 6.4.3 1.6.5 3.3.9 5 1.5 1.9.6 3.7 1.3 5.6 1.7 1.1.2 2.1.4 3.2.4.8 0 1.7-.2 2.5-.1.5-.4 1.5-.4 2-1 .8-.2 1.3-.9 2-1.3S37.2 1.3 37 .4c0-.3-.1-.3-.2-.4z"/>
</symbol><symbol id="icon-mail" viewBox="0 0 19 13">
    <title>
        mail
    </title>
    <g>
        <path d="M14.869 9.917c-.1 0-.1 0-.2-.1l-3.4-3c-.1-.1-.1-.3 0-.4.1-.2.3-.2.4-.1l3.4 3.1c.1.1.1.3 0 .4 0 0-.1.1-.2.1z"/>
        <path d="M3.469 9.917c-.1 0-.2 0-.2-.1-.1-.1-.1-.3 0-.4l3.4-3.1c.2-.1.4-.1.5.1.1.1.1.3 0 .4l-3.5 3c0 .1-.1.1-.2.1z"/>
        <path d="M16.9 12.7H1.5c-.8 0-1.5-.6-1.5-1.4V1.7C0 .9.7.3 1.5.3h15.4c.8 0 1.5.6 1.5 1.4v9.6c0 .8-.7 1.4-1.5 1.4zM1.5.8c-.5 0-.9.4-.9.9v9.6c0 .5.4.8.9.8h15.4c.5 0 .9-.4.9-.8V1.7c0-.5-.4-.8-.9-.8H1.5z"/>
        <path d="M9.2 7.9c-.4 0-.8-.1-1.1-.4L.5 1.2C.4 1.1.4.9.5.8.6.7.8.7.9.8l7.6 6.3c.4.3 1 .3 1.4 0L17.5.8c.1-.1.3-.1.4 0 .1.1.1.3 0 .4l-7.6 6.3c-.3.3-.7.4-1.1.4z"/>
    </g>
</symbol><symbol id="icon-map" viewBox="0 0 34 34">
    <title>
        map
    </title>
    <g fill-rule="nonzero">
        <path d="M33.928 22.477V11.515a.542.542 0 0 0-.388-.52L28.48 9.49c.391-.96.635-1.914.635-2.799C29.115 3.001 26.12 0 22.438 0c-3.682 0-6.677 3.002-6.677 6.691 0 .885.244 1.839.636 2.799l-4.908 1.459L.695 7.739A.541.541 0 0 0 0 8.26V30.203c0 .24.158.452.387.52l10.94 3.253.008.003h.006c.02.007.04.01.062.014l.017.003a.544.544 0 0 0 .14 0l.016-.003a.55.55 0 0 0 .062-.013l.006-.001.005-.002 10.57-3.143a.538.538 0 0 0 .438 0l10.575 3.145a.54.54 0 0 0 .696-.52V22.481v-.005zM32.845 11.92v9.84l-9.866-2.934v-1.543c.706-.729 3.479-3.69 5.044-6.797l4.822 1.434zM22.438 1.085c3.085 0 5.594 2.515 5.594 5.606 0 .882-.294 1.863-.751 2.857a.542.542 0 0 0-.055.118c-1.305 2.76-3.828 5.588-4.788 6.612-.96-1.023-3.48-3.847-4.786-6.606a.543.543 0 0 0-.06-.129c-.456-.992-.749-1.971-.749-2.852 0-3.09 2.51-5.606 5.595-5.606zm-.541 16.198v1.543l-9.866 2.933v-9.84l4.821-1.433c1.566 3.108 4.339 6.068 5.045 6.797zM1.083 19.958l3.74 1.112a.54.54 0 0 0 .673-.366.543.543 0 0 0-.365-.674l-4.048-1.204v-9.84l9.865 2.934v9.84l-3.74-1.113a.543.543 0 0 0-.308 1.04l4.048 1.204v9.84l-9.865-2.934v-9.84zm21.896 9.84v-3.929a.542.542 0 1 0-1.082 0v3.928l-9.866 2.934v-9.84l9.866-2.933v3.741a.542.542 0 1 0 1.082 0v-3.741l9.866 2.933v9.84l-9.866-2.934z"/>
        <path d="M22.438 10.49a3.798 3.798 0 0 0 0-7.596 3.798 3.798 0 0 0 0 7.595zm0-6.511a2.713 2.713 0 0 1 0 5.425 2.713 2.713 0 0 1 0-5.425z"/>
    </g>
</symbol><symbol id="icon-marker" viewBox="0 0 12 16">
    <title>
        marker
    </title>
    <g fill-rule="nonzero">
        <path d="M6 0C2.702 0 .018 2.6.018 5.795c0 3.965 5.353 9.786 5.581 10.032a.55.55 0 0 0 .802 0c.228-.246 5.58-6.067 5.58-10.032C11.982 2.599 9.299 0 6 0zm0 14.679c-1.802-2.073-4.904-6.163-4.904-8.884 0-2.62 2.2-4.752 4.904-4.752 2.704 0 4.904 2.132 4.904 4.752 0 2.721-3.102 6.81-4.904 8.884z"/>
        <path d="M6 2.88c-1.66 0-3.01 1.307-3.01 2.915C2.99 7.402 4.34 8.71 6 8.71c1.66 0 3.01-1.308 3.01-2.915 0-1.608-1.35-2.916-3.01-2.916zm0 4.787c-1.065 0-1.932-.84-1.932-1.872 0-1.033.867-1.872 1.932-1.872s1.932.84 1.932 1.872S7.065 7.667 6 7.667z"/>
    </g>
</symbol><symbol id="icon-museum" viewBox="0 0 38 39">
    <title>
        museum
    </title>
    <path d="M34.51 14.695v-2.111h3.203l.285-.975L19.307 0h-.568L.048 11.61l.284.974h3.204v2.11l.534.528H6.03c-1.067 3.822-2.572 12.529-.35 16.359H4.07l-.534.528v2.638H1.4l-.534.528v3.166l.534.528h35.245l.534-.528v-3.166l-.534-.528H34.51v-2.638l-.534-.528H32.37c1.989-3.943.663-12.602-.273-16.359h1.88l.533-.527zM2.184 11.529l16.838-10.46L35.86 11.53H2.185zm4.953 3.693h2.396c.495 1.898 1.076 5.127 1.275 8.217.253 3.917-.138 6.721-1.132 8.142H6.974c-2.532-2.899-1.01-12.36.164-16.359zm3.498 0h6.173c-1.066 3.822-2.572 12.529-.35 16.359h-5.551c1.99-3.943.663-12.602-.272-16.359zm9.678 0c.495 1.898 1.076 5.127 1.275 8.217.253 3.917-.139 6.721-1.132 8.142h-2.704c-2.53-2.899-1.008-12.36.165-16.359h2.396zm15.797 20.58v2.111H1.934v-2.11h34.177zm-2.67-1.055H4.604v-2.11h28.837v2.11zm-11.753-3.166c1.99-3.943.663-12.602-.272-16.359h6.073c-1.066 3.822-2.572 12.529-.35 16.359h-5.451zm10.582-8.142c.252 3.917-.14 6.721-1.133 8.142h-2.703c-2.532-2.899-1.009-12.36.164-16.359h2.396c.495 1.898 1.076 5.127 1.276 8.217zm1.171-9.272H4.604v-1.583h28.837v1.583z" fill-rule="nonzero"/>
</symbol><symbol id="icon-next" viewBox="0 0 14 25">
    <title>
        Shape
    </title>
    <path d="M2 24.2l11.2-11.1c.2-.2.3-.4.3-.6 0-.2-.1-.4-.3-.6L2 .7C1.7.4 1.1.4.8.7c-.3.3-.3.9 0 1.2l10.6 10.6L.7 23c-.3.3-.3.9 0 1.2.4.4.9.4 1.3 0z"/>
</symbol><symbol id="icon-phone" viewBox="0 0 19 18">
    <title>
        phone
    </title>
    <path d="M19 14.8c-.1-.4-.3-.8-.7-1l-4.7-2.6c-.6-.3-1.3-.2-1.8.2l-.9.9c-.2.2-.6.3-.9 0l-2.1-1.8c-.7-.6-1.3-1.3-1.9-2-.3-.2-.3-.6 0-.8l.9-.9c.5-.4.6-1.1.2-1.7L4.4.7c-.2-.4-.6-.6-1-.7-.5 0-.9.1-1.3.4L.7 1.7c-1 .9-1 2.6 0 4.7.9 2.1 2.6 4.3 4.8 6.4 2.2 2.1 4.6 3.7 6.7 4.5 1.1.4 2.1.7 2.9.7.9 0 1.6-.2 2.1-.7l1.4-1.3c.3-.3.4-.8.4-1.2zm-5.7-3.1l4.7 2.6c.2.1.4.3.4.6 0 .2 0 .4-.2.6L12 12.1l.3-.2c.2-.3.6-.3 1-.2zM3.3.6c.3 0 .5.2.6.4l2.7 4.4c.2.3.1.7-.1 1l-.3.2L2.7.7c.1-.1.3-.1.5-.1h.1zm13.4 16.3c-.8.7-2.3.7-4.3-.1-2.1-.8-4.4-2.4-6.5-4.4-2.1-2-3.8-4.2-4.6-6.2-.9-1.8-.9-3.3-.1-4.1l1-1L5.8 7l-.3.3c-.4.4-.5 1.1 0 1.6.6.7 1.3 1.4 2 2.1.7.7 1.4 1.3 2.2 1.9.5.4 1.3.4 1.7-.1l.2-.2 6.2 3.4-1.1.9z"/>
</symbol><symbol id="icon-photo-camera" viewBox="0 0 108 88">
    <title>
        photo-camera
    </title>
    <g opacity=".7">
        <path d="M0 26.9v47.8C0 82.1 5.9 88 13.2 88h81.6c7.3 0 13.2-5.9 13.2-13.2V26.9c0-6.9-5.6-12.6-12.5-12.6H77.9l-.4-1.8C75.8 5.1 69.3 0 61.8 0H46.2c-7.5 0-14 5.1-15.7 12.5l-.4 1.8H12.5C5.6 14.3 0 20 0 26.9zm32.2-7.1c1.3 0 2.3-.9 2.6-2.1l.9-3.9c1.1-4.9 5.4-8.3 10.4-8.3h15.6c5 0 9.3 3.4 10.4 8.3l.9 3.9c.3 1.2 1.4 2.1 2.6 2.1h19.7c3.9 0 7.1 3.2 7.1 7.2v47.8c0 4.3-3.5 7.8-7.8 7.8H13.2c-4.3 0-7.8-3.5-7.8-7.8V26.9c0-4 3.2-7.2 7.1-7.2h19.7z"/>
        <circle cx="18.5" cy="31.5" r="3.5"/>
        <path d="M53.5 73C65.9 73 76 62.9 76 50.5S65.9 28 53.5 28 31 38.1 31 50.5 41.1 73 53.5 73zm0-39.6c9.4 0 17.1 7.7 17.1 17.1s-7.7 17.1-17.1 17.1-17.1-7.7-17.1-17.1 7.7-17.1 17.1-17.1z"/>
    </g>
</symbol><symbol id="icon-picture" viewBox="0 0 20 20">
    <title>
        picture
    </title>
    <g>
        <path d="M0 17.9C0 19.1.9 20 2.1 20h15.8c1.2 0 2.1-.9 2.1-2.1V2.1C20 .9 19.1 0 17.9 0H2.1C.9 0 0 .9 0 2.1v15.8zM17.9 19H2.1c-.6 0-1.1-.5-1.1-1.1v-2.6l3.8-3.8L8 14.7c.2.2.5.2.7 0l5.9-5.9 4.4 4.4v4.6c0 .7-.5 1.2-1.1 1.2zM2.1 1h15.8c.6 0 1.1.5 1.1 1.1v9.7l-4.1-4c-.2-.2-.5-.2-.7 0l-5.9 5.9-3.2-3.2c-.2-.2-.5-.2-.7 0L1 13.8V2.1C1 1.5 1.5 1 2.1 1z"/>
        <path d="M6.2 8c1.4 0 2.6-1.2 2.6-2.6S7.6 2.8 6.2 2.8 3.6 4 3.6 5.4 4.8 8 6.2 8zm0-4.2c.9 0 1.6.7 1.6 1.6S7.1 7 6.2 7s-1.6-.7-1.6-1.6.7-1.6 1.6-1.6z"/>
    </g>
</symbol><symbol id="icon-pinterest" viewBox="0 0 14 18">
    <title>
        Shape
    </title>
    <path d="M13.923 6.355c0-3.11-2.581-6.009-6.503-6.009C2.538.346.078 3.92.078 6.9c0 1.804.668 3.409 2.104 4.006.235.098.446.003.514-.262.047-.184.16-.649.209-.841.07-.263.042-.355-.147-.585-.415-.5-.678-1.144-.678-2.058 0-2.65 1.942-5.022 5.058-5.022 2.758 0 4.275 1.72 4.275 4.018 0 3.025-1.31 5.576-3.258 5.576-1.076 0-1.88-.906-1.621-2.02.308-1.327.906-2.762.906-3.72 0-.858-.45-1.576-1.385-1.576-1.099 0-1.981 1.16-1.981 2.715 0 .99.328 1.66.328 1.66l-1.321 5.715c-.179.776-.206 1.628-.181 2.348.075.647.7 1.173 1.243.464.382-.623.792-1.41 1.005-2.198.127-.467.723-2.883.723-2.883.357.695 1.4 1.308 2.51 1.308 3.302-.002 5.542-3.075 5.542-7.19z" fill-rule="nonzero" opacity=".8"/>
</symbol><symbol id="icon-prev" viewBox="0 0 14 25">
    <title>
        Shape
    </title>
    <path d="M13.2 24.3c.3-.3.3-.9 0-1.2L2.6 12.5 13.2 1.9c.3-.3.3-.9 0-1.2s-.9-.3-1.2 0L.7 11.8c-.2.2-.3.4-.3.6 0 .2.1.4.3.6L12 24.2c.4.4.9.4 1.2.1z"/>
</symbol><symbol id="icon-puzzle" viewBox="0 0 22 22">
    <title>
        puzzle
    </title>
    <path d="M21.539 0H.46A.46.46 0 0 0 0 .46v3.953c0 .254.206.46.46.46h1.318a.858.858 0 0 1 0 1.714H.46a.46.46 0 0 0-.46.46v7.905c0 .254.206.46.46.46h1.318a.858.858 0 0 1 0 1.714H.46a.46.46 0 0 0-.46.46v3.953c0 .254.206.46.46.46H11a.46.46 0 0 0 .46-.46v-3.952a.46.46 0 0 0-.46-.46H9.682a.858.858 0 0 1 0-1.715H11a.46.46 0 0 0 .46-.46V11.46h3.031v.857c0 .98.798 1.778 1.778 1.778a1.78 1.78 0 0 0 1.778-1.778v-.857h3.492a.46.46 0 0 0 .46-.46V.46a.46.46 0 0 0-.46-.46zm-11 14.491h-.857a1.78 1.78 0 0 0-1.778 1.778c0 .98.798 1.778 1.778 1.778h.857v3.031H.921v-3.03h.857a1.78 1.78 0 0 0 1.778-1.779 1.78 1.78 0 0 0-1.778-1.778H.92v-3.03h3.492a.46.46 0 0 0 .46-.461V9.682a.858.858 0 0 1 1.714 0V11c0 .254.206.46.46.46h3.492v3.031zM11 6.587a.46.46 0 0 0-.46.46v3.492H7.508v-.857A1.78 1.78 0 0 0 5.73 7.904a1.78 1.78 0 0 0-1.778 1.778v.857H.921V7.508h.857A1.78 1.78 0 0 0 3.556 5.73a1.78 1.78 0 0 0-1.778-1.778H.92V.921h9.618v3.492c0 .254.206.46.46.46h1.318a.858.858 0 0 1 0 1.714H11zm10.08 3.952h-3.492a.46.46 0 0 0-.46.46v1.318a.858.858 0 0 1-1.715 0V11a.46.46 0 0 0-.46-.46H11.46V7.507h.857a1.78 1.78 0 0 0 1.778-1.778 1.78 1.78 0 0 0-1.778-1.778h-.857V.921h9.618v9.618z" fill-rule="nonzero"/>
</symbol><symbol id="icon-reception" viewBox="0 0 38 38">
    <title>
        reception
    </title>
    <g>
        <path d="M37.4 22.3c.4 0 .6-.3.6-.6v-7.6c0-.3-.3-.6-.6-.6h-9.8c-.4-.8-1.1-1.5-2-1.8l-.4-.1c.5-.7.8-1.6.8-2.6 0-2.4-2-4.4-4.4-4.4s-4.4 2-4.4 4.4c0 1 .4 2 1 2.7l-.9.3c-.4.2-.8.4-1.1.7l-2 2H9.8c-1.2 0-2.2 1-2.2 2.2 0 .3.1.7.2.9H1.9c-.4 0-.6.3-.6.6v5H.6c-.4 0-.6.3-.6.6v2.5c0 .2.1.4.3.5l1.9 1.3c.1.1.2.1.4.1h.6v8.8c0 .3.3.6.6.6h30.4c.4 0 .6-.3.6-.6v-8.8h.6c.1 0 .2 0 .4-.1l1.9-1.3c.2-.1.3-.3.3-.5V24c0-.3-.3-.6-.6-.6H33v-1.3h4.4zM21.5 5.9c1.7 0 3.2 1.4 3.2 3.1 0 1-.5 1.9-1.2 2.5-.1.1-.2.1-.3.2-.1 0-.1.1-.2.1-.8.4-1.7.5-2.5.2h-.1c-.1 0-.3-.1-.4-.2-.1 0-.1-.1-.2-.1-.1-.1-.2-.1-.3-.2-.8-.6-1.3-1.5-1.3-2.5.2-1.7 1.6-3.1 3.3-3.1zM9.8 16h4.8c.2 0 .3-.1.4-.2l2.2-2.2c.2-.2.4-.3.6-.4l1.3-.5c.2.1.4.2.5.3.6.3 1.2.4 1.8.4 1 0 1.9-.3 2.6-.8l1.1.3c.3.1.6.3.9.5h-.8c-.4 0-.6.3-.6.6v7.6c0 .3.3.6.6.6h1.3v1.3H19v-6.9c0-.2-.1-.5-.4-.6-.2-.1-.5-.1-.7.1l-2.4 1.8H9.8c-.5 0-.9-.4-.9-.9 0-.6.4-1 .9-1zm7.9 1.9v5.7h-6.3v-4.4h4.4c.1 0 .3 0 .4-.1l1.5-1.2zM2.5 19.1h7.6v4.4H2.5v-4.4zm34.2 5.7v1.6l-1.5 1h-1.1c-.4 0-.6.3-.6.6v8.8H4.4V28c0-.3-.3-.6-.6-.6H2.7l-1.5-1v-1.6h35.5zm-8.8-1.3v-1.3h1.3v1.3h-1.3zm2.5 0v-1.3h1.3v1.3h-1.3zm1.9-2.5H26v-6.3H36.8V21h-4.5z"/>
        <path d="M5.6 0C2.5 0 0 2.5 0 5.6s2.5 5.6 5.6 5.6 5.6-2.5 5.6-5.6S8.6 0 5.6 0zm.6 9.8V8.7H4.9v1.2c-1.8-.3-3.3-1.8-3.6-3.7h1.2V4.9H1.3C1.6 3 3.1 1.5 5 1.2v1.2h1.2V1.3c1.9.3 3.4 1.8 3.7 3.7H8.7v1.2h1.2c-.3 1.9-1.8 3.4-3.7 3.6z"/>
        <path d="M6.5 3.7l-1.3 2-.7-.7-.8.9 1.1 1.3c.2.1.3.2.4.2.2 0 .3-.1.4-.3l1.7-2.6-.8-.8z"/>
    </g>
</symbol><symbol id="icon-room-service" viewBox="0 0 38 38">
    <title>
        room-service
    </title>
    <path d="M37.4 16.5h-1.9c-.3-3.1-2.6-5.7-5.7-6.6v-1c0-1.4-1.1-2.5-2.5-2.5s-2.5 1.1-2.5 2.5v1c-.9.3-1.8.7-2.5 1.3v-.4c0-.1 0-.2-.1-.3l-1.8-3.7V.6c-.1-.3-.4-.6-.8-.6h-2.5c-.4 0-.6.3-.6.6v6.2l-1.8 3.7c0 .1-.1.2-.1.3v5.7h-3.2v-3.9c1.1-.3 1.9-1.3 1.9-2.4V7c0-.3-.3-.6-.6-.6H8.9c-.4-.1-.7.2-.7.6v3.2c0 1.2.8 2.2 1.9 2.4v3.9h-5v-3.9c1.1-.3 1.9-1.3 1.9-2.5V7c0-.3-.3-.6-.6-.6H2.5c-.3-.1-.6.2-.6.6v3.2c0 1.2.8 2.2 1.9 2.4v3.9H.6c-.4 0-.6.3-.6.6v7c0 1.7 1.4 3.2 3.2 3.2h1.3V33c-1.1.3-1.9 1.3-1.9 2.4 0 1.4 1.1 2.5 2.5 2.5s2.5-1.1 2.5-2.5c0-1.2-.8-2.2-1.9-2.4v-2h26.6v2c-1.1.3-1.9 1.3-1.9 2.4 0 1.4 1.1 2.5 2.5 2.5s2.5-1.1 2.5-2.5c0-1.2-.8-2.2-1.9-2.4V27.2h1.3c1.7 0 3.2-1.4 3.2-3.2v-7c0-.2-.3-.5-.6-.5zM26 8.9c0-.7.6-1.3 1.3-1.3s1.3.6 1.3 1.3v.7h-2.3-.1v-.7zm-4.9 5.2c0-.1.1-.1.1-.2.1-.1.1-.2.2-.3 0-.1.1-.1.1-.2.1-.1.2-.3.4-.4.9-1 2.1-1.7 3.5-2 .3-.1.6-.1.8-.2h.1c.6-.1 1.1-.1 1.7 0h.1c.3 0 .6.1.8.2 2.8.7 4.9 2.8 5.2 5.5H20.3v-.3-.2c0-.1.1-.3.1-.4v-.1c0-.2.1-.3.2-.5v-.1c0-.1.1-.1.1-.2.1-.1.1-.2.2-.3.1-.2.2-.2.2-.3zM17.7 1.3H19v1.3h-1.3V1.3zm0 5.9c0-.1.1-.2.1-.3V3.8H19V7c0 .1 0 .2.1.3l1.8 3.5H16l1.7-3.6zM15.8 12h5.1v.2c-.1.1-.2.2-.2.3l-.2.2c-.1.1-.1.2-.2.3 0 0 0 .1-.1.1 0 .1-.1.1-.1.2-.1.1-.1.2-.2.3 0 .1-.1.2-.1.2v.1h-3.9V12zm0 3.2h3.4c0 .1 0 .2-.1.2 0 .1 0 .2-.1.3 0 .1-.1.3-.1.4V16.4h-3.2v-1.2zm-6.3-5.1V7.6H12v2.5c0 .7-.6 1.3-1.3 1.3s-1.2-.6-1.2-1.3zm-6.3 0V7.6h2.5v2.5c0 .7-.6 1.3-1.3 1.3s-1.2-.6-1.2-1.3zm3.1 25.4c0 .7-.6 1.3-1.3 1.3s-1.3-.6-1.3-1.3.6-1.3 1.3-1.3 1.3.6 1.3 1.3zm-.6-5.7v-2.5h26.6v2.5H5.7zm28.5 5.7c0 .7-.6 1.3-1.3 1.3s-1.3-.6-1.3-1.3.6-1.3 1.3-1.3 1.3.6 1.3 1.3zm2.5-11.4c0 1-.9 1.9-1.9 1.9H3.2c-1 0-1.9-.9-1.9-1.9v-6.3h35.4v6.3z"/>
</symbol><symbol id="icon-sort" viewBox="0 0 16 16">
    <title>
        sort
    </title>
    <g fill-rule="nonzero">
        <path d="M12.239 15.584c0 .23.173.416.388.416.214 0 .388-.186.388-.416V1.41l2.322 2.49a.372.372 0 0 0 .55 0 .434.434 0 0 0 0-.585L12.904.117a.377.377 0 0 0-.546 0L9.377 3.315a.434.434 0 0 0 0 .586.367.367 0 0 0 .546 0l2.322-2.491v14.174h-.006z"/>
        <path d="M6.625 12.096a.367.367 0 0 0-.546 0l-2.323 2.49V.416c0-.23-.174-.416-.388-.416-.215 0-.388.186-.388.416v14.17l-2.32-2.49a.367.367 0 0 0-.546 0 .434.434 0 0 0 0 .585l2.982 3.197a.372.372 0 0 0 .55 0l2.982-3.197a.444.444 0 0 0-.003-.585z"/>
    </g>
</symbol><symbol id="icon-speech-bubble" viewBox="0 0 81 81">
    <title>
        speech-bubble
    </title>
    <g fill-rule="evenodd">
        <path d="M69.04 44.163a3.983 3.983 0 0 0-5.625 0L42.908 64.67l-2.827 10.364-.692.692a1.33 1.33 0 0 0-.008 1.872l-.006.026.025-.006a1.329 1.329 0 0 0 1.873-.008l.693-.693L52.33 74.09l20.508-20.507a3.984 3.984 0 0 0 0-5.625l-3.798-3.796zm-23.055 21.2l13.648-13.648 5.654 5.653-13.649 13.648-5.653-5.654zm-1.203 2.564l4.29 4.29-5.9 1.61 1.61-5.9zm26.172-16.225l-3.783 3.782-5.654-5.653 3.783-3.783a1.313 1.313 0 0 1 1.858 0l3.796 3.798c.511.51.511 1.344 0 1.856z" fill-rule="nonzero"/>
        <path d="M56.7 0H24.3C10.9 0 0 10.899 0 24.294v18.895c0 12.943 10.176 23.555 22.95 24.258v11.261c0 .93.554 1.762 1.414 2.117a2.287 2.287 0 0 0 2.496-.497l2.534-2.532a35.077 35.077 0 0 1 8.763-6.393 1.35 1.35 0 0 0 .582-1.818 1.347 1.347 0 0 0-1.818-.582 37.767 37.767 0 0 0-9.435 6.884l-1.836 1.835V64.784H24.3c-11.91 0-21.6-9.688-21.6-21.595V24.294c0-11.907 9.69-21.595 21.6-21.595h32.4c11.909 0 21.599 9.688 21.599 21.595v18.895a21.4 21.4 0 0 1-1.993 9.016 1.35 1.35 0 0 0 2.453 1.131A24.085 24.085 0 0 0 81 43.189V24.294C80.999 10.899 70.099 0 56.7 0z" fill-rule="nonzero"/>
        <circle cx="20.5" cy="33.5" r="2.5"/>
        <circle cx="40.5" cy="33.5" r="2.5"/>
        <circle cx="60.5" cy="33.5" r="2.5"/>
    </g>
</symbol><symbol id="icon-spinner-circle" viewBox="0 0 58 56">
    <title>
        spinner-circle
    </title>
    <path d="M58 28.9c-.1-3.9-.9-7.8-2.5-11.3-1.6-3.6-3.8-6.8-6.6-9.4-2.8-2.7-6.1-4.8-9.6-6.2C35.7.6 31.9-.1 28.1 0c-3.8.1-7.6.9-11 2.4-3.5 1.5-6.6 3.7-9.2 6.4-2.6 2.7-4.6 5.9-6 9.3-1.4 3.4-2 7.1-1.9 10.8.1 3.7.9 7.3 2.3 10.6 1.5 3.3 3.6 6.3 6.2 8.8 2.6 2.5 5.7 4.5 9 5.8 3.3 1.3 6.9 1.9 10.5 1.8 3.5-.1 7.1-.8 10.3-2.3 3.2-1.4 6.1-3.5 8.6-6 2.4-2.5 4.3-5.5 5.6-8.7.8-2 1.3-4 1.6-6.1h.2c2.1 0 3.7-1.7 3.7-3.7v-.2zm-5.9 9.9c-1.4 3.1-3.4 5.9-5.8 8.2-2.4 2.3-5.3 4.2-8.4 5.4-3.1 1.2-6.4 1.8-9.8 1.7-3.3-.1-6.6-.8-9.6-2.1s-5.7-3.2-8-5.6c-2.2-2.3-4-5.1-5.2-8.1-1.2-3-1.7-6.2-1.6-9.4.1-3.2.8-6.3 2.1-9.2 1.3-2.9 3.1-5.5 5.4-7.6 2.3-2.2 4.9-3.8 7.8-4.9 2.9-1.1 6-1.6 9-1.6 3.1.1 6.1.8 8.9 2 2.8 1.2 5.3 3 7.3 5.2 2.1 2.2 3.7 4.7 4.8 7.5 1.1 2.8 1.6 5.7 1.5 8.7v.3c0 1.9 1.5 3.5 3.3 3.7-.3 2-.9 4-1.7 5.8z"/>
</symbol><symbol id="icon-star" viewBox="0 0 15 15">
    <title>
        Star
    </title>
    <path d="M7.5 12.4L2.9 15l.9-5.4L0 5.7l5.2-.8L7.5 0l2.3 4.9 5.2.8-3.8 3.9.9 5.4z"/>
</symbol><symbol id="icon-success" viewBox="0 0 56 56">
    <title>
        success
    </title>
    <path d="M28 0C12.561 0 0 12.56 0 28s12.561 28 28 28 28-12.56 28-28S43.439 0 28 0zm15.61 18.662L26.38 38.047a2.152 2.152 0 0 1-2.956.25l-10.77-8.615a2.154 2.154 0 0 1 2.691-3.364l9.172 7.337L40.39 15.798a2.155 2.155 0 0 1 3.22 2.864z" fill-rule="nonzero"/>
</symbol><symbol id="icon-sunset" viewBox="0 0 36 30">
    <title>
        sunset
    </title>
    <g fill-rule="nonzero">
        <path d="M35.7 24.704a4.908 4.908 0 0 0-5.563 0 3.867 3.867 0 0 1-4.383 0 4.909 4.909 0 0 0-5.563 0 3.867 3.867 0 0 1-4.382 0 4.908 4.908 0 0 0-5.563 0 3.867 3.867 0 0 1-4.383 0 4.908 4.908 0 0 0-5.562 0 .53.53 0 0 0-.14.734c.162.241.49.304.73.14a3.867 3.867 0 0 1 4.382 0 4.909 4.909 0 0 0 5.563 0 3.867 3.867 0 0 1 4.383 0 4.927 4.927 0 0 0 2.781.865c.968 0 1.937-.288 2.781-.864a3.867 3.867 0 0 1 4.383 0 4.909 4.909 0 0 0 5.563 0 3.867 3.867 0 0 1 4.383 0c.24.163.566.1.73-.141a.53.53 0 0 0-.14-.734z"/>
        <path d="M35.7 28.225a4.908 4.908 0 0 0-5.563 0 3.867 3.867 0 0 1-4.383 0 4.909 4.909 0 0 0-5.563 0 3.867 3.867 0 0 1-4.382 0 4.908 4.908 0 0 0-5.563 0 3.867 3.867 0 0 1-4.383 0 4.908 4.908 0 0 0-5.562 0 .53.53 0 0 0-.14.734c.162.241.49.304.73.14a3.867 3.867 0 0 1 4.382 0 4.909 4.909 0 0 0 5.563 0 3.867 3.867 0 0 1 4.383 0 4.927 4.927 0 0 0 2.781.864c.968 0 1.937-.288 2.781-.864a3.867 3.867 0 0 1 4.383 0 4.909 4.909 0 0 0 5.563 0 3.867 3.867 0 0 1 4.383 0c.24.164.567.101.73-.14a.53.53 0 0 0-.14-.734z"/>
        <path d="M35.7 21.183a4.904 4.904 0 0 0-4.391-.591 13.89 13.89 0 0 0-4.593-7.206A13.73 13.73 0 0 0 18 10.254c-3.771 0-7.29 1.506-9.907 4.239a.53.53 0 0 0 .015.747.524.524 0 0 0 .743-.014C11.268 12.7 14.517 11.31 18 11.31a12.68 12.68 0 0 1 8.049 2.892 12.826 12.826 0 0 1 4.29 6.85 4.947 4.947 0 0 0-.203.13 3.867 3.867 0 0 1-4.383 0 4.909 4.909 0 0 0-5.563 0 3.867 3.867 0 0 1-4.382 0 4.908 4.908 0 0 0-5.563 0 3.867 3.867 0 0 1-4.383 0 5.107 5.107 0 0 0-.203-.13 12.672 12.672 0 0 1 1.906-4.254.53.53 0 0 0-.13-.735.524.524 0 0 0-.732.132 13.727 13.727 0 0 0-2.013 4.396 4.905 4.905 0 0 0-4.39.591.53.53 0 0 0-.14.734c.163.242.49.305.73.141a3.867 3.867 0 0 1 4.382 0 4.909 4.909 0 0 0 5.563 0 3.867 3.867 0 0 1 4.383 0 4.927 4.927 0 0 0 2.781.864c.968 0 1.937-.288 2.781-.864a3.867 3.867 0 0 1 4.383 0 4.909 4.909 0 0 0 5.563 0 3.965 3.965 0 0 1 .474-.277 3.863 3.863 0 0 1 3.909.277c.24.164.566.1.73-.14a.53.53 0 0 0-.14-.735z"/>
        <path d="M18 5.311a.527.527 0 0 0-.525.529v2.838c0 .292.235.529.525.529.29 0 .526-.237.526-.529V5.84A.527.527 0 0 0 18 5.31z"/>
        <path d="M28.038 8.256a.524.524 0 0 0-.725.162l-1.518 2.393c-.243.383.09.783.442.808a.473.473 0 0 0 .444-.24l1.518-2.393a.53.53 0 0 0-.16-.73z"/>
        <path d="M34.927 16.167a.524.524 0 0 0-.699-.257l-2.56 1.197a.53.53 0 0 0-.254.702c.12.26.44.377.698.256l2.56-1.196a.53.53 0 0 0 .255-.702z"/>
        <path d="M10.206 10.81L8.688 8.419a.524.524 0 0 0-.726-.162.53.53 0 0 0-.16.73l1.518 2.393a.53.53 0 0 0 .725.161.53.53 0 0 0 .16-.73z"/>
        <path d="M4.332 17.107l-2.56-1.197a.524.524 0 0 0-.698.257.53.53 0 0 0 .255.701l2.56 1.197a.53.53 0 0 0 .443-.958z"/>
        <path d="M13.597 2.803a.525.525 0 0 0-.626-.402 2.48 2.48 0 0 0-1.614 1.324 2.468 2.468 0 0 0-2.05-.368.529.529 0 0 0 .3 1.012c.04-.012.975-.28 1.577.698.12.194.36.29.58.233a.527.527 0 0 0 .392-.486c.052-1.109.945-1.357 1.041-1.381a.528.528 0 0 0 .4-.63z"/>
        <path d="M7.15.451A.525.525 0 0 0 6.522.05C6.069.15 5.304.544 4.909 1.374a2.467 2.467 0 0 0-2.05-.37.529.529 0 0 0 .3 1.013c.04-.011.975-.279 1.577.698a.53.53 0 0 0 .579.234.528.528 0 0 0 .393-.487c.052-1.109.945-1.357 1.041-1.38a.528.528 0 0 0 .4-.63z"/>
        <path d="M6.582 5.933a.525.525 0 0 0-.626-.402 2.48 2.48 0 0 0-1.614 1.325 2.467 2.467 0 0 0-2.05-.37.53.53 0 0 0-.356.659c.083.28.374.44.652.356.1-.028 1-.247 1.582.696.12.194.36.29.578.233a.527.527 0 0 0 .393-.486c.052-1.109.945-1.357 1.042-1.38a.528.528 0 0 0 .4-.63z"/>
    </g>
</symbol><symbol id="icon-toiletries" viewBox="0 0 20 25">
    <title>
        toiletries
    </title>
    <path d="M5.247 15.342h-.012V13.76c0-.832-.655-1.508-1.46-1.508h-.99c-.806 0-1.46.676-1.46 1.508v1.582h-.013C.59 15.342 0 15.949 0 16.696v6.95C0 24.392.589 25 1.312 25h3.935c.723 0 1.312-.608 1.312-1.354v-6.95c0-.747-.589-1.354-1.312-1.354zM2.242 13.76c0-.31.243-.56.542-.56h.99c.3 0 .543.25.543.56v1.582H2.242V13.76zm3.4 9.886c0 .22-.181.407-.395.407H1.312a.406.406 0 0 1-.394-.407v-6.95c0-.224.177-.407.394-.407h3.935c.214 0 .394.186.394.407v6.95zM16.27 2.48v.608h3.271c.253 0 .459.212.459.473a.466.466 0 0 1-.459.474h-3.73a.466.466 0 0 1-.46-.474V2.006c0-.262.206-.474.46-.474h3.73c.253 0 .459.212.459.474a.466.466 0 0 1-.459.474H16.27zm2.994 11.747c.087.098.13.228.12.36l-.796 9.978a.465.465 0 0 1-.458.435h-4.74a.466.466 0 0 1-.458-.474c0-.261.205-.473.459-.473h4.317l.72-9.031h-5.037a.466.466 0 0 1-.46-.474c0-.262.206-.474.46-.474h5.536c.128 0 .25.056.337.153zm-5.396-1.446V1.24c0-.684.538-1.24 1.2-1.24h4.473c.254 0 .459.212.459.474a.466.466 0 0 1-.459.473H15.07a.288.288 0 0 0-.284.293V12.78a.466.466 0 0 1-.459.474.467.467 0 0 1-.458-.474zm2.402-7.214v.608h3.271c.253 0 .459.212.459.474a.466.466 0 0 1-.459.473h-3.73a.466.466 0 0 1-.46-.473V5.094c0-.262.206-.474.46-.474h3.73c.253 0 .459.212.459.474a.466.466 0 0 1-.459.473H16.27zm-5.496 2.14h-.765v-2.11c0-.692-.385-1.292-.946-1.585V2.367a.466.466 0 0 0-.459-.474h-.476V.487.474A.466.466 0 0 0 7.669 0H3.354a.816.816 0 0 0-.801.827v.967c0 .261.205.473.459.473a.466.466 0 0 0 .458-.473V.947h3.74v.946h-.476a.466.466 0 0 0-.459.474v1.645c-.56.293-.946.893-.946 1.584v2.111h-.765c-.724 0-1.312.608-1.312 1.355v1.586c0 .262.205.474.459.474a.466.466 0 0 0 .459-.474V9.062c0-.225.176-.407.394-.407h6.21c.217 0 .394.182.394.407v14.584a.401.401 0 0 1-.394.407h-3.16a.466.466 0 0 0-.46.473c0 .262.206.474.46.474h3.16c.723 0 1.312-.608 1.312-1.354V9.062c0-.747-.588-1.355-1.312-1.355zM7.193 2.84h.952v.983h-.952V2.84zM9.09 7.707H6.247v-2.11c0-.456.359-.826.8-.826H8.29c.441 0 .8.37.8.825v2.111zM20 8.181a.466.466 0 0 1-.459.474H16.27v4.126a.466.466 0 0 1-.46.474.466.466 0 0 1-.458-.474v-4.6c0-.262.205-.474.459-.474h3.73c.253 0 .459.212.459.474z" fill-rule="nonzero"/>
</symbol><symbol id="icon-train" viewBox="0 0 20 24">
    <title>
        train
    </title>
    <g fill-rule="nonzero">
        <path d="M17.074 0H2.921C1.314 0 .008 1.21.008 2.698v13.105c0 1.488 1.306 2.698 2.913 2.698h.71l-1.526 5.296.8.203.25-.87H16.84l.25.87.806-.198-1.525-5.296h.71c1.606 0 2.912-1.21 2.912-2.698V2.698C19.987 1.209 18.682 0 17.074 0zm-.46 22.36H3.38l.444-1.54h12.347l.444 1.54zm-12.57-2.314l.443-1.54h11.02l.445 1.54H4.043zm15.112-4.243c0 1.063-.934 1.928-2.082 1.928H2.921c-1.148 0-2.082-.865-2.082-1.928V2.698C.84 1.635 1.773.77 2.921.77h14.153c1.148 0 2.082.865 2.082 1.928v13.105z"/>
        <path d="M16.66 3.855H3.335c-.689 0-1.25.52-1.25 1.158v4.625c0 .638.561 1.157 1.25 1.157h13.322c.688 0 1.25-.52 1.25-1.157V5.013c0-.638-.557-1.158-1.245-1.158zM9.585 10.02h-6.25a.394.394 0 0 1-.413-.382V5.013c0-.213.189-.388.418-.388h6.245v5.395zm7.495-.382h-.005c0 .212-.189.387-.418.387h-6.24v-5.4h6.245c.23 0 .418.175.418.388v4.625z"/>
        <path d="M5.834 12.335c-1.148 0-2.081.865-2.081 1.928s.933 1.928 2.081 1.928 2.082-.865 2.082-1.928-.934-1.928-2.082-1.928zm0 3.085c-.689 0-1.25-.52-1.25-1.157 0-.638.561-1.157 1.25-1.157s1.25.52 1.25 1.157c0 .638-.561 1.157-1.25 1.157z"/>
        <path d="M14.16 12.335c-1.147 0-2.08.865-2.08 1.928s.933 1.928 2.08 1.928c1.149 0 2.082-.865 2.082-1.928s-.933-1.928-2.081-1.928zm0 3.085c-.688 0-1.25-.52-1.25-1.157 0-.638.562-1.157 1.25-1.157.69 0 1.25.52 1.25 1.157 0 .638-.56 1.157-1.25 1.157z"/>
    </g>
</symbol><symbol id="icon-tree" viewBox="0 0 39 38">
    <title>
        tree
    </title>
    <g fill-rule="nonzero">
        <path d="M8.332 8.042C3.735 8.042 0 11.845 0 16.526c0 4.535 3.496 8.241 7.853 8.485v12.434c0 .293.192.488.479.488s.479-.195.479-.488V25.011c4.357-.244 7.853-3.95 7.853-8.485 0-4.68-3.735-8.484-8.332-8.484zm.479 16.043v-2.39l3.495-3.56a.477.477 0 0 0 0-.682.457.457 0 0 0-.67 0L8.811 20.33V15.16c0-.292-.192-.487-.479-.487s-.479.195-.479.487v5.12l-2.825-2.877a.457.457 0 0 0-.67 0 .477.477 0 0 0 0 .683l3.495 3.56v2.389c-3.83-.244-6.895-3.511-6.895-7.51 0-4.096 3.304-7.46 7.374-7.46s7.374 3.364 7.374 7.51c0 3.998-3.064 7.216-6.895 7.509z"/>
        <path d="M28.444.045c-5.794 0-10.535 4.827-10.535 10.728 0 2.438.814 4.778 2.298 6.68-2.585.488-4.644 2.926-4.644 5.803 0 3.12 2.346 5.656 5.315 5.9v8.29c0 .292.191.487.479.487.287 0 .479-.195.479-.488v-8.29c2.968-.243 5.315-2.779 5.315-5.9 0-.682-.096-1.316-.335-1.95l1.149.146v15.994c0 .293.191.488.479.488.287 0 .478-.195.478-.488V21.451c5.603-.243 10.056-4.973 10.056-10.678 0-5.9-4.74-10.728-10.534-10.728zm-6.608 28.136v-1.415l2.346-2.389a.477.477 0 0 0 0-.683.457.457 0 0 0-.67 0l-1.629 1.658v-3.12c0-.293-.191-.488-.478-.488-.288 0-.48.195-.48.488v3.12l-1.627-1.658a.457.457 0 0 0-.67 0 .477.477 0 0 0 0 .683l2.346 2.39v1.414c-2.443-.244-4.358-2.341-4.358-4.925a4.74 4.74 0 0 1 4.645-4.925h.096c2.681 0 4.836 2.243 4.836 4.925 0 2.584-1.915 4.68-4.357 4.925zm7.134-7.705V17.21l4.502-4.583a.477.477 0 0 0 0-.683.457.457 0 0 0-.67 0l-3.832 3.9V8.92c0-.293-.191-.488-.478-.488-.288 0-.48.195-.48.488v6.875l-3.83-3.9a.457.457 0 0 0-.67 0 .477.477 0 0 0 0 .682l4.5 4.583v3.267c-.526-.048-1.1-.097-1.675-.243a5.824 5.824 0 0 0-4.885-2.877 9.824 9.824 0 0 1-2.537-6.583c0-5.364 4.31-9.704 9.577-9.704s9.576 4.389 9.576 9.753c0 5.217-4.022 9.46-9.098 9.703z"/>
    </g>
</symbol><symbol id="icon-tv" viewBox="0 0 26 25">
    <title>
        tv
    </title>
    <g>
        <path d="M24.2 5.6H13.8L16.9.7c.1-.2.1-.5-.1-.6-.3-.1-.6-.1-.7.1l-3.1 5-3.5-5C9.3 0 9 0 8.8.1c-.1.1-.2.4-.1.6l3.4 4.9H1.7C.8 5.6 0 6.4 0 7.3v14.6c0 .9.8 1.7 1.7 1.7h.4v.9c0 .3.2.4.4.4s.5-.1.5-.4v-.9h19.9v.9c0 .3.2.4.4.4.3 0 .4-.2.4-.4v-.9h.4c1 0 1.7-.8 1.7-1.7V7.3c.2-.9-.6-1.7-1.6-1.7zm.9 16.3c0 .5-.4.9-.9.9H1.7c-.5 0-.9-.4-.9-.9V7.3c0-.5.4-.9.9-.9h22.5c.5 0 .9.4.9.9v14.6z"/>
        <path d="M16.5 7.3H4.3c-1.4 0-2.6 1.2-2.6 2.6v9.5c0 1.4 1.2 2.6 2.6 2.6h12.1c1.4 0 2.6-1.2 2.6-2.6V9.9c.1-1.4-1.1-2.6-2.5-2.6zm1.7 12.1c0 .9-.8 1.7-1.7 1.7H4.3c-1 0-1.7-.8-1.7-1.7V9.9c0-.9.8-1.7 1.7-1.7h12.1c1 0 1.7.8 1.7 1.7l.1 9.5z"/>
        <path d="M23.8 9.5h-3.5c-.3 0-.4.2-.4.4s.2.4.4.4h3.5c.3 0 .4-.2.4-.4s-.1-.4-.4-.4z"/>
        <path d="M23.8 11.2h-3.5c-.3 0-.4.2-.4.4s.2.4.4.4h3.5c.3 0 .4-.2.4-.4s-.1-.4-.4-.4z"/>
        <path d="M23.8 12.9h-3.5c-.3 0-.4.2-.4.4s.2.4.4.4h3.5c.3 0 .4-.2.4-.4s-.1-.4-.4-.4z"/>
        <path d="M23.8 14.6h-3.5c-.3 0-.4.2-.4.4v3.4c0 .3.2.4.4.4h3.5c.3 0 .4-.2.4-.4V15c0-.2-.1-.4-.4-.4zm-.4 3.5h-2.6v-2.6h2.6v2.6z"/>
    </g>
</symbol><symbol id="icon-twitter" viewBox="0 0 16 14">
    <title>
        Shape
    </title>
    <path d="M14.432 4.018a9.83 9.83 0 0 0-.01-.45 6.814 6.814 0 0 0 1.655-1.778 6.35 6.35 0 0 1-1.904.52A3.402 3.402 0 0 0 15.631.407c-.641.388-1.35.667-2.104.811a3.297 3.297 0 0 0-2.42-1.141C9.278.047 7.795 1.593 7.795 3.53c0 .275.029.543.086.8C5.124 4.154 2.682 2.72 1.048.557A3.67 3.67 0 0 0 .6 2.33c0 1.227.585 2.318 1.474 2.961a3.172 3.172 0 0 1-1.502-.46v.046c0 1.715 1.143 3.153 2.66 3.488a3.139 3.139 0 0 1-1.497.05c.422 1.406 1.646 2.433 3.096 2.467A6.396 6.396 0 0 1-.076 12.33a8.94 8.94 0 0 0 5.081 1.593c6.095.002 9.427-5.303 9.427-9.905z" fill-rule="nonzero" opacity=".8"/>
</symbol><symbol id="icon-vegetables" viewBox="0 0 36 30">
    <title>
        vegetables
    </title>
    <g fill-rule="nonzero">
        <path d="M35.813 15.53a1.055 1.055 0 0 0-.94-.576h-2.606a7.546 7.546 0 0 0 1.266-3.59.599.599 0 0 0-.348-.542 5.645 5.645 0 0 0-4.046-.425l3.996-3.54a3.115 3.115 0 0 0 1.165-3.38l.242.081a.6.6 0 1 0 .379-1.134l-.878-.292 1.112-1.11a.598.598 0 0 0-.847-.846l-1.111 1.11-.292-.877a.6.6 0 0 0-1.137.379l.16.48a3.108 3.108 0 0 0-3.174 1.213l-4.288 4.831a2.605 2.605 0 0 0-.733-1.195.6.6 0 0 0-.525-.117A16.914 16.914 0 0 0 17.86 8.52a5.395 5.395 0 0 0-4.615-4.288 2.394 2.394 0 0 1 2.325-1.84.598.598 0 1 0 0-1.196c-1.206 0-2.33.605-2.995 1.609a3.592 3.592 0 0 0-2.993-1.61.598.598 0 1 0 0 1.197 2.394 2.394 0 0 1 2.324 1.84 5.387 5.387 0 0 0-4.712 5.19c-1.7-1.358-3.066-1.052-3.147-1.03a.597.597 0 0 0-.323.206 6.991 6.991 0 0 0-1.026 6.355H1.055a1.053 1.053 0 0 0-.853 1.673l.193.471a21.726 21.726 0 0 0 8.587 10.154v.928a1.73 1.73 0 0 0 1.729 1.727h14.506a1.73 1.73 0 0 0 1.73-1.727v-.928A21.716 21.716 0 0 0 35.532 17.1l.195-.473c.233-.32.266-.744.086-1.098zM32.29 11.74a8.085 8.085 0 0 1-1.456 3.213H29.49l-.014-.031a6.632 6.632 0 0 0-.284-.621l-.052-.095a6.555 6.555 0 0 0-.331-.547l-.034-.05a6.534 6.534 0 0 0-.973-1.119 4.033 4.033 0 0 1 4.488-.75zM23.986 10.5c.035-.07.071-.138.103-.205.066-.141.126-.28.18-.42.038-.098.068-.193.1-.288l.053-.17c.032-.112.06-.22.082-.326l.008-.028 1.07-1.206.94.94a.6.6 0 0 0 .847-.846l-.991-.99 1.174-1.323.767.767a.6.6 0 0 0 .847-.846l-.818-.817.892-1.006.876.874a.6.6 0 0 0 .846-.846l-.916-.915a1.93 1.93 0 0 1 1.08-.45 1.934 1.934 0 1 1 1.286 3.504.539.539 0 0 0-.05.04l-6.17 5.465a6.582 6.582 0 0 0-2.339-.621l-.015-.002c.054-.096.1-.19.148-.285zm-.234 1.491c.21.015.417.041.623.08.046.009.092.02.137.03.225.048.446.111.662.188l.107.04a5.333 5.333 0 0 1 1.878 1.215c.027.026.056.051.083.079.165.172.318.356.458.55.02.027.044.052.064.08.157.223.297.457.418.7h-9.655a5.369 5.369 0 0 1 2.046-2.218c.02-.012.041-.021.061-.033.199-.116.404-.22.616-.31.044-.018.09-.032.135-.05.192-.076.389-.14.588-.194.066-.018.133-.028.199-.043a5.39 5.39 0 0 1 .563-.099c.08-.009.16-.01.241-.016.188-.015.377-.02.566-.014.07.003.14.01.21.015zm-5.99-1.835a14.608 14.608 0 0 1 5.38-2.894 2.13 2.13 0 0 1 .193 1.545 3.666 3.666 0 0 1-.143.516 4.905 4.905 0 0 1-.164.41l-.054.117c-.075.154-.16.312-.255.473l-.062.108a8.961 8.961 0 0 1-.272.409c-.286.042-.57.104-.847.183l-.013.004a6.538 6.538 0 0 0-3.962 3.186c-.125.23-.237.468-.334.712-.004.01-.01.019-.013.029h-1.161c-.014-.071-.033-.143-.044-.214l-.019-.122a5.053 5.053 0 0 1-.044-.638l.001-.057c.01-.912.286-1.801.793-2.56l.038-.058c.283-.42.613-.804.983-1.149zM9.172 7.12a4.182 4.182 0 0 1 3.403-1.736 4.198 4.198 0 0 1 4.187 4.076c-.023.023-.041.047-.064.07a8.297 8.297 0 0 0-.415.456c-.042.05-.084.1-.124.15a7.253 7.253 0 0 0-.355.483l-.096.144c-.046.073-.1.14-.143.215a5.816 5.816 0 0 0-.791 2.472l-.003.038a5.913 5.913 0 0 0-.015.643l.004.13c.01.19.03.383.057.576.006.04.005.078.011.117h-.807c-.022-.055-.054-.104-.078-.157a4.71 4.71 0 0 0-.358-.65 4.69 4.69 0 0 0-.984-1.088c-.082-.068-.163-.136-.25-.197a4.836 4.836 0 0 0-.356-.225c-.09-.052-.175-.108-.267-.154-.132-.067-.27-.12-.407-.175-.09-.036-.178-.077-.27-.107a4.784 4.784 0 0 0-.48-.12c-.08-.018-.158-.043-.24-.056a4.705 4.705 0 0 0-.75-.062c-.086 0-.17.003-.25.009-.08-.13-.163-.258-.247-.387a13.504 13.504 0 0 0-.48-.691A4.17 4.17 0 0 1 9.17 7.12zm-.629 6.2l.022-.007c.165-.049.333-.085.502-.11.048-.007.106-.013.162-.02.296-.038.596-.03.89.02.055.01.11.023.164.035a3.602 3.602 0 0 1 .535.151c.11.04.216.087.32.138.056.027.11.052.164.081.115.064.226.135.333.21.036.026.074.047.108.073.14.105.27.22.393.343.029.03.054.062.081.092.092.098.178.201.258.309.037.049.07.101.103.152.036.054.067.11.1.167H6.48c.014-.025.026-.051.041-.075a3.638 3.638 0 0 1 .282-.394 3.493 3.493 0 0 1 .334-.354 3.591 3.591 0 0 1 .389-.313c.058-.04.115-.08.175-.118.091-.055.185-.105.28-.153.046-.023.09-.047.137-.068.138-.062.279-.115.423-.159zM4.52 9.538c.471.02 1.68.194 3.081 2.018.105.136.213.288.328.454l.107.156.029.047c-.035.012-.066.03-.1.042a4.774 4.774 0 0 0-.678.306c-.4.22-.769.494-1.092.817l-.087.09a4.788 4.788 0 0 0-.421.505l-.027.034a4.75 4.75 0 0 0-.353.594c-.023.046-.044.093-.066.14-.033.071-.07.14-.1.213H3.974a5.715 5.715 0 0 1 .546-5.416zm29.904 7.109a20.52 20.52 0 0 1-8.255 9.671h-1.618a.598.598 0 1 0 0 1.196h1.198v.666c0 .293-.238.53-.532.53H10.711a.532.532 0 0 1-.532-.53v-.666h7.186a.598.598 0 1 0 0-1.196H9.76a20.514 20.514 0 0 1-8.256-9.673L1.3 16.15h33.328l-.204.497z"/>
        <path d="M26.6 18.176c.108 0 .214-.03.306-.084a14.814 14.814 0 0 0 5.631-6.26.597.597 0 0 0-.623-.828.599.599 0 0 0-.478.36 13.486 13.486 0 0 1-5.135 5.695.584.584 0 0 0-.06.04l-.002.002a.597.597 0 0 0 .36 1.075z"/>
        <path d="M10.599 16.589a.599.599 0 0 0 .599-.598 1.797 1.797 0 0 1 1.796-1.795.598.598 0 1 0 0-1.196A2.995 2.995 0 0 0 10 15.99a.597.597 0 0 0 .599.599z"/>
    </g>
</symbol><symbol id="icon-walking" viewBox="0 0 10 20">
    <title>
        walking
    </title>
    <g fill-rule="nonzero">
        <path d="M4.527 3.228c.419-.014.77-.184 1.053-.51a1.61 1.61 0 0 0 .405-1.146A1.65 1.65 0 0 0 5.519.447 1.36 1.36 0 0 0 4.446 0c-.418.014-.769.184-1.052.51a1.69 1.69 0 0 0-.426 1.146c0 .439.156.814.466 1.125.31.312.675.46 1.093.446z"/>
        <path d="M9.649 8.6L7.422 7.326 5.6 4.268c-.35-.453-.783-.679-1.296-.679-.35 0-.688.156-1.012.467L.54 6.986a.957.957 0 0 0-.162.382l-.364 3.27v.085c0 .198.067.368.202.51a.648.648 0 0 0 .486.212c.19 0 .344-.071.466-.213a.934.934 0 0 0 .223-.467l.283-2.802.972-1.02-.891 7.814-1.58 3.694c-.053.17-.08.325-.08.467 0 .311.101.574.304.786a.87.87 0 0 0 .749.276c.404 0 .701-.199.89-.595l1.7-3.991c0-.029.014-.078.041-.149.027-.07.054-.134.081-.19a.392.392 0 0 0 .04-.17l.203-1.912 1.741 6.285c.189.51.526.75 1.012.722a.95.95 0 0 0 .709-.319c.202-.212.303-.474.303-.785a.362.362 0 0 0-.02-.106.365.365 0 0 1-.02-.107l-2.43-8.705.284-2.845.688 1.147a.741.741 0 0 0 .203.212L8.96 9.874c.162.056.27.084.324.084.19 0 .351-.077.486-.233a.788.788 0 0 0 .203-.53.672.672 0 0 0-.324-.595z"/>
    </g>
</symbol><symbol id="icon-wifi" viewBox="0 0 39 31">
    <title>
        wifi
    </title>
    <g>
        <path d="M38.7 9.2C33.6 3.7 26.7.7 19.4.7S5.3 3.7.2 9.2c-.3.3-.3.8 0 1.1s.7.3 1 0C6.1 5 12.6 2.2 19.5 2.2s13.4 2.8 18.2 8c.1.1.3.2.5.2s.4-.1.5-.2c.3-.3.3-.7 0-1z"/>
        <path d="M4.4 13.6c-.3.3-.3.8 0 1.1.1.1.3.2.5.2s.4-.1.5-.2c7.8-8.3 20.4-8.3 28.2 0 .3.3.7.3 1 0s.3-.8 0-1.1c-8.4-8.9-21.9-8.9-30.2 0z"/>
        <path d="M19.5 13.2c-4.1 0-8 1.7-10.9 4.8-.3.3-.3.8 0 1.1.3.3.7.3 1 0 2.6-2.8 6.2-4.4 9.9-4.4s7.3 1.6 9.9 4.4c.1.1.3.2.5.2s.4-.1.5-.2c.3-.3.3-.8 0-1.1-2.9-3.1-6.8-4.8-10.9-4.8z"/>
        <path d="M19.5 20.4c-2.6 0-4.6 2.2-4.6 5s2.1 5 4.6 5c2.6 0 4.6-2.2 4.6-5s-2.1-5-4.6-5zm0 8.3c-1.8 0-3.2-1.5-3.2-3.4s1.4-3.4 3.2-3.4c1.8 0 3.2 1.5 3.2 3.4s-1.5 3.4-3.2 3.4z"/>
    </g>
</symbol></svg>