<svg width="135" height="21" viewBox="0 0 135 21" xmlns="http://www.w3.org/2000/svg">
    <title>
        tripadvisor-nederland
    </title>
    <g fill="none" fill-rule="evenodd">
        <g>
            <path d="M14.473 12.1c1.113 3.1 4.655 4.7 7.793 3.5 3.137-1.1 4.757-4.6 3.542-7.7-1.113-3.1-4.655-4.7-7.793-3.5-3.036 1.1-4.655 4.6-3.542 7.7z" fill="#FFF" fill-rule="nonzero"/>
            <ellipse fill="#FFF" fill-rule="nonzero" cx="6.781" cy="10" rx="6.073" ry="6"/>
            <path d="M7.793 9.9c0 .6-.506 1.1-1.113 1.1s-1.114-.5-1.114-1.1c0-.6.507-1.1 1.114-1.1.607 0 1.113.5 1.113 1.1z" fill="#5B6D7C" fill-rule="nonzero"/>
            <path d="M21.254 9.9c0 .6-.506 1.1-1.114 1.1-.607 0-1.113-.5-1.113-1.1 0-.6.506-1.1 1.113-1.1.608 0 1.114.5 1.114 1.1z" fill="#5B6D7C" fill-rule="nonzero"/>
            <path d="M3.34 9.9c0 1.8 1.518 3.3 3.34 3.3 1.822 0 3.34-1.5 3.34-3.3 0-1.8-1.518-3.3-3.34-3.3-1.822 0-3.34 1.5-3.34 3.3zm1.113 0c0-1.2 1.012-2.2 2.227-2.2 1.214 0 2.226 1 2.226 2.2 0 1.2-1.012 2.2-2.226 2.2-1.215 0-2.227-1-2.227-2.2zm12.348 0c0 1.8 1.518 3.3 3.34 3.3 1.821 0 3.34-1.5 3.34-3.3 0-1.8-1.519-3.3-3.34-3.3-1.822 0-3.34 1.5-3.34 3.3zm1.214 0c0-1.2 1.012-2.2 2.227-2.2 1.214 0 2.226 1 2.226 2.2 0 1.2-1.012 2.2-2.226 2.2-1.316 0-2.227-1-2.227-2.2z" fill="#5B6D7C" fill-rule="nonzero"/>
            <path d="M15.687 12.9c.506.8 1.316 1.5 2.227 1.9 1.316.6 2.733.7 4.15.2 2.833-1 4.25-4.1 3.137-6.8-1.012-2.8-4.15-4.2-6.882-3.1a5.523 5.523 0 0 0-3.037 2.8c-.404.9-.506 1.8-.404 2.7"/>
            <path d="M25.606 6c.303-1.3 1.315-2.7 1.315-2.7h-4.453C19.938 1.7 16.902.8 13.461.8c-3.543 0-6.68.9-9.21 2.5L0 3.4s1.012 1.3 1.316 2.7C.506 7.2 0 8.5 0 10c0 3.7 3.036 6.7 6.781 6.7 2.125 0 4.048-1 5.263-2.5l1.417 2.1 1.417-2.1c.607.8 1.518 1.5 2.429 1.9 1.619.7 3.44.8 5.161.2 3.441-1.3 5.263-5.1 3.947-8.6-.1-.6-.404-1.2-.81-1.7zM13.46 2.1c2.429 0 4.655.4 6.578 1.3-.708 0-1.417.1-2.125.4-1.72.6-3.036 1.8-3.745 3.5-.303.7-.506 1.5-.607 2.3-.202-3.4-3.138-6.1-6.579-6.2 1.822-.9 4.049-1.3 6.478-1.3zM11.234 13c-1.012 1.4-2.631 2.3-4.453 2.3-2.935 0-5.364-2.4-5.364-5.3S3.846 4.7 6.78 4.7 12.145 7 12.145 10c0 .2 0 .3-.101.5-.101.9-.304 1.7-.81 2.5zm10.83 2c-1.316.5-2.834.4-4.15-.2-.911-.4-1.72-1.1-2.227-1.9-.202-.3-.405-.7-.607-1.1-.202-.4-.202-.9-.304-1.3-.1-.9 0-1.9.405-2.7.608-1.3 1.72-2.3 3.037-2.8 2.833-1 5.87.4 6.882 3.1 1.214 2.8-.304 5.9-3.037 6.9z" fill="#5B6D7C" fill-rule="nonzero"/>
        </g>
        <g fill="#5B6D7C" fill-rule="nonzero">
            <path d="M96.755 2c0 .7.608 1.3 1.316 1.3.708 0 1.316-.6 1.316-1.3 0-.7-.608-1.3-1.316-1.3-.708 0-1.316.6-1.316 1.3z"/>
            <path d="M34.917 1.9l-2.024.7v2.5h-2.227v1.7h2.126v5.5c0 2.6.91 3.7 3.137 3.7.607 0 1.113-.1 1.62-.2h.1V14h-.1c-.405.1-.81.2-1.013.2-1.012 0-1.417-.6-1.417-2.1V6.8h2.53V5.1h-2.53V1.8l-.202.1zm6.78 4.9V5.1h-2.023v10.7H41.9v-5.4c0-2.2.911-3.5 2.733-3.5.202 0 .506 0 .81.1h.1V5l-.91-.1c-1.215 0-2.328.7-2.935 1.9zm15.688-2c-1.518 0-2.732.7-3.643 2V5.1h-2.024v15h2.226v-5.8c.81 1.1 1.923 1.6 3.34 1.6 2.733 0 4.554-2.2 4.554-5.7 0-3.2-1.821-5.4-4.453-5.4zm-.607 9.4c-1.72 0-2.834-1.5-2.834-3.8s1.113-3.7 2.935-3.7c1.72 0 2.733 1.4 2.733 3.7-.101 2.3-1.114 3.8-2.834 3.8z"/>
            <path d="M68.215 4.8c-1.316 0-2.53.2-3.543.8h-.101v1.8h.202c1.012-.6 2.025-.9 2.935-.9 1.62 0 2.53.9 2.53 2.5v.1h-1.214c-3.643 0-5.566 1.3-5.566 3.6 0 1.9 1.417 3.2 3.44 3.2 1.519 0 2.632-.6 3.543-1.7v1.5h2.024V9.3c-.202-3-1.518-4.5-4.25-4.5zm1.922 6.5c0 1.8-1.113 3-2.833 3-1.012 0-1.822-.7-1.822-1.7 0-1.3 1.214-2 3.542-2h1.113v.7zM81.574 0v6.5c-.81-1.1-1.923-1.7-3.34-1.7-2.631 0-4.453 2.2-4.453 5.4 0 3.3 1.822 5.7 4.453 5.7 1.518 0 2.733-.7 3.542-2v1.8h2.025V0h-2.227zM78.74 14.1c-1.62 0-2.732-1.4-2.732-3.8 0-2.3 1.012-3.8 2.631-3.8 1.822 0 2.935 1.4 2.935 3.8s-1.113 3.8-2.834 3.8zm14.777-9l-3.138 6.2-2.834-6.2h-2.429l5.263 10.7 5.465-10.7h-2.327zm5.465 0h-2.024v10.7h2.226V5.1h-.202zm2.733 2.7c0 1.5 1.012 2.3 2.935 3.2 1.214.6 1.821.9 1.821 1.8s-.81 1.4-2.024 1.4c-.81 0-1.822-.2-2.732-.7l-.203-.1-.101 1.9h.101c.911.4 1.822.5 2.834.5 2.631 0 4.453-1.3 4.453-3.2 0-1.6-1.113-2.5-3.036-3.3-1.417-.6-1.923-1-1.923-1.7 0-.6.607-1.1 1.62-1.1.91 0 1.821.2 2.63.6l.203.1.101-1.8h-.1c-.912-.3-1.823-.4-2.632-.4-2.328 0-3.947 1.1-3.947 2.8zm13.966-3c-3.34 0-5.364 2.1-5.364 5.6 0 3.5 2.024 5.6 5.364 5.6s5.364-2.1 5.364-5.6c0-3.5-2.024-5.6-5.364-5.6zm0 9.4c-1.821 0-3.036-1.5-3.036-3.8s1.215-3.9 3.036-3.9c1.822 0 3.037 1.5 3.037 3.9 0 2.3-1.114 3.8-3.037 3.8zm9.413-7.4V5.1h-2.025v10.7h2.227v-5.4c0-2.2.91-3.5 2.733-3.5.202 0 .506 0 .81.1h.1l.102-2.1-.911-.1c-1.417.1-2.43.8-3.036 2z"/>
            <path d="M49.49 5.1h-2.023v10.7h2.125V5.1h-.101zM47.164 2c0 .7.607 1.3 1.316 1.3.708 0 1.316-.6 1.316-1.3 0-.7-.608-1.3-1.316-1.3-.709 0-1.316.6-1.316 1.3z"/>
            <path d="M134.202 4.6c.405.4.506.8.506 1.4 0 .5-.202 1-.607 1.4-.405.4-.91.6-1.417.6a2.01 2.01 0 0 1-1.417-.6c-.404-.4-.607-.8-.607-1.3s.203-1 .607-1.4c.405-.4.81-.5 1.316-.5.709-.2 1.215 0 1.62.4zm-2.53.2c-.303.3-.506.7-.506 1.1 0 .4.203.8.506 1.1.304.3.709.5 1.113.5.405 0 .81-.2 1.114-.5.303-.3.506-.7.506-1.1 0-.4-.203-.8-.405-1.1-.304-.3-.708-.5-1.113-.5-.506.1-.911.2-1.215.5zm1.113.1c.608 0 .911.2.911.6 0 .3-.202.5-.506.6l.506.9h-.607l-.405-.8h-.1V7h-.608V4.9h.81zm-.202.9h.202c.304 0 .405-.1.405-.3 0-.2-.1-.3-.405-.3h-.202v.6z"/>
        </g>
    </g>
</svg>
