<svg width="22" height="14" viewBox="0 0 22 14" xmlns="http://www.w3.org/2000/svg">
    <title>
        uk
    </title>
    <g fill-rule="nonzero" fill="none">
        <path d="M20.352.011H1.648C.738.011 0 .727 0 1.61v10.782c0 .882.738 1.598 1.648 1.598h18.704c.91 0 1.648-.716 1.648-1.598V1.609c0-.882-.738-1.597-1.648-1.597z" fill="#41479B"/>
        <path d="M21.977 1.345C21.847.588 21.17.011 20.352.011h-.428l-7.027 4.465V.01H9.103v4.465L2.076.011h-.428C.83.011.153.588.023 1.346l6.006 3.816H0v3.678h6.029L.023 12.655c.13.757.807 1.334 1.625 1.334h.428l7.027-4.465v4.465h3.794V9.524l7.027 4.465h.428c.817 0 1.495-.577 1.625-1.334l-6.006-3.816H22V5.161h-6.029l6.006-3.816z" fill="#F5F5F5"/>
        <g fill="#FF4B55">
            <path d="M12.138.011H9.862v5.886H0v2.206h9.862v5.886h2.276V8.102H22V5.897h-9.862z"/>
            <path d="M1.065 13.886l8.018-5.047H7.689L.396 13.43c.179.203.408.36.67.457z"/>
            <path d="M14.884 8.84H13.49l7.766 4.887c.217-.139.398-.325.528-.545l-6.9-4.343z"/>
            <path d="M.174.895L6.951 5.16h1.394L.665.327a1.617 1.617 0 0 0-.491.568z"/>
            <path d="M14.29 5.16L21.596.563a1.652 1.652 0 0 0-.674-.453l-8.025 5.052h1.393z"/>
        </g>
    </g>
</svg>
