<svg width="22" height="14" viewBox="0 0 22 14" xmlns="http://www.w3.org/2000/svg">
    <title>
        us
    </title>
    <g fill-rule="nonzero" fill="none">
        <path d="M20.352.011H1.648C.738.011 0 .727 0 1.61v10.782c0 .882.738 1.598 1.648 1.598h18.704c.91 0 1.648-.716 1.648-1.598V1.609c0-.882-.738-1.597-1.648-1.597z" fill="#F5F5F5"/>
        <g fill="#FF4B55">
            <path d="M.09 1.087h21.82A1.645 1.645 0 0 0 20.351.012H1.648C.926.011.314.46.09 1.087z"/>
            <path d="M0 4.312h22v1.075H0z"/>
            <path d="M0 2.162h22v1.075H0z"/>
            <path d="M0 7.17c0 .203.17.368.38.368H22V6.462H0v.708z"/>
            <path d="M0 10.763h22v1.075H0z"/>
            <path d="M21.91 12.913H.09a1.645 1.645 0 0 0 1.558 1.075h18.704c.722 0 1.334-.449 1.557-1.075z"/>
            <path d="M0 8.613h22v1.075H0z"/>
        </g>
        <path d="M.38 7.538h9.482c.21 0 .38-.165.38-.368V.38a.374.374 0 0 0-.38-.369H1.648C.738.011 0 .727 0 1.61v5.56c0 .204.17.369.38.369z" fill="#41479B"/>
        <g fill="#F5F5F5">
            <path d="M1.065.856l.084.244.266.002c.034 0 .048.043.02.062l-.213.153.08.246c.01.031-.027.058-.055.038l-.216-.15-.216.15c-.028.02-.065-.007-.055-.038l.08-.246-.213-.153c-.028-.02-.013-.062.021-.062L.913 1.1.997.856c.011-.032.057-.032.068 0z"/>
            <path d="M1.065 2.133l.084.244.266.002c.034 0 .048.043.02.063l-.213.153.08.245c.01.032-.027.058-.055.039l-.216-.15-.216.15C.787 2.898.75 2.872.76 2.84l.08-.245-.213-.153c-.028-.02-.013-.063.021-.063l.265-.002.084-.244c.011-.032.057-.032.068 0z"/>
            <path d="M1.065 3.41l.084.244.266.002c.034 0 .048.043.02.063l-.213.153.08.245c.01.032-.027.058-.055.039l-.216-.15-.216.15c-.028.02-.065-.007-.055-.039l.08-.245-.213-.153c-.028-.02-.013-.062.021-.063l.265-.002.084-.244c.011-.031.057-.031.068 0z"/>
            <path d="M1.065 4.688l.084.244.266.002c.034 0 .048.042.02.062l-.213.153.08.246c.01.031-.027.058-.055.038l-.216-.15-.216.15c-.028.02-.065-.007-.055-.038l.08-.246-.213-.153c-.028-.02-.013-.062.021-.062l.265-.002.084-.244c.011-.032.057-.032.068 0z"/>
            <path d="M1.065 5.965l.084.244.266.002c.034 0 .048.043.02.062l-.213.153.08.246c.01.032-.027.058-.055.038l-.216-.15-.216.15C.787 6.73.75 6.704.76 6.672l.08-.246-.213-.152c-.028-.02-.013-.063.021-.063l.265-.002.084-.244c.011-.032.057-.032.068 0z"/>
            <path d="M2.088 1.482l.083.244.266.002c.034 0 .048.043.02.063l-.213.153.08.245c.01.032-.027.058-.054.039l-.216-.15-.216.15c-.028.019-.066-.007-.055-.04l.08-.244-.214-.153c-.027-.02-.013-.063.021-.063l.266-.002.084-.244c.01-.032.057-.032.068 0z"/>
            <path d="M2.088 2.76l.083.243.266.002c.034 0 .048.043.02.063l-.213.153.08.245c.01.032-.027.058-.054.039l-.216-.15-.216.15c-.028.02-.066-.007-.055-.039l.08-.245-.214-.153c-.027-.02-.013-.062.021-.063l.266-.002.084-.244c.01-.031.057-.031.068 0z"/>
            <path d="M2.088 4.036l.083.245.266.002c.034 0 .048.042.02.062l-.213.153.08.245c.01.032-.027.059-.054.04l-.216-.15-.216.15c-.028.019-.066-.008-.055-.04l.08-.245-.214-.153c-.027-.02-.013-.062.021-.062l.266-.002.084-.245c.01-.031.057-.031.068 0z"/>
            <path d="M2.088 5.314l.083.244.266.002c.034 0 .048.043.02.062l-.213.153.08.246c.01.031-.027.058-.054.038l-.216-.15-.216.15c-.028.02-.066-.007-.055-.038l.08-.246-.214-.153c-.027-.02-.013-.062.021-.062l.266-.002.084-.244c.01-.032.057-.032.068 0z"/>
            <path d="M3.11.856l.084.244.265.002c.035 0 .049.043.021.062l-.213.153.08.246c.01.031-.027.058-.055.038l-.216-.15-.216.15c-.028.02-.065-.007-.055-.038l.08-.246-.213-.153c-.028-.02-.014-.062.02-.062l.266-.002.084-.244c.01-.032.057-.032.068 0z"/>
            <path d="M3.11 2.133l.084.244.265.002c.035 0 .049.043.021.063l-.213.153.08.245c.01.032-.027.058-.055.039l-.216-.15-.216.15c-.028.019-.065-.007-.055-.039l.08-.245-.213-.153c-.028-.02-.014-.063.02-.063l.266-.002.084-.244c.01-.032.057-.032.068 0z"/>
            <path d="M3.11 3.41l.084.244.265.002c.035 0 .049.043.021.063l-.213.153.08.245c.01.032-.027.058-.055.039l-.216-.15-.216.15c-.028.02-.065-.007-.055-.039l.08-.245-.213-.153c-.028-.02-.014-.062.02-.063l.266-.002.084-.244c.01-.031.057-.031.068 0z"/>
            <path d="M3.11 4.688l.084.244.265.002c.035 0 .049.042.021.062l-.213.153.08.246c.01.031-.027.058-.055.038l-.216-.15-.216.15c-.028.02-.065-.007-.055-.038l.08-.246-.213-.153c-.028-.02-.014-.062.02-.062l.266-.002.084-.244c.01-.032.057-.032.068 0z"/>
            <path d="M3.11 5.965l.084.244.265.002c.035 0 .049.043.021.062l-.213.153.08.246c.01.032-.027.058-.055.038l-.216-.15-.216.15c-.028.02-.065-.006-.055-.038l.08-.246-.213-.153c-.028-.02-.014-.062.02-.062l.266-.002.084-.244c.01-.032.057-.032.068 0z"/>
            <path d="M4.132 1.482l.084.244.266.002c.034 0 .048.043.02.063l-.213.153.08.245c.01.032-.027.058-.055.039l-.216-.15-.216.15c-.028.019-.065-.007-.054-.04l.08-.244-.214-.153c-.028-.02-.013-.063.021-.063l.265-.002.084-.244c.011-.032.057-.032.068 0z"/>
            <path d="M4.132 2.76l.084.243.266.002c.034 0 .048.043.02.063l-.213.153.08.245c.01.032-.027.058-.055.039l-.216-.15-.216.15c-.028.02-.065-.007-.054-.039l.08-.245-.214-.153c-.028-.02-.013-.062.021-.063l.265-.002.084-.244c.011-.031.057-.031.068 0z"/>
            <path d="M4.132 4.036l.084.245.266.002c.034 0 .048.042.02.062l-.213.153.08.245c.01.032-.027.059-.055.04l-.216-.15-.216.15c-.028.019-.065-.008-.054-.04l.08-.245-.214-.153c-.028-.02-.013-.062.021-.062l.265-.002.084-.245c.011-.031.057-.031.068 0z"/>
            <path d="M4.132 5.314l.084.244.266.002c.034 0 .048.043.02.062l-.213.153.08.246c.01.031-.027.058-.055.038l-.216-.15-.216.15c-.028.02-.065-.007-.054-.038l.08-.246-.214-.153c-.028-.02-.013-.062.021-.062l.265-.002.084-.244c.011-.032.057-.032.068 0z"/>
            <path d="M5.155.856l.084.244.265.002c.034 0 .049.043.021.062l-.214.153.08.246c.01.031-.026.058-.054.038l-.216-.15-.216.15c-.028.02-.065-.007-.055-.038l.08-.246-.214-.153c-.027-.02-.013-.062.021-.062l.266-.002.084-.244c.01-.032.057-.032.068 0z"/>
            <path d="M5.155 2.133l.084.244.265.002c.034 0 .049.043.021.063l-.214.153.08.245c.01.032-.026.058-.054.039l-.216-.15-.216.15c-.028.019-.065-.007-.055-.039l.08-.245-.214-.153c-.027-.02-.013-.063.021-.063l.266-.002.084-.244c.01-.032.057-.032.068 0z"/>
            <path d="M5.155 3.41l.084.244.265.002c.034 0 .049.043.021.063l-.214.153.08.245c.01.032-.026.058-.054.039l-.216-.15-.216.15c-.028.02-.065-.007-.055-.039l.08-.245-.214-.153c-.027-.02-.013-.062.021-.063l.266-.002.084-.244c.01-.031.057-.031.068 0z"/>
            <path d="M5.155 4.688l.084.244.265.002c.034 0 .049.042.021.062l-.214.153.08.246c.01.031-.026.058-.054.038l-.216-.15-.216.15c-.028.02-.065-.007-.055-.038l.08-.246-.214-.153c-.027-.02-.013-.062.021-.062l.266-.002.084-.244c.01-.032.057-.032.068 0z"/>
            <path d="M5.155 5.965l.084.244.265.002c.034 0 .049.043.021.062l-.214.153.08.246c.01.032-.026.058-.054.038l-.216-.15-.216.15c-.028.02-.065-.006-.055-.038l.08-.246-.214-.153c-.027-.02-.013-.062.021-.062l.266-.002.084-.244c.01-.032.057-.032.068 0z"/>
            <path d="M6.177 1.482l.084.244.265.002c.035 0 .049.043.021.063l-.213.153.08.245c.01.032-.027.058-.055.039l-.216-.15-.216.15c-.028.019-.065-.007-.055-.04l.08-.244-.213-.153c-.028-.02-.014-.063.02-.063l.266-.002.084-.244c.011-.032.057-.032.068 0z"/>
            <path d="M6.177 2.76l.084.243.265.002c.035 0 .049.043.021.063l-.213.153.08.245c.01.032-.027.058-.055.039l-.216-.15-.216.15c-.028.02-.065-.007-.055-.039l.08-.245-.213-.153c-.028-.02-.014-.062.02-.063l.266-.002.084-.244c.011-.031.057-.031.068 0z"/>
            <path d="M6.177 4.036l.084.245.265.002c.035 0 .049.042.021.062l-.213.153.08.245c.01.032-.027.059-.055.04l-.216-.15-.216.15c-.028.019-.065-.008-.055-.04l.08-.245-.213-.153c-.028-.02-.014-.062.02-.062l.266-.002.084-.245c.011-.031.057-.031.068 0z"/>
            <path d="M6.177 5.314l.084.244.265.002c.035 0 .049.043.021.062l-.213.153.08.246c.01.031-.027.058-.055.038l-.216-.15-.216.15c-.028.02-.065-.007-.055-.038l.08-.246-.213-.153c-.028-.02-.014-.062.02-.062l.266-.002.084-.244c.011-.032.057-.032.068 0z"/>
            <path d="M7.2.856l.083.244.266.002c.034 0 .048.043.02.062l-.213.153.08.246c.01.031-.027.058-.055.038l-.216-.15-.215.15c-.028.02-.066-.007-.055-.038l.08-.246-.214-.153c-.027-.02-.013-.062.021-.062l.266-.002.084-.244c.01-.032.056-.032.067 0z"/>
            <path d="M7.2 2.133l.083.244.266.002c.034 0 .048.043.02.063l-.213.153.08.245c.01.032-.027.058-.055.039l-.216-.15-.215.15c-.028.019-.066-.007-.055-.039l.08-.245-.214-.153c-.027-.02-.013-.063.021-.063l.266-.002.084-.244c.01-.032.056-.032.067 0z"/>
            <path d="M7.2 3.41l.083.244.266.002c.034 0 .048.043.02.063l-.213.153.08.245c.01.032-.027.058-.055.039l-.216-.15-.215.15c-.028.02-.066-.007-.055-.039l.08-.245-.214-.153c-.027-.02-.013-.062.021-.063l.266-.002.084-.244c.01-.031.056-.031.067 0z"/>
            <path d="M7.2 4.688l.083.244.266.002c.034 0 .048.042.02.062l-.213.153.08.246c.01.031-.027.058-.055.038l-.216-.15-.215.15c-.028.02-.066-.007-.055-.038l.08-.246-.214-.153c-.027-.02-.013-.062.021-.062l.266-.002.084-.244c.01-.032.056-.032.067 0z"/>
            <path d="M7.2 5.965l.083.244.266.002c.034 0 .048.043.02.062l-.213.153.08.246c.01.032-.027.058-.055.038l-.216-.15-.215.15c-.028.02-.066-.006-.055-.038l.08-.246-.214-.153c-.027-.02-.013-.062.021-.062l.266-.002.084-.244c.01-.032.056-.032.067 0z"/>
            <path d="M8.222 1.482l.084.244.265.002c.034 0 .049.043.021.063l-.213.153.08.245c.01.032-.027.058-.055.039l-.216-.15-.216.15c-.028.019-.065-.007-.055-.04l.08-.244-.213-.153c-.028-.02-.014-.063.02-.063l.266-.002.084-.244c.01-.032.057-.032.068 0z"/>
            <path d="M8.222 2.76l.084.243.265.002c.034 0 .049.043.021.063l-.213.153.08.245c.01.032-.027.058-.055.039l-.216-.15-.216.15c-.028.02-.065-.007-.055-.039l.08-.245-.213-.153c-.028-.02-.014-.062.02-.063l.266-.002.084-.244c.01-.031.057-.031.068 0z"/>
            <path d="M8.222 4.036l.084.245.265.002c.034 0 .049.042.021.062l-.213.153.08.245c.01.032-.027.059-.055.04l-.216-.15-.216.15c-.028.019-.065-.008-.055-.04l.08-.245-.213-.153c-.028-.02-.014-.062.02-.062l.266-.002.084-.245c.01-.031.057-.031.068 0z"/>
            <path d="M8.222 5.314l.084.244.265.002c.034 0 .049.043.021.062l-.213.153.08.246c.01.031-.027.058-.055.038l-.216-.15-.216.15c-.028.02-.065-.007-.055-.038l.08-.246-.213-.153c-.028-.02-.014-.062.02-.062l.266-.002.084-.244c.01-.032.057-.032.068 0z"/>
            <path d="M9.244.856l.084.244.266.002c.034 0 .048.043.02.062l-.213.153.08.246c.01.031-.027.058-.055.038l-.216-.15-.216.15c-.028.02-.065-.007-.055-.038l.08-.246-.213-.153c-.028-.02-.013-.062.02-.062l.266-.002.084-.244c.011-.032.057-.032.068 0z"/>
            <path d="M9.244 2.133l.084.244.266.002c.034 0 .048.043.02.063l-.213.153.08.245c.01.032-.027.058-.055.039l-.216-.15-.216.15c-.028.019-.065-.007-.055-.039l.08-.245-.213-.153c-.028-.02-.013-.063.02-.063l.266-.002.084-.244c.011-.032.057-.032.068 0z"/>
            <path d="M9.244 3.41l.084.244.266.002c.034 0 .048.043.02.063l-.213.153.08.245c.01.032-.027.058-.055.039l-.216-.15-.216.15c-.028.02-.065-.007-.055-.039l.08-.245-.213-.153c-.028-.02-.013-.062.02-.063l.266-.002.084-.244c.011-.031.057-.031.068 0z"/>
            <path d="M9.244 4.688l.084.244.266.002c.034 0 .048.042.02.062l-.213.153.08.246c.01.031-.027.058-.055.038l-.216-.15-.216.15c-.028.02-.065-.007-.055-.038l.08-.246-.213-.153c-.028-.02-.013-.062.02-.062l.266-.002.084-.244c.011-.032.057-.032.068 0z"/>
            <path d="M9.244 5.965l.084.244.266.002c.034 0 .048.043.02.062l-.213.153.08.246c.01.032-.027.058-.055.038l-.216-.15-.216.15c-.028.02-.065-.006-.055-.038l.08-.246-.213-.153c-.028-.02-.013-.062.02-.062l.266-.002.084-.244c.011-.032.057-.032.068 0z"/>
        </g>
    </g>
</svg>
